M48
; DRILL file {KiCad (5.1.5)-3} date 11/23/2021 10:40:52 PM
; FORMAT={-:-/ absolute / inch / decimal}
; #@! TF.CreationDate,2021-11-23T22:40:52-06:00
; #@! TF.GenerationSoftware,Kicad,Pcbnew,(5.1.5)-3
FMAT,2
INCH
T1C0.0157
T2C0.0402
T3C0.1181
%
G90
G05
T1
X4.9843Y-3.9055
X5.0551Y-4.0394
X5.1102Y-3.8504
X5.5079Y-4.5551
X5.5669Y-4.4961
X5.7362Y-4.4462
X5.7559Y-2.6614
X5.8169Y-4.2717
X5.874Y-3.8189
X5.874Y-4.0945
X5.874Y-4.6378
X5.9921Y-3.748
X5.9958Y-4.8211
X6.0433Y-4.3504
X6.0728Y-4.3012
X6.1024Y-3.8031
X6.1024Y-3.8504
X6.1024Y-3.8977
X6.2894Y-4.7933
X6.3386Y-4.3209
X6.4687Y-5.3487
X6.5669Y-4.252
X6.5748Y-4.5118
X6.5906Y-4.7953
X6.5984Y-4.2795
X6.6457Y-3.685
X6.7137Y-5.3987
X6.7165Y-2.6614
X6.7421Y-4.7343
X6.7598Y-5.8898
X7.0571Y-5.4626
X7.185Y-5.4626
X7.313Y-5.4626
T2
X7.0019Y-4.0492
X7.0019Y-4.1673
X7.0019Y-4.5897
X7.0019Y-4.7078
X7.0019Y-3.5087
X7.0019Y-3.6269
X7.0019Y-2.8502
X7.0019Y-2.9683
X7.0019Y-3.0864
X5.7338Y-6.0237
X5.8519Y-6.0237
X5.97Y-6.0237
X6.0881Y-6.0237
X6.2063Y-6.0237
X6.3244Y-6.0237
X6.4425Y-6.0237
X6.5606Y-6.0237
X6.6787Y-6.0237
X5.2697Y-4.8353
X5.2697Y-4.9534
X5.2697Y-4.2375
X5.2697Y-4.3556
X5.2697Y-4.4737
X7.0019Y-5.1302
X7.0019Y-5.2483
T3
X5.0996Y-4.8943
X5.0996Y-4.3556
X7.172Y-5.1892
X7.172Y-4.1083
X5.0127Y-2.0207
X7.172Y-4.6487
X7.2507Y-2.0217
X7.172Y-3.5678
X5.0127Y-6.2587
X7.172Y-2.9683
X5.8185Y-6.1938
X6.5941Y-6.1938
X7.2517Y-6.2587
T0
M30
