G04 #@! TF.GenerationSoftware,KiCad,Pcbnew,(6.0.1)*
G04 #@! TF.CreationDate,2022-05-25T00:18:57-05:00*
G04 #@! TF.ProjectId,Controls-LightingPCB,436f6e74-726f-46c7-932d-4c6967687469,rev?*
G04 #@! TF.SameCoordinates,Original*
G04 #@! TF.FileFunction,Legend,Bot*
G04 #@! TF.FilePolarity,Positive*
%FSLAX46Y46*%
G04 Gerber Fmt 4.6, Leading zero omitted, Abs format (unit mm)*
G04 Created by KiCad (PCBNEW (6.0.1)) date 2022-05-25 00:18:57*
%MOMM*%
%LPD*%
G01*
G04 APERTURE LIST*
%ADD10C,0.889000*%
%ADD11C,0.600000*%
%ADD12C,0.150000*%
%ADD13C,0.120000*%
G04 APERTURE END LIST*
D10*
X150800666Y-81617608D02*
X150800666Y-77172608D01*
X150800666Y-79289275D02*
X148260666Y-79289275D01*
X148260666Y-81617608D02*
X148260666Y-77172608D01*
X144450666Y-81405941D02*
X144874000Y-81617608D01*
X145720666Y-81617608D01*
X146144000Y-81405941D01*
X146355666Y-80982608D01*
X146355666Y-79289275D01*
X146144000Y-78865941D01*
X145720666Y-78654275D01*
X144874000Y-78654275D01*
X144450666Y-78865941D01*
X144239000Y-79289275D01*
X144239000Y-79712608D01*
X146355666Y-80135941D01*
X140429000Y-81617608D02*
X140429000Y-79289275D01*
X140640666Y-78865941D01*
X141064000Y-78654275D01*
X141910666Y-78654275D01*
X142334000Y-78865941D01*
X140429000Y-81405941D02*
X140852333Y-81617608D01*
X141910666Y-81617608D01*
X142334000Y-81405941D01*
X142545666Y-80982608D01*
X142545666Y-80559275D01*
X142334000Y-80135941D01*
X141910666Y-79924275D01*
X140852333Y-79924275D01*
X140429000Y-79712608D01*
X136407333Y-81617608D02*
X136407333Y-77172608D01*
X136407333Y-81405941D02*
X136830666Y-81617608D01*
X137677333Y-81617608D01*
X138100666Y-81405941D01*
X138312333Y-81194275D01*
X138524000Y-80770941D01*
X138524000Y-79500941D01*
X138312333Y-79077608D01*
X138100666Y-78865941D01*
X137677333Y-78654275D01*
X136830666Y-78654275D01*
X136407333Y-78865941D01*
X150377333Y-88774058D02*
X152494000Y-88774058D01*
X152494000Y-84329058D01*
X148895666Y-88774058D02*
X148895666Y-85810725D01*
X148895666Y-84329058D02*
X149107333Y-84540725D01*
X148895666Y-84752391D01*
X148684000Y-84540725D01*
X148895666Y-84329058D01*
X148895666Y-84752391D01*
X144874000Y-85810725D02*
X144874000Y-89409058D01*
X145085666Y-89832391D01*
X145297333Y-90044058D01*
X145720666Y-90255725D01*
X146355666Y-90255725D01*
X146779000Y-90044058D01*
X144874000Y-88562391D02*
X145297333Y-88774058D01*
X146144000Y-88774058D01*
X146567333Y-88562391D01*
X146779000Y-88350725D01*
X146990666Y-87927391D01*
X146990666Y-86657391D01*
X146779000Y-86234058D01*
X146567333Y-86022391D01*
X146144000Y-85810725D01*
X145297333Y-85810725D01*
X144874000Y-86022391D01*
X142757333Y-88774058D02*
X142757333Y-84329058D01*
X140852333Y-88774058D02*
X140852333Y-86445725D01*
X141064000Y-86022391D01*
X141487333Y-85810725D01*
X142122333Y-85810725D01*
X142545666Y-86022391D01*
X142757333Y-86234058D01*
X139370666Y-85810725D02*
X137677333Y-85810725D01*
X138735666Y-84329058D02*
X138735666Y-88139058D01*
X138524000Y-88562391D01*
X138100666Y-88774058D01*
X137677333Y-88774058D01*
X136407333Y-88562391D02*
X135984000Y-88774058D01*
X135137333Y-88774058D01*
X134714000Y-88562391D01*
X134502333Y-88139058D01*
X134502333Y-87927391D01*
X134714000Y-87504058D01*
X135137333Y-87292391D01*
X135772333Y-87292391D01*
X136195666Y-87080725D01*
X136407333Y-86657391D01*
X136407333Y-86445725D01*
X136195666Y-86022391D01*
X135772333Y-85810725D01*
X135137333Y-85810725D01*
X134714000Y-86022391D01*
X148578166Y-57708608D02*
X150059833Y-55591941D01*
X151118166Y-57708608D02*
X151118166Y-53263608D01*
X149424833Y-53263608D01*
X149001500Y-53475275D01*
X148789833Y-53686941D01*
X148578166Y-54110275D01*
X148578166Y-54745275D01*
X148789833Y-55168608D01*
X149001500Y-55380275D01*
X149424833Y-55591941D01*
X151118166Y-55591941D01*
X146673166Y-57708608D02*
X146673166Y-54745275D01*
X146673166Y-53263608D02*
X146884833Y-53475275D01*
X146673166Y-53686941D01*
X146461500Y-53475275D01*
X146673166Y-53263608D01*
X146673166Y-53686941D01*
X142651500Y-54745275D02*
X142651500Y-58343608D01*
X142863166Y-58766941D01*
X143074833Y-58978608D01*
X143498166Y-59190275D01*
X144133166Y-59190275D01*
X144556500Y-58978608D01*
X142651500Y-57496941D02*
X143074833Y-57708608D01*
X143921500Y-57708608D01*
X144344833Y-57496941D01*
X144556500Y-57285275D01*
X144768166Y-56861941D01*
X144768166Y-55591941D01*
X144556500Y-55168608D01*
X144344833Y-54956941D01*
X143921500Y-54745275D01*
X143074833Y-54745275D01*
X142651500Y-54956941D01*
X140534833Y-57708608D02*
X140534833Y-53263608D01*
X138629833Y-57708608D02*
X138629833Y-55380275D01*
X138841500Y-54956941D01*
X139264833Y-54745275D01*
X139899833Y-54745275D01*
X140323166Y-54956941D01*
X140534833Y-55168608D01*
X137148166Y-54745275D02*
X135454833Y-54745275D01*
X136513166Y-53263608D02*
X136513166Y-57073608D01*
X136301500Y-57496941D01*
X135878166Y-57708608D01*
X135454833Y-57708608D01*
X149319000Y-62536725D02*
X148684000Y-62748391D01*
X148472333Y-62960058D01*
X148260666Y-63383391D01*
X148260666Y-64018391D01*
X148472333Y-64441725D01*
X148684000Y-64653391D01*
X149107333Y-64865058D01*
X150800666Y-64865058D01*
X150800666Y-60420058D01*
X149319000Y-60420058D01*
X148895666Y-60631725D01*
X148684000Y-60843391D01*
X148472333Y-61266725D01*
X148472333Y-61690058D01*
X148684000Y-62113391D01*
X148895666Y-62325058D01*
X149319000Y-62536725D01*
X150800666Y-62536725D01*
X145720666Y-64865058D02*
X146144000Y-64653391D01*
X146355666Y-64230058D01*
X146355666Y-60420058D01*
X144027333Y-64865058D02*
X144027333Y-61901725D01*
X144027333Y-60420058D02*
X144239000Y-60631725D01*
X144027333Y-60843391D01*
X143815666Y-60631725D01*
X144027333Y-60420058D01*
X144027333Y-60843391D01*
X141910666Y-61901725D02*
X141910666Y-64865058D01*
X141910666Y-62325058D02*
X141699000Y-62113391D01*
X141275666Y-61901725D01*
X140640666Y-61901725D01*
X140217333Y-62113391D01*
X140005666Y-62536725D01*
X140005666Y-64865058D01*
X137889000Y-64865058D02*
X137889000Y-60420058D01*
X137465666Y-63171725D02*
X136195666Y-64865058D01*
X136195666Y-61901725D02*
X137889000Y-63595058D01*
X174994166Y-107260833D02*
X172877500Y-107260833D01*
X175417500Y-108530833D02*
X173935833Y-104085833D01*
X172454166Y-108530833D01*
X170972500Y-108530833D02*
X170972500Y-105567500D01*
X170972500Y-106414166D02*
X170760833Y-105990833D01*
X170549166Y-105779166D01*
X170125833Y-105567500D01*
X169702500Y-105567500D01*
X168220833Y-108530833D02*
X168220833Y-105567500D01*
X168220833Y-106414166D02*
X168009166Y-105990833D01*
X167797500Y-105779166D01*
X167374166Y-105567500D01*
X166950833Y-105567500D01*
X163564166Y-108530833D02*
X163564166Y-106202500D01*
X163775833Y-105779166D01*
X164199166Y-105567500D01*
X165045833Y-105567500D01*
X165469166Y-105779166D01*
X163564166Y-108319166D02*
X163987500Y-108530833D01*
X165045833Y-108530833D01*
X165469166Y-108319166D01*
X165680833Y-107895833D01*
X165680833Y-107472500D01*
X165469166Y-107049166D01*
X165045833Y-106837500D01*
X163987500Y-106837500D01*
X163564166Y-106625833D01*
X161870833Y-105567500D02*
X160812500Y-108530833D01*
X159754166Y-105567500D02*
X160812500Y-108530833D01*
X161235833Y-109589166D01*
X161447500Y-109800833D01*
X161870833Y-110012500D01*
X152261166Y-108530833D02*
X152261166Y-104085833D01*
X150779500Y-107260833D01*
X149297833Y-104085833D01*
X149297833Y-108530833D01*
X146546166Y-108530833D02*
X146969500Y-108319166D01*
X147181166Y-108107500D01*
X147392833Y-107684166D01*
X147392833Y-106414166D01*
X147181166Y-105990833D01*
X146969500Y-105779166D01*
X146546166Y-105567500D01*
X145911166Y-105567500D01*
X145487833Y-105779166D01*
X145276166Y-105990833D01*
X145064500Y-106414166D01*
X145064500Y-107684166D01*
X145276166Y-108107500D01*
X145487833Y-108319166D01*
X145911166Y-108530833D01*
X146546166Y-108530833D01*
X143794500Y-105567500D02*
X142101166Y-105567500D01*
X143159500Y-104085833D02*
X143159500Y-107895833D01*
X142947833Y-108319166D01*
X142524500Y-108530833D01*
X142101166Y-108530833D01*
X139984500Y-108530833D02*
X140407833Y-108319166D01*
X140619500Y-108107500D01*
X140831166Y-107684166D01*
X140831166Y-106414166D01*
X140619500Y-105990833D01*
X140407833Y-105779166D01*
X139984500Y-105567500D01*
X139349500Y-105567500D01*
X138926166Y-105779166D01*
X138714500Y-105990833D01*
X138502833Y-106414166D01*
X138502833Y-107684166D01*
X138714500Y-108107500D01*
X138926166Y-108319166D01*
X139349500Y-108530833D01*
X139984500Y-108530833D01*
X136597833Y-108530833D02*
X136597833Y-105567500D01*
X136597833Y-106414166D02*
X136386166Y-105990833D01*
X136174500Y-105779166D01*
X135751166Y-105567500D01*
X135327833Y-105567500D01*
X171057166Y-57708608D02*
X173173833Y-57708608D01*
X173173833Y-53263608D01*
X167882166Y-57496941D02*
X168305500Y-57708608D01*
X169152166Y-57708608D01*
X169575500Y-57496941D01*
X169787166Y-57073608D01*
X169787166Y-55380275D01*
X169575500Y-54956941D01*
X169152166Y-54745275D01*
X168305500Y-54745275D01*
X167882166Y-54956941D01*
X167670500Y-55380275D01*
X167670500Y-55803608D01*
X169787166Y-56226941D01*
X166400500Y-54745275D02*
X164707166Y-54745275D01*
X165765500Y-57708608D02*
X165765500Y-53898608D01*
X165553833Y-53475275D01*
X165130500Y-53263608D01*
X164707166Y-53263608D01*
X163860500Y-54745275D02*
X162167166Y-54745275D01*
X163225500Y-53263608D02*
X163225500Y-57073608D01*
X163013833Y-57496941D01*
X162590500Y-57708608D01*
X162167166Y-57708608D01*
X173703000Y-62536725D02*
X173068000Y-62748391D01*
X172856333Y-62960058D01*
X172644666Y-63383391D01*
X172644666Y-64018391D01*
X172856333Y-64441725D01*
X173068000Y-64653391D01*
X173491333Y-64865058D01*
X175184666Y-64865058D01*
X175184666Y-60420058D01*
X173703000Y-60420058D01*
X173279666Y-60631725D01*
X173068000Y-60843391D01*
X172856333Y-61266725D01*
X172856333Y-61690058D01*
X173068000Y-62113391D01*
X173279666Y-62325058D01*
X173703000Y-62536725D01*
X175184666Y-62536725D01*
X170104666Y-64865058D02*
X170528000Y-64653391D01*
X170739666Y-64230058D01*
X170739666Y-60420058D01*
X168411333Y-64865058D02*
X168411333Y-61901725D01*
X168411333Y-60420058D02*
X168623000Y-60631725D01*
X168411333Y-60843391D01*
X168199666Y-60631725D01*
X168411333Y-60420058D01*
X168411333Y-60843391D01*
X166294666Y-61901725D02*
X166294666Y-64865058D01*
X166294666Y-62325058D02*
X166083000Y-62113391D01*
X165659666Y-61901725D01*
X165024666Y-61901725D01*
X164601333Y-62113391D01*
X164389666Y-62536725D01*
X164389666Y-64865058D01*
X162273000Y-64865058D02*
X162273000Y-60420058D01*
X161849666Y-63171725D02*
X160579666Y-64865058D01*
X160579666Y-61901725D02*
X162273000Y-63595058D01*
X171501666Y-122944275D02*
X170866666Y-123155941D01*
X170655000Y-123367608D01*
X170443333Y-123790941D01*
X170443333Y-124425941D01*
X170655000Y-124849275D01*
X170866666Y-125060941D01*
X171290000Y-125272608D01*
X172983333Y-125272608D01*
X172983333Y-120827608D01*
X171501666Y-120827608D01*
X171078333Y-121039275D01*
X170866666Y-121250941D01*
X170655000Y-121674275D01*
X170655000Y-122097608D01*
X170866666Y-122520941D01*
X171078333Y-122732608D01*
X171501666Y-122944275D01*
X172983333Y-122944275D01*
X168538333Y-125272608D02*
X168538333Y-120827608D01*
X166845000Y-120827608D01*
X166421666Y-121039275D01*
X166210000Y-121250941D01*
X165998333Y-121674275D01*
X165998333Y-122309275D01*
X166210000Y-122732608D01*
X166421666Y-122944275D01*
X166845000Y-123155941D01*
X168538333Y-123155941D01*
X164305000Y-125060941D02*
X163670000Y-125272608D01*
X162611666Y-125272608D01*
X162188333Y-125060941D01*
X161976666Y-124849275D01*
X161765000Y-124425941D01*
X161765000Y-124002608D01*
X161976666Y-123579275D01*
X162188333Y-123367608D01*
X162611666Y-123155941D01*
X163458333Y-122944275D01*
X163881666Y-122732608D01*
X164093333Y-122520941D01*
X164305000Y-122097608D01*
X164305000Y-121674275D01*
X164093333Y-121250941D01*
X163881666Y-121039275D01*
X163458333Y-120827608D01*
X162400000Y-120827608D01*
X161765000Y-121039275D01*
X173300833Y-130100725D02*
X174782500Y-130100725D01*
X174782500Y-132429058D02*
X174782500Y-127984058D01*
X172665833Y-127984058D01*
X169067500Y-132429058D02*
X169067500Y-130100725D01*
X169279166Y-129677391D01*
X169702500Y-129465725D01*
X170549166Y-129465725D01*
X170972500Y-129677391D01*
X169067500Y-132217391D02*
X169490833Y-132429058D01*
X170549166Y-132429058D01*
X170972500Y-132217391D01*
X171184166Y-131794058D01*
X171184166Y-131370725D01*
X170972500Y-130947391D01*
X170549166Y-130735725D01*
X169490833Y-130735725D01*
X169067500Y-130524058D01*
X165045833Y-129465725D02*
X165045833Y-132429058D01*
X166950833Y-129465725D02*
X166950833Y-131794058D01*
X166739166Y-132217391D01*
X166315833Y-132429058D01*
X165680833Y-132429058D01*
X165257500Y-132217391D01*
X165045833Y-132005725D01*
X162294166Y-132429058D02*
X162717500Y-132217391D01*
X162929166Y-131794058D01*
X162929166Y-127984058D01*
X161235833Y-129465725D02*
X159542500Y-129465725D01*
X160600833Y-127984058D02*
X160600833Y-131794058D01*
X160389166Y-132217391D01*
X159965833Y-132429058D01*
X159542500Y-132429058D01*
D11*
X161678569Y-147107142D02*
X161678569Y-144107143D01*
X160535712Y-144107143D01*
X160249998Y-144250000D01*
X160107141Y-144392857D01*
X159964284Y-144678571D01*
X159964284Y-145107143D01*
X160107141Y-145392857D01*
X160249998Y-145535714D01*
X160535712Y-145678571D01*
X161678569Y-145678571D01*
X158249999Y-147107142D02*
X158535713Y-146964285D01*
X158678570Y-146821428D01*
X158821427Y-146535714D01*
X158821427Y-145678571D01*
X158678570Y-145392857D01*
X158535713Y-145250000D01*
X158249999Y-145107143D01*
X157821427Y-145107143D01*
X157535713Y-145250000D01*
X157392856Y-145392857D01*
X157249999Y-145678571D01*
X157249999Y-146535714D01*
X157392856Y-146821428D01*
X157535713Y-146964285D01*
X157821427Y-147107142D01*
X158249999Y-147107142D01*
X156249999Y-145107143D02*
X155678571Y-147107142D01*
X155107143Y-145678571D01*
X154535714Y-147107142D01*
X153964286Y-145107143D01*
X151678572Y-146964285D02*
X151964286Y-147107142D01*
X152535715Y-147107142D01*
X152821429Y-146964285D01*
X152964286Y-146678571D01*
X152964286Y-145535714D01*
X152821429Y-145250000D01*
X152535715Y-145107143D01*
X151964286Y-145107143D01*
X151678572Y-145250000D01*
X151535715Y-145535714D01*
X151535715Y-145821428D01*
X152964286Y-146107142D01*
X150250001Y-147107142D02*
X150250001Y-145107143D01*
X150250001Y-145678571D02*
X150107144Y-145392857D01*
X149964287Y-145250000D01*
X149678573Y-145107143D01*
X149392859Y-145107143D01*
D10*
X170485666Y-79256275D02*
X169850666Y-79467941D01*
X169639000Y-79679608D01*
X169427333Y-80102941D01*
X169427333Y-80737941D01*
X169639000Y-81161275D01*
X169850666Y-81372941D01*
X170274000Y-81584608D01*
X171967333Y-81584608D01*
X171967333Y-77139608D01*
X170485666Y-77139608D01*
X170062333Y-77351275D01*
X169850666Y-77562941D01*
X169639000Y-77986275D01*
X169639000Y-78409608D01*
X169850666Y-78832941D01*
X170062333Y-79044608D01*
X170485666Y-79256275D01*
X171967333Y-79256275D01*
X167522333Y-81584608D02*
X167522333Y-77139608D01*
X165829000Y-77139608D01*
X165405666Y-77351275D01*
X165194000Y-77562941D01*
X164982333Y-77986275D01*
X164982333Y-78621275D01*
X165194000Y-79044608D01*
X165405666Y-79256275D01*
X165829000Y-79467941D01*
X167522333Y-79467941D01*
X163289000Y-81372941D02*
X162654000Y-81584608D01*
X161595666Y-81584608D01*
X161172333Y-81372941D01*
X160960666Y-81161275D01*
X160749000Y-80737941D01*
X160749000Y-80314608D01*
X160960666Y-79891275D01*
X161172333Y-79679608D01*
X161595666Y-79467941D01*
X162442333Y-79256275D01*
X162865666Y-79044608D01*
X163077333Y-78832941D01*
X163289000Y-78409608D01*
X163289000Y-77986275D01*
X163077333Y-77562941D01*
X162865666Y-77351275D01*
X162442333Y-77139608D01*
X161384000Y-77139608D01*
X160749000Y-77351275D01*
X175248166Y-88741058D02*
X175248166Y-84296058D01*
X173554833Y-84296058D01*
X173131500Y-84507725D01*
X172919833Y-84719391D01*
X172708166Y-85142725D01*
X172708166Y-85777725D01*
X172919833Y-86201058D01*
X173131500Y-86412725D01*
X173554833Y-86624391D01*
X175248166Y-86624391D01*
X170168166Y-88741058D02*
X170591500Y-88529391D01*
X170803166Y-88317725D01*
X171014833Y-87894391D01*
X171014833Y-86624391D01*
X170803166Y-86201058D01*
X170591500Y-85989391D01*
X170168166Y-85777725D01*
X169533166Y-85777725D01*
X169109833Y-85989391D01*
X168898166Y-86201058D01*
X168686500Y-86624391D01*
X168686500Y-87894391D01*
X168898166Y-88317725D01*
X169109833Y-88529391D01*
X169533166Y-88741058D01*
X170168166Y-88741058D01*
X167204833Y-85777725D02*
X166358166Y-88741058D01*
X165511500Y-86624391D01*
X164664833Y-88741058D01*
X163818166Y-85777725D01*
X160431500Y-88529391D02*
X160854833Y-88741058D01*
X161701500Y-88741058D01*
X162124833Y-88529391D01*
X162336500Y-88106058D01*
X162336500Y-86412725D01*
X162124833Y-85989391D01*
X161701500Y-85777725D01*
X160854833Y-85777725D01*
X160431500Y-85989391D01*
X160219833Y-86412725D01*
X160219833Y-86836058D01*
X162336500Y-87259391D01*
X158314833Y-88741058D02*
X158314833Y-85777725D01*
X158314833Y-86624391D02*
X158103166Y-86201058D01*
X157891500Y-85989391D01*
X157468166Y-85777725D01*
X157044833Y-85777725D01*
X148451166Y-124849275D02*
X148662833Y-125060941D01*
X149297833Y-125272608D01*
X149721166Y-125272608D01*
X150356166Y-125060941D01*
X150779500Y-124637608D01*
X150991166Y-124214275D01*
X151202833Y-123367608D01*
X151202833Y-122732608D01*
X150991166Y-121885941D01*
X150779500Y-121462608D01*
X150356166Y-121039275D01*
X149721166Y-120827608D01*
X149297833Y-120827608D01*
X148662833Y-121039275D01*
X148451166Y-121250941D01*
X147181166Y-120827608D02*
X144641166Y-120827608D01*
X145911166Y-125272608D02*
X145911166Y-120827608D01*
X140619500Y-125272608D02*
X142101166Y-123155941D01*
X143159500Y-125272608D02*
X143159500Y-120827608D01*
X141466166Y-120827608D01*
X141042833Y-121039275D01*
X140831166Y-121250941D01*
X140619500Y-121674275D01*
X140619500Y-122309275D01*
X140831166Y-122732608D01*
X141042833Y-122944275D01*
X141466166Y-123155941D01*
X143159500Y-123155941D01*
X136597833Y-125272608D02*
X138714500Y-125272608D01*
X138714500Y-120827608D01*
X149932833Y-130100725D02*
X151414500Y-130100725D01*
X151414500Y-132429058D02*
X151414500Y-127984058D01*
X149297833Y-127984058D01*
X145699500Y-132429058D02*
X145699500Y-130100725D01*
X145911166Y-129677391D01*
X146334500Y-129465725D01*
X147181166Y-129465725D01*
X147604500Y-129677391D01*
X145699500Y-132217391D02*
X146122833Y-132429058D01*
X147181166Y-132429058D01*
X147604500Y-132217391D01*
X147816166Y-131794058D01*
X147816166Y-131370725D01*
X147604500Y-130947391D01*
X147181166Y-130735725D01*
X146122833Y-130735725D01*
X145699500Y-130524058D01*
X141677833Y-129465725D02*
X141677833Y-132429058D01*
X143582833Y-129465725D02*
X143582833Y-131794058D01*
X143371166Y-132217391D01*
X142947833Y-132429058D01*
X142312833Y-132429058D01*
X141889500Y-132217391D01*
X141677833Y-132005725D01*
X138926166Y-132429058D02*
X139349500Y-132217391D01*
X139561166Y-131794058D01*
X139561166Y-127984058D01*
X137867833Y-129465725D02*
X136174500Y-129465725D01*
X137232833Y-127984058D02*
X137232833Y-131794058D01*
X137021166Y-132217391D01*
X136597833Y-132429058D01*
X136174500Y-132429058D01*
D12*
X141592880Y-134399604D02*
X140592880Y-134399604D01*
X140592880Y-134637700D01*
X140640500Y-134780557D01*
X140735738Y-134875795D01*
X140830976Y-134923414D01*
X141021452Y-134971033D01*
X141164309Y-134971033D01*
X141354785Y-134923414D01*
X141450023Y-134875795D01*
X141545261Y-134780557D01*
X141592880Y-134637700D01*
X141592880Y-134399604D01*
X141021452Y-135542461D02*
X140973833Y-135447223D01*
X140926214Y-135399604D01*
X140830976Y-135351985D01*
X140783357Y-135351985D01*
X140688119Y-135399604D01*
X140640500Y-135447223D01*
X140592880Y-135542461D01*
X140592880Y-135732938D01*
X140640500Y-135828176D01*
X140688119Y-135875795D01*
X140783357Y-135923414D01*
X140830976Y-135923414D01*
X140926214Y-135875795D01*
X140973833Y-135828176D01*
X141021452Y-135732938D01*
X141021452Y-135542461D01*
X141069071Y-135447223D01*
X141116690Y-135399604D01*
X141211928Y-135351985D01*
X141402404Y-135351985D01*
X141497642Y-135399604D01*
X141545261Y-135447223D01*
X141592880Y-135542461D01*
X141592880Y-135732938D01*
X141545261Y-135828176D01*
X141497642Y-135875795D01*
X141402404Y-135923414D01*
X141211928Y-135923414D01*
X141116690Y-135875795D01*
X141069071Y-135828176D01*
X141021452Y-135732938D01*
X141592880Y-109706846D02*
X140592880Y-109706846D01*
X140592880Y-109944941D01*
X140640500Y-110087798D01*
X140735738Y-110183036D01*
X140830976Y-110230655D01*
X141021452Y-110278274D01*
X141164309Y-110278274D01*
X141354785Y-110230655D01*
X141450023Y-110183036D01*
X141545261Y-110087798D01*
X141592880Y-109944941D01*
X141592880Y-109706846D01*
X141592880Y-111230655D02*
X141592880Y-110659227D01*
X141592880Y-110944941D02*
X140592880Y-110944941D01*
X140735738Y-110849703D01*
X140830976Y-110754465D01*
X140878595Y-110659227D01*
X140592880Y-111849703D02*
X140592880Y-111944941D01*
X140640500Y-112040179D01*
X140688119Y-112087798D01*
X140783357Y-112135417D01*
X140973833Y-112183036D01*
X141211928Y-112183036D01*
X141402404Y-112135417D01*
X141497642Y-112087798D01*
X141545261Y-112040179D01*
X141592880Y-111944941D01*
X141592880Y-111849703D01*
X141545261Y-111754465D01*
X141497642Y-111706846D01*
X141402404Y-111659227D01*
X141211928Y-111611608D01*
X140973833Y-111611608D01*
X140783357Y-111659227D01*
X140688119Y-111706846D01*
X140640500Y-111754465D01*
X140592880Y-111849703D01*
X165976880Y-91046470D02*
X164976880Y-91046470D01*
X164976880Y-91284566D01*
X165024500Y-91427423D01*
X165119738Y-91522661D01*
X165214976Y-91570280D01*
X165405452Y-91617899D01*
X165548309Y-91617899D01*
X165738785Y-91570280D01*
X165834023Y-91522661D01*
X165929261Y-91427423D01*
X165976880Y-91284566D01*
X165976880Y-91046470D01*
X165072119Y-91998851D02*
X165024500Y-92046470D01*
X164976880Y-92141708D01*
X164976880Y-92379804D01*
X165024500Y-92475042D01*
X165072119Y-92522661D01*
X165167357Y-92570280D01*
X165262595Y-92570280D01*
X165405452Y-92522661D01*
X165976880Y-91951232D01*
X165976880Y-92570280D01*
X141614880Y-66861904D02*
X140614880Y-66861904D01*
X140614880Y-67100000D01*
X140662500Y-67242857D01*
X140757738Y-67338095D01*
X140852976Y-67385714D01*
X141043452Y-67433333D01*
X141186309Y-67433333D01*
X141376785Y-67385714D01*
X141472023Y-67338095D01*
X141567261Y-67242857D01*
X141614880Y-67100000D01*
X141614880Y-66861904D01*
X140614880Y-67766666D02*
X140614880Y-68433333D01*
X141614880Y-68004761D01*
X165976880Y-66829904D02*
X164976880Y-66829904D01*
X164976880Y-67068000D01*
X165024500Y-67210857D01*
X165119738Y-67306095D01*
X165214976Y-67353714D01*
X165405452Y-67401333D01*
X165548309Y-67401333D01*
X165738785Y-67353714D01*
X165834023Y-67306095D01*
X165929261Y-67210857D01*
X165976880Y-67068000D01*
X165976880Y-66829904D01*
X164976880Y-67734666D02*
X164976880Y-68353714D01*
X165357833Y-68020380D01*
X165357833Y-68163238D01*
X165405452Y-68258476D01*
X165453071Y-68306095D01*
X165548309Y-68353714D01*
X165786404Y-68353714D01*
X165881642Y-68306095D01*
X165929261Y-68258476D01*
X165976880Y-68163238D01*
X165976880Y-67877523D01*
X165929261Y-67782285D01*
X165881642Y-67734666D01*
X170851880Y-134433104D02*
X169851880Y-134433104D01*
X169851880Y-134671200D01*
X169899500Y-134814057D01*
X169994738Y-134909295D01*
X170089976Y-134956914D01*
X170280452Y-135004533D01*
X170423309Y-135004533D01*
X170613785Y-134956914D01*
X170709023Y-134909295D01*
X170804261Y-134814057D01*
X170851880Y-134671200D01*
X170851880Y-134433104D01*
X170185214Y-135861676D02*
X170851880Y-135861676D01*
X169804261Y-135623580D02*
X170518547Y-135385485D01*
X170518547Y-136004533D01*
X141592880Y-91046470D02*
X140592880Y-91046470D01*
X140592880Y-91284566D01*
X140640500Y-91427423D01*
X140735738Y-91522661D01*
X140830976Y-91570280D01*
X141021452Y-91617899D01*
X141164309Y-91617899D01*
X141354785Y-91570280D01*
X141450023Y-91522661D01*
X141545261Y-91427423D01*
X141592880Y-91284566D01*
X141592880Y-91046470D01*
X140592880Y-92475042D02*
X140592880Y-92284566D01*
X140640500Y-92189327D01*
X140688119Y-92141708D01*
X140830976Y-92046470D01*
X141021452Y-91998851D01*
X141402404Y-91998851D01*
X141497642Y-92046470D01*
X141545261Y-92094089D01*
X141592880Y-92189327D01*
X141592880Y-92379804D01*
X141545261Y-92475042D01*
X141497642Y-92522661D01*
X141402404Y-92570280D01*
X141164309Y-92570280D01*
X141069071Y-92522661D01*
X141021452Y-92475042D01*
X140973833Y-92379804D01*
X140973833Y-92189327D01*
X141021452Y-92094089D01*
X141069071Y-92046470D01*
X141164309Y-91998851D01*
X165976880Y-110261904D02*
X164976880Y-110261904D01*
X164976880Y-110500000D01*
X165024500Y-110642857D01*
X165119738Y-110738095D01*
X165214976Y-110785714D01*
X165405452Y-110833333D01*
X165548309Y-110833333D01*
X165738785Y-110785714D01*
X165834023Y-110738095D01*
X165929261Y-110642857D01*
X165976880Y-110500000D01*
X165976880Y-110261904D01*
X164976880Y-111738095D02*
X164976880Y-111261904D01*
X165453071Y-111214285D01*
X165405452Y-111261904D01*
X165357833Y-111357142D01*
X165357833Y-111595238D01*
X165405452Y-111690476D01*
X165453071Y-111738095D01*
X165548309Y-111785714D01*
X165786404Y-111785714D01*
X165881642Y-111738095D01*
X165929261Y-111690476D01*
X165976880Y-111595238D01*
X165976880Y-111357142D01*
X165929261Y-111261904D01*
X165881642Y-111214285D01*
X155938095Y-151402380D02*
X155938095Y-150402380D01*
X155700000Y-150402380D01*
X155557142Y-150450000D01*
X155461904Y-150545238D01*
X155414285Y-150640476D01*
X155366666Y-150830952D01*
X155366666Y-150973809D01*
X155414285Y-151164285D01*
X155461904Y-151259523D01*
X155557142Y-151354761D01*
X155700000Y-151402380D01*
X155938095Y-151402380D01*
X154414285Y-151402380D02*
X154985714Y-151402380D01*
X154700000Y-151402380D02*
X154700000Y-150402380D01*
X154795238Y-150545238D01*
X154890476Y-150640476D01*
X154985714Y-150688095D01*
D13*
X141893000Y-134177700D02*
X144578000Y-134177700D01*
X144578000Y-136097700D02*
X141893000Y-136097700D01*
X141893000Y-136097700D02*
X141893000Y-134177700D01*
X141893000Y-109961132D02*
X144578000Y-109961132D01*
X141893000Y-111881132D02*
X141893000Y-109961132D01*
X144578000Y-111881132D02*
X141893000Y-111881132D01*
X166277000Y-92744566D02*
X166277000Y-90824566D01*
X168962000Y-92744566D02*
X166277000Y-92744566D01*
X166277000Y-90824566D02*
X168962000Y-90824566D01*
X141915000Y-68560000D02*
X141915000Y-66640000D01*
X141915000Y-66640000D02*
X144600000Y-66640000D01*
X144600000Y-68560000D02*
X141915000Y-68560000D01*
X168962000Y-68528000D02*
X166277000Y-68528000D01*
X166277000Y-68528000D02*
X166277000Y-66608000D01*
X166277000Y-66608000D02*
X168962000Y-66608000D01*
X166962000Y-134211200D02*
X169647000Y-134211200D01*
X169647000Y-136131200D02*
X166962000Y-136131200D01*
X169647000Y-134211200D02*
X169647000Y-136131200D01*
X141893000Y-92744566D02*
X141893000Y-90824566D01*
X144578000Y-92744566D02*
X141893000Y-92744566D01*
X141893000Y-90824566D02*
X144578000Y-90824566D01*
X166277000Y-111960000D02*
X166277000Y-110040000D01*
X168962000Y-111960000D02*
X166277000Y-111960000D01*
X166277000Y-110040000D02*
X168962000Y-110040000D01*
X153515000Y-150260000D02*
X153515000Y-148340000D01*
X153515000Y-148340000D02*
X156200000Y-148340000D01*
X156200000Y-150260000D02*
X153515000Y-150260000D01*
M02*
