G04 #@! TF.GenerationSoftware,KiCad,Pcbnew,(5.1.5)-3*
G04 #@! TF.CreationDate,2021-11-23T22:40:54-06:00*
G04 #@! TF.ProjectId,Controls-LightingPCB,436f6e74-726f-46c7-932d-4c6967687469,rev?*
G04 #@! TF.SameCoordinates,Original*
G04 #@! TF.FileFunction,Paste,Bot*
G04 #@! TF.FilePolarity,Positive*
%FSLAX46Y46*%
G04 Gerber Fmt 4.6, Leading zero omitted, Abs format (unit mm)*
G04 Created by KiCad (PCBNEW (5.1.5)-3) date 2021-11-23 22:40:54*
%MOMM*%
%LPD*%
G04 APERTURE LIST*
%ADD10C,0.100000*%
G04 APERTURE END LIST*
D10*
G36*
X156405142Y-148601174D02*
G01*
X156428803Y-148604684D01*
X156452007Y-148610496D01*
X156474529Y-148618554D01*
X156496153Y-148628782D01*
X156516670Y-148641079D01*
X156535883Y-148655329D01*
X156553607Y-148671393D01*
X156569671Y-148689117D01*
X156583921Y-148708330D01*
X156596218Y-148728847D01*
X156606446Y-148750471D01*
X156614504Y-148772993D01*
X156620316Y-148796197D01*
X156623826Y-148819858D01*
X156625000Y-148843750D01*
X156625000Y-149756250D01*
X156623826Y-149780142D01*
X156620316Y-149803803D01*
X156614504Y-149827007D01*
X156606446Y-149849529D01*
X156596218Y-149871153D01*
X156583921Y-149891670D01*
X156569671Y-149910883D01*
X156553607Y-149928607D01*
X156535883Y-149944671D01*
X156516670Y-149958921D01*
X156496153Y-149971218D01*
X156474529Y-149981446D01*
X156452007Y-149989504D01*
X156428803Y-149995316D01*
X156405142Y-149998826D01*
X156381250Y-150000000D01*
X155893750Y-150000000D01*
X155869858Y-149998826D01*
X155846197Y-149995316D01*
X155822993Y-149989504D01*
X155800471Y-149981446D01*
X155778847Y-149971218D01*
X155758330Y-149958921D01*
X155739117Y-149944671D01*
X155721393Y-149928607D01*
X155705329Y-149910883D01*
X155691079Y-149891670D01*
X155678782Y-149871153D01*
X155668554Y-149849529D01*
X155660496Y-149827007D01*
X155654684Y-149803803D01*
X155651174Y-149780142D01*
X155650000Y-149756250D01*
X155650000Y-148843750D01*
X155651174Y-148819858D01*
X155654684Y-148796197D01*
X155660496Y-148772993D01*
X155668554Y-148750471D01*
X155678782Y-148728847D01*
X155691079Y-148708330D01*
X155705329Y-148689117D01*
X155721393Y-148671393D01*
X155739117Y-148655329D01*
X155758330Y-148641079D01*
X155778847Y-148628782D01*
X155800471Y-148618554D01*
X155822993Y-148610496D01*
X155846197Y-148604684D01*
X155869858Y-148601174D01*
X155893750Y-148600000D01*
X156381250Y-148600000D01*
X156405142Y-148601174D01*
G37*
G36*
X154530142Y-148601174D02*
G01*
X154553803Y-148604684D01*
X154577007Y-148610496D01*
X154599529Y-148618554D01*
X154621153Y-148628782D01*
X154641670Y-148641079D01*
X154660883Y-148655329D01*
X154678607Y-148671393D01*
X154694671Y-148689117D01*
X154708921Y-148708330D01*
X154721218Y-148728847D01*
X154731446Y-148750471D01*
X154739504Y-148772993D01*
X154745316Y-148796197D01*
X154748826Y-148819858D01*
X154750000Y-148843750D01*
X154750000Y-149756250D01*
X154748826Y-149780142D01*
X154745316Y-149803803D01*
X154739504Y-149827007D01*
X154731446Y-149849529D01*
X154721218Y-149871153D01*
X154708921Y-149891670D01*
X154694671Y-149910883D01*
X154678607Y-149928607D01*
X154660883Y-149944671D01*
X154641670Y-149958921D01*
X154621153Y-149971218D01*
X154599529Y-149981446D01*
X154577007Y-149989504D01*
X154553803Y-149995316D01*
X154530142Y-149998826D01*
X154506250Y-150000000D01*
X154018750Y-150000000D01*
X153994858Y-149998826D01*
X153971197Y-149995316D01*
X153947993Y-149989504D01*
X153925471Y-149981446D01*
X153903847Y-149971218D01*
X153883330Y-149958921D01*
X153864117Y-149944671D01*
X153846393Y-149928607D01*
X153830329Y-149910883D01*
X153816079Y-149891670D01*
X153803782Y-149871153D01*
X153793554Y-149849529D01*
X153785496Y-149827007D01*
X153779684Y-149803803D01*
X153776174Y-149780142D01*
X153775000Y-149756250D01*
X153775000Y-148843750D01*
X153776174Y-148819858D01*
X153779684Y-148796197D01*
X153785496Y-148772993D01*
X153793554Y-148750471D01*
X153803782Y-148728847D01*
X153816079Y-148708330D01*
X153830329Y-148689117D01*
X153846393Y-148671393D01*
X153864117Y-148655329D01*
X153883330Y-148641079D01*
X153903847Y-148628782D01*
X153925471Y-148618554D01*
X153947993Y-148610496D01*
X153971197Y-148604684D01*
X153994858Y-148601174D01*
X154018750Y-148600000D01*
X154506250Y-148600000D01*
X154530142Y-148601174D01*
G37*
G36*
X142908142Y-134438874D02*
G01*
X142931803Y-134442384D01*
X142955007Y-134448196D01*
X142977529Y-134456254D01*
X142999153Y-134466482D01*
X143019670Y-134478779D01*
X143038883Y-134493029D01*
X143056607Y-134509093D01*
X143072671Y-134526817D01*
X143086921Y-134546030D01*
X143099218Y-134566547D01*
X143109446Y-134588171D01*
X143117504Y-134610693D01*
X143123316Y-134633897D01*
X143126826Y-134657558D01*
X143128000Y-134681450D01*
X143128000Y-135593950D01*
X143126826Y-135617842D01*
X143123316Y-135641503D01*
X143117504Y-135664707D01*
X143109446Y-135687229D01*
X143099218Y-135708853D01*
X143086921Y-135729370D01*
X143072671Y-135748583D01*
X143056607Y-135766307D01*
X143038883Y-135782371D01*
X143019670Y-135796621D01*
X142999153Y-135808918D01*
X142977529Y-135819146D01*
X142955007Y-135827204D01*
X142931803Y-135833016D01*
X142908142Y-135836526D01*
X142884250Y-135837700D01*
X142396750Y-135837700D01*
X142372858Y-135836526D01*
X142349197Y-135833016D01*
X142325993Y-135827204D01*
X142303471Y-135819146D01*
X142281847Y-135808918D01*
X142261330Y-135796621D01*
X142242117Y-135782371D01*
X142224393Y-135766307D01*
X142208329Y-135748583D01*
X142194079Y-135729370D01*
X142181782Y-135708853D01*
X142171554Y-135687229D01*
X142163496Y-135664707D01*
X142157684Y-135641503D01*
X142154174Y-135617842D01*
X142153000Y-135593950D01*
X142153000Y-134681450D01*
X142154174Y-134657558D01*
X142157684Y-134633897D01*
X142163496Y-134610693D01*
X142171554Y-134588171D01*
X142181782Y-134566547D01*
X142194079Y-134546030D01*
X142208329Y-134526817D01*
X142224393Y-134509093D01*
X142242117Y-134493029D01*
X142261330Y-134478779D01*
X142281847Y-134466482D01*
X142303471Y-134456254D01*
X142325993Y-134448196D01*
X142349197Y-134442384D01*
X142372858Y-134438874D01*
X142396750Y-134437700D01*
X142884250Y-134437700D01*
X142908142Y-134438874D01*
G37*
G36*
X144783142Y-134438874D02*
G01*
X144806803Y-134442384D01*
X144830007Y-134448196D01*
X144852529Y-134456254D01*
X144874153Y-134466482D01*
X144894670Y-134478779D01*
X144913883Y-134493029D01*
X144931607Y-134509093D01*
X144947671Y-134526817D01*
X144961921Y-134546030D01*
X144974218Y-134566547D01*
X144984446Y-134588171D01*
X144992504Y-134610693D01*
X144998316Y-134633897D01*
X145001826Y-134657558D01*
X145003000Y-134681450D01*
X145003000Y-135593950D01*
X145001826Y-135617842D01*
X144998316Y-135641503D01*
X144992504Y-135664707D01*
X144984446Y-135687229D01*
X144974218Y-135708853D01*
X144961921Y-135729370D01*
X144947671Y-135748583D01*
X144931607Y-135766307D01*
X144913883Y-135782371D01*
X144894670Y-135796621D01*
X144874153Y-135808918D01*
X144852529Y-135819146D01*
X144830007Y-135827204D01*
X144806803Y-135833016D01*
X144783142Y-135836526D01*
X144759250Y-135837700D01*
X144271750Y-135837700D01*
X144247858Y-135836526D01*
X144224197Y-135833016D01*
X144200993Y-135827204D01*
X144178471Y-135819146D01*
X144156847Y-135808918D01*
X144136330Y-135796621D01*
X144117117Y-135782371D01*
X144099393Y-135766307D01*
X144083329Y-135748583D01*
X144069079Y-135729370D01*
X144056782Y-135708853D01*
X144046554Y-135687229D01*
X144038496Y-135664707D01*
X144032684Y-135641503D01*
X144029174Y-135617842D01*
X144028000Y-135593950D01*
X144028000Y-134681450D01*
X144029174Y-134657558D01*
X144032684Y-134633897D01*
X144038496Y-134610693D01*
X144046554Y-134588171D01*
X144056782Y-134566547D01*
X144069079Y-134546030D01*
X144083329Y-134526817D01*
X144099393Y-134509093D01*
X144117117Y-134493029D01*
X144136330Y-134478779D01*
X144156847Y-134466482D01*
X144178471Y-134456254D01*
X144200993Y-134448196D01*
X144224197Y-134442384D01*
X144247858Y-134438874D01*
X144271750Y-134437700D01*
X144759250Y-134437700D01*
X144783142Y-134438874D01*
G37*
G36*
X142908142Y-110222306D02*
G01*
X142931803Y-110225816D01*
X142955007Y-110231628D01*
X142977529Y-110239686D01*
X142999153Y-110249914D01*
X143019670Y-110262211D01*
X143038883Y-110276461D01*
X143056607Y-110292525D01*
X143072671Y-110310249D01*
X143086921Y-110329462D01*
X143099218Y-110349979D01*
X143109446Y-110371603D01*
X143117504Y-110394125D01*
X143123316Y-110417329D01*
X143126826Y-110440990D01*
X143128000Y-110464882D01*
X143128000Y-111377382D01*
X143126826Y-111401274D01*
X143123316Y-111424935D01*
X143117504Y-111448139D01*
X143109446Y-111470661D01*
X143099218Y-111492285D01*
X143086921Y-111512802D01*
X143072671Y-111532015D01*
X143056607Y-111549739D01*
X143038883Y-111565803D01*
X143019670Y-111580053D01*
X142999153Y-111592350D01*
X142977529Y-111602578D01*
X142955007Y-111610636D01*
X142931803Y-111616448D01*
X142908142Y-111619958D01*
X142884250Y-111621132D01*
X142396750Y-111621132D01*
X142372858Y-111619958D01*
X142349197Y-111616448D01*
X142325993Y-111610636D01*
X142303471Y-111602578D01*
X142281847Y-111592350D01*
X142261330Y-111580053D01*
X142242117Y-111565803D01*
X142224393Y-111549739D01*
X142208329Y-111532015D01*
X142194079Y-111512802D01*
X142181782Y-111492285D01*
X142171554Y-111470661D01*
X142163496Y-111448139D01*
X142157684Y-111424935D01*
X142154174Y-111401274D01*
X142153000Y-111377382D01*
X142153000Y-110464882D01*
X142154174Y-110440990D01*
X142157684Y-110417329D01*
X142163496Y-110394125D01*
X142171554Y-110371603D01*
X142181782Y-110349979D01*
X142194079Y-110329462D01*
X142208329Y-110310249D01*
X142224393Y-110292525D01*
X142242117Y-110276461D01*
X142261330Y-110262211D01*
X142281847Y-110249914D01*
X142303471Y-110239686D01*
X142325993Y-110231628D01*
X142349197Y-110225816D01*
X142372858Y-110222306D01*
X142396750Y-110221132D01*
X142884250Y-110221132D01*
X142908142Y-110222306D01*
G37*
G36*
X144783142Y-110222306D02*
G01*
X144806803Y-110225816D01*
X144830007Y-110231628D01*
X144852529Y-110239686D01*
X144874153Y-110249914D01*
X144894670Y-110262211D01*
X144913883Y-110276461D01*
X144931607Y-110292525D01*
X144947671Y-110310249D01*
X144961921Y-110329462D01*
X144974218Y-110349979D01*
X144984446Y-110371603D01*
X144992504Y-110394125D01*
X144998316Y-110417329D01*
X145001826Y-110440990D01*
X145003000Y-110464882D01*
X145003000Y-111377382D01*
X145001826Y-111401274D01*
X144998316Y-111424935D01*
X144992504Y-111448139D01*
X144984446Y-111470661D01*
X144974218Y-111492285D01*
X144961921Y-111512802D01*
X144947671Y-111532015D01*
X144931607Y-111549739D01*
X144913883Y-111565803D01*
X144894670Y-111580053D01*
X144874153Y-111592350D01*
X144852529Y-111602578D01*
X144830007Y-111610636D01*
X144806803Y-111616448D01*
X144783142Y-111619958D01*
X144759250Y-111621132D01*
X144271750Y-111621132D01*
X144247858Y-111619958D01*
X144224197Y-111616448D01*
X144200993Y-111610636D01*
X144178471Y-111602578D01*
X144156847Y-111592350D01*
X144136330Y-111580053D01*
X144117117Y-111565803D01*
X144099393Y-111549739D01*
X144083329Y-111532015D01*
X144069079Y-111512802D01*
X144056782Y-111492285D01*
X144046554Y-111470661D01*
X144038496Y-111448139D01*
X144032684Y-111424935D01*
X144029174Y-111401274D01*
X144028000Y-111377382D01*
X144028000Y-110464882D01*
X144029174Y-110440990D01*
X144032684Y-110417329D01*
X144038496Y-110394125D01*
X144046554Y-110371603D01*
X144056782Y-110349979D01*
X144069079Y-110329462D01*
X144083329Y-110310249D01*
X144099393Y-110292525D01*
X144117117Y-110276461D01*
X144136330Y-110262211D01*
X144156847Y-110249914D01*
X144178471Y-110239686D01*
X144200993Y-110231628D01*
X144224197Y-110225816D01*
X144247858Y-110222306D01*
X144271750Y-110221132D01*
X144759250Y-110221132D01*
X144783142Y-110222306D01*
G37*
G36*
X142930142Y-66901174D02*
G01*
X142953803Y-66904684D01*
X142977007Y-66910496D01*
X142999529Y-66918554D01*
X143021153Y-66928782D01*
X143041670Y-66941079D01*
X143060883Y-66955329D01*
X143078607Y-66971393D01*
X143094671Y-66989117D01*
X143108921Y-67008330D01*
X143121218Y-67028847D01*
X143131446Y-67050471D01*
X143139504Y-67072993D01*
X143145316Y-67096197D01*
X143148826Y-67119858D01*
X143150000Y-67143750D01*
X143150000Y-68056250D01*
X143148826Y-68080142D01*
X143145316Y-68103803D01*
X143139504Y-68127007D01*
X143131446Y-68149529D01*
X143121218Y-68171153D01*
X143108921Y-68191670D01*
X143094671Y-68210883D01*
X143078607Y-68228607D01*
X143060883Y-68244671D01*
X143041670Y-68258921D01*
X143021153Y-68271218D01*
X142999529Y-68281446D01*
X142977007Y-68289504D01*
X142953803Y-68295316D01*
X142930142Y-68298826D01*
X142906250Y-68300000D01*
X142418750Y-68300000D01*
X142394858Y-68298826D01*
X142371197Y-68295316D01*
X142347993Y-68289504D01*
X142325471Y-68281446D01*
X142303847Y-68271218D01*
X142283330Y-68258921D01*
X142264117Y-68244671D01*
X142246393Y-68228607D01*
X142230329Y-68210883D01*
X142216079Y-68191670D01*
X142203782Y-68171153D01*
X142193554Y-68149529D01*
X142185496Y-68127007D01*
X142179684Y-68103803D01*
X142176174Y-68080142D01*
X142175000Y-68056250D01*
X142175000Y-67143750D01*
X142176174Y-67119858D01*
X142179684Y-67096197D01*
X142185496Y-67072993D01*
X142193554Y-67050471D01*
X142203782Y-67028847D01*
X142216079Y-67008330D01*
X142230329Y-66989117D01*
X142246393Y-66971393D01*
X142264117Y-66955329D01*
X142283330Y-66941079D01*
X142303847Y-66928782D01*
X142325471Y-66918554D01*
X142347993Y-66910496D01*
X142371197Y-66904684D01*
X142394858Y-66901174D01*
X142418750Y-66900000D01*
X142906250Y-66900000D01*
X142930142Y-66901174D01*
G37*
G36*
X144805142Y-66901174D02*
G01*
X144828803Y-66904684D01*
X144852007Y-66910496D01*
X144874529Y-66918554D01*
X144896153Y-66928782D01*
X144916670Y-66941079D01*
X144935883Y-66955329D01*
X144953607Y-66971393D01*
X144969671Y-66989117D01*
X144983921Y-67008330D01*
X144996218Y-67028847D01*
X145006446Y-67050471D01*
X145014504Y-67072993D01*
X145020316Y-67096197D01*
X145023826Y-67119858D01*
X145025000Y-67143750D01*
X145025000Y-68056250D01*
X145023826Y-68080142D01*
X145020316Y-68103803D01*
X145014504Y-68127007D01*
X145006446Y-68149529D01*
X144996218Y-68171153D01*
X144983921Y-68191670D01*
X144969671Y-68210883D01*
X144953607Y-68228607D01*
X144935883Y-68244671D01*
X144916670Y-68258921D01*
X144896153Y-68271218D01*
X144874529Y-68281446D01*
X144852007Y-68289504D01*
X144828803Y-68295316D01*
X144805142Y-68298826D01*
X144781250Y-68300000D01*
X144293750Y-68300000D01*
X144269858Y-68298826D01*
X144246197Y-68295316D01*
X144222993Y-68289504D01*
X144200471Y-68281446D01*
X144178847Y-68271218D01*
X144158330Y-68258921D01*
X144139117Y-68244671D01*
X144121393Y-68228607D01*
X144105329Y-68210883D01*
X144091079Y-68191670D01*
X144078782Y-68171153D01*
X144068554Y-68149529D01*
X144060496Y-68127007D01*
X144054684Y-68103803D01*
X144051174Y-68080142D01*
X144050000Y-68056250D01*
X144050000Y-67143750D01*
X144051174Y-67119858D01*
X144054684Y-67096197D01*
X144060496Y-67072993D01*
X144068554Y-67050471D01*
X144078782Y-67028847D01*
X144091079Y-67008330D01*
X144105329Y-66989117D01*
X144121393Y-66971393D01*
X144139117Y-66955329D01*
X144158330Y-66941079D01*
X144178847Y-66928782D01*
X144200471Y-66918554D01*
X144222993Y-66910496D01*
X144246197Y-66904684D01*
X144269858Y-66901174D01*
X144293750Y-66900000D01*
X144781250Y-66900000D01*
X144805142Y-66901174D01*
G37*
G36*
X142908142Y-91085740D02*
G01*
X142931803Y-91089250D01*
X142955007Y-91095062D01*
X142977529Y-91103120D01*
X142999153Y-91113348D01*
X143019670Y-91125645D01*
X143038883Y-91139895D01*
X143056607Y-91155959D01*
X143072671Y-91173683D01*
X143086921Y-91192896D01*
X143099218Y-91213413D01*
X143109446Y-91235037D01*
X143117504Y-91257559D01*
X143123316Y-91280763D01*
X143126826Y-91304424D01*
X143128000Y-91328316D01*
X143128000Y-92240816D01*
X143126826Y-92264708D01*
X143123316Y-92288369D01*
X143117504Y-92311573D01*
X143109446Y-92334095D01*
X143099218Y-92355719D01*
X143086921Y-92376236D01*
X143072671Y-92395449D01*
X143056607Y-92413173D01*
X143038883Y-92429237D01*
X143019670Y-92443487D01*
X142999153Y-92455784D01*
X142977529Y-92466012D01*
X142955007Y-92474070D01*
X142931803Y-92479882D01*
X142908142Y-92483392D01*
X142884250Y-92484566D01*
X142396750Y-92484566D01*
X142372858Y-92483392D01*
X142349197Y-92479882D01*
X142325993Y-92474070D01*
X142303471Y-92466012D01*
X142281847Y-92455784D01*
X142261330Y-92443487D01*
X142242117Y-92429237D01*
X142224393Y-92413173D01*
X142208329Y-92395449D01*
X142194079Y-92376236D01*
X142181782Y-92355719D01*
X142171554Y-92334095D01*
X142163496Y-92311573D01*
X142157684Y-92288369D01*
X142154174Y-92264708D01*
X142153000Y-92240816D01*
X142153000Y-91328316D01*
X142154174Y-91304424D01*
X142157684Y-91280763D01*
X142163496Y-91257559D01*
X142171554Y-91235037D01*
X142181782Y-91213413D01*
X142194079Y-91192896D01*
X142208329Y-91173683D01*
X142224393Y-91155959D01*
X142242117Y-91139895D01*
X142261330Y-91125645D01*
X142281847Y-91113348D01*
X142303471Y-91103120D01*
X142325993Y-91095062D01*
X142349197Y-91089250D01*
X142372858Y-91085740D01*
X142396750Y-91084566D01*
X142884250Y-91084566D01*
X142908142Y-91085740D01*
G37*
G36*
X144783142Y-91085740D02*
G01*
X144806803Y-91089250D01*
X144830007Y-91095062D01*
X144852529Y-91103120D01*
X144874153Y-91113348D01*
X144894670Y-91125645D01*
X144913883Y-91139895D01*
X144931607Y-91155959D01*
X144947671Y-91173683D01*
X144961921Y-91192896D01*
X144974218Y-91213413D01*
X144984446Y-91235037D01*
X144992504Y-91257559D01*
X144998316Y-91280763D01*
X145001826Y-91304424D01*
X145003000Y-91328316D01*
X145003000Y-92240816D01*
X145001826Y-92264708D01*
X144998316Y-92288369D01*
X144992504Y-92311573D01*
X144984446Y-92334095D01*
X144974218Y-92355719D01*
X144961921Y-92376236D01*
X144947671Y-92395449D01*
X144931607Y-92413173D01*
X144913883Y-92429237D01*
X144894670Y-92443487D01*
X144874153Y-92455784D01*
X144852529Y-92466012D01*
X144830007Y-92474070D01*
X144806803Y-92479882D01*
X144783142Y-92483392D01*
X144759250Y-92484566D01*
X144271750Y-92484566D01*
X144247858Y-92483392D01*
X144224197Y-92479882D01*
X144200993Y-92474070D01*
X144178471Y-92466012D01*
X144156847Y-92455784D01*
X144136330Y-92443487D01*
X144117117Y-92429237D01*
X144099393Y-92413173D01*
X144083329Y-92395449D01*
X144069079Y-92376236D01*
X144056782Y-92355719D01*
X144046554Y-92334095D01*
X144038496Y-92311573D01*
X144032684Y-92288369D01*
X144029174Y-92264708D01*
X144028000Y-92240816D01*
X144028000Y-91328316D01*
X144029174Y-91304424D01*
X144032684Y-91280763D01*
X144038496Y-91257559D01*
X144046554Y-91235037D01*
X144056782Y-91213413D01*
X144069079Y-91192896D01*
X144083329Y-91173683D01*
X144099393Y-91155959D01*
X144117117Y-91139895D01*
X144136330Y-91125645D01*
X144156847Y-91113348D01*
X144178471Y-91103120D01*
X144200993Y-91095062D01*
X144224197Y-91089250D01*
X144247858Y-91085740D01*
X144271750Y-91084566D01*
X144759250Y-91084566D01*
X144783142Y-91085740D01*
G37*
G36*
X169167142Y-110301174D02*
G01*
X169190803Y-110304684D01*
X169214007Y-110310496D01*
X169236529Y-110318554D01*
X169258153Y-110328782D01*
X169278670Y-110341079D01*
X169297883Y-110355329D01*
X169315607Y-110371393D01*
X169331671Y-110389117D01*
X169345921Y-110408330D01*
X169358218Y-110428847D01*
X169368446Y-110450471D01*
X169376504Y-110472993D01*
X169382316Y-110496197D01*
X169385826Y-110519858D01*
X169387000Y-110543750D01*
X169387000Y-111456250D01*
X169385826Y-111480142D01*
X169382316Y-111503803D01*
X169376504Y-111527007D01*
X169368446Y-111549529D01*
X169358218Y-111571153D01*
X169345921Y-111591670D01*
X169331671Y-111610883D01*
X169315607Y-111628607D01*
X169297883Y-111644671D01*
X169278670Y-111658921D01*
X169258153Y-111671218D01*
X169236529Y-111681446D01*
X169214007Y-111689504D01*
X169190803Y-111695316D01*
X169167142Y-111698826D01*
X169143250Y-111700000D01*
X168655750Y-111700000D01*
X168631858Y-111698826D01*
X168608197Y-111695316D01*
X168584993Y-111689504D01*
X168562471Y-111681446D01*
X168540847Y-111671218D01*
X168520330Y-111658921D01*
X168501117Y-111644671D01*
X168483393Y-111628607D01*
X168467329Y-111610883D01*
X168453079Y-111591670D01*
X168440782Y-111571153D01*
X168430554Y-111549529D01*
X168422496Y-111527007D01*
X168416684Y-111503803D01*
X168413174Y-111480142D01*
X168412000Y-111456250D01*
X168412000Y-110543750D01*
X168413174Y-110519858D01*
X168416684Y-110496197D01*
X168422496Y-110472993D01*
X168430554Y-110450471D01*
X168440782Y-110428847D01*
X168453079Y-110408330D01*
X168467329Y-110389117D01*
X168483393Y-110371393D01*
X168501117Y-110355329D01*
X168520330Y-110341079D01*
X168540847Y-110328782D01*
X168562471Y-110318554D01*
X168584993Y-110310496D01*
X168608197Y-110304684D01*
X168631858Y-110301174D01*
X168655750Y-110300000D01*
X169143250Y-110300000D01*
X169167142Y-110301174D01*
G37*
G36*
X167292142Y-110301174D02*
G01*
X167315803Y-110304684D01*
X167339007Y-110310496D01*
X167361529Y-110318554D01*
X167383153Y-110328782D01*
X167403670Y-110341079D01*
X167422883Y-110355329D01*
X167440607Y-110371393D01*
X167456671Y-110389117D01*
X167470921Y-110408330D01*
X167483218Y-110428847D01*
X167493446Y-110450471D01*
X167501504Y-110472993D01*
X167507316Y-110496197D01*
X167510826Y-110519858D01*
X167512000Y-110543750D01*
X167512000Y-111456250D01*
X167510826Y-111480142D01*
X167507316Y-111503803D01*
X167501504Y-111527007D01*
X167493446Y-111549529D01*
X167483218Y-111571153D01*
X167470921Y-111591670D01*
X167456671Y-111610883D01*
X167440607Y-111628607D01*
X167422883Y-111644671D01*
X167403670Y-111658921D01*
X167383153Y-111671218D01*
X167361529Y-111681446D01*
X167339007Y-111689504D01*
X167315803Y-111695316D01*
X167292142Y-111698826D01*
X167268250Y-111700000D01*
X166780750Y-111700000D01*
X166756858Y-111698826D01*
X166733197Y-111695316D01*
X166709993Y-111689504D01*
X166687471Y-111681446D01*
X166665847Y-111671218D01*
X166645330Y-111658921D01*
X166626117Y-111644671D01*
X166608393Y-111628607D01*
X166592329Y-111610883D01*
X166578079Y-111591670D01*
X166565782Y-111571153D01*
X166555554Y-111549529D01*
X166547496Y-111527007D01*
X166541684Y-111503803D01*
X166538174Y-111480142D01*
X166537000Y-111456250D01*
X166537000Y-110543750D01*
X166538174Y-110519858D01*
X166541684Y-110496197D01*
X166547496Y-110472993D01*
X166555554Y-110450471D01*
X166565782Y-110428847D01*
X166578079Y-110408330D01*
X166592329Y-110389117D01*
X166608393Y-110371393D01*
X166626117Y-110355329D01*
X166645330Y-110341079D01*
X166665847Y-110328782D01*
X166687471Y-110318554D01*
X166709993Y-110310496D01*
X166733197Y-110304684D01*
X166756858Y-110301174D01*
X166780750Y-110300000D01*
X167268250Y-110300000D01*
X167292142Y-110301174D01*
G37*
G36*
X167292142Y-134472374D02*
G01*
X167315803Y-134475884D01*
X167339007Y-134481696D01*
X167361529Y-134489754D01*
X167383153Y-134499982D01*
X167403670Y-134512279D01*
X167422883Y-134526529D01*
X167440607Y-134542593D01*
X167456671Y-134560317D01*
X167470921Y-134579530D01*
X167483218Y-134600047D01*
X167493446Y-134621671D01*
X167501504Y-134644193D01*
X167507316Y-134667397D01*
X167510826Y-134691058D01*
X167512000Y-134714950D01*
X167512000Y-135627450D01*
X167510826Y-135651342D01*
X167507316Y-135675003D01*
X167501504Y-135698207D01*
X167493446Y-135720729D01*
X167483218Y-135742353D01*
X167470921Y-135762870D01*
X167456671Y-135782083D01*
X167440607Y-135799807D01*
X167422883Y-135815871D01*
X167403670Y-135830121D01*
X167383153Y-135842418D01*
X167361529Y-135852646D01*
X167339007Y-135860704D01*
X167315803Y-135866516D01*
X167292142Y-135870026D01*
X167268250Y-135871200D01*
X166780750Y-135871200D01*
X166756858Y-135870026D01*
X166733197Y-135866516D01*
X166709993Y-135860704D01*
X166687471Y-135852646D01*
X166665847Y-135842418D01*
X166645330Y-135830121D01*
X166626117Y-135815871D01*
X166608393Y-135799807D01*
X166592329Y-135782083D01*
X166578079Y-135762870D01*
X166565782Y-135742353D01*
X166555554Y-135720729D01*
X166547496Y-135698207D01*
X166541684Y-135675003D01*
X166538174Y-135651342D01*
X166537000Y-135627450D01*
X166537000Y-134714950D01*
X166538174Y-134691058D01*
X166541684Y-134667397D01*
X166547496Y-134644193D01*
X166555554Y-134621671D01*
X166565782Y-134600047D01*
X166578079Y-134579530D01*
X166592329Y-134560317D01*
X166608393Y-134542593D01*
X166626117Y-134526529D01*
X166645330Y-134512279D01*
X166665847Y-134499982D01*
X166687471Y-134489754D01*
X166709993Y-134481696D01*
X166733197Y-134475884D01*
X166756858Y-134472374D01*
X166780750Y-134471200D01*
X167268250Y-134471200D01*
X167292142Y-134472374D01*
G37*
G36*
X169167142Y-134472374D02*
G01*
X169190803Y-134475884D01*
X169214007Y-134481696D01*
X169236529Y-134489754D01*
X169258153Y-134499982D01*
X169278670Y-134512279D01*
X169297883Y-134526529D01*
X169315607Y-134542593D01*
X169331671Y-134560317D01*
X169345921Y-134579530D01*
X169358218Y-134600047D01*
X169368446Y-134621671D01*
X169376504Y-134644193D01*
X169382316Y-134667397D01*
X169385826Y-134691058D01*
X169387000Y-134714950D01*
X169387000Y-135627450D01*
X169385826Y-135651342D01*
X169382316Y-135675003D01*
X169376504Y-135698207D01*
X169368446Y-135720729D01*
X169358218Y-135742353D01*
X169345921Y-135762870D01*
X169331671Y-135782083D01*
X169315607Y-135799807D01*
X169297883Y-135815871D01*
X169278670Y-135830121D01*
X169258153Y-135842418D01*
X169236529Y-135852646D01*
X169214007Y-135860704D01*
X169190803Y-135866516D01*
X169167142Y-135870026D01*
X169143250Y-135871200D01*
X168655750Y-135871200D01*
X168631858Y-135870026D01*
X168608197Y-135866516D01*
X168584993Y-135860704D01*
X168562471Y-135852646D01*
X168540847Y-135842418D01*
X168520330Y-135830121D01*
X168501117Y-135815871D01*
X168483393Y-135799807D01*
X168467329Y-135782083D01*
X168453079Y-135762870D01*
X168440782Y-135742353D01*
X168430554Y-135720729D01*
X168422496Y-135698207D01*
X168416684Y-135675003D01*
X168413174Y-135651342D01*
X168412000Y-135627450D01*
X168412000Y-134714950D01*
X168413174Y-134691058D01*
X168416684Y-134667397D01*
X168422496Y-134644193D01*
X168430554Y-134621671D01*
X168440782Y-134600047D01*
X168453079Y-134579530D01*
X168467329Y-134560317D01*
X168483393Y-134542593D01*
X168501117Y-134526529D01*
X168520330Y-134512279D01*
X168540847Y-134499982D01*
X168562471Y-134489754D01*
X168584993Y-134481696D01*
X168608197Y-134475884D01*
X168631858Y-134472374D01*
X168655750Y-134471200D01*
X169143250Y-134471200D01*
X169167142Y-134472374D01*
G37*
G36*
X167292142Y-66869174D02*
G01*
X167315803Y-66872684D01*
X167339007Y-66878496D01*
X167361529Y-66886554D01*
X167383153Y-66896782D01*
X167403670Y-66909079D01*
X167422883Y-66923329D01*
X167440607Y-66939393D01*
X167456671Y-66957117D01*
X167470921Y-66976330D01*
X167483218Y-66996847D01*
X167493446Y-67018471D01*
X167501504Y-67040993D01*
X167507316Y-67064197D01*
X167510826Y-67087858D01*
X167512000Y-67111750D01*
X167512000Y-68024250D01*
X167510826Y-68048142D01*
X167507316Y-68071803D01*
X167501504Y-68095007D01*
X167493446Y-68117529D01*
X167483218Y-68139153D01*
X167470921Y-68159670D01*
X167456671Y-68178883D01*
X167440607Y-68196607D01*
X167422883Y-68212671D01*
X167403670Y-68226921D01*
X167383153Y-68239218D01*
X167361529Y-68249446D01*
X167339007Y-68257504D01*
X167315803Y-68263316D01*
X167292142Y-68266826D01*
X167268250Y-68268000D01*
X166780750Y-68268000D01*
X166756858Y-68266826D01*
X166733197Y-68263316D01*
X166709993Y-68257504D01*
X166687471Y-68249446D01*
X166665847Y-68239218D01*
X166645330Y-68226921D01*
X166626117Y-68212671D01*
X166608393Y-68196607D01*
X166592329Y-68178883D01*
X166578079Y-68159670D01*
X166565782Y-68139153D01*
X166555554Y-68117529D01*
X166547496Y-68095007D01*
X166541684Y-68071803D01*
X166538174Y-68048142D01*
X166537000Y-68024250D01*
X166537000Y-67111750D01*
X166538174Y-67087858D01*
X166541684Y-67064197D01*
X166547496Y-67040993D01*
X166555554Y-67018471D01*
X166565782Y-66996847D01*
X166578079Y-66976330D01*
X166592329Y-66957117D01*
X166608393Y-66939393D01*
X166626117Y-66923329D01*
X166645330Y-66909079D01*
X166665847Y-66896782D01*
X166687471Y-66886554D01*
X166709993Y-66878496D01*
X166733197Y-66872684D01*
X166756858Y-66869174D01*
X166780750Y-66868000D01*
X167268250Y-66868000D01*
X167292142Y-66869174D01*
G37*
G36*
X169167142Y-66869174D02*
G01*
X169190803Y-66872684D01*
X169214007Y-66878496D01*
X169236529Y-66886554D01*
X169258153Y-66896782D01*
X169278670Y-66909079D01*
X169297883Y-66923329D01*
X169315607Y-66939393D01*
X169331671Y-66957117D01*
X169345921Y-66976330D01*
X169358218Y-66996847D01*
X169368446Y-67018471D01*
X169376504Y-67040993D01*
X169382316Y-67064197D01*
X169385826Y-67087858D01*
X169387000Y-67111750D01*
X169387000Y-68024250D01*
X169385826Y-68048142D01*
X169382316Y-68071803D01*
X169376504Y-68095007D01*
X169368446Y-68117529D01*
X169358218Y-68139153D01*
X169345921Y-68159670D01*
X169331671Y-68178883D01*
X169315607Y-68196607D01*
X169297883Y-68212671D01*
X169278670Y-68226921D01*
X169258153Y-68239218D01*
X169236529Y-68249446D01*
X169214007Y-68257504D01*
X169190803Y-68263316D01*
X169167142Y-68266826D01*
X169143250Y-68268000D01*
X168655750Y-68268000D01*
X168631858Y-68266826D01*
X168608197Y-68263316D01*
X168584993Y-68257504D01*
X168562471Y-68249446D01*
X168540847Y-68239218D01*
X168520330Y-68226921D01*
X168501117Y-68212671D01*
X168483393Y-68196607D01*
X168467329Y-68178883D01*
X168453079Y-68159670D01*
X168440782Y-68139153D01*
X168430554Y-68117529D01*
X168422496Y-68095007D01*
X168416684Y-68071803D01*
X168413174Y-68048142D01*
X168412000Y-68024250D01*
X168412000Y-67111750D01*
X168413174Y-67087858D01*
X168416684Y-67064197D01*
X168422496Y-67040993D01*
X168430554Y-67018471D01*
X168440782Y-66996847D01*
X168453079Y-66976330D01*
X168467329Y-66957117D01*
X168483393Y-66939393D01*
X168501117Y-66923329D01*
X168520330Y-66909079D01*
X168540847Y-66896782D01*
X168562471Y-66886554D01*
X168584993Y-66878496D01*
X168608197Y-66872684D01*
X168631858Y-66869174D01*
X168655750Y-66868000D01*
X169143250Y-66868000D01*
X169167142Y-66869174D01*
G37*
G36*
X169167142Y-91085740D02*
G01*
X169190803Y-91089250D01*
X169214007Y-91095062D01*
X169236529Y-91103120D01*
X169258153Y-91113348D01*
X169278670Y-91125645D01*
X169297883Y-91139895D01*
X169315607Y-91155959D01*
X169331671Y-91173683D01*
X169345921Y-91192896D01*
X169358218Y-91213413D01*
X169368446Y-91235037D01*
X169376504Y-91257559D01*
X169382316Y-91280763D01*
X169385826Y-91304424D01*
X169387000Y-91328316D01*
X169387000Y-92240816D01*
X169385826Y-92264708D01*
X169382316Y-92288369D01*
X169376504Y-92311573D01*
X169368446Y-92334095D01*
X169358218Y-92355719D01*
X169345921Y-92376236D01*
X169331671Y-92395449D01*
X169315607Y-92413173D01*
X169297883Y-92429237D01*
X169278670Y-92443487D01*
X169258153Y-92455784D01*
X169236529Y-92466012D01*
X169214007Y-92474070D01*
X169190803Y-92479882D01*
X169167142Y-92483392D01*
X169143250Y-92484566D01*
X168655750Y-92484566D01*
X168631858Y-92483392D01*
X168608197Y-92479882D01*
X168584993Y-92474070D01*
X168562471Y-92466012D01*
X168540847Y-92455784D01*
X168520330Y-92443487D01*
X168501117Y-92429237D01*
X168483393Y-92413173D01*
X168467329Y-92395449D01*
X168453079Y-92376236D01*
X168440782Y-92355719D01*
X168430554Y-92334095D01*
X168422496Y-92311573D01*
X168416684Y-92288369D01*
X168413174Y-92264708D01*
X168412000Y-92240816D01*
X168412000Y-91328316D01*
X168413174Y-91304424D01*
X168416684Y-91280763D01*
X168422496Y-91257559D01*
X168430554Y-91235037D01*
X168440782Y-91213413D01*
X168453079Y-91192896D01*
X168467329Y-91173683D01*
X168483393Y-91155959D01*
X168501117Y-91139895D01*
X168520330Y-91125645D01*
X168540847Y-91113348D01*
X168562471Y-91103120D01*
X168584993Y-91095062D01*
X168608197Y-91089250D01*
X168631858Y-91085740D01*
X168655750Y-91084566D01*
X169143250Y-91084566D01*
X169167142Y-91085740D01*
G37*
G36*
X167292142Y-91085740D02*
G01*
X167315803Y-91089250D01*
X167339007Y-91095062D01*
X167361529Y-91103120D01*
X167383153Y-91113348D01*
X167403670Y-91125645D01*
X167422883Y-91139895D01*
X167440607Y-91155959D01*
X167456671Y-91173683D01*
X167470921Y-91192896D01*
X167483218Y-91213413D01*
X167493446Y-91235037D01*
X167501504Y-91257559D01*
X167507316Y-91280763D01*
X167510826Y-91304424D01*
X167512000Y-91328316D01*
X167512000Y-92240816D01*
X167510826Y-92264708D01*
X167507316Y-92288369D01*
X167501504Y-92311573D01*
X167493446Y-92334095D01*
X167483218Y-92355719D01*
X167470921Y-92376236D01*
X167456671Y-92395449D01*
X167440607Y-92413173D01*
X167422883Y-92429237D01*
X167403670Y-92443487D01*
X167383153Y-92455784D01*
X167361529Y-92466012D01*
X167339007Y-92474070D01*
X167315803Y-92479882D01*
X167292142Y-92483392D01*
X167268250Y-92484566D01*
X166780750Y-92484566D01*
X166756858Y-92483392D01*
X166733197Y-92479882D01*
X166709993Y-92474070D01*
X166687471Y-92466012D01*
X166665847Y-92455784D01*
X166645330Y-92443487D01*
X166626117Y-92429237D01*
X166608393Y-92413173D01*
X166592329Y-92395449D01*
X166578079Y-92376236D01*
X166565782Y-92355719D01*
X166555554Y-92334095D01*
X166547496Y-92311573D01*
X166541684Y-92288369D01*
X166538174Y-92264708D01*
X166537000Y-92240816D01*
X166537000Y-91328316D01*
X166538174Y-91304424D01*
X166541684Y-91280763D01*
X166547496Y-91257559D01*
X166555554Y-91235037D01*
X166565782Y-91213413D01*
X166578079Y-91192896D01*
X166592329Y-91173683D01*
X166608393Y-91155959D01*
X166626117Y-91139895D01*
X166645330Y-91125645D01*
X166665847Y-91113348D01*
X166687471Y-91103120D01*
X166709993Y-91095062D01*
X166733197Y-91089250D01*
X166756858Y-91085740D01*
X166780750Y-91084566D01*
X167268250Y-91084566D01*
X167292142Y-91085740D01*
G37*
M02*
