M48
; DRILL file {KiCad (5.1.5)-3} date 1/10/2021 4:49:44 PM
; FORMAT={-:-/ absolute / inch / decimal}
; #@! TF.CreationDate,2021-01-10T16:49:44-06:00
; #@! TF.GenerationSoftware,Kicad,Pcbnew,(5.1.5)-3
FMAT,2
INCH
T1C0.0157
T2C0.0335
T3C0.0402
T4C0.1181
%
G90
G05
T1
X4.9818Y-3.9587
X5.0556Y-3.8277
X5.0556Y-3.9587
X5.4291Y-5.8135
X5.4291Y-5.8873
X5.5079Y-4.5551
X5.5512Y-6.0945
X5.5551Y-4.4843
X5.6905Y-2.6602
X5.8088Y-5.0747
X5.8701Y-4.378
X5.8708Y-4.1577
X5.8708Y-4.2675
X5.8717Y-4.7067
X5.9449Y-4.7087
X5.9577Y-3.9817
X6.0027Y-3.7327
X6.0337Y-5.1662
X6.0669Y-4.3031
X6.0669Y-4.3583
X6.0669Y-4.4567
X6.0987Y-3.8037
X6.0997Y-3.8977
X6.1017Y-3.9797
X6.1654Y-6.0906
X6.1668Y-5.8787
X6.2205Y-4.7598
X6.2205Y-4.8425
X6.4252Y-4.3661
X6.4252Y-4.7283
X6.6486Y-5.3217
X6.6496Y-2.6602
X6.6497Y-3.6137
X6.6811Y-4.7298
X6.7205Y-4.3583
X6.7205Y-4.4055
X7.0537Y-5.5148
X7.1836Y-5.5148
X7.3135Y-5.5148
T2
X5.4527Y-6.3047
X5.5527Y-6.3047
X5.6527Y-6.3047
X5.7527Y-6.3047
T3
X7.0019Y-2.8502
X7.0019Y-2.9683
X7.0019Y-3.0864
X7.0019Y-4.0492
X7.0019Y-4.1673
X5.2697Y-4.8353
X5.2697Y-4.9534
X5.2697Y-5.3149
X5.2697Y-5.433
X5.2697Y-4.2375
X5.2697Y-4.3556
X5.2697Y-4.4737
X6.261Y-6.0097
X6.3791Y-6.0097
X6.4973Y-6.0097
X6.6154Y-6.0097
X6.7335Y-6.0097
X6.8516Y-6.0097
X6.9697Y-6.0097
X7.0019Y-5.1302
X7.0019Y-5.2483
X5.2697Y-5.7946
X5.2697Y-5.9127
X7.0019Y-3.5087
X7.0019Y-3.6269
X7.0019Y-4.5897
X7.0019Y-4.7078
T4
X5.0127Y-6.2587
X7.172Y-5.1892
X5.0996Y-5.8536
X7.172Y-3.5678
X7.172Y-4.6487
X5.0127Y-2.0207
X7.172Y-2.9683
X7.172Y-4.1083
X5.0996Y-4.8943
X7.2507Y-2.0217
X5.0996Y-5.374
X7.2517Y-6.2587
X5.0996Y-4.3556
X6.3457Y-6.1798
X6.8851Y-6.1798
T0
M30
