G04 #@! TF.GenerationSoftware,KiCad,Pcbnew,(5.1.5)-3*
G04 #@! TF.CreationDate,2021-11-23T22:40:54-06:00*
G04 #@! TF.ProjectId,Controls-LightingPCB,436f6e74-726f-46c7-932d-4c6967687469,rev?*
G04 #@! TF.SameCoordinates,Original*
G04 #@! TF.FileFunction,Soldermask,Bot*
G04 #@! TF.FilePolarity,Negative*
%FSLAX46Y46*%
G04 Gerber Fmt 4.6, Leading zero omitted, Abs format (unit mm)*
G04 Created by KiCad (PCBNEW (5.1.5)-3) date 2021-11-23 22:40:54*
%MOMM*%
%LPD*%
G04 APERTURE LIST*
%ADD10C,0.100000*%
G04 APERTURE END LIST*
D10*
G36*
X127625185Y-157449802D02*
G01*
X127775010Y-157479604D01*
X128057274Y-157596521D01*
X128311305Y-157766259D01*
X128527341Y-157982295D01*
X128697079Y-158236326D01*
X128813996Y-158518590D01*
X128813996Y-158518591D01*
X128872637Y-158813396D01*
X128873600Y-158818240D01*
X128873600Y-159123760D01*
X128813996Y-159423410D01*
X128697079Y-159705674D01*
X128527341Y-159959705D01*
X128311305Y-160175741D01*
X128057274Y-160345479D01*
X127775010Y-160462396D01*
X127625185Y-160492198D01*
X127475361Y-160522000D01*
X127169839Y-160522000D01*
X127020015Y-160492198D01*
X126870190Y-160462396D01*
X126587926Y-160345479D01*
X126333895Y-160175741D01*
X126117859Y-159959705D01*
X125948121Y-159705674D01*
X125831204Y-159423410D01*
X125771600Y-159123760D01*
X125771600Y-158818240D01*
X125772564Y-158813396D01*
X125831204Y-158518591D01*
X125831204Y-158518590D01*
X125948121Y-158236326D01*
X126117859Y-157982295D01*
X126333895Y-157766259D01*
X126587926Y-157596521D01*
X126870190Y-157479604D01*
X127020015Y-157449802D01*
X127169839Y-157420000D01*
X127475361Y-157420000D01*
X127625185Y-157449802D01*
G37*
G36*
X184495785Y-157449802D02*
G01*
X184645610Y-157479604D01*
X184927874Y-157596521D01*
X185181905Y-157766259D01*
X185397941Y-157982295D01*
X185567679Y-158236326D01*
X185684596Y-158518590D01*
X185684596Y-158518591D01*
X185743237Y-158813396D01*
X185744200Y-158818240D01*
X185744200Y-159123760D01*
X185684596Y-159423410D01*
X185567679Y-159705674D01*
X185397941Y-159959705D01*
X185181905Y-160175741D01*
X184927874Y-160345479D01*
X184645610Y-160462396D01*
X184495785Y-160492198D01*
X184345961Y-160522000D01*
X184040439Y-160522000D01*
X183890615Y-160492198D01*
X183740790Y-160462396D01*
X183458526Y-160345479D01*
X183204495Y-160175741D01*
X182988459Y-159959705D01*
X182818721Y-159705674D01*
X182701804Y-159423410D01*
X182642200Y-159123760D01*
X182642200Y-158818240D01*
X182643164Y-158813396D01*
X182701804Y-158518591D01*
X182701804Y-158518590D01*
X182818721Y-158236326D01*
X182988459Y-157982295D01*
X183204495Y-157766259D01*
X183458526Y-157596521D01*
X183740790Y-157479604D01*
X183890615Y-157449802D01*
X184040439Y-157420000D01*
X184345961Y-157420000D01*
X184495785Y-157449802D01*
G37*
G36*
X148091585Y-155800802D02*
G01*
X148241410Y-155830604D01*
X148523674Y-155947521D01*
X148777705Y-156117259D01*
X148993741Y-156333295D01*
X149163479Y-156587326D01*
X149280396Y-156869590D01*
X149280396Y-156869591D01*
X149340000Y-157169239D01*
X149340000Y-157474761D01*
X149315780Y-157596521D01*
X149280396Y-157774410D01*
X149163479Y-158056674D01*
X148993741Y-158310705D01*
X148777705Y-158526741D01*
X148523674Y-158696479D01*
X148241410Y-158813396D01*
X148091585Y-158843198D01*
X147941761Y-158873000D01*
X147636239Y-158873000D01*
X147486415Y-158843198D01*
X147336590Y-158813396D01*
X147054326Y-158696479D01*
X146800295Y-158526741D01*
X146584259Y-158310705D01*
X146414521Y-158056674D01*
X146297604Y-157774410D01*
X146262220Y-157596521D01*
X146238000Y-157474761D01*
X146238000Y-157169239D01*
X146297604Y-156869591D01*
X146297604Y-156869590D01*
X146414521Y-156587326D01*
X146584259Y-156333295D01*
X146800295Y-156117259D01*
X147054326Y-155947521D01*
X147336590Y-155830604D01*
X147486415Y-155800802D01*
X147636239Y-155771000D01*
X147941761Y-155771000D01*
X148091585Y-155800802D01*
G37*
G36*
X167791585Y-155800802D02*
G01*
X167941410Y-155830604D01*
X168223674Y-155947521D01*
X168477705Y-156117259D01*
X168693741Y-156333295D01*
X168863479Y-156587326D01*
X168980396Y-156869590D01*
X168980396Y-156869591D01*
X169040000Y-157169239D01*
X169040000Y-157474761D01*
X169015780Y-157596521D01*
X168980396Y-157774410D01*
X168863479Y-158056674D01*
X168693741Y-158310705D01*
X168477705Y-158526741D01*
X168223674Y-158696479D01*
X167941410Y-158813396D01*
X167791585Y-158843198D01*
X167641761Y-158873000D01*
X167336239Y-158873000D01*
X167186415Y-158843198D01*
X167036590Y-158813396D01*
X166754326Y-158696479D01*
X166500295Y-158526741D01*
X166284259Y-158310705D01*
X166114521Y-158056674D01*
X165997604Y-157774410D01*
X165962220Y-157596521D01*
X165938000Y-157474761D01*
X165938000Y-157169239D01*
X165997604Y-156869591D01*
X165997604Y-156869590D01*
X166114521Y-156587326D01*
X166284259Y-156333295D01*
X166500295Y-156117259D01*
X166754326Y-155947521D01*
X167036590Y-155830604D01*
X167186415Y-155800802D01*
X167336239Y-155771000D01*
X167641761Y-155771000D01*
X167791585Y-155800802D01*
G37*
G36*
X145796023Y-151952590D02*
G01*
X145861512Y-151972456D01*
X145947013Y-151998392D01*
X146086165Y-152072771D01*
X146208133Y-152172867D01*
X146308229Y-152294835D01*
X146382608Y-152433987D01*
X146382608Y-152433988D01*
X146428410Y-152584977D01*
X146440000Y-152702655D01*
X146440000Y-153301345D01*
X146428410Y-153419023D01*
X146397875Y-153519682D01*
X146382608Y-153570013D01*
X146308230Y-153709164D01*
X146308229Y-153709165D01*
X146208133Y-153831133D01*
X146105881Y-153915048D01*
X146086164Y-153931229D01*
X145947012Y-154005608D01*
X145896681Y-154020875D01*
X145796022Y-154051410D01*
X145639000Y-154066875D01*
X145481977Y-154051410D01*
X145381318Y-154020875D01*
X145330987Y-154005608D01*
X145191835Y-153931229D01*
X145121118Y-153873193D01*
X145069867Y-153831133D01*
X144969771Y-153709164D01*
X144895393Y-153570013D01*
X144895392Y-153570012D01*
X144880125Y-153519681D01*
X144849590Y-153419022D01*
X144838000Y-153301344D01*
X144838000Y-152702655D01*
X144849590Y-152584977D01*
X144895392Y-152433988D01*
X144895392Y-152433987D01*
X144932582Y-152364412D01*
X144969772Y-152294835D01*
X145069868Y-152172867D01*
X145191836Y-152072771D01*
X145225807Y-152054613D01*
X145330988Y-151998392D01*
X145416489Y-151972456D01*
X145481978Y-151952590D01*
X145639000Y-151937125D01*
X145796023Y-151952590D01*
G37*
G36*
X166796023Y-151952590D02*
G01*
X166861512Y-151972456D01*
X166947013Y-151998392D01*
X167086165Y-152072771D01*
X167208133Y-152172867D01*
X167308229Y-152294835D01*
X167382608Y-152433987D01*
X167382608Y-152433988D01*
X167428410Y-152584977D01*
X167440000Y-152702655D01*
X167440000Y-153301345D01*
X167428410Y-153419023D01*
X167397875Y-153519682D01*
X167382608Y-153570013D01*
X167308230Y-153709164D01*
X167308229Y-153709165D01*
X167208133Y-153831133D01*
X167105881Y-153915048D01*
X167086164Y-153931229D01*
X166947012Y-154005608D01*
X166896681Y-154020875D01*
X166796022Y-154051410D01*
X166639000Y-154066875D01*
X166481977Y-154051410D01*
X166381318Y-154020875D01*
X166330987Y-154005608D01*
X166191835Y-153931229D01*
X166121118Y-153873193D01*
X166069867Y-153831133D01*
X165969771Y-153709164D01*
X165895393Y-153570013D01*
X165895392Y-153570012D01*
X165880125Y-153519681D01*
X165849590Y-153419022D01*
X165838000Y-153301344D01*
X165838000Y-152702655D01*
X165849590Y-152584977D01*
X165895392Y-152433988D01*
X165895392Y-152433987D01*
X165932582Y-152364412D01*
X165969772Y-152294835D01*
X166069868Y-152172867D01*
X166191836Y-152072771D01*
X166225807Y-152054613D01*
X166330988Y-151998392D01*
X166416489Y-151972456D01*
X166481978Y-151952590D01*
X166639000Y-151937125D01*
X166796023Y-151952590D01*
G37*
G36*
X163796023Y-151952590D02*
G01*
X163861512Y-151972456D01*
X163947013Y-151998392D01*
X164086165Y-152072771D01*
X164208133Y-152172867D01*
X164308229Y-152294835D01*
X164382608Y-152433987D01*
X164382608Y-152433988D01*
X164428410Y-152584977D01*
X164440000Y-152702655D01*
X164440000Y-153301345D01*
X164428410Y-153419023D01*
X164397875Y-153519682D01*
X164382608Y-153570013D01*
X164308230Y-153709164D01*
X164308229Y-153709165D01*
X164208133Y-153831133D01*
X164105881Y-153915048D01*
X164086164Y-153931229D01*
X163947012Y-154005608D01*
X163896681Y-154020875D01*
X163796022Y-154051410D01*
X163639000Y-154066875D01*
X163481977Y-154051410D01*
X163381318Y-154020875D01*
X163330987Y-154005608D01*
X163191835Y-153931229D01*
X163121118Y-153873193D01*
X163069867Y-153831133D01*
X162969771Y-153709164D01*
X162895393Y-153570013D01*
X162895392Y-153570012D01*
X162880125Y-153519681D01*
X162849590Y-153419022D01*
X162838000Y-153301344D01*
X162838000Y-152702655D01*
X162849590Y-152584977D01*
X162895392Y-152433988D01*
X162895392Y-152433987D01*
X162932582Y-152364412D01*
X162969772Y-152294835D01*
X163069868Y-152172867D01*
X163191836Y-152072771D01*
X163225807Y-152054613D01*
X163330988Y-151998392D01*
X163416489Y-151972456D01*
X163481978Y-151952590D01*
X163639000Y-151937125D01*
X163796023Y-151952590D01*
G37*
G36*
X160796023Y-151952590D02*
G01*
X160861512Y-151972456D01*
X160947013Y-151998392D01*
X161086165Y-152072771D01*
X161208133Y-152172867D01*
X161308229Y-152294835D01*
X161382608Y-152433987D01*
X161382608Y-152433988D01*
X161428410Y-152584977D01*
X161440000Y-152702655D01*
X161440000Y-153301345D01*
X161428410Y-153419023D01*
X161397875Y-153519682D01*
X161382608Y-153570013D01*
X161308230Y-153709164D01*
X161308229Y-153709165D01*
X161208133Y-153831133D01*
X161105881Y-153915048D01*
X161086164Y-153931229D01*
X160947012Y-154005608D01*
X160896681Y-154020875D01*
X160796022Y-154051410D01*
X160639000Y-154066875D01*
X160481977Y-154051410D01*
X160381318Y-154020875D01*
X160330987Y-154005608D01*
X160191835Y-153931229D01*
X160121118Y-153873193D01*
X160069867Y-153831133D01*
X159969771Y-153709164D01*
X159895393Y-153570013D01*
X159895392Y-153570012D01*
X159880125Y-153519681D01*
X159849590Y-153419022D01*
X159838000Y-153301344D01*
X159838000Y-152702655D01*
X159849590Y-152584977D01*
X159895392Y-152433988D01*
X159895392Y-152433987D01*
X159932582Y-152364412D01*
X159969772Y-152294835D01*
X160069868Y-152172867D01*
X160191836Y-152072771D01*
X160225807Y-152054613D01*
X160330988Y-151998392D01*
X160416489Y-151972456D01*
X160481978Y-151952590D01*
X160639000Y-151937125D01*
X160796023Y-151952590D01*
G37*
G36*
X157796023Y-151952590D02*
G01*
X157861512Y-151972456D01*
X157947013Y-151998392D01*
X158086165Y-152072771D01*
X158208133Y-152172867D01*
X158308229Y-152294835D01*
X158382608Y-152433987D01*
X158382608Y-152433988D01*
X158428410Y-152584977D01*
X158440000Y-152702655D01*
X158440000Y-153301345D01*
X158428410Y-153419023D01*
X158397875Y-153519682D01*
X158382608Y-153570013D01*
X158308230Y-153709164D01*
X158308229Y-153709165D01*
X158208133Y-153831133D01*
X158105881Y-153915048D01*
X158086164Y-153931229D01*
X157947012Y-154005608D01*
X157896681Y-154020875D01*
X157796022Y-154051410D01*
X157639000Y-154066875D01*
X157481977Y-154051410D01*
X157381318Y-154020875D01*
X157330987Y-154005608D01*
X157191835Y-153931229D01*
X157121118Y-153873193D01*
X157069867Y-153831133D01*
X156969771Y-153709164D01*
X156895393Y-153570013D01*
X156895392Y-153570012D01*
X156880125Y-153519681D01*
X156849590Y-153419022D01*
X156838000Y-153301344D01*
X156838000Y-152702655D01*
X156849590Y-152584977D01*
X156895392Y-152433988D01*
X156895392Y-152433987D01*
X156932582Y-152364412D01*
X156969772Y-152294835D01*
X157069868Y-152172867D01*
X157191836Y-152072771D01*
X157225807Y-152054613D01*
X157330988Y-151998392D01*
X157416489Y-151972456D01*
X157481978Y-151952590D01*
X157639000Y-151937125D01*
X157796023Y-151952590D01*
G37*
G36*
X154796023Y-151952590D02*
G01*
X154861512Y-151972456D01*
X154947013Y-151998392D01*
X155086165Y-152072771D01*
X155208133Y-152172867D01*
X155308229Y-152294835D01*
X155382608Y-152433987D01*
X155382608Y-152433988D01*
X155428410Y-152584977D01*
X155440000Y-152702655D01*
X155440000Y-153301345D01*
X155428410Y-153419023D01*
X155397875Y-153519682D01*
X155382608Y-153570013D01*
X155308230Y-153709164D01*
X155308229Y-153709165D01*
X155208133Y-153831133D01*
X155105881Y-153915048D01*
X155086164Y-153931229D01*
X154947012Y-154005608D01*
X154896681Y-154020875D01*
X154796022Y-154051410D01*
X154639000Y-154066875D01*
X154481977Y-154051410D01*
X154381318Y-154020875D01*
X154330987Y-154005608D01*
X154191835Y-153931229D01*
X154121118Y-153873193D01*
X154069867Y-153831133D01*
X153969771Y-153709164D01*
X153895393Y-153570013D01*
X153895392Y-153570012D01*
X153880125Y-153519681D01*
X153849590Y-153419022D01*
X153838000Y-153301344D01*
X153838000Y-152702655D01*
X153849590Y-152584977D01*
X153895392Y-152433988D01*
X153895392Y-152433987D01*
X153932582Y-152364412D01*
X153969772Y-152294835D01*
X154069868Y-152172867D01*
X154191836Y-152072771D01*
X154225807Y-152054613D01*
X154330988Y-151998392D01*
X154416489Y-151972456D01*
X154481978Y-151952590D01*
X154639000Y-151937125D01*
X154796023Y-151952590D01*
G37*
G36*
X151796023Y-151952590D02*
G01*
X151861512Y-151972456D01*
X151947013Y-151998392D01*
X152086165Y-152072771D01*
X152208133Y-152172867D01*
X152308229Y-152294835D01*
X152382608Y-152433987D01*
X152382608Y-152433988D01*
X152428410Y-152584977D01*
X152440000Y-152702655D01*
X152440000Y-153301345D01*
X152428410Y-153419023D01*
X152397875Y-153519682D01*
X152382608Y-153570013D01*
X152308230Y-153709164D01*
X152308229Y-153709165D01*
X152208133Y-153831133D01*
X152105881Y-153915048D01*
X152086164Y-153931229D01*
X151947012Y-154005608D01*
X151896681Y-154020875D01*
X151796022Y-154051410D01*
X151639000Y-154066875D01*
X151481977Y-154051410D01*
X151381318Y-154020875D01*
X151330987Y-154005608D01*
X151191835Y-153931229D01*
X151121118Y-153873193D01*
X151069867Y-153831133D01*
X150969771Y-153709164D01*
X150895393Y-153570013D01*
X150895392Y-153570012D01*
X150880125Y-153519681D01*
X150849590Y-153419022D01*
X150838000Y-153301344D01*
X150838000Y-152702655D01*
X150849590Y-152584977D01*
X150895392Y-152433988D01*
X150895392Y-152433987D01*
X150932582Y-152364412D01*
X150969772Y-152294835D01*
X151069868Y-152172867D01*
X151191836Y-152072771D01*
X151225807Y-152054613D01*
X151330988Y-151998392D01*
X151416489Y-151972456D01*
X151481978Y-151952590D01*
X151639000Y-151937125D01*
X151796023Y-151952590D01*
G37*
G36*
X148796023Y-151952590D02*
G01*
X148861512Y-151972456D01*
X148947013Y-151998392D01*
X149086165Y-152072771D01*
X149208133Y-152172867D01*
X149308229Y-152294835D01*
X149382608Y-152433987D01*
X149382608Y-152433988D01*
X149428410Y-152584977D01*
X149440000Y-152702655D01*
X149440000Y-153301345D01*
X149428410Y-153419023D01*
X149397875Y-153519682D01*
X149382608Y-153570013D01*
X149308230Y-153709164D01*
X149308229Y-153709165D01*
X149208133Y-153831133D01*
X149105881Y-153915048D01*
X149086164Y-153931229D01*
X148947012Y-154005608D01*
X148896681Y-154020875D01*
X148796022Y-154051410D01*
X148639000Y-154066875D01*
X148481977Y-154051410D01*
X148381318Y-154020875D01*
X148330987Y-154005608D01*
X148191835Y-153931229D01*
X148121118Y-153873193D01*
X148069867Y-153831133D01*
X147969771Y-153709164D01*
X147895393Y-153570013D01*
X147895392Y-153570012D01*
X147880125Y-153519681D01*
X147849590Y-153419022D01*
X147838000Y-153301344D01*
X147838000Y-152702655D01*
X147849590Y-152584977D01*
X147895392Y-152433988D01*
X147895392Y-152433987D01*
X147932582Y-152364412D01*
X147969772Y-152294835D01*
X148069868Y-152172867D01*
X148191836Y-152072771D01*
X148225807Y-152054613D01*
X148330988Y-151998392D01*
X148416489Y-151972456D01*
X148481978Y-151952590D01*
X148639000Y-151937125D01*
X148796023Y-151952590D01*
G37*
G36*
X170292048Y-151945122D02*
G01*
X170326387Y-151955539D01*
X170358036Y-151972456D01*
X170385778Y-151995222D01*
X170408544Y-152022964D01*
X170425461Y-152054613D01*
X170435878Y-152088952D01*
X170440000Y-152130807D01*
X170440000Y-153873193D01*
X170435878Y-153915048D01*
X170425461Y-153949387D01*
X170408544Y-153981036D01*
X170385778Y-154008778D01*
X170358036Y-154031544D01*
X170326387Y-154048461D01*
X170292048Y-154058878D01*
X170250193Y-154063000D01*
X169027807Y-154063000D01*
X168985952Y-154058878D01*
X168951613Y-154048461D01*
X168919964Y-154031544D01*
X168892222Y-154008778D01*
X168869456Y-153981036D01*
X168852539Y-153949387D01*
X168842122Y-153915048D01*
X168838000Y-153873193D01*
X168838000Y-152130807D01*
X168842122Y-152088952D01*
X168852539Y-152054613D01*
X168869456Y-152022964D01*
X168892222Y-151995222D01*
X168919964Y-151972456D01*
X168951613Y-151955539D01*
X168985952Y-151945122D01*
X169027807Y-151941000D01*
X170250193Y-151941000D01*
X170292048Y-151945122D01*
G37*
G36*
X156509468Y-148553565D02*
G01*
X156548138Y-148565296D01*
X156583777Y-148584346D01*
X156615017Y-148609983D01*
X156640654Y-148641223D01*
X156659704Y-148676862D01*
X156671435Y-148715532D01*
X156676000Y-148761888D01*
X156676000Y-149838112D01*
X156671435Y-149884468D01*
X156659704Y-149923138D01*
X156640654Y-149958777D01*
X156615017Y-149990017D01*
X156583777Y-150015654D01*
X156548138Y-150034704D01*
X156509468Y-150046435D01*
X156463112Y-150051000D01*
X155811888Y-150051000D01*
X155765532Y-150046435D01*
X155726862Y-150034704D01*
X155691223Y-150015654D01*
X155659983Y-149990017D01*
X155634346Y-149958777D01*
X155615296Y-149923138D01*
X155603565Y-149884468D01*
X155599000Y-149838112D01*
X155599000Y-148761888D01*
X155603565Y-148715532D01*
X155615296Y-148676862D01*
X155634346Y-148641223D01*
X155659983Y-148609983D01*
X155691223Y-148584346D01*
X155726862Y-148565296D01*
X155765532Y-148553565D01*
X155811888Y-148549000D01*
X156463112Y-148549000D01*
X156509468Y-148553565D01*
G37*
G36*
X154634468Y-148553565D02*
G01*
X154673138Y-148565296D01*
X154708777Y-148584346D01*
X154740017Y-148609983D01*
X154765654Y-148641223D01*
X154784704Y-148676862D01*
X154796435Y-148715532D01*
X154801000Y-148761888D01*
X154801000Y-149838112D01*
X154796435Y-149884468D01*
X154784704Y-149923138D01*
X154765654Y-149958777D01*
X154740017Y-149990017D01*
X154708777Y-150015654D01*
X154673138Y-150034704D01*
X154634468Y-150046435D01*
X154588112Y-150051000D01*
X153936888Y-150051000D01*
X153890532Y-150046435D01*
X153851862Y-150034704D01*
X153816223Y-150015654D01*
X153784983Y-149990017D01*
X153759346Y-149958777D01*
X153740296Y-149923138D01*
X153728565Y-149884468D01*
X153724000Y-149838112D01*
X153724000Y-148761888D01*
X153728565Y-148715532D01*
X153740296Y-148676862D01*
X153759346Y-148641223D01*
X153784983Y-148609983D01*
X153816223Y-148584346D01*
X153851862Y-148565296D01*
X153890532Y-148553565D01*
X153936888Y-148549000D01*
X154588112Y-148549000D01*
X154634468Y-148553565D01*
G37*
G36*
X167396468Y-134424765D02*
G01*
X167435138Y-134436496D01*
X167470777Y-134455546D01*
X167502017Y-134481183D01*
X167527654Y-134512423D01*
X167546704Y-134548062D01*
X167558435Y-134586732D01*
X167563000Y-134633088D01*
X167563000Y-135709312D01*
X167558435Y-135755668D01*
X167546704Y-135794338D01*
X167527654Y-135829977D01*
X167502017Y-135861217D01*
X167470777Y-135886854D01*
X167435138Y-135905904D01*
X167396468Y-135917635D01*
X167350112Y-135922200D01*
X166698888Y-135922200D01*
X166652532Y-135917635D01*
X166613862Y-135905904D01*
X166578223Y-135886854D01*
X166546983Y-135861217D01*
X166521346Y-135829977D01*
X166502296Y-135794338D01*
X166490565Y-135755668D01*
X166486000Y-135709312D01*
X166486000Y-134633088D01*
X166490565Y-134586732D01*
X166502296Y-134548062D01*
X166521346Y-134512423D01*
X166546983Y-134481183D01*
X166578223Y-134455546D01*
X166613862Y-134436496D01*
X166652532Y-134424765D01*
X166698888Y-134420200D01*
X167350112Y-134420200D01*
X167396468Y-134424765D01*
G37*
G36*
X169271468Y-134424765D02*
G01*
X169310138Y-134436496D01*
X169345777Y-134455546D01*
X169377017Y-134481183D01*
X169402654Y-134512423D01*
X169421704Y-134548062D01*
X169433435Y-134586732D01*
X169438000Y-134633088D01*
X169438000Y-135709312D01*
X169433435Y-135755668D01*
X169421704Y-135794338D01*
X169402654Y-135829977D01*
X169377017Y-135861217D01*
X169345777Y-135886854D01*
X169310138Y-135905904D01*
X169271468Y-135917635D01*
X169225112Y-135922200D01*
X168573888Y-135922200D01*
X168527532Y-135917635D01*
X168488862Y-135905904D01*
X168453223Y-135886854D01*
X168421983Y-135861217D01*
X168396346Y-135829977D01*
X168377296Y-135794338D01*
X168365565Y-135755668D01*
X168361000Y-135709312D01*
X168361000Y-134633088D01*
X168365565Y-134586732D01*
X168377296Y-134548062D01*
X168396346Y-134512423D01*
X168421983Y-134481183D01*
X168453223Y-134455546D01*
X168488862Y-134436496D01*
X168527532Y-134424765D01*
X168573888Y-134420200D01*
X169225112Y-134420200D01*
X169271468Y-134424765D01*
G37*
G36*
X143012468Y-134391265D02*
G01*
X143051138Y-134402996D01*
X143086777Y-134422046D01*
X143118017Y-134447683D01*
X143143654Y-134478923D01*
X143162704Y-134514562D01*
X143174435Y-134553232D01*
X143179000Y-134599588D01*
X143179000Y-135675812D01*
X143174435Y-135722168D01*
X143162704Y-135760838D01*
X143143654Y-135796477D01*
X143118017Y-135827717D01*
X143086777Y-135853354D01*
X143051138Y-135872404D01*
X143012468Y-135884135D01*
X142966112Y-135888700D01*
X142314888Y-135888700D01*
X142268532Y-135884135D01*
X142229862Y-135872404D01*
X142194223Y-135853354D01*
X142162983Y-135827717D01*
X142137346Y-135796477D01*
X142118296Y-135760838D01*
X142106565Y-135722168D01*
X142102000Y-135675812D01*
X142102000Y-134599588D01*
X142106565Y-134553232D01*
X142118296Y-134514562D01*
X142137346Y-134478923D01*
X142162983Y-134447683D01*
X142194223Y-134422046D01*
X142229862Y-134402996D01*
X142268532Y-134391265D01*
X142314888Y-134386700D01*
X142966112Y-134386700D01*
X143012468Y-134391265D01*
G37*
G36*
X144887468Y-134391265D02*
G01*
X144926138Y-134402996D01*
X144961777Y-134422046D01*
X144993017Y-134447683D01*
X145018654Y-134478923D01*
X145037704Y-134514562D01*
X145049435Y-134553232D01*
X145054000Y-134599588D01*
X145054000Y-135675812D01*
X145049435Y-135722168D01*
X145037704Y-135760838D01*
X145018654Y-135796477D01*
X144993017Y-135827717D01*
X144961777Y-135853354D01*
X144926138Y-135872404D01*
X144887468Y-135884135D01*
X144841112Y-135888700D01*
X144189888Y-135888700D01*
X144143532Y-135884135D01*
X144104862Y-135872404D01*
X144069223Y-135853354D01*
X144037983Y-135827717D01*
X144012346Y-135796477D01*
X143993296Y-135760838D01*
X143981565Y-135722168D01*
X143977000Y-135675812D01*
X143977000Y-134599588D01*
X143981565Y-134553232D01*
X143993296Y-134514562D01*
X144012346Y-134478923D01*
X144037983Y-134447683D01*
X144069223Y-134422046D01*
X144104862Y-134402996D01*
X144143532Y-134391265D01*
X144189888Y-134386700D01*
X144841112Y-134386700D01*
X144887468Y-134391265D01*
G37*
G36*
X178186571Y-132508863D02*
G01*
X178265023Y-132516590D01*
X178344417Y-132540674D01*
X178416013Y-132562392D01*
X178555165Y-132636771D01*
X178677133Y-132736867D01*
X178777229Y-132858835D01*
X178851608Y-132997987D01*
X178855477Y-133010741D01*
X178897410Y-133148977D01*
X178912875Y-133306000D01*
X178897410Y-133463023D01*
X178866875Y-133563682D01*
X178851608Y-133614013D01*
X178777229Y-133753165D01*
X178677133Y-133875133D01*
X178555165Y-133975229D01*
X178416013Y-134049608D01*
X178365682Y-134064875D01*
X178265023Y-134095410D01*
X178186571Y-134103137D01*
X178147346Y-134107000D01*
X177548654Y-134107000D01*
X177509429Y-134103137D01*
X177430977Y-134095410D01*
X177330318Y-134064875D01*
X177279987Y-134049608D01*
X177140835Y-133975229D01*
X177018867Y-133875133D01*
X176918771Y-133753165D01*
X176844392Y-133614013D01*
X176829125Y-133563682D01*
X176798590Y-133463023D01*
X176783125Y-133306000D01*
X176798590Y-133148977D01*
X176840523Y-133010741D01*
X176844392Y-132997987D01*
X176918771Y-132858835D01*
X177018867Y-132736867D01*
X177140835Y-132636771D01*
X177279987Y-132562392D01*
X177351583Y-132540674D01*
X177430977Y-132516590D01*
X177509429Y-132508863D01*
X177548654Y-132505000D01*
X178147346Y-132505000D01*
X178186571Y-132508863D01*
G37*
G36*
X182470585Y-130284802D02*
G01*
X182620410Y-130314604D01*
X182902674Y-130431521D01*
X183156705Y-130601259D01*
X183372741Y-130817295D01*
X183542479Y-131071326D01*
X183659396Y-131353590D01*
X183719000Y-131653240D01*
X183719000Y-131958760D01*
X183659396Y-132258410D01*
X183542479Y-132540674D01*
X183372741Y-132794705D01*
X183156705Y-133010741D01*
X182902674Y-133180479D01*
X182620410Y-133297396D01*
X182470585Y-133327198D01*
X182320761Y-133357000D01*
X182015239Y-133357000D01*
X181865415Y-133327198D01*
X181715590Y-133297396D01*
X181433326Y-133180479D01*
X181179295Y-133010741D01*
X180963259Y-132794705D01*
X180793521Y-132540674D01*
X180676604Y-132258410D01*
X180617000Y-131958760D01*
X180617000Y-131653240D01*
X180676604Y-131353590D01*
X180793521Y-131071326D01*
X180963259Y-130817295D01*
X181179295Y-130601259D01*
X181433326Y-130431521D01*
X181715590Y-130314604D01*
X181865415Y-130284802D01*
X182015239Y-130255000D01*
X182320761Y-130255000D01*
X182470585Y-130284802D01*
G37*
G36*
X178761048Y-129509122D02*
G01*
X178795387Y-129519539D01*
X178827036Y-129536456D01*
X178854778Y-129559222D01*
X178877544Y-129586964D01*
X178894461Y-129618613D01*
X178904878Y-129652952D01*
X178909000Y-129694807D01*
X178909000Y-130917193D01*
X178904878Y-130959048D01*
X178894461Y-130993387D01*
X178877544Y-131025036D01*
X178854778Y-131052778D01*
X178827036Y-131075544D01*
X178795387Y-131092461D01*
X178761048Y-131102878D01*
X178719193Y-131107000D01*
X176976807Y-131107000D01*
X176934952Y-131102878D01*
X176900613Y-131092461D01*
X176868964Y-131075544D01*
X176841222Y-131052778D01*
X176818456Y-131025036D01*
X176801539Y-130993387D01*
X176791122Y-130959048D01*
X176787000Y-130917193D01*
X176787000Y-129694807D01*
X176791122Y-129652952D01*
X176801539Y-129618613D01*
X176818456Y-129586964D01*
X176841222Y-129559222D01*
X176868964Y-129536456D01*
X176900613Y-129519539D01*
X176934952Y-129509122D01*
X176976807Y-129505000D01*
X178719193Y-129505000D01*
X178761048Y-129509122D01*
G37*
G36*
X134763448Y-125018655D02*
G01*
X134797787Y-125029072D01*
X134829436Y-125045989D01*
X134857178Y-125068755D01*
X134879944Y-125096497D01*
X134896861Y-125128146D01*
X134907278Y-125162485D01*
X134911400Y-125204340D01*
X134911400Y-126426726D01*
X134907278Y-126468581D01*
X134896861Y-126502920D01*
X134879944Y-126534569D01*
X134857178Y-126562311D01*
X134829436Y-126585077D01*
X134797787Y-126601994D01*
X134763448Y-126612411D01*
X134721593Y-126616533D01*
X132979207Y-126616533D01*
X132937352Y-126612411D01*
X132903013Y-126601994D01*
X132871364Y-126585077D01*
X132843622Y-126562311D01*
X132820856Y-126534569D01*
X132803939Y-126502920D01*
X132793522Y-126468581D01*
X132789400Y-126426726D01*
X132789400Y-125204340D01*
X132793522Y-125162485D01*
X132803939Y-125128146D01*
X132820856Y-125096497D01*
X132843622Y-125068755D01*
X132871364Y-125045989D01*
X132903013Y-125029072D01*
X132937352Y-125018655D01*
X132979207Y-125014533D01*
X134721593Y-125014533D01*
X134763448Y-125018655D01*
G37*
G36*
X129832985Y-122794335D02*
G01*
X129982810Y-122824137D01*
X130265074Y-122941054D01*
X130519105Y-123110792D01*
X130735141Y-123326828D01*
X130904879Y-123580859D01*
X131021796Y-123863123D01*
X131081400Y-124162773D01*
X131081400Y-124468293D01*
X131021796Y-124767943D01*
X130904879Y-125050207D01*
X130735141Y-125304238D01*
X130519105Y-125520274D01*
X130265074Y-125690012D01*
X129982810Y-125806929D01*
X129832985Y-125836731D01*
X129683161Y-125866533D01*
X129377639Y-125866533D01*
X129227815Y-125836731D01*
X129077990Y-125806929D01*
X128795726Y-125690012D01*
X128541695Y-125520274D01*
X128325659Y-125304238D01*
X128155921Y-125050207D01*
X128039004Y-124767943D01*
X127979400Y-124468293D01*
X127979400Y-124162773D01*
X128039004Y-123863123D01*
X128155921Y-123580859D01*
X128325659Y-123326828D01*
X128541695Y-123110792D01*
X128795726Y-122941054D01*
X129077990Y-122824137D01*
X129227815Y-122794335D01*
X129377639Y-122764533D01*
X129683161Y-122764533D01*
X129832985Y-122794335D01*
G37*
G36*
X134188971Y-122018396D02*
G01*
X134267423Y-122026123D01*
X134368082Y-122056658D01*
X134418413Y-122071925D01*
X134557565Y-122146304D01*
X134679533Y-122246400D01*
X134779629Y-122368368D01*
X134854008Y-122507520D01*
X134854008Y-122507521D01*
X134899810Y-122658510D01*
X134915275Y-122815533D01*
X134899810Y-122972556D01*
X134869275Y-123073215D01*
X134854008Y-123123546D01*
X134779629Y-123262698D01*
X134679533Y-123384666D01*
X134557565Y-123484762D01*
X134418413Y-123559141D01*
X134368082Y-123574408D01*
X134267423Y-123604943D01*
X134188971Y-123612670D01*
X134149746Y-123616533D01*
X133551054Y-123616533D01*
X133511829Y-123612670D01*
X133433377Y-123604943D01*
X133332718Y-123574408D01*
X133282387Y-123559141D01*
X133143235Y-123484762D01*
X133021267Y-123384666D01*
X132921171Y-123262698D01*
X132846792Y-123123546D01*
X132831525Y-123073215D01*
X132800990Y-122972556D01*
X132785525Y-122815533D01*
X132800990Y-122658510D01*
X132846792Y-122507521D01*
X132846792Y-122507520D01*
X132921171Y-122368368D01*
X133021267Y-122246400D01*
X133143235Y-122146304D01*
X133282387Y-122071925D01*
X133332718Y-122056658D01*
X133433377Y-122026123D01*
X133511829Y-122018396D01*
X133551054Y-122014533D01*
X134149746Y-122014533D01*
X134188971Y-122018396D01*
G37*
G36*
X178186571Y-118780863D02*
G01*
X178265023Y-118788590D01*
X178344417Y-118812674D01*
X178416013Y-118834392D01*
X178555165Y-118908771D01*
X178677133Y-119008867D01*
X178777229Y-119130835D01*
X178851608Y-119269987D01*
X178855477Y-119282741D01*
X178897410Y-119420977D01*
X178912875Y-119578000D01*
X178897410Y-119735023D01*
X178866875Y-119835682D01*
X178851608Y-119886013D01*
X178777229Y-120025165D01*
X178677133Y-120147133D01*
X178555165Y-120247229D01*
X178416013Y-120321608D01*
X178365682Y-120336875D01*
X178265023Y-120367410D01*
X178186571Y-120375137D01*
X178147346Y-120379000D01*
X177548654Y-120379000D01*
X177509429Y-120375137D01*
X177430977Y-120367410D01*
X177330318Y-120336875D01*
X177279987Y-120321608D01*
X177140835Y-120247229D01*
X177018867Y-120147133D01*
X176918771Y-120025165D01*
X176844392Y-119886013D01*
X176829125Y-119835682D01*
X176798590Y-119735023D01*
X176783125Y-119578000D01*
X176798590Y-119420977D01*
X176840523Y-119282741D01*
X176844392Y-119269987D01*
X176918771Y-119130835D01*
X177018867Y-119008867D01*
X177140835Y-118908771D01*
X177279987Y-118834392D01*
X177351583Y-118812674D01*
X177430977Y-118788590D01*
X177509429Y-118780863D01*
X177548654Y-118777000D01*
X178147346Y-118777000D01*
X178186571Y-118780863D01*
G37*
G36*
X182470585Y-116556802D02*
G01*
X182620410Y-116586604D01*
X182902674Y-116703521D01*
X183156705Y-116873259D01*
X183372741Y-117089295D01*
X183542479Y-117343326D01*
X183659396Y-117625590D01*
X183719000Y-117925240D01*
X183719000Y-118230760D01*
X183659396Y-118530410D01*
X183542479Y-118812674D01*
X183372741Y-119066705D01*
X183156705Y-119282741D01*
X182902674Y-119452479D01*
X182620410Y-119569396D01*
X182470585Y-119599198D01*
X182320761Y-119629000D01*
X182015239Y-119629000D01*
X181865415Y-119599198D01*
X181715590Y-119569396D01*
X181433326Y-119452479D01*
X181179295Y-119282741D01*
X180963259Y-119066705D01*
X180793521Y-118812674D01*
X180676604Y-118530410D01*
X180617000Y-118230760D01*
X180617000Y-117925240D01*
X180676604Y-117625590D01*
X180793521Y-117343326D01*
X180963259Y-117089295D01*
X181179295Y-116873259D01*
X181433326Y-116703521D01*
X181715590Y-116586604D01*
X181865415Y-116556802D01*
X182015239Y-116527000D01*
X182320761Y-116527000D01*
X182470585Y-116556802D01*
G37*
G36*
X178761048Y-115781122D02*
G01*
X178795387Y-115791539D01*
X178827036Y-115808456D01*
X178854778Y-115831222D01*
X178877544Y-115858964D01*
X178894461Y-115890613D01*
X178904878Y-115924952D01*
X178909000Y-115966807D01*
X178909000Y-117189193D01*
X178904878Y-117231048D01*
X178894461Y-117265387D01*
X178877544Y-117297036D01*
X178854778Y-117324778D01*
X178827036Y-117347544D01*
X178795387Y-117364461D01*
X178761048Y-117374878D01*
X178719193Y-117379000D01*
X176976807Y-117379000D01*
X176934952Y-117374878D01*
X176900613Y-117364461D01*
X176868964Y-117347544D01*
X176841222Y-117324778D01*
X176818456Y-117297036D01*
X176801539Y-117265387D01*
X176791122Y-117231048D01*
X176787000Y-117189193D01*
X176787000Y-115966807D01*
X176791122Y-115924952D01*
X176801539Y-115890613D01*
X176818456Y-115858964D01*
X176841222Y-115831222D01*
X176868964Y-115808456D01*
X176900613Y-115791539D01*
X176934952Y-115781122D01*
X176976807Y-115777000D01*
X178719193Y-115777000D01*
X178761048Y-115781122D01*
G37*
G36*
X134763448Y-112835122D02*
G01*
X134797787Y-112845539D01*
X134829436Y-112862456D01*
X134857178Y-112885222D01*
X134879944Y-112912964D01*
X134896861Y-112944613D01*
X134907278Y-112978952D01*
X134911400Y-113020807D01*
X134911400Y-114243193D01*
X134907278Y-114285048D01*
X134896861Y-114319387D01*
X134879944Y-114351036D01*
X134857178Y-114378778D01*
X134829436Y-114401544D01*
X134797787Y-114418461D01*
X134763448Y-114428878D01*
X134721593Y-114433000D01*
X132979207Y-114433000D01*
X132937352Y-114428878D01*
X132903013Y-114418461D01*
X132871364Y-114401544D01*
X132843622Y-114378778D01*
X132820856Y-114351036D01*
X132803939Y-114319387D01*
X132793522Y-114285048D01*
X132789400Y-114243193D01*
X132789400Y-113020807D01*
X132793522Y-112978952D01*
X132803939Y-112944613D01*
X132820856Y-112912964D01*
X132843622Y-112885222D01*
X132871364Y-112862456D01*
X132903013Y-112845539D01*
X132937352Y-112835122D01*
X132979207Y-112831000D01*
X134721593Y-112831000D01*
X134763448Y-112835122D01*
G37*
G36*
X129832985Y-109110802D02*
G01*
X129982810Y-109140604D01*
X130265074Y-109257521D01*
X130519105Y-109427259D01*
X130735141Y-109643295D01*
X130904879Y-109897326D01*
X131021796Y-110179590D01*
X131051289Y-110327861D01*
X131081400Y-110479239D01*
X131081400Y-110784761D01*
X131080552Y-110789023D01*
X131021796Y-111084410D01*
X130904879Y-111366674D01*
X130735141Y-111620705D01*
X130519105Y-111836741D01*
X130265074Y-112006479D01*
X129982810Y-112123396D01*
X129832985Y-112153198D01*
X129683161Y-112183000D01*
X129377639Y-112183000D01*
X129227815Y-112153198D01*
X129077990Y-112123396D01*
X128795726Y-112006479D01*
X128541695Y-111836741D01*
X128325659Y-111620705D01*
X128155921Y-111366674D01*
X128039004Y-111084410D01*
X127980248Y-110789023D01*
X127979400Y-110784761D01*
X127979400Y-110479239D01*
X128009511Y-110327861D01*
X128039004Y-110179590D01*
X128155921Y-109897326D01*
X128325659Y-109643295D01*
X128541695Y-109427259D01*
X128795726Y-109257521D01*
X129077990Y-109140604D01*
X129227815Y-109110802D01*
X129377639Y-109081000D01*
X129683161Y-109081000D01*
X129832985Y-109110802D01*
G37*
G36*
X169271468Y-110253565D02*
G01*
X169310138Y-110265296D01*
X169345777Y-110284346D01*
X169377017Y-110309983D01*
X169402654Y-110341223D01*
X169421704Y-110376862D01*
X169433435Y-110415532D01*
X169438000Y-110461888D01*
X169438000Y-111538112D01*
X169433435Y-111584468D01*
X169421704Y-111623138D01*
X169402654Y-111658777D01*
X169377017Y-111690017D01*
X169345777Y-111715654D01*
X169310138Y-111734704D01*
X169271468Y-111746435D01*
X169225112Y-111751000D01*
X168573888Y-111751000D01*
X168527532Y-111746435D01*
X168488862Y-111734704D01*
X168453223Y-111715654D01*
X168421983Y-111690017D01*
X168396346Y-111658777D01*
X168377296Y-111623138D01*
X168365565Y-111584468D01*
X168361000Y-111538112D01*
X168361000Y-110461888D01*
X168365565Y-110415532D01*
X168377296Y-110376862D01*
X168396346Y-110341223D01*
X168421983Y-110309983D01*
X168453223Y-110284346D01*
X168488862Y-110265296D01*
X168527532Y-110253565D01*
X168573888Y-110249000D01*
X169225112Y-110249000D01*
X169271468Y-110253565D01*
G37*
G36*
X167396468Y-110253565D02*
G01*
X167435138Y-110265296D01*
X167470777Y-110284346D01*
X167502017Y-110309983D01*
X167527654Y-110341223D01*
X167546704Y-110376862D01*
X167558435Y-110415532D01*
X167563000Y-110461888D01*
X167563000Y-111538112D01*
X167558435Y-111584468D01*
X167546704Y-111623138D01*
X167527654Y-111658777D01*
X167502017Y-111690017D01*
X167470777Y-111715654D01*
X167435138Y-111734704D01*
X167396468Y-111746435D01*
X167350112Y-111751000D01*
X166698888Y-111751000D01*
X166652532Y-111746435D01*
X166613862Y-111734704D01*
X166578223Y-111715654D01*
X166546983Y-111690017D01*
X166521346Y-111658777D01*
X166502296Y-111623138D01*
X166490565Y-111584468D01*
X166486000Y-111538112D01*
X166486000Y-110461888D01*
X166490565Y-110415532D01*
X166502296Y-110376862D01*
X166521346Y-110341223D01*
X166546983Y-110309983D01*
X166578223Y-110284346D01*
X166613862Y-110265296D01*
X166652532Y-110253565D01*
X166698888Y-110249000D01*
X167350112Y-110249000D01*
X167396468Y-110253565D01*
G37*
G36*
X143012468Y-110174697D02*
G01*
X143051138Y-110186428D01*
X143086777Y-110205478D01*
X143118017Y-110231115D01*
X143143654Y-110262355D01*
X143162704Y-110297994D01*
X143174435Y-110336664D01*
X143179000Y-110383020D01*
X143179000Y-111459244D01*
X143174435Y-111505600D01*
X143162704Y-111544270D01*
X143143654Y-111579909D01*
X143118017Y-111611149D01*
X143086777Y-111636786D01*
X143051138Y-111655836D01*
X143012468Y-111667567D01*
X142966112Y-111672132D01*
X142314888Y-111672132D01*
X142268532Y-111667567D01*
X142229862Y-111655836D01*
X142194223Y-111636786D01*
X142162983Y-111611149D01*
X142137346Y-111579909D01*
X142118296Y-111544270D01*
X142106565Y-111505600D01*
X142102000Y-111459244D01*
X142102000Y-110383020D01*
X142106565Y-110336664D01*
X142118296Y-110297994D01*
X142137346Y-110262355D01*
X142162983Y-110231115D01*
X142194223Y-110205478D01*
X142229862Y-110186428D01*
X142268532Y-110174697D01*
X142314888Y-110170132D01*
X142966112Y-110170132D01*
X143012468Y-110174697D01*
G37*
G36*
X144887468Y-110174697D02*
G01*
X144926138Y-110186428D01*
X144961777Y-110205478D01*
X144993017Y-110231115D01*
X145018654Y-110262355D01*
X145037704Y-110297994D01*
X145049435Y-110336664D01*
X145054000Y-110383020D01*
X145054000Y-111459244D01*
X145049435Y-111505600D01*
X145037704Y-111544270D01*
X145018654Y-111579909D01*
X144993017Y-111611149D01*
X144961777Y-111636786D01*
X144926138Y-111655836D01*
X144887468Y-111667567D01*
X144841112Y-111672132D01*
X144189888Y-111672132D01*
X144143532Y-111667567D01*
X144104862Y-111655836D01*
X144069223Y-111636786D01*
X144037983Y-111611149D01*
X144012346Y-111579909D01*
X143993296Y-111544270D01*
X143981565Y-111505600D01*
X143977000Y-111459244D01*
X143977000Y-110383020D01*
X143981565Y-110336664D01*
X143993296Y-110297994D01*
X144012346Y-110262355D01*
X144037983Y-110231115D01*
X144069223Y-110205478D01*
X144104862Y-110186428D01*
X144143532Y-110174697D01*
X144189888Y-110170132D01*
X144841112Y-110170132D01*
X144887468Y-110174697D01*
G37*
G36*
X134188971Y-109834863D02*
G01*
X134267423Y-109842590D01*
X134368082Y-109873125D01*
X134418413Y-109888392D01*
X134557565Y-109962771D01*
X134679533Y-110062867D01*
X134779629Y-110184835D01*
X134854008Y-110323987D01*
X134854008Y-110323988D01*
X134899810Y-110474977D01*
X134915275Y-110632000D01*
X134899810Y-110789023D01*
X134869275Y-110889682D01*
X134854008Y-110940013D01*
X134779629Y-111079165D01*
X134679533Y-111201133D01*
X134557565Y-111301229D01*
X134418413Y-111375608D01*
X134368082Y-111390875D01*
X134267423Y-111421410D01*
X134188971Y-111429137D01*
X134149746Y-111433000D01*
X133551054Y-111433000D01*
X133511829Y-111429137D01*
X133433377Y-111421410D01*
X133332718Y-111390875D01*
X133282387Y-111375608D01*
X133143235Y-111301229D01*
X133021267Y-111201133D01*
X132921171Y-111079165D01*
X132846792Y-110940013D01*
X132831525Y-110889682D01*
X132800990Y-110789023D01*
X132785525Y-110632000D01*
X132800990Y-110474977D01*
X132846792Y-110323988D01*
X132846792Y-110323987D01*
X132921171Y-110184835D01*
X133021267Y-110062867D01*
X133143235Y-109962771D01*
X133282387Y-109888392D01*
X133332718Y-109873125D01*
X133433377Y-109842590D01*
X133511829Y-109834863D01*
X133551054Y-109831000D01*
X134149746Y-109831000D01*
X134188971Y-109834863D01*
G37*
G36*
X134188971Y-106834863D02*
G01*
X134267423Y-106842590D01*
X134368082Y-106873125D01*
X134418413Y-106888392D01*
X134557565Y-106962771D01*
X134679533Y-107062867D01*
X134779629Y-107184835D01*
X134854008Y-107323987D01*
X134854008Y-107323988D01*
X134899810Y-107474977D01*
X134915275Y-107632000D01*
X134899810Y-107789023D01*
X134869275Y-107889682D01*
X134854008Y-107940013D01*
X134779629Y-108079165D01*
X134679533Y-108201133D01*
X134557565Y-108301229D01*
X134418413Y-108375608D01*
X134368082Y-108390875D01*
X134267423Y-108421410D01*
X134188971Y-108429137D01*
X134149746Y-108433000D01*
X133551054Y-108433000D01*
X133511829Y-108429137D01*
X133433377Y-108421410D01*
X133332718Y-108390875D01*
X133282387Y-108375608D01*
X133143235Y-108301229D01*
X133021267Y-108201133D01*
X132921171Y-108079165D01*
X132846792Y-107940013D01*
X132831525Y-107889682D01*
X132800990Y-107789023D01*
X132785525Y-107632000D01*
X132800990Y-107474977D01*
X132846792Y-107323988D01*
X132846792Y-107323987D01*
X132921171Y-107184835D01*
X133021267Y-107062867D01*
X133143235Y-106962771D01*
X133282387Y-106888392D01*
X133332718Y-106873125D01*
X133433377Y-106842590D01*
X133511829Y-106834863D01*
X133551054Y-106831000D01*
X134149746Y-106831000D01*
X134188971Y-106834863D01*
G37*
G36*
X178186571Y-105052863D02*
G01*
X178265023Y-105060590D01*
X178344417Y-105084674D01*
X178416013Y-105106392D01*
X178555165Y-105180771D01*
X178677133Y-105280867D01*
X178777229Y-105402835D01*
X178851608Y-105541987D01*
X178855477Y-105554741D01*
X178897410Y-105692977D01*
X178912875Y-105850000D01*
X178897410Y-106007023D01*
X178866875Y-106107682D01*
X178851608Y-106158013D01*
X178777229Y-106297165D01*
X178677133Y-106419133D01*
X178555165Y-106519229D01*
X178416013Y-106593608D01*
X178365682Y-106608875D01*
X178265023Y-106639410D01*
X178186571Y-106647137D01*
X178147346Y-106651000D01*
X177548654Y-106651000D01*
X177509429Y-106647137D01*
X177430977Y-106639410D01*
X177330318Y-106608875D01*
X177279987Y-106593608D01*
X177140835Y-106519229D01*
X177018867Y-106419133D01*
X176918771Y-106297165D01*
X176844392Y-106158013D01*
X176829125Y-106107682D01*
X176798590Y-106007023D01*
X176783125Y-105850000D01*
X176798590Y-105692977D01*
X176840523Y-105554741D01*
X176844392Y-105541987D01*
X176918771Y-105402835D01*
X177018867Y-105280867D01*
X177140835Y-105180771D01*
X177279987Y-105106392D01*
X177351583Y-105084674D01*
X177430977Y-105060590D01*
X177509429Y-105052863D01*
X177548654Y-105049000D01*
X178147346Y-105049000D01*
X178186571Y-105052863D01*
G37*
G36*
X182470585Y-102828802D02*
G01*
X182620410Y-102858604D01*
X182902674Y-102975521D01*
X183156705Y-103145259D01*
X183372741Y-103361295D01*
X183542479Y-103615326D01*
X183659396Y-103897590D01*
X183719000Y-104197240D01*
X183719000Y-104502760D01*
X183659396Y-104802410D01*
X183542479Y-105084674D01*
X183372741Y-105338705D01*
X183156705Y-105554741D01*
X182902674Y-105724479D01*
X182620410Y-105841396D01*
X182470585Y-105871198D01*
X182320761Y-105901000D01*
X182015239Y-105901000D01*
X181865415Y-105871198D01*
X181715590Y-105841396D01*
X181433326Y-105724479D01*
X181179295Y-105554741D01*
X180963259Y-105338705D01*
X180793521Y-105084674D01*
X180676604Y-104802410D01*
X180617000Y-104502760D01*
X180617000Y-104197240D01*
X180676604Y-103897590D01*
X180793521Y-103615326D01*
X180963259Y-103361295D01*
X181179295Y-103145259D01*
X181433326Y-102975521D01*
X181715590Y-102858604D01*
X181865415Y-102828802D01*
X182015239Y-102799000D01*
X182320761Y-102799000D01*
X182470585Y-102828802D01*
G37*
G36*
X178761048Y-102053122D02*
G01*
X178795387Y-102063539D01*
X178827036Y-102080456D01*
X178854778Y-102103222D01*
X178877544Y-102130964D01*
X178894461Y-102162613D01*
X178904878Y-102196952D01*
X178909000Y-102238807D01*
X178909000Y-103461193D01*
X178904878Y-103503048D01*
X178894461Y-103537387D01*
X178877544Y-103569036D01*
X178854778Y-103596778D01*
X178827036Y-103619544D01*
X178795387Y-103636461D01*
X178761048Y-103646878D01*
X178719193Y-103651000D01*
X176976807Y-103651000D01*
X176934952Y-103646878D01*
X176900613Y-103636461D01*
X176868964Y-103619544D01*
X176841222Y-103596778D01*
X176818456Y-103569036D01*
X176801539Y-103537387D01*
X176791122Y-103503048D01*
X176787000Y-103461193D01*
X176787000Y-102238807D01*
X176791122Y-102196952D01*
X176801539Y-102162613D01*
X176818456Y-102130964D01*
X176841222Y-102103222D01*
X176868964Y-102080456D01*
X176900613Y-102063539D01*
X176934952Y-102053122D01*
X176976807Y-102049000D01*
X178719193Y-102049000D01*
X178761048Y-102053122D01*
G37*
G36*
X178186571Y-91324863D02*
G01*
X178265023Y-91332590D01*
X178344417Y-91356674D01*
X178416013Y-91378392D01*
X178555165Y-91452771D01*
X178677133Y-91552867D01*
X178777229Y-91674835D01*
X178851608Y-91813987D01*
X178855477Y-91826741D01*
X178897410Y-91964977D01*
X178912875Y-92122000D01*
X178897410Y-92279023D01*
X178885330Y-92318844D01*
X178851608Y-92430013D01*
X178777229Y-92569165D01*
X178677133Y-92691133D01*
X178555165Y-92791229D01*
X178416013Y-92865608D01*
X178365682Y-92880875D01*
X178265023Y-92911410D01*
X178186571Y-92919137D01*
X178147346Y-92923000D01*
X177548654Y-92923000D01*
X177509429Y-92919137D01*
X177430977Y-92911410D01*
X177330318Y-92880875D01*
X177279987Y-92865608D01*
X177140835Y-92791229D01*
X177018867Y-92691133D01*
X176918771Y-92569165D01*
X176844392Y-92430013D01*
X176810670Y-92318844D01*
X176798590Y-92279023D01*
X176783125Y-92122000D01*
X176798590Y-91964977D01*
X176840523Y-91826741D01*
X176844392Y-91813987D01*
X176918771Y-91674835D01*
X177018867Y-91552867D01*
X177140835Y-91452771D01*
X177279987Y-91378392D01*
X177351583Y-91356674D01*
X177430977Y-91332590D01*
X177509429Y-91324863D01*
X177548654Y-91321000D01*
X178147346Y-91321000D01*
X178186571Y-91324863D01*
G37*
G36*
X144887468Y-91038131D02*
G01*
X144926138Y-91049862D01*
X144961777Y-91068912D01*
X144993017Y-91094549D01*
X145018654Y-91125789D01*
X145037704Y-91161428D01*
X145049435Y-91200098D01*
X145054000Y-91246454D01*
X145054000Y-92322678D01*
X145049435Y-92369034D01*
X145037704Y-92407704D01*
X145018654Y-92443343D01*
X144993017Y-92474583D01*
X144961777Y-92500220D01*
X144926138Y-92519270D01*
X144887468Y-92531001D01*
X144841112Y-92535566D01*
X144189888Y-92535566D01*
X144143532Y-92531001D01*
X144104862Y-92519270D01*
X144069223Y-92500220D01*
X144037983Y-92474583D01*
X144012346Y-92443343D01*
X143993296Y-92407704D01*
X143981565Y-92369034D01*
X143977000Y-92322678D01*
X143977000Y-91246454D01*
X143981565Y-91200098D01*
X143993296Y-91161428D01*
X144012346Y-91125789D01*
X144037983Y-91094549D01*
X144069223Y-91068912D01*
X144104862Y-91049862D01*
X144143532Y-91038131D01*
X144189888Y-91033566D01*
X144841112Y-91033566D01*
X144887468Y-91038131D01*
G37*
G36*
X169271468Y-91038131D02*
G01*
X169310138Y-91049862D01*
X169345777Y-91068912D01*
X169377017Y-91094549D01*
X169402654Y-91125789D01*
X169421704Y-91161428D01*
X169433435Y-91200098D01*
X169438000Y-91246454D01*
X169438000Y-92322678D01*
X169433435Y-92369034D01*
X169421704Y-92407704D01*
X169402654Y-92443343D01*
X169377017Y-92474583D01*
X169345777Y-92500220D01*
X169310138Y-92519270D01*
X169271468Y-92531001D01*
X169225112Y-92535566D01*
X168573888Y-92535566D01*
X168527532Y-92531001D01*
X168488862Y-92519270D01*
X168453223Y-92500220D01*
X168421983Y-92474583D01*
X168396346Y-92443343D01*
X168377296Y-92407704D01*
X168365565Y-92369034D01*
X168361000Y-92322678D01*
X168361000Y-91246454D01*
X168365565Y-91200098D01*
X168377296Y-91161428D01*
X168396346Y-91125789D01*
X168421983Y-91094549D01*
X168453223Y-91068912D01*
X168488862Y-91049862D01*
X168527532Y-91038131D01*
X168573888Y-91033566D01*
X169225112Y-91033566D01*
X169271468Y-91038131D01*
G37*
G36*
X143012468Y-91038131D02*
G01*
X143051138Y-91049862D01*
X143086777Y-91068912D01*
X143118017Y-91094549D01*
X143143654Y-91125789D01*
X143162704Y-91161428D01*
X143174435Y-91200098D01*
X143179000Y-91246454D01*
X143179000Y-92322678D01*
X143174435Y-92369034D01*
X143162704Y-92407704D01*
X143143654Y-92443343D01*
X143118017Y-92474583D01*
X143086777Y-92500220D01*
X143051138Y-92519270D01*
X143012468Y-92531001D01*
X142966112Y-92535566D01*
X142314888Y-92535566D01*
X142268532Y-92531001D01*
X142229862Y-92519270D01*
X142194223Y-92500220D01*
X142162983Y-92474583D01*
X142137346Y-92443343D01*
X142118296Y-92407704D01*
X142106565Y-92369034D01*
X142102000Y-92322678D01*
X142102000Y-91246454D01*
X142106565Y-91200098D01*
X142118296Y-91161428D01*
X142137346Y-91125789D01*
X142162983Y-91094549D01*
X142194223Y-91068912D01*
X142229862Y-91049862D01*
X142268532Y-91038131D01*
X142314888Y-91033566D01*
X142966112Y-91033566D01*
X143012468Y-91038131D01*
G37*
G36*
X167396468Y-91038131D02*
G01*
X167435138Y-91049862D01*
X167470777Y-91068912D01*
X167502017Y-91094549D01*
X167527654Y-91125789D01*
X167546704Y-91161428D01*
X167558435Y-91200098D01*
X167563000Y-91246454D01*
X167563000Y-92322678D01*
X167558435Y-92369034D01*
X167546704Y-92407704D01*
X167527654Y-92443343D01*
X167502017Y-92474583D01*
X167470777Y-92500220D01*
X167435138Y-92519270D01*
X167396468Y-92531001D01*
X167350112Y-92535566D01*
X166698888Y-92535566D01*
X166652532Y-92531001D01*
X166613862Y-92519270D01*
X166578223Y-92500220D01*
X166546983Y-92474583D01*
X166521346Y-92443343D01*
X166502296Y-92407704D01*
X166490565Y-92369034D01*
X166486000Y-92322678D01*
X166486000Y-91246454D01*
X166490565Y-91200098D01*
X166502296Y-91161428D01*
X166521346Y-91125789D01*
X166546983Y-91094549D01*
X166578223Y-91068912D01*
X166613862Y-91049862D01*
X166652532Y-91038131D01*
X166698888Y-91033566D01*
X167350112Y-91033566D01*
X167396468Y-91038131D01*
G37*
G36*
X182470585Y-89100802D02*
G01*
X182620410Y-89130604D01*
X182902674Y-89247521D01*
X183156705Y-89417259D01*
X183372741Y-89633295D01*
X183542479Y-89887326D01*
X183659396Y-90169590D01*
X183719000Y-90469240D01*
X183719000Y-90774760D01*
X183659396Y-91074410D01*
X183542479Y-91356674D01*
X183372741Y-91610705D01*
X183156705Y-91826741D01*
X182902674Y-91996479D01*
X182620410Y-92113396D01*
X182470585Y-92143198D01*
X182320761Y-92173000D01*
X182015239Y-92173000D01*
X181865415Y-92143198D01*
X181715590Y-92113396D01*
X181433326Y-91996479D01*
X181179295Y-91826741D01*
X180963259Y-91610705D01*
X180793521Y-91356674D01*
X180676604Y-91074410D01*
X180617000Y-90774760D01*
X180617000Y-90469240D01*
X180676604Y-90169590D01*
X180793521Y-89887326D01*
X180963259Y-89633295D01*
X181179295Y-89417259D01*
X181433326Y-89247521D01*
X181715590Y-89130604D01*
X181865415Y-89100802D01*
X182015239Y-89071000D01*
X182320761Y-89071000D01*
X182470585Y-89100802D01*
G37*
G36*
X178761048Y-88325122D02*
G01*
X178795387Y-88335539D01*
X178827036Y-88352456D01*
X178854778Y-88375222D01*
X178877544Y-88402964D01*
X178894461Y-88434613D01*
X178904878Y-88468952D01*
X178909000Y-88510807D01*
X178909000Y-89733193D01*
X178904878Y-89775048D01*
X178894461Y-89809387D01*
X178877544Y-89841036D01*
X178854778Y-89868778D01*
X178827036Y-89891544D01*
X178795387Y-89908461D01*
X178761048Y-89918878D01*
X178719193Y-89923000D01*
X176976807Y-89923000D01*
X176934952Y-89918878D01*
X176900613Y-89908461D01*
X176868964Y-89891544D01*
X176841222Y-89868778D01*
X176818456Y-89841036D01*
X176801539Y-89809387D01*
X176791122Y-89775048D01*
X176787000Y-89733193D01*
X176787000Y-88510807D01*
X176791122Y-88468952D01*
X176801539Y-88434613D01*
X176818456Y-88402964D01*
X176841222Y-88375222D01*
X176868964Y-88352456D01*
X176900613Y-88335539D01*
X176934952Y-88325122D01*
X176976807Y-88321000D01*
X178719193Y-88321000D01*
X178761048Y-88325122D01*
G37*
G36*
X178186571Y-77596863D02*
G01*
X178265023Y-77604590D01*
X178365682Y-77635125D01*
X178416013Y-77650392D01*
X178555165Y-77724771D01*
X178677133Y-77824867D01*
X178777229Y-77946835D01*
X178851608Y-78085987D01*
X178851608Y-78085988D01*
X178897410Y-78236977D01*
X178912875Y-78394000D01*
X178897410Y-78551023D01*
X178866875Y-78651682D01*
X178851608Y-78702013D01*
X178777229Y-78841165D01*
X178677133Y-78963133D01*
X178555165Y-79063229D01*
X178416013Y-79137608D01*
X178365682Y-79152875D01*
X178265023Y-79183410D01*
X178186571Y-79191137D01*
X178147346Y-79195000D01*
X177548654Y-79195000D01*
X177509429Y-79191137D01*
X177430977Y-79183410D01*
X177330318Y-79152875D01*
X177279987Y-79137608D01*
X177140835Y-79063229D01*
X177018867Y-78963133D01*
X176918771Y-78841165D01*
X176844392Y-78702013D01*
X176829125Y-78651682D01*
X176798590Y-78551023D01*
X176783125Y-78394000D01*
X176798590Y-78236977D01*
X176844392Y-78085988D01*
X176844392Y-78085987D01*
X176918771Y-77946835D01*
X177018867Y-77824867D01*
X177140835Y-77724771D01*
X177279987Y-77650392D01*
X177330318Y-77635125D01*
X177430977Y-77604590D01*
X177509429Y-77596863D01*
X177548654Y-77593000D01*
X178147346Y-77593000D01*
X178186571Y-77596863D01*
G37*
G36*
X182470585Y-73872802D02*
G01*
X182620410Y-73902604D01*
X182902674Y-74019521D01*
X183156705Y-74189259D01*
X183372741Y-74405295D01*
X183542479Y-74659326D01*
X183659396Y-74941590D01*
X183689198Y-75091415D01*
X183719000Y-75241239D01*
X183719000Y-75546761D01*
X183718152Y-75551023D01*
X183659396Y-75846410D01*
X183542479Y-76128674D01*
X183372741Y-76382705D01*
X183156705Y-76598741D01*
X182902674Y-76768479D01*
X182620410Y-76885396D01*
X182470585Y-76915198D01*
X182320761Y-76945000D01*
X182015239Y-76945000D01*
X181865415Y-76915198D01*
X181715590Y-76885396D01*
X181433326Y-76768479D01*
X181179295Y-76598741D01*
X180963259Y-76382705D01*
X180793521Y-76128674D01*
X180676604Y-75846410D01*
X180617848Y-75551023D01*
X180617000Y-75546761D01*
X180617000Y-75241239D01*
X180646802Y-75091415D01*
X180676604Y-74941590D01*
X180793521Y-74659326D01*
X180963259Y-74405295D01*
X181179295Y-74189259D01*
X181433326Y-74019521D01*
X181715590Y-73902604D01*
X181865415Y-73872802D01*
X182015239Y-73843000D01*
X182320761Y-73843000D01*
X182470585Y-73872802D01*
G37*
G36*
X178186571Y-74596863D02*
G01*
X178265023Y-74604590D01*
X178365682Y-74635125D01*
X178416013Y-74650392D01*
X178555165Y-74724771D01*
X178677133Y-74824867D01*
X178777229Y-74946835D01*
X178851608Y-75085987D01*
X178851608Y-75085988D01*
X178897410Y-75236977D01*
X178912875Y-75394000D01*
X178897410Y-75551023D01*
X178866875Y-75651682D01*
X178851608Y-75702013D01*
X178777229Y-75841165D01*
X178677133Y-75963133D01*
X178555165Y-76063229D01*
X178416013Y-76137608D01*
X178365682Y-76152875D01*
X178265023Y-76183410D01*
X178186571Y-76191137D01*
X178147346Y-76195000D01*
X177548654Y-76195000D01*
X177509429Y-76191137D01*
X177430977Y-76183410D01*
X177330318Y-76152875D01*
X177279987Y-76137608D01*
X177140835Y-76063229D01*
X177018867Y-75963133D01*
X176918771Y-75841165D01*
X176844392Y-75702013D01*
X176829125Y-75651682D01*
X176798590Y-75551023D01*
X176783125Y-75394000D01*
X176798590Y-75236977D01*
X176844392Y-75085988D01*
X176844392Y-75085987D01*
X176918771Y-74946835D01*
X177018867Y-74824867D01*
X177140835Y-74724771D01*
X177279987Y-74650392D01*
X177330318Y-74635125D01*
X177430977Y-74604590D01*
X177509429Y-74596863D01*
X177548654Y-74593000D01*
X178147346Y-74593000D01*
X178186571Y-74596863D01*
G37*
G36*
X178761048Y-71597122D02*
G01*
X178795387Y-71607539D01*
X178827036Y-71624456D01*
X178854778Y-71647222D01*
X178877544Y-71674964D01*
X178894461Y-71706613D01*
X178904878Y-71740952D01*
X178909000Y-71782807D01*
X178909000Y-73005193D01*
X178904878Y-73047048D01*
X178894461Y-73081387D01*
X178877544Y-73113036D01*
X178854778Y-73140778D01*
X178827036Y-73163544D01*
X178795387Y-73180461D01*
X178761048Y-73190878D01*
X178719193Y-73195000D01*
X176976807Y-73195000D01*
X176934952Y-73190878D01*
X176900613Y-73180461D01*
X176868964Y-73163544D01*
X176841222Y-73140778D01*
X176818456Y-73113036D01*
X176801539Y-73081387D01*
X176791122Y-73047048D01*
X176787000Y-73005193D01*
X176787000Y-71782807D01*
X176791122Y-71740952D01*
X176801539Y-71706613D01*
X176818456Y-71674964D01*
X176841222Y-71647222D01*
X176868964Y-71624456D01*
X176900613Y-71607539D01*
X176934952Y-71597122D01*
X176976807Y-71593000D01*
X178719193Y-71593000D01*
X178761048Y-71597122D01*
G37*
G36*
X143034468Y-66853565D02*
G01*
X143073138Y-66865296D01*
X143108777Y-66884346D01*
X143140017Y-66909983D01*
X143165654Y-66941223D01*
X143184704Y-66976862D01*
X143196435Y-67015532D01*
X143201000Y-67061888D01*
X143201000Y-68138112D01*
X143196435Y-68184468D01*
X143184704Y-68223138D01*
X143165654Y-68258777D01*
X143140017Y-68290017D01*
X143108777Y-68315654D01*
X143073138Y-68334704D01*
X143034468Y-68346435D01*
X142988112Y-68351000D01*
X142336888Y-68351000D01*
X142290532Y-68346435D01*
X142251862Y-68334704D01*
X142216223Y-68315654D01*
X142184983Y-68290017D01*
X142159346Y-68258777D01*
X142140296Y-68223138D01*
X142128565Y-68184468D01*
X142124000Y-68138112D01*
X142124000Y-67061888D01*
X142128565Y-67015532D01*
X142140296Y-66976862D01*
X142159346Y-66941223D01*
X142184983Y-66909983D01*
X142216223Y-66884346D01*
X142251862Y-66865296D01*
X142290532Y-66853565D01*
X142336888Y-66849000D01*
X142988112Y-66849000D01*
X143034468Y-66853565D01*
G37*
G36*
X144909468Y-66853565D02*
G01*
X144948138Y-66865296D01*
X144983777Y-66884346D01*
X145015017Y-66909983D01*
X145040654Y-66941223D01*
X145059704Y-66976862D01*
X145071435Y-67015532D01*
X145076000Y-67061888D01*
X145076000Y-68138112D01*
X145071435Y-68184468D01*
X145059704Y-68223138D01*
X145040654Y-68258777D01*
X145015017Y-68290017D01*
X144983777Y-68315654D01*
X144948138Y-68334704D01*
X144909468Y-68346435D01*
X144863112Y-68351000D01*
X144211888Y-68351000D01*
X144165532Y-68346435D01*
X144126862Y-68334704D01*
X144091223Y-68315654D01*
X144059983Y-68290017D01*
X144034346Y-68258777D01*
X144015296Y-68223138D01*
X144003565Y-68184468D01*
X143999000Y-68138112D01*
X143999000Y-67061888D01*
X144003565Y-67015532D01*
X144015296Y-66976862D01*
X144034346Y-66941223D01*
X144059983Y-66909983D01*
X144091223Y-66884346D01*
X144126862Y-66865296D01*
X144165532Y-66853565D01*
X144211888Y-66849000D01*
X144863112Y-66849000D01*
X144909468Y-66853565D01*
G37*
G36*
X169271468Y-66821565D02*
G01*
X169310138Y-66833296D01*
X169345777Y-66852346D01*
X169377017Y-66877983D01*
X169402654Y-66909223D01*
X169421704Y-66944862D01*
X169433435Y-66983532D01*
X169438000Y-67029888D01*
X169438000Y-68106112D01*
X169433435Y-68152468D01*
X169421704Y-68191138D01*
X169402654Y-68226777D01*
X169377017Y-68258017D01*
X169345777Y-68283654D01*
X169310138Y-68302704D01*
X169271468Y-68314435D01*
X169225112Y-68319000D01*
X168573888Y-68319000D01*
X168527532Y-68314435D01*
X168488862Y-68302704D01*
X168453223Y-68283654D01*
X168421983Y-68258017D01*
X168396346Y-68226777D01*
X168377296Y-68191138D01*
X168365565Y-68152468D01*
X168361000Y-68106112D01*
X168361000Y-67029888D01*
X168365565Y-66983532D01*
X168377296Y-66944862D01*
X168396346Y-66909223D01*
X168421983Y-66877983D01*
X168453223Y-66852346D01*
X168488862Y-66833296D01*
X168527532Y-66821565D01*
X168573888Y-66817000D01*
X169225112Y-66817000D01*
X169271468Y-66821565D01*
G37*
G36*
X167396468Y-66821565D02*
G01*
X167435138Y-66833296D01*
X167470777Y-66852346D01*
X167502017Y-66877983D01*
X167527654Y-66909223D01*
X167546704Y-66944862D01*
X167558435Y-66983532D01*
X167563000Y-67029888D01*
X167563000Y-68106112D01*
X167558435Y-68152468D01*
X167546704Y-68191138D01*
X167527654Y-68226777D01*
X167502017Y-68258017D01*
X167470777Y-68283654D01*
X167435138Y-68302704D01*
X167396468Y-68314435D01*
X167350112Y-68319000D01*
X166698888Y-68319000D01*
X166652532Y-68314435D01*
X166613862Y-68302704D01*
X166578223Y-68283654D01*
X166546983Y-68258017D01*
X166521346Y-68226777D01*
X166502296Y-68191138D01*
X166490565Y-68152468D01*
X166486000Y-68106112D01*
X166486000Y-67029888D01*
X166490565Y-66983532D01*
X166502296Y-66944862D01*
X166521346Y-66909223D01*
X166546983Y-66877983D01*
X166578223Y-66852346D01*
X166613862Y-66833296D01*
X166652532Y-66821565D01*
X166698888Y-66817000D01*
X167350112Y-66817000D01*
X167396468Y-66821565D01*
G37*
G36*
X184470385Y-49830002D02*
G01*
X184620210Y-49859804D01*
X184902474Y-49976721D01*
X185156505Y-50146459D01*
X185372541Y-50362495D01*
X185542279Y-50616526D01*
X185648675Y-50873390D01*
X185659196Y-50898791D01*
X185713748Y-51173039D01*
X185718800Y-51198440D01*
X185718800Y-51503960D01*
X185659196Y-51803610D01*
X185542279Y-52085874D01*
X185372541Y-52339905D01*
X185156505Y-52555941D01*
X184902474Y-52725679D01*
X184620210Y-52842596D01*
X184470385Y-52872398D01*
X184320561Y-52902200D01*
X184015039Y-52902200D01*
X183865215Y-52872398D01*
X183715390Y-52842596D01*
X183433126Y-52725679D01*
X183179095Y-52555941D01*
X182963059Y-52339905D01*
X182793321Y-52085874D01*
X182676404Y-51803610D01*
X182616800Y-51503960D01*
X182616800Y-51198440D01*
X182621853Y-51173039D01*
X182676404Y-50898791D01*
X182686925Y-50873390D01*
X182793321Y-50616526D01*
X182963059Y-50362495D01*
X183179095Y-50146459D01*
X183433126Y-49976721D01*
X183715390Y-49859804D01*
X183865215Y-49830002D01*
X184015039Y-49800200D01*
X184320561Y-49800200D01*
X184470385Y-49830002D01*
G37*
G36*
X127603055Y-49800200D02*
G01*
X127775010Y-49834404D01*
X128057274Y-49951321D01*
X128311305Y-50121059D01*
X128527341Y-50337095D01*
X128697079Y-50591126D01*
X128813996Y-50873390D01*
X128843798Y-51023215D01*
X128873600Y-51173039D01*
X128873600Y-51478561D01*
X128843798Y-51628385D01*
X128813996Y-51778210D01*
X128697079Y-52060474D01*
X128527341Y-52314505D01*
X128311305Y-52530541D01*
X128057274Y-52700279D01*
X127775010Y-52817196D01*
X127647315Y-52842596D01*
X127475361Y-52876800D01*
X127169839Y-52876800D01*
X126997885Y-52842596D01*
X126870190Y-52817196D01*
X126587926Y-52700279D01*
X126333895Y-52530541D01*
X126117859Y-52314505D01*
X125948121Y-52060474D01*
X125831204Y-51778210D01*
X125801402Y-51628385D01*
X125771600Y-51478561D01*
X125771600Y-51173039D01*
X125801402Y-51023215D01*
X125831204Y-50873390D01*
X125948121Y-50591126D01*
X126117859Y-50337095D01*
X126333895Y-50121059D01*
X126587926Y-49951321D01*
X126870190Y-49834404D01*
X127042145Y-49800200D01*
X127169839Y-49774800D01*
X127475361Y-49774800D01*
X127603055Y-49800200D01*
G37*
M02*
