G04 #@! TF.GenerationSoftware,KiCad,Pcbnew,(5.1.5)-3*
G04 #@! TF.CreationDate,2021-10-03T22:44:45-05:00*
G04 #@! TF.ProjectId,Controls-LightingPCB,436f6e74-726f-46c7-932d-4c6967687469,rev?*
G04 #@! TF.SameCoordinates,Original*
G04 #@! TF.FileFunction,Legend,Bot*
G04 #@! TF.FilePolarity,Positive*
%FSLAX46Y46*%
G04 Gerber Fmt 4.6, Leading zero omitted, Abs format (unit mm)*
G04 Created by KiCad (PCBNEW (5.1.5)-3) date 2021-10-03 22:44:45*
%MOMM*%
%LPD*%
G04 APERTURE LIST*
%ADD10C,0.600000*%
%ADD11C,0.889000*%
%ADD12C,0.152400*%
%ADD13C,0.120000*%
%ADD14C,0.150000*%
G04 APERTURE END LIST*
D10*
X163400969Y-147755142D02*
X163400969Y-144755143D01*
X162258112Y-144755143D01*
X161972398Y-144898000D01*
X161829541Y-145040857D01*
X161686684Y-145326571D01*
X161686684Y-145755143D01*
X161829541Y-146040857D01*
X161972398Y-146183714D01*
X162258112Y-146326571D01*
X163400969Y-146326571D01*
X159972399Y-147755142D02*
X160258113Y-147612285D01*
X160400970Y-147469428D01*
X160543827Y-147183714D01*
X160543827Y-146326571D01*
X160400970Y-146040857D01*
X160258113Y-145898000D01*
X159972399Y-145755143D01*
X159543827Y-145755143D01*
X159258113Y-145898000D01*
X159115256Y-146040857D01*
X158972399Y-146326571D01*
X158972399Y-147183714D01*
X159115256Y-147469428D01*
X159258113Y-147612285D01*
X159543827Y-147755142D01*
X159972399Y-147755142D01*
X157972399Y-145755143D02*
X157400971Y-147755142D01*
X156829543Y-146326571D01*
X156258114Y-147755142D01*
X155686686Y-145755143D01*
X153400972Y-147612285D02*
X153686686Y-147755142D01*
X154258115Y-147755142D01*
X154543829Y-147612285D01*
X154686686Y-147326571D01*
X154686686Y-146183714D01*
X154543829Y-145898000D01*
X154258115Y-145755143D01*
X153686686Y-145755143D01*
X153400972Y-145898000D01*
X153258115Y-146183714D01*
X153258115Y-146469428D01*
X154686686Y-146755142D01*
X151972401Y-147755142D02*
X151972401Y-145755143D01*
X151972401Y-146326571D02*
X151829544Y-146040857D01*
X151686687Y-145898000D01*
X151400973Y-145755143D01*
X151115259Y-145755143D01*
D11*
X148578166Y-57508583D02*
X150059833Y-55391916D01*
X151118166Y-57508583D02*
X151118166Y-53063583D01*
X149424833Y-53063583D01*
X149001500Y-53275250D01*
X148789833Y-53486916D01*
X148578166Y-53910250D01*
X148578166Y-54545250D01*
X148789833Y-54968583D01*
X149001500Y-55180250D01*
X149424833Y-55391916D01*
X151118166Y-55391916D01*
X146673166Y-57508583D02*
X146673166Y-54545250D01*
X146673166Y-53063583D02*
X146884833Y-53275250D01*
X146673166Y-53486916D01*
X146461500Y-53275250D01*
X146673166Y-53063583D01*
X146673166Y-53486916D01*
X142651500Y-54545250D02*
X142651500Y-58143583D01*
X142863166Y-58566916D01*
X143074833Y-58778583D01*
X143498166Y-58990250D01*
X144133166Y-58990250D01*
X144556500Y-58778583D01*
X142651500Y-57296916D02*
X143074833Y-57508583D01*
X143921500Y-57508583D01*
X144344833Y-57296916D01*
X144556500Y-57085250D01*
X144768166Y-56661916D01*
X144768166Y-55391916D01*
X144556500Y-54968583D01*
X144344833Y-54756916D01*
X143921500Y-54545250D01*
X143074833Y-54545250D01*
X142651500Y-54756916D01*
X140534833Y-57508583D02*
X140534833Y-53063583D01*
X138629833Y-57508583D02*
X138629833Y-55180250D01*
X138841500Y-54756916D01*
X139264833Y-54545250D01*
X139899833Y-54545250D01*
X140323166Y-54756916D01*
X140534833Y-54968583D01*
X137148166Y-54545250D02*
X135454833Y-54545250D01*
X136513166Y-53063583D02*
X136513166Y-56873583D01*
X136301500Y-57296916D01*
X135878166Y-57508583D01*
X135454833Y-57508583D01*
X149319000Y-62736750D02*
X148684000Y-62948416D01*
X148472333Y-63160083D01*
X148260666Y-63583416D01*
X148260666Y-64218416D01*
X148472333Y-64641750D01*
X148684000Y-64853416D01*
X149107333Y-65065083D01*
X150800666Y-65065083D01*
X150800666Y-60620083D01*
X149319000Y-60620083D01*
X148895666Y-60831750D01*
X148684000Y-61043416D01*
X148472333Y-61466750D01*
X148472333Y-61890083D01*
X148684000Y-62313416D01*
X148895666Y-62525083D01*
X149319000Y-62736750D01*
X150800666Y-62736750D01*
X145720666Y-65065083D02*
X146144000Y-64853416D01*
X146355666Y-64430083D01*
X146355666Y-60620083D01*
X144027333Y-65065083D02*
X144027333Y-62101750D01*
X144027333Y-60620083D02*
X144239000Y-60831750D01*
X144027333Y-61043416D01*
X143815666Y-60831750D01*
X144027333Y-60620083D01*
X144027333Y-61043416D01*
X141910666Y-62101750D02*
X141910666Y-65065083D01*
X141910666Y-62525083D02*
X141699000Y-62313416D01*
X141275666Y-62101750D01*
X140640666Y-62101750D01*
X140217333Y-62313416D01*
X140005666Y-62736750D01*
X140005666Y-65065083D01*
X137889000Y-65065083D02*
X137889000Y-60620083D01*
X137465666Y-63371750D02*
X136195666Y-65065083D01*
X136195666Y-62101750D02*
X137889000Y-63795083D01*
X148451166Y-124649250D02*
X148662833Y-124860916D01*
X149297833Y-125072583D01*
X149721166Y-125072583D01*
X150356166Y-124860916D01*
X150779500Y-124437583D01*
X150991166Y-124014250D01*
X151202833Y-123167583D01*
X151202833Y-122532583D01*
X150991166Y-121685916D01*
X150779500Y-121262583D01*
X150356166Y-120839250D01*
X149721166Y-120627583D01*
X149297833Y-120627583D01*
X148662833Y-120839250D01*
X148451166Y-121050916D01*
X147181166Y-120627583D02*
X144641166Y-120627583D01*
X145911166Y-125072583D02*
X145911166Y-120627583D01*
X140619500Y-125072583D02*
X142101166Y-122955916D01*
X143159500Y-125072583D02*
X143159500Y-120627583D01*
X141466166Y-120627583D01*
X141042833Y-120839250D01*
X140831166Y-121050916D01*
X140619500Y-121474250D01*
X140619500Y-122109250D01*
X140831166Y-122532583D01*
X141042833Y-122744250D01*
X141466166Y-122955916D01*
X143159500Y-122955916D01*
X136597833Y-125072583D02*
X138714500Y-125072583D01*
X138714500Y-120627583D01*
X149932833Y-130300750D02*
X151414500Y-130300750D01*
X151414500Y-132629083D02*
X151414500Y-128184083D01*
X149297833Y-128184083D01*
X145699500Y-132629083D02*
X145699500Y-130300750D01*
X145911166Y-129877416D01*
X146334500Y-129665750D01*
X147181166Y-129665750D01*
X147604500Y-129877416D01*
X145699500Y-132417416D02*
X146122833Y-132629083D01*
X147181166Y-132629083D01*
X147604500Y-132417416D01*
X147816166Y-131994083D01*
X147816166Y-131570750D01*
X147604500Y-131147416D01*
X147181166Y-130935750D01*
X146122833Y-130935750D01*
X145699500Y-130724083D01*
X141677833Y-129665750D02*
X141677833Y-132629083D01*
X143582833Y-129665750D02*
X143582833Y-131994083D01*
X143371166Y-132417416D01*
X142947833Y-132629083D01*
X142312833Y-132629083D01*
X141889500Y-132417416D01*
X141677833Y-132205750D01*
X138926166Y-132629083D02*
X139349500Y-132417416D01*
X139561166Y-131994083D01*
X139561166Y-128184083D01*
X137867833Y-129665750D02*
X136174500Y-129665750D01*
X137232833Y-128184083D02*
X137232833Y-131994083D01*
X137021166Y-132417416D01*
X136597833Y-132629083D01*
X136174500Y-132629083D01*
X152261166Y-108530833D02*
X152261166Y-104085833D01*
X150779500Y-107260833D01*
X149297833Y-104085833D01*
X149297833Y-108530833D01*
X146546166Y-108530833D02*
X146969500Y-108319166D01*
X147181166Y-108107500D01*
X147392833Y-107684166D01*
X147392833Y-106414166D01*
X147181166Y-105990833D01*
X146969500Y-105779166D01*
X146546166Y-105567500D01*
X145911166Y-105567500D01*
X145487833Y-105779166D01*
X145276166Y-105990833D01*
X145064500Y-106414166D01*
X145064500Y-107684166D01*
X145276166Y-108107500D01*
X145487833Y-108319166D01*
X145911166Y-108530833D01*
X146546166Y-108530833D01*
X143794500Y-105567500D02*
X142101166Y-105567500D01*
X143159500Y-104085833D02*
X143159500Y-107895833D01*
X142947833Y-108319166D01*
X142524500Y-108530833D01*
X142101166Y-108530833D01*
X139984500Y-108530833D02*
X140407833Y-108319166D01*
X140619500Y-108107500D01*
X140831166Y-107684166D01*
X140831166Y-106414166D01*
X140619500Y-105990833D01*
X140407833Y-105779166D01*
X139984500Y-105567500D01*
X139349500Y-105567500D01*
X138926166Y-105779166D01*
X138714500Y-105990833D01*
X138502833Y-106414166D01*
X138502833Y-107684166D01*
X138714500Y-108107500D01*
X138926166Y-108319166D01*
X139349500Y-108530833D01*
X139984500Y-108530833D01*
X136597833Y-108530833D02*
X136597833Y-105567500D01*
X136597833Y-106414166D02*
X136386166Y-105990833D01*
X136174500Y-105779166D01*
X135751166Y-105567500D01*
X135327833Y-105567500D01*
X170485666Y-79056250D02*
X169850666Y-79267916D01*
X169639000Y-79479583D01*
X169427333Y-79902916D01*
X169427333Y-80537916D01*
X169639000Y-80961250D01*
X169850666Y-81172916D01*
X170274000Y-81384583D01*
X171967333Y-81384583D01*
X171967333Y-76939583D01*
X170485666Y-76939583D01*
X170062333Y-77151250D01*
X169850666Y-77362916D01*
X169639000Y-77786250D01*
X169639000Y-78209583D01*
X169850666Y-78632916D01*
X170062333Y-78844583D01*
X170485666Y-79056250D01*
X171967333Y-79056250D01*
X167522333Y-81384583D02*
X167522333Y-76939583D01*
X165829000Y-76939583D01*
X165405666Y-77151250D01*
X165194000Y-77362916D01*
X164982333Y-77786250D01*
X164982333Y-78421250D01*
X165194000Y-78844583D01*
X165405666Y-79056250D01*
X165829000Y-79267916D01*
X167522333Y-79267916D01*
X163289000Y-81172916D02*
X162654000Y-81384583D01*
X161595666Y-81384583D01*
X161172333Y-81172916D01*
X160960666Y-80961250D01*
X160749000Y-80537916D01*
X160749000Y-80114583D01*
X160960666Y-79691250D01*
X161172333Y-79479583D01*
X161595666Y-79267916D01*
X162442333Y-79056250D01*
X162865666Y-78844583D01*
X163077333Y-78632916D01*
X163289000Y-78209583D01*
X163289000Y-77786250D01*
X163077333Y-77362916D01*
X162865666Y-77151250D01*
X162442333Y-76939583D01*
X161384000Y-76939583D01*
X160749000Y-77151250D01*
X175248166Y-88941083D02*
X175248166Y-84496083D01*
X173554833Y-84496083D01*
X173131500Y-84707750D01*
X172919833Y-84919416D01*
X172708166Y-85342750D01*
X172708166Y-85977750D01*
X172919833Y-86401083D01*
X173131500Y-86612750D01*
X173554833Y-86824416D01*
X175248166Y-86824416D01*
X170168166Y-88941083D02*
X170591500Y-88729416D01*
X170803166Y-88517750D01*
X171014833Y-88094416D01*
X171014833Y-86824416D01*
X170803166Y-86401083D01*
X170591500Y-86189416D01*
X170168166Y-85977750D01*
X169533166Y-85977750D01*
X169109833Y-86189416D01*
X168898166Y-86401083D01*
X168686500Y-86824416D01*
X168686500Y-88094416D01*
X168898166Y-88517750D01*
X169109833Y-88729416D01*
X169533166Y-88941083D01*
X170168166Y-88941083D01*
X167204833Y-85977750D02*
X166358166Y-88941083D01*
X165511500Y-86824416D01*
X164664833Y-88941083D01*
X163818166Y-85977750D01*
X160431500Y-88729416D02*
X160854833Y-88941083D01*
X161701500Y-88941083D01*
X162124833Y-88729416D01*
X162336500Y-88306083D01*
X162336500Y-86612750D01*
X162124833Y-86189416D01*
X161701500Y-85977750D01*
X160854833Y-85977750D01*
X160431500Y-86189416D01*
X160219833Y-86612750D01*
X160219833Y-87036083D01*
X162336500Y-87459416D01*
X158314833Y-88941083D02*
X158314833Y-85977750D01*
X158314833Y-86824416D02*
X158103166Y-86401083D01*
X157891500Y-86189416D01*
X157468166Y-85977750D01*
X157044833Y-85977750D01*
X174994166Y-107260833D02*
X172877500Y-107260833D01*
X175417500Y-108530833D02*
X173935833Y-104085833D01*
X172454166Y-108530833D01*
X170972500Y-108530833D02*
X170972500Y-105567500D01*
X170972500Y-106414166D02*
X170760833Y-105990833D01*
X170549166Y-105779166D01*
X170125833Y-105567500D01*
X169702500Y-105567500D01*
X168220833Y-108530833D02*
X168220833Y-105567500D01*
X168220833Y-106414166D02*
X168009166Y-105990833D01*
X167797500Y-105779166D01*
X167374166Y-105567500D01*
X166950833Y-105567500D01*
X163564166Y-108530833D02*
X163564166Y-106202500D01*
X163775833Y-105779166D01*
X164199166Y-105567500D01*
X165045833Y-105567500D01*
X165469166Y-105779166D01*
X163564166Y-108319166D02*
X163987500Y-108530833D01*
X165045833Y-108530833D01*
X165469166Y-108319166D01*
X165680833Y-107895833D01*
X165680833Y-107472500D01*
X165469166Y-107049166D01*
X165045833Y-106837500D01*
X163987500Y-106837500D01*
X163564166Y-106625833D01*
X161870833Y-105567500D02*
X160812500Y-108530833D01*
X159754166Y-105567500D02*
X160812500Y-108530833D01*
X161235833Y-109589166D01*
X161447500Y-109800833D01*
X161870833Y-110012500D01*
X171501666Y-122744250D02*
X170866666Y-122955916D01*
X170655000Y-123167583D01*
X170443333Y-123590916D01*
X170443333Y-124225916D01*
X170655000Y-124649250D01*
X170866666Y-124860916D01*
X171290000Y-125072583D01*
X172983333Y-125072583D01*
X172983333Y-120627583D01*
X171501666Y-120627583D01*
X171078333Y-120839250D01*
X170866666Y-121050916D01*
X170655000Y-121474250D01*
X170655000Y-121897583D01*
X170866666Y-122320916D01*
X171078333Y-122532583D01*
X171501666Y-122744250D01*
X172983333Y-122744250D01*
X168538333Y-125072583D02*
X168538333Y-120627583D01*
X166845000Y-120627583D01*
X166421666Y-120839250D01*
X166210000Y-121050916D01*
X165998333Y-121474250D01*
X165998333Y-122109250D01*
X166210000Y-122532583D01*
X166421666Y-122744250D01*
X166845000Y-122955916D01*
X168538333Y-122955916D01*
X164305000Y-124860916D02*
X163670000Y-125072583D01*
X162611666Y-125072583D01*
X162188333Y-124860916D01*
X161976666Y-124649250D01*
X161765000Y-124225916D01*
X161765000Y-123802583D01*
X161976666Y-123379250D01*
X162188333Y-123167583D01*
X162611666Y-122955916D01*
X163458333Y-122744250D01*
X163881666Y-122532583D01*
X164093333Y-122320916D01*
X164305000Y-121897583D01*
X164305000Y-121474250D01*
X164093333Y-121050916D01*
X163881666Y-120839250D01*
X163458333Y-120627583D01*
X162400000Y-120627583D01*
X161765000Y-120839250D01*
X173300833Y-130300750D02*
X174782500Y-130300750D01*
X174782500Y-132629083D02*
X174782500Y-128184083D01*
X172665833Y-128184083D01*
X169067500Y-132629083D02*
X169067500Y-130300750D01*
X169279166Y-129877416D01*
X169702500Y-129665750D01*
X170549166Y-129665750D01*
X170972500Y-129877416D01*
X169067500Y-132417416D02*
X169490833Y-132629083D01*
X170549166Y-132629083D01*
X170972500Y-132417416D01*
X171184166Y-131994083D01*
X171184166Y-131570750D01*
X170972500Y-131147416D01*
X170549166Y-130935750D01*
X169490833Y-130935750D01*
X169067500Y-130724083D01*
X165045833Y-129665750D02*
X165045833Y-132629083D01*
X166950833Y-129665750D02*
X166950833Y-131994083D01*
X166739166Y-132417416D01*
X166315833Y-132629083D01*
X165680833Y-132629083D01*
X165257500Y-132417416D01*
X165045833Y-132205750D01*
X162294166Y-132629083D02*
X162717500Y-132417416D01*
X162929166Y-131994083D01*
X162929166Y-128184083D01*
X161235833Y-129665750D02*
X159542500Y-129665750D01*
X160600833Y-128184083D02*
X160600833Y-131994083D01*
X160389166Y-132417416D01*
X159965833Y-132629083D01*
X159542500Y-132629083D01*
X171057166Y-57508583D02*
X173173833Y-57508583D01*
X173173833Y-53063583D01*
X167882166Y-57296916D02*
X168305500Y-57508583D01*
X169152166Y-57508583D01*
X169575500Y-57296916D01*
X169787166Y-56873583D01*
X169787166Y-55180250D01*
X169575500Y-54756916D01*
X169152166Y-54545250D01*
X168305500Y-54545250D01*
X167882166Y-54756916D01*
X167670500Y-55180250D01*
X167670500Y-55603583D01*
X169787166Y-56026916D01*
X166400500Y-54545250D02*
X164707166Y-54545250D01*
X165765500Y-57508583D02*
X165765500Y-53698583D01*
X165553833Y-53275250D01*
X165130500Y-53063583D01*
X164707166Y-53063583D01*
X163860500Y-54545250D02*
X162167166Y-54545250D01*
X163225500Y-53063583D02*
X163225500Y-56873583D01*
X163013833Y-57296916D01*
X162590500Y-57508583D01*
X162167166Y-57508583D01*
X173703000Y-62736750D02*
X173068000Y-62948416D01*
X172856333Y-63160083D01*
X172644666Y-63583416D01*
X172644666Y-64218416D01*
X172856333Y-64641750D01*
X173068000Y-64853416D01*
X173491333Y-65065083D01*
X175184666Y-65065083D01*
X175184666Y-60620083D01*
X173703000Y-60620083D01*
X173279666Y-60831750D01*
X173068000Y-61043416D01*
X172856333Y-61466750D01*
X172856333Y-61890083D01*
X173068000Y-62313416D01*
X173279666Y-62525083D01*
X173703000Y-62736750D01*
X175184666Y-62736750D01*
X170104666Y-65065083D02*
X170528000Y-64853416D01*
X170739666Y-64430083D01*
X170739666Y-60620083D01*
X168411333Y-65065083D02*
X168411333Y-62101750D01*
X168411333Y-60620083D02*
X168623000Y-60831750D01*
X168411333Y-61043416D01*
X168199666Y-60831750D01*
X168411333Y-60620083D01*
X168411333Y-61043416D01*
X166294666Y-62101750D02*
X166294666Y-65065083D01*
X166294666Y-62525083D02*
X166083000Y-62313416D01*
X165659666Y-62101750D01*
X165024666Y-62101750D01*
X164601333Y-62313416D01*
X164389666Y-62736750D01*
X164389666Y-65065083D01*
X162273000Y-65065083D02*
X162273000Y-60620083D01*
X161849666Y-63371750D02*
X160579666Y-65065083D01*
X160579666Y-62101750D02*
X162273000Y-63795083D01*
X150800666Y-81417583D02*
X150800666Y-76972583D01*
X150800666Y-79089250D02*
X148260666Y-79089250D01*
X148260666Y-81417583D02*
X148260666Y-76972583D01*
X144450666Y-81205916D02*
X144874000Y-81417583D01*
X145720666Y-81417583D01*
X146144000Y-81205916D01*
X146355666Y-80782583D01*
X146355666Y-79089250D01*
X146144000Y-78665916D01*
X145720666Y-78454250D01*
X144874000Y-78454250D01*
X144450666Y-78665916D01*
X144239000Y-79089250D01*
X144239000Y-79512583D01*
X146355666Y-79935916D01*
X140429000Y-81417583D02*
X140429000Y-79089250D01*
X140640666Y-78665916D01*
X141064000Y-78454250D01*
X141910666Y-78454250D01*
X142334000Y-78665916D01*
X140429000Y-81205916D02*
X140852333Y-81417583D01*
X141910666Y-81417583D01*
X142334000Y-81205916D01*
X142545666Y-80782583D01*
X142545666Y-80359250D01*
X142334000Y-79935916D01*
X141910666Y-79724250D01*
X140852333Y-79724250D01*
X140429000Y-79512583D01*
X136407333Y-81417583D02*
X136407333Y-76972583D01*
X136407333Y-81205916D02*
X136830666Y-81417583D01*
X137677333Y-81417583D01*
X138100666Y-81205916D01*
X138312333Y-80994250D01*
X138524000Y-80570916D01*
X138524000Y-79300916D01*
X138312333Y-78877583D01*
X138100666Y-78665916D01*
X137677333Y-78454250D01*
X136830666Y-78454250D01*
X136407333Y-78665916D01*
X150377333Y-88974083D02*
X152494000Y-88974083D01*
X152494000Y-84529083D01*
X148895666Y-88974083D02*
X148895666Y-86010750D01*
X148895666Y-84529083D02*
X149107333Y-84740750D01*
X148895666Y-84952416D01*
X148684000Y-84740750D01*
X148895666Y-84529083D01*
X148895666Y-84952416D01*
X144874000Y-86010750D02*
X144874000Y-89609083D01*
X145085666Y-90032416D01*
X145297333Y-90244083D01*
X145720666Y-90455750D01*
X146355666Y-90455750D01*
X146779000Y-90244083D01*
X144874000Y-88762416D02*
X145297333Y-88974083D01*
X146144000Y-88974083D01*
X146567333Y-88762416D01*
X146779000Y-88550750D01*
X146990666Y-88127416D01*
X146990666Y-86857416D01*
X146779000Y-86434083D01*
X146567333Y-86222416D01*
X146144000Y-86010750D01*
X145297333Y-86010750D01*
X144874000Y-86222416D01*
X142757333Y-88974083D02*
X142757333Y-84529083D01*
X140852333Y-88974083D02*
X140852333Y-86645750D01*
X141064000Y-86222416D01*
X141487333Y-86010750D01*
X142122333Y-86010750D01*
X142545666Y-86222416D01*
X142757333Y-86434083D01*
X139370666Y-86010750D02*
X137677333Y-86010750D01*
X138735666Y-84529083D02*
X138735666Y-88339083D01*
X138524000Y-88762416D01*
X138100666Y-88974083D01*
X137677333Y-88974083D01*
X136407333Y-88762416D02*
X135984000Y-88974083D01*
X135137333Y-88974083D01*
X134714000Y-88762416D01*
X134502333Y-88339083D01*
X134502333Y-88127416D01*
X134714000Y-87704083D01*
X135137333Y-87492416D01*
X135772333Y-87492416D01*
X136195666Y-87280750D01*
X136407333Y-86857416D01*
X136407333Y-86645750D01*
X136195666Y-86222416D01*
X135772333Y-86010750D01*
X135137333Y-86010750D01*
X134714000Y-86222416D01*
D12*
X151990800Y-153623200D02*
G75*
G03X151990800Y-153623200I-76200J0D01*
G01*
X149082500Y-160402250D02*
X149082500Y-155327750D01*
X154746700Y-155327750D02*
X154746700Y-160402250D01*
D13*
X159259000Y-150279000D02*
X156574000Y-150279000D01*
X159259000Y-148359000D02*
X159259000Y-150279000D01*
X156574000Y-148359000D02*
X159259000Y-148359000D01*
X144578000Y-111881132D02*
X141893000Y-111881132D01*
X141893000Y-111881132D02*
X141893000Y-109961132D01*
X141893000Y-109961132D02*
X144578000Y-109961132D01*
X144600000Y-68560000D02*
X141915000Y-68560000D01*
X141915000Y-68560000D02*
X141915000Y-66640000D01*
X141915000Y-66640000D02*
X144600000Y-66640000D01*
X144578000Y-136097700D02*
X141893000Y-136097700D01*
X141893000Y-136097700D02*
X141893000Y-134177700D01*
X141893000Y-134177700D02*
X144578000Y-134177700D01*
X144578000Y-92744566D02*
X141893000Y-92744566D01*
X141893000Y-92744566D02*
X141893000Y-90824566D01*
X141893000Y-90824566D02*
X144578000Y-90824566D01*
X166277000Y-109961132D02*
X168962000Y-109961132D01*
X166277000Y-111881132D02*
X166277000Y-109961132D01*
X168962000Y-111881132D02*
X166277000Y-111881132D01*
X166277000Y-134211200D02*
X168962000Y-134211200D01*
X166277000Y-136131200D02*
X166277000Y-134211200D01*
X168962000Y-136131200D02*
X166277000Y-136131200D01*
X168962000Y-68528000D02*
X166277000Y-68528000D01*
X166277000Y-68528000D02*
X166277000Y-66608000D01*
X166277000Y-66608000D02*
X168962000Y-66608000D01*
X166277000Y-90824566D02*
X168962000Y-90824566D01*
X166277000Y-92744566D02*
X166277000Y-90824566D01*
X168962000Y-92744566D02*
X166277000Y-92744566D01*
D14*
X156191266Y-158337542D02*
X156238885Y-158385161D01*
X156381742Y-158432780D01*
X156476980Y-158432780D01*
X156619838Y-158385161D01*
X156715076Y-158289923D01*
X156762695Y-158194685D01*
X156810314Y-158004209D01*
X156810314Y-157861352D01*
X156762695Y-157670876D01*
X156715076Y-157575638D01*
X156619838Y-157480400D01*
X156476980Y-157432780D01*
X156381742Y-157432780D01*
X156238885Y-157480400D01*
X156191266Y-157528019D01*
X155857933Y-157432780D02*
X155238885Y-157432780D01*
X155572219Y-157813733D01*
X155429361Y-157813733D01*
X155334123Y-157861352D01*
X155286504Y-157908971D01*
X155238885Y-158004209D01*
X155238885Y-158242304D01*
X155286504Y-158337542D01*
X155334123Y-158385161D01*
X155429361Y-158432780D01*
X155715076Y-158432780D01*
X155810314Y-158385161D01*
X155857933Y-158337542D01*
X155740380Y-148580904D02*
X154740380Y-148580904D01*
X154740380Y-148819000D01*
X154788000Y-148961857D01*
X154883238Y-149057095D01*
X154978476Y-149104714D01*
X155168952Y-149152333D01*
X155311809Y-149152333D01*
X155502285Y-149104714D01*
X155597523Y-149057095D01*
X155692761Y-148961857D01*
X155740380Y-148819000D01*
X155740380Y-148580904D01*
X155740380Y-150104714D02*
X155740380Y-149533285D01*
X155740380Y-149819000D02*
X154740380Y-149819000D01*
X154883238Y-149723761D01*
X154978476Y-149628523D01*
X155026095Y-149533285D01*
X141592880Y-109706846D02*
X140592880Y-109706846D01*
X140592880Y-109944941D01*
X140640500Y-110087798D01*
X140735738Y-110183036D01*
X140830976Y-110230655D01*
X141021452Y-110278274D01*
X141164309Y-110278274D01*
X141354785Y-110230655D01*
X141450023Y-110183036D01*
X141545261Y-110087798D01*
X141592880Y-109944941D01*
X141592880Y-109706846D01*
X141592880Y-111230655D02*
X141592880Y-110659227D01*
X141592880Y-110944941D02*
X140592880Y-110944941D01*
X140735738Y-110849703D01*
X140830976Y-110754465D01*
X140878595Y-110659227D01*
X140592880Y-111849703D02*
X140592880Y-111944941D01*
X140640500Y-112040179D01*
X140688119Y-112087798D01*
X140783357Y-112135417D01*
X140973833Y-112183036D01*
X141211928Y-112183036D01*
X141402404Y-112135417D01*
X141497642Y-112087798D01*
X141545261Y-112040179D01*
X141592880Y-111944941D01*
X141592880Y-111849703D01*
X141545261Y-111754465D01*
X141497642Y-111706846D01*
X141402404Y-111659227D01*
X141211928Y-111611608D01*
X140973833Y-111611608D01*
X140783357Y-111659227D01*
X140688119Y-111706846D01*
X140640500Y-111754465D01*
X140592880Y-111849703D01*
X141614880Y-66861904D02*
X140614880Y-66861904D01*
X140614880Y-67100000D01*
X140662500Y-67242857D01*
X140757738Y-67338095D01*
X140852976Y-67385714D01*
X141043452Y-67433333D01*
X141186309Y-67433333D01*
X141376785Y-67385714D01*
X141472023Y-67338095D01*
X141567261Y-67242857D01*
X141614880Y-67100000D01*
X141614880Y-66861904D01*
X140614880Y-67766666D02*
X140614880Y-68433333D01*
X141614880Y-68004761D01*
X141592880Y-134399604D02*
X140592880Y-134399604D01*
X140592880Y-134637700D01*
X140640500Y-134780557D01*
X140735738Y-134875795D01*
X140830976Y-134923414D01*
X141021452Y-134971033D01*
X141164309Y-134971033D01*
X141354785Y-134923414D01*
X141450023Y-134875795D01*
X141545261Y-134780557D01*
X141592880Y-134637700D01*
X141592880Y-134399604D01*
X141021452Y-135542461D02*
X140973833Y-135447223D01*
X140926214Y-135399604D01*
X140830976Y-135351985D01*
X140783357Y-135351985D01*
X140688119Y-135399604D01*
X140640500Y-135447223D01*
X140592880Y-135542461D01*
X140592880Y-135732938D01*
X140640500Y-135828176D01*
X140688119Y-135875795D01*
X140783357Y-135923414D01*
X140830976Y-135923414D01*
X140926214Y-135875795D01*
X140973833Y-135828176D01*
X141021452Y-135732938D01*
X141021452Y-135542461D01*
X141069071Y-135447223D01*
X141116690Y-135399604D01*
X141211928Y-135351985D01*
X141402404Y-135351985D01*
X141497642Y-135399604D01*
X141545261Y-135447223D01*
X141592880Y-135542461D01*
X141592880Y-135732938D01*
X141545261Y-135828176D01*
X141497642Y-135875795D01*
X141402404Y-135923414D01*
X141211928Y-135923414D01*
X141116690Y-135875795D01*
X141069071Y-135828176D01*
X141021452Y-135732938D01*
X141592880Y-91046470D02*
X140592880Y-91046470D01*
X140592880Y-91284566D01*
X140640500Y-91427423D01*
X140735738Y-91522661D01*
X140830976Y-91570280D01*
X141021452Y-91617899D01*
X141164309Y-91617899D01*
X141354785Y-91570280D01*
X141450023Y-91522661D01*
X141545261Y-91427423D01*
X141592880Y-91284566D01*
X141592880Y-91046470D01*
X140592880Y-92475042D02*
X140592880Y-92284566D01*
X140640500Y-92189327D01*
X140688119Y-92141708D01*
X140830976Y-92046470D01*
X141021452Y-91998851D01*
X141402404Y-91998851D01*
X141497642Y-92046470D01*
X141545261Y-92094089D01*
X141592880Y-92189327D01*
X141592880Y-92379804D01*
X141545261Y-92475042D01*
X141497642Y-92522661D01*
X141402404Y-92570280D01*
X141164309Y-92570280D01*
X141069071Y-92522661D01*
X141021452Y-92475042D01*
X140973833Y-92379804D01*
X140973833Y-92189327D01*
X141021452Y-92094089D01*
X141069071Y-92046470D01*
X141164309Y-91998851D01*
X165976880Y-110183036D02*
X164976880Y-110183036D01*
X164976880Y-110421132D01*
X165024500Y-110563989D01*
X165119738Y-110659227D01*
X165214976Y-110706846D01*
X165405452Y-110754465D01*
X165548309Y-110754465D01*
X165738785Y-110706846D01*
X165834023Y-110659227D01*
X165929261Y-110563989D01*
X165976880Y-110421132D01*
X165976880Y-110183036D01*
X164976880Y-111659227D02*
X164976880Y-111183036D01*
X165453071Y-111135417D01*
X165405452Y-111183036D01*
X165357833Y-111278274D01*
X165357833Y-111516370D01*
X165405452Y-111611608D01*
X165453071Y-111659227D01*
X165548309Y-111706846D01*
X165786404Y-111706846D01*
X165881642Y-111659227D01*
X165929261Y-111611608D01*
X165976880Y-111516370D01*
X165976880Y-111278274D01*
X165929261Y-111183036D01*
X165881642Y-111135417D01*
X165976880Y-134433104D02*
X164976880Y-134433104D01*
X164976880Y-134671200D01*
X165024500Y-134814057D01*
X165119738Y-134909295D01*
X165214976Y-134956914D01*
X165405452Y-135004533D01*
X165548309Y-135004533D01*
X165738785Y-134956914D01*
X165834023Y-134909295D01*
X165929261Y-134814057D01*
X165976880Y-134671200D01*
X165976880Y-134433104D01*
X165310214Y-135861676D02*
X165976880Y-135861676D01*
X164929261Y-135623580D02*
X165643547Y-135385485D01*
X165643547Y-136004533D01*
X165976880Y-66829904D02*
X164976880Y-66829904D01*
X164976880Y-67068000D01*
X165024500Y-67210857D01*
X165119738Y-67306095D01*
X165214976Y-67353714D01*
X165405452Y-67401333D01*
X165548309Y-67401333D01*
X165738785Y-67353714D01*
X165834023Y-67306095D01*
X165929261Y-67210857D01*
X165976880Y-67068000D01*
X165976880Y-66829904D01*
X164976880Y-67734666D02*
X164976880Y-68353714D01*
X165357833Y-68020380D01*
X165357833Y-68163238D01*
X165405452Y-68258476D01*
X165453071Y-68306095D01*
X165548309Y-68353714D01*
X165786404Y-68353714D01*
X165881642Y-68306095D01*
X165929261Y-68258476D01*
X165976880Y-68163238D01*
X165976880Y-67877523D01*
X165929261Y-67782285D01*
X165881642Y-67734666D01*
X165976880Y-91046470D02*
X164976880Y-91046470D01*
X164976880Y-91284566D01*
X165024500Y-91427423D01*
X165119738Y-91522661D01*
X165214976Y-91570280D01*
X165405452Y-91617899D01*
X165548309Y-91617899D01*
X165738785Y-91570280D01*
X165834023Y-91522661D01*
X165929261Y-91427423D01*
X165976880Y-91284566D01*
X165976880Y-91046470D01*
X165072119Y-91998851D02*
X165024500Y-92046470D01*
X164976880Y-92141708D01*
X164976880Y-92379804D01*
X165024500Y-92475042D01*
X165072119Y-92522661D01*
X165167357Y-92570280D01*
X165262595Y-92570280D01*
X165405452Y-92522661D01*
X165976880Y-91951232D01*
X165976880Y-92570280D01*
M02*
