G04 #@! TF.GenerationSoftware,KiCad,Pcbnew,(5.1.5)-3*
G04 #@! TF.CreationDate,2021-11-23T22:40:54-06:00*
G04 #@! TF.ProjectId,Controls-LightingPCB,436f6e74-726f-46c7-932d-4c6967687469,rev?*
G04 #@! TF.SameCoordinates,Original*
G04 #@! TF.FileFunction,Copper,L2,Bot*
G04 #@! TF.FilePolarity,Positive*
%FSLAX46Y46*%
G04 Gerber Fmt 4.6, Leading zero omitted, Abs format (unit mm)*
G04 Created by KiCad (PCBNEW (5.1.5)-3) date 2021-11-23 22:40:54*
%MOMM*%
%LPD*%
G04 APERTURE LIST*
%ADD10C,0.100000*%
%ADD11O,1.500000X2.020000*%
%ADD12O,2.020000X1.500000*%
%ADD13C,0.800000*%
%ADD14C,0.250000*%
%ADD15C,0.254000*%
G04 APERTURE END LIST*
G04 #@! TA.AperFunction,SMDPad,CuDef*
D10*
G36*
X156405142Y-148601174D02*
G01*
X156428803Y-148604684D01*
X156452007Y-148610496D01*
X156474529Y-148618554D01*
X156496153Y-148628782D01*
X156516670Y-148641079D01*
X156535883Y-148655329D01*
X156553607Y-148671393D01*
X156569671Y-148689117D01*
X156583921Y-148708330D01*
X156596218Y-148728847D01*
X156606446Y-148750471D01*
X156614504Y-148772993D01*
X156620316Y-148796197D01*
X156623826Y-148819858D01*
X156625000Y-148843750D01*
X156625000Y-149756250D01*
X156623826Y-149780142D01*
X156620316Y-149803803D01*
X156614504Y-149827007D01*
X156606446Y-149849529D01*
X156596218Y-149871153D01*
X156583921Y-149891670D01*
X156569671Y-149910883D01*
X156553607Y-149928607D01*
X156535883Y-149944671D01*
X156516670Y-149958921D01*
X156496153Y-149971218D01*
X156474529Y-149981446D01*
X156452007Y-149989504D01*
X156428803Y-149995316D01*
X156405142Y-149998826D01*
X156381250Y-150000000D01*
X155893750Y-150000000D01*
X155869858Y-149998826D01*
X155846197Y-149995316D01*
X155822993Y-149989504D01*
X155800471Y-149981446D01*
X155778847Y-149971218D01*
X155758330Y-149958921D01*
X155739117Y-149944671D01*
X155721393Y-149928607D01*
X155705329Y-149910883D01*
X155691079Y-149891670D01*
X155678782Y-149871153D01*
X155668554Y-149849529D01*
X155660496Y-149827007D01*
X155654684Y-149803803D01*
X155651174Y-149780142D01*
X155650000Y-149756250D01*
X155650000Y-148843750D01*
X155651174Y-148819858D01*
X155654684Y-148796197D01*
X155660496Y-148772993D01*
X155668554Y-148750471D01*
X155678782Y-148728847D01*
X155691079Y-148708330D01*
X155705329Y-148689117D01*
X155721393Y-148671393D01*
X155739117Y-148655329D01*
X155758330Y-148641079D01*
X155778847Y-148628782D01*
X155800471Y-148618554D01*
X155822993Y-148610496D01*
X155846197Y-148604684D01*
X155869858Y-148601174D01*
X155893750Y-148600000D01*
X156381250Y-148600000D01*
X156405142Y-148601174D01*
G37*
G04 #@! TD.AperFunction*
G04 #@! TA.AperFunction,SMDPad,CuDef*
G36*
X154530142Y-148601174D02*
G01*
X154553803Y-148604684D01*
X154577007Y-148610496D01*
X154599529Y-148618554D01*
X154621153Y-148628782D01*
X154641670Y-148641079D01*
X154660883Y-148655329D01*
X154678607Y-148671393D01*
X154694671Y-148689117D01*
X154708921Y-148708330D01*
X154721218Y-148728847D01*
X154731446Y-148750471D01*
X154739504Y-148772993D01*
X154745316Y-148796197D01*
X154748826Y-148819858D01*
X154750000Y-148843750D01*
X154750000Y-149756250D01*
X154748826Y-149780142D01*
X154745316Y-149803803D01*
X154739504Y-149827007D01*
X154731446Y-149849529D01*
X154721218Y-149871153D01*
X154708921Y-149891670D01*
X154694671Y-149910883D01*
X154678607Y-149928607D01*
X154660883Y-149944671D01*
X154641670Y-149958921D01*
X154621153Y-149971218D01*
X154599529Y-149981446D01*
X154577007Y-149989504D01*
X154553803Y-149995316D01*
X154530142Y-149998826D01*
X154506250Y-150000000D01*
X154018750Y-150000000D01*
X153994858Y-149998826D01*
X153971197Y-149995316D01*
X153947993Y-149989504D01*
X153925471Y-149981446D01*
X153903847Y-149971218D01*
X153883330Y-149958921D01*
X153864117Y-149944671D01*
X153846393Y-149928607D01*
X153830329Y-149910883D01*
X153816079Y-149891670D01*
X153803782Y-149871153D01*
X153793554Y-149849529D01*
X153785496Y-149827007D01*
X153779684Y-149803803D01*
X153776174Y-149780142D01*
X153775000Y-149756250D01*
X153775000Y-148843750D01*
X153776174Y-148819858D01*
X153779684Y-148796197D01*
X153785496Y-148772993D01*
X153793554Y-148750471D01*
X153803782Y-148728847D01*
X153816079Y-148708330D01*
X153830329Y-148689117D01*
X153846393Y-148671393D01*
X153864117Y-148655329D01*
X153883330Y-148641079D01*
X153903847Y-148628782D01*
X153925471Y-148618554D01*
X153947993Y-148610496D01*
X153971197Y-148604684D01*
X153994858Y-148601174D01*
X154018750Y-148600000D01*
X154506250Y-148600000D01*
X154530142Y-148601174D01*
G37*
G04 #@! TD.AperFunction*
G04 #@! TA.AperFunction,ComponentPad*
G36*
X170163504Y-151993204D02*
G01*
X170187773Y-151996804D01*
X170211571Y-152002765D01*
X170234671Y-152011030D01*
X170256849Y-152021520D01*
X170277893Y-152034133D01*
X170297598Y-152048747D01*
X170315777Y-152065223D01*
X170332253Y-152083402D01*
X170346867Y-152103107D01*
X170359480Y-152124151D01*
X170369970Y-152146329D01*
X170378235Y-152169429D01*
X170384196Y-152193227D01*
X170387796Y-152217496D01*
X170389000Y-152242000D01*
X170389000Y-153762000D01*
X170387796Y-153786504D01*
X170384196Y-153810773D01*
X170378235Y-153834571D01*
X170369970Y-153857671D01*
X170359480Y-153879849D01*
X170346867Y-153900893D01*
X170332253Y-153920598D01*
X170315777Y-153938777D01*
X170297598Y-153955253D01*
X170277893Y-153969867D01*
X170256849Y-153982480D01*
X170234671Y-153992970D01*
X170211571Y-154001235D01*
X170187773Y-154007196D01*
X170163504Y-154010796D01*
X170139000Y-154012000D01*
X169139000Y-154012000D01*
X169114496Y-154010796D01*
X169090227Y-154007196D01*
X169066429Y-154001235D01*
X169043329Y-153992970D01*
X169021151Y-153982480D01*
X169000107Y-153969867D01*
X168980402Y-153955253D01*
X168962223Y-153938777D01*
X168945747Y-153920598D01*
X168931133Y-153900893D01*
X168918520Y-153879849D01*
X168908030Y-153857671D01*
X168899765Y-153834571D01*
X168893804Y-153810773D01*
X168890204Y-153786504D01*
X168889000Y-153762000D01*
X168889000Y-152242000D01*
X168890204Y-152217496D01*
X168893804Y-152193227D01*
X168899765Y-152169429D01*
X168908030Y-152146329D01*
X168918520Y-152124151D01*
X168931133Y-152103107D01*
X168945747Y-152083402D01*
X168962223Y-152065223D01*
X168980402Y-152048747D01*
X169000107Y-152034133D01*
X169021151Y-152021520D01*
X169043329Y-152011030D01*
X169066429Y-152002765D01*
X169090227Y-151996804D01*
X169114496Y-151993204D01*
X169139000Y-151992000D01*
X170139000Y-151992000D01*
X170163504Y-151993204D01*
G37*
G04 #@! TD.AperFunction*
D11*
X166639000Y-153002000D03*
X163639000Y-153002000D03*
X160639000Y-153002000D03*
X157639000Y-153002000D03*
X154639000Y-153002000D03*
X151639000Y-153002000D03*
X148639000Y-153002000D03*
X145639000Y-153002000D03*
G04 #@! TA.AperFunction,SMDPad,CuDef*
D10*
G36*
X142908142Y-134438874D02*
G01*
X142931803Y-134442384D01*
X142955007Y-134448196D01*
X142977529Y-134456254D01*
X142999153Y-134466482D01*
X143019670Y-134478779D01*
X143038883Y-134493029D01*
X143056607Y-134509093D01*
X143072671Y-134526817D01*
X143086921Y-134546030D01*
X143099218Y-134566547D01*
X143109446Y-134588171D01*
X143117504Y-134610693D01*
X143123316Y-134633897D01*
X143126826Y-134657558D01*
X143128000Y-134681450D01*
X143128000Y-135593950D01*
X143126826Y-135617842D01*
X143123316Y-135641503D01*
X143117504Y-135664707D01*
X143109446Y-135687229D01*
X143099218Y-135708853D01*
X143086921Y-135729370D01*
X143072671Y-135748583D01*
X143056607Y-135766307D01*
X143038883Y-135782371D01*
X143019670Y-135796621D01*
X142999153Y-135808918D01*
X142977529Y-135819146D01*
X142955007Y-135827204D01*
X142931803Y-135833016D01*
X142908142Y-135836526D01*
X142884250Y-135837700D01*
X142396750Y-135837700D01*
X142372858Y-135836526D01*
X142349197Y-135833016D01*
X142325993Y-135827204D01*
X142303471Y-135819146D01*
X142281847Y-135808918D01*
X142261330Y-135796621D01*
X142242117Y-135782371D01*
X142224393Y-135766307D01*
X142208329Y-135748583D01*
X142194079Y-135729370D01*
X142181782Y-135708853D01*
X142171554Y-135687229D01*
X142163496Y-135664707D01*
X142157684Y-135641503D01*
X142154174Y-135617842D01*
X142153000Y-135593950D01*
X142153000Y-134681450D01*
X142154174Y-134657558D01*
X142157684Y-134633897D01*
X142163496Y-134610693D01*
X142171554Y-134588171D01*
X142181782Y-134566547D01*
X142194079Y-134546030D01*
X142208329Y-134526817D01*
X142224393Y-134509093D01*
X142242117Y-134493029D01*
X142261330Y-134478779D01*
X142281847Y-134466482D01*
X142303471Y-134456254D01*
X142325993Y-134448196D01*
X142349197Y-134442384D01*
X142372858Y-134438874D01*
X142396750Y-134437700D01*
X142884250Y-134437700D01*
X142908142Y-134438874D01*
G37*
G04 #@! TD.AperFunction*
G04 #@! TA.AperFunction,SMDPad,CuDef*
G36*
X144783142Y-134438874D02*
G01*
X144806803Y-134442384D01*
X144830007Y-134448196D01*
X144852529Y-134456254D01*
X144874153Y-134466482D01*
X144894670Y-134478779D01*
X144913883Y-134493029D01*
X144931607Y-134509093D01*
X144947671Y-134526817D01*
X144961921Y-134546030D01*
X144974218Y-134566547D01*
X144984446Y-134588171D01*
X144992504Y-134610693D01*
X144998316Y-134633897D01*
X145001826Y-134657558D01*
X145003000Y-134681450D01*
X145003000Y-135593950D01*
X145001826Y-135617842D01*
X144998316Y-135641503D01*
X144992504Y-135664707D01*
X144984446Y-135687229D01*
X144974218Y-135708853D01*
X144961921Y-135729370D01*
X144947671Y-135748583D01*
X144931607Y-135766307D01*
X144913883Y-135782371D01*
X144894670Y-135796621D01*
X144874153Y-135808918D01*
X144852529Y-135819146D01*
X144830007Y-135827204D01*
X144806803Y-135833016D01*
X144783142Y-135836526D01*
X144759250Y-135837700D01*
X144271750Y-135837700D01*
X144247858Y-135836526D01*
X144224197Y-135833016D01*
X144200993Y-135827204D01*
X144178471Y-135819146D01*
X144156847Y-135808918D01*
X144136330Y-135796621D01*
X144117117Y-135782371D01*
X144099393Y-135766307D01*
X144083329Y-135748583D01*
X144069079Y-135729370D01*
X144056782Y-135708853D01*
X144046554Y-135687229D01*
X144038496Y-135664707D01*
X144032684Y-135641503D01*
X144029174Y-135617842D01*
X144028000Y-135593950D01*
X144028000Y-134681450D01*
X144029174Y-134657558D01*
X144032684Y-134633897D01*
X144038496Y-134610693D01*
X144046554Y-134588171D01*
X144056782Y-134566547D01*
X144069079Y-134546030D01*
X144083329Y-134526817D01*
X144099393Y-134509093D01*
X144117117Y-134493029D01*
X144136330Y-134478779D01*
X144156847Y-134466482D01*
X144178471Y-134456254D01*
X144200993Y-134448196D01*
X144224197Y-134442384D01*
X144247858Y-134438874D01*
X144271750Y-134437700D01*
X144759250Y-134437700D01*
X144783142Y-134438874D01*
G37*
G04 #@! TD.AperFunction*
G04 #@! TA.AperFunction,ComponentPad*
G36*
X178632504Y-102101204D02*
G01*
X178656773Y-102104804D01*
X178680571Y-102110765D01*
X178703671Y-102119030D01*
X178725849Y-102129520D01*
X178746893Y-102142133D01*
X178766598Y-102156747D01*
X178784777Y-102173223D01*
X178801253Y-102191402D01*
X178815867Y-102211107D01*
X178828480Y-102232151D01*
X178838970Y-102254329D01*
X178847235Y-102277429D01*
X178853196Y-102301227D01*
X178856796Y-102325496D01*
X178858000Y-102350000D01*
X178858000Y-103350000D01*
X178856796Y-103374504D01*
X178853196Y-103398773D01*
X178847235Y-103422571D01*
X178838970Y-103445671D01*
X178828480Y-103467849D01*
X178815867Y-103488893D01*
X178801253Y-103508598D01*
X178784777Y-103526777D01*
X178766598Y-103543253D01*
X178746893Y-103557867D01*
X178725849Y-103570480D01*
X178703671Y-103580970D01*
X178680571Y-103589235D01*
X178656773Y-103595196D01*
X178632504Y-103598796D01*
X178608000Y-103600000D01*
X177088000Y-103600000D01*
X177063496Y-103598796D01*
X177039227Y-103595196D01*
X177015429Y-103589235D01*
X176992329Y-103580970D01*
X176970151Y-103570480D01*
X176949107Y-103557867D01*
X176929402Y-103543253D01*
X176911223Y-103526777D01*
X176894747Y-103508598D01*
X176880133Y-103488893D01*
X176867520Y-103467849D01*
X176857030Y-103445671D01*
X176848765Y-103422571D01*
X176842804Y-103398773D01*
X176839204Y-103374504D01*
X176838000Y-103350000D01*
X176838000Y-102350000D01*
X176839204Y-102325496D01*
X176842804Y-102301227D01*
X176848765Y-102277429D01*
X176857030Y-102254329D01*
X176867520Y-102232151D01*
X176880133Y-102211107D01*
X176894747Y-102191402D01*
X176911223Y-102173223D01*
X176929402Y-102156747D01*
X176949107Y-102142133D01*
X176970151Y-102129520D01*
X176992329Y-102119030D01*
X177015429Y-102110765D01*
X177039227Y-102104804D01*
X177063496Y-102101204D01*
X177088000Y-102100000D01*
X178608000Y-102100000D01*
X178632504Y-102101204D01*
G37*
G04 #@! TD.AperFunction*
D12*
X177848000Y-105850000D03*
G04 #@! TA.AperFunction,ComponentPad*
D10*
G36*
X134634904Y-125066737D02*
G01*
X134659173Y-125070337D01*
X134682971Y-125076298D01*
X134706071Y-125084563D01*
X134728249Y-125095053D01*
X134749293Y-125107666D01*
X134768998Y-125122280D01*
X134787177Y-125138756D01*
X134803653Y-125156935D01*
X134818267Y-125176640D01*
X134830880Y-125197684D01*
X134841370Y-125219862D01*
X134849635Y-125242962D01*
X134855596Y-125266760D01*
X134859196Y-125291029D01*
X134860400Y-125315533D01*
X134860400Y-126315533D01*
X134859196Y-126340037D01*
X134855596Y-126364306D01*
X134849635Y-126388104D01*
X134841370Y-126411204D01*
X134830880Y-126433382D01*
X134818267Y-126454426D01*
X134803653Y-126474131D01*
X134787177Y-126492310D01*
X134768998Y-126508786D01*
X134749293Y-126523400D01*
X134728249Y-126536013D01*
X134706071Y-126546503D01*
X134682971Y-126554768D01*
X134659173Y-126560729D01*
X134634904Y-126564329D01*
X134610400Y-126565533D01*
X133090400Y-126565533D01*
X133065896Y-126564329D01*
X133041627Y-126560729D01*
X133017829Y-126554768D01*
X132994729Y-126546503D01*
X132972551Y-126536013D01*
X132951507Y-126523400D01*
X132931802Y-126508786D01*
X132913623Y-126492310D01*
X132897147Y-126474131D01*
X132882533Y-126454426D01*
X132869920Y-126433382D01*
X132859430Y-126411204D01*
X132851165Y-126388104D01*
X132845204Y-126364306D01*
X132841604Y-126340037D01*
X132840400Y-126315533D01*
X132840400Y-125315533D01*
X132841604Y-125291029D01*
X132845204Y-125266760D01*
X132851165Y-125242962D01*
X132859430Y-125219862D01*
X132869920Y-125197684D01*
X132882533Y-125176640D01*
X132897147Y-125156935D01*
X132913623Y-125138756D01*
X132931802Y-125122280D01*
X132951507Y-125107666D01*
X132972551Y-125095053D01*
X132994729Y-125084563D01*
X133017829Y-125076298D01*
X133041627Y-125070337D01*
X133065896Y-125066737D01*
X133090400Y-125065533D01*
X134610400Y-125065533D01*
X134634904Y-125066737D01*
G37*
G04 #@! TD.AperFunction*
D12*
X133850400Y-122815533D03*
G04 #@! TA.AperFunction,ComponentPad*
D10*
G36*
X178632504Y-88373204D02*
G01*
X178656773Y-88376804D01*
X178680571Y-88382765D01*
X178703671Y-88391030D01*
X178725849Y-88401520D01*
X178746893Y-88414133D01*
X178766598Y-88428747D01*
X178784777Y-88445223D01*
X178801253Y-88463402D01*
X178815867Y-88483107D01*
X178828480Y-88504151D01*
X178838970Y-88526329D01*
X178847235Y-88549429D01*
X178853196Y-88573227D01*
X178856796Y-88597496D01*
X178858000Y-88622000D01*
X178858000Y-89622000D01*
X178856796Y-89646504D01*
X178853196Y-89670773D01*
X178847235Y-89694571D01*
X178838970Y-89717671D01*
X178828480Y-89739849D01*
X178815867Y-89760893D01*
X178801253Y-89780598D01*
X178784777Y-89798777D01*
X178766598Y-89815253D01*
X178746893Y-89829867D01*
X178725849Y-89842480D01*
X178703671Y-89852970D01*
X178680571Y-89861235D01*
X178656773Y-89867196D01*
X178632504Y-89870796D01*
X178608000Y-89872000D01*
X177088000Y-89872000D01*
X177063496Y-89870796D01*
X177039227Y-89867196D01*
X177015429Y-89861235D01*
X176992329Y-89852970D01*
X176970151Y-89842480D01*
X176949107Y-89829867D01*
X176929402Y-89815253D01*
X176911223Y-89798777D01*
X176894747Y-89780598D01*
X176880133Y-89760893D01*
X176867520Y-89739849D01*
X176857030Y-89717671D01*
X176848765Y-89694571D01*
X176842804Y-89670773D01*
X176839204Y-89646504D01*
X176838000Y-89622000D01*
X176838000Y-88622000D01*
X176839204Y-88597496D01*
X176842804Y-88573227D01*
X176848765Y-88549429D01*
X176857030Y-88526329D01*
X176867520Y-88504151D01*
X176880133Y-88483107D01*
X176894747Y-88463402D01*
X176911223Y-88445223D01*
X176929402Y-88428747D01*
X176949107Y-88414133D01*
X176970151Y-88401520D01*
X176992329Y-88391030D01*
X177015429Y-88382765D01*
X177039227Y-88376804D01*
X177063496Y-88373204D01*
X177088000Y-88372000D01*
X178608000Y-88372000D01*
X178632504Y-88373204D01*
G37*
G04 #@! TD.AperFunction*
D12*
X177848000Y-92122000D03*
G04 #@! TA.AperFunction,ComponentPad*
D10*
G36*
X178632504Y-115829204D02*
G01*
X178656773Y-115832804D01*
X178680571Y-115838765D01*
X178703671Y-115847030D01*
X178725849Y-115857520D01*
X178746893Y-115870133D01*
X178766598Y-115884747D01*
X178784777Y-115901223D01*
X178801253Y-115919402D01*
X178815867Y-115939107D01*
X178828480Y-115960151D01*
X178838970Y-115982329D01*
X178847235Y-116005429D01*
X178853196Y-116029227D01*
X178856796Y-116053496D01*
X178858000Y-116078000D01*
X178858000Y-117078000D01*
X178856796Y-117102504D01*
X178853196Y-117126773D01*
X178847235Y-117150571D01*
X178838970Y-117173671D01*
X178828480Y-117195849D01*
X178815867Y-117216893D01*
X178801253Y-117236598D01*
X178784777Y-117254777D01*
X178766598Y-117271253D01*
X178746893Y-117285867D01*
X178725849Y-117298480D01*
X178703671Y-117308970D01*
X178680571Y-117317235D01*
X178656773Y-117323196D01*
X178632504Y-117326796D01*
X178608000Y-117328000D01*
X177088000Y-117328000D01*
X177063496Y-117326796D01*
X177039227Y-117323196D01*
X177015429Y-117317235D01*
X176992329Y-117308970D01*
X176970151Y-117298480D01*
X176949107Y-117285867D01*
X176929402Y-117271253D01*
X176911223Y-117254777D01*
X176894747Y-117236598D01*
X176880133Y-117216893D01*
X176867520Y-117195849D01*
X176857030Y-117173671D01*
X176848765Y-117150571D01*
X176842804Y-117126773D01*
X176839204Y-117102504D01*
X176838000Y-117078000D01*
X176838000Y-116078000D01*
X176839204Y-116053496D01*
X176842804Y-116029227D01*
X176848765Y-116005429D01*
X176857030Y-115982329D01*
X176867520Y-115960151D01*
X176880133Y-115939107D01*
X176894747Y-115919402D01*
X176911223Y-115901223D01*
X176929402Y-115884747D01*
X176949107Y-115870133D01*
X176970151Y-115857520D01*
X176992329Y-115847030D01*
X177015429Y-115838765D01*
X177039227Y-115832804D01*
X177063496Y-115829204D01*
X177088000Y-115828000D01*
X178608000Y-115828000D01*
X178632504Y-115829204D01*
G37*
G04 #@! TD.AperFunction*
D12*
X177848000Y-119578000D03*
G04 #@! TA.AperFunction,ComponentPad*
D10*
G36*
X178632504Y-129557204D02*
G01*
X178656773Y-129560804D01*
X178680571Y-129566765D01*
X178703671Y-129575030D01*
X178725849Y-129585520D01*
X178746893Y-129598133D01*
X178766598Y-129612747D01*
X178784777Y-129629223D01*
X178801253Y-129647402D01*
X178815867Y-129667107D01*
X178828480Y-129688151D01*
X178838970Y-129710329D01*
X178847235Y-129733429D01*
X178853196Y-129757227D01*
X178856796Y-129781496D01*
X178858000Y-129806000D01*
X178858000Y-130806000D01*
X178856796Y-130830504D01*
X178853196Y-130854773D01*
X178847235Y-130878571D01*
X178838970Y-130901671D01*
X178828480Y-130923849D01*
X178815867Y-130944893D01*
X178801253Y-130964598D01*
X178784777Y-130982777D01*
X178766598Y-130999253D01*
X178746893Y-131013867D01*
X178725849Y-131026480D01*
X178703671Y-131036970D01*
X178680571Y-131045235D01*
X178656773Y-131051196D01*
X178632504Y-131054796D01*
X178608000Y-131056000D01*
X177088000Y-131056000D01*
X177063496Y-131054796D01*
X177039227Y-131051196D01*
X177015429Y-131045235D01*
X176992329Y-131036970D01*
X176970151Y-131026480D01*
X176949107Y-131013867D01*
X176929402Y-130999253D01*
X176911223Y-130982777D01*
X176894747Y-130964598D01*
X176880133Y-130944893D01*
X176867520Y-130923849D01*
X176857030Y-130901671D01*
X176848765Y-130878571D01*
X176842804Y-130854773D01*
X176839204Y-130830504D01*
X176838000Y-130806000D01*
X176838000Y-129806000D01*
X176839204Y-129781496D01*
X176842804Y-129757227D01*
X176848765Y-129733429D01*
X176857030Y-129710329D01*
X176867520Y-129688151D01*
X176880133Y-129667107D01*
X176894747Y-129647402D01*
X176911223Y-129629223D01*
X176929402Y-129612747D01*
X176949107Y-129598133D01*
X176970151Y-129585520D01*
X176992329Y-129575030D01*
X177015429Y-129566765D01*
X177039227Y-129560804D01*
X177063496Y-129557204D01*
X177088000Y-129556000D01*
X178608000Y-129556000D01*
X178632504Y-129557204D01*
G37*
G04 #@! TD.AperFunction*
D12*
X177848000Y-133306000D03*
X133850400Y-107632000D03*
X133850400Y-110632000D03*
G04 #@! TA.AperFunction,ComponentPad*
D10*
G36*
X134634904Y-112883204D02*
G01*
X134659173Y-112886804D01*
X134682971Y-112892765D01*
X134706071Y-112901030D01*
X134728249Y-112911520D01*
X134749293Y-112924133D01*
X134768998Y-112938747D01*
X134787177Y-112955223D01*
X134803653Y-112973402D01*
X134818267Y-112993107D01*
X134830880Y-113014151D01*
X134841370Y-113036329D01*
X134849635Y-113059429D01*
X134855596Y-113083227D01*
X134859196Y-113107496D01*
X134860400Y-113132000D01*
X134860400Y-114132000D01*
X134859196Y-114156504D01*
X134855596Y-114180773D01*
X134849635Y-114204571D01*
X134841370Y-114227671D01*
X134830880Y-114249849D01*
X134818267Y-114270893D01*
X134803653Y-114290598D01*
X134787177Y-114308777D01*
X134768998Y-114325253D01*
X134749293Y-114339867D01*
X134728249Y-114352480D01*
X134706071Y-114362970D01*
X134682971Y-114371235D01*
X134659173Y-114377196D01*
X134634904Y-114380796D01*
X134610400Y-114382000D01*
X133090400Y-114382000D01*
X133065896Y-114380796D01*
X133041627Y-114377196D01*
X133017829Y-114371235D01*
X132994729Y-114362970D01*
X132972551Y-114352480D01*
X132951507Y-114339867D01*
X132931802Y-114325253D01*
X132913623Y-114308777D01*
X132897147Y-114290598D01*
X132882533Y-114270893D01*
X132869920Y-114249849D01*
X132859430Y-114227671D01*
X132851165Y-114204571D01*
X132845204Y-114180773D01*
X132841604Y-114156504D01*
X132840400Y-114132000D01*
X132840400Y-113132000D01*
X132841604Y-113107496D01*
X132845204Y-113083227D01*
X132851165Y-113059429D01*
X132859430Y-113036329D01*
X132869920Y-113014151D01*
X132882533Y-112993107D01*
X132897147Y-112973402D01*
X132913623Y-112955223D01*
X132931802Y-112938747D01*
X132951507Y-112924133D01*
X132972551Y-112911520D01*
X132994729Y-112901030D01*
X133017829Y-112892765D01*
X133041627Y-112886804D01*
X133065896Y-112883204D01*
X133090400Y-112882000D01*
X134610400Y-112882000D01*
X134634904Y-112883204D01*
G37*
G04 #@! TD.AperFunction*
D12*
X177848000Y-78394000D03*
X177848000Y-75394000D03*
G04 #@! TA.AperFunction,ComponentPad*
D10*
G36*
X178632504Y-71645204D02*
G01*
X178656773Y-71648804D01*
X178680571Y-71654765D01*
X178703671Y-71663030D01*
X178725849Y-71673520D01*
X178746893Y-71686133D01*
X178766598Y-71700747D01*
X178784777Y-71717223D01*
X178801253Y-71735402D01*
X178815867Y-71755107D01*
X178828480Y-71776151D01*
X178838970Y-71798329D01*
X178847235Y-71821429D01*
X178853196Y-71845227D01*
X178856796Y-71869496D01*
X178858000Y-71894000D01*
X178858000Y-72894000D01*
X178856796Y-72918504D01*
X178853196Y-72942773D01*
X178847235Y-72966571D01*
X178838970Y-72989671D01*
X178828480Y-73011849D01*
X178815867Y-73032893D01*
X178801253Y-73052598D01*
X178784777Y-73070777D01*
X178766598Y-73087253D01*
X178746893Y-73101867D01*
X178725849Y-73114480D01*
X178703671Y-73124970D01*
X178680571Y-73133235D01*
X178656773Y-73139196D01*
X178632504Y-73142796D01*
X178608000Y-73144000D01*
X177088000Y-73144000D01*
X177063496Y-73142796D01*
X177039227Y-73139196D01*
X177015429Y-73133235D01*
X176992329Y-73124970D01*
X176970151Y-73114480D01*
X176949107Y-73101867D01*
X176929402Y-73087253D01*
X176911223Y-73070777D01*
X176894747Y-73052598D01*
X176880133Y-73032893D01*
X176867520Y-73011849D01*
X176857030Y-72989671D01*
X176848765Y-72966571D01*
X176842804Y-72942773D01*
X176839204Y-72918504D01*
X176838000Y-72894000D01*
X176838000Y-71894000D01*
X176839204Y-71869496D01*
X176842804Y-71845227D01*
X176848765Y-71821429D01*
X176857030Y-71798329D01*
X176867520Y-71776151D01*
X176880133Y-71755107D01*
X176894747Y-71735402D01*
X176911223Y-71717223D01*
X176929402Y-71700747D01*
X176949107Y-71686133D01*
X176970151Y-71673520D01*
X176992329Y-71663030D01*
X177015429Y-71654765D01*
X177039227Y-71648804D01*
X177063496Y-71645204D01*
X177088000Y-71644000D01*
X178608000Y-71644000D01*
X178632504Y-71645204D01*
G37*
G04 #@! TD.AperFunction*
G04 #@! TA.AperFunction,SMDPad,CuDef*
G36*
X142908142Y-110222306D02*
G01*
X142931803Y-110225816D01*
X142955007Y-110231628D01*
X142977529Y-110239686D01*
X142999153Y-110249914D01*
X143019670Y-110262211D01*
X143038883Y-110276461D01*
X143056607Y-110292525D01*
X143072671Y-110310249D01*
X143086921Y-110329462D01*
X143099218Y-110349979D01*
X143109446Y-110371603D01*
X143117504Y-110394125D01*
X143123316Y-110417329D01*
X143126826Y-110440990D01*
X143128000Y-110464882D01*
X143128000Y-111377382D01*
X143126826Y-111401274D01*
X143123316Y-111424935D01*
X143117504Y-111448139D01*
X143109446Y-111470661D01*
X143099218Y-111492285D01*
X143086921Y-111512802D01*
X143072671Y-111532015D01*
X143056607Y-111549739D01*
X143038883Y-111565803D01*
X143019670Y-111580053D01*
X142999153Y-111592350D01*
X142977529Y-111602578D01*
X142955007Y-111610636D01*
X142931803Y-111616448D01*
X142908142Y-111619958D01*
X142884250Y-111621132D01*
X142396750Y-111621132D01*
X142372858Y-111619958D01*
X142349197Y-111616448D01*
X142325993Y-111610636D01*
X142303471Y-111602578D01*
X142281847Y-111592350D01*
X142261330Y-111580053D01*
X142242117Y-111565803D01*
X142224393Y-111549739D01*
X142208329Y-111532015D01*
X142194079Y-111512802D01*
X142181782Y-111492285D01*
X142171554Y-111470661D01*
X142163496Y-111448139D01*
X142157684Y-111424935D01*
X142154174Y-111401274D01*
X142153000Y-111377382D01*
X142153000Y-110464882D01*
X142154174Y-110440990D01*
X142157684Y-110417329D01*
X142163496Y-110394125D01*
X142171554Y-110371603D01*
X142181782Y-110349979D01*
X142194079Y-110329462D01*
X142208329Y-110310249D01*
X142224393Y-110292525D01*
X142242117Y-110276461D01*
X142261330Y-110262211D01*
X142281847Y-110249914D01*
X142303471Y-110239686D01*
X142325993Y-110231628D01*
X142349197Y-110225816D01*
X142372858Y-110222306D01*
X142396750Y-110221132D01*
X142884250Y-110221132D01*
X142908142Y-110222306D01*
G37*
G04 #@! TD.AperFunction*
G04 #@! TA.AperFunction,SMDPad,CuDef*
G36*
X144783142Y-110222306D02*
G01*
X144806803Y-110225816D01*
X144830007Y-110231628D01*
X144852529Y-110239686D01*
X144874153Y-110249914D01*
X144894670Y-110262211D01*
X144913883Y-110276461D01*
X144931607Y-110292525D01*
X144947671Y-110310249D01*
X144961921Y-110329462D01*
X144974218Y-110349979D01*
X144984446Y-110371603D01*
X144992504Y-110394125D01*
X144998316Y-110417329D01*
X145001826Y-110440990D01*
X145003000Y-110464882D01*
X145003000Y-111377382D01*
X145001826Y-111401274D01*
X144998316Y-111424935D01*
X144992504Y-111448139D01*
X144984446Y-111470661D01*
X144974218Y-111492285D01*
X144961921Y-111512802D01*
X144947671Y-111532015D01*
X144931607Y-111549739D01*
X144913883Y-111565803D01*
X144894670Y-111580053D01*
X144874153Y-111592350D01*
X144852529Y-111602578D01*
X144830007Y-111610636D01*
X144806803Y-111616448D01*
X144783142Y-111619958D01*
X144759250Y-111621132D01*
X144271750Y-111621132D01*
X144247858Y-111619958D01*
X144224197Y-111616448D01*
X144200993Y-111610636D01*
X144178471Y-111602578D01*
X144156847Y-111592350D01*
X144136330Y-111580053D01*
X144117117Y-111565803D01*
X144099393Y-111549739D01*
X144083329Y-111532015D01*
X144069079Y-111512802D01*
X144056782Y-111492285D01*
X144046554Y-111470661D01*
X144038496Y-111448139D01*
X144032684Y-111424935D01*
X144029174Y-111401274D01*
X144028000Y-111377382D01*
X144028000Y-110464882D01*
X144029174Y-110440990D01*
X144032684Y-110417329D01*
X144038496Y-110394125D01*
X144046554Y-110371603D01*
X144056782Y-110349979D01*
X144069079Y-110329462D01*
X144083329Y-110310249D01*
X144099393Y-110292525D01*
X144117117Y-110276461D01*
X144136330Y-110262211D01*
X144156847Y-110249914D01*
X144178471Y-110239686D01*
X144200993Y-110231628D01*
X144224197Y-110225816D01*
X144247858Y-110222306D01*
X144271750Y-110221132D01*
X144759250Y-110221132D01*
X144783142Y-110222306D01*
G37*
G04 #@! TD.AperFunction*
G04 #@! TA.AperFunction,SMDPad,CuDef*
G36*
X142930142Y-66901174D02*
G01*
X142953803Y-66904684D01*
X142977007Y-66910496D01*
X142999529Y-66918554D01*
X143021153Y-66928782D01*
X143041670Y-66941079D01*
X143060883Y-66955329D01*
X143078607Y-66971393D01*
X143094671Y-66989117D01*
X143108921Y-67008330D01*
X143121218Y-67028847D01*
X143131446Y-67050471D01*
X143139504Y-67072993D01*
X143145316Y-67096197D01*
X143148826Y-67119858D01*
X143150000Y-67143750D01*
X143150000Y-68056250D01*
X143148826Y-68080142D01*
X143145316Y-68103803D01*
X143139504Y-68127007D01*
X143131446Y-68149529D01*
X143121218Y-68171153D01*
X143108921Y-68191670D01*
X143094671Y-68210883D01*
X143078607Y-68228607D01*
X143060883Y-68244671D01*
X143041670Y-68258921D01*
X143021153Y-68271218D01*
X142999529Y-68281446D01*
X142977007Y-68289504D01*
X142953803Y-68295316D01*
X142930142Y-68298826D01*
X142906250Y-68300000D01*
X142418750Y-68300000D01*
X142394858Y-68298826D01*
X142371197Y-68295316D01*
X142347993Y-68289504D01*
X142325471Y-68281446D01*
X142303847Y-68271218D01*
X142283330Y-68258921D01*
X142264117Y-68244671D01*
X142246393Y-68228607D01*
X142230329Y-68210883D01*
X142216079Y-68191670D01*
X142203782Y-68171153D01*
X142193554Y-68149529D01*
X142185496Y-68127007D01*
X142179684Y-68103803D01*
X142176174Y-68080142D01*
X142175000Y-68056250D01*
X142175000Y-67143750D01*
X142176174Y-67119858D01*
X142179684Y-67096197D01*
X142185496Y-67072993D01*
X142193554Y-67050471D01*
X142203782Y-67028847D01*
X142216079Y-67008330D01*
X142230329Y-66989117D01*
X142246393Y-66971393D01*
X142264117Y-66955329D01*
X142283330Y-66941079D01*
X142303847Y-66928782D01*
X142325471Y-66918554D01*
X142347993Y-66910496D01*
X142371197Y-66904684D01*
X142394858Y-66901174D01*
X142418750Y-66900000D01*
X142906250Y-66900000D01*
X142930142Y-66901174D01*
G37*
G04 #@! TD.AperFunction*
G04 #@! TA.AperFunction,SMDPad,CuDef*
G36*
X144805142Y-66901174D02*
G01*
X144828803Y-66904684D01*
X144852007Y-66910496D01*
X144874529Y-66918554D01*
X144896153Y-66928782D01*
X144916670Y-66941079D01*
X144935883Y-66955329D01*
X144953607Y-66971393D01*
X144969671Y-66989117D01*
X144983921Y-67008330D01*
X144996218Y-67028847D01*
X145006446Y-67050471D01*
X145014504Y-67072993D01*
X145020316Y-67096197D01*
X145023826Y-67119858D01*
X145025000Y-67143750D01*
X145025000Y-68056250D01*
X145023826Y-68080142D01*
X145020316Y-68103803D01*
X145014504Y-68127007D01*
X145006446Y-68149529D01*
X144996218Y-68171153D01*
X144983921Y-68191670D01*
X144969671Y-68210883D01*
X144953607Y-68228607D01*
X144935883Y-68244671D01*
X144916670Y-68258921D01*
X144896153Y-68271218D01*
X144874529Y-68281446D01*
X144852007Y-68289504D01*
X144828803Y-68295316D01*
X144805142Y-68298826D01*
X144781250Y-68300000D01*
X144293750Y-68300000D01*
X144269858Y-68298826D01*
X144246197Y-68295316D01*
X144222993Y-68289504D01*
X144200471Y-68281446D01*
X144178847Y-68271218D01*
X144158330Y-68258921D01*
X144139117Y-68244671D01*
X144121393Y-68228607D01*
X144105329Y-68210883D01*
X144091079Y-68191670D01*
X144078782Y-68171153D01*
X144068554Y-68149529D01*
X144060496Y-68127007D01*
X144054684Y-68103803D01*
X144051174Y-68080142D01*
X144050000Y-68056250D01*
X144050000Y-67143750D01*
X144051174Y-67119858D01*
X144054684Y-67096197D01*
X144060496Y-67072993D01*
X144068554Y-67050471D01*
X144078782Y-67028847D01*
X144091079Y-67008330D01*
X144105329Y-66989117D01*
X144121393Y-66971393D01*
X144139117Y-66955329D01*
X144158330Y-66941079D01*
X144178847Y-66928782D01*
X144200471Y-66918554D01*
X144222993Y-66910496D01*
X144246197Y-66904684D01*
X144269858Y-66901174D01*
X144293750Y-66900000D01*
X144781250Y-66900000D01*
X144805142Y-66901174D01*
G37*
G04 #@! TD.AperFunction*
G04 #@! TA.AperFunction,SMDPad,CuDef*
G36*
X142908142Y-91085740D02*
G01*
X142931803Y-91089250D01*
X142955007Y-91095062D01*
X142977529Y-91103120D01*
X142999153Y-91113348D01*
X143019670Y-91125645D01*
X143038883Y-91139895D01*
X143056607Y-91155959D01*
X143072671Y-91173683D01*
X143086921Y-91192896D01*
X143099218Y-91213413D01*
X143109446Y-91235037D01*
X143117504Y-91257559D01*
X143123316Y-91280763D01*
X143126826Y-91304424D01*
X143128000Y-91328316D01*
X143128000Y-92240816D01*
X143126826Y-92264708D01*
X143123316Y-92288369D01*
X143117504Y-92311573D01*
X143109446Y-92334095D01*
X143099218Y-92355719D01*
X143086921Y-92376236D01*
X143072671Y-92395449D01*
X143056607Y-92413173D01*
X143038883Y-92429237D01*
X143019670Y-92443487D01*
X142999153Y-92455784D01*
X142977529Y-92466012D01*
X142955007Y-92474070D01*
X142931803Y-92479882D01*
X142908142Y-92483392D01*
X142884250Y-92484566D01*
X142396750Y-92484566D01*
X142372858Y-92483392D01*
X142349197Y-92479882D01*
X142325993Y-92474070D01*
X142303471Y-92466012D01*
X142281847Y-92455784D01*
X142261330Y-92443487D01*
X142242117Y-92429237D01*
X142224393Y-92413173D01*
X142208329Y-92395449D01*
X142194079Y-92376236D01*
X142181782Y-92355719D01*
X142171554Y-92334095D01*
X142163496Y-92311573D01*
X142157684Y-92288369D01*
X142154174Y-92264708D01*
X142153000Y-92240816D01*
X142153000Y-91328316D01*
X142154174Y-91304424D01*
X142157684Y-91280763D01*
X142163496Y-91257559D01*
X142171554Y-91235037D01*
X142181782Y-91213413D01*
X142194079Y-91192896D01*
X142208329Y-91173683D01*
X142224393Y-91155959D01*
X142242117Y-91139895D01*
X142261330Y-91125645D01*
X142281847Y-91113348D01*
X142303471Y-91103120D01*
X142325993Y-91095062D01*
X142349197Y-91089250D01*
X142372858Y-91085740D01*
X142396750Y-91084566D01*
X142884250Y-91084566D01*
X142908142Y-91085740D01*
G37*
G04 #@! TD.AperFunction*
G04 #@! TA.AperFunction,SMDPad,CuDef*
G36*
X144783142Y-91085740D02*
G01*
X144806803Y-91089250D01*
X144830007Y-91095062D01*
X144852529Y-91103120D01*
X144874153Y-91113348D01*
X144894670Y-91125645D01*
X144913883Y-91139895D01*
X144931607Y-91155959D01*
X144947671Y-91173683D01*
X144961921Y-91192896D01*
X144974218Y-91213413D01*
X144984446Y-91235037D01*
X144992504Y-91257559D01*
X144998316Y-91280763D01*
X145001826Y-91304424D01*
X145003000Y-91328316D01*
X145003000Y-92240816D01*
X145001826Y-92264708D01*
X144998316Y-92288369D01*
X144992504Y-92311573D01*
X144984446Y-92334095D01*
X144974218Y-92355719D01*
X144961921Y-92376236D01*
X144947671Y-92395449D01*
X144931607Y-92413173D01*
X144913883Y-92429237D01*
X144894670Y-92443487D01*
X144874153Y-92455784D01*
X144852529Y-92466012D01*
X144830007Y-92474070D01*
X144806803Y-92479882D01*
X144783142Y-92483392D01*
X144759250Y-92484566D01*
X144271750Y-92484566D01*
X144247858Y-92483392D01*
X144224197Y-92479882D01*
X144200993Y-92474070D01*
X144178471Y-92466012D01*
X144156847Y-92455784D01*
X144136330Y-92443487D01*
X144117117Y-92429237D01*
X144099393Y-92413173D01*
X144083329Y-92395449D01*
X144069079Y-92376236D01*
X144056782Y-92355719D01*
X144046554Y-92334095D01*
X144038496Y-92311573D01*
X144032684Y-92288369D01*
X144029174Y-92264708D01*
X144028000Y-92240816D01*
X144028000Y-91328316D01*
X144029174Y-91304424D01*
X144032684Y-91280763D01*
X144038496Y-91257559D01*
X144046554Y-91235037D01*
X144056782Y-91213413D01*
X144069079Y-91192896D01*
X144083329Y-91173683D01*
X144099393Y-91155959D01*
X144117117Y-91139895D01*
X144136330Y-91125645D01*
X144156847Y-91113348D01*
X144178471Y-91103120D01*
X144200993Y-91095062D01*
X144224197Y-91089250D01*
X144247858Y-91085740D01*
X144271750Y-91084566D01*
X144759250Y-91084566D01*
X144783142Y-91085740D01*
G37*
G04 #@! TD.AperFunction*
G04 #@! TA.AperFunction,SMDPad,CuDef*
G36*
X169167142Y-110301174D02*
G01*
X169190803Y-110304684D01*
X169214007Y-110310496D01*
X169236529Y-110318554D01*
X169258153Y-110328782D01*
X169278670Y-110341079D01*
X169297883Y-110355329D01*
X169315607Y-110371393D01*
X169331671Y-110389117D01*
X169345921Y-110408330D01*
X169358218Y-110428847D01*
X169368446Y-110450471D01*
X169376504Y-110472993D01*
X169382316Y-110496197D01*
X169385826Y-110519858D01*
X169387000Y-110543750D01*
X169387000Y-111456250D01*
X169385826Y-111480142D01*
X169382316Y-111503803D01*
X169376504Y-111527007D01*
X169368446Y-111549529D01*
X169358218Y-111571153D01*
X169345921Y-111591670D01*
X169331671Y-111610883D01*
X169315607Y-111628607D01*
X169297883Y-111644671D01*
X169278670Y-111658921D01*
X169258153Y-111671218D01*
X169236529Y-111681446D01*
X169214007Y-111689504D01*
X169190803Y-111695316D01*
X169167142Y-111698826D01*
X169143250Y-111700000D01*
X168655750Y-111700000D01*
X168631858Y-111698826D01*
X168608197Y-111695316D01*
X168584993Y-111689504D01*
X168562471Y-111681446D01*
X168540847Y-111671218D01*
X168520330Y-111658921D01*
X168501117Y-111644671D01*
X168483393Y-111628607D01*
X168467329Y-111610883D01*
X168453079Y-111591670D01*
X168440782Y-111571153D01*
X168430554Y-111549529D01*
X168422496Y-111527007D01*
X168416684Y-111503803D01*
X168413174Y-111480142D01*
X168412000Y-111456250D01*
X168412000Y-110543750D01*
X168413174Y-110519858D01*
X168416684Y-110496197D01*
X168422496Y-110472993D01*
X168430554Y-110450471D01*
X168440782Y-110428847D01*
X168453079Y-110408330D01*
X168467329Y-110389117D01*
X168483393Y-110371393D01*
X168501117Y-110355329D01*
X168520330Y-110341079D01*
X168540847Y-110328782D01*
X168562471Y-110318554D01*
X168584993Y-110310496D01*
X168608197Y-110304684D01*
X168631858Y-110301174D01*
X168655750Y-110300000D01*
X169143250Y-110300000D01*
X169167142Y-110301174D01*
G37*
G04 #@! TD.AperFunction*
G04 #@! TA.AperFunction,SMDPad,CuDef*
G36*
X167292142Y-110301174D02*
G01*
X167315803Y-110304684D01*
X167339007Y-110310496D01*
X167361529Y-110318554D01*
X167383153Y-110328782D01*
X167403670Y-110341079D01*
X167422883Y-110355329D01*
X167440607Y-110371393D01*
X167456671Y-110389117D01*
X167470921Y-110408330D01*
X167483218Y-110428847D01*
X167493446Y-110450471D01*
X167501504Y-110472993D01*
X167507316Y-110496197D01*
X167510826Y-110519858D01*
X167512000Y-110543750D01*
X167512000Y-111456250D01*
X167510826Y-111480142D01*
X167507316Y-111503803D01*
X167501504Y-111527007D01*
X167493446Y-111549529D01*
X167483218Y-111571153D01*
X167470921Y-111591670D01*
X167456671Y-111610883D01*
X167440607Y-111628607D01*
X167422883Y-111644671D01*
X167403670Y-111658921D01*
X167383153Y-111671218D01*
X167361529Y-111681446D01*
X167339007Y-111689504D01*
X167315803Y-111695316D01*
X167292142Y-111698826D01*
X167268250Y-111700000D01*
X166780750Y-111700000D01*
X166756858Y-111698826D01*
X166733197Y-111695316D01*
X166709993Y-111689504D01*
X166687471Y-111681446D01*
X166665847Y-111671218D01*
X166645330Y-111658921D01*
X166626117Y-111644671D01*
X166608393Y-111628607D01*
X166592329Y-111610883D01*
X166578079Y-111591670D01*
X166565782Y-111571153D01*
X166555554Y-111549529D01*
X166547496Y-111527007D01*
X166541684Y-111503803D01*
X166538174Y-111480142D01*
X166537000Y-111456250D01*
X166537000Y-110543750D01*
X166538174Y-110519858D01*
X166541684Y-110496197D01*
X166547496Y-110472993D01*
X166555554Y-110450471D01*
X166565782Y-110428847D01*
X166578079Y-110408330D01*
X166592329Y-110389117D01*
X166608393Y-110371393D01*
X166626117Y-110355329D01*
X166645330Y-110341079D01*
X166665847Y-110328782D01*
X166687471Y-110318554D01*
X166709993Y-110310496D01*
X166733197Y-110304684D01*
X166756858Y-110301174D01*
X166780750Y-110300000D01*
X167268250Y-110300000D01*
X167292142Y-110301174D01*
G37*
G04 #@! TD.AperFunction*
G04 #@! TA.AperFunction,SMDPad,CuDef*
G36*
X167292142Y-134472374D02*
G01*
X167315803Y-134475884D01*
X167339007Y-134481696D01*
X167361529Y-134489754D01*
X167383153Y-134499982D01*
X167403670Y-134512279D01*
X167422883Y-134526529D01*
X167440607Y-134542593D01*
X167456671Y-134560317D01*
X167470921Y-134579530D01*
X167483218Y-134600047D01*
X167493446Y-134621671D01*
X167501504Y-134644193D01*
X167507316Y-134667397D01*
X167510826Y-134691058D01*
X167512000Y-134714950D01*
X167512000Y-135627450D01*
X167510826Y-135651342D01*
X167507316Y-135675003D01*
X167501504Y-135698207D01*
X167493446Y-135720729D01*
X167483218Y-135742353D01*
X167470921Y-135762870D01*
X167456671Y-135782083D01*
X167440607Y-135799807D01*
X167422883Y-135815871D01*
X167403670Y-135830121D01*
X167383153Y-135842418D01*
X167361529Y-135852646D01*
X167339007Y-135860704D01*
X167315803Y-135866516D01*
X167292142Y-135870026D01*
X167268250Y-135871200D01*
X166780750Y-135871200D01*
X166756858Y-135870026D01*
X166733197Y-135866516D01*
X166709993Y-135860704D01*
X166687471Y-135852646D01*
X166665847Y-135842418D01*
X166645330Y-135830121D01*
X166626117Y-135815871D01*
X166608393Y-135799807D01*
X166592329Y-135782083D01*
X166578079Y-135762870D01*
X166565782Y-135742353D01*
X166555554Y-135720729D01*
X166547496Y-135698207D01*
X166541684Y-135675003D01*
X166538174Y-135651342D01*
X166537000Y-135627450D01*
X166537000Y-134714950D01*
X166538174Y-134691058D01*
X166541684Y-134667397D01*
X166547496Y-134644193D01*
X166555554Y-134621671D01*
X166565782Y-134600047D01*
X166578079Y-134579530D01*
X166592329Y-134560317D01*
X166608393Y-134542593D01*
X166626117Y-134526529D01*
X166645330Y-134512279D01*
X166665847Y-134499982D01*
X166687471Y-134489754D01*
X166709993Y-134481696D01*
X166733197Y-134475884D01*
X166756858Y-134472374D01*
X166780750Y-134471200D01*
X167268250Y-134471200D01*
X167292142Y-134472374D01*
G37*
G04 #@! TD.AperFunction*
G04 #@! TA.AperFunction,SMDPad,CuDef*
G36*
X169167142Y-134472374D02*
G01*
X169190803Y-134475884D01*
X169214007Y-134481696D01*
X169236529Y-134489754D01*
X169258153Y-134499982D01*
X169278670Y-134512279D01*
X169297883Y-134526529D01*
X169315607Y-134542593D01*
X169331671Y-134560317D01*
X169345921Y-134579530D01*
X169358218Y-134600047D01*
X169368446Y-134621671D01*
X169376504Y-134644193D01*
X169382316Y-134667397D01*
X169385826Y-134691058D01*
X169387000Y-134714950D01*
X169387000Y-135627450D01*
X169385826Y-135651342D01*
X169382316Y-135675003D01*
X169376504Y-135698207D01*
X169368446Y-135720729D01*
X169358218Y-135742353D01*
X169345921Y-135762870D01*
X169331671Y-135782083D01*
X169315607Y-135799807D01*
X169297883Y-135815871D01*
X169278670Y-135830121D01*
X169258153Y-135842418D01*
X169236529Y-135852646D01*
X169214007Y-135860704D01*
X169190803Y-135866516D01*
X169167142Y-135870026D01*
X169143250Y-135871200D01*
X168655750Y-135871200D01*
X168631858Y-135870026D01*
X168608197Y-135866516D01*
X168584993Y-135860704D01*
X168562471Y-135852646D01*
X168540847Y-135842418D01*
X168520330Y-135830121D01*
X168501117Y-135815871D01*
X168483393Y-135799807D01*
X168467329Y-135782083D01*
X168453079Y-135762870D01*
X168440782Y-135742353D01*
X168430554Y-135720729D01*
X168422496Y-135698207D01*
X168416684Y-135675003D01*
X168413174Y-135651342D01*
X168412000Y-135627450D01*
X168412000Y-134714950D01*
X168413174Y-134691058D01*
X168416684Y-134667397D01*
X168422496Y-134644193D01*
X168430554Y-134621671D01*
X168440782Y-134600047D01*
X168453079Y-134579530D01*
X168467329Y-134560317D01*
X168483393Y-134542593D01*
X168501117Y-134526529D01*
X168520330Y-134512279D01*
X168540847Y-134499982D01*
X168562471Y-134489754D01*
X168584993Y-134481696D01*
X168608197Y-134475884D01*
X168631858Y-134472374D01*
X168655750Y-134471200D01*
X169143250Y-134471200D01*
X169167142Y-134472374D01*
G37*
G04 #@! TD.AperFunction*
G04 #@! TA.AperFunction,SMDPad,CuDef*
G36*
X167292142Y-66869174D02*
G01*
X167315803Y-66872684D01*
X167339007Y-66878496D01*
X167361529Y-66886554D01*
X167383153Y-66896782D01*
X167403670Y-66909079D01*
X167422883Y-66923329D01*
X167440607Y-66939393D01*
X167456671Y-66957117D01*
X167470921Y-66976330D01*
X167483218Y-66996847D01*
X167493446Y-67018471D01*
X167501504Y-67040993D01*
X167507316Y-67064197D01*
X167510826Y-67087858D01*
X167512000Y-67111750D01*
X167512000Y-68024250D01*
X167510826Y-68048142D01*
X167507316Y-68071803D01*
X167501504Y-68095007D01*
X167493446Y-68117529D01*
X167483218Y-68139153D01*
X167470921Y-68159670D01*
X167456671Y-68178883D01*
X167440607Y-68196607D01*
X167422883Y-68212671D01*
X167403670Y-68226921D01*
X167383153Y-68239218D01*
X167361529Y-68249446D01*
X167339007Y-68257504D01*
X167315803Y-68263316D01*
X167292142Y-68266826D01*
X167268250Y-68268000D01*
X166780750Y-68268000D01*
X166756858Y-68266826D01*
X166733197Y-68263316D01*
X166709993Y-68257504D01*
X166687471Y-68249446D01*
X166665847Y-68239218D01*
X166645330Y-68226921D01*
X166626117Y-68212671D01*
X166608393Y-68196607D01*
X166592329Y-68178883D01*
X166578079Y-68159670D01*
X166565782Y-68139153D01*
X166555554Y-68117529D01*
X166547496Y-68095007D01*
X166541684Y-68071803D01*
X166538174Y-68048142D01*
X166537000Y-68024250D01*
X166537000Y-67111750D01*
X166538174Y-67087858D01*
X166541684Y-67064197D01*
X166547496Y-67040993D01*
X166555554Y-67018471D01*
X166565782Y-66996847D01*
X166578079Y-66976330D01*
X166592329Y-66957117D01*
X166608393Y-66939393D01*
X166626117Y-66923329D01*
X166645330Y-66909079D01*
X166665847Y-66896782D01*
X166687471Y-66886554D01*
X166709993Y-66878496D01*
X166733197Y-66872684D01*
X166756858Y-66869174D01*
X166780750Y-66868000D01*
X167268250Y-66868000D01*
X167292142Y-66869174D01*
G37*
G04 #@! TD.AperFunction*
G04 #@! TA.AperFunction,SMDPad,CuDef*
G36*
X169167142Y-66869174D02*
G01*
X169190803Y-66872684D01*
X169214007Y-66878496D01*
X169236529Y-66886554D01*
X169258153Y-66896782D01*
X169278670Y-66909079D01*
X169297883Y-66923329D01*
X169315607Y-66939393D01*
X169331671Y-66957117D01*
X169345921Y-66976330D01*
X169358218Y-66996847D01*
X169368446Y-67018471D01*
X169376504Y-67040993D01*
X169382316Y-67064197D01*
X169385826Y-67087858D01*
X169387000Y-67111750D01*
X169387000Y-68024250D01*
X169385826Y-68048142D01*
X169382316Y-68071803D01*
X169376504Y-68095007D01*
X169368446Y-68117529D01*
X169358218Y-68139153D01*
X169345921Y-68159670D01*
X169331671Y-68178883D01*
X169315607Y-68196607D01*
X169297883Y-68212671D01*
X169278670Y-68226921D01*
X169258153Y-68239218D01*
X169236529Y-68249446D01*
X169214007Y-68257504D01*
X169190803Y-68263316D01*
X169167142Y-68266826D01*
X169143250Y-68268000D01*
X168655750Y-68268000D01*
X168631858Y-68266826D01*
X168608197Y-68263316D01*
X168584993Y-68257504D01*
X168562471Y-68249446D01*
X168540847Y-68239218D01*
X168520330Y-68226921D01*
X168501117Y-68212671D01*
X168483393Y-68196607D01*
X168467329Y-68178883D01*
X168453079Y-68159670D01*
X168440782Y-68139153D01*
X168430554Y-68117529D01*
X168422496Y-68095007D01*
X168416684Y-68071803D01*
X168413174Y-68048142D01*
X168412000Y-68024250D01*
X168412000Y-67111750D01*
X168413174Y-67087858D01*
X168416684Y-67064197D01*
X168422496Y-67040993D01*
X168430554Y-67018471D01*
X168440782Y-66996847D01*
X168453079Y-66976330D01*
X168467329Y-66957117D01*
X168483393Y-66939393D01*
X168501117Y-66923329D01*
X168520330Y-66909079D01*
X168540847Y-66896782D01*
X168562471Y-66886554D01*
X168584993Y-66878496D01*
X168608197Y-66872684D01*
X168631858Y-66869174D01*
X168655750Y-66868000D01*
X169143250Y-66868000D01*
X169167142Y-66869174D01*
G37*
G04 #@! TD.AperFunction*
G04 #@! TA.AperFunction,SMDPad,CuDef*
G36*
X169167142Y-91085740D02*
G01*
X169190803Y-91089250D01*
X169214007Y-91095062D01*
X169236529Y-91103120D01*
X169258153Y-91113348D01*
X169278670Y-91125645D01*
X169297883Y-91139895D01*
X169315607Y-91155959D01*
X169331671Y-91173683D01*
X169345921Y-91192896D01*
X169358218Y-91213413D01*
X169368446Y-91235037D01*
X169376504Y-91257559D01*
X169382316Y-91280763D01*
X169385826Y-91304424D01*
X169387000Y-91328316D01*
X169387000Y-92240816D01*
X169385826Y-92264708D01*
X169382316Y-92288369D01*
X169376504Y-92311573D01*
X169368446Y-92334095D01*
X169358218Y-92355719D01*
X169345921Y-92376236D01*
X169331671Y-92395449D01*
X169315607Y-92413173D01*
X169297883Y-92429237D01*
X169278670Y-92443487D01*
X169258153Y-92455784D01*
X169236529Y-92466012D01*
X169214007Y-92474070D01*
X169190803Y-92479882D01*
X169167142Y-92483392D01*
X169143250Y-92484566D01*
X168655750Y-92484566D01*
X168631858Y-92483392D01*
X168608197Y-92479882D01*
X168584993Y-92474070D01*
X168562471Y-92466012D01*
X168540847Y-92455784D01*
X168520330Y-92443487D01*
X168501117Y-92429237D01*
X168483393Y-92413173D01*
X168467329Y-92395449D01*
X168453079Y-92376236D01*
X168440782Y-92355719D01*
X168430554Y-92334095D01*
X168422496Y-92311573D01*
X168416684Y-92288369D01*
X168413174Y-92264708D01*
X168412000Y-92240816D01*
X168412000Y-91328316D01*
X168413174Y-91304424D01*
X168416684Y-91280763D01*
X168422496Y-91257559D01*
X168430554Y-91235037D01*
X168440782Y-91213413D01*
X168453079Y-91192896D01*
X168467329Y-91173683D01*
X168483393Y-91155959D01*
X168501117Y-91139895D01*
X168520330Y-91125645D01*
X168540847Y-91113348D01*
X168562471Y-91103120D01*
X168584993Y-91095062D01*
X168608197Y-91089250D01*
X168631858Y-91085740D01*
X168655750Y-91084566D01*
X169143250Y-91084566D01*
X169167142Y-91085740D01*
G37*
G04 #@! TD.AperFunction*
G04 #@! TA.AperFunction,SMDPad,CuDef*
G36*
X167292142Y-91085740D02*
G01*
X167315803Y-91089250D01*
X167339007Y-91095062D01*
X167361529Y-91103120D01*
X167383153Y-91113348D01*
X167403670Y-91125645D01*
X167422883Y-91139895D01*
X167440607Y-91155959D01*
X167456671Y-91173683D01*
X167470921Y-91192896D01*
X167483218Y-91213413D01*
X167493446Y-91235037D01*
X167501504Y-91257559D01*
X167507316Y-91280763D01*
X167510826Y-91304424D01*
X167512000Y-91328316D01*
X167512000Y-92240816D01*
X167510826Y-92264708D01*
X167507316Y-92288369D01*
X167501504Y-92311573D01*
X167493446Y-92334095D01*
X167483218Y-92355719D01*
X167470921Y-92376236D01*
X167456671Y-92395449D01*
X167440607Y-92413173D01*
X167422883Y-92429237D01*
X167403670Y-92443487D01*
X167383153Y-92455784D01*
X167361529Y-92466012D01*
X167339007Y-92474070D01*
X167315803Y-92479882D01*
X167292142Y-92483392D01*
X167268250Y-92484566D01*
X166780750Y-92484566D01*
X166756858Y-92483392D01*
X166733197Y-92479882D01*
X166709993Y-92474070D01*
X166687471Y-92466012D01*
X166665847Y-92455784D01*
X166645330Y-92443487D01*
X166626117Y-92429237D01*
X166608393Y-92413173D01*
X166592329Y-92395449D01*
X166578079Y-92376236D01*
X166565782Y-92355719D01*
X166555554Y-92334095D01*
X166547496Y-92311573D01*
X166541684Y-92288369D01*
X166538174Y-92264708D01*
X166537000Y-92240816D01*
X166537000Y-91328316D01*
X166538174Y-91304424D01*
X166541684Y-91280763D01*
X166547496Y-91257559D01*
X166555554Y-91235037D01*
X166565782Y-91213413D01*
X166578079Y-91192896D01*
X166592329Y-91173683D01*
X166608393Y-91155959D01*
X166626117Y-91139895D01*
X166645330Y-91125645D01*
X166665847Y-91113348D01*
X166687471Y-91103120D01*
X166709993Y-91095062D01*
X166733197Y-91089250D01*
X166756858Y-91085740D01*
X166780750Y-91084566D01*
X167268250Y-91084566D01*
X167292142Y-91085740D01*
G37*
G04 #@! TD.AperFunction*
D13*
X152200000Y-95200000D03*
X168800000Y-93600000D03*
X149200000Y-117800000D03*
X170600000Y-67600000D03*
X170528000Y-137127000D03*
X149200000Y-104000000D03*
X149200000Y-97000000D03*
X155000000Y-96600000D03*
X141400000Y-114200000D03*
X146200000Y-67600000D03*
X145699500Y-112933500D03*
X147750000Y-108500000D03*
X139900000Y-115700000D03*
X171250000Y-120250000D03*
X128400000Y-102600000D03*
X167400000Y-121800000D03*
X152293460Y-122456540D03*
X159750000Y-121750000D03*
X167000000Y-114600000D03*
X171700000Y-149600000D03*
X154250000Y-109250000D03*
X153500000Y-110500000D03*
X167600000Y-108700000D03*
X126600000Y-99200000D03*
X129800000Y-97800000D03*
X155000000Y-97800000D03*
X166800000Y-108000000D03*
X155001600Y-99001600D03*
X161000000Y-109750000D03*
X185750000Y-138750000D03*
X179250000Y-138750000D03*
X182500000Y-138750000D03*
X164305000Y-135857000D03*
D14*
X168899500Y-91784566D02*
X168899500Y-91785100D01*
X168899500Y-91785100D02*
X168902400Y-91788000D01*
X168899500Y-93500500D02*
X168800000Y-93600000D01*
X168899500Y-91784566D02*
X168899500Y-93500500D01*
X151400000Y-117800000D02*
X149200000Y-117800000D01*
X152200000Y-117000000D02*
X151400000Y-117800000D01*
X152200000Y-95200000D02*
X152200000Y-117000000D01*
X170568000Y-67568000D02*
X170600000Y-67600000D01*
X168899500Y-67568000D02*
X170568000Y-67568000D01*
X167024500Y-135171200D02*
X168980300Y-137127000D01*
X168980300Y-137127000D02*
X170528000Y-137127000D01*
X170528000Y-137127000D02*
X170528000Y-137127000D01*
X149200000Y-104000000D02*
X149200000Y-97000000D01*
X167000000Y-96600000D02*
X169000000Y-98600000D01*
X155000000Y-96600000D02*
X167000000Y-96600000D01*
X169000000Y-98600000D02*
X169400000Y-99000000D01*
X169400000Y-99000000D02*
X169400000Y-109400000D01*
X168899500Y-111000000D02*
X168899500Y-109900500D01*
X168899500Y-109900500D02*
X169400000Y-109400000D01*
X143900000Y-106000000D02*
X144515500Y-105384500D01*
X141700000Y-106000000D02*
X143900000Y-106000000D01*
X144515500Y-105384500D02*
X144515500Y-91784566D01*
X141100000Y-113900000D02*
X141100000Y-106600000D01*
X141100000Y-106600000D02*
X141700000Y-106000000D01*
X141100000Y-113900000D02*
X141400000Y-114200000D01*
X144537500Y-67600000D02*
X144537500Y-67568000D01*
X146200000Y-67600000D02*
X144537500Y-67600000D01*
X144515500Y-135137700D02*
X144515500Y-114117500D01*
X144515500Y-114117500D02*
X145699500Y-112933500D01*
X145699500Y-112933500D02*
X145763000Y-112870000D01*
X144515500Y-110921132D02*
X144594368Y-111000000D01*
X147750000Y-108500000D02*
X146250000Y-110000000D01*
X145328868Y-110921132D02*
X146250000Y-110000000D01*
X144515500Y-110921132D02*
X145328868Y-110921132D01*
X139895600Y-115695600D02*
X139900000Y-115700000D01*
X139400000Y-106000000D02*
X128900000Y-106000000D01*
X128900000Y-106000000D02*
X128412500Y-105512500D01*
X139900000Y-115700000D02*
X139900000Y-106500000D01*
X139900000Y-106500000D02*
X139400000Y-106000000D01*
X135110400Y-122815533D02*
X133850400Y-122815533D01*
X139484467Y-122815533D02*
X135110400Y-122815533D01*
X139900000Y-115700000D02*
X139900000Y-122400000D01*
X139900000Y-122400000D02*
X139484467Y-122815533D01*
X177288500Y-120137500D02*
X177848000Y-119578000D01*
X177326000Y-120100000D02*
X177848000Y-119578000D01*
X171922000Y-119578000D02*
X177848000Y-119578000D01*
X171250000Y-120250000D02*
X171922000Y-119578000D01*
X128412500Y-102612500D02*
X128400000Y-102600000D01*
X128412500Y-105512500D02*
X128412500Y-102612500D01*
X167350000Y-121750000D02*
X167400000Y-121800000D01*
X159750000Y-121750000D02*
X167350000Y-121750000D01*
X153000000Y-121750000D02*
X152293460Y-122456540D01*
X159750000Y-121750000D02*
X153000000Y-121750000D01*
X167024500Y-114575500D02*
X167000000Y-114600000D01*
X167024500Y-111000000D02*
X167024500Y-114575500D01*
X156437500Y-149600000D02*
X156137500Y-149300000D01*
X171700000Y-149600000D02*
X156437500Y-149600000D01*
X166538973Y-68053527D02*
X167024500Y-67568000D01*
X156000000Y-69000000D02*
X165592500Y-69000000D01*
X165592500Y-69000000D02*
X166538973Y-68053527D01*
X154081500Y-70918500D02*
X156000000Y-69000000D01*
X154081500Y-109081500D02*
X154250000Y-109250000D01*
X154081500Y-70918500D02*
X154081500Y-109081500D01*
X153256000Y-70856000D02*
X153256000Y-110256000D01*
X153256000Y-110256000D02*
X153500000Y-110500000D01*
X151400000Y-69000000D02*
X153256000Y-70856000D01*
X144062500Y-69000000D02*
X151400000Y-69000000D01*
X142662500Y-67600000D02*
X144062500Y-69000000D01*
X155000000Y-97800000D02*
X167000000Y-97800000D01*
X168400000Y-107900000D02*
X168350000Y-107950000D01*
X168400000Y-99200000D02*
X168400000Y-107900000D01*
X168350000Y-107950000D02*
X167600000Y-108700000D01*
X167000000Y-97800000D02*
X168400000Y-99200000D01*
X129800000Y-97800000D02*
X128000000Y-97800000D01*
X126600000Y-99200000D02*
X127900000Y-97900000D01*
X128000000Y-97800000D02*
X127900000Y-97900000D01*
X166972000Y-107828000D02*
X166800000Y-108000000D01*
X167400000Y-99800000D02*
X166601600Y-99001600D01*
X167400000Y-107400000D02*
X167400000Y-99800000D01*
X166800000Y-108000000D02*
X167400000Y-107400000D01*
X155001600Y-99001600D02*
X166601600Y-99001600D01*
X154932400Y-99001600D02*
X155001600Y-99001600D01*
X176838000Y-102850000D02*
X177848000Y-102850000D01*
X174500000Y-105188000D02*
X176838000Y-102850000D01*
X173500000Y-112000000D02*
X174500000Y-111000000D01*
X174500000Y-111000000D02*
X174500000Y-105188000D01*
X161000000Y-109750000D02*
X163250000Y-112000000D01*
X185800000Y-116600000D02*
X184200000Y-115000000D01*
X184200000Y-115000000D02*
X179800000Y-115000000D01*
X179800000Y-115000000D02*
X179600000Y-115000000D01*
X174500000Y-111000000D02*
X174500000Y-113900000D01*
X175600000Y-115000000D02*
X178800000Y-115000000D01*
X174500000Y-113900000D02*
X175600000Y-115000000D01*
X178800000Y-115000000D02*
X178500000Y-115000000D01*
X179800000Y-115000000D02*
X178800000Y-115000000D01*
X163250000Y-112000000D02*
X163250000Y-115250000D01*
X163250000Y-115250000D02*
X163800000Y-115800000D01*
X169700000Y-115800000D02*
X173500000Y-112000000D01*
X163800000Y-115800000D02*
X169700000Y-115800000D01*
X185750000Y-138500000D02*
X185800000Y-138450000D01*
X185800000Y-138450000D02*
X185800000Y-116600000D01*
X185750000Y-138750000D02*
X185750000Y-138500000D01*
X185800000Y-138600000D02*
X185800000Y-138450000D01*
X179700000Y-138300000D02*
X179250000Y-138750000D01*
X179700000Y-131148000D02*
X179700000Y-138300000D01*
X178858000Y-130306000D02*
X179700000Y-131148000D01*
X177848000Y-130306000D02*
X178858000Y-130306000D01*
X177848000Y-116578000D02*
X178858000Y-116578000D01*
X178858000Y-116578000D02*
X179836000Y-115600000D01*
X183900000Y-115600000D02*
X185000000Y-116700000D01*
X179836000Y-115600000D02*
X183900000Y-115600000D01*
X185000000Y-136200000D02*
X183660275Y-137539725D01*
X185000000Y-116700000D02*
X185000000Y-136200000D01*
X182500000Y-138700000D02*
X182850000Y-138350000D01*
X182500000Y-138750000D02*
X182500000Y-138700000D01*
X182850000Y-138350000D02*
X183660275Y-137539725D01*
X182600000Y-138600000D02*
X182850000Y-138350000D01*
X168899500Y-135171200D02*
X168874700Y-135171200D01*
X168899500Y-134471200D02*
X168228300Y-133800000D01*
X168899500Y-135171200D02*
X168899500Y-134471200D01*
X168228300Y-133800000D02*
X149700000Y-133800000D01*
X145639000Y-137861000D02*
X145639000Y-153002000D01*
X149700000Y-133800000D02*
X145639000Y-137861000D01*
X164305000Y-135857000D02*
X164305000Y-135857000D01*
X164305000Y-135857000D02*
X151843000Y-135857000D01*
X148639000Y-139061000D02*
X148639000Y-153002000D01*
X151843000Y-135857000D02*
X148639000Y-139061000D01*
D15*
G36*
X184812884Y-48721002D02*
G01*
X185282188Y-48862694D01*
X185715025Y-49092837D01*
X186094927Y-49402678D01*
X186407403Y-49780397D01*
X186640569Y-50211627D01*
X186785532Y-50679928D01*
X186840001Y-51198163D01*
X186840000Y-159102722D01*
X186788998Y-159622883D01*
X186647307Y-160092186D01*
X186417161Y-160525028D01*
X186107323Y-160904927D01*
X185729600Y-161217406D01*
X185298373Y-161450569D01*
X184830073Y-161595532D01*
X184311847Y-161650000D01*
X127207278Y-161650000D01*
X126687117Y-161598998D01*
X126217814Y-161457307D01*
X125784972Y-161227161D01*
X125405073Y-160917323D01*
X125092594Y-160539600D01*
X124859431Y-160108373D01*
X124714468Y-159640073D01*
X124660000Y-159121847D01*
X124660000Y-158760721D01*
X125187600Y-158760721D01*
X125187600Y-159181279D01*
X125269647Y-159593756D01*
X125430588Y-159982302D01*
X125664237Y-160331983D01*
X125961617Y-160629363D01*
X126311298Y-160863012D01*
X126699844Y-161023953D01*
X127112321Y-161106000D01*
X127532879Y-161106000D01*
X127945356Y-161023953D01*
X128333902Y-160863012D01*
X128683583Y-160629363D01*
X128980963Y-160331983D01*
X129214612Y-159982302D01*
X129375553Y-159593756D01*
X129457600Y-159181279D01*
X129457600Y-158760721D01*
X129375553Y-158348244D01*
X129214612Y-157959698D01*
X128980963Y-157610017D01*
X128683583Y-157312637D01*
X128382891Y-157111721D01*
X145654000Y-157111721D01*
X145654000Y-157532279D01*
X145736047Y-157944756D01*
X145896988Y-158333302D01*
X146130637Y-158682983D01*
X146428017Y-158980363D01*
X146777698Y-159214012D01*
X147166244Y-159374953D01*
X147578721Y-159457000D01*
X147999279Y-159457000D01*
X148411756Y-159374953D01*
X148800302Y-159214012D01*
X149149983Y-158980363D01*
X149447363Y-158682983D01*
X149681012Y-158333302D01*
X149841953Y-157944756D01*
X149924000Y-157532279D01*
X149924000Y-157111721D01*
X165354000Y-157111721D01*
X165354000Y-157532279D01*
X165436047Y-157944756D01*
X165596988Y-158333302D01*
X165830637Y-158682983D01*
X166128017Y-158980363D01*
X166477698Y-159214012D01*
X166866244Y-159374953D01*
X167278721Y-159457000D01*
X167699279Y-159457000D01*
X168111756Y-159374953D01*
X168500302Y-159214012D01*
X168849983Y-158980363D01*
X169069625Y-158760721D01*
X182058200Y-158760721D01*
X182058200Y-159181279D01*
X182140247Y-159593756D01*
X182301188Y-159982302D01*
X182534837Y-160331983D01*
X182832217Y-160629363D01*
X183181898Y-160863012D01*
X183570444Y-161023953D01*
X183982921Y-161106000D01*
X184403479Y-161106000D01*
X184815956Y-161023953D01*
X185204502Y-160863012D01*
X185554183Y-160629363D01*
X185851563Y-160331983D01*
X186085212Y-159982302D01*
X186246153Y-159593756D01*
X186328200Y-159181279D01*
X186328200Y-158760721D01*
X186246153Y-158348244D01*
X186085212Y-157959698D01*
X185851563Y-157610017D01*
X185554183Y-157312637D01*
X185204502Y-157078988D01*
X184815956Y-156918047D01*
X184403479Y-156836000D01*
X183982921Y-156836000D01*
X183570444Y-156918047D01*
X183181898Y-157078988D01*
X182832217Y-157312637D01*
X182534837Y-157610017D01*
X182301188Y-157959698D01*
X182140247Y-158348244D01*
X182058200Y-158760721D01*
X169069625Y-158760721D01*
X169147363Y-158682983D01*
X169381012Y-158333302D01*
X169541953Y-157944756D01*
X169624000Y-157532279D01*
X169624000Y-157111721D01*
X169541953Y-156699244D01*
X169381012Y-156310698D01*
X169147363Y-155961017D01*
X168849983Y-155663637D01*
X168500302Y-155429988D01*
X168111756Y-155269047D01*
X167699279Y-155187000D01*
X167278721Y-155187000D01*
X166866244Y-155269047D01*
X166477698Y-155429988D01*
X166128017Y-155663637D01*
X165830637Y-155961017D01*
X165596988Y-156310698D01*
X165436047Y-156699244D01*
X165354000Y-157111721D01*
X149924000Y-157111721D01*
X149841953Y-156699244D01*
X149681012Y-156310698D01*
X149447363Y-155961017D01*
X149149983Y-155663637D01*
X148800302Y-155429988D01*
X148411756Y-155269047D01*
X147999279Y-155187000D01*
X147578721Y-155187000D01*
X147166244Y-155269047D01*
X146777698Y-155429988D01*
X146428017Y-155663637D01*
X146130637Y-155961017D01*
X145896988Y-156310698D01*
X145736047Y-156699244D01*
X145654000Y-157111721D01*
X128382891Y-157111721D01*
X128333902Y-157078988D01*
X127945356Y-156918047D01*
X127532879Y-156836000D01*
X127112321Y-156836000D01*
X126699844Y-156918047D01*
X126311298Y-157078988D01*
X125961617Y-157312637D01*
X125664237Y-157610017D01*
X125430588Y-157959698D01*
X125269647Y-158348244D01*
X125187600Y-158760721D01*
X124660000Y-158760721D01*
X124660000Y-152673963D01*
X144254000Y-152673963D01*
X144254000Y-153330036D01*
X144274040Y-153533506D01*
X144353236Y-153794580D01*
X144481843Y-154035187D01*
X144654919Y-154246080D01*
X144865812Y-154419157D01*
X145106419Y-154547764D01*
X145367493Y-154626960D01*
X145639000Y-154653701D01*
X145910506Y-154626960D01*
X146171580Y-154547764D01*
X146412187Y-154419157D01*
X146623080Y-154246081D01*
X146796157Y-154035188D01*
X146924764Y-153794581D01*
X147003960Y-153533507D01*
X147024000Y-153330037D01*
X147024000Y-152673964D01*
X147024000Y-152673963D01*
X147254000Y-152673963D01*
X147254000Y-153330036D01*
X147274040Y-153533506D01*
X147353236Y-153794580D01*
X147481843Y-154035187D01*
X147654919Y-154246080D01*
X147865812Y-154419157D01*
X148106419Y-154547764D01*
X148367493Y-154626960D01*
X148639000Y-154653701D01*
X148910506Y-154626960D01*
X149171580Y-154547764D01*
X149412187Y-154419157D01*
X149623080Y-154246081D01*
X149796157Y-154035188D01*
X149924764Y-153794581D01*
X150003960Y-153533507D01*
X150024000Y-153330037D01*
X150024000Y-152673964D01*
X150024000Y-152673963D01*
X150254000Y-152673963D01*
X150254000Y-153330036D01*
X150274040Y-153533506D01*
X150353236Y-153794580D01*
X150481843Y-154035187D01*
X150654919Y-154246080D01*
X150865812Y-154419157D01*
X151106419Y-154547764D01*
X151367493Y-154626960D01*
X151639000Y-154653701D01*
X151910506Y-154626960D01*
X152171580Y-154547764D01*
X152412187Y-154419157D01*
X152623080Y-154246081D01*
X152796157Y-154035188D01*
X152924764Y-153794581D01*
X153003960Y-153533507D01*
X153024000Y-153330037D01*
X153024000Y-152673964D01*
X153024000Y-152673963D01*
X153254000Y-152673963D01*
X153254000Y-153330036D01*
X153274040Y-153533506D01*
X153353236Y-153794580D01*
X153481843Y-154035187D01*
X153654919Y-154246080D01*
X153865812Y-154419157D01*
X154106419Y-154547764D01*
X154367493Y-154626960D01*
X154639000Y-154653701D01*
X154910506Y-154626960D01*
X155171580Y-154547764D01*
X155412187Y-154419157D01*
X155623080Y-154246081D01*
X155796157Y-154035188D01*
X155924764Y-153794581D01*
X156003960Y-153533507D01*
X156024000Y-153330037D01*
X156024000Y-152673964D01*
X156024000Y-152673963D01*
X156254000Y-152673963D01*
X156254000Y-153330036D01*
X156274040Y-153533506D01*
X156353236Y-153794580D01*
X156481843Y-154035187D01*
X156654919Y-154246080D01*
X156865812Y-154419157D01*
X157106419Y-154547764D01*
X157367493Y-154626960D01*
X157639000Y-154653701D01*
X157910506Y-154626960D01*
X158171580Y-154547764D01*
X158412187Y-154419157D01*
X158623080Y-154246081D01*
X158796157Y-154035188D01*
X158924764Y-153794581D01*
X159003960Y-153533507D01*
X159024000Y-153330037D01*
X159024000Y-152673964D01*
X159024000Y-152673963D01*
X159254000Y-152673963D01*
X159254000Y-153330036D01*
X159274040Y-153533506D01*
X159353236Y-153794580D01*
X159481843Y-154035187D01*
X159654919Y-154246080D01*
X159865812Y-154419157D01*
X160106419Y-154547764D01*
X160367493Y-154626960D01*
X160639000Y-154653701D01*
X160910506Y-154626960D01*
X161171580Y-154547764D01*
X161412187Y-154419157D01*
X161623080Y-154246081D01*
X161796157Y-154035188D01*
X161924764Y-153794581D01*
X162003960Y-153533507D01*
X162024000Y-153330037D01*
X162024000Y-152673964D01*
X162024000Y-152673963D01*
X162254000Y-152673963D01*
X162254000Y-153330036D01*
X162274040Y-153533506D01*
X162353236Y-153794580D01*
X162481843Y-154035187D01*
X162654919Y-154246080D01*
X162865812Y-154419157D01*
X163106419Y-154547764D01*
X163367493Y-154626960D01*
X163639000Y-154653701D01*
X163910506Y-154626960D01*
X164171580Y-154547764D01*
X164412187Y-154419157D01*
X164623080Y-154246081D01*
X164796157Y-154035188D01*
X164924764Y-153794581D01*
X165003960Y-153533507D01*
X165024000Y-153330037D01*
X165024000Y-152673964D01*
X165003960Y-152470494D01*
X164934648Y-152242000D01*
X168250928Y-152242000D01*
X168250928Y-153762000D01*
X168267992Y-153935254D01*
X168318528Y-154101850D01*
X168400595Y-154255386D01*
X168511038Y-154389962D01*
X168645614Y-154500405D01*
X168799150Y-154582472D01*
X168965746Y-154633008D01*
X169139000Y-154650072D01*
X170139000Y-154650072D01*
X170312254Y-154633008D01*
X170478850Y-154582472D01*
X170632386Y-154500405D01*
X170766962Y-154389962D01*
X170877405Y-154255386D01*
X170959472Y-154101850D01*
X171010008Y-153935254D01*
X171027072Y-153762000D01*
X171027072Y-152242000D01*
X171010008Y-152068746D01*
X170959472Y-151902150D01*
X170877405Y-151748614D01*
X170766962Y-151614038D01*
X170632386Y-151503595D01*
X170478850Y-151421528D01*
X170312254Y-151370992D01*
X170139000Y-151353928D01*
X169139000Y-151353928D01*
X168965746Y-151370992D01*
X168799150Y-151421528D01*
X168645614Y-151503595D01*
X168511038Y-151614038D01*
X168400595Y-151748614D01*
X168318528Y-151902150D01*
X168267992Y-152068746D01*
X168250928Y-152242000D01*
X164934648Y-152242000D01*
X164924764Y-152209419D01*
X164796157Y-151968812D01*
X164623081Y-151757919D01*
X164412188Y-151584843D01*
X164171581Y-151456236D01*
X163910507Y-151377040D01*
X163639000Y-151350299D01*
X163367494Y-151377040D01*
X163106420Y-151456236D01*
X162865813Y-151584843D01*
X162654920Y-151757919D01*
X162481843Y-151968812D01*
X162353236Y-152209419D01*
X162274040Y-152470493D01*
X162254000Y-152673963D01*
X162024000Y-152673963D01*
X162003960Y-152470494D01*
X161924764Y-152209419D01*
X161796157Y-151968812D01*
X161623081Y-151757919D01*
X161412188Y-151584843D01*
X161171581Y-151456236D01*
X160910507Y-151377040D01*
X160639000Y-151350299D01*
X160367494Y-151377040D01*
X160106420Y-151456236D01*
X159865813Y-151584843D01*
X159654920Y-151757919D01*
X159481843Y-151968812D01*
X159353236Y-152209419D01*
X159274040Y-152470493D01*
X159254000Y-152673963D01*
X159024000Y-152673963D01*
X159003960Y-152470494D01*
X158924764Y-152209419D01*
X158796157Y-151968812D01*
X158623081Y-151757919D01*
X158412188Y-151584843D01*
X158171581Y-151456236D01*
X157910507Y-151377040D01*
X157639000Y-151350299D01*
X157367494Y-151377040D01*
X157106420Y-151456236D01*
X156865813Y-151584843D01*
X156654920Y-151757919D01*
X156481843Y-151968812D01*
X156353236Y-152209419D01*
X156274040Y-152470493D01*
X156254000Y-152673963D01*
X156024000Y-152673963D01*
X156003960Y-152470494D01*
X155924764Y-152209419D01*
X155796157Y-151968812D01*
X155623081Y-151757919D01*
X155412188Y-151584843D01*
X155171581Y-151456236D01*
X154910507Y-151377040D01*
X154639000Y-151350299D01*
X154367494Y-151377040D01*
X154106420Y-151456236D01*
X153865813Y-151584843D01*
X153654920Y-151757919D01*
X153481843Y-151968812D01*
X153353236Y-152209419D01*
X153274040Y-152470493D01*
X153254000Y-152673963D01*
X153024000Y-152673963D01*
X153003960Y-152470494D01*
X152924764Y-152209419D01*
X152796157Y-151968812D01*
X152623081Y-151757919D01*
X152412188Y-151584843D01*
X152171581Y-151456236D01*
X151910507Y-151377040D01*
X151639000Y-151350299D01*
X151367494Y-151377040D01*
X151106420Y-151456236D01*
X150865813Y-151584843D01*
X150654920Y-151757919D01*
X150481843Y-151968812D01*
X150353236Y-152209419D01*
X150274040Y-152470493D01*
X150254000Y-152673963D01*
X150024000Y-152673963D01*
X150003960Y-152470494D01*
X149924764Y-152209419D01*
X149796157Y-151968812D01*
X149623081Y-151757919D01*
X149412188Y-151584843D01*
X149399000Y-151577794D01*
X149399000Y-148843750D01*
X155011928Y-148843750D01*
X155011928Y-149756250D01*
X155028872Y-149928285D01*
X155079053Y-150093709D01*
X155160542Y-150246164D01*
X155270208Y-150379792D01*
X155403836Y-150489458D01*
X155556291Y-150570947D01*
X155721715Y-150621128D01*
X155893750Y-150638072D01*
X156381250Y-150638072D01*
X156553285Y-150621128D01*
X156718709Y-150570947D01*
X156871164Y-150489458D01*
X157004792Y-150379792D01*
X157021035Y-150360000D01*
X170996289Y-150360000D01*
X171040226Y-150403937D01*
X171209744Y-150517205D01*
X171398102Y-150595226D01*
X171598061Y-150635000D01*
X171801939Y-150635000D01*
X172001898Y-150595226D01*
X172190256Y-150517205D01*
X172359774Y-150403937D01*
X172503937Y-150259774D01*
X172617205Y-150090256D01*
X172695226Y-149901898D01*
X172735000Y-149701939D01*
X172735000Y-149498061D01*
X172695226Y-149298102D01*
X172617205Y-149109744D01*
X172503937Y-148940226D01*
X172359774Y-148796063D01*
X172190256Y-148682795D01*
X172001898Y-148604774D01*
X171801939Y-148565000D01*
X171598061Y-148565000D01*
X171398102Y-148604774D01*
X171209744Y-148682795D01*
X171040226Y-148796063D01*
X170996289Y-148840000D01*
X157262703Y-148840000D01*
X157246128Y-148671715D01*
X157195947Y-148506291D01*
X157114458Y-148353836D01*
X157004792Y-148220208D01*
X156871164Y-148110542D01*
X156718709Y-148029053D01*
X156553285Y-147978872D01*
X156381250Y-147961928D01*
X155893750Y-147961928D01*
X155721715Y-147978872D01*
X155556291Y-148029053D01*
X155403836Y-148110542D01*
X155270208Y-148220208D01*
X155160542Y-148353836D01*
X155079053Y-148506291D01*
X155028872Y-148671715D01*
X155011928Y-148843750D01*
X149399000Y-148843750D01*
X149399000Y-139375801D01*
X152157802Y-136617000D01*
X163601289Y-136617000D01*
X163645226Y-136660937D01*
X163814744Y-136774205D01*
X164003102Y-136852226D01*
X164203061Y-136892000D01*
X164406939Y-136892000D01*
X164606898Y-136852226D01*
X164795256Y-136774205D01*
X164964774Y-136660937D01*
X165108937Y-136516774D01*
X165222205Y-136347256D01*
X165300226Y-136158898D01*
X165340000Y-135958939D01*
X165340000Y-135755061D01*
X165300226Y-135555102D01*
X165222205Y-135366744D01*
X165108937Y-135197226D01*
X164964774Y-135053063D01*
X164795256Y-134939795D01*
X164606898Y-134861774D01*
X164406939Y-134822000D01*
X164203061Y-134822000D01*
X164003102Y-134861774D01*
X163814744Y-134939795D01*
X163645226Y-135053063D01*
X163601289Y-135097000D01*
X151880322Y-135097000D01*
X151842999Y-135093324D01*
X151805676Y-135097000D01*
X151805667Y-135097000D01*
X151694014Y-135107997D01*
X151550753Y-135151454D01*
X151418724Y-135222026D01*
X151302999Y-135316999D01*
X151279201Y-135345997D01*
X148128003Y-138497196D01*
X148098999Y-138520999D01*
X148074367Y-138551014D01*
X148004026Y-138636724D01*
X147990159Y-138662668D01*
X147933454Y-138768754D01*
X147889997Y-138912015D01*
X147879000Y-139023668D01*
X147879000Y-139023678D01*
X147875324Y-139061000D01*
X147879000Y-139098322D01*
X147879001Y-151577794D01*
X147865813Y-151584843D01*
X147654920Y-151757919D01*
X147481843Y-151968812D01*
X147353236Y-152209419D01*
X147274040Y-152470493D01*
X147254000Y-152673963D01*
X147024000Y-152673963D01*
X147003960Y-152470494D01*
X146924764Y-152209419D01*
X146796157Y-151968812D01*
X146623081Y-151757919D01*
X146412188Y-151584843D01*
X146399000Y-151577794D01*
X146399000Y-138175801D01*
X150014802Y-134560000D01*
X165914189Y-134560000D01*
X165898928Y-134714950D01*
X165898928Y-135627450D01*
X165915872Y-135799485D01*
X165966053Y-135964909D01*
X166047542Y-136117364D01*
X166157208Y-136250992D01*
X166290836Y-136360658D01*
X166443291Y-136442147D01*
X166608715Y-136492328D01*
X166780750Y-136509272D01*
X167268250Y-136509272D01*
X167286020Y-136507522D01*
X168416501Y-137638003D01*
X168440299Y-137667001D01*
X168469297Y-137690799D01*
X168556023Y-137761974D01*
X168645871Y-137809999D01*
X168688053Y-137832546D01*
X168831314Y-137876003D01*
X168942967Y-137887000D01*
X168942977Y-137887000D01*
X168980300Y-137890676D01*
X169017623Y-137887000D01*
X169824289Y-137887000D01*
X169868226Y-137930937D01*
X170037744Y-138044205D01*
X170226102Y-138122226D01*
X170426061Y-138162000D01*
X170629939Y-138162000D01*
X170829898Y-138122226D01*
X171018256Y-138044205D01*
X171187774Y-137930937D01*
X171331937Y-137786774D01*
X171445205Y-137617256D01*
X171523226Y-137428898D01*
X171563000Y-137228939D01*
X171563000Y-137025061D01*
X171523226Y-136825102D01*
X171445205Y-136636744D01*
X171331937Y-136467226D01*
X171187774Y-136323063D01*
X171018256Y-136209795D01*
X170829898Y-136131774D01*
X170629939Y-136092000D01*
X170426061Y-136092000D01*
X170226102Y-136131774D01*
X170037744Y-136209795D01*
X169868226Y-136323063D01*
X169824289Y-136367000D01*
X169621299Y-136367000D01*
X169633164Y-136360658D01*
X169766792Y-136250992D01*
X169876458Y-136117364D01*
X169957947Y-135964909D01*
X170008128Y-135799485D01*
X170025072Y-135627450D01*
X170025072Y-134714950D01*
X170008128Y-134542915D01*
X169957947Y-134377491D01*
X169876458Y-134225036D01*
X169766792Y-134091408D01*
X169633164Y-133981742D01*
X169480709Y-133900253D01*
X169369672Y-133866570D01*
X168792103Y-133289002D01*
X168768301Y-133259999D01*
X168652576Y-133165026D01*
X168520547Y-133094454D01*
X168377286Y-133050997D01*
X168265633Y-133040000D01*
X168265622Y-133040000D01*
X168228300Y-133036324D01*
X168190978Y-133040000D01*
X149737322Y-133040000D01*
X149699999Y-133036324D01*
X149662676Y-133040000D01*
X149662667Y-133040000D01*
X149551014Y-133050997D01*
X149407753Y-133094454D01*
X149275724Y-133165026D01*
X149159999Y-133259999D01*
X149136201Y-133288997D01*
X145128003Y-137297196D01*
X145098999Y-137320999D01*
X145043871Y-137388174D01*
X145004026Y-137436724D01*
X144942945Y-137550998D01*
X144933454Y-137568754D01*
X144889997Y-137712015D01*
X144879000Y-137823668D01*
X144879000Y-137823678D01*
X144875324Y-137861000D01*
X144879000Y-137898322D01*
X144879001Y-151577794D01*
X144865813Y-151584843D01*
X144654920Y-151757919D01*
X144481843Y-151968812D01*
X144353236Y-152209419D01*
X144274040Y-152470493D01*
X144254000Y-152673963D01*
X124660000Y-152673963D01*
X124660000Y-124105254D01*
X127395400Y-124105254D01*
X127395400Y-124525812D01*
X127477447Y-124938289D01*
X127638388Y-125326835D01*
X127872037Y-125676516D01*
X128169417Y-125973896D01*
X128519098Y-126207545D01*
X128907644Y-126368486D01*
X129320121Y-126450533D01*
X129740679Y-126450533D01*
X130153156Y-126368486D01*
X130541702Y-126207545D01*
X130891383Y-125973896D01*
X131188763Y-125676516D01*
X131422412Y-125326835D01*
X131427093Y-125315533D01*
X132202328Y-125315533D01*
X132202328Y-126315533D01*
X132219392Y-126488787D01*
X132269928Y-126655383D01*
X132351995Y-126808919D01*
X132462438Y-126943495D01*
X132597014Y-127053938D01*
X132750550Y-127136005D01*
X132917146Y-127186541D01*
X133090400Y-127203605D01*
X134610400Y-127203605D01*
X134783654Y-127186541D01*
X134950250Y-127136005D01*
X135103786Y-127053938D01*
X135238362Y-126943495D01*
X135348805Y-126808919D01*
X135430872Y-126655383D01*
X135481408Y-126488787D01*
X135498472Y-126315533D01*
X135498472Y-125315533D01*
X135481408Y-125142279D01*
X135430872Y-124975683D01*
X135348805Y-124822147D01*
X135238362Y-124687571D01*
X135103786Y-124577128D01*
X134950250Y-124495061D01*
X134783654Y-124444525D01*
X134610400Y-124427461D01*
X133090400Y-124427461D01*
X132917146Y-124444525D01*
X132750550Y-124495061D01*
X132597014Y-124577128D01*
X132462438Y-124687571D01*
X132351995Y-124822147D01*
X132269928Y-124975683D01*
X132219392Y-125142279D01*
X132202328Y-125315533D01*
X131427093Y-125315533D01*
X131583353Y-124938289D01*
X131665400Y-124525812D01*
X131665400Y-124105254D01*
X131583353Y-123692777D01*
X131422412Y-123304231D01*
X131188763Y-122954550D01*
X130891383Y-122657170D01*
X130541702Y-122423521D01*
X130153156Y-122262580D01*
X129740679Y-122180533D01*
X129320121Y-122180533D01*
X128907644Y-122262580D01*
X128519098Y-122423521D01*
X128169417Y-122657170D01*
X127872037Y-122954550D01*
X127638388Y-123304231D01*
X127477447Y-123692777D01*
X127395400Y-124105254D01*
X124660000Y-124105254D01*
X124660000Y-113132000D01*
X132202328Y-113132000D01*
X132202328Y-114132000D01*
X132219392Y-114305254D01*
X132269928Y-114471850D01*
X132351995Y-114625386D01*
X132462438Y-114759962D01*
X132597014Y-114870405D01*
X132750550Y-114952472D01*
X132917146Y-115003008D01*
X133090400Y-115020072D01*
X134610400Y-115020072D01*
X134783654Y-115003008D01*
X134950250Y-114952472D01*
X135103786Y-114870405D01*
X135238362Y-114759962D01*
X135348805Y-114625386D01*
X135430872Y-114471850D01*
X135481408Y-114305254D01*
X135498472Y-114132000D01*
X135498472Y-113132000D01*
X135481408Y-112958746D01*
X135430872Y-112792150D01*
X135348805Y-112638614D01*
X135238362Y-112504038D01*
X135103786Y-112393595D01*
X134950250Y-112311528D01*
X134783654Y-112260992D01*
X134610400Y-112243928D01*
X133090400Y-112243928D01*
X132917146Y-112260992D01*
X132750550Y-112311528D01*
X132597014Y-112393595D01*
X132462438Y-112504038D01*
X132351995Y-112638614D01*
X132269928Y-112792150D01*
X132219392Y-112958746D01*
X132202328Y-113132000D01*
X124660000Y-113132000D01*
X124660000Y-110421721D01*
X127395400Y-110421721D01*
X127395400Y-110842279D01*
X127477447Y-111254756D01*
X127638388Y-111643302D01*
X127872037Y-111992983D01*
X128169417Y-112290363D01*
X128519098Y-112524012D01*
X128907644Y-112684953D01*
X129320121Y-112767000D01*
X129740679Y-112767000D01*
X130153156Y-112684953D01*
X130541702Y-112524012D01*
X130891383Y-112290363D01*
X131188763Y-111992983D01*
X131422412Y-111643302D01*
X131583353Y-111254756D01*
X131665400Y-110842279D01*
X131665400Y-110421721D01*
X131583353Y-110009244D01*
X131422412Y-109620698D01*
X131188763Y-109271017D01*
X130891383Y-108973637D01*
X130541702Y-108739988D01*
X130153156Y-108579047D01*
X129740679Y-108497000D01*
X129320121Y-108497000D01*
X128907644Y-108579047D01*
X128519098Y-108739988D01*
X128169417Y-108973637D01*
X127872037Y-109271017D01*
X127638388Y-109620698D01*
X127477447Y-110009244D01*
X127395400Y-110421721D01*
X124660000Y-110421721D01*
X124660000Y-102498061D01*
X127365000Y-102498061D01*
X127365000Y-102701939D01*
X127404774Y-102901898D01*
X127482795Y-103090256D01*
X127596063Y-103259774D01*
X127652501Y-103316212D01*
X127652500Y-105475177D01*
X127648824Y-105512500D01*
X127652500Y-105549822D01*
X127652500Y-105549832D01*
X127663497Y-105661485D01*
X127690650Y-105750997D01*
X127706954Y-105804746D01*
X127777526Y-105936776D01*
X127817371Y-105985326D01*
X127872499Y-106052501D01*
X127901503Y-106076304D01*
X128336196Y-106510997D01*
X128359999Y-106540001D01*
X128433108Y-106600000D01*
X128475723Y-106634974D01*
X128607753Y-106705546D01*
X128751014Y-106749003D01*
X128862667Y-106760000D01*
X128862676Y-106760000D01*
X128899999Y-106763676D01*
X128937322Y-106760000D01*
X132514336Y-106760000D01*
X132433243Y-106858812D01*
X132304636Y-107099419D01*
X132225440Y-107360493D01*
X132198699Y-107632000D01*
X132225440Y-107903507D01*
X132304636Y-108164581D01*
X132433243Y-108405188D01*
X132606319Y-108616081D01*
X132817212Y-108789157D01*
X133057819Y-108917764D01*
X133318893Y-108996960D01*
X133522363Y-109017000D01*
X134178437Y-109017000D01*
X134381907Y-108996960D01*
X134642981Y-108917764D01*
X134883588Y-108789157D01*
X135094481Y-108616081D01*
X135267557Y-108405188D01*
X135396164Y-108164581D01*
X135475360Y-107903507D01*
X135502101Y-107632000D01*
X135475360Y-107360493D01*
X135396164Y-107099419D01*
X135267557Y-106858812D01*
X135186464Y-106760000D01*
X139085199Y-106760000D01*
X139140001Y-106814802D01*
X139140000Y-114996289D01*
X139096063Y-115040226D01*
X138982795Y-115209744D01*
X138904774Y-115398102D01*
X138865000Y-115598061D01*
X138865000Y-115801939D01*
X138904774Y-116001898D01*
X138982795Y-116190256D01*
X139096063Y-116359774D01*
X139140000Y-116403711D01*
X139140001Y-122055533D01*
X135274606Y-122055533D01*
X135267557Y-122042345D01*
X135094481Y-121831452D01*
X134883588Y-121658376D01*
X134642981Y-121529769D01*
X134381907Y-121450573D01*
X134178437Y-121430533D01*
X133522363Y-121430533D01*
X133318893Y-121450573D01*
X133057819Y-121529769D01*
X132817212Y-121658376D01*
X132606319Y-121831452D01*
X132433243Y-122042345D01*
X132304636Y-122282952D01*
X132225440Y-122544026D01*
X132198699Y-122815533D01*
X132225440Y-123087040D01*
X132304636Y-123348114D01*
X132433243Y-123588721D01*
X132606319Y-123799614D01*
X132817212Y-123972690D01*
X133057819Y-124101297D01*
X133318893Y-124180493D01*
X133522363Y-124200533D01*
X134178437Y-124200533D01*
X134381907Y-124180493D01*
X134642981Y-124101297D01*
X134883588Y-123972690D01*
X135094481Y-123799614D01*
X135267557Y-123588721D01*
X135274606Y-123575533D01*
X139447145Y-123575533D01*
X139484467Y-123579209D01*
X139521789Y-123575533D01*
X139521800Y-123575533D01*
X139633453Y-123564536D01*
X139776714Y-123521079D01*
X139908743Y-123450507D01*
X140024468Y-123355534D01*
X140048270Y-123326531D01*
X140411002Y-122963800D01*
X140440001Y-122940001D01*
X140534974Y-122824276D01*
X140605546Y-122692247D01*
X140649003Y-122548986D01*
X140660000Y-122437333D01*
X140660000Y-122437324D01*
X140663676Y-122400001D01*
X140660000Y-122362678D01*
X140660000Y-116403711D01*
X140703937Y-116359774D01*
X140817205Y-116190256D01*
X140895226Y-116001898D01*
X140935000Y-115801939D01*
X140935000Y-115598061D01*
X140895226Y-115398102D01*
X140817205Y-115209744D01*
X140703937Y-115040226D01*
X140660000Y-114996289D01*
X140660000Y-114923711D01*
X140740226Y-115003937D01*
X140909744Y-115117205D01*
X141098102Y-115195226D01*
X141298061Y-115235000D01*
X141501939Y-115235000D01*
X141701898Y-115195226D01*
X141890256Y-115117205D01*
X142059774Y-115003937D01*
X142203937Y-114859774D01*
X142317205Y-114690256D01*
X142395226Y-114501898D01*
X142435000Y-114301939D01*
X142435000Y-114098061D01*
X142395226Y-113898102D01*
X142317205Y-113709744D01*
X142203937Y-113540226D01*
X142059774Y-113396063D01*
X141890256Y-113282795D01*
X141860000Y-113270262D01*
X141860000Y-110464882D01*
X143389928Y-110464882D01*
X143389928Y-111377382D01*
X143406872Y-111549417D01*
X143457053Y-111714841D01*
X143538542Y-111867296D01*
X143648208Y-112000924D01*
X143781836Y-112110590D01*
X143934291Y-112192079D01*
X144099715Y-112242260D01*
X144271750Y-112259204D01*
X144759250Y-112259204D01*
X144926564Y-112242725D01*
X144895563Y-112273726D01*
X144782295Y-112443244D01*
X144704274Y-112631602D01*
X144664500Y-112831561D01*
X144664500Y-112893698D01*
X144004498Y-113553701D01*
X143975500Y-113577499D01*
X143951702Y-113606497D01*
X143951701Y-113606498D01*
X143880526Y-113693224D01*
X143809954Y-113825254D01*
X143802234Y-113850705D01*
X143766498Y-113968514D01*
X143755501Y-114080167D01*
X143751824Y-114117500D01*
X143755501Y-114154833D01*
X143755500Y-133969855D01*
X143648208Y-134057908D01*
X143538542Y-134191536D01*
X143457053Y-134343991D01*
X143406872Y-134509415D01*
X143389928Y-134681450D01*
X143389928Y-135593950D01*
X143406872Y-135765985D01*
X143457053Y-135931409D01*
X143538542Y-136083864D01*
X143648208Y-136217492D01*
X143781836Y-136327158D01*
X143934291Y-136408647D01*
X144099715Y-136458828D01*
X144271750Y-136475772D01*
X144759250Y-136475772D01*
X144931285Y-136458828D01*
X145096709Y-136408647D01*
X145249164Y-136327158D01*
X145382792Y-136217492D01*
X145492458Y-136083864D01*
X145573947Y-135931409D01*
X145624128Y-135765985D01*
X145641072Y-135593950D01*
X145641072Y-134681450D01*
X145624128Y-134509415D01*
X145573947Y-134343991D01*
X145492458Y-134191536D01*
X145382792Y-134057908D01*
X145275500Y-133969855D01*
X145275500Y-122354601D01*
X151258460Y-122354601D01*
X151258460Y-122558479D01*
X151298234Y-122758438D01*
X151376255Y-122946796D01*
X151489523Y-123116314D01*
X151633686Y-123260477D01*
X151803204Y-123373745D01*
X151991562Y-123451766D01*
X152191521Y-123491540D01*
X152395399Y-123491540D01*
X152595358Y-123451766D01*
X152783716Y-123373745D01*
X152953234Y-123260477D01*
X153097397Y-123116314D01*
X153210665Y-122946796D01*
X153288686Y-122758438D01*
X153328460Y-122558479D01*
X153328460Y-122510000D01*
X159046289Y-122510000D01*
X159090226Y-122553937D01*
X159259744Y-122667205D01*
X159448102Y-122745226D01*
X159648061Y-122785000D01*
X159851939Y-122785000D01*
X160051898Y-122745226D01*
X160240256Y-122667205D01*
X160409774Y-122553937D01*
X160453711Y-122510000D01*
X166646289Y-122510000D01*
X166740226Y-122603937D01*
X166909744Y-122717205D01*
X167098102Y-122795226D01*
X167298061Y-122835000D01*
X167501939Y-122835000D01*
X167701898Y-122795226D01*
X167890256Y-122717205D01*
X168059774Y-122603937D01*
X168203937Y-122459774D01*
X168317205Y-122290256D01*
X168395226Y-122101898D01*
X168435000Y-121901939D01*
X168435000Y-121698061D01*
X168395226Y-121498102D01*
X168317205Y-121309744D01*
X168203937Y-121140226D01*
X168059774Y-120996063D01*
X167890256Y-120882795D01*
X167701898Y-120804774D01*
X167501939Y-120765000D01*
X167298061Y-120765000D01*
X167098102Y-120804774D01*
X166909744Y-120882795D01*
X166749300Y-120990000D01*
X160453711Y-120990000D01*
X160409774Y-120946063D01*
X160240256Y-120832795D01*
X160051898Y-120754774D01*
X159851939Y-120715000D01*
X159648061Y-120715000D01*
X159448102Y-120754774D01*
X159259744Y-120832795D01*
X159090226Y-120946063D01*
X159046289Y-120990000D01*
X153037322Y-120990000D01*
X152999999Y-120986324D01*
X152962676Y-120990000D01*
X152962667Y-120990000D01*
X152851014Y-121000997D01*
X152707753Y-121044454D01*
X152575724Y-121115026D01*
X152575722Y-121115027D01*
X152575723Y-121115027D01*
X152488996Y-121186201D01*
X152488992Y-121186205D01*
X152459999Y-121209999D01*
X152436205Y-121238992D01*
X152253658Y-121421540D01*
X152191521Y-121421540D01*
X151991562Y-121461314D01*
X151803204Y-121539335D01*
X151633686Y-121652603D01*
X151489523Y-121796766D01*
X151376255Y-121966284D01*
X151298234Y-122154642D01*
X151258460Y-122354601D01*
X145275500Y-122354601D01*
X145275500Y-120148061D01*
X170215000Y-120148061D01*
X170215000Y-120351939D01*
X170254774Y-120551898D01*
X170332795Y-120740256D01*
X170446063Y-120909774D01*
X170590226Y-121053937D01*
X170759744Y-121167205D01*
X170948102Y-121245226D01*
X171148061Y-121285000D01*
X171351939Y-121285000D01*
X171551898Y-121245226D01*
X171740256Y-121167205D01*
X171909774Y-121053937D01*
X172053937Y-120909774D01*
X172167205Y-120740256D01*
X172245226Y-120551898D01*
X172285000Y-120351939D01*
X172285000Y-120338000D01*
X176423794Y-120338000D01*
X176430843Y-120351188D01*
X176603919Y-120562081D01*
X176814812Y-120735157D01*
X176826114Y-120741198D01*
X176864224Y-120772474D01*
X176996254Y-120843046D01*
X177043432Y-120857357D01*
X177055419Y-120863764D01*
X177316493Y-120942960D01*
X177519963Y-120963000D01*
X178176037Y-120963000D01*
X178379507Y-120942960D01*
X178640581Y-120863764D01*
X178881188Y-120735157D01*
X179092081Y-120562081D01*
X179265157Y-120351188D01*
X179393764Y-120110581D01*
X179472960Y-119849507D01*
X179499701Y-119578000D01*
X179472960Y-119306493D01*
X179393764Y-119045419D01*
X179265157Y-118804812D01*
X179092081Y-118593919D01*
X178881188Y-118420843D01*
X178640581Y-118292236D01*
X178379507Y-118213040D01*
X178176037Y-118193000D01*
X177519963Y-118193000D01*
X177316493Y-118213040D01*
X177055419Y-118292236D01*
X176814812Y-118420843D01*
X176603919Y-118593919D01*
X176430843Y-118804812D01*
X176423794Y-118818000D01*
X171959333Y-118818000D01*
X171922000Y-118814323D01*
X171884667Y-118818000D01*
X171773014Y-118828997D01*
X171629753Y-118872454D01*
X171497724Y-118943026D01*
X171381999Y-119037999D01*
X171358200Y-119066998D01*
X171210198Y-119215000D01*
X171148061Y-119215000D01*
X170948102Y-119254774D01*
X170759744Y-119332795D01*
X170590226Y-119446063D01*
X170446063Y-119590226D01*
X170332795Y-119759744D01*
X170254774Y-119948102D01*
X170215000Y-120148061D01*
X145275500Y-120148061D01*
X145275500Y-114432301D01*
X145739302Y-113968500D01*
X145801439Y-113968500D01*
X146001398Y-113928726D01*
X146189756Y-113850705D01*
X146359274Y-113737437D01*
X146503437Y-113593274D01*
X146616705Y-113423756D01*
X146694726Y-113235398D01*
X146734500Y-113035439D01*
X146734500Y-112831561D01*
X146694726Y-112631602D01*
X146616705Y-112443244D01*
X146503437Y-112273726D01*
X146359274Y-112129563D01*
X146189756Y-112016295D01*
X146001398Y-111938274D01*
X145801439Y-111898500D01*
X145597561Y-111898500D01*
X145441349Y-111929572D01*
X145492458Y-111867296D01*
X145573947Y-111714841D01*
X145598621Y-111633501D01*
X145621115Y-111626678D01*
X145753144Y-111556106D01*
X145868869Y-111461133D01*
X145892671Y-111432130D01*
X146813799Y-110511003D01*
X146813803Y-110510998D01*
X147789802Y-109535000D01*
X147851939Y-109535000D01*
X148051898Y-109495226D01*
X148240256Y-109417205D01*
X148409774Y-109303937D01*
X148553937Y-109159774D01*
X148667205Y-108990256D01*
X148745226Y-108801898D01*
X148785000Y-108601939D01*
X148785000Y-108398061D01*
X148745226Y-108198102D01*
X148667205Y-108009744D01*
X148553937Y-107840226D01*
X148409774Y-107696063D01*
X148240256Y-107582795D01*
X148051898Y-107504774D01*
X147851939Y-107465000D01*
X147648061Y-107465000D01*
X147448102Y-107504774D01*
X147259744Y-107582795D01*
X147090226Y-107696063D01*
X146946063Y-107840226D01*
X146832795Y-108009744D01*
X146754774Y-108198102D01*
X146715000Y-108398061D01*
X146715000Y-108460198D01*
X145739002Y-109436197D01*
X145738997Y-109436201D01*
X145355915Y-109819283D01*
X145249164Y-109731674D01*
X145096709Y-109650185D01*
X144931285Y-109600004D01*
X144759250Y-109583060D01*
X144271750Y-109583060D01*
X144099715Y-109600004D01*
X143934291Y-109650185D01*
X143781836Y-109731674D01*
X143648208Y-109841340D01*
X143538542Y-109974968D01*
X143457053Y-110127423D01*
X143406872Y-110292847D01*
X143389928Y-110464882D01*
X141860000Y-110464882D01*
X141860000Y-106914801D01*
X142014802Y-106760000D01*
X143862678Y-106760000D01*
X143900000Y-106763676D01*
X143937322Y-106760000D01*
X143937333Y-106760000D01*
X144048986Y-106749003D01*
X144192247Y-106705546D01*
X144324276Y-106634974D01*
X144440001Y-106540001D01*
X144463803Y-106510998D01*
X145026509Y-105948294D01*
X145055501Y-105924501D01*
X145079295Y-105895508D01*
X145079299Y-105895504D01*
X145150473Y-105808777D01*
X145150474Y-105808776D01*
X145221046Y-105676747D01*
X145264503Y-105533486D01*
X145275500Y-105421833D01*
X145275500Y-105421824D01*
X145279176Y-105384501D01*
X145275500Y-105347178D01*
X145275500Y-96898061D01*
X148165000Y-96898061D01*
X148165000Y-97101939D01*
X148204774Y-97301898D01*
X148282795Y-97490256D01*
X148396063Y-97659774D01*
X148440001Y-97703712D01*
X148440000Y-103296289D01*
X148396063Y-103340226D01*
X148282795Y-103509744D01*
X148204774Y-103698102D01*
X148165000Y-103898061D01*
X148165000Y-104101939D01*
X148204774Y-104301898D01*
X148282795Y-104490256D01*
X148396063Y-104659774D01*
X148540226Y-104803937D01*
X148709744Y-104917205D01*
X148898102Y-104995226D01*
X149098061Y-105035000D01*
X149301939Y-105035000D01*
X149501898Y-104995226D01*
X149690256Y-104917205D01*
X149859774Y-104803937D01*
X150003937Y-104659774D01*
X150117205Y-104490256D01*
X150195226Y-104301898D01*
X150235000Y-104101939D01*
X150235000Y-103898061D01*
X150195226Y-103698102D01*
X150117205Y-103509744D01*
X150003937Y-103340226D01*
X149960000Y-103296289D01*
X149960000Y-97703711D01*
X150003937Y-97659774D01*
X150117205Y-97490256D01*
X150195226Y-97301898D01*
X150235000Y-97101939D01*
X150235000Y-96898061D01*
X150195226Y-96698102D01*
X150117205Y-96509744D01*
X150003937Y-96340226D01*
X149859774Y-96196063D01*
X149690256Y-96082795D01*
X149501898Y-96004774D01*
X149301939Y-95965000D01*
X149098061Y-95965000D01*
X148898102Y-96004774D01*
X148709744Y-96082795D01*
X148540226Y-96196063D01*
X148396063Y-96340226D01*
X148282795Y-96509744D01*
X148204774Y-96698102D01*
X148165000Y-96898061D01*
X145275500Y-96898061D01*
X145275500Y-92952411D01*
X145382792Y-92864358D01*
X145492458Y-92730730D01*
X145573947Y-92578275D01*
X145624128Y-92412851D01*
X145641072Y-92240816D01*
X145641072Y-91328316D01*
X145624128Y-91156281D01*
X145573947Y-90990857D01*
X145492458Y-90838402D01*
X145382792Y-90704774D01*
X145249164Y-90595108D01*
X145096709Y-90513619D01*
X144931285Y-90463438D01*
X144759250Y-90446494D01*
X144271750Y-90446494D01*
X144099715Y-90463438D01*
X143934291Y-90513619D01*
X143781836Y-90595108D01*
X143648208Y-90704774D01*
X143538542Y-90838402D01*
X143457053Y-90990857D01*
X143406872Y-91156281D01*
X143389928Y-91328316D01*
X143389928Y-92240816D01*
X143406872Y-92412851D01*
X143457053Y-92578275D01*
X143538542Y-92730730D01*
X143648208Y-92864358D01*
X143755501Y-92952411D01*
X143755500Y-105069698D01*
X143585198Y-105240000D01*
X141737322Y-105240000D01*
X141699999Y-105236324D01*
X141662676Y-105240000D01*
X141662667Y-105240000D01*
X141551014Y-105250997D01*
X141407753Y-105294454D01*
X141275723Y-105365026D01*
X141206504Y-105421833D01*
X141159999Y-105459999D01*
X141136200Y-105488998D01*
X140588998Y-106036201D01*
X140560000Y-106059999D01*
X140539755Y-106084668D01*
X140534974Y-106075724D01*
X140440001Y-105959999D01*
X140410997Y-105936196D01*
X139963804Y-105489003D01*
X139940001Y-105459999D01*
X139824276Y-105365026D01*
X139692247Y-105294454D01*
X139548986Y-105250997D01*
X139437333Y-105240000D01*
X139437322Y-105240000D01*
X139400000Y-105236324D01*
X139362678Y-105240000D01*
X129214801Y-105240000D01*
X129172500Y-105197699D01*
X129172500Y-103291211D01*
X129203937Y-103259774D01*
X129317205Y-103090256D01*
X129395226Y-102901898D01*
X129435000Y-102701939D01*
X129435000Y-102498061D01*
X129395226Y-102298102D01*
X129317205Y-102109744D01*
X129203937Y-101940226D01*
X129059774Y-101796063D01*
X128890256Y-101682795D01*
X128701898Y-101604774D01*
X128501939Y-101565000D01*
X128298061Y-101565000D01*
X128098102Y-101604774D01*
X127909744Y-101682795D01*
X127740226Y-101796063D01*
X127596063Y-101940226D01*
X127482795Y-102109744D01*
X127404774Y-102298102D01*
X127365000Y-102498061D01*
X124660000Y-102498061D01*
X124660000Y-99098061D01*
X125565000Y-99098061D01*
X125565000Y-99301939D01*
X125604774Y-99501898D01*
X125682795Y-99690256D01*
X125796063Y-99859774D01*
X125940226Y-100003937D01*
X126109744Y-100117205D01*
X126298102Y-100195226D01*
X126498061Y-100235000D01*
X126701939Y-100235000D01*
X126901898Y-100195226D01*
X127090256Y-100117205D01*
X127259774Y-100003937D01*
X127403937Y-99859774D01*
X127517205Y-99690256D01*
X127595226Y-99501898D01*
X127635000Y-99301939D01*
X127635000Y-99239801D01*
X128314802Y-98560000D01*
X129096289Y-98560000D01*
X129140226Y-98603937D01*
X129309744Y-98717205D01*
X129498102Y-98795226D01*
X129698061Y-98835000D01*
X129901939Y-98835000D01*
X130101898Y-98795226D01*
X130290256Y-98717205D01*
X130459774Y-98603937D01*
X130603937Y-98459774D01*
X130717205Y-98290256D01*
X130795226Y-98101898D01*
X130835000Y-97901939D01*
X130835000Y-97698061D01*
X130795226Y-97498102D01*
X130717205Y-97309744D01*
X130603937Y-97140226D01*
X130459774Y-96996063D01*
X130290256Y-96882795D01*
X130101898Y-96804774D01*
X129901939Y-96765000D01*
X129698061Y-96765000D01*
X129498102Y-96804774D01*
X129309744Y-96882795D01*
X129140226Y-96996063D01*
X129096289Y-97040000D01*
X128037322Y-97040000D01*
X127999999Y-97036324D01*
X127962677Y-97040000D01*
X127962667Y-97040000D01*
X127851014Y-97050997D01*
X127707753Y-97094454D01*
X127575724Y-97165026D01*
X127459999Y-97259999D01*
X127436196Y-97289003D01*
X127389003Y-97336196D01*
X127388997Y-97336201D01*
X126560199Y-98165000D01*
X126498061Y-98165000D01*
X126298102Y-98204774D01*
X126109744Y-98282795D01*
X125940226Y-98396063D01*
X125796063Y-98540226D01*
X125682795Y-98709744D01*
X125604774Y-98898102D01*
X125565000Y-99098061D01*
X124660000Y-99098061D01*
X124660000Y-67143750D01*
X141536928Y-67143750D01*
X141536928Y-68056250D01*
X141553872Y-68228285D01*
X141604053Y-68393709D01*
X141685542Y-68546164D01*
X141795208Y-68679792D01*
X141928836Y-68789458D01*
X142081291Y-68870947D01*
X142246715Y-68921128D01*
X142418750Y-68938072D01*
X142906250Y-68938072D01*
X142924020Y-68936322D01*
X143498700Y-69511002D01*
X143522499Y-69540001D01*
X143551497Y-69563799D01*
X143638223Y-69634974D01*
X143770253Y-69705546D01*
X143913514Y-69749003D01*
X144025167Y-69760000D01*
X144025177Y-69760000D01*
X144062500Y-69763676D01*
X144099822Y-69760000D01*
X151085199Y-69760000D01*
X152496000Y-71170802D01*
X152496001Y-94203601D01*
X152301939Y-94165000D01*
X152098061Y-94165000D01*
X151898102Y-94204774D01*
X151709744Y-94282795D01*
X151540226Y-94396063D01*
X151396063Y-94540226D01*
X151282795Y-94709744D01*
X151204774Y-94898102D01*
X151165000Y-95098061D01*
X151165000Y-95301939D01*
X151204774Y-95501898D01*
X151282795Y-95690256D01*
X151396063Y-95859774D01*
X151440000Y-95903711D01*
X151440001Y-116685197D01*
X151085199Y-117040000D01*
X149903711Y-117040000D01*
X149859774Y-116996063D01*
X149690256Y-116882795D01*
X149501898Y-116804774D01*
X149301939Y-116765000D01*
X149098061Y-116765000D01*
X148898102Y-116804774D01*
X148709744Y-116882795D01*
X148540226Y-116996063D01*
X148396063Y-117140226D01*
X148282795Y-117309744D01*
X148204774Y-117498102D01*
X148165000Y-117698061D01*
X148165000Y-117901939D01*
X148204774Y-118101898D01*
X148282795Y-118290256D01*
X148396063Y-118459774D01*
X148540226Y-118603937D01*
X148709744Y-118717205D01*
X148898102Y-118795226D01*
X149098061Y-118835000D01*
X149301939Y-118835000D01*
X149501898Y-118795226D01*
X149690256Y-118717205D01*
X149859774Y-118603937D01*
X149903711Y-118560000D01*
X151362678Y-118560000D01*
X151400000Y-118563676D01*
X151437322Y-118560000D01*
X151437333Y-118560000D01*
X151548986Y-118549003D01*
X151692247Y-118505546D01*
X151824276Y-118434974D01*
X151940001Y-118340001D01*
X151963803Y-118310998D01*
X152711002Y-117563799D01*
X152740001Y-117540001D01*
X152834974Y-117424276D01*
X152905546Y-117292247D01*
X152949003Y-117148986D01*
X152960000Y-117037333D01*
X152960000Y-117037323D01*
X152963676Y-117000000D01*
X152960000Y-116962677D01*
X152960000Y-111383967D01*
X153009744Y-111417205D01*
X153198102Y-111495226D01*
X153398061Y-111535000D01*
X153601939Y-111535000D01*
X153801898Y-111495226D01*
X153990256Y-111417205D01*
X154159774Y-111303937D01*
X154303937Y-111159774D01*
X154417205Y-110990256D01*
X154495226Y-110801898D01*
X154535000Y-110601939D01*
X154535000Y-110398061D01*
X154506400Y-110254276D01*
X154551898Y-110245226D01*
X154740256Y-110167205D01*
X154909774Y-110053937D01*
X155053937Y-109909774D01*
X155167205Y-109740256D01*
X155205393Y-109648061D01*
X159965000Y-109648061D01*
X159965000Y-109851939D01*
X160004774Y-110051898D01*
X160082795Y-110240256D01*
X160196063Y-110409774D01*
X160340226Y-110553937D01*
X160509744Y-110667205D01*
X160698102Y-110745226D01*
X160898061Y-110785000D01*
X160960199Y-110785000D01*
X162490000Y-112314802D01*
X162490001Y-115212668D01*
X162486324Y-115250000D01*
X162490001Y-115287333D01*
X162500998Y-115398986D01*
X162503658Y-115407754D01*
X162544454Y-115542246D01*
X162615026Y-115674276D01*
X162667447Y-115738150D01*
X162710000Y-115790001D01*
X162738997Y-115813798D01*
X163236205Y-116311007D01*
X163259999Y-116340001D01*
X163288992Y-116363795D01*
X163288996Y-116363799D01*
X163339866Y-116405546D01*
X163375724Y-116434974D01*
X163507753Y-116505546D01*
X163651014Y-116549003D01*
X163762667Y-116560000D01*
X163762676Y-116560000D01*
X163799999Y-116563676D01*
X163837322Y-116560000D01*
X169662678Y-116560000D01*
X169700000Y-116563676D01*
X169737322Y-116560000D01*
X169737333Y-116560000D01*
X169848986Y-116549003D01*
X169992247Y-116505546D01*
X170124276Y-116434974D01*
X170240001Y-116340001D01*
X170263804Y-116310997D01*
X173740001Y-112834801D01*
X173740001Y-113862668D01*
X173736324Y-113900000D01*
X173740001Y-113937332D01*
X173740001Y-113937333D01*
X173750998Y-114048986D01*
X173764180Y-114092442D01*
X173794454Y-114192246D01*
X173865026Y-114324276D01*
X173935170Y-114409746D01*
X173960000Y-114440001D01*
X173988998Y-114463799D01*
X175036200Y-115511002D01*
X175059999Y-115540001D01*
X175088997Y-115563799D01*
X175175723Y-115634974D01*
X175297377Y-115700000D01*
X175307753Y-115705546D01*
X175451014Y-115749003D01*
X175562667Y-115760000D01*
X175562677Y-115760000D01*
X175600000Y-115763676D01*
X175637323Y-115760000D01*
X176260900Y-115760000D01*
X176216992Y-115904746D01*
X176199928Y-116078000D01*
X176199928Y-117078000D01*
X176216992Y-117251254D01*
X176267528Y-117417850D01*
X176349595Y-117571386D01*
X176460038Y-117705962D01*
X176594614Y-117816405D01*
X176748150Y-117898472D01*
X176914746Y-117949008D01*
X177088000Y-117966072D01*
X178608000Y-117966072D01*
X178781254Y-117949008D01*
X178947850Y-117898472D01*
X179101386Y-117816405D01*
X179235962Y-117705962D01*
X179346405Y-117571386D01*
X179428472Y-117417850D01*
X179479008Y-117251254D01*
X179496072Y-117078000D01*
X179496072Y-117014729D01*
X180150802Y-116360000D01*
X180896270Y-116360000D01*
X180807017Y-116419637D01*
X180509637Y-116717017D01*
X180275988Y-117066698D01*
X180115047Y-117455244D01*
X180033000Y-117867721D01*
X180033000Y-118288279D01*
X180115047Y-118700756D01*
X180275988Y-119089302D01*
X180509637Y-119438983D01*
X180807017Y-119736363D01*
X181156698Y-119970012D01*
X181545244Y-120130953D01*
X181957721Y-120213000D01*
X182378279Y-120213000D01*
X182790756Y-120130953D01*
X183179302Y-119970012D01*
X183528983Y-119736363D01*
X183826363Y-119438983D01*
X184060012Y-119089302D01*
X184220953Y-118700756D01*
X184240000Y-118605000D01*
X184240001Y-131279003D01*
X184220953Y-131183244D01*
X184060012Y-130794698D01*
X183826363Y-130445017D01*
X183528983Y-130147637D01*
X183179302Y-129913988D01*
X182790756Y-129753047D01*
X182378279Y-129671000D01*
X181957721Y-129671000D01*
X181545244Y-129753047D01*
X181156698Y-129913988D01*
X180807017Y-130147637D01*
X180509637Y-130445017D01*
X180328600Y-130715958D01*
X180240001Y-130607999D01*
X180211004Y-130584202D01*
X179496072Y-129869271D01*
X179496072Y-129806000D01*
X179479008Y-129632746D01*
X179428472Y-129466150D01*
X179346405Y-129312614D01*
X179235962Y-129178038D01*
X179101386Y-129067595D01*
X178947850Y-128985528D01*
X178781254Y-128934992D01*
X178608000Y-128917928D01*
X177088000Y-128917928D01*
X176914746Y-128934992D01*
X176748150Y-128985528D01*
X176594614Y-129067595D01*
X176460038Y-129178038D01*
X176349595Y-129312614D01*
X176267528Y-129466150D01*
X176216992Y-129632746D01*
X176199928Y-129806000D01*
X176199928Y-130806000D01*
X176216992Y-130979254D01*
X176267528Y-131145850D01*
X176349595Y-131299386D01*
X176460038Y-131433962D01*
X176594614Y-131544405D01*
X176748150Y-131626472D01*
X176914746Y-131677008D01*
X177088000Y-131694072D01*
X178608000Y-131694072D01*
X178781254Y-131677008D01*
X178940000Y-131628853D01*
X178940000Y-132197109D01*
X178881188Y-132148843D01*
X178640581Y-132020236D01*
X178379507Y-131941040D01*
X178176037Y-131921000D01*
X177519963Y-131921000D01*
X177316493Y-131941040D01*
X177055419Y-132020236D01*
X176814812Y-132148843D01*
X176603919Y-132321919D01*
X176430843Y-132532812D01*
X176302236Y-132773419D01*
X176223040Y-133034493D01*
X176196299Y-133306000D01*
X176223040Y-133577507D01*
X176302236Y-133838581D01*
X176430843Y-134079188D01*
X176603919Y-134290081D01*
X176814812Y-134463157D01*
X177055419Y-134591764D01*
X177316493Y-134670960D01*
X177519963Y-134691000D01*
X178176037Y-134691000D01*
X178379507Y-134670960D01*
X178640581Y-134591764D01*
X178881188Y-134463157D01*
X178940000Y-134414891D01*
X178940001Y-137758130D01*
X178759744Y-137832795D01*
X178590226Y-137946063D01*
X178446063Y-138090226D01*
X178332795Y-138259744D01*
X178254774Y-138448102D01*
X178215000Y-138648061D01*
X178215000Y-138851939D01*
X178254774Y-139051898D01*
X178332795Y-139240256D01*
X178446063Y-139409774D01*
X178590226Y-139553937D01*
X178759744Y-139667205D01*
X178948102Y-139745226D01*
X179148061Y-139785000D01*
X179351939Y-139785000D01*
X179551898Y-139745226D01*
X179740256Y-139667205D01*
X179909774Y-139553937D01*
X180053937Y-139409774D01*
X180167205Y-139240256D01*
X180245226Y-139051898D01*
X180285000Y-138851939D01*
X180285000Y-138785170D01*
X180320226Y-138742247D01*
X180334974Y-138724277D01*
X180405546Y-138592247D01*
X180418053Y-138551015D01*
X180449003Y-138448986D01*
X180460000Y-138337333D01*
X180460000Y-138337324D01*
X180463676Y-138300001D01*
X180460000Y-138262678D01*
X180460000Y-133092696D01*
X180509637Y-133166983D01*
X180807017Y-133464363D01*
X181156698Y-133698012D01*
X181545244Y-133858953D01*
X181957721Y-133941000D01*
X182378279Y-133941000D01*
X182790756Y-133858953D01*
X183179302Y-133698012D01*
X183528983Y-133464363D01*
X183826363Y-133166983D01*
X184060012Y-132817302D01*
X184220953Y-132428756D01*
X184240001Y-132332997D01*
X184240001Y-135885197D01*
X183149277Y-136975922D01*
X183149272Y-136975926D01*
X182410199Y-137715000D01*
X182398061Y-137715000D01*
X182198102Y-137754774D01*
X182009744Y-137832795D01*
X181840226Y-137946063D01*
X181696063Y-138090226D01*
X181582795Y-138259744D01*
X181504774Y-138448102D01*
X181465000Y-138648061D01*
X181465000Y-138851939D01*
X181504774Y-139051898D01*
X181582795Y-139240256D01*
X181696063Y-139409774D01*
X181840226Y-139553937D01*
X182009744Y-139667205D01*
X182198102Y-139745226D01*
X182398061Y-139785000D01*
X182601939Y-139785000D01*
X182801898Y-139745226D01*
X182990256Y-139667205D01*
X183159774Y-139553937D01*
X183303937Y-139409774D01*
X183417205Y-139240256D01*
X183495226Y-139051898D01*
X183535000Y-138851939D01*
X183535000Y-138739801D01*
X184224074Y-138050728D01*
X184224078Y-138050723D01*
X185040000Y-137234802D01*
X185040000Y-137996289D01*
X184946063Y-138090226D01*
X184832795Y-138259744D01*
X184754774Y-138448102D01*
X184715000Y-138648061D01*
X184715000Y-138851939D01*
X184754774Y-139051898D01*
X184832795Y-139240256D01*
X184946063Y-139409774D01*
X185090226Y-139553937D01*
X185259744Y-139667205D01*
X185448102Y-139745226D01*
X185648061Y-139785000D01*
X185851939Y-139785000D01*
X186051898Y-139745226D01*
X186240256Y-139667205D01*
X186409774Y-139553937D01*
X186553937Y-139409774D01*
X186667205Y-139240256D01*
X186745226Y-139051898D01*
X186785000Y-138851939D01*
X186785000Y-138648061D01*
X186745226Y-138448102D01*
X186667205Y-138259744D01*
X186560000Y-138099300D01*
X186560000Y-116637325D01*
X186563676Y-116600000D01*
X186560000Y-116562675D01*
X186560000Y-116562667D01*
X186549003Y-116451014D01*
X186505546Y-116307753D01*
X186434974Y-116175724D01*
X186340001Y-116059999D01*
X186311003Y-116036201D01*
X184763804Y-114489003D01*
X184740001Y-114459999D01*
X184624276Y-114365026D01*
X184492247Y-114294454D01*
X184348986Y-114250997D01*
X184237333Y-114240000D01*
X184237322Y-114240000D01*
X184200000Y-114236324D01*
X184162678Y-114240000D01*
X175914802Y-114240000D01*
X175260000Y-113585199D01*
X175260000Y-111037332D01*
X175263677Y-111000000D01*
X175260000Y-110962667D01*
X175260000Y-105850000D01*
X176196299Y-105850000D01*
X176223040Y-106121507D01*
X176302236Y-106382581D01*
X176430843Y-106623188D01*
X176603919Y-106834081D01*
X176814812Y-107007157D01*
X177055419Y-107135764D01*
X177316493Y-107214960D01*
X177519963Y-107235000D01*
X178176037Y-107235000D01*
X178379507Y-107214960D01*
X178640581Y-107135764D01*
X178881188Y-107007157D01*
X179092081Y-106834081D01*
X179265157Y-106623188D01*
X179393764Y-106382581D01*
X179472960Y-106121507D01*
X179499701Y-105850000D01*
X179472960Y-105578493D01*
X179393764Y-105317419D01*
X179265157Y-105076812D01*
X179092081Y-104865919D01*
X178881188Y-104692843D01*
X178640581Y-104564236D01*
X178379507Y-104485040D01*
X178176037Y-104465000D01*
X177519963Y-104465000D01*
X177316493Y-104485040D01*
X177055419Y-104564236D01*
X176814812Y-104692843D01*
X176603919Y-104865919D01*
X176430843Y-105076812D01*
X176302236Y-105317419D01*
X176223040Y-105578493D01*
X176196299Y-105850000D01*
X175260000Y-105850000D01*
X175260000Y-105502801D01*
X176646606Y-104116196D01*
X176748150Y-104170472D01*
X176914746Y-104221008D01*
X177088000Y-104238072D01*
X178608000Y-104238072D01*
X178781254Y-104221008D01*
X178947850Y-104170472D01*
X179005380Y-104139721D01*
X180033000Y-104139721D01*
X180033000Y-104560279D01*
X180115047Y-104972756D01*
X180275988Y-105361302D01*
X180509637Y-105710983D01*
X180807017Y-106008363D01*
X181156698Y-106242012D01*
X181545244Y-106402953D01*
X181957721Y-106485000D01*
X182378279Y-106485000D01*
X182790756Y-106402953D01*
X183179302Y-106242012D01*
X183528983Y-106008363D01*
X183826363Y-105710983D01*
X184060012Y-105361302D01*
X184220953Y-104972756D01*
X184303000Y-104560279D01*
X184303000Y-104139721D01*
X184220953Y-103727244D01*
X184060012Y-103338698D01*
X183826363Y-102989017D01*
X183528983Y-102691637D01*
X183179302Y-102457988D01*
X182790756Y-102297047D01*
X182378279Y-102215000D01*
X181957721Y-102215000D01*
X181545244Y-102297047D01*
X181156698Y-102457988D01*
X180807017Y-102691637D01*
X180509637Y-102989017D01*
X180275988Y-103338698D01*
X180115047Y-103727244D01*
X180033000Y-104139721D01*
X179005380Y-104139721D01*
X179101386Y-104088405D01*
X179235962Y-103977962D01*
X179346405Y-103843386D01*
X179428472Y-103689850D01*
X179479008Y-103523254D01*
X179496072Y-103350000D01*
X179496072Y-102350000D01*
X179479008Y-102176746D01*
X179428472Y-102010150D01*
X179346405Y-101856614D01*
X179235962Y-101722038D01*
X179101386Y-101611595D01*
X178947850Y-101529528D01*
X178781254Y-101478992D01*
X178608000Y-101461928D01*
X177088000Y-101461928D01*
X176914746Y-101478992D01*
X176748150Y-101529528D01*
X176594614Y-101611595D01*
X176460038Y-101722038D01*
X176349595Y-101856614D01*
X176267528Y-102010150D01*
X176216992Y-102176746D01*
X176199928Y-102350000D01*
X176199928Y-102413270D01*
X173988998Y-104624201D01*
X173960000Y-104647999D01*
X173936202Y-104676997D01*
X173936201Y-104676998D01*
X173865026Y-104763724D01*
X173794454Y-104895754D01*
X173750998Y-105039015D01*
X173736324Y-105188000D01*
X173740001Y-105225332D01*
X173740000Y-110685198D01*
X172989002Y-111436197D01*
X172988997Y-111436201D01*
X169385199Y-115040000D01*
X164114802Y-115040000D01*
X164010000Y-114935198D01*
X164010000Y-112037333D01*
X164013677Y-112000000D01*
X163999003Y-111851014D01*
X163955546Y-111707753D01*
X163884974Y-111575724D01*
X163813799Y-111488997D01*
X163790001Y-111459999D01*
X163761003Y-111436201D01*
X162035000Y-109710199D01*
X162035000Y-109648061D01*
X161995226Y-109448102D01*
X161917205Y-109259744D01*
X161803937Y-109090226D01*
X161659774Y-108946063D01*
X161490256Y-108832795D01*
X161301898Y-108754774D01*
X161101939Y-108715000D01*
X160898061Y-108715000D01*
X160698102Y-108754774D01*
X160509744Y-108832795D01*
X160340226Y-108946063D01*
X160196063Y-109090226D01*
X160082795Y-109259744D01*
X160004774Y-109448102D01*
X159965000Y-109648061D01*
X155205393Y-109648061D01*
X155245226Y-109551898D01*
X155285000Y-109351939D01*
X155285000Y-109148061D01*
X155245226Y-108948102D01*
X155167205Y-108759744D01*
X155053937Y-108590226D01*
X154909774Y-108446063D01*
X154841500Y-108400444D01*
X154841500Y-100025031D01*
X154899661Y-100036600D01*
X155103539Y-100036600D01*
X155303498Y-99996826D01*
X155491856Y-99918805D01*
X155661374Y-99805537D01*
X155705311Y-99761600D01*
X166286799Y-99761600D01*
X166640001Y-100114803D01*
X166640000Y-106976549D01*
X166498102Y-107004774D01*
X166309744Y-107082795D01*
X166140226Y-107196063D01*
X165996063Y-107340226D01*
X165882795Y-107509744D01*
X165804774Y-107698102D01*
X165765000Y-107898061D01*
X165765000Y-108101939D01*
X165804774Y-108301898D01*
X165882795Y-108490256D01*
X165996063Y-108659774D01*
X166140226Y-108803937D01*
X166309744Y-108917205D01*
X166498102Y-108995226D01*
X166611340Y-109017750D01*
X166682795Y-109190256D01*
X166796063Y-109359774D01*
X166940226Y-109503937D01*
X167109744Y-109617205D01*
X167298102Y-109695226D01*
X167498061Y-109735000D01*
X167701939Y-109735000D01*
X167901898Y-109695226D01*
X168090256Y-109617205D01*
X168244123Y-109514394D01*
X168193954Y-109608254D01*
X168181235Y-109650185D01*
X168150498Y-109751514D01*
X168143331Y-109824277D01*
X168142824Y-109829427D01*
X168032208Y-109920208D01*
X167922542Y-110053836D01*
X167841053Y-110206291D01*
X167790872Y-110371715D01*
X167773928Y-110543750D01*
X167773928Y-111456250D01*
X167790872Y-111628285D01*
X167841053Y-111793709D01*
X167922542Y-111946164D01*
X168032208Y-112079792D01*
X168165836Y-112189458D01*
X168318291Y-112270947D01*
X168483715Y-112321128D01*
X168655750Y-112338072D01*
X169143250Y-112338072D01*
X169315285Y-112321128D01*
X169480709Y-112270947D01*
X169633164Y-112189458D01*
X169766792Y-112079792D01*
X169876458Y-111946164D01*
X169957947Y-111793709D01*
X170008128Y-111628285D01*
X170025072Y-111456250D01*
X170025072Y-110543750D01*
X170008128Y-110371715D01*
X169957947Y-110206291D01*
X169876458Y-110053836D01*
X169851444Y-110023357D01*
X169910997Y-109963804D01*
X169940001Y-109940001D01*
X170020970Y-109841340D01*
X170034974Y-109824277D01*
X170105546Y-109692247D01*
X170127150Y-109621026D01*
X170149003Y-109548986D01*
X170160000Y-109437333D01*
X170160000Y-109437323D01*
X170163676Y-109400000D01*
X170160000Y-109362677D01*
X170160000Y-99037322D01*
X170163676Y-98999999D01*
X170160000Y-98962676D01*
X170160000Y-98962667D01*
X170149003Y-98851014D01*
X170105546Y-98707753D01*
X170034974Y-98575724D01*
X169940001Y-98459999D01*
X169911003Y-98436201D01*
X169563803Y-98089002D01*
X169563799Y-98088997D01*
X167563804Y-96089003D01*
X167540001Y-96059999D01*
X167424276Y-95965026D01*
X167292247Y-95894454D01*
X167148986Y-95850997D01*
X167037333Y-95840000D01*
X167037322Y-95840000D01*
X167000000Y-95836324D01*
X166962678Y-95840000D01*
X155703711Y-95840000D01*
X155659774Y-95796063D01*
X155490256Y-95682795D01*
X155301898Y-95604774D01*
X155101939Y-95565000D01*
X154898061Y-95565000D01*
X154841500Y-95576251D01*
X154841500Y-93498061D01*
X167765000Y-93498061D01*
X167765000Y-93701939D01*
X167804774Y-93901898D01*
X167882795Y-94090256D01*
X167996063Y-94259774D01*
X168140226Y-94403937D01*
X168309744Y-94517205D01*
X168498102Y-94595226D01*
X168698061Y-94635000D01*
X168901939Y-94635000D01*
X169101898Y-94595226D01*
X169290256Y-94517205D01*
X169459774Y-94403937D01*
X169603937Y-94259774D01*
X169717205Y-94090256D01*
X169795226Y-93901898D01*
X169835000Y-93701939D01*
X169835000Y-93498061D01*
X169795226Y-93298102D01*
X169717205Y-93109744D01*
X169659500Y-93023382D01*
X169659500Y-92952411D01*
X169766792Y-92864358D01*
X169876458Y-92730730D01*
X169957947Y-92578275D01*
X170008128Y-92412851D01*
X170025072Y-92240816D01*
X170025072Y-92122000D01*
X176196299Y-92122000D01*
X176223040Y-92393507D01*
X176302236Y-92654581D01*
X176430843Y-92895188D01*
X176603919Y-93106081D01*
X176814812Y-93279157D01*
X177055419Y-93407764D01*
X177316493Y-93486960D01*
X177519963Y-93507000D01*
X178176037Y-93507000D01*
X178379507Y-93486960D01*
X178640581Y-93407764D01*
X178881188Y-93279157D01*
X179092081Y-93106081D01*
X179265157Y-92895188D01*
X179393764Y-92654581D01*
X179472960Y-92393507D01*
X179499701Y-92122000D01*
X179472960Y-91850493D01*
X179393764Y-91589419D01*
X179265157Y-91348812D01*
X179092081Y-91137919D01*
X178881188Y-90964843D01*
X178640581Y-90836236D01*
X178379507Y-90757040D01*
X178176037Y-90737000D01*
X177519963Y-90737000D01*
X177316493Y-90757040D01*
X177055419Y-90836236D01*
X176814812Y-90964843D01*
X176603919Y-91137919D01*
X176430843Y-91348812D01*
X176302236Y-91589419D01*
X176223040Y-91850493D01*
X176196299Y-92122000D01*
X170025072Y-92122000D01*
X170025072Y-91328316D01*
X170008128Y-91156281D01*
X169957947Y-90990857D01*
X169876458Y-90838402D01*
X169766792Y-90704774D01*
X169633164Y-90595108D01*
X169480709Y-90513619D01*
X169315285Y-90463438D01*
X169143250Y-90446494D01*
X168655750Y-90446494D01*
X168483715Y-90463438D01*
X168318291Y-90513619D01*
X168165836Y-90595108D01*
X168032208Y-90704774D01*
X167922542Y-90838402D01*
X167841053Y-90990857D01*
X167790872Y-91156281D01*
X167773928Y-91328316D01*
X167773928Y-92240816D01*
X167790872Y-92412851D01*
X167841053Y-92578275D01*
X167922542Y-92730730D01*
X168032208Y-92864358D01*
X168054026Y-92882263D01*
X167996063Y-92940226D01*
X167882795Y-93109744D01*
X167804774Y-93298102D01*
X167765000Y-93498061D01*
X154841500Y-93498061D01*
X154841500Y-88622000D01*
X176199928Y-88622000D01*
X176199928Y-89622000D01*
X176216992Y-89795254D01*
X176267528Y-89961850D01*
X176349595Y-90115386D01*
X176460038Y-90249962D01*
X176594614Y-90360405D01*
X176748150Y-90442472D01*
X176914746Y-90493008D01*
X177088000Y-90510072D01*
X178608000Y-90510072D01*
X178781254Y-90493008D01*
X178947850Y-90442472D01*
X179005380Y-90411721D01*
X180033000Y-90411721D01*
X180033000Y-90832279D01*
X180115047Y-91244756D01*
X180275988Y-91633302D01*
X180509637Y-91982983D01*
X180807017Y-92280363D01*
X181156698Y-92514012D01*
X181545244Y-92674953D01*
X181957721Y-92757000D01*
X182378279Y-92757000D01*
X182790756Y-92674953D01*
X183179302Y-92514012D01*
X183528983Y-92280363D01*
X183826363Y-91982983D01*
X184060012Y-91633302D01*
X184220953Y-91244756D01*
X184303000Y-90832279D01*
X184303000Y-90411721D01*
X184220953Y-89999244D01*
X184060012Y-89610698D01*
X183826363Y-89261017D01*
X183528983Y-88963637D01*
X183179302Y-88729988D01*
X182790756Y-88569047D01*
X182378279Y-88487000D01*
X181957721Y-88487000D01*
X181545244Y-88569047D01*
X181156698Y-88729988D01*
X180807017Y-88963637D01*
X180509637Y-89261017D01*
X180275988Y-89610698D01*
X180115047Y-89999244D01*
X180033000Y-90411721D01*
X179005380Y-90411721D01*
X179101386Y-90360405D01*
X179235962Y-90249962D01*
X179346405Y-90115386D01*
X179428472Y-89961850D01*
X179479008Y-89795254D01*
X179496072Y-89622000D01*
X179496072Y-88622000D01*
X179479008Y-88448746D01*
X179428472Y-88282150D01*
X179346405Y-88128614D01*
X179235962Y-87994038D01*
X179101386Y-87883595D01*
X178947850Y-87801528D01*
X178781254Y-87750992D01*
X178608000Y-87733928D01*
X177088000Y-87733928D01*
X176914746Y-87750992D01*
X176748150Y-87801528D01*
X176594614Y-87883595D01*
X176460038Y-87994038D01*
X176349595Y-88128614D01*
X176267528Y-88282150D01*
X176216992Y-88448746D01*
X176199928Y-88622000D01*
X154841500Y-88622000D01*
X154841500Y-78394000D01*
X176196299Y-78394000D01*
X176223040Y-78665507D01*
X176302236Y-78926581D01*
X176430843Y-79167188D01*
X176603919Y-79378081D01*
X176814812Y-79551157D01*
X177055419Y-79679764D01*
X177316493Y-79758960D01*
X177519963Y-79779000D01*
X178176037Y-79779000D01*
X178379507Y-79758960D01*
X178640581Y-79679764D01*
X178881188Y-79551157D01*
X179092081Y-79378081D01*
X179265157Y-79167188D01*
X179393764Y-78926581D01*
X179472960Y-78665507D01*
X179499701Y-78394000D01*
X179472960Y-78122493D01*
X179393764Y-77861419D01*
X179265157Y-77620812D01*
X179092081Y-77409919D01*
X178881188Y-77236843D01*
X178640581Y-77108236D01*
X178379507Y-77029040D01*
X178176037Y-77009000D01*
X177519963Y-77009000D01*
X177316493Y-77029040D01*
X177055419Y-77108236D01*
X176814812Y-77236843D01*
X176603919Y-77409919D01*
X176430843Y-77620812D01*
X176302236Y-77861419D01*
X176223040Y-78122493D01*
X176196299Y-78394000D01*
X154841500Y-78394000D01*
X154841500Y-75183721D01*
X180033000Y-75183721D01*
X180033000Y-75604279D01*
X180115047Y-76016756D01*
X180275988Y-76405302D01*
X180509637Y-76754983D01*
X180807017Y-77052363D01*
X181156698Y-77286012D01*
X181545244Y-77446953D01*
X181957721Y-77529000D01*
X182378279Y-77529000D01*
X182790756Y-77446953D01*
X183179302Y-77286012D01*
X183528983Y-77052363D01*
X183826363Y-76754983D01*
X184060012Y-76405302D01*
X184220953Y-76016756D01*
X184303000Y-75604279D01*
X184303000Y-75183721D01*
X184220953Y-74771244D01*
X184060012Y-74382698D01*
X183826363Y-74033017D01*
X183528983Y-73735637D01*
X183179302Y-73501988D01*
X182790756Y-73341047D01*
X182378279Y-73259000D01*
X181957721Y-73259000D01*
X181545244Y-73341047D01*
X181156698Y-73501988D01*
X180807017Y-73735637D01*
X180509637Y-74033017D01*
X180275988Y-74382698D01*
X180115047Y-74771244D01*
X180033000Y-75183721D01*
X154841500Y-75183721D01*
X154841500Y-71894000D01*
X176199928Y-71894000D01*
X176199928Y-72894000D01*
X176216992Y-73067254D01*
X176267528Y-73233850D01*
X176349595Y-73387386D01*
X176460038Y-73521962D01*
X176594614Y-73632405D01*
X176748150Y-73714472D01*
X176914746Y-73765008D01*
X177088000Y-73782072D01*
X178608000Y-73782072D01*
X178781254Y-73765008D01*
X178947850Y-73714472D01*
X179101386Y-73632405D01*
X179235962Y-73521962D01*
X179346405Y-73387386D01*
X179428472Y-73233850D01*
X179479008Y-73067254D01*
X179496072Y-72894000D01*
X179496072Y-71894000D01*
X179479008Y-71720746D01*
X179428472Y-71554150D01*
X179346405Y-71400614D01*
X179235962Y-71266038D01*
X179101386Y-71155595D01*
X178947850Y-71073528D01*
X178781254Y-71022992D01*
X178608000Y-71005928D01*
X177088000Y-71005928D01*
X176914746Y-71022992D01*
X176748150Y-71073528D01*
X176594614Y-71155595D01*
X176460038Y-71266038D01*
X176349595Y-71400614D01*
X176267528Y-71554150D01*
X176216992Y-71720746D01*
X176199928Y-71894000D01*
X154841500Y-71894000D01*
X154841500Y-71233301D01*
X156314802Y-69760000D01*
X165555178Y-69760000D01*
X165592500Y-69763676D01*
X165629822Y-69760000D01*
X165629833Y-69760000D01*
X165741486Y-69749003D01*
X165884747Y-69705546D01*
X166016776Y-69634974D01*
X166132501Y-69540001D01*
X166156304Y-69510998D01*
X166762980Y-68904322D01*
X166780750Y-68906072D01*
X167268250Y-68906072D01*
X167440285Y-68889128D01*
X167605709Y-68838947D01*
X167758164Y-68757458D01*
X167891792Y-68647792D01*
X167962000Y-68562244D01*
X168032208Y-68647792D01*
X168165836Y-68757458D01*
X168318291Y-68838947D01*
X168483715Y-68889128D01*
X168655750Y-68906072D01*
X169143250Y-68906072D01*
X169315285Y-68889128D01*
X169480709Y-68838947D01*
X169633164Y-68757458D01*
X169766792Y-68647792D01*
X169876458Y-68514164D01*
X169937065Y-68400776D01*
X169940226Y-68403937D01*
X170109744Y-68517205D01*
X170298102Y-68595226D01*
X170498061Y-68635000D01*
X170701939Y-68635000D01*
X170901898Y-68595226D01*
X171090256Y-68517205D01*
X171259774Y-68403937D01*
X171403937Y-68259774D01*
X171517205Y-68090256D01*
X171595226Y-67901898D01*
X171635000Y-67701939D01*
X171635000Y-67498061D01*
X171595226Y-67298102D01*
X171517205Y-67109744D01*
X171403937Y-66940226D01*
X171259774Y-66796063D01*
X171090256Y-66682795D01*
X170901898Y-66604774D01*
X170701939Y-66565000D01*
X170498061Y-66565000D01*
X170298102Y-66604774D01*
X170109744Y-66682795D01*
X169960452Y-66782549D01*
X169957947Y-66774291D01*
X169876458Y-66621836D01*
X169766792Y-66488208D01*
X169633164Y-66378542D01*
X169480709Y-66297053D01*
X169315285Y-66246872D01*
X169143250Y-66229928D01*
X168655750Y-66229928D01*
X168483715Y-66246872D01*
X168318291Y-66297053D01*
X168165836Y-66378542D01*
X168032208Y-66488208D01*
X167962000Y-66573756D01*
X167891792Y-66488208D01*
X167758164Y-66378542D01*
X167605709Y-66297053D01*
X167440285Y-66246872D01*
X167268250Y-66229928D01*
X166780750Y-66229928D01*
X166608715Y-66246872D01*
X166443291Y-66297053D01*
X166290836Y-66378542D01*
X166157208Y-66488208D01*
X166047542Y-66621836D01*
X165966053Y-66774291D01*
X165915872Y-66939715D01*
X165898928Y-67111750D01*
X165898928Y-67618770D01*
X165277699Y-68240000D01*
X156037325Y-68240000D01*
X156000000Y-68236324D01*
X155962675Y-68240000D01*
X155962667Y-68240000D01*
X155851014Y-68250997D01*
X155707753Y-68294454D01*
X155575724Y-68365026D01*
X155459999Y-68459999D01*
X155436201Y-68488997D01*
X153700000Y-70225198D01*
X151963804Y-68489003D01*
X151940001Y-68459999D01*
X151824276Y-68365026D01*
X151692247Y-68294454D01*
X151548986Y-68250997D01*
X151437333Y-68240000D01*
X151437322Y-68240000D01*
X151400000Y-68236324D01*
X151362678Y-68240000D01*
X147017150Y-68240000D01*
X147117205Y-68090256D01*
X147195226Y-67901898D01*
X147235000Y-67701939D01*
X147235000Y-67498061D01*
X147195226Y-67298102D01*
X147117205Y-67109744D01*
X147003937Y-66940226D01*
X146859774Y-66796063D01*
X146690256Y-66682795D01*
X146501898Y-66604774D01*
X146301939Y-66565000D01*
X146098061Y-66565000D01*
X145898102Y-66604774D01*
X145709744Y-66682795D01*
X145577255Y-66771321D01*
X145514458Y-66653836D01*
X145404792Y-66520208D01*
X145271164Y-66410542D01*
X145118709Y-66329053D01*
X144953285Y-66278872D01*
X144781250Y-66261928D01*
X144293750Y-66261928D01*
X144121715Y-66278872D01*
X143956291Y-66329053D01*
X143803836Y-66410542D01*
X143670208Y-66520208D01*
X143600000Y-66605756D01*
X143529792Y-66520208D01*
X143396164Y-66410542D01*
X143243709Y-66329053D01*
X143078285Y-66278872D01*
X142906250Y-66261928D01*
X142418750Y-66261928D01*
X142246715Y-66278872D01*
X142081291Y-66329053D01*
X141928836Y-66410542D01*
X141795208Y-66520208D01*
X141685542Y-66653836D01*
X141604053Y-66806291D01*
X141553872Y-66971715D01*
X141536928Y-67143750D01*
X124660000Y-67143750D01*
X124660000Y-51217278D01*
X124669977Y-51115521D01*
X125187600Y-51115521D01*
X125187600Y-51536079D01*
X125269647Y-51948556D01*
X125430588Y-52337102D01*
X125664237Y-52686783D01*
X125961617Y-52984163D01*
X126311298Y-53217812D01*
X126699844Y-53378753D01*
X127112321Y-53460800D01*
X127532879Y-53460800D01*
X127945356Y-53378753D01*
X128333902Y-53217812D01*
X128683583Y-52984163D01*
X128980963Y-52686783D01*
X129214612Y-52337102D01*
X129375553Y-51948556D01*
X129457600Y-51536079D01*
X129457600Y-51140921D01*
X182032800Y-51140921D01*
X182032800Y-51561479D01*
X182114847Y-51973956D01*
X182275788Y-52362502D01*
X182509437Y-52712183D01*
X182806817Y-53009563D01*
X183156498Y-53243212D01*
X183545044Y-53404153D01*
X183957521Y-53486200D01*
X184378079Y-53486200D01*
X184790556Y-53404153D01*
X185179102Y-53243212D01*
X185528783Y-53009563D01*
X185826163Y-52712183D01*
X186059812Y-52362502D01*
X186220753Y-51973956D01*
X186302800Y-51561479D01*
X186302800Y-51140921D01*
X186220753Y-50728444D01*
X186059812Y-50339898D01*
X185826163Y-49990217D01*
X185528783Y-49692837D01*
X185179102Y-49459188D01*
X184790556Y-49298247D01*
X184378079Y-49216200D01*
X183957521Y-49216200D01*
X183545044Y-49298247D01*
X183156498Y-49459188D01*
X182806817Y-49692837D01*
X182509437Y-49990217D01*
X182275788Y-50339898D01*
X182114847Y-50728444D01*
X182032800Y-51140921D01*
X129457600Y-51140921D01*
X129457600Y-51115521D01*
X129375553Y-50703044D01*
X129214612Y-50314498D01*
X128980963Y-49964817D01*
X128683583Y-49667437D01*
X128333902Y-49433788D01*
X127945356Y-49272847D01*
X127532879Y-49190800D01*
X127112321Y-49190800D01*
X126699844Y-49272847D01*
X126311298Y-49433788D01*
X125961617Y-49667437D01*
X125664237Y-49964817D01*
X125430588Y-50314498D01*
X125269647Y-50703044D01*
X125187600Y-51115521D01*
X124669977Y-51115521D01*
X124711002Y-50697116D01*
X124852694Y-50227812D01*
X125082837Y-49794975D01*
X125392678Y-49415073D01*
X125770397Y-49102597D01*
X126201627Y-48869431D01*
X126669928Y-48724468D01*
X127188153Y-48670000D01*
X184292722Y-48670000D01*
X184812884Y-48721002D01*
G37*
X184812884Y-48721002D02*
X185282188Y-48862694D01*
X185715025Y-49092837D01*
X186094927Y-49402678D01*
X186407403Y-49780397D01*
X186640569Y-50211627D01*
X186785532Y-50679928D01*
X186840001Y-51198163D01*
X186840000Y-159102722D01*
X186788998Y-159622883D01*
X186647307Y-160092186D01*
X186417161Y-160525028D01*
X186107323Y-160904927D01*
X185729600Y-161217406D01*
X185298373Y-161450569D01*
X184830073Y-161595532D01*
X184311847Y-161650000D01*
X127207278Y-161650000D01*
X126687117Y-161598998D01*
X126217814Y-161457307D01*
X125784972Y-161227161D01*
X125405073Y-160917323D01*
X125092594Y-160539600D01*
X124859431Y-160108373D01*
X124714468Y-159640073D01*
X124660000Y-159121847D01*
X124660000Y-158760721D01*
X125187600Y-158760721D01*
X125187600Y-159181279D01*
X125269647Y-159593756D01*
X125430588Y-159982302D01*
X125664237Y-160331983D01*
X125961617Y-160629363D01*
X126311298Y-160863012D01*
X126699844Y-161023953D01*
X127112321Y-161106000D01*
X127532879Y-161106000D01*
X127945356Y-161023953D01*
X128333902Y-160863012D01*
X128683583Y-160629363D01*
X128980963Y-160331983D01*
X129214612Y-159982302D01*
X129375553Y-159593756D01*
X129457600Y-159181279D01*
X129457600Y-158760721D01*
X129375553Y-158348244D01*
X129214612Y-157959698D01*
X128980963Y-157610017D01*
X128683583Y-157312637D01*
X128382891Y-157111721D01*
X145654000Y-157111721D01*
X145654000Y-157532279D01*
X145736047Y-157944756D01*
X145896988Y-158333302D01*
X146130637Y-158682983D01*
X146428017Y-158980363D01*
X146777698Y-159214012D01*
X147166244Y-159374953D01*
X147578721Y-159457000D01*
X147999279Y-159457000D01*
X148411756Y-159374953D01*
X148800302Y-159214012D01*
X149149983Y-158980363D01*
X149447363Y-158682983D01*
X149681012Y-158333302D01*
X149841953Y-157944756D01*
X149924000Y-157532279D01*
X149924000Y-157111721D01*
X165354000Y-157111721D01*
X165354000Y-157532279D01*
X165436047Y-157944756D01*
X165596988Y-158333302D01*
X165830637Y-158682983D01*
X166128017Y-158980363D01*
X166477698Y-159214012D01*
X166866244Y-159374953D01*
X167278721Y-159457000D01*
X167699279Y-159457000D01*
X168111756Y-159374953D01*
X168500302Y-159214012D01*
X168849983Y-158980363D01*
X169069625Y-158760721D01*
X182058200Y-158760721D01*
X182058200Y-159181279D01*
X182140247Y-159593756D01*
X182301188Y-159982302D01*
X182534837Y-160331983D01*
X182832217Y-160629363D01*
X183181898Y-160863012D01*
X183570444Y-161023953D01*
X183982921Y-161106000D01*
X184403479Y-161106000D01*
X184815956Y-161023953D01*
X185204502Y-160863012D01*
X185554183Y-160629363D01*
X185851563Y-160331983D01*
X186085212Y-159982302D01*
X186246153Y-159593756D01*
X186328200Y-159181279D01*
X186328200Y-158760721D01*
X186246153Y-158348244D01*
X186085212Y-157959698D01*
X185851563Y-157610017D01*
X185554183Y-157312637D01*
X185204502Y-157078988D01*
X184815956Y-156918047D01*
X184403479Y-156836000D01*
X183982921Y-156836000D01*
X183570444Y-156918047D01*
X183181898Y-157078988D01*
X182832217Y-157312637D01*
X182534837Y-157610017D01*
X182301188Y-157959698D01*
X182140247Y-158348244D01*
X182058200Y-158760721D01*
X169069625Y-158760721D01*
X169147363Y-158682983D01*
X169381012Y-158333302D01*
X169541953Y-157944756D01*
X169624000Y-157532279D01*
X169624000Y-157111721D01*
X169541953Y-156699244D01*
X169381012Y-156310698D01*
X169147363Y-155961017D01*
X168849983Y-155663637D01*
X168500302Y-155429988D01*
X168111756Y-155269047D01*
X167699279Y-155187000D01*
X167278721Y-155187000D01*
X166866244Y-155269047D01*
X166477698Y-155429988D01*
X166128017Y-155663637D01*
X165830637Y-155961017D01*
X165596988Y-156310698D01*
X165436047Y-156699244D01*
X165354000Y-157111721D01*
X149924000Y-157111721D01*
X149841953Y-156699244D01*
X149681012Y-156310698D01*
X149447363Y-155961017D01*
X149149983Y-155663637D01*
X148800302Y-155429988D01*
X148411756Y-155269047D01*
X147999279Y-155187000D01*
X147578721Y-155187000D01*
X147166244Y-155269047D01*
X146777698Y-155429988D01*
X146428017Y-155663637D01*
X146130637Y-155961017D01*
X145896988Y-156310698D01*
X145736047Y-156699244D01*
X145654000Y-157111721D01*
X128382891Y-157111721D01*
X128333902Y-157078988D01*
X127945356Y-156918047D01*
X127532879Y-156836000D01*
X127112321Y-156836000D01*
X126699844Y-156918047D01*
X126311298Y-157078988D01*
X125961617Y-157312637D01*
X125664237Y-157610017D01*
X125430588Y-157959698D01*
X125269647Y-158348244D01*
X125187600Y-158760721D01*
X124660000Y-158760721D01*
X124660000Y-152673963D01*
X144254000Y-152673963D01*
X144254000Y-153330036D01*
X144274040Y-153533506D01*
X144353236Y-153794580D01*
X144481843Y-154035187D01*
X144654919Y-154246080D01*
X144865812Y-154419157D01*
X145106419Y-154547764D01*
X145367493Y-154626960D01*
X145639000Y-154653701D01*
X145910506Y-154626960D01*
X146171580Y-154547764D01*
X146412187Y-154419157D01*
X146623080Y-154246081D01*
X146796157Y-154035188D01*
X146924764Y-153794581D01*
X147003960Y-153533507D01*
X147024000Y-153330037D01*
X147024000Y-152673964D01*
X147024000Y-152673963D01*
X147254000Y-152673963D01*
X147254000Y-153330036D01*
X147274040Y-153533506D01*
X147353236Y-153794580D01*
X147481843Y-154035187D01*
X147654919Y-154246080D01*
X147865812Y-154419157D01*
X148106419Y-154547764D01*
X148367493Y-154626960D01*
X148639000Y-154653701D01*
X148910506Y-154626960D01*
X149171580Y-154547764D01*
X149412187Y-154419157D01*
X149623080Y-154246081D01*
X149796157Y-154035188D01*
X149924764Y-153794581D01*
X150003960Y-153533507D01*
X150024000Y-153330037D01*
X150024000Y-152673964D01*
X150024000Y-152673963D01*
X150254000Y-152673963D01*
X150254000Y-153330036D01*
X150274040Y-153533506D01*
X150353236Y-153794580D01*
X150481843Y-154035187D01*
X150654919Y-154246080D01*
X150865812Y-154419157D01*
X151106419Y-154547764D01*
X151367493Y-154626960D01*
X151639000Y-154653701D01*
X151910506Y-154626960D01*
X152171580Y-154547764D01*
X152412187Y-154419157D01*
X152623080Y-154246081D01*
X152796157Y-154035188D01*
X152924764Y-153794581D01*
X153003960Y-153533507D01*
X153024000Y-153330037D01*
X153024000Y-152673964D01*
X153024000Y-152673963D01*
X153254000Y-152673963D01*
X153254000Y-153330036D01*
X153274040Y-153533506D01*
X153353236Y-153794580D01*
X153481843Y-154035187D01*
X153654919Y-154246080D01*
X153865812Y-154419157D01*
X154106419Y-154547764D01*
X154367493Y-154626960D01*
X154639000Y-154653701D01*
X154910506Y-154626960D01*
X155171580Y-154547764D01*
X155412187Y-154419157D01*
X155623080Y-154246081D01*
X155796157Y-154035188D01*
X155924764Y-153794581D01*
X156003960Y-153533507D01*
X156024000Y-153330037D01*
X156024000Y-152673964D01*
X156024000Y-152673963D01*
X156254000Y-152673963D01*
X156254000Y-153330036D01*
X156274040Y-153533506D01*
X156353236Y-153794580D01*
X156481843Y-154035187D01*
X156654919Y-154246080D01*
X156865812Y-154419157D01*
X157106419Y-154547764D01*
X157367493Y-154626960D01*
X157639000Y-154653701D01*
X157910506Y-154626960D01*
X158171580Y-154547764D01*
X158412187Y-154419157D01*
X158623080Y-154246081D01*
X158796157Y-154035188D01*
X158924764Y-153794581D01*
X159003960Y-153533507D01*
X159024000Y-153330037D01*
X159024000Y-152673964D01*
X159024000Y-152673963D01*
X159254000Y-152673963D01*
X159254000Y-153330036D01*
X159274040Y-153533506D01*
X159353236Y-153794580D01*
X159481843Y-154035187D01*
X159654919Y-154246080D01*
X159865812Y-154419157D01*
X160106419Y-154547764D01*
X160367493Y-154626960D01*
X160639000Y-154653701D01*
X160910506Y-154626960D01*
X161171580Y-154547764D01*
X161412187Y-154419157D01*
X161623080Y-154246081D01*
X161796157Y-154035188D01*
X161924764Y-153794581D01*
X162003960Y-153533507D01*
X162024000Y-153330037D01*
X162024000Y-152673964D01*
X162024000Y-152673963D01*
X162254000Y-152673963D01*
X162254000Y-153330036D01*
X162274040Y-153533506D01*
X162353236Y-153794580D01*
X162481843Y-154035187D01*
X162654919Y-154246080D01*
X162865812Y-154419157D01*
X163106419Y-154547764D01*
X163367493Y-154626960D01*
X163639000Y-154653701D01*
X163910506Y-154626960D01*
X164171580Y-154547764D01*
X164412187Y-154419157D01*
X164623080Y-154246081D01*
X164796157Y-154035188D01*
X164924764Y-153794581D01*
X165003960Y-153533507D01*
X165024000Y-153330037D01*
X165024000Y-152673964D01*
X165003960Y-152470494D01*
X164934648Y-152242000D01*
X168250928Y-152242000D01*
X168250928Y-153762000D01*
X168267992Y-153935254D01*
X168318528Y-154101850D01*
X168400595Y-154255386D01*
X168511038Y-154389962D01*
X168645614Y-154500405D01*
X168799150Y-154582472D01*
X168965746Y-154633008D01*
X169139000Y-154650072D01*
X170139000Y-154650072D01*
X170312254Y-154633008D01*
X170478850Y-154582472D01*
X170632386Y-154500405D01*
X170766962Y-154389962D01*
X170877405Y-154255386D01*
X170959472Y-154101850D01*
X171010008Y-153935254D01*
X171027072Y-153762000D01*
X171027072Y-152242000D01*
X171010008Y-152068746D01*
X170959472Y-151902150D01*
X170877405Y-151748614D01*
X170766962Y-151614038D01*
X170632386Y-151503595D01*
X170478850Y-151421528D01*
X170312254Y-151370992D01*
X170139000Y-151353928D01*
X169139000Y-151353928D01*
X168965746Y-151370992D01*
X168799150Y-151421528D01*
X168645614Y-151503595D01*
X168511038Y-151614038D01*
X168400595Y-151748614D01*
X168318528Y-151902150D01*
X168267992Y-152068746D01*
X168250928Y-152242000D01*
X164934648Y-152242000D01*
X164924764Y-152209419D01*
X164796157Y-151968812D01*
X164623081Y-151757919D01*
X164412188Y-151584843D01*
X164171581Y-151456236D01*
X163910507Y-151377040D01*
X163639000Y-151350299D01*
X163367494Y-151377040D01*
X163106420Y-151456236D01*
X162865813Y-151584843D01*
X162654920Y-151757919D01*
X162481843Y-151968812D01*
X162353236Y-152209419D01*
X162274040Y-152470493D01*
X162254000Y-152673963D01*
X162024000Y-152673963D01*
X162003960Y-152470494D01*
X161924764Y-152209419D01*
X161796157Y-151968812D01*
X161623081Y-151757919D01*
X161412188Y-151584843D01*
X161171581Y-151456236D01*
X160910507Y-151377040D01*
X160639000Y-151350299D01*
X160367494Y-151377040D01*
X160106420Y-151456236D01*
X159865813Y-151584843D01*
X159654920Y-151757919D01*
X159481843Y-151968812D01*
X159353236Y-152209419D01*
X159274040Y-152470493D01*
X159254000Y-152673963D01*
X159024000Y-152673963D01*
X159003960Y-152470494D01*
X158924764Y-152209419D01*
X158796157Y-151968812D01*
X158623081Y-151757919D01*
X158412188Y-151584843D01*
X158171581Y-151456236D01*
X157910507Y-151377040D01*
X157639000Y-151350299D01*
X157367494Y-151377040D01*
X157106420Y-151456236D01*
X156865813Y-151584843D01*
X156654920Y-151757919D01*
X156481843Y-151968812D01*
X156353236Y-152209419D01*
X156274040Y-152470493D01*
X156254000Y-152673963D01*
X156024000Y-152673963D01*
X156003960Y-152470494D01*
X155924764Y-152209419D01*
X155796157Y-151968812D01*
X155623081Y-151757919D01*
X155412188Y-151584843D01*
X155171581Y-151456236D01*
X154910507Y-151377040D01*
X154639000Y-151350299D01*
X154367494Y-151377040D01*
X154106420Y-151456236D01*
X153865813Y-151584843D01*
X153654920Y-151757919D01*
X153481843Y-151968812D01*
X153353236Y-152209419D01*
X153274040Y-152470493D01*
X153254000Y-152673963D01*
X153024000Y-152673963D01*
X153003960Y-152470494D01*
X152924764Y-152209419D01*
X152796157Y-151968812D01*
X152623081Y-151757919D01*
X152412188Y-151584843D01*
X152171581Y-151456236D01*
X151910507Y-151377040D01*
X151639000Y-151350299D01*
X151367494Y-151377040D01*
X151106420Y-151456236D01*
X150865813Y-151584843D01*
X150654920Y-151757919D01*
X150481843Y-151968812D01*
X150353236Y-152209419D01*
X150274040Y-152470493D01*
X150254000Y-152673963D01*
X150024000Y-152673963D01*
X150003960Y-152470494D01*
X149924764Y-152209419D01*
X149796157Y-151968812D01*
X149623081Y-151757919D01*
X149412188Y-151584843D01*
X149399000Y-151577794D01*
X149399000Y-148843750D01*
X155011928Y-148843750D01*
X155011928Y-149756250D01*
X155028872Y-149928285D01*
X155079053Y-150093709D01*
X155160542Y-150246164D01*
X155270208Y-150379792D01*
X155403836Y-150489458D01*
X155556291Y-150570947D01*
X155721715Y-150621128D01*
X155893750Y-150638072D01*
X156381250Y-150638072D01*
X156553285Y-150621128D01*
X156718709Y-150570947D01*
X156871164Y-150489458D01*
X157004792Y-150379792D01*
X157021035Y-150360000D01*
X170996289Y-150360000D01*
X171040226Y-150403937D01*
X171209744Y-150517205D01*
X171398102Y-150595226D01*
X171598061Y-150635000D01*
X171801939Y-150635000D01*
X172001898Y-150595226D01*
X172190256Y-150517205D01*
X172359774Y-150403937D01*
X172503937Y-150259774D01*
X172617205Y-150090256D01*
X172695226Y-149901898D01*
X172735000Y-149701939D01*
X172735000Y-149498061D01*
X172695226Y-149298102D01*
X172617205Y-149109744D01*
X172503937Y-148940226D01*
X172359774Y-148796063D01*
X172190256Y-148682795D01*
X172001898Y-148604774D01*
X171801939Y-148565000D01*
X171598061Y-148565000D01*
X171398102Y-148604774D01*
X171209744Y-148682795D01*
X171040226Y-148796063D01*
X170996289Y-148840000D01*
X157262703Y-148840000D01*
X157246128Y-148671715D01*
X157195947Y-148506291D01*
X157114458Y-148353836D01*
X157004792Y-148220208D01*
X156871164Y-148110542D01*
X156718709Y-148029053D01*
X156553285Y-147978872D01*
X156381250Y-147961928D01*
X155893750Y-147961928D01*
X155721715Y-147978872D01*
X155556291Y-148029053D01*
X155403836Y-148110542D01*
X155270208Y-148220208D01*
X155160542Y-148353836D01*
X155079053Y-148506291D01*
X155028872Y-148671715D01*
X155011928Y-148843750D01*
X149399000Y-148843750D01*
X149399000Y-139375801D01*
X152157802Y-136617000D01*
X163601289Y-136617000D01*
X163645226Y-136660937D01*
X163814744Y-136774205D01*
X164003102Y-136852226D01*
X164203061Y-136892000D01*
X164406939Y-136892000D01*
X164606898Y-136852226D01*
X164795256Y-136774205D01*
X164964774Y-136660937D01*
X165108937Y-136516774D01*
X165222205Y-136347256D01*
X165300226Y-136158898D01*
X165340000Y-135958939D01*
X165340000Y-135755061D01*
X165300226Y-135555102D01*
X165222205Y-135366744D01*
X165108937Y-135197226D01*
X164964774Y-135053063D01*
X164795256Y-134939795D01*
X164606898Y-134861774D01*
X164406939Y-134822000D01*
X164203061Y-134822000D01*
X164003102Y-134861774D01*
X163814744Y-134939795D01*
X163645226Y-135053063D01*
X163601289Y-135097000D01*
X151880322Y-135097000D01*
X151842999Y-135093324D01*
X151805676Y-135097000D01*
X151805667Y-135097000D01*
X151694014Y-135107997D01*
X151550753Y-135151454D01*
X151418724Y-135222026D01*
X151302999Y-135316999D01*
X151279201Y-135345997D01*
X148128003Y-138497196D01*
X148098999Y-138520999D01*
X148074367Y-138551014D01*
X148004026Y-138636724D01*
X147990159Y-138662668D01*
X147933454Y-138768754D01*
X147889997Y-138912015D01*
X147879000Y-139023668D01*
X147879000Y-139023678D01*
X147875324Y-139061000D01*
X147879000Y-139098322D01*
X147879001Y-151577794D01*
X147865813Y-151584843D01*
X147654920Y-151757919D01*
X147481843Y-151968812D01*
X147353236Y-152209419D01*
X147274040Y-152470493D01*
X147254000Y-152673963D01*
X147024000Y-152673963D01*
X147003960Y-152470494D01*
X146924764Y-152209419D01*
X146796157Y-151968812D01*
X146623081Y-151757919D01*
X146412188Y-151584843D01*
X146399000Y-151577794D01*
X146399000Y-138175801D01*
X150014802Y-134560000D01*
X165914189Y-134560000D01*
X165898928Y-134714950D01*
X165898928Y-135627450D01*
X165915872Y-135799485D01*
X165966053Y-135964909D01*
X166047542Y-136117364D01*
X166157208Y-136250992D01*
X166290836Y-136360658D01*
X166443291Y-136442147D01*
X166608715Y-136492328D01*
X166780750Y-136509272D01*
X167268250Y-136509272D01*
X167286020Y-136507522D01*
X168416501Y-137638003D01*
X168440299Y-137667001D01*
X168469297Y-137690799D01*
X168556023Y-137761974D01*
X168645871Y-137809999D01*
X168688053Y-137832546D01*
X168831314Y-137876003D01*
X168942967Y-137887000D01*
X168942977Y-137887000D01*
X168980300Y-137890676D01*
X169017623Y-137887000D01*
X169824289Y-137887000D01*
X169868226Y-137930937D01*
X170037744Y-138044205D01*
X170226102Y-138122226D01*
X170426061Y-138162000D01*
X170629939Y-138162000D01*
X170829898Y-138122226D01*
X171018256Y-138044205D01*
X171187774Y-137930937D01*
X171331937Y-137786774D01*
X171445205Y-137617256D01*
X171523226Y-137428898D01*
X171563000Y-137228939D01*
X171563000Y-137025061D01*
X171523226Y-136825102D01*
X171445205Y-136636744D01*
X171331937Y-136467226D01*
X171187774Y-136323063D01*
X171018256Y-136209795D01*
X170829898Y-136131774D01*
X170629939Y-136092000D01*
X170426061Y-136092000D01*
X170226102Y-136131774D01*
X170037744Y-136209795D01*
X169868226Y-136323063D01*
X169824289Y-136367000D01*
X169621299Y-136367000D01*
X169633164Y-136360658D01*
X169766792Y-136250992D01*
X169876458Y-136117364D01*
X169957947Y-135964909D01*
X170008128Y-135799485D01*
X170025072Y-135627450D01*
X170025072Y-134714950D01*
X170008128Y-134542915D01*
X169957947Y-134377491D01*
X169876458Y-134225036D01*
X169766792Y-134091408D01*
X169633164Y-133981742D01*
X169480709Y-133900253D01*
X169369672Y-133866570D01*
X168792103Y-133289002D01*
X168768301Y-133259999D01*
X168652576Y-133165026D01*
X168520547Y-133094454D01*
X168377286Y-133050997D01*
X168265633Y-133040000D01*
X168265622Y-133040000D01*
X168228300Y-133036324D01*
X168190978Y-133040000D01*
X149737322Y-133040000D01*
X149699999Y-133036324D01*
X149662676Y-133040000D01*
X149662667Y-133040000D01*
X149551014Y-133050997D01*
X149407753Y-133094454D01*
X149275724Y-133165026D01*
X149159999Y-133259999D01*
X149136201Y-133288997D01*
X145128003Y-137297196D01*
X145098999Y-137320999D01*
X145043871Y-137388174D01*
X145004026Y-137436724D01*
X144942945Y-137550998D01*
X144933454Y-137568754D01*
X144889997Y-137712015D01*
X144879000Y-137823668D01*
X144879000Y-137823678D01*
X144875324Y-137861000D01*
X144879000Y-137898322D01*
X144879001Y-151577794D01*
X144865813Y-151584843D01*
X144654920Y-151757919D01*
X144481843Y-151968812D01*
X144353236Y-152209419D01*
X144274040Y-152470493D01*
X144254000Y-152673963D01*
X124660000Y-152673963D01*
X124660000Y-124105254D01*
X127395400Y-124105254D01*
X127395400Y-124525812D01*
X127477447Y-124938289D01*
X127638388Y-125326835D01*
X127872037Y-125676516D01*
X128169417Y-125973896D01*
X128519098Y-126207545D01*
X128907644Y-126368486D01*
X129320121Y-126450533D01*
X129740679Y-126450533D01*
X130153156Y-126368486D01*
X130541702Y-126207545D01*
X130891383Y-125973896D01*
X131188763Y-125676516D01*
X131422412Y-125326835D01*
X131427093Y-125315533D01*
X132202328Y-125315533D01*
X132202328Y-126315533D01*
X132219392Y-126488787D01*
X132269928Y-126655383D01*
X132351995Y-126808919D01*
X132462438Y-126943495D01*
X132597014Y-127053938D01*
X132750550Y-127136005D01*
X132917146Y-127186541D01*
X133090400Y-127203605D01*
X134610400Y-127203605D01*
X134783654Y-127186541D01*
X134950250Y-127136005D01*
X135103786Y-127053938D01*
X135238362Y-126943495D01*
X135348805Y-126808919D01*
X135430872Y-126655383D01*
X135481408Y-126488787D01*
X135498472Y-126315533D01*
X135498472Y-125315533D01*
X135481408Y-125142279D01*
X135430872Y-124975683D01*
X135348805Y-124822147D01*
X135238362Y-124687571D01*
X135103786Y-124577128D01*
X134950250Y-124495061D01*
X134783654Y-124444525D01*
X134610400Y-124427461D01*
X133090400Y-124427461D01*
X132917146Y-124444525D01*
X132750550Y-124495061D01*
X132597014Y-124577128D01*
X132462438Y-124687571D01*
X132351995Y-124822147D01*
X132269928Y-124975683D01*
X132219392Y-125142279D01*
X132202328Y-125315533D01*
X131427093Y-125315533D01*
X131583353Y-124938289D01*
X131665400Y-124525812D01*
X131665400Y-124105254D01*
X131583353Y-123692777D01*
X131422412Y-123304231D01*
X131188763Y-122954550D01*
X130891383Y-122657170D01*
X130541702Y-122423521D01*
X130153156Y-122262580D01*
X129740679Y-122180533D01*
X129320121Y-122180533D01*
X128907644Y-122262580D01*
X128519098Y-122423521D01*
X128169417Y-122657170D01*
X127872037Y-122954550D01*
X127638388Y-123304231D01*
X127477447Y-123692777D01*
X127395400Y-124105254D01*
X124660000Y-124105254D01*
X124660000Y-113132000D01*
X132202328Y-113132000D01*
X132202328Y-114132000D01*
X132219392Y-114305254D01*
X132269928Y-114471850D01*
X132351995Y-114625386D01*
X132462438Y-114759962D01*
X132597014Y-114870405D01*
X132750550Y-114952472D01*
X132917146Y-115003008D01*
X133090400Y-115020072D01*
X134610400Y-115020072D01*
X134783654Y-115003008D01*
X134950250Y-114952472D01*
X135103786Y-114870405D01*
X135238362Y-114759962D01*
X135348805Y-114625386D01*
X135430872Y-114471850D01*
X135481408Y-114305254D01*
X135498472Y-114132000D01*
X135498472Y-113132000D01*
X135481408Y-112958746D01*
X135430872Y-112792150D01*
X135348805Y-112638614D01*
X135238362Y-112504038D01*
X135103786Y-112393595D01*
X134950250Y-112311528D01*
X134783654Y-112260992D01*
X134610400Y-112243928D01*
X133090400Y-112243928D01*
X132917146Y-112260992D01*
X132750550Y-112311528D01*
X132597014Y-112393595D01*
X132462438Y-112504038D01*
X132351995Y-112638614D01*
X132269928Y-112792150D01*
X132219392Y-112958746D01*
X132202328Y-113132000D01*
X124660000Y-113132000D01*
X124660000Y-110421721D01*
X127395400Y-110421721D01*
X127395400Y-110842279D01*
X127477447Y-111254756D01*
X127638388Y-111643302D01*
X127872037Y-111992983D01*
X128169417Y-112290363D01*
X128519098Y-112524012D01*
X128907644Y-112684953D01*
X129320121Y-112767000D01*
X129740679Y-112767000D01*
X130153156Y-112684953D01*
X130541702Y-112524012D01*
X130891383Y-112290363D01*
X131188763Y-111992983D01*
X131422412Y-111643302D01*
X131583353Y-111254756D01*
X131665400Y-110842279D01*
X131665400Y-110421721D01*
X131583353Y-110009244D01*
X131422412Y-109620698D01*
X131188763Y-109271017D01*
X130891383Y-108973637D01*
X130541702Y-108739988D01*
X130153156Y-108579047D01*
X129740679Y-108497000D01*
X129320121Y-108497000D01*
X128907644Y-108579047D01*
X128519098Y-108739988D01*
X128169417Y-108973637D01*
X127872037Y-109271017D01*
X127638388Y-109620698D01*
X127477447Y-110009244D01*
X127395400Y-110421721D01*
X124660000Y-110421721D01*
X124660000Y-102498061D01*
X127365000Y-102498061D01*
X127365000Y-102701939D01*
X127404774Y-102901898D01*
X127482795Y-103090256D01*
X127596063Y-103259774D01*
X127652501Y-103316212D01*
X127652500Y-105475177D01*
X127648824Y-105512500D01*
X127652500Y-105549822D01*
X127652500Y-105549832D01*
X127663497Y-105661485D01*
X127690650Y-105750997D01*
X127706954Y-105804746D01*
X127777526Y-105936776D01*
X127817371Y-105985326D01*
X127872499Y-106052501D01*
X127901503Y-106076304D01*
X128336196Y-106510997D01*
X128359999Y-106540001D01*
X128433108Y-106600000D01*
X128475723Y-106634974D01*
X128607753Y-106705546D01*
X128751014Y-106749003D01*
X128862667Y-106760000D01*
X128862676Y-106760000D01*
X128899999Y-106763676D01*
X128937322Y-106760000D01*
X132514336Y-106760000D01*
X132433243Y-106858812D01*
X132304636Y-107099419D01*
X132225440Y-107360493D01*
X132198699Y-107632000D01*
X132225440Y-107903507D01*
X132304636Y-108164581D01*
X132433243Y-108405188D01*
X132606319Y-108616081D01*
X132817212Y-108789157D01*
X133057819Y-108917764D01*
X133318893Y-108996960D01*
X133522363Y-109017000D01*
X134178437Y-109017000D01*
X134381907Y-108996960D01*
X134642981Y-108917764D01*
X134883588Y-108789157D01*
X135094481Y-108616081D01*
X135267557Y-108405188D01*
X135396164Y-108164581D01*
X135475360Y-107903507D01*
X135502101Y-107632000D01*
X135475360Y-107360493D01*
X135396164Y-107099419D01*
X135267557Y-106858812D01*
X135186464Y-106760000D01*
X139085199Y-106760000D01*
X139140001Y-106814802D01*
X139140000Y-114996289D01*
X139096063Y-115040226D01*
X138982795Y-115209744D01*
X138904774Y-115398102D01*
X138865000Y-115598061D01*
X138865000Y-115801939D01*
X138904774Y-116001898D01*
X138982795Y-116190256D01*
X139096063Y-116359774D01*
X139140000Y-116403711D01*
X139140001Y-122055533D01*
X135274606Y-122055533D01*
X135267557Y-122042345D01*
X135094481Y-121831452D01*
X134883588Y-121658376D01*
X134642981Y-121529769D01*
X134381907Y-121450573D01*
X134178437Y-121430533D01*
X133522363Y-121430533D01*
X133318893Y-121450573D01*
X133057819Y-121529769D01*
X132817212Y-121658376D01*
X132606319Y-121831452D01*
X132433243Y-122042345D01*
X132304636Y-122282952D01*
X132225440Y-122544026D01*
X132198699Y-122815533D01*
X132225440Y-123087040D01*
X132304636Y-123348114D01*
X132433243Y-123588721D01*
X132606319Y-123799614D01*
X132817212Y-123972690D01*
X133057819Y-124101297D01*
X133318893Y-124180493D01*
X133522363Y-124200533D01*
X134178437Y-124200533D01*
X134381907Y-124180493D01*
X134642981Y-124101297D01*
X134883588Y-123972690D01*
X135094481Y-123799614D01*
X135267557Y-123588721D01*
X135274606Y-123575533D01*
X139447145Y-123575533D01*
X139484467Y-123579209D01*
X139521789Y-123575533D01*
X139521800Y-123575533D01*
X139633453Y-123564536D01*
X139776714Y-123521079D01*
X139908743Y-123450507D01*
X140024468Y-123355534D01*
X140048270Y-123326531D01*
X140411002Y-122963800D01*
X140440001Y-122940001D01*
X140534974Y-122824276D01*
X140605546Y-122692247D01*
X140649003Y-122548986D01*
X140660000Y-122437333D01*
X140660000Y-122437324D01*
X140663676Y-122400001D01*
X140660000Y-122362678D01*
X140660000Y-116403711D01*
X140703937Y-116359774D01*
X140817205Y-116190256D01*
X140895226Y-116001898D01*
X140935000Y-115801939D01*
X140935000Y-115598061D01*
X140895226Y-115398102D01*
X140817205Y-115209744D01*
X140703937Y-115040226D01*
X140660000Y-114996289D01*
X140660000Y-114923711D01*
X140740226Y-115003937D01*
X140909744Y-115117205D01*
X141098102Y-115195226D01*
X141298061Y-115235000D01*
X141501939Y-115235000D01*
X141701898Y-115195226D01*
X141890256Y-115117205D01*
X142059774Y-115003937D01*
X142203937Y-114859774D01*
X142317205Y-114690256D01*
X142395226Y-114501898D01*
X142435000Y-114301939D01*
X142435000Y-114098061D01*
X142395226Y-113898102D01*
X142317205Y-113709744D01*
X142203937Y-113540226D01*
X142059774Y-113396063D01*
X141890256Y-113282795D01*
X141860000Y-113270262D01*
X141860000Y-110464882D01*
X143389928Y-110464882D01*
X143389928Y-111377382D01*
X143406872Y-111549417D01*
X143457053Y-111714841D01*
X143538542Y-111867296D01*
X143648208Y-112000924D01*
X143781836Y-112110590D01*
X143934291Y-112192079D01*
X144099715Y-112242260D01*
X144271750Y-112259204D01*
X144759250Y-112259204D01*
X144926564Y-112242725D01*
X144895563Y-112273726D01*
X144782295Y-112443244D01*
X144704274Y-112631602D01*
X144664500Y-112831561D01*
X144664500Y-112893698D01*
X144004498Y-113553701D01*
X143975500Y-113577499D01*
X143951702Y-113606497D01*
X143951701Y-113606498D01*
X143880526Y-113693224D01*
X143809954Y-113825254D01*
X143802234Y-113850705D01*
X143766498Y-113968514D01*
X143755501Y-114080167D01*
X143751824Y-114117500D01*
X143755501Y-114154833D01*
X143755500Y-133969855D01*
X143648208Y-134057908D01*
X143538542Y-134191536D01*
X143457053Y-134343991D01*
X143406872Y-134509415D01*
X143389928Y-134681450D01*
X143389928Y-135593950D01*
X143406872Y-135765985D01*
X143457053Y-135931409D01*
X143538542Y-136083864D01*
X143648208Y-136217492D01*
X143781836Y-136327158D01*
X143934291Y-136408647D01*
X144099715Y-136458828D01*
X144271750Y-136475772D01*
X144759250Y-136475772D01*
X144931285Y-136458828D01*
X145096709Y-136408647D01*
X145249164Y-136327158D01*
X145382792Y-136217492D01*
X145492458Y-136083864D01*
X145573947Y-135931409D01*
X145624128Y-135765985D01*
X145641072Y-135593950D01*
X145641072Y-134681450D01*
X145624128Y-134509415D01*
X145573947Y-134343991D01*
X145492458Y-134191536D01*
X145382792Y-134057908D01*
X145275500Y-133969855D01*
X145275500Y-122354601D01*
X151258460Y-122354601D01*
X151258460Y-122558479D01*
X151298234Y-122758438D01*
X151376255Y-122946796D01*
X151489523Y-123116314D01*
X151633686Y-123260477D01*
X151803204Y-123373745D01*
X151991562Y-123451766D01*
X152191521Y-123491540D01*
X152395399Y-123491540D01*
X152595358Y-123451766D01*
X152783716Y-123373745D01*
X152953234Y-123260477D01*
X153097397Y-123116314D01*
X153210665Y-122946796D01*
X153288686Y-122758438D01*
X153328460Y-122558479D01*
X153328460Y-122510000D01*
X159046289Y-122510000D01*
X159090226Y-122553937D01*
X159259744Y-122667205D01*
X159448102Y-122745226D01*
X159648061Y-122785000D01*
X159851939Y-122785000D01*
X160051898Y-122745226D01*
X160240256Y-122667205D01*
X160409774Y-122553937D01*
X160453711Y-122510000D01*
X166646289Y-122510000D01*
X166740226Y-122603937D01*
X166909744Y-122717205D01*
X167098102Y-122795226D01*
X167298061Y-122835000D01*
X167501939Y-122835000D01*
X167701898Y-122795226D01*
X167890256Y-122717205D01*
X168059774Y-122603937D01*
X168203937Y-122459774D01*
X168317205Y-122290256D01*
X168395226Y-122101898D01*
X168435000Y-121901939D01*
X168435000Y-121698061D01*
X168395226Y-121498102D01*
X168317205Y-121309744D01*
X168203937Y-121140226D01*
X168059774Y-120996063D01*
X167890256Y-120882795D01*
X167701898Y-120804774D01*
X167501939Y-120765000D01*
X167298061Y-120765000D01*
X167098102Y-120804774D01*
X166909744Y-120882795D01*
X166749300Y-120990000D01*
X160453711Y-120990000D01*
X160409774Y-120946063D01*
X160240256Y-120832795D01*
X160051898Y-120754774D01*
X159851939Y-120715000D01*
X159648061Y-120715000D01*
X159448102Y-120754774D01*
X159259744Y-120832795D01*
X159090226Y-120946063D01*
X159046289Y-120990000D01*
X153037322Y-120990000D01*
X152999999Y-120986324D01*
X152962676Y-120990000D01*
X152962667Y-120990000D01*
X152851014Y-121000997D01*
X152707753Y-121044454D01*
X152575724Y-121115026D01*
X152575722Y-121115027D01*
X152575723Y-121115027D01*
X152488996Y-121186201D01*
X152488992Y-121186205D01*
X152459999Y-121209999D01*
X152436205Y-121238992D01*
X152253658Y-121421540D01*
X152191521Y-121421540D01*
X151991562Y-121461314D01*
X151803204Y-121539335D01*
X151633686Y-121652603D01*
X151489523Y-121796766D01*
X151376255Y-121966284D01*
X151298234Y-122154642D01*
X151258460Y-122354601D01*
X145275500Y-122354601D01*
X145275500Y-120148061D01*
X170215000Y-120148061D01*
X170215000Y-120351939D01*
X170254774Y-120551898D01*
X170332795Y-120740256D01*
X170446063Y-120909774D01*
X170590226Y-121053937D01*
X170759744Y-121167205D01*
X170948102Y-121245226D01*
X171148061Y-121285000D01*
X171351939Y-121285000D01*
X171551898Y-121245226D01*
X171740256Y-121167205D01*
X171909774Y-121053937D01*
X172053937Y-120909774D01*
X172167205Y-120740256D01*
X172245226Y-120551898D01*
X172285000Y-120351939D01*
X172285000Y-120338000D01*
X176423794Y-120338000D01*
X176430843Y-120351188D01*
X176603919Y-120562081D01*
X176814812Y-120735157D01*
X176826114Y-120741198D01*
X176864224Y-120772474D01*
X176996254Y-120843046D01*
X177043432Y-120857357D01*
X177055419Y-120863764D01*
X177316493Y-120942960D01*
X177519963Y-120963000D01*
X178176037Y-120963000D01*
X178379507Y-120942960D01*
X178640581Y-120863764D01*
X178881188Y-120735157D01*
X179092081Y-120562081D01*
X179265157Y-120351188D01*
X179393764Y-120110581D01*
X179472960Y-119849507D01*
X179499701Y-119578000D01*
X179472960Y-119306493D01*
X179393764Y-119045419D01*
X179265157Y-118804812D01*
X179092081Y-118593919D01*
X178881188Y-118420843D01*
X178640581Y-118292236D01*
X178379507Y-118213040D01*
X178176037Y-118193000D01*
X177519963Y-118193000D01*
X177316493Y-118213040D01*
X177055419Y-118292236D01*
X176814812Y-118420843D01*
X176603919Y-118593919D01*
X176430843Y-118804812D01*
X176423794Y-118818000D01*
X171959333Y-118818000D01*
X171922000Y-118814323D01*
X171884667Y-118818000D01*
X171773014Y-118828997D01*
X171629753Y-118872454D01*
X171497724Y-118943026D01*
X171381999Y-119037999D01*
X171358200Y-119066998D01*
X171210198Y-119215000D01*
X171148061Y-119215000D01*
X170948102Y-119254774D01*
X170759744Y-119332795D01*
X170590226Y-119446063D01*
X170446063Y-119590226D01*
X170332795Y-119759744D01*
X170254774Y-119948102D01*
X170215000Y-120148061D01*
X145275500Y-120148061D01*
X145275500Y-114432301D01*
X145739302Y-113968500D01*
X145801439Y-113968500D01*
X146001398Y-113928726D01*
X146189756Y-113850705D01*
X146359274Y-113737437D01*
X146503437Y-113593274D01*
X146616705Y-113423756D01*
X146694726Y-113235398D01*
X146734500Y-113035439D01*
X146734500Y-112831561D01*
X146694726Y-112631602D01*
X146616705Y-112443244D01*
X146503437Y-112273726D01*
X146359274Y-112129563D01*
X146189756Y-112016295D01*
X146001398Y-111938274D01*
X145801439Y-111898500D01*
X145597561Y-111898500D01*
X145441349Y-111929572D01*
X145492458Y-111867296D01*
X145573947Y-111714841D01*
X145598621Y-111633501D01*
X145621115Y-111626678D01*
X145753144Y-111556106D01*
X145868869Y-111461133D01*
X145892671Y-111432130D01*
X146813799Y-110511003D01*
X146813803Y-110510998D01*
X147789802Y-109535000D01*
X147851939Y-109535000D01*
X148051898Y-109495226D01*
X148240256Y-109417205D01*
X148409774Y-109303937D01*
X148553937Y-109159774D01*
X148667205Y-108990256D01*
X148745226Y-108801898D01*
X148785000Y-108601939D01*
X148785000Y-108398061D01*
X148745226Y-108198102D01*
X148667205Y-108009744D01*
X148553937Y-107840226D01*
X148409774Y-107696063D01*
X148240256Y-107582795D01*
X148051898Y-107504774D01*
X147851939Y-107465000D01*
X147648061Y-107465000D01*
X147448102Y-107504774D01*
X147259744Y-107582795D01*
X147090226Y-107696063D01*
X146946063Y-107840226D01*
X146832795Y-108009744D01*
X146754774Y-108198102D01*
X146715000Y-108398061D01*
X146715000Y-108460198D01*
X145739002Y-109436197D01*
X145738997Y-109436201D01*
X145355915Y-109819283D01*
X145249164Y-109731674D01*
X145096709Y-109650185D01*
X144931285Y-109600004D01*
X144759250Y-109583060D01*
X144271750Y-109583060D01*
X144099715Y-109600004D01*
X143934291Y-109650185D01*
X143781836Y-109731674D01*
X143648208Y-109841340D01*
X143538542Y-109974968D01*
X143457053Y-110127423D01*
X143406872Y-110292847D01*
X143389928Y-110464882D01*
X141860000Y-110464882D01*
X141860000Y-106914801D01*
X142014802Y-106760000D01*
X143862678Y-106760000D01*
X143900000Y-106763676D01*
X143937322Y-106760000D01*
X143937333Y-106760000D01*
X144048986Y-106749003D01*
X144192247Y-106705546D01*
X144324276Y-106634974D01*
X144440001Y-106540001D01*
X144463803Y-106510998D01*
X145026509Y-105948294D01*
X145055501Y-105924501D01*
X145079295Y-105895508D01*
X145079299Y-105895504D01*
X145150473Y-105808777D01*
X145150474Y-105808776D01*
X145221046Y-105676747D01*
X145264503Y-105533486D01*
X145275500Y-105421833D01*
X145275500Y-105421824D01*
X145279176Y-105384501D01*
X145275500Y-105347178D01*
X145275500Y-96898061D01*
X148165000Y-96898061D01*
X148165000Y-97101939D01*
X148204774Y-97301898D01*
X148282795Y-97490256D01*
X148396063Y-97659774D01*
X148440001Y-97703712D01*
X148440000Y-103296289D01*
X148396063Y-103340226D01*
X148282795Y-103509744D01*
X148204774Y-103698102D01*
X148165000Y-103898061D01*
X148165000Y-104101939D01*
X148204774Y-104301898D01*
X148282795Y-104490256D01*
X148396063Y-104659774D01*
X148540226Y-104803937D01*
X148709744Y-104917205D01*
X148898102Y-104995226D01*
X149098061Y-105035000D01*
X149301939Y-105035000D01*
X149501898Y-104995226D01*
X149690256Y-104917205D01*
X149859774Y-104803937D01*
X150003937Y-104659774D01*
X150117205Y-104490256D01*
X150195226Y-104301898D01*
X150235000Y-104101939D01*
X150235000Y-103898061D01*
X150195226Y-103698102D01*
X150117205Y-103509744D01*
X150003937Y-103340226D01*
X149960000Y-103296289D01*
X149960000Y-97703711D01*
X150003937Y-97659774D01*
X150117205Y-97490256D01*
X150195226Y-97301898D01*
X150235000Y-97101939D01*
X150235000Y-96898061D01*
X150195226Y-96698102D01*
X150117205Y-96509744D01*
X150003937Y-96340226D01*
X149859774Y-96196063D01*
X149690256Y-96082795D01*
X149501898Y-96004774D01*
X149301939Y-95965000D01*
X149098061Y-95965000D01*
X148898102Y-96004774D01*
X148709744Y-96082795D01*
X148540226Y-96196063D01*
X148396063Y-96340226D01*
X148282795Y-96509744D01*
X148204774Y-96698102D01*
X148165000Y-96898061D01*
X145275500Y-96898061D01*
X145275500Y-92952411D01*
X145382792Y-92864358D01*
X145492458Y-92730730D01*
X145573947Y-92578275D01*
X145624128Y-92412851D01*
X145641072Y-92240816D01*
X145641072Y-91328316D01*
X145624128Y-91156281D01*
X145573947Y-90990857D01*
X145492458Y-90838402D01*
X145382792Y-90704774D01*
X145249164Y-90595108D01*
X145096709Y-90513619D01*
X144931285Y-90463438D01*
X144759250Y-90446494D01*
X144271750Y-90446494D01*
X144099715Y-90463438D01*
X143934291Y-90513619D01*
X143781836Y-90595108D01*
X143648208Y-90704774D01*
X143538542Y-90838402D01*
X143457053Y-90990857D01*
X143406872Y-91156281D01*
X143389928Y-91328316D01*
X143389928Y-92240816D01*
X143406872Y-92412851D01*
X143457053Y-92578275D01*
X143538542Y-92730730D01*
X143648208Y-92864358D01*
X143755501Y-92952411D01*
X143755500Y-105069698D01*
X143585198Y-105240000D01*
X141737322Y-105240000D01*
X141699999Y-105236324D01*
X141662676Y-105240000D01*
X141662667Y-105240000D01*
X141551014Y-105250997D01*
X141407753Y-105294454D01*
X141275723Y-105365026D01*
X141206504Y-105421833D01*
X141159999Y-105459999D01*
X141136200Y-105488998D01*
X140588998Y-106036201D01*
X140560000Y-106059999D01*
X140539755Y-106084668D01*
X140534974Y-106075724D01*
X140440001Y-105959999D01*
X140410997Y-105936196D01*
X139963804Y-105489003D01*
X139940001Y-105459999D01*
X139824276Y-105365026D01*
X139692247Y-105294454D01*
X139548986Y-105250997D01*
X139437333Y-105240000D01*
X139437322Y-105240000D01*
X139400000Y-105236324D01*
X139362678Y-105240000D01*
X129214801Y-105240000D01*
X129172500Y-105197699D01*
X129172500Y-103291211D01*
X129203937Y-103259774D01*
X129317205Y-103090256D01*
X129395226Y-102901898D01*
X129435000Y-102701939D01*
X129435000Y-102498061D01*
X129395226Y-102298102D01*
X129317205Y-102109744D01*
X129203937Y-101940226D01*
X129059774Y-101796063D01*
X128890256Y-101682795D01*
X128701898Y-101604774D01*
X128501939Y-101565000D01*
X128298061Y-101565000D01*
X128098102Y-101604774D01*
X127909744Y-101682795D01*
X127740226Y-101796063D01*
X127596063Y-101940226D01*
X127482795Y-102109744D01*
X127404774Y-102298102D01*
X127365000Y-102498061D01*
X124660000Y-102498061D01*
X124660000Y-99098061D01*
X125565000Y-99098061D01*
X125565000Y-99301939D01*
X125604774Y-99501898D01*
X125682795Y-99690256D01*
X125796063Y-99859774D01*
X125940226Y-100003937D01*
X126109744Y-100117205D01*
X126298102Y-100195226D01*
X126498061Y-100235000D01*
X126701939Y-100235000D01*
X126901898Y-100195226D01*
X127090256Y-100117205D01*
X127259774Y-100003937D01*
X127403937Y-99859774D01*
X127517205Y-99690256D01*
X127595226Y-99501898D01*
X127635000Y-99301939D01*
X127635000Y-99239801D01*
X128314802Y-98560000D01*
X129096289Y-98560000D01*
X129140226Y-98603937D01*
X129309744Y-98717205D01*
X129498102Y-98795226D01*
X129698061Y-98835000D01*
X129901939Y-98835000D01*
X130101898Y-98795226D01*
X130290256Y-98717205D01*
X130459774Y-98603937D01*
X130603937Y-98459774D01*
X130717205Y-98290256D01*
X130795226Y-98101898D01*
X130835000Y-97901939D01*
X130835000Y-97698061D01*
X130795226Y-97498102D01*
X130717205Y-97309744D01*
X130603937Y-97140226D01*
X130459774Y-96996063D01*
X130290256Y-96882795D01*
X130101898Y-96804774D01*
X129901939Y-96765000D01*
X129698061Y-96765000D01*
X129498102Y-96804774D01*
X129309744Y-96882795D01*
X129140226Y-96996063D01*
X129096289Y-97040000D01*
X128037322Y-97040000D01*
X127999999Y-97036324D01*
X127962677Y-97040000D01*
X127962667Y-97040000D01*
X127851014Y-97050997D01*
X127707753Y-97094454D01*
X127575724Y-97165026D01*
X127459999Y-97259999D01*
X127436196Y-97289003D01*
X127389003Y-97336196D01*
X127388997Y-97336201D01*
X126560199Y-98165000D01*
X126498061Y-98165000D01*
X126298102Y-98204774D01*
X126109744Y-98282795D01*
X125940226Y-98396063D01*
X125796063Y-98540226D01*
X125682795Y-98709744D01*
X125604774Y-98898102D01*
X125565000Y-99098061D01*
X124660000Y-99098061D01*
X124660000Y-67143750D01*
X141536928Y-67143750D01*
X141536928Y-68056250D01*
X141553872Y-68228285D01*
X141604053Y-68393709D01*
X141685542Y-68546164D01*
X141795208Y-68679792D01*
X141928836Y-68789458D01*
X142081291Y-68870947D01*
X142246715Y-68921128D01*
X142418750Y-68938072D01*
X142906250Y-68938072D01*
X142924020Y-68936322D01*
X143498700Y-69511002D01*
X143522499Y-69540001D01*
X143551497Y-69563799D01*
X143638223Y-69634974D01*
X143770253Y-69705546D01*
X143913514Y-69749003D01*
X144025167Y-69760000D01*
X144025177Y-69760000D01*
X144062500Y-69763676D01*
X144099822Y-69760000D01*
X151085199Y-69760000D01*
X152496000Y-71170802D01*
X152496001Y-94203601D01*
X152301939Y-94165000D01*
X152098061Y-94165000D01*
X151898102Y-94204774D01*
X151709744Y-94282795D01*
X151540226Y-94396063D01*
X151396063Y-94540226D01*
X151282795Y-94709744D01*
X151204774Y-94898102D01*
X151165000Y-95098061D01*
X151165000Y-95301939D01*
X151204774Y-95501898D01*
X151282795Y-95690256D01*
X151396063Y-95859774D01*
X151440000Y-95903711D01*
X151440001Y-116685197D01*
X151085199Y-117040000D01*
X149903711Y-117040000D01*
X149859774Y-116996063D01*
X149690256Y-116882795D01*
X149501898Y-116804774D01*
X149301939Y-116765000D01*
X149098061Y-116765000D01*
X148898102Y-116804774D01*
X148709744Y-116882795D01*
X148540226Y-116996063D01*
X148396063Y-117140226D01*
X148282795Y-117309744D01*
X148204774Y-117498102D01*
X148165000Y-117698061D01*
X148165000Y-117901939D01*
X148204774Y-118101898D01*
X148282795Y-118290256D01*
X148396063Y-118459774D01*
X148540226Y-118603937D01*
X148709744Y-118717205D01*
X148898102Y-118795226D01*
X149098061Y-118835000D01*
X149301939Y-118835000D01*
X149501898Y-118795226D01*
X149690256Y-118717205D01*
X149859774Y-118603937D01*
X149903711Y-118560000D01*
X151362678Y-118560000D01*
X151400000Y-118563676D01*
X151437322Y-118560000D01*
X151437333Y-118560000D01*
X151548986Y-118549003D01*
X151692247Y-118505546D01*
X151824276Y-118434974D01*
X151940001Y-118340001D01*
X151963803Y-118310998D01*
X152711002Y-117563799D01*
X152740001Y-117540001D01*
X152834974Y-117424276D01*
X152905546Y-117292247D01*
X152949003Y-117148986D01*
X152960000Y-117037333D01*
X152960000Y-117037323D01*
X152963676Y-117000000D01*
X152960000Y-116962677D01*
X152960000Y-111383967D01*
X153009744Y-111417205D01*
X153198102Y-111495226D01*
X153398061Y-111535000D01*
X153601939Y-111535000D01*
X153801898Y-111495226D01*
X153990256Y-111417205D01*
X154159774Y-111303937D01*
X154303937Y-111159774D01*
X154417205Y-110990256D01*
X154495226Y-110801898D01*
X154535000Y-110601939D01*
X154535000Y-110398061D01*
X154506400Y-110254276D01*
X154551898Y-110245226D01*
X154740256Y-110167205D01*
X154909774Y-110053937D01*
X155053937Y-109909774D01*
X155167205Y-109740256D01*
X155205393Y-109648061D01*
X159965000Y-109648061D01*
X159965000Y-109851939D01*
X160004774Y-110051898D01*
X160082795Y-110240256D01*
X160196063Y-110409774D01*
X160340226Y-110553937D01*
X160509744Y-110667205D01*
X160698102Y-110745226D01*
X160898061Y-110785000D01*
X160960199Y-110785000D01*
X162490000Y-112314802D01*
X162490001Y-115212668D01*
X162486324Y-115250000D01*
X162490001Y-115287333D01*
X162500998Y-115398986D01*
X162503658Y-115407754D01*
X162544454Y-115542246D01*
X162615026Y-115674276D01*
X162667447Y-115738150D01*
X162710000Y-115790001D01*
X162738997Y-115813798D01*
X163236205Y-116311007D01*
X163259999Y-116340001D01*
X163288992Y-116363795D01*
X163288996Y-116363799D01*
X163339866Y-116405546D01*
X163375724Y-116434974D01*
X163507753Y-116505546D01*
X163651014Y-116549003D01*
X163762667Y-116560000D01*
X163762676Y-116560000D01*
X163799999Y-116563676D01*
X163837322Y-116560000D01*
X169662678Y-116560000D01*
X169700000Y-116563676D01*
X169737322Y-116560000D01*
X169737333Y-116560000D01*
X169848986Y-116549003D01*
X169992247Y-116505546D01*
X170124276Y-116434974D01*
X170240001Y-116340001D01*
X170263804Y-116310997D01*
X173740001Y-112834801D01*
X173740001Y-113862668D01*
X173736324Y-113900000D01*
X173740001Y-113937332D01*
X173740001Y-113937333D01*
X173750998Y-114048986D01*
X173764180Y-114092442D01*
X173794454Y-114192246D01*
X173865026Y-114324276D01*
X173935170Y-114409746D01*
X173960000Y-114440001D01*
X173988998Y-114463799D01*
X175036200Y-115511002D01*
X175059999Y-115540001D01*
X175088997Y-115563799D01*
X175175723Y-115634974D01*
X175297377Y-115700000D01*
X175307753Y-115705546D01*
X175451014Y-115749003D01*
X175562667Y-115760000D01*
X175562677Y-115760000D01*
X175600000Y-115763676D01*
X175637323Y-115760000D01*
X176260900Y-115760000D01*
X176216992Y-115904746D01*
X176199928Y-116078000D01*
X176199928Y-117078000D01*
X176216992Y-117251254D01*
X176267528Y-117417850D01*
X176349595Y-117571386D01*
X176460038Y-117705962D01*
X176594614Y-117816405D01*
X176748150Y-117898472D01*
X176914746Y-117949008D01*
X177088000Y-117966072D01*
X178608000Y-117966072D01*
X178781254Y-117949008D01*
X178947850Y-117898472D01*
X179101386Y-117816405D01*
X179235962Y-117705962D01*
X179346405Y-117571386D01*
X179428472Y-117417850D01*
X179479008Y-117251254D01*
X179496072Y-117078000D01*
X179496072Y-117014729D01*
X180150802Y-116360000D01*
X180896270Y-116360000D01*
X180807017Y-116419637D01*
X180509637Y-116717017D01*
X180275988Y-117066698D01*
X180115047Y-117455244D01*
X180033000Y-117867721D01*
X180033000Y-118288279D01*
X180115047Y-118700756D01*
X180275988Y-119089302D01*
X180509637Y-119438983D01*
X180807017Y-119736363D01*
X181156698Y-119970012D01*
X181545244Y-120130953D01*
X181957721Y-120213000D01*
X182378279Y-120213000D01*
X182790756Y-120130953D01*
X183179302Y-119970012D01*
X183528983Y-119736363D01*
X183826363Y-119438983D01*
X184060012Y-119089302D01*
X184220953Y-118700756D01*
X184240000Y-118605000D01*
X184240001Y-131279003D01*
X184220953Y-131183244D01*
X184060012Y-130794698D01*
X183826363Y-130445017D01*
X183528983Y-130147637D01*
X183179302Y-129913988D01*
X182790756Y-129753047D01*
X182378279Y-129671000D01*
X181957721Y-129671000D01*
X181545244Y-129753047D01*
X181156698Y-129913988D01*
X180807017Y-130147637D01*
X180509637Y-130445017D01*
X180328600Y-130715958D01*
X180240001Y-130607999D01*
X180211004Y-130584202D01*
X179496072Y-129869271D01*
X179496072Y-129806000D01*
X179479008Y-129632746D01*
X179428472Y-129466150D01*
X179346405Y-129312614D01*
X179235962Y-129178038D01*
X179101386Y-129067595D01*
X178947850Y-128985528D01*
X178781254Y-128934992D01*
X178608000Y-128917928D01*
X177088000Y-128917928D01*
X176914746Y-128934992D01*
X176748150Y-128985528D01*
X176594614Y-129067595D01*
X176460038Y-129178038D01*
X176349595Y-129312614D01*
X176267528Y-129466150D01*
X176216992Y-129632746D01*
X176199928Y-129806000D01*
X176199928Y-130806000D01*
X176216992Y-130979254D01*
X176267528Y-131145850D01*
X176349595Y-131299386D01*
X176460038Y-131433962D01*
X176594614Y-131544405D01*
X176748150Y-131626472D01*
X176914746Y-131677008D01*
X177088000Y-131694072D01*
X178608000Y-131694072D01*
X178781254Y-131677008D01*
X178940000Y-131628853D01*
X178940000Y-132197109D01*
X178881188Y-132148843D01*
X178640581Y-132020236D01*
X178379507Y-131941040D01*
X178176037Y-131921000D01*
X177519963Y-131921000D01*
X177316493Y-131941040D01*
X177055419Y-132020236D01*
X176814812Y-132148843D01*
X176603919Y-132321919D01*
X176430843Y-132532812D01*
X176302236Y-132773419D01*
X176223040Y-133034493D01*
X176196299Y-133306000D01*
X176223040Y-133577507D01*
X176302236Y-133838581D01*
X176430843Y-134079188D01*
X176603919Y-134290081D01*
X176814812Y-134463157D01*
X177055419Y-134591764D01*
X177316493Y-134670960D01*
X177519963Y-134691000D01*
X178176037Y-134691000D01*
X178379507Y-134670960D01*
X178640581Y-134591764D01*
X178881188Y-134463157D01*
X178940000Y-134414891D01*
X178940001Y-137758130D01*
X178759744Y-137832795D01*
X178590226Y-137946063D01*
X178446063Y-138090226D01*
X178332795Y-138259744D01*
X178254774Y-138448102D01*
X178215000Y-138648061D01*
X178215000Y-138851939D01*
X178254774Y-139051898D01*
X178332795Y-139240256D01*
X178446063Y-139409774D01*
X178590226Y-139553937D01*
X178759744Y-139667205D01*
X178948102Y-139745226D01*
X179148061Y-139785000D01*
X179351939Y-139785000D01*
X179551898Y-139745226D01*
X179740256Y-139667205D01*
X179909774Y-139553937D01*
X180053937Y-139409774D01*
X180167205Y-139240256D01*
X180245226Y-139051898D01*
X180285000Y-138851939D01*
X180285000Y-138785170D01*
X180320226Y-138742247D01*
X180334974Y-138724277D01*
X180405546Y-138592247D01*
X180418053Y-138551015D01*
X180449003Y-138448986D01*
X180460000Y-138337333D01*
X180460000Y-138337324D01*
X180463676Y-138300001D01*
X180460000Y-138262678D01*
X180460000Y-133092696D01*
X180509637Y-133166983D01*
X180807017Y-133464363D01*
X181156698Y-133698012D01*
X181545244Y-133858953D01*
X181957721Y-133941000D01*
X182378279Y-133941000D01*
X182790756Y-133858953D01*
X183179302Y-133698012D01*
X183528983Y-133464363D01*
X183826363Y-133166983D01*
X184060012Y-132817302D01*
X184220953Y-132428756D01*
X184240001Y-132332997D01*
X184240001Y-135885197D01*
X183149277Y-136975922D01*
X183149272Y-136975926D01*
X182410199Y-137715000D01*
X182398061Y-137715000D01*
X182198102Y-137754774D01*
X182009744Y-137832795D01*
X181840226Y-137946063D01*
X181696063Y-138090226D01*
X181582795Y-138259744D01*
X181504774Y-138448102D01*
X181465000Y-138648061D01*
X181465000Y-138851939D01*
X181504774Y-139051898D01*
X181582795Y-139240256D01*
X181696063Y-139409774D01*
X181840226Y-139553937D01*
X182009744Y-139667205D01*
X182198102Y-139745226D01*
X182398061Y-139785000D01*
X182601939Y-139785000D01*
X182801898Y-139745226D01*
X182990256Y-139667205D01*
X183159774Y-139553937D01*
X183303937Y-139409774D01*
X183417205Y-139240256D01*
X183495226Y-139051898D01*
X183535000Y-138851939D01*
X183535000Y-138739801D01*
X184224074Y-138050728D01*
X184224078Y-138050723D01*
X185040000Y-137234802D01*
X185040000Y-137996289D01*
X184946063Y-138090226D01*
X184832795Y-138259744D01*
X184754774Y-138448102D01*
X184715000Y-138648061D01*
X184715000Y-138851939D01*
X184754774Y-139051898D01*
X184832795Y-139240256D01*
X184946063Y-139409774D01*
X185090226Y-139553937D01*
X185259744Y-139667205D01*
X185448102Y-139745226D01*
X185648061Y-139785000D01*
X185851939Y-139785000D01*
X186051898Y-139745226D01*
X186240256Y-139667205D01*
X186409774Y-139553937D01*
X186553937Y-139409774D01*
X186667205Y-139240256D01*
X186745226Y-139051898D01*
X186785000Y-138851939D01*
X186785000Y-138648061D01*
X186745226Y-138448102D01*
X186667205Y-138259744D01*
X186560000Y-138099300D01*
X186560000Y-116637325D01*
X186563676Y-116600000D01*
X186560000Y-116562675D01*
X186560000Y-116562667D01*
X186549003Y-116451014D01*
X186505546Y-116307753D01*
X186434974Y-116175724D01*
X186340001Y-116059999D01*
X186311003Y-116036201D01*
X184763804Y-114489003D01*
X184740001Y-114459999D01*
X184624276Y-114365026D01*
X184492247Y-114294454D01*
X184348986Y-114250997D01*
X184237333Y-114240000D01*
X184237322Y-114240000D01*
X184200000Y-114236324D01*
X184162678Y-114240000D01*
X175914802Y-114240000D01*
X175260000Y-113585199D01*
X175260000Y-111037332D01*
X175263677Y-111000000D01*
X175260000Y-110962667D01*
X175260000Y-105850000D01*
X176196299Y-105850000D01*
X176223040Y-106121507D01*
X176302236Y-106382581D01*
X176430843Y-106623188D01*
X176603919Y-106834081D01*
X176814812Y-107007157D01*
X177055419Y-107135764D01*
X177316493Y-107214960D01*
X177519963Y-107235000D01*
X178176037Y-107235000D01*
X178379507Y-107214960D01*
X178640581Y-107135764D01*
X178881188Y-107007157D01*
X179092081Y-106834081D01*
X179265157Y-106623188D01*
X179393764Y-106382581D01*
X179472960Y-106121507D01*
X179499701Y-105850000D01*
X179472960Y-105578493D01*
X179393764Y-105317419D01*
X179265157Y-105076812D01*
X179092081Y-104865919D01*
X178881188Y-104692843D01*
X178640581Y-104564236D01*
X178379507Y-104485040D01*
X178176037Y-104465000D01*
X177519963Y-104465000D01*
X177316493Y-104485040D01*
X177055419Y-104564236D01*
X176814812Y-104692843D01*
X176603919Y-104865919D01*
X176430843Y-105076812D01*
X176302236Y-105317419D01*
X176223040Y-105578493D01*
X176196299Y-105850000D01*
X175260000Y-105850000D01*
X175260000Y-105502801D01*
X176646606Y-104116196D01*
X176748150Y-104170472D01*
X176914746Y-104221008D01*
X177088000Y-104238072D01*
X178608000Y-104238072D01*
X178781254Y-104221008D01*
X178947850Y-104170472D01*
X179005380Y-104139721D01*
X180033000Y-104139721D01*
X180033000Y-104560279D01*
X180115047Y-104972756D01*
X180275988Y-105361302D01*
X180509637Y-105710983D01*
X180807017Y-106008363D01*
X181156698Y-106242012D01*
X181545244Y-106402953D01*
X181957721Y-106485000D01*
X182378279Y-106485000D01*
X182790756Y-106402953D01*
X183179302Y-106242012D01*
X183528983Y-106008363D01*
X183826363Y-105710983D01*
X184060012Y-105361302D01*
X184220953Y-104972756D01*
X184303000Y-104560279D01*
X184303000Y-104139721D01*
X184220953Y-103727244D01*
X184060012Y-103338698D01*
X183826363Y-102989017D01*
X183528983Y-102691637D01*
X183179302Y-102457988D01*
X182790756Y-102297047D01*
X182378279Y-102215000D01*
X181957721Y-102215000D01*
X181545244Y-102297047D01*
X181156698Y-102457988D01*
X180807017Y-102691637D01*
X180509637Y-102989017D01*
X180275988Y-103338698D01*
X180115047Y-103727244D01*
X180033000Y-104139721D01*
X179005380Y-104139721D01*
X179101386Y-104088405D01*
X179235962Y-103977962D01*
X179346405Y-103843386D01*
X179428472Y-103689850D01*
X179479008Y-103523254D01*
X179496072Y-103350000D01*
X179496072Y-102350000D01*
X179479008Y-102176746D01*
X179428472Y-102010150D01*
X179346405Y-101856614D01*
X179235962Y-101722038D01*
X179101386Y-101611595D01*
X178947850Y-101529528D01*
X178781254Y-101478992D01*
X178608000Y-101461928D01*
X177088000Y-101461928D01*
X176914746Y-101478992D01*
X176748150Y-101529528D01*
X176594614Y-101611595D01*
X176460038Y-101722038D01*
X176349595Y-101856614D01*
X176267528Y-102010150D01*
X176216992Y-102176746D01*
X176199928Y-102350000D01*
X176199928Y-102413270D01*
X173988998Y-104624201D01*
X173960000Y-104647999D01*
X173936202Y-104676997D01*
X173936201Y-104676998D01*
X173865026Y-104763724D01*
X173794454Y-104895754D01*
X173750998Y-105039015D01*
X173736324Y-105188000D01*
X173740001Y-105225332D01*
X173740000Y-110685198D01*
X172989002Y-111436197D01*
X172988997Y-111436201D01*
X169385199Y-115040000D01*
X164114802Y-115040000D01*
X164010000Y-114935198D01*
X164010000Y-112037333D01*
X164013677Y-112000000D01*
X163999003Y-111851014D01*
X163955546Y-111707753D01*
X163884974Y-111575724D01*
X163813799Y-111488997D01*
X163790001Y-111459999D01*
X163761003Y-111436201D01*
X162035000Y-109710199D01*
X162035000Y-109648061D01*
X161995226Y-109448102D01*
X161917205Y-109259744D01*
X161803937Y-109090226D01*
X161659774Y-108946063D01*
X161490256Y-108832795D01*
X161301898Y-108754774D01*
X161101939Y-108715000D01*
X160898061Y-108715000D01*
X160698102Y-108754774D01*
X160509744Y-108832795D01*
X160340226Y-108946063D01*
X160196063Y-109090226D01*
X160082795Y-109259744D01*
X160004774Y-109448102D01*
X159965000Y-109648061D01*
X155205393Y-109648061D01*
X155245226Y-109551898D01*
X155285000Y-109351939D01*
X155285000Y-109148061D01*
X155245226Y-108948102D01*
X155167205Y-108759744D01*
X155053937Y-108590226D01*
X154909774Y-108446063D01*
X154841500Y-108400444D01*
X154841500Y-100025031D01*
X154899661Y-100036600D01*
X155103539Y-100036600D01*
X155303498Y-99996826D01*
X155491856Y-99918805D01*
X155661374Y-99805537D01*
X155705311Y-99761600D01*
X166286799Y-99761600D01*
X166640001Y-100114803D01*
X166640000Y-106976549D01*
X166498102Y-107004774D01*
X166309744Y-107082795D01*
X166140226Y-107196063D01*
X165996063Y-107340226D01*
X165882795Y-107509744D01*
X165804774Y-107698102D01*
X165765000Y-107898061D01*
X165765000Y-108101939D01*
X165804774Y-108301898D01*
X165882795Y-108490256D01*
X165996063Y-108659774D01*
X166140226Y-108803937D01*
X166309744Y-108917205D01*
X166498102Y-108995226D01*
X166611340Y-109017750D01*
X166682795Y-109190256D01*
X166796063Y-109359774D01*
X166940226Y-109503937D01*
X167109744Y-109617205D01*
X167298102Y-109695226D01*
X167498061Y-109735000D01*
X167701939Y-109735000D01*
X167901898Y-109695226D01*
X168090256Y-109617205D01*
X168244123Y-109514394D01*
X168193954Y-109608254D01*
X168181235Y-109650185D01*
X168150498Y-109751514D01*
X168143331Y-109824277D01*
X168142824Y-109829427D01*
X168032208Y-109920208D01*
X167922542Y-110053836D01*
X167841053Y-110206291D01*
X167790872Y-110371715D01*
X167773928Y-110543750D01*
X167773928Y-111456250D01*
X167790872Y-111628285D01*
X167841053Y-111793709D01*
X167922542Y-111946164D01*
X168032208Y-112079792D01*
X168165836Y-112189458D01*
X168318291Y-112270947D01*
X168483715Y-112321128D01*
X168655750Y-112338072D01*
X169143250Y-112338072D01*
X169315285Y-112321128D01*
X169480709Y-112270947D01*
X169633164Y-112189458D01*
X169766792Y-112079792D01*
X169876458Y-111946164D01*
X169957947Y-111793709D01*
X170008128Y-111628285D01*
X170025072Y-111456250D01*
X170025072Y-110543750D01*
X170008128Y-110371715D01*
X169957947Y-110206291D01*
X169876458Y-110053836D01*
X169851444Y-110023357D01*
X169910997Y-109963804D01*
X169940001Y-109940001D01*
X170020970Y-109841340D01*
X170034974Y-109824277D01*
X170105546Y-109692247D01*
X170127150Y-109621026D01*
X170149003Y-109548986D01*
X170160000Y-109437333D01*
X170160000Y-109437323D01*
X170163676Y-109400000D01*
X170160000Y-109362677D01*
X170160000Y-99037322D01*
X170163676Y-98999999D01*
X170160000Y-98962676D01*
X170160000Y-98962667D01*
X170149003Y-98851014D01*
X170105546Y-98707753D01*
X170034974Y-98575724D01*
X169940001Y-98459999D01*
X169911003Y-98436201D01*
X169563803Y-98089002D01*
X169563799Y-98088997D01*
X167563804Y-96089003D01*
X167540001Y-96059999D01*
X167424276Y-95965026D01*
X167292247Y-95894454D01*
X167148986Y-95850997D01*
X167037333Y-95840000D01*
X167037322Y-95840000D01*
X167000000Y-95836324D01*
X166962678Y-95840000D01*
X155703711Y-95840000D01*
X155659774Y-95796063D01*
X155490256Y-95682795D01*
X155301898Y-95604774D01*
X155101939Y-95565000D01*
X154898061Y-95565000D01*
X154841500Y-95576251D01*
X154841500Y-93498061D01*
X167765000Y-93498061D01*
X167765000Y-93701939D01*
X167804774Y-93901898D01*
X167882795Y-94090256D01*
X167996063Y-94259774D01*
X168140226Y-94403937D01*
X168309744Y-94517205D01*
X168498102Y-94595226D01*
X168698061Y-94635000D01*
X168901939Y-94635000D01*
X169101898Y-94595226D01*
X169290256Y-94517205D01*
X169459774Y-94403937D01*
X169603937Y-94259774D01*
X169717205Y-94090256D01*
X169795226Y-93901898D01*
X169835000Y-93701939D01*
X169835000Y-93498061D01*
X169795226Y-93298102D01*
X169717205Y-93109744D01*
X169659500Y-93023382D01*
X169659500Y-92952411D01*
X169766792Y-92864358D01*
X169876458Y-92730730D01*
X169957947Y-92578275D01*
X170008128Y-92412851D01*
X170025072Y-92240816D01*
X170025072Y-92122000D01*
X176196299Y-92122000D01*
X176223040Y-92393507D01*
X176302236Y-92654581D01*
X176430843Y-92895188D01*
X176603919Y-93106081D01*
X176814812Y-93279157D01*
X177055419Y-93407764D01*
X177316493Y-93486960D01*
X177519963Y-93507000D01*
X178176037Y-93507000D01*
X178379507Y-93486960D01*
X178640581Y-93407764D01*
X178881188Y-93279157D01*
X179092081Y-93106081D01*
X179265157Y-92895188D01*
X179393764Y-92654581D01*
X179472960Y-92393507D01*
X179499701Y-92122000D01*
X179472960Y-91850493D01*
X179393764Y-91589419D01*
X179265157Y-91348812D01*
X179092081Y-91137919D01*
X178881188Y-90964843D01*
X178640581Y-90836236D01*
X178379507Y-90757040D01*
X178176037Y-90737000D01*
X177519963Y-90737000D01*
X177316493Y-90757040D01*
X177055419Y-90836236D01*
X176814812Y-90964843D01*
X176603919Y-91137919D01*
X176430843Y-91348812D01*
X176302236Y-91589419D01*
X176223040Y-91850493D01*
X176196299Y-92122000D01*
X170025072Y-92122000D01*
X170025072Y-91328316D01*
X170008128Y-91156281D01*
X169957947Y-90990857D01*
X169876458Y-90838402D01*
X169766792Y-90704774D01*
X169633164Y-90595108D01*
X169480709Y-90513619D01*
X169315285Y-90463438D01*
X169143250Y-90446494D01*
X168655750Y-90446494D01*
X168483715Y-90463438D01*
X168318291Y-90513619D01*
X168165836Y-90595108D01*
X168032208Y-90704774D01*
X167922542Y-90838402D01*
X167841053Y-90990857D01*
X167790872Y-91156281D01*
X167773928Y-91328316D01*
X167773928Y-92240816D01*
X167790872Y-92412851D01*
X167841053Y-92578275D01*
X167922542Y-92730730D01*
X168032208Y-92864358D01*
X168054026Y-92882263D01*
X167996063Y-92940226D01*
X167882795Y-93109744D01*
X167804774Y-93298102D01*
X167765000Y-93498061D01*
X154841500Y-93498061D01*
X154841500Y-88622000D01*
X176199928Y-88622000D01*
X176199928Y-89622000D01*
X176216992Y-89795254D01*
X176267528Y-89961850D01*
X176349595Y-90115386D01*
X176460038Y-90249962D01*
X176594614Y-90360405D01*
X176748150Y-90442472D01*
X176914746Y-90493008D01*
X177088000Y-90510072D01*
X178608000Y-90510072D01*
X178781254Y-90493008D01*
X178947850Y-90442472D01*
X179005380Y-90411721D01*
X180033000Y-90411721D01*
X180033000Y-90832279D01*
X180115047Y-91244756D01*
X180275988Y-91633302D01*
X180509637Y-91982983D01*
X180807017Y-92280363D01*
X181156698Y-92514012D01*
X181545244Y-92674953D01*
X181957721Y-92757000D01*
X182378279Y-92757000D01*
X182790756Y-92674953D01*
X183179302Y-92514012D01*
X183528983Y-92280363D01*
X183826363Y-91982983D01*
X184060012Y-91633302D01*
X184220953Y-91244756D01*
X184303000Y-90832279D01*
X184303000Y-90411721D01*
X184220953Y-89999244D01*
X184060012Y-89610698D01*
X183826363Y-89261017D01*
X183528983Y-88963637D01*
X183179302Y-88729988D01*
X182790756Y-88569047D01*
X182378279Y-88487000D01*
X181957721Y-88487000D01*
X181545244Y-88569047D01*
X181156698Y-88729988D01*
X180807017Y-88963637D01*
X180509637Y-89261017D01*
X180275988Y-89610698D01*
X180115047Y-89999244D01*
X180033000Y-90411721D01*
X179005380Y-90411721D01*
X179101386Y-90360405D01*
X179235962Y-90249962D01*
X179346405Y-90115386D01*
X179428472Y-89961850D01*
X179479008Y-89795254D01*
X179496072Y-89622000D01*
X179496072Y-88622000D01*
X179479008Y-88448746D01*
X179428472Y-88282150D01*
X179346405Y-88128614D01*
X179235962Y-87994038D01*
X179101386Y-87883595D01*
X178947850Y-87801528D01*
X178781254Y-87750992D01*
X178608000Y-87733928D01*
X177088000Y-87733928D01*
X176914746Y-87750992D01*
X176748150Y-87801528D01*
X176594614Y-87883595D01*
X176460038Y-87994038D01*
X176349595Y-88128614D01*
X176267528Y-88282150D01*
X176216992Y-88448746D01*
X176199928Y-88622000D01*
X154841500Y-88622000D01*
X154841500Y-78394000D01*
X176196299Y-78394000D01*
X176223040Y-78665507D01*
X176302236Y-78926581D01*
X176430843Y-79167188D01*
X176603919Y-79378081D01*
X176814812Y-79551157D01*
X177055419Y-79679764D01*
X177316493Y-79758960D01*
X177519963Y-79779000D01*
X178176037Y-79779000D01*
X178379507Y-79758960D01*
X178640581Y-79679764D01*
X178881188Y-79551157D01*
X179092081Y-79378081D01*
X179265157Y-79167188D01*
X179393764Y-78926581D01*
X179472960Y-78665507D01*
X179499701Y-78394000D01*
X179472960Y-78122493D01*
X179393764Y-77861419D01*
X179265157Y-77620812D01*
X179092081Y-77409919D01*
X178881188Y-77236843D01*
X178640581Y-77108236D01*
X178379507Y-77029040D01*
X178176037Y-77009000D01*
X177519963Y-77009000D01*
X177316493Y-77029040D01*
X177055419Y-77108236D01*
X176814812Y-77236843D01*
X176603919Y-77409919D01*
X176430843Y-77620812D01*
X176302236Y-77861419D01*
X176223040Y-78122493D01*
X176196299Y-78394000D01*
X154841500Y-78394000D01*
X154841500Y-75183721D01*
X180033000Y-75183721D01*
X180033000Y-75604279D01*
X180115047Y-76016756D01*
X180275988Y-76405302D01*
X180509637Y-76754983D01*
X180807017Y-77052363D01*
X181156698Y-77286012D01*
X181545244Y-77446953D01*
X181957721Y-77529000D01*
X182378279Y-77529000D01*
X182790756Y-77446953D01*
X183179302Y-77286012D01*
X183528983Y-77052363D01*
X183826363Y-76754983D01*
X184060012Y-76405302D01*
X184220953Y-76016756D01*
X184303000Y-75604279D01*
X184303000Y-75183721D01*
X184220953Y-74771244D01*
X184060012Y-74382698D01*
X183826363Y-74033017D01*
X183528983Y-73735637D01*
X183179302Y-73501988D01*
X182790756Y-73341047D01*
X182378279Y-73259000D01*
X181957721Y-73259000D01*
X181545244Y-73341047D01*
X181156698Y-73501988D01*
X180807017Y-73735637D01*
X180509637Y-74033017D01*
X180275988Y-74382698D01*
X180115047Y-74771244D01*
X180033000Y-75183721D01*
X154841500Y-75183721D01*
X154841500Y-71894000D01*
X176199928Y-71894000D01*
X176199928Y-72894000D01*
X176216992Y-73067254D01*
X176267528Y-73233850D01*
X176349595Y-73387386D01*
X176460038Y-73521962D01*
X176594614Y-73632405D01*
X176748150Y-73714472D01*
X176914746Y-73765008D01*
X177088000Y-73782072D01*
X178608000Y-73782072D01*
X178781254Y-73765008D01*
X178947850Y-73714472D01*
X179101386Y-73632405D01*
X179235962Y-73521962D01*
X179346405Y-73387386D01*
X179428472Y-73233850D01*
X179479008Y-73067254D01*
X179496072Y-72894000D01*
X179496072Y-71894000D01*
X179479008Y-71720746D01*
X179428472Y-71554150D01*
X179346405Y-71400614D01*
X179235962Y-71266038D01*
X179101386Y-71155595D01*
X178947850Y-71073528D01*
X178781254Y-71022992D01*
X178608000Y-71005928D01*
X177088000Y-71005928D01*
X176914746Y-71022992D01*
X176748150Y-71073528D01*
X176594614Y-71155595D01*
X176460038Y-71266038D01*
X176349595Y-71400614D01*
X176267528Y-71554150D01*
X176216992Y-71720746D01*
X176199928Y-71894000D01*
X154841500Y-71894000D01*
X154841500Y-71233301D01*
X156314802Y-69760000D01*
X165555178Y-69760000D01*
X165592500Y-69763676D01*
X165629822Y-69760000D01*
X165629833Y-69760000D01*
X165741486Y-69749003D01*
X165884747Y-69705546D01*
X166016776Y-69634974D01*
X166132501Y-69540001D01*
X166156304Y-69510998D01*
X166762980Y-68904322D01*
X166780750Y-68906072D01*
X167268250Y-68906072D01*
X167440285Y-68889128D01*
X167605709Y-68838947D01*
X167758164Y-68757458D01*
X167891792Y-68647792D01*
X167962000Y-68562244D01*
X168032208Y-68647792D01*
X168165836Y-68757458D01*
X168318291Y-68838947D01*
X168483715Y-68889128D01*
X168655750Y-68906072D01*
X169143250Y-68906072D01*
X169315285Y-68889128D01*
X169480709Y-68838947D01*
X169633164Y-68757458D01*
X169766792Y-68647792D01*
X169876458Y-68514164D01*
X169937065Y-68400776D01*
X169940226Y-68403937D01*
X170109744Y-68517205D01*
X170298102Y-68595226D01*
X170498061Y-68635000D01*
X170701939Y-68635000D01*
X170901898Y-68595226D01*
X171090256Y-68517205D01*
X171259774Y-68403937D01*
X171403937Y-68259774D01*
X171517205Y-68090256D01*
X171595226Y-67901898D01*
X171635000Y-67701939D01*
X171635000Y-67498061D01*
X171595226Y-67298102D01*
X171517205Y-67109744D01*
X171403937Y-66940226D01*
X171259774Y-66796063D01*
X171090256Y-66682795D01*
X170901898Y-66604774D01*
X170701939Y-66565000D01*
X170498061Y-66565000D01*
X170298102Y-66604774D01*
X170109744Y-66682795D01*
X169960452Y-66782549D01*
X169957947Y-66774291D01*
X169876458Y-66621836D01*
X169766792Y-66488208D01*
X169633164Y-66378542D01*
X169480709Y-66297053D01*
X169315285Y-66246872D01*
X169143250Y-66229928D01*
X168655750Y-66229928D01*
X168483715Y-66246872D01*
X168318291Y-66297053D01*
X168165836Y-66378542D01*
X168032208Y-66488208D01*
X167962000Y-66573756D01*
X167891792Y-66488208D01*
X167758164Y-66378542D01*
X167605709Y-66297053D01*
X167440285Y-66246872D01*
X167268250Y-66229928D01*
X166780750Y-66229928D01*
X166608715Y-66246872D01*
X166443291Y-66297053D01*
X166290836Y-66378542D01*
X166157208Y-66488208D01*
X166047542Y-66621836D01*
X165966053Y-66774291D01*
X165915872Y-66939715D01*
X165898928Y-67111750D01*
X165898928Y-67618770D01*
X165277699Y-68240000D01*
X156037325Y-68240000D01*
X156000000Y-68236324D01*
X155962675Y-68240000D01*
X155962667Y-68240000D01*
X155851014Y-68250997D01*
X155707753Y-68294454D01*
X155575724Y-68365026D01*
X155459999Y-68459999D01*
X155436201Y-68488997D01*
X153700000Y-70225198D01*
X151963804Y-68489003D01*
X151940001Y-68459999D01*
X151824276Y-68365026D01*
X151692247Y-68294454D01*
X151548986Y-68250997D01*
X151437333Y-68240000D01*
X151437322Y-68240000D01*
X151400000Y-68236324D01*
X151362678Y-68240000D01*
X147017150Y-68240000D01*
X147117205Y-68090256D01*
X147195226Y-67901898D01*
X147235000Y-67701939D01*
X147235000Y-67498061D01*
X147195226Y-67298102D01*
X147117205Y-67109744D01*
X147003937Y-66940226D01*
X146859774Y-66796063D01*
X146690256Y-66682795D01*
X146501898Y-66604774D01*
X146301939Y-66565000D01*
X146098061Y-66565000D01*
X145898102Y-66604774D01*
X145709744Y-66682795D01*
X145577255Y-66771321D01*
X145514458Y-66653836D01*
X145404792Y-66520208D01*
X145271164Y-66410542D01*
X145118709Y-66329053D01*
X144953285Y-66278872D01*
X144781250Y-66261928D01*
X144293750Y-66261928D01*
X144121715Y-66278872D01*
X143956291Y-66329053D01*
X143803836Y-66410542D01*
X143670208Y-66520208D01*
X143600000Y-66605756D01*
X143529792Y-66520208D01*
X143396164Y-66410542D01*
X143243709Y-66329053D01*
X143078285Y-66278872D01*
X142906250Y-66261928D01*
X142418750Y-66261928D01*
X142246715Y-66278872D01*
X142081291Y-66329053D01*
X141928836Y-66410542D01*
X141795208Y-66520208D01*
X141685542Y-66653836D01*
X141604053Y-66806291D01*
X141553872Y-66971715D01*
X141536928Y-67143750D01*
X124660000Y-67143750D01*
X124660000Y-51217278D01*
X124669977Y-51115521D01*
X125187600Y-51115521D01*
X125187600Y-51536079D01*
X125269647Y-51948556D01*
X125430588Y-52337102D01*
X125664237Y-52686783D01*
X125961617Y-52984163D01*
X126311298Y-53217812D01*
X126699844Y-53378753D01*
X127112321Y-53460800D01*
X127532879Y-53460800D01*
X127945356Y-53378753D01*
X128333902Y-53217812D01*
X128683583Y-52984163D01*
X128980963Y-52686783D01*
X129214612Y-52337102D01*
X129375553Y-51948556D01*
X129457600Y-51536079D01*
X129457600Y-51140921D01*
X182032800Y-51140921D01*
X182032800Y-51561479D01*
X182114847Y-51973956D01*
X182275788Y-52362502D01*
X182509437Y-52712183D01*
X182806817Y-53009563D01*
X183156498Y-53243212D01*
X183545044Y-53404153D01*
X183957521Y-53486200D01*
X184378079Y-53486200D01*
X184790556Y-53404153D01*
X185179102Y-53243212D01*
X185528783Y-53009563D01*
X185826163Y-52712183D01*
X186059812Y-52362502D01*
X186220753Y-51973956D01*
X186302800Y-51561479D01*
X186302800Y-51140921D01*
X186220753Y-50728444D01*
X186059812Y-50339898D01*
X185826163Y-49990217D01*
X185528783Y-49692837D01*
X185179102Y-49459188D01*
X184790556Y-49298247D01*
X184378079Y-49216200D01*
X183957521Y-49216200D01*
X183545044Y-49298247D01*
X183156498Y-49459188D01*
X182806817Y-49692837D01*
X182509437Y-49990217D01*
X182275788Y-50339898D01*
X182114847Y-50728444D01*
X182032800Y-51140921D01*
X129457600Y-51140921D01*
X129457600Y-51115521D01*
X129375553Y-50703044D01*
X129214612Y-50314498D01*
X128980963Y-49964817D01*
X128683583Y-49667437D01*
X128333902Y-49433788D01*
X127945356Y-49272847D01*
X127532879Y-49190800D01*
X127112321Y-49190800D01*
X126699844Y-49272847D01*
X126311298Y-49433788D01*
X125961617Y-49667437D01*
X125664237Y-49964817D01*
X125430588Y-50314498D01*
X125269647Y-50703044D01*
X125187600Y-51115521D01*
X124669977Y-51115521D01*
X124711002Y-50697116D01*
X124852694Y-50227812D01*
X125082837Y-49794975D01*
X125392678Y-49415073D01*
X125770397Y-49102597D01*
X126201627Y-48869431D01*
X126669928Y-48724468D01*
X127188153Y-48670000D01*
X184292722Y-48670000D01*
X184812884Y-48721002D01*
M02*
