G04 #@! TF.GenerationSoftware,KiCad,Pcbnew,(5.1.5)-3*
G04 #@! TF.CreationDate,2021-01-10T16:49:42-06:00*
G04 #@! TF.ProjectId,Controls-LightingPCB,436f6e74-726f-46c7-932d-4c6967687469,rev?*
G04 #@! TF.SameCoordinates,Original*
G04 #@! TF.FileFunction,Paste,Top*
G04 #@! TF.FilePolarity,Positive*
%FSLAX46Y46*%
G04 Gerber Fmt 4.6, Leading zero omitted, Abs format (unit mm)*
G04 Created by KiCad (PCBNEW (5.1.5)-3) date 2021-01-10 16:49:42*
%MOMM*%
%LPD*%
G04 APERTURE LIST*
%ADD10C,0.100000*%
%ADD11R,3.800000X2.000000*%
%ADD12R,1.500000X2.000000*%
%ADD13R,2.200000X0.760000*%
G04 APERTURE END LIST*
D10*
G36*
X170180142Y-117776174D02*
G01*
X170203803Y-117779684D01*
X170227007Y-117785496D01*
X170249529Y-117793554D01*
X170271153Y-117803782D01*
X170291670Y-117816079D01*
X170310883Y-117830329D01*
X170328607Y-117846393D01*
X170344671Y-117864117D01*
X170358921Y-117883330D01*
X170371218Y-117903847D01*
X170381446Y-117925471D01*
X170389504Y-117947993D01*
X170395316Y-117971197D01*
X170398826Y-117994858D01*
X170400000Y-118018750D01*
X170400000Y-118506250D01*
X170398826Y-118530142D01*
X170395316Y-118553803D01*
X170389504Y-118577007D01*
X170381446Y-118599529D01*
X170371218Y-118621153D01*
X170358921Y-118641670D01*
X170344671Y-118660883D01*
X170328607Y-118678607D01*
X170310883Y-118694671D01*
X170291670Y-118708921D01*
X170271153Y-118721218D01*
X170249529Y-118731446D01*
X170227007Y-118739504D01*
X170203803Y-118745316D01*
X170180142Y-118748826D01*
X170156250Y-118750000D01*
X169243750Y-118750000D01*
X169219858Y-118748826D01*
X169196197Y-118745316D01*
X169172993Y-118739504D01*
X169150471Y-118731446D01*
X169128847Y-118721218D01*
X169108330Y-118708921D01*
X169089117Y-118694671D01*
X169071393Y-118678607D01*
X169055329Y-118660883D01*
X169041079Y-118641670D01*
X169028782Y-118621153D01*
X169018554Y-118599529D01*
X169010496Y-118577007D01*
X169004684Y-118553803D01*
X169001174Y-118530142D01*
X169000000Y-118506250D01*
X169000000Y-118018750D01*
X169001174Y-117994858D01*
X169004684Y-117971197D01*
X169010496Y-117947993D01*
X169018554Y-117925471D01*
X169028782Y-117903847D01*
X169041079Y-117883330D01*
X169055329Y-117864117D01*
X169071393Y-117846393D01*
X169089117Y-117830329D01*
X169108330Y-117816079D01*
X169128847Y-117803782D01*
X169150471Y-117793554D01*
X169172993Y-117785496D01*
X169196197Y-117779684D01*
X169219858Y-117776174D01*
X169243750Y-117775000D01*
X170156250Y-117775000D01*
X170180142Y-117776174D01*
G37*
G36*
X170180142Y-119651174D02*
G01*
X170203803Y-119654684D01*
X170227007Y-119660496D01*
X170249529Y-119668554D01*
X170271153Y-119678782D01*
X170291670Y-119691079D01*
X170310883Y-119705329D01*
X170328607Y-119721393D01*
X170344671Y-119739117D01*
X170358921Y-119758330D01*
X170371218Y-119778847D01*
X170381446Y-119800471D01*
X170389504Y-119822993D01*
X170395316Y-119846197D01*
X170398826Y-119869858D01*
X170400000Y-119893750D01*
X170400000Y-120381250D01*
X170398826Y-120405142D01*
X170395316Y-120428803D01*
X170389504Y-120452007D01*
X170381446Y-120474529D01*
X170371218Y-120496153D01*
X170358921Y-120516670D01*
X170344671Y-120535883D01*
X170328607Y-120553607D01*
X170310883Y-120569671D01*
X170291670Y-120583921D01*
X170271153Y-120596218D01*
X170249529Y-120606446D01*
X170227007Y-120614504D01*
X170203803Y-120620316D01*
X170180142Y-120623826D01*
X170156250Y-120625000D01*
X169243750Y-120625000D01*
X169219858Y-120623826D01*
X169196197Y-120620316D01*
X169172993Y-120614504D01*
X169150471Y-120606446D01*
X169128847Y-120596218D01*
X169108330Y-120583921D01*
X169089117Y-120569671D01*
X169071393Y-120553607D01*
X169055329Y-120535883D01*
X169041079Y-120516670D01*
X169028782Y-120496153D01*
X169018554Y-120474529D01*
X169010496Y-120452007D01*
X169004684Y-120428803D01*
X169001174Y-120405142D01*
X169000000Y-120381250D01*
X169000000Y-119893750D01*
X169001174Y-119869858D01*
X169004684Y-119846197D01*
X169010496Y-119822993D01*
X169018554Y-119800471D01*
X169028782Y-119778847D01*
X169041079Y-119758330D01*
X169055329Y-119739117D01*
X169071393Y-119721393D01*
X169089117Y-119705329D01*
X169108330Y-119691079D01*
X169128847Y-119678782D01*
X169150471Y-119668554D01*
X169172993Y-119660496D01*
X169196197Y-119654684D01*
X169219858Y-119651174D01*
X169243750Y-119650000D01*
X170156250Y-119650000D01*
X170180142Y-119651174D01*
G37*
G36*
X151667642Y-149701174D02*
G01*
X151691303Y-149704684D01*
X151714507Y-149710496D01*
X151737029Y-149718554D01*
X151758653Y-149728782D01*
X151779170Y-149741079D01*
X151798383Y-149755329D01*
X151816107Y-149771393D01*
X151832171Y-149789117D01*
X151846421Y-149808330D01*
X151858718Y-149828847D01*
X151868946Y-149850471D01*
X151877004Y-149872993D01*
X151882816Y-149896197D01*
X151886326Y-149919858D01*
X151887500Y-149943750D01*
X151887500Y-150856250D01*
X151886326Y-150880142D01*
X151882816Y-150903803D01*
X151877004Y-150927007D01*
X151868946Y-150949529D01*
X151858718Y-150971153D01*
X151846421Y-150991670D01*
X151832171Y-151010883D01*
X151816107Y-151028607D01*
X151798383Y-151044671D01*
X151779170Y-151058921D01*
X151758653Y-151071218D01*
X151737029Y-151081446D01*
X151714507Y-151089504D01*
X151691303Y-151095316D01*
X151667642Y-151098826D01*
X151643750Y-151100000D01*
X151156250Y-151100000D01*
X151132358Y-151098826D01*
X151108697Y-151095316D01*
X151085493Y-151089504D01*
X151062971Y-151081446D01*
X151041347Y-151071218D01*
X151020830Y-151058921D01*
X151001617Y-151044671D01*
X150983893Y-151028607D01*
X150967829Y-151010883D01*
X150953579Y-150991670D01*
X150941282Y-150971153D01*
X150931054Y-150949529D01*
X150922996Y-150927007D01*
X150917184Y-150903803D01*
X150913674Y-150880142D01*
X150912500Y-150856250D01*
X150912500Y-149943750D01*
X150913674Y-149919858D01*
X150917184Y-149896197D01*
X150922996Y-149872993D01*
X150931054Y-149850471D01*
X150941282Y-149828847D01*
X150953579Y-149808330D01*
X150967829Y-149789117D01*
X150983893Y-149771393D01*
X151001617Y-149755329D01*
X151020830Y-149741079D01*
X151041347Y-149728782D01*
X151062971Y-149718554D01*
X151085493Y-149710496D01*
X151108697Y-149704684D01*
X151132358Y-149701174D01*
X151156250Y-149700000D01*
X151643750Y-149700000D01*
X151667642Y-149701174D01*
G37*
G36*
X149792642Y-149701174D02*
G01*
X149816303Y-149704684D01*
X149839507Y-149710496D01*
X149862029Y-149718554D01*
X149883653Y-149728782D01*
X149904170Y-149741079D01*
X149923383Y-149755329D01*
X149941107Y-149771393D01*
X149957171Y-149789117D01*
X149971421Y-149808330D01*
X149983718Y-149828847D01*
X149993946Y-149850471D01*
X150002004Y-149872993D01*
X150007816Y-149896197D01*
X150011326Y-149919858D01*
X150012500Y-149943750D01*
X150012500Y-150856250D01*
X150011326Y-150880142D01*
X150007816Y-150903803D01*
X150002004Y-150927007D01*
X149993946Y-150949529D01*
X149983718Y-150971153D01*
X149971421Y-150991670D01*
X149957171Y-151010883D01*
X149941107Y-151028607D01*
X149923383Y-151044671D01*
X149904170Y-151058921D01*
X149883653Y-151071218D01*
X149862029Y-151081446D01*
X149839507Y-151089504D01*
X149816303Y-151095316D01*
X149792642Y-151098826D01*
X149768750Y-151100000D01*
X149281250Y-151100000D01*
X149257358Y-151098826D01*
X149233697Y-151095316D01*
X149210493Y-151089504D01*
X149187971Y-151081446D01*
X149166347Y-151071218D01*
X149145830Y-151058921D01*
X149126617Y-151044671D01*
X149108893Y-151028607D01*
X149092829Y-151010883D01*
X149078579Y-150991670D01*
X149066282Y-150971153D01*
X149056054Y-150949529D01*
X149047996Y-150927007D01*
X149042184Y-150903803D01*
X149038674Y-150880142D01*
X149037500Y-150856250D01*
X149037500Y-149943750D01*
X149038674Y-149919858D01*
X149042184Y-149896197D01*
X149047996Y-149872993D01*
X149056054Y-149850471D01*
X149066282Y-149828847D01*
X149078579Y-149808330D01*
X149092829Y-149789117D01*
X149108893Y-149771393D01*
X149126617Y-149755329D01*
X149145830Y-149741079D01*
X149166347Y-149728782D01*
X149187971Y-149718554D01*
X149210493Y-149710496D01*
X149233697Y-149704684D01*
X149257358Y-149701174D01*
X149281250Y-149700000D01*
X149768750Y-149700000D01*
X149792642Y-149701174D01*
G37*
G36*
X138380142Y-149051174D02*
G01*
X138403803Y-149054684D01*
X138427007Y-149060496D01*
X138449529Y-149068554D01*
X138471153Y-149078782D01*
X138491670Y-149091079D01*
X138510883Y-149105329D01*
X138528607Y-149121393D01*
X138544671Y-149139117D01*
X138558921Y-149158330D01*
X138571218Y-149178847D01*
X138581446Y-149200471D01*
X138589504Y-149222993D01*
X138595316Y-149246197D01*
X138598826Y-149269858D01*
X138600000Y-149293750D01*
X138600000Y-149781250D01*
X138598826Y-149805142D01*
X138595316Y-149828803D01*
X138589504Y-149852007D01*
X138581446Y-149874529D01*
X138571218Y-149896153D01*
X138558921Y-149916670D01*
X138544671Y-149935883D01*
X138528607Y-149953607D01*
X138510883Y-149969671D01*
X138491670Y-149983921D01*
X138471153Y-149996218D01*
X138449529Y-150006446D01*
X138427007Y-150014504D01*
X138403803Y-150020316D01*
X138380142Y-150023826D01*
X138356250Y-150025000D01*
X137443750Y-150025000D01*
X137419858Y-150023826D01*
X137396197Y-150020316D01*
X137372993Y-150014504D01*
X137350471Y-150006446D01*
X137328847Y-149996218D01*
X137308330Y-149983921D01*
X137289117Y-149969671D01*
X137271393Y-149953607D01*
X137255329Y-149935883D01*
X137241079Y-149916670D01*
X137228782Y-149896153D01*
X137218554Y-149874529D01*
X137210496Y-149852007D01*
X137204684Y-149828803D01*
X137201174Y-149805142D01*
X137200000Y-149781250D01*
X137200000Y-149293750D01*
X137201174Y-149269858D01*
X137204684Y-149246197D01*
X137210496Y-149222993D01*
X137218554Y-149200471D01*
X137228782Y-149178847D01*
X137241079Y-149158330D01*
X137255329Y-149139117D01*
X137271393Y-149121393D01*
X137289117Y-149105329D01*
X137308330Y-149091079D01*
X137328847Y-149078782D01*
X137350471Y-149068554D01*
X137372993Y-149060496D01*
X137396197Y-149054684D01*
X137419858Y-149051174D01*
X137443750Y-149050000D01*
X138356250Y-149050000D01*
X138380142Y-149051174D01*
G37*
G36*
X138380142Y-147176174D02*
G01*
X138403803Y-147179684D01*
X138427007Y-147185496D01*
X138449529Y-147193554D01*
X138471153Y-147203782D01*
X138491670Y-147216079D01*
X138510883Y-147230329D01*
X138528607Y-147246393D01*
X138544671Y-147264117D01*
X138558921Y-147283330D01*
X138571218Y-147303847D01*
X138581446Y-147325471D01*
X138589504Y-147347993D01*
X138595316Y-147371197D01*
X138598826Y-147394858D01*
X138600000Y-147418750D01*
X138600000Y-147906250D01*
X138598826Y-147930142D01*
X138595316Y-147953803D01*
X138589504Y-147977007D01*
X138581446Y-147999529D01*
X138571218Y-148021153D01*
X138558921Y-148041670D01*
X138544671Y-148060883D01*
X138528607Y-148078607D01*
X138510883Y-148094671D01*
X138491670Y-148108921D01*
X138471153Y-148121218D01*
X138449529Y-148131446D01*
X138427007Y-148139504D01*
X138403803Y-148145316D01*
X138380142Y-148148826D01*
X138356250Y-148150000D01*
X137443750Y-148150000D01*
X137419858Y-148148826D01*
X137396197Y-148145316D01*
X137372993Y-148139504D01*
X137350471Y-148131446D01*
X137328847Y-148121218D01*
X137308330Y-148108921D01*
X137289117Y-148094671D01*
X137271393Y-148078607D01*
X137255329Y-148060883D01*
X137241079Y-148041670D01*
X137228782Y-148021153D01*
X137218554Y-147999529D01*
X137210496Y-147977007D01*
X137204684Y-147953803D01*
X137201174Y-147930142D01*
X137200000Y-147906250D01*
X137200000Y-147418750D01*
X137201174Y-147394858D01*
X137204684Y-147371197D01*
X137210496Y-147347993D01*
X137218554Y-147325471D01*
X137228782Y-147303847D01*
X137241079Y-147283330D01*
X137255329Y-147264117D01*
X137271393Y-147246393D01*
X137289117Y-147230329D01*
X137308330Y-147216079D01*
X137328847Y-147203782D01*
X137350471Y-147193554D01*
X137372993Y-147185496D01*
X137396197Y-147179684D01*
X137419858Y-147176174D01*
X137443750Y-147175000D01*
X138356250Y-147175000D01*
X138380142Y-147176174D01*
G37*
G36*
X157033163Y-105292422D02*
G01*
X157047724Y-105294582D01*
X157062003Y-105298159D01*
X157075863Y-105303118D01*
X157089170Y-105309412D01*
X157101796Y-105316980D01*
X157113619Y-105325748D01*
X157124526Y-105335634D01*
X157134412Y-105346541D01*
X157143180Y-105358364D01*
X157150748Y-105370990D01*
X157157042Y-105384297D01*
X157162001Y-105398157D01*
X157165578Y-105412436D01*
X157167738Y-105426997D01*
X157168460Y-105441700D01*
X157168460Y-105741700D01*
X157167738Y-105756403D01*
X157165578Y-105770964D01*
X157162001Y-105785243D01*
X157157042Y-105799103D01*
X157150748Y-105812410D01*
X157143180Y-105825036D01*
X157134412Y-105836859D01*
X157124526Y-105847766D01*
X157113619Y-105857652D01*
X157101796Y-105866420D01*
X157089170Y-105873988D01*
X157075863Y-105880282D01*
X157062003Y-105885241D01*
X157047724Y-105888818D01*
X157033163Y-105890978D01*
X157018460Y-105891700D01*
X155268460Y-105891700D01*
X155253757Y-105890978D01*
X155239196Y-105888818D01*
X155224917Y-105885241D01*
X155211057Y-105880282D01*
X155197750Y-105873988D01*
X155185124Y-105866420D01*
X155173301Y-105857652D01*
X155162394Y-105847766D01*
X155152508Y-105836859D01*
X155143740Y-105825036D01*
X155136172Y-105812410D01*
X155129878Y-105799103D01*
X155124919Y-105785243D01*
X155121342Y-105770964D01*
X155119182Y-105756403D01*
X155118460Y-105741700D01*
X155118460Y-105441700D01*
X155119182Y-105426997D01*
X155121342Y-105412436D01*
X155124919Y-105398157D01*
X155129878Y-105384297D01*
X155136172Y-105370990D01*
X155143740Y-105358364D01*
X155152508Y-105346541D01*
X155162394Y-105335634D01*
X155173301Y-105325748D01*
X155185124Y-105316980D01*
X155197750Y-105309412D01*
X155211057Y-105303118D01*
X155224917Y-105298159D01*
X155239196Y-105294582D01*
X155253757Y-105292422D01*
X155268460Y-105291700D01*
X157018460Y-105291700D01*
X157033163Y-105292422D01*
G37*
G36*
X157033163Y-106562422D02*
G01*
X157047724Y-106564582D01*
X157062003Y-106568159D01*
X157075863Y-106573118D01*
X157089170Y-106579412D01*
X157101796Y-106586980D01*
X157113619Y-106595748D01*
X157124526Y-106605634D01*
X157134412Y-106616541D01*
X157143180Y-106628364D01*
X157150748Y-106640990D01*
X157157042Y-106654297D01*
X157162001Y-106668157D01*
X157165578Y-106682436D01*
X157167738Y-106696997D01*
X157168460Y-106711700D01*
X157168460Y-107011700D01*
X157167738Y-107026403D01*
X157165578Y-107040964D01*
X157162001Y-107055243D01*
X157157042Y-107069103D01*
X157150748Y-107082410D01*
X157143180Y-107095036D01*
X157134412Y-107106859D01*
X157124526Y-107117766D01*
X157113619Y-107127652D01*
X157101796Y-107136420D01*
X157089170Y-107143988D01*
X157075863Y-107150282D01*
X157062003Y-107155241D01*
X157047724Y-107158818D01*
X157033163Y-107160978D01*
X157018460Y-107161700D01*
X155268460Y-107161700D01*
X155253757Y-107160978D01*
X155239196Y-107158818D01*
X155224917Y-107155241D01*
X155211057Y-107150282D01*
X155197750Y-107143988D01*
X155185124Y-107136420D01*
X155173301Y-107127652D01*
X155162394Y-107117766D01*
X155152508Y-107106859D01*
X155143740Y-107095036D01*
X155136172Y-107082410D01*
X155129878Y-107069103D01*
X155124919Y-107055243D01*
X155121342Y-107040964D01*
X155119182Y-107026403D01*
X155118460Y-107011700D01*
X155118460Y-106711700D01*
X155119182Y-106696997D01*
X155121342Y-106682436D01*
X155124919Y-106668157D01*
X155129878Y-106654297D01*
X155136172Y-106640990D01*
X155143740Y-106628364D01*
X155152508Y-106616541D01*
X155162394Y-106605634D01*
X155173301Y-106595748D01*
X155185124Y-106586980D01*
X155197750Y-106579412D01*
X155211057Y-106573118D01*
X155224917Y-106568159D01*
X155239196Y-106564582D01*
X155253757Y-106562422D01*
X155268460Y-106561700D01*
X157018460Y-106561700D01*
X157033163Y-106562422D01*
G37*
G36*
X157033163Y-107832422D02*
G01*
X157047724Y-107834582D01*
X157062003Y-107838159D01*
X157075863Y-107843118D01*
X157089170Y-107849412D01*
X157101796Y-107856980D01*
X157113619Y-107865748D01*
X157124526Y-107875634D01*
X157134412Y-107886541D01*
X157143180Y-107898364D01*
X157150748Y-107910990D01*
X157157042Y-107924297D01*
X157162001Y-107938157D01*
X157165578Y-107952436D01*
X157167738Y-107966997D01*
X157168460Y-107981700D01*
X157168460Y-108281700D01*
X157167738Y-108296403D01*
X157165578Y-108310964D01*
X157162001Y-108325243D01*
X157157042Y-108339103D01*
X157150748Y-108352410D01*
X157143180Y-108365036D01*
X157134412Y-108376859D01*
X157124526Y-108387766D01*
X157113619Y-108397652D01*
X157101796Y-108406420D01*
X157089170Y-108413988D01*
X157075863Y-108420282D01*
X157062003Y-108425241D01*
X157047724Y-108428818D01*
X157033163Y-108430978D01*
X157018460Y-108431700D01*
X155268460Y-108431700D01*
X155253757Y-108430978D01*
X155239196Y-108428818D01*
X155224917Y-108425241D01*
X155211057Y-108420282D01*
X155197750Y-108413988D01*
X155185124Y-108406420D01*
X155173301Y-108397652D01*
X155162394Y-108387766D01*
X155152508Y-108376859D01*
X155143740Y-108365036D01*
X155136172Y-108352410D01*
X155129878Y-108339103D01*
X155124919Y-108325243D01*
X155121342Y-108310964D01*
X155119182Y-108296403D01*
X155118460Y-108281700D01*
X155118460Y-107981700D01*
X155119182Y-107966997D01*
X155121342Y-107952436D01*
X155124919Y-107938157D01*
X155129878Y-107924297D01*
X155136172Y-107910990D01*
X155143740Y-107898364D01*
X155152508Y-107886541D01*
X155162394Y-107875634D01*
X155173301Y-107865748D01*
X155185124Y-107856980D01*
X155197750Y-107849412D01*
X155211057Y-107843118D01*
X155224917Y-107838159D01*
X155239196Y-107834582D01*
X155253757Y-107832422D01*
X155268460Y-107831700D01*
X157018460Y-107831700D01*
X157033163Y-107832422D01*
G37*
G36*
X157033163Y-109102422D02*
G01*
X157047724Y-109104582D01*
X157062003Y-109108159D01*
X157075863Y-109113118D01*
X157089170Y-109119412D01*
X157101796Y-109126980D01*
X157113619Y-109135748D01*
X157124526Y-109145634D01*
X157134412Y-109156541D01*
X157143180Y-109168364D01*
X157150748Y-109180990D01*
X157157042Y-109194297D01*
X157162001Y-109208157D01*
X157165578Y-109222436D01*
X157167738Y-109236997D01*
X157168460Y-109251700D01*
X157168460Y-109551700D01*
X157167738Y-109566403D01*
X157165578Y-109580964D01*
X157162001Y-109595243D01*
X157157042Y-109609103D01*
X157150748Y-109622410D01*
X157143180Y-109635036D01*
X157134412Y-109646859D01*
X157124526Y-109657766D01*
X157113619Y-109667652D01*
X157101796Y-109676420D01*
X157089170Y-109683988D01*
X157075863Y-109690282D01*
X157062003Y-109695241D01*
X157047724Y-109698818D01*
X157033163Y-109700978D01*
X157018460Y-109701700D01*
X155268460Y-109701700D01*
X155253757Y-109700978D01*
X155239196Y-109698818D01*
X155224917Y-109695241D01*
X155211057Y-109690282D01*
X155197750Y-109683988D01*
X155185124Y-109676420D01*
X155173301Y-109667652D01*
X155162394Y-109657766D01*
X155152508Y-109646859D01*
X155143740Y-109635036D01*
X155136172Y-109622410D01*
X155129878Y-109609103D01*
X155124919Y-109595243D01*
X155121342Y-109580964D01*
X155119182Y-109566403D01*
X155118460Y-109551700D01*
X155118460Y-109251700D01*
X155119182Y-109236997D01*
X155121342Y-109222436D01*
X155124919Y-109208157D01*
X155129878Y-109194297D01*
X155136172Y-109180990D01*
X155143740Y-109168364D01*
X155152508Y-109156541D01*
X155162394Y-109145634D01*
X155173301Y-109135748D01*
X155185124Y-109126980D01*
X155197750Y-109119412D01*
X155211057Y-109113118D01*
X155224917Y-109108159D01*
X155239196Y-109104582D01*
X155253757Y-109102422D01*
X155268460Y-109101700D01*
X157018460Y-109101700D01*
X157033163Y-109102422D01*
G37*
G36*
X157033163Y-110372422D02*
G01*
X157047724Y-110374582D01*
X157062003Y-110378159D01*
X157075863Y-110383118D01*
X157089170Y-110389412D01*
X157101796Y-110396980D01*
X157113619Y-110405748D01*
X157124526Y-110415634D01*
X157134412Y-110426541D01*
X157143180Y-110438364D01*
X157150748Y-110450990D01*
X157157042Y-110464297D01*
X157162001Y-110478157D01*
X157165578Y-110492436D01*
X157167738Y-110506997D01*
X157168460Y-110521700D01*
X157168460Y-110821700D01*
X157167738Y-110836403D01*
X157165578Y-110850964D01*
X157162001Y-110865243D01*
X157157042Y-110879103D01*
X157150748Y-110892410D01*
X157143180Y-110905036D01*
X157134412Y-110916859D01*
X157124526Y-110927766D01*
X157113619Y-110937652D01*
X157101796Y-110946420D01*
X157089170Y-110953988D01*
X157075863Y-110960282D01*
X157062003Y-110965241D01*
X157047724Y-110968818D01*
X157033163Y-110970978D01*
X157018460Y-110971700D01*
X155268460Y-110971700D01*
X155253757Y-110970978D01*
X155239196Y-110968818D01*
X155224917Y-110965241D01*
X155211057Y-110960282D01*
X155197750Y-110953988D01*
X155185124Y-110946420D01*
X155173301Y-110937652D01*
X155162394Y-110927766D01*
X155152508Y-110916859D01*
X155143740Y-110905036D01*
X155136172Y-110892410D01*
X155129878Y-110879103D01*
X155124919Y-110865243D01*
X155121342Y-110850964D01*
X155119182Y-110836403D01*
X155118460Y-110821700D01*
X155118460Y-110521700D01*
X155119182Y-110506997D01*
X155121342Y-110492436D01*
X155124919Y-110478157D01*
X155129878Y-110464297D01*
X155136172Y-110450990D01*
X155143740Y-110438364D01*
X155152508Y-110426541D01*
X155162394Y-110415634D01*
X155173301Y-110405748D01*
X155185124Y-110396980D01*
X155197750Y-110389412D01*
X155211057Y-110383118D01*
X155224917Y-110378159D01*
X155239196Y-110374582D01*
X155253757Y-110372422D01*
X155268460Y-110371700D01*
X157018460Y-110371700D01*
X157033163Y-110372422D01*
G37*
G36*
X157033163Y-111642422D02*
G01*
X157047724Y-111644582D01*
X157062003Y-111648159D01*
X157075863Y-111653118D01*
X157089170Y-111659412D01*
X157101796Y-111666980D01*
X157113619Y-111675748D01*
X157124526Y-111685634D01*
X157134412Y-111696541D01*
X157143180Y-111708364D01*
X157150748Y-111720990D01*
X157157042Y-111734297D01*
X157162001Y-111748157D01*
X157165578Y-111762436D01*
X157167738Y-111776997D01*
X157168460Y-111791700D01*
X157168460Y-112091700D01*
X157167738Y-112106403D01*
X157165578Y-112120964D01*
X157162001Y-112135243D01*
X157157042Y-112149103D01*
X157150748Y-112162410D01*
X157143180Y-112175036D01*
X157134412Y-112186859D01*
X157124526Y-112197766D01*
X157113619Y-112207652D01*
X157101796Y-112216420D01*
X157089170Y-112223988D01*
X157075863Y-112230282D01*
X157062003Y-112235241D01*
X157047724Y-112238818D01*
X157033163Y-112240978D01*
X157018460Y-112241700D01*
X155268460Y-112241700D01*
X155253757Y-112240978D01*
X155239196Y-112238818D01*
X155224917Y-112235241D01*
X155211057Y-112230282D01*
X155197750Y-112223988D01*
X155185124Y-112216420D01*
X155173301Y-112207652D01*
X155162394Y-112197766D01*
X155152508Y-112186859D01*
X155143740Y-112175036D01*
X155136172Y-112162410D01*
X155129878Y-112149103D01*
X155124919Y-112135243D01*
X155121342Y-112120964D01*
X155119182Y-112106403D01*
X155118460Y-112091700D01*
X155118460Y-111791700D01*
X155119182Y-111776997D01*
X155121342Y-111762436D01*
X155124919Y-111748157D01*
X155129878Y-111734297D01*
X155136172Y-111720990D01*
X155143740Y-111708364D01*
X155152508Y-111696541D01*
X155162394Y-111685634D01*
X155173301Y-111675748D01*
X155185124Y-111666980D01*
X155197750Y-111659412D01*
X155211057Y-111653118D01*
X155224917Y-111648159D01*
X155239196Y-111644582D01*
X155253757Y-111642422D01*
X155268460Y-111641700D01*
X157018460Y-111641700D01*
X157033163Y-111642422D01*
G37*
G36*
X157033163Y-112912422D02*
G01*
X157047724Y-112914582D01*
X157062003Y-112918159D01*
X157075863Y-112923118D01*
X157089170Y-112929412D01*
X157101796Y-112936980D01*
X157113619Y-112945748D01*
X157124526Y-112955634D01*
X157134412Y-112966541D01*
X157143180Y-112978364D01*
X157150748Y-112990990D01*
X157157042Y-113004297D01*
X157162001Y-113018157D01*
X157165578Y-113032436D01*
X157167738Y-113046997D01*
X157168460Y-113061700D01*
X157168460Y-113361700D01*
X157167738Y-113376403D01*
X157165578Y-113390964D01*
X157162001Y-113405243D01*
X157157042Y-113419103D01*
X157150748Y-113432410D01*
X157143180Y-113445036D01*
X157134412Y-113456859D01*
X157124526Y-113467766D01*
X157113619Y-113477652D01*
X157101796Y-113486420D01*
X157089170Y-113493988D01*
X157075863Y-113500282D01*
X157062003Y-113505241D01*
X157047724Y-113508818D01*
X157033163Y-113510978D01*
X157018460Y-113511700D01*
X155268460Y-113511700D01*
X155253757Y-113510978D01*
X155239196Y-113508818D01*
X155224917Y-113505241D01*
X155211057Y-113500282D01*
X155197750Y-113493988D01*
X155185124Y-113486420D01*
X155173301Y-113477652D01*
X155162394Y-113467766D01*
X155152508Y-113456859D01*
X155143740Y-113445036D01*
X155136172Y-113432410D01*
X155129878Y-113419103D01*
X155124919Y-113405243D01*
X155121342Y-113390964D01*
X155119182Y-113376403D01*
X155118460Y-113361700D01*
X155118460Y-113061700D01*
X155119182Y-113046997D01*
X155121342Y-113032436D01*
X155124919Y-113018157D01*
X155129878Y-113004297D01*
X155136172Y-112990990D01*
X155143740Y-112978364D01*
X155152508Y-112966541D01*
X155162394Y-112955634D01*
X155173301Y-112945748D01*
X155185124Y-112936980D01*
X155197750Y-112929412D01*
X155211057Y-112923118D01*
X155224917Y-112918159D01*
X155239196Y-112914582D01*
X155253757Y-112912422D01*
X155268460Y-112911700D01*
X157018460Y-112911700D01*
X157033163Y-112912422D01*
G37*
G36*
X157033163Y-114182422D02*
G01*
X157047724Y-114184582D01*
X157062003Y-114188159D01*
X157075863Y-114193118D01*
X157089170Y-114199412D01*
X157101796Y-114206980D01*
X157113619Y-114215748D01*
X157124526Y-114225634D01*
X157134412Y-114236541D01*
X157143180Y-114248364D01*
X157150748Y-114260990D01*
X157157042Y-114274297D01*
X157162001Y-114288157D01*
X157165578Y-114302436D01*
X157167738Y-114316997D01*
X157168460Y-114331700D01*
X157168460Y-114631700D01*
X157167738Y-114646403D01*
X157165578Y-114660964D01*
X157162001Y-114675243D01*
X157157042Y-114689103D01*
X157150748Y-114702410D01*
X157143180Y-114715036D01*
X157134412Y-114726859D01*
X157124526Y-114737766D01*
X157113619Y-114747652D01*
X157101796Y-114756420D01*
X157089170Y-114763988D01*
X157075863Y-114770282D01*
X157062003Y-114775241D01*
X157047724Y-114778818D01*
X157033163Y-114780978D01*
X157018460Y-114781700D01*
X155268460Y-114781700D01*
X155253757Y-114780978D01*
X155239196Y-114778818D01*
X155224917Y-114775241D01*
X155211057Y-114770282D01*
X155197750Y-114763988D01*
X155185124Y-114756420D01*
X155173301Y-114747652D01*
X155162394Y-114737766D01*
X155152508Y-114726859D01*
X155143740Y-114715036D01*
X155136172Y-114702410D01*
X155129878Y-114689103D01*
X155124919Y-114675243D01*
X155121342Y-114660964D01*
X155119182Y-114646403D01*
X155118460Y-114631700D01*
X155118460Y-114331700D01*
X155119182Y-114316997D01*
X155121342Y-114302436D01*
X155124919Y-114288157D01*
X155129878Y-114274297D01*
X155136172Y-114260990D01*
X155143740Y-114248364D01*
X155152508Y-114236541D01*
X155162394Y-114225634D01*
X155173301Y-114215748D01*
X155185124Y-114206980D01*
X155197750Y-114199412D01*
X155211057Y-114193118D01*
X155224917Y-114188159D01*
X155239196Y-114184582D01*
X155253757Y-114182422D01*
X155268460Y-114181700D01*
X157018460Y-114181700D01*
X157033163Y-114182422D01*
G37*
G36*
X157033163Y-115452422D02*
G01*
X157047724Y-115454582D01*
X157062003Y-115458159D01*
X157075863Y-115463118D01*
X157089170Y-115469412D01*
X157101796Y-115476980D01*
X157113619Y-115485748D01*
X157124526Y-115495634D01*
X157134412Y-115506541D01*
X157143180Y-115518364D01*
X157150748Y-115530990D01*
X157157042Y-115544297D01*
X157162001Y-115558157D01*
X157165578Y-115572436D01*
X157167738Y-115586997D01*
X157168460Y-115601700D01*
X157168460Y-115901700D01*
X157167738Y-115916403D01*
X157165578Y-115930964D01*
X157162001Y-115945243D01*
X157157042Y-115959103D01*
X157150748Y-115972410D01*
X157143180Y-115985036D01*
X157134412Y-115996859D01*
X157124526Y-116007766D01*
X157113619Y-116017652D01*
X157101796Y-116026420D01*
X157089170Y-116033988D01*
X157075863Y-116040282D01*
X157062003Y-116045241D01*
X157047724Y-116048818D01*
X157033163Y-116050978D01*
X157018460Y-116051700D01*
X155268460Y-116051700D01*
X155253757Y-116050978D01*
X155239196Y-116048818D01*
X155224917Y-116045241D01*
X155211057Y-116040282D01*
X155197750Y-116033988D01*
X155185124Y-116026420D01*
X155173301Y-116017652D01*
X155162394Y-116007766D01*
X155152508Y-115996859D01*
X155143740Y-115985036D01*
X155136172Y-115972410D01*
X155129878Y-115959103D01*
X155124919Y-115945243D01*
X155121342Y-115930964D01*
X155119182Y-115916403D01*
X155118460Y-115901700D01*
X155118460Y-115601700D01*
X155119182Y-115586997D01*
X155121342Y-115572436D01*
X155124919Y-115558157D01*
X155129878Y-115544297D01*
X155136172Y-115530990D01*
X155143740Y-115518364D01*
X155152508Y-115506541D01*
X155162394Y-115495634D01*
X155173301Y-115485748D01*
X155185124Y-115476980D01*
X155197750Y-115469412D01*
X155211057Y-115463118D01*
X155224917Y-115458159D01*
X155239196Y-115454582D01*
X155253757Y-115452422D01*
X155268460Y-115451700D01*
X157018460Y-115451700D01*
X157033163Y-115452422D01*
G37*
G36*
X157033163Y-116722422D02*
G01*
X157047724Y-116724582D01*
X157062003Y-116728159D01*
X157075863Y-116733118D01*
X157089170Y-116739412D01*
X157101796Y-116746980D01*
X157113619Y-116755748D01*
X157124526Y-116765634D01*
X157134412Y-116776541D01*
X157143180Y-116788364D01*
X157150748Y-116800990D01*
X157157042Y-116814297D01*
X157162001Y-116828157D01*
X157165578Y-116842436D01*
X157167738Y-116856997D01*
X157168460Y-116871700D01*
X157168460Y-117171700D01*
X157167738Y-117186403D01*
X157165578Y-117200964D01*
X157162001Y-117215243D01*
X157157042Y-117229103D01*
X157150748Y-117242410D01*
X157143180Y-117255036D01*
X157134412Y-117266859D01*
X157124526Y-117277766D01*
X157113619Y-117287652D01*
X157101796Y-117296420D01*
X157089170Y-117303988D01*
X157075863Y-117310282D01*
X157062003Y-117315241D01*
X157047724Y-117318818D01*
X157033163Y-117320978D01*
X157018460Y-117321700D01*
X155268460Y-117321700D01*
X155253757Y-117320978D01*
X155239196Y-117318818D01*
X155224917Y-117315241D01*
X155211057Y-117310282D01*
X155197750Y-117303988D01*
X155185124Y-117296420D01*
X155173301Y-117287652D01*
X155162394Y-117277766D01*
X155152508Y-117266859D01*
X155143740Y-117255036D01*
X155136172Y-117242410D01*
X155129878Y-117229103D01*
X155124919Y-117215243D01*
X155121342Y-117200964D01*
X155119182Y-117186403D01*
X155118460Y-117171700D01*
X155118460Y-116871700D01*
X155119182Y-116856997D01*
X155121342Y-116842436D01*
X155124919Y-116828157D01*
X155129878Y-116814297D01*
X155136172Y-116800990D01*
X155143740Y-116788364D01*
X155152508Y-116776541D01*
X155162394Y-116765634D01*
X155173301Y-116755748D01*
X155185124Y-116746980D01*
X155197750Y-116739412D01*
X155211057Y-116733118D01*
X155224917Y-116728159D01*
X155239196Y-116724582D01*
X155253757Y-116722422D01*
X155268460Y-116721700D01*
X157018460Y-116721700D01*
X157033163Y-116722422D01*
G37*
G36*
X157033163Y-117992422D02*
G01*
X157047724Y-117994582D01*
X157062003Y-117998159D01*
X157075863Y-118003118D01*
X157089170Y-118009412D01*
X157101796Y-118016980D01*
X157113619Y-118025748D01*
X157124526Y-118035634D01*
X157134412Y-118046541D01*
X157143180Y-118058364D01*
X157150748Y-118070990D01*
X157157042Y-118084297D01*
X157162001Y-118098157D01*
X157165578Y-118112436D01*
X157167738Y-118126997D01*
X157168460Y-118141700D01*
X157168460Y-118441700D01*
X157167738Y-118456403D01*
X157165578Y-118470964D01*
X157162001Y-118485243D01*
X157157042Y-118499103D01*
X157150748Y-118512410D01*
X157143180Y-118525036D01*
X157134412Y-118536859D01*
X157124526Y-118547766D01*
X157113619Y-118557652D01*
X157101796Y-118566420D01*
X157089170Y-118573988D01*
X157075863Y-118580282D01*
X157062003Y-118585241D01*
X157047724Y-118588818D01*
X157033163Y-118590978D01*
X157018460Y-118591700D01*
X155268460Y-118591700D01*
X155253757Y-118590978D01*
X155239196Y-118588818D01*
X155224917Y-118585241D01*
X155211057Y-118580282D01*
X155197750Y-118573988D01*
X155185124Y-118566420D01*
X155173301Y-118557652D01*
X155162394Y-118547766D01*
X155152508Y-118536859D01*
X155143740Y-118525036D01*
X155136172Y-118512410D01*
X155129878Y-118499103D01*
X155124919Y-118485243D01*
X155121342Y-118470964D01*
X155119182Y-118456403D01*
X155118460Y-118441700D01*
X155118460Y-118141700D01*
X155119182Y-118126997D01*
X155121342Y-118112436D01*
X155124919Y-118098157D01*
X155129878Y-118084297D01*
X155136172Y-118070990D01*
X155143740Y-118058364D01*
X155152508Y-118046541D01*
X155162394Y-118035634D01*
X155173301Y-118025748D01*
X155185124Y-118016980D01*
X155197750Y-118009412D01*
X155211057Y-118003118D01*
X155224917Y-117998159D01*
X155239196Y-117994582D01*
X155253757Y-117992422D01*
X155268460Y-117991700D01*
X157018460Y-117991700D01*
X157033163Y-117992422D01*
G37*
G36*
X157033163Y-119262422D02*
G01*
X157047724Y-119264582D01*
X157062003Y-119268159D01*
X157075863Y-119273118D01*
X157089170Y-119279412D01*
X157101796Y-119286980D01*
X157113619Y-119295748D01*
X157124526Y-119305634D01*
X157134412Y-119316541D01*
X157143180Y-119328364D01*
X157150748Y-119340990D01*
X157157042Y-119354297D01*
X157162001Y-119368157D01*
X157165578Y-119382436D01*
X157167738Y-119396997D01*
X157168460Y-119411700D01*
X157168460Y-119711700D01*
X157167738Y-119726403D01*
X157165578Y-119740964D01*
X157162001Y-119755243D01*
X157157042Y-119769103D01*
X157150748Y-119782410D01*
X157143180Y-119795036D01*
X157134412Y-119806859D01*
X157124526Y-119817766D01*
X157113619Y-119827652D01*
X157101796Y-119836420D01*
X157089170Y-119843988D01*
X157075863Y-119850282D01*
X157062003Y-119855241D01*
X157047724Y-119858818D01*
X157033163Y-119860978D01*
X157018460Y-119861700D01*
X155268460Y-119861700D01*
X155253757Y-119860978D01*
X155239196Y-119858818D01*
X155224917Y-119855241D01*
X155211057Y-119850282D01*
X155197750Y-119843988D01*
X155185124Y-119836420D01*
X155173301Y-119827652D01*
X155162394Y-119817766D01*
X155152508Y-119806859D01*
X155143740Y-119795036D01*
X155136172Y-119782410D01*
X155129878Y-119769103D01*
X155124919Y-119755243D01*
X155121342Y-119740964D01*
X155119182Y-119726403D01*
X155118460Y-119711700D01*
X155118460Y-119411700D01*
X155119182Y-119396997D01*
X155121342Y-119382436D01*
X155124919Y-119368157D01*
X155129878Y-119354297D01*
X155136172Y-119340990D01*
X155143740Y-119328364D01*
X155152508Y-119316541D01*
X155162394Y-119305634D01*
X155173301Y-119295748D01*
X155185124Y-119286980D01*
X155197750Y-119279412D01*
X155211057Y-119273118D01*
X155224917Y-119268159D01*
X155239196Y-119264582D01*
X155253757Y-119262422D01*
X155268460Y-119261700D01*
X157018460Y-119261700D01*
X157033163Y-119262422D01*
G37*
G36*
X157033163Y-120532422D02*
G01*
X157047724Y-120534582D01*
X157062003Y-120538159D01*
X157075863Y-120543118D01*
X157089170Y-120549412D01*
X157101796Y-120556980D01*
X157113619Y-120565748D01*
X157124526Y-120575634D01*
X157134412Y-120586541D01*
X157143180Y-120598364D01*
X157150748Y-120610990D01*
X157157042Y-120624297D01*
X157162001Y-120638157D01*
X157165578Y-120652436D01*
X157167738Y-120666997D01*
X157168460Y-120681700D01*
X157168460Y-120981700D01*
X157167738Y-120996403D01*
X157165578Y-121010964D01*
X157162001Y-121025243D01*
X157157042Y-121039103D01*
X157150748Y-121052410D01*
X157143180Y-121065036D01*
X157134412Y-121076859D01*
X157124526Y-121087766D01*
X157113619Y-121097652D01*
X157101796Y-121106420D01*
X157089170Y-121113988D01*
X157075863Y-121120282D01*
X157062003Y-121125241D01*
X157047724Y-121128818D01*
X157033163Y-121130978D01*
X157018460Y-121131700D01*
X155268460Y-121131700D01*
X155253757Y-121130978D01*
X155239196Y-121128818D01*
X155224917Y-121125241D01*
X155211057Y-121120282D01*
X155197750Y-121113988D01*
X155185124Y-121106420D01*
X155173301Y-121097652D01*
X155162394Y-121087766D01*
X155152508Y-121076859D01*
X155143740Y-121065036D01*
X155136172Y-121052410D01*
X155129878Y-121039103D01*
X155124919Y-121025243D01*
X155121342Y-121010964D01*
X155119182Y-120996403D01*
X155118460Y-120981700D01*
X155118460Y-120681700D01*
X155119182Y-120666997D01*
X155121342Y-120652436D01*
X155124919Y-120638157D01*
X155129878Y-120624297D01*
X155136172Y-120610990D01*
X155143740Y-120598364D01*
X155152508Y-120586541D01*
X155162394Y-120575634D01*
X155173301Y-120565748D01*
X155185124Y-120556980D01*
X155197750Y-120549412D01*
X155211057Y-120543118D01*
X155224917Y-120538159D01*
X155239196Y-120534582D01*
X155253757Y-120532422D01*
X155268460Y-120531700D01*
X157018460Y-120531700D01*
X157033163Y-120532422D01*
G37*
G36*
X157033163Y-121802422D02*
G01*
X157047724Y-121804582D01*
X157062003Y-121808159D01*
X157075863Y-121813118D01*
X157089170Y-121819412D01*
X157101796Y-121826980D01*
X157113619Y-121835748D01*
X157124526Y-121845634D01*
X157134412Y-121856541D01*
X157143180Y-121868364D01*
X157150748Y-121880990D01*
X157157042Y-121894297D01*
X157162001Y-121908157D01*
X157165578Y-121922436D01*
X157167738Y-121936997D01*
X157168460Y-121951700D01*
X157168460Y-122251700D01*
X157167738Y-122266403D01*
X157165578Y-122280964D01*
X157162001Y-122295243D01*
X157157042Y-122309103D01*
X157150748Y-122322410D01*
X157143180Y-122335036D01*
X157134412Y-122346859D01*
X157124526Y-122357766D01*
X157113619Y-122367652D01*
X157101796Y-122376420D01*
X157089170Y-122383988D01*
X157075863Y-122390282D01*
X157062003Y-122395241D01*
X157047724Y-122398818D01*
X157033163Y-122400978D01*
X157018460Y-122401700D01*
X155268460Y-122401700D01*
X155253757Y-122400978D01*
X155239196Y-122398818D01*
X155224917Y-122395241D01*
X155211057Y-122390282D01*
X155197750Y-122383988D01*
X155185124Y-122376420D01*
X155173301Y-122367652D01*
X155162394Y-122357766D01*
X155152508Y-122346859D01*
X155143740Y-122335036D01*
X155136172Y-122322410D01*
X155129878Y-122309103D01*
X155124919Y-122295243D01*
X155121342Y-122280964D01*
X155119182Y-122266403D01*
X155118460Y-122251700D01*
X155118460Y-121951700D01*
X155119182Y-121936997D01*
X155121342Y-121922436D01*
X155124919Y-121908157D01*
X155129878Y-121894297D01*
X155136172Y-121880990D01*
X155143740Y-121868364D01*
X155152508Y-121856541D01*
X155162394Y-121845634D01*
X155173301Y-121835748D01*
X155185124Y-121826980D01*
X155197750Y-121819412D01*
X155211057Y-121813118D01*
X155224917Y-121808159D01*
X155239196Y-121804582D01*
X155253757Y-121802422D01*
X155268460Y-121801700D01*
X157018460Y-121801700D01*
X157033163Y-121802422D01*
G37*
G36*
X166333163Y-121802422D02*
G01*
X166347724Y-121804582D01*
X166362003Y-121808159D01*
X166375863Y-121813118D01*
X166389170Y-121819412D01*
X166401796Y-121826980D01*
X166413619Y-121835748D01*
X166424526Y-121845634D01*
X166434412Y-121856541D01*
X166443180Y-121868364D01*
X166450748Y-121880990D01*
X166457042Y-121894297D01*
X166462001Y-121908157D01*
X166465578Y-121922436D01*
X166467738Y-121936997D01*
X166468460Y-121951700D01*
X166468460Y-122251700D01*
X166467738Y-122266403D01*
X166465578Y-122280964D01*
X166462001Y-122295243D01*
X166457042Y-122309103D01*
X166450748Y-122322410D01*
X166443180Y-122335036D01*
X166434412Y-122346859D01*
X166424526Y-122357766D01*
X166413619Y-122367652D01*
X166401796Y-122376420D01*
X166389170Y-122383988D01*
X166375863Y-122390282D01*
X166362003Y-122395241D01*
X166347724Y-122398818D01*
X166333163Y-122400978D01*
X166318460Y-122401700D01*
X164568460Y-122401700D01*
X164553757Y-122400978D01*
X164539196Y-122398818D01*
X164524917Y-122395241D01*
X164511057Y-122390282D01*
X164497750Y-122383988D01*
X164485124Y-122376420D01*
X164473301Y-122367652D01*
X164462394Y-122357766D01*
X164452508Y-122346859D01*
X164443740Y-122335036D01*
X164436172Y-122322410D01*
X164429878Y-122309103D01*
X164424919Y-122295243D01*
X164421342Y-122280964D01*
X164419182Y-122266403D01*
X164418460Y-122251700D01*
X164418460Y-121951700D01*
X164419182Y-121936997D01*
X164421342Y-121922436D01*
X164424919Y-121908157D01*
X164429878Y-121894297D01*
X164436172Y-121880990D01*
X164443740Y-121868364D01*
X164452508Y-121856541D01*
X164462394Y-121845634D01*
X164473301Y-121835748D01*
X164485124Y-121826980D01*
X164497750Y-121819412D01*
X164511057Y-121813118D01*
X164524917Y-121808159D01*
X164539196Y-121804582D01*
X164553757Y-121802422D01*
X164568460Y-121801700D01*
X166318460Y-121801700D01*
X166333163Y-121802422D01*
G37*
G36*
X166333163Y-120532422D02*
G01*
X166347724Y-120534582D01*
X166362003Y-120538159D01*
X166375863Y-120543118D01*
X166389170Y-120549412D01*
X166401796Y-120556980D01*
X166413619Y-120565748D01*
X166424526Y-120575634D01*
X166434412Y-120586541D01*
X166443180Y-120598364D01*
X166450748Y-120610990D01*
X166457042Y-120624297D01*
X166462001Y-120638157D01*
X166465578Y-120652436D01*
X166467738Y-120666997D01*
X166468460Y-120681700D01*
X166468460Y-120981700D01*
X166467738Y-120996403D01*
X166465578Y-121010964D01*
X166462001Y-121025243D01*
X166457042Y-121039103D01*
X166450748Y-121052410D01*
X166443180Y-121065036D01*
X166434412Y-121076859D01*
X166424526Y-121087766D01*
X166413619Y-121097652D01*
X166401796Y-121106420D01*
X166389170Y-121113988D01*
X166375863Y-121120282D01*
X166362003Y-121125241D01*
X166347724Y-121128818D01*
X166333163Y-121130978D01*
X166318460Y-121131700D01*
X164568460Y-121131700D01*
X164553757Y-121130978D01*
X164539196Y-121128818D01*
X164524917Y-121125241D01*
X164511057Y-121120282D01*
X164497750Y-121113988D01*
X164485124Y-121106420D01*
X164473301Y-121097652D01*
X164462394Y-121087766D01*
X164452508Y-121076859D01*
X164443740Y-121065036D01*
X164436172Y-121052410D01*
X164429878Y-121039103D01*
X164424919Y-121025243D01*
X164421342Y-121010964D01*
X164419182Y-120996403D01*
X164418460Y-120981700D01*
X164418460Y-120681700D01*
X164419182Y-120666997D01*
X164421342Y-120652436D01*
X164424919Y-120638157D01*
X164429878Y-120624297D01*
X164436172Y-120610990D01*
X164443740Y-120598364D01*
X164452508Y-120586541D01*
X164462394Y-120575634D01*
X164473301Y-120565748D01*
X164485124Y-120556980D01*
X164497750Y-120549412D01*
X164511057Y-120543118D01*
X164524917Y-120538159D01*
X164539196Y-120534582D01*
X164553757Y-120532422D01*
X164568460Y-120531700D01*
X166318460Y-120531700D01*
X166333163Y-120532422D01*
G37*
G36*
X166333163Y-119262422D02*
G01*
X166347724Y-119264582D01*
X166362003Y-119268159D01*
X166375863Y-119273118D01*
X166389170Y-119279412D01*
X166401796Y-119286980D01*
X166413619Y-119295748D01*
X166424526Y-119305634D01*
X166434412Y-119316541D01*
X166443180Y-119328364D01*
X166450748Y-119340990D01*
X166457042Y-119354297D01*
X166462001Y-119368157D01*
X166465578Y-119382436D01*
X166467738Y-119396997D01*
X166468460Y-119411700D01*
X166468460Y-119711700D01*
X166467738Y-119726403D01*
X166465578Y-119740964D01*
X166462001Y-119755243D01*
X166457042Y-119769103D01*
X166450748Y-119782410D01*
X166443180Y-119795036D01*
X166434412Y-119806859D01*
X166424526Y-119817766D01*
X166413619Y-119827652D01*
X166401796Y-119836420D01*
X166389170Y-119843988D01*
X166375863Y-119850282D01*
X166362003Y-119855241D01*
X166347724Y-119858818D01*
X166333163Y-119860978D01*
X166318460Y-119861700D01*
X164568460Y-119861700D01*
X164553757Y-119860978D01*
X164539196Y-119858818D01*
X164524917Y-119855241D01*
X164511057Y-119850282D01*
X164497750Y-119843988D01*
X164485124Y-119836420D01*
X164473301Y-119827652D01*
X164462394Y-119817766D01*
X164452508Y-119806859D01*
X164443740Y-119795036D01*
X164436172Y-119782410D01*
X164429878Y-119769103D01*
X164424919Y-119755243D01*
X164421342Y-119740964D01*
X164419182Y-119726403D01*
X164418460Y-119711700D01*
X164418460Y-119411700D01*
X164419182Y-119396997D01*
X164421342Y-119382436D01*
X164424919Y-119368157D01*
X164429878Y-119354297D01*
X164436172Y-119340990D01*
X164443740Y-119328364D01*
X164452508Y-119316541D01*
X164462394Y-119305634D01*
X164473301Y-119295748D01*
X164485124Y-119286980D01*
X164497750Y-119279412D01*
X164511057Y-119273118D01*
X164524917Y-119268159D01*
X164539196Y-119264582D01*
X164553757Y-119262422D01*
X164568460Y-119261700D01*
X166318460Y-119261700D01*
X166333163Y-119262422D01*
G37*
G36*
X166333163Y-117992422D02*
G01*
X166347724Y-117994582D01*
X166362003Y-117998159D01*
X166375863Y-118003118D01*
X166389170Y-118009412D01*
X166401796Y-118016980D01*
X166413619Y-118025748D01*
X166424526Y-118035634D01*
X166434412Y-118046541D01*
X166443180Y-118058364D01*
X166450748Y-118070990D01*
X166457042Y-118084297D01*
X166462001Y-118098157D01*
X166465578Y-118112436D01*
X166467738Y-118126997D01*
X166468460Y-118141700D01*
X166468460Y-118441700D01*
X166467738Y-118456403D01*
X166465578Y-118470964D01*
X166462001Y-118485243D01*
X166457042Y-118499103D01*
X166450748Y-118512410D01*
X166443180Y-118525036D01*
X166434412Y-118536859D01*
X166424526Y-118547766D01*
X166413619Y-118557652D01*
X166401796Y-118566420D01*
X166389170Y-118573988D01*
X166375863Y-118580282D01*
X166362003Y-118585241D01*
X166347724Y-118588818D01*
X166333163Y-118590978D01*
X166318460Y-118591700D01*
X164568460Y-118591700D01*
X164553757Y-118590978D01*
X164539196Y-118588818D01*
X164524917Y-118585241D01*
X164511057Y-118580282D01*
X164497750Y-118573988D01*
X164485124Y-118566420D01*
X164473301Y-118557652D01*
X164462394Y-118547766D01*
X164452508Y-118536859D01*
X164443740Y-118525036D01*
X164436172Y-118512410D01*
X164429878Y-118499103D01*
X164424919Y-118485243D01*
X164421342Y-118470964D01*
X164419182Y-118456403D01*
X164418460Y-118441700D01*
X164418460Y-118141700D01*
X164419182Y-118126997D01*
X164421342Y-118112436D01*
X164424919Y-118098157D01*
X164429878Y-118084297D01*
X164436172Y-118070990D01*
X164443740Y-118058364D01*
X164452508Y-118046541D01*
X164462394Y-118035634D01*
X164473301Y-118025748D01*
X164485124Y-118016980D01*
X164497750Y-118009412D01*
X164511057Y-118003118D01*
X164524917Y-117998159D01*
X164539196Y-117994582D01*
X164553757Y-117992422D01*
X164568460Y-117991700D01*
X166318460Y-117991700D01*
X166333163Y-117992422D01*
G37*
G36*
X166333163Y-116722422D02*
G01*
X166347724Y-116724582D01*
X166362003Y-116728159D01*
X166375863Y-116733118D01*
X166389170Y-116739412D01*
X166401796Y-116746980D01*
X166413619Y-116755748D01*
X166424526Y-116765634D01*
X166434412Y-116776541D01*
X166443180Y-116788364D01*
X166450748Y-116800990D01*
X166457042Y-116814297D01*
X166462001Y-116828157D01*
X166465578Y-116842436D01*
X166467738Y-116856997D01*
X166468460Y-116871700D01*
X166468460Y-117171700D01*
X166467738Y-117186403D01*
X166465578Y-117200964D01*
X166462001Y-117215243D01*
X166457042Y-117229103D01*
X166450748Y-117242410D01*
X166443180Y-117255036D01*
X166434412Y-117266859D01*
X166424526Y-117277766D01*
X166413619Y-117287652D01*
X166401796Y-117296420D01*
X166389170Y-117303988D01*
X166375863Y-117310282D01*
X166362003Y-117315241D01*
X166347724Y-117318818D01*
X166333163Y-117320978D01*
X166318460Y-117321700D01*
X164568460Y-117321700D01*
X164553757Y-117320978D01*
X164539196Y-117318818D01*
X164524917Y-117315241D01*
X164511057Y-117310282D01*
X164497750Y-117303988D01*
X164485124Y-117296420D01*
X164473301Y-117287652D01*
X164462394Y-117277766D01*
X164452508Y-117266859D01*
X164443740Y-117255036D01*
X164436172Y-117242410D01*
X164429878Y-117229103D01*
X164424919Y-117215243D01*
X164421342Y-117200964D01*
X164419182Y-117186403D01*
X164418460Y-117171700D01*
X164418460Y-116871700D01*
X164419182Y-116856997D01*
X164421342Y-116842436D01*
X164424919Y-116828157D01*
X164429878Y-116814297D01*
X164436172Y-116800990D01*
X164443740Y-116788364D01*
X164452508Y-116776541D01*
X164462394Y-116765634D01*
X164473301Y-116755748D01*
X164485124Y-116746980D01*
X164497750Y-116739412D01*
X164511057Y-116733118D01*
X164524917Y-116728159D01*
X164539196Y-116724582D01*
X164553757Y-116722422D01*
X164568460Y-116721700D01*
X166318460Y-116721700D01*
X166333163Y-116722422D01*
G37*
G36*
X166333163Y-115452422D02*
G01*
X166347724Y-115454582D01*
X166362003Y-115458159D01*
X166375863Y-115463118D01*
X166389170Y-115469412D01*
X166401796Y-115476980D01*
X166413619Y-115485748D01*
X166424526Y-115495634D01*
X166434412Y-115506541D01*
X166443180Y-115518364D01*
X166450748Y-115530990D01*
X166457042Y-115544297D01*
X166462001Y-115558157D01*
X166465578Y-115572436D01*
X166467738Y-115586997D01*
X166468460Y-115601700D01*
X166468460Y-115901700D01*
X166467738Y-115916403D01*
X166465578Y-115930964D01*
X166462001Y-115945243D01*
X166457042Y-115959103D01*
X166450748Y-115972410D01*
X166443180Y-115985036D01*
X166434412Y-115996859D01*
X166424526Y-116007766D01*
X166413619Y-116017652D01*
X166401796Y-116026420D01*
X166389170Y-116033988D01*
X166375863Y-116040282D01*
X166362003Y-116045241D01*
X166347724Y-116048818D01*
X166333163Y-116050978D01*
X166318460Y-116051700D01*
X164568460Y-116051700D01*
X164553757Y-116050978D01*
X164539196Y-116048818D01*
X164524917Y-116045241D01*
X164511057Y-116040282D01*
X164497750Y-116033988D01*
X164485124Y-116026420D01*
X164473301Y-116017652D01*
X164462394Y-116007766D01*
X164452508Y-115996859D01*
X164443740Y-115985036D01*
X164436172Y-115972410D01*
X164429878Y-115959103D01*
X164424919Y-115945243D01*
X164421342Y-115930964D01*
X164419182Y-115916403D01*
X164418460Y-115901700D01*
X164418460Y-115601700D01*
X164419182Y-115586997D01*
X164421342Y-115572436D01*
X164424919Y-115558157D01*
X164429878Y-115544297D01*
X164436172Y-115530990D01*
X164443740Y-115518364D01*
X164452508Y-115506541D01*
X164462394Y-115495634D01*
X164473301Y-115485748D01*
X164485124Y-115476980D01*
X164497750Y-115469412D01*
X164511057Y-115463118D01*
X164524917Y-115458159D01*
X164539196Y-115454582D01*
X164553757Y-115452422D01*
X164568460Y-115451700D01*
X166318460Y-115451700D01*
X166333163Y-115452422D01*
G37*
G36*
X166333163Y-114182422D02*
G01*
X166347724Y-114184582D01*
X166362003Y-114188159D01*
X166375863Y-114193118D01*
X166389170Y-114199412D01*
X166401796Y-114206980D01*
X166413619Y-114215748D01*
X166424526Y-114225634D01*
X166434412Y-114236541D01*
X166443180Y-114248364D01*
X166450748Y-114260990D01*
X166457042Y-114274297D01*
X166462001Y-114288157D01*
X166465578Y-114302436D01*
X166467738Y-114316997D01*
X166468460Y-114331700D01*
X166468460Y-114631700D01*
X166467738Y-114646403D01*
X166465578Y-114660964D01*
X166462001Y-114675243D01*
X166457042Y-114689103D01*
X166450748Y-114702410D01*
X166443180Y-114715036D01*
X166434412Y-114726859D01*
X166424526Y-114737766D01*
X166413619Y-114747652D01*
X166401796Y-114756420D01*
X166389170Y-114763988D01*
X166375863Y-114770282D01*
X166362003Y-114775241D01*
X166347724Y-114778818D01*
X166333163Y-114780978D01*
X166318460Y-114781700D01*
X164568460Y-114781700D01*
X164553757Y-114780978D01*
X164539196Y-114778818D01*
X164524917Y-114775241D01*
X164511057Y-114770282D01*
X164497750Y-114763988D01*
X164485124Y-114756420D01*
X164473301Y-114747652D01*
X164462394Y-114737766D01*
X164452508Y-114726859D01*
X164443740Y-114715036D01*
X164436172Y-114702410D01*
X164429878Y-114689103D01*
X164424919Y-114675243D01*
X164421342Y-114660964D01*
X164419182Y-114646403D01*
X164418460Y-114631700D01*
X164418460Y-114331700D01*
X164419182Y-114316997D01*
X164421342Y-114302436D01*
X164424919Y-114288157D01*
X164429878Y-114274297D01*
X164436172Y-114260990D01*
X164443740Y-114248364D01*
X164452508Y-114236541D01*
X164462394Y-114225634D01*
X164473301Y-114215748D01*
X164485124Y-114206980D01*
X164497750Y-114199412D01*
X164511057Y-114193118D01*
X164524917Y-114188159D01*
X164539196Y-114184582D01*
X164553757Y-114182422D01*
X164568460Y-114181700D01*
X166318460Y-114181700D01*
X166333163Y-114182422D01*
G37*
G36*
X166333163Y-112912422D02*
G01*
X166347724Y-112914582D01*
X166362003Y-112918159D01*
X166375863Y-112923118D01*
X166389170Y-112929412D01*
X166401796Y-112936980D01*
X166413619Y-112945748D01*
X166424526Y-112955634D01*
X166434412Y-112966541D01*
X166443180Y-112978364D01*
X166450748Y-112990990D01*
X166457042Y-113004297D01*
X166462001Y-113018157D01*
X166465578Y-113032436D01*
X166467738Y-113046997D01*
X166468460Y-113061700D01*
X166468460Y-113361700D01*
X166467738Y-113376403D01*
X166465578Y-113390964D01*
X166462001Y-113405243D01*
X166457042Y-113419103D01*
X166450748Y-113432410D01*
X166443180Y-113445036D01*
X166434412Y-113456859D01*
X166424526Y-113467766D01*
X166413619Y-113477652D01*
X166401796Y-113486420D01*
X166389170Y-113493988D01*
X166375863Y-113500282D01*
X166362003Y-113505241D01*
X166347724Y-113508818D01*
X166333163Y-113510978D01*
X166318460Y-113511700D01*
X164568460Y-113511700D01*
X164553757Y-113510978D01*
X164539196Y-113508818D01*
X164524917Y-113505241D01*
X164511057Y-113500282D01*
X164497750Y-113493988D01*
X164485124Y-113486420D01*
X164473301Y-113477652D01*
X164462394Y-113467766D01*
X164452508Y-113456859D01*
X164443740Y-113445036D01*
X164436172Y-113432410D01*
X164429878Y-113419103D01*
X164424919Y-113405243D01*
X164421342Y-113390964D01*
X164419182Y-113376403D01*
X164418460Y-113361700D01*
X164418460Y-113061700D01*
X164419182Y-113046997D01*
X164421342Y-113032436D01*
X164424919Y-113018157D01*
X164429878Y-113004297D01*
X164436172Y-112990990D01*
X164443740Y-112978364D01*
X164452508Y-112966541D01*
X164462394Y-112955634D01*
X164473301Y-112945748D01*
X164485124Y-112936980D01*
X164497750Y-112929412D01*
X164511057Y-112923118D01*
X164524917Y-112918159D01*
X164539196Y-112914582D01*
X164553757Y-112912422D01*
X164568460Y-112911700D01*
X166318460Y-112911700D01*
X166333163Y-112912422D01*
G37*
G36*
X166333163Y-111642422D02*
G01*
X166347724Y-111644582D01*
X166362003Y-111648159D01*
X166375863Y-111653118D01*
X166389170Y-111659412D01*
X166401796Y-111666980D01*
X166413619Y-111675748D01*
X166424526Y-111685634D01*
X166434412Y-111696541D01*
X166443180Y-111708364D01*
X166450748Y-111720990D01*
X166457042Y-111734297D01*
X166462001Y-111748157D01*
X166465578Y-111762436D01*
X166467738Y-111776997D01*
X166468460Y-111791700D01*
X166468460Y-112091700D01*
X166467738Y-112106403D01*
X166465578Y-112120964D01*
X166462001Y-112135243D01*
X166457042Y-112149103D01*
X166450748Y-112162410D01*
X166443180Y-112175036D01*
X166434412Y-112186859D01*
X166424526Y-112197766D01*
X166413619Y-112207652D01*
X166401796Y-112216420D01*
X166389170Y-112223988D01*
X166375863Y-112230282D01*
X166362003Y-112235241D01*
X166347724Y-112238818D01*
X166333163Y-112240978D01*
X166318460Y-112241700D01*
X164568460Y-112241700D01*
X164553757Y-112240978D01*
X164539196Y-112238818D01*
X164524917Y-112235241D01*
X164511057Y-112230282D01*
X164497750Y-112223988D01*
X164485124Y-112216420D01*
X164473301Y-112207652D01*
X164462394Y-112197766D01*
X164452508Y-112186859D01*
X164443740Y-112175036D01*
X164436172Y-112162410D01*
X164429878Y-112149103D01*
X164424919Y-112135243D01*
X164421342Y-112120964D01*
X164419182Y-112106403D01*
X164418460Y-112091700D01*
X164418460Y-111791700D01*
X164419182Y-111776997D01*
X164421342Y-111762436D01*
X164424919Y-111748157D01*
X164429878Y-111734297D01*
X164436172Y-111720990D01*
X164443740Y-111708364D01*
X164452508Y-111696541D01*
X164462394Y-111685634D01*
X164473301Y-111675748D01*
X164485124Y-111666980D01*
X164497750Y-111659412D01*
X164511057Y-111653118D01*
X164524917Y-111648159D01*
X164539196Y-111644582D01*
X164553757Y-111642422D01*
X164568460Y-111641700D01*
X166318460Y-111641700D01*
X166333163Y-111642422D01*
G37*
G36*
X166333163Y-110372422D02*
G01*
X166347724Y-110374582D01*
X166362003Y-110378159D01*
X166375863Y-110383118D01*
X166389170Y-110389412D01*
X166401796Y-110396980D01*
X166413619Y-110405748D01*
X166424526Y-110415634D01*
X166434412Y-110426541D01*
X166443180Y-110438364D01*
X166450748Y-110450990D01*
X166457042Y-110464297D01*
X166462001Y-110478157D01*
X166465578Y-110492436D01*
X166467738Y-110506997D01*
X166468460Y-110521700D01*
X166468460Y-110821700D01*
X166467738Y-110836403D01*
X166465578Y-110850964D01*
X166462001Y-110865243D01*
X166457042Y-110879103D01*
X166450748Y-110892410D01*
X166443180Y-110905036D01*
X166434412Y-110916859D01*
X166424526Y-110927766D01*
X166413619Y-110937652D01*
X166401796Y-110946420D01*
X166389170Y-110953988D01*
X166375863Y-110960282D01*
X166362003Y-110965241D01*
X166347724Y-110968818D01*
X166333163Y-110970978D01*
X166318460Y-110971700D01*
X164568460Y-110971700D01*
X164553757Y-110970978D01*
X164539196Y-110968818D01*
X164524917Y-110965241D01*
X164511057Y-110960282D01*
X164497750Y-110953988D01*
X164485124Y-110946420D01*
X164473301Y-110937652D01*
X164462394Y-110927766D01*
X164452508Y-110916859D01*
X164443740Y-110905036D01*
X164436172Y-110892410D01*
X164429878Y-110879103D01*
X164424919Y-110865243D01*
X164421342Y-110850964D01*
X164419182Y-110836403D01*
X164418460Y-110821700D01*
X164418460Y-110521700D01*
X164419182Y-110506997D01*
X164421342Y-110492436D01*
X164424919Y-110478157D01*
X164429878Y-110464297D01*
X164436172Y-110450990D01*
X164443740Y-110438364D01*
X164452508Y-110426541D01*
X164462394Y-110415634D01*
X164473301Y-110405748D01*
X164485124Y-110396980D01*
X164497750Y-110389412D01*
X164511057Y-110383118D01*
X164524917Y-110378159D01*
X164539196Y-110374582D01*
X164553757Y-110372422D01*
X164568460Y-110371700D01*
X166318460Y-110371700D01*
X166333163Y-110372422D01*
G37*
G36*
X166333163Y-109102422D02*
G01*
X166347724Y-109104582D01*
X166362003Y-109108159D01*
X166375863Y-109113118D01*
X166389170Y-109119412D01*
X166401796Y-109126980D01*
X166413619Y-109135748D01*
X166424526Y-109145634D01*
X166434412Y-109156541D01*
X166443180Y-109168364D01*
X166450748Y-109180990D01*
X166457042Y-109194297D01*
X166462001Y-109208157D01*
X166465578Y-109222436D01*
X166467738Y-109236997D01*
X166468460Y-109251700D01*
X166468460Y-109551700D01*
X166467738Y-109566403D01*
X166465578Y-109580964D01*
X166462001Y-109595243D01*
X166457042Y-109609103D01*
X166450748Y-109622410D01*
X166443180Y-109635036D01*
X166434412Y-109646859D01*
X166424526Y-109657766D01*
X166413619Y-109667652D01*
X166401796Y-109676420D01*
X166389170Y-109683988D01*
X166375863Y-109690282D01*
X166362003Y-109695241D01*
X166347724Y-109698818D01*
X166333163Y-109700978D01*
X166318460Y-109701700D01*
X164568460Y-109701700D01*
X164553757Y-109700978D01*
X164539196Y-109698818D01*
X164524917Y-109695241D01*
X164511057Y-109690282D01*
X164497750Y-109683988D01*
X164485124Y-109676420D01*
X164473301Y-109667652D01*
X164462394Y-109657766D01*
X164452508Y-109646859D01*
X164443740Y-109635036D01*
X164436172Y-109622410D01*
X164429878Y-109609103D01*
X164424919Y-109595243D01*
X164421342Y-109580964D01*
X164419182Y-109566403D01*
X164418460Y-109551700D01*
X164418460Y-109251700D01*
X164419182Y-109236997D01*
X164421342Y-109222436D01*
X164424919Y-109208157D01*
X164429878Y-109194297D01*
X164436172Y-109180990D01*
X164443740Y-109168364D01*
X164452508Y-109156541D01*
X164462394Y-109145634D01*
X164473301Y-109135748D01*
X164485124Y-109126980D01*
X164497750Y-109119412D01*
X164511057Y-109113118D01*
X164524917Y-109108159D01*
X164539196Y-109104582D01*
X164553757Y-109102422D01*
X164568460Y-109101700D01*
X166318460Y-109101700D01*
X166333163Y-109102422D01*
G37*
G36*
X166333163Y-107832422D02*
G01*
X166347724Y-107834582D01*
X166362003Y-107838159D01*
X166375863Y-107843118D01*
X166389170Y-107849412D01*
X166401796Y-107856980D01*
X166413619Y-107865748D01*
X166424526Y-107875634D01*
X166434412Y-107886541D01*
X166443180Y-107898364D01*
X166450748Y-107910990D01*
X166457042Y-107924297D01*
X166462001Y-107938157D01*
X166465578Y-107952436D01*
X166467738Y-107966997D01*
X166468460Y-107981700D01*
X166468460Y-108281700D01*
X166467738Y-108296403D01*
X166465578Y-108310964D01*
X166462001Y-108325243D01*
X166457042Y-108339103D01*
X166450748Y-108352410D01*
X166443180Y-108365036D01*
X166434412Y-108376859D01*
X166424526Y-108387766D01*
X166413619Y-108397652D01*
X166401796Y-108406420D01*
X166389170Y-108413988D01*
X166375863Y-108420282D01*
X166362003Y-108425241D01*
X166347724Y-108428818D01*
X166333163Y-108430978D01*
X166318460Y-108431700D01*
X164568460Y-108431700D01*
X164553757Y-108430978D01*
X164539196Y-108428818D01*
X164524917Y-108425241D01*
X164511057Y-108420282D01*
X164497750Y-108413988D01*
X164485124Y-108406420D01*
X164473301Y-108397652D01*
X164462394Y-108387766D01*
X164452508Y-108376859D01*
X164443740Y-108365036D01*
X164436172Y-108352410D01*
X164429878Y-108339103D01*
X164424919Y-108325243D01*
X164421342Y-108310964D01*
X164419182Y-108296403D01*
X164418460Y-108281700D01*
X164418460Y-107981700D01*
X164419182Y-107966997D01*
X164421342Y-107952436D01*
X164424919Y-107938157D01*
X164429878Y-107924297D01*
X164436172Y-107910990D01*
X164443740Y-107898364D01*
X164452508Y-107886541D01*
X164462394Y-107875634D01*
X164473301Y-107865748D01*
X164485124Y-107856980D01*
X164497750Y-107849412D01*
X164511057Y-107843118D01*
X164524917Y-107838159D01*
X164539196Y-107834582D01*
X164553757Y-107832422D01*
X164568460Y-107831700D01*
X166318460Y-107831700D01*
X166333163Y-107832422D01*
G37*
G36*
X166333163Y-106562422D02*
G01*
X166347724Y-106564582D01*
X166362003Y-106568159D01*
X166375863Y-106573118D01*
X166389170Y-106579412D01*
X166401796Y-106586980D01*
X166413619Y-106595748D01*
X166424526Y-106605634D01*
X166434412Y-106616541D01*
X166443180Y-106628364D01*
X166450748Y-106640990D01*
X166457042Y-106654297D01*
X166462001Y-106668157D01*
X166465578Y-106682436D01*
X166467738Y-106696997D01*
X166468460Y-106711700D01*
X166468460Y-107011700D01*
X166467738Y-107026403D01*
X166465578Y-107040964D01*
X166462001Y-107055243D01*
X166457042Y-107069103D01*
X166450748Y-107082410D01*
X166443180Y-107095036D01*
X166434412Y-107106859D01*
X166424526Y-107117766D01*
X166413619Y-107127652D01*
X166401796Y-107136420D01*
X166389170Y-107143988D01*
X166375863Y-107150282D01*
X166362003Y-107155241D01*
X166347724Y-107158818D01*
X166333163Y-107160978D01*
X166318460Y-107161700D01*
X164568460Y-107161700D01*
X164553757Y-107160978D01*
X164539196Y-107158818D01*
X164524917Y-107155241D01*
X164511057Y-107150282D01*
X164497750Y-107143988D01*
X164485124Y-107136420D01*
X164473301Y-107127652D01*
X164462394Y-107117766D01*
X164452508Y-107106859D01*
X164443740Y-107095036D01*
X164436172Y-107082410D01*
X164429878Y-107069103D01*
X164424919Y-107055243D01*
X164421342Y-107040964D01*
X164419182Y-107026403D01*
X164418460Y-107011700D01*
X164418460Y-106711700D01*
X164419182Y-106696997D01*
X164421342Y-106682436D01*
X164424919Y-106668157D01*
X164429878Y-106654297D01*
X164436172Y-106640990D01*
X164443740Y-106628364D01*
X164452508Y-106616541D01*
X164462394Y-106605634D01*
X164473301Y-106595748D01*
X164485124Y-106586980D01*
X164497750Y-106579412D01*
X164511057Y-106573118D01*
X164524917Y-106568159D01*
X164539196Y-106564582D01*
X164553757Y-106562422D01*
X164568460Y-106561700D01*
X166318460Y-106561700D01*
X166333163Y-106562422D01*
G37*
G36*
X166333163Y-105292422D02*
G01*
X166347724Y-105294582D01*
X166362003Y-105298159D01*
X166375863Y-105303118D01*
X166389170Y-105309412D01*
X166401796Y-105316980D01*
X166413619Y-105325748D01*
X166424526Y-105335634D01*
X166434412Y-105346541D01*
X166443180Y-105358364D01*
X166450748Y-105370990D01*
X166457042Y-105384297D01*
X166462001Y-105398157D01*
X166465578Y-105412436D01*
X166467738Y-105426997D01*
X166468460Y-105441700D01*
X166468460Y-105741700D01*
X166467738Y-105756403D01*
X166465578Y-105770964D01*
X166462001Y-105785243D01*
X166457042Y-105799103D01*
X166450748Y-105812410D01*
X166443180Y-105825036D01*
X166434412Y-105836859D01*
X166424526Y-105847766D01*
X166413619Y-105857652D01*
X166401796Y-105866420D01*
X166389170Y-105873988D01*
X166375863Y-105880282D01*
X166362003Y-105885241D01*
X166347724Y-105888818D01*
X166333163Y-105890978D01*
X166318460Y-105891700D01*
X164568460Y-105891700D01*
X164553757Y-105890978D01*
X164539196Y-105888818D01*
X164524917Y-105885241D01*
X164511057Y-105880282D01*
X164497750Y-105873988D01*
X164485124Y-105866420D01*
X164473301Y-105857652D01*
X164462394Y-105847766D01*
X164452508Y-105836859D01*
X164443740Y-105825036D01*
X164436172Y-105812410D01*
X164429878Y-105799103D01*
X164424919Y-105785243D01*
X164421342Y-105770964D01*
X164419182Y-105756403D01*
X164418460Y-105741700D01*
X164418460Y-105441700D01*
X164419182Y-105426997D01*
X164421342Y-105412436D01*
X164424919Y-105398157D01*
X164429878Y-105384297D01*
X164436172Y-105370990D01*
X164443740Y-105358364D01*
X164452508Y-105346541D01*
X164462394Y-105335634D01*
X164473301Y-105325748D01*
X164485124Y-105316980D01*
X164497750Y-105309412D01*
X164511057Y-105303118D01*
X164524917Y-105298159D01*
X164539196Y-105294582D01*
X164553757Y-105292422D01*
X164568460Y-105291700D01*
X166318460Y-105291700D01*
X166333163Y-105292422D01*
G37*
G36*
X169142342Y-134472374D02*
G01*
X169166003Y-134475884D01*
X169189207Y-134481696D01*
X169211729Y-134489754D01*
X169233353Y-134499982D01*
X169253870Y-134512279D01*
X169273083Y-134526529D01*
X169290807Y-134542593D01*
X169306871Y-134560317D01*
X169321121Y-134579530D01*
X169333418Y-134600047D01*
X169343646Y-134621671D01*
X169351704Y-134644193D01*
X169357516Y-134667397D01*
X169361026Y-134691058D01*
X169362200Y-134714950D01*
X169362200Y-135627450D01*
X169361026Y-135651342D01*
X169357516Y-135675003D01*
X169351704Y-135698207D01*
X169343646Y-135720729D01*
X169333418Y-135742353D01*
X169321121Y-135762870D01*
X169306871Y-135782083D01*
X169290807Y-135799807D01*
X169273083Y-135815871D01*
X169253870Y-135830121D01*
X169233353Y-135842418D01*
X169211729Y-135852646D01*
X169189207Y-135860704D01*
X169166003Y-135866516D01*
X169142342Y-135870026D01*
X169118450Y-135871200D01*
X168630950Y-135871200D01*
X168607058Y-135870026D01*
X168583397Y-135866516D01*
X168560193Y-135860704D01*
X168537671Y-135852646D01*
X168516047Y-135842418D01*
X168495530Y-135830121D01*
X168476317Y-135815871D01*
X168458593Y-135799807D01*
X168442529Y-135782083D01*
X168428279Y-135762870D01*
X168415982Y-135742353D01*
X168405754Y-135720729D01*
X168397696Y-135698207D01*
X168391884Y-135675003D01*
X168388374Y-135651342D01*
X168387200Y-135627450D01*
X168387200Y-134714950D01*
X168388374Y-134691058D01*
X168391884Y-134667397D01*
X168397696Y-134644193D01*
X168405754Y-134621671D01*
X168415982Y-134600047D01*
X168428279Y-134579530D01*
X168442529Y-134560317D01*
X168458593Y-134542593D01*
X168476317Y-134526529D01*
X168495530Y-134512279D01*
X168516047Y-134499982D01*
X168537671Y-134489754D01*
X168560193Y-134481696D01*
X168583397Y-134475884D01*
X168607058Y-134472374D01*
X168630950Y-134471200D01*
X169118450Y-134471200D01*
X169142342Y-134472374D01*
G37*
G36*
X167267342Y-134472374D02*
G01*
X167291003Y-134475884D01*
X167314207Y-134481696D01*
X167336729Y-134489754D01*
X167358353Y-134499982D01*
X167378870Y-134512279D01*
X167398083Y-134526529D01*
X167415807Y-134542593D01*
X167431871Y-134560317D01*
X167446121Y-134579530D01*
X167458418Y-134600047D01*
X167468646Y-134621671D01*
X167476704Y-134644193D01*
X167482516Y-134667397D01*
X167486026Y-134691058D01*
X167487200Y-134714950D01*
X167487200Y-135627450D01*
X167486026Y-135651342D01*
X167482516Y-135675003D01*
X167476704Y-135698207D01*
X167468646Y-135720729D01*
X167458418Y-135742353D01*
X167446121Y-135762870D01*
X167431871Y-135782083D01*
X167415807Y-135799807D01*
X167398083Y-135815871D01*
X167378870Y-135830121D01*
X167358353Y-135842418D01*
X167336729Y-135852646D01*
X167314207Y-135860704D01*
X167291003Y-135866516D01*
X167267342Y-135870026D01*
X167243450Y-135871200D01*
X166755950Y-135871200D01*
X166732058Y-135870026D01*
X166708397Y-135866516D01*
X166685193Y-135860704D01*
X166662671Y-135852646D01*
X166641047Y-135842418D01*
X166620530Y-135830121D01*
X166601317Y-135815871D01*
X166583593Y-135799807D01*
X166567529Y-135782083D01*
X166553279Y-135762870D01*
X166540982Y-135742353D01*
X166530754Y-135720729D01*
X166522696Y-135698207D01*
X166516884Y-135675003D01*
X166513374Y-135651342D01*
X166512200Y-135627450D01*
X166512200Y-134714950D01*
X166513374Y-134691058D01*
X166516884Y-134667397D01*
X166522696Y-134644193D01*
X166530754Y-134621671D01*
X166540982Y-134600047D01*
X166553279Y-134579530D01*
X166567529Y-134560317D01*
X166583593Y-134542593D01*
X166601317Y-134526529D01*
X166620530Y-134512279D01*
X166641047Y-134499982D01*
X166662671Y-134489754D01*
X166685193Y-134481696D01*
X166708397Y-134475884D01*
X166732058Y-134472374D01*
X166755950Y-134471200D01*
X167243450Y-134471200D01*
X167267342Y-134472374D01*
G37*
G36*
X186298942Y-67042374D02*
G01*
X186322603Y-67045884D01*
X186345807Y-67051696D01*
X186368329Y-67059754D01*
X186389953Y-67069982D01*
X186410470Y-67082279D01*
X186429683Y-67096529D01*
X186447407Y-67112593D01*
X186463471Y-67130317D01*
X186477721Y-67149530D01*
X186490018Y-67170047D01*
X186500246Y-67191671D01*
X186508304Y-67214193D01*
X186514116Y-67237397D01*
X186517626Y-67261058D01*
X186518800Y-67284950D01*
X186518800Y-67772450D01*
X186517626Y-67796342D01*
X186514116Y-67820003D01*
X186508304Y-67843207D01*
X186500246Y-67865729D01*
X186490018Y-67887353D01*
X186477721Y-67907870D01*
X186463471Y-67927083D01*
X186447407Y-67944807D01*
X186429683Y-67960871D01*
X186410470Y-67975121D01*
X186389953Y-67987418D01*
X186368329Y-67997646D01*
X186345807Y-68005704D01*
X186322603Y-68011516D01*
X186298942Y-68015026D01*
X186275050Y-68016200D01*
X185362550Y-68016200D01*
X185338658Y-68015026D01*
X185314997Y-68011516D01*
X185291793Y-68005704D01*
X185269271Y-67997646D01*
X185247647Y-67987418D01*
X185227130Y-67975121D01*
X185207917Y-67960871D01*
X185190193Y-67944807D01*
X185174129Y-67927083D01*
X185159879Y-67907870D01*
X185147582Y-67887353D01*
X185137354Y-67865729D01*
X185129296Y-67843207D01*
X185123484Y-67820003D01*
X185119974Y-67796342D01*
X185118800Y-67772450D01*
X185118800Y-67284950D01*
X185119974Y-67261058D01*
X185123484Y-67237397D01*
X185129296Y-67214193D01*
X185137354Y-67191671D01*
X185147582Y-67170047D01*
X185159879Y-67149530D01*
X185174129Y-67130317D01*
X185190193Y-67112593D01*
X185207917Y-67096529D01*
X185227130Y-67082279D01*
X185247647Y-67069982D01*
X185269271Y-67059754D01*
X185291793Y-67051696D01*
X185314997Y-67045884D01*
X185338658Y-67042374D01*
X185362550Y-67041200D01*
X186275050Y-67041200D01*
X186298942Y-67042374D01*
G37*
G36*
X186298942Y-65167374D02*
G01*
X186322603Y-65170884D01*
X186345807Y-65176696D01*
X186368329Y-65184754D01*
X186389953Y-65194982D01*
X186410470Y-65207279D01*
X186429683Y-65221529D01*
X186447407Y-65237593D01*
X186463471Y-65255317D01*
X186477721Y-65274530D01*
X186490018Y-65295047D01*
X186500246Y-65316671D01*
X186508304Y-65339193D01*
X186514116Y-65362397D01*
X186517626Y-65386058D01*
X186518800Y-65409950D01*
X186518800Y-65897450D01*
X186517626Y-65921342D01*
X186514116Y-65945003D01*
X186508304Y-65968207D01*
X186500246Y-65990729D01*
X186490018Y-66012353D01*
X186477721Y-66032870D01*
X186463471Y-66052083D01*
X186447407Y-66069807D01*
X186429683Y-66085871D01*
X186410470Y-66100121D01*
X186389953Y-66112418D01*
X186368329Y-66122646D01*
X186345807Y-66130704D01*
X186322603Y-66136516D01*
X186298942Y-66140026D01*
X186275050Y-66141200D01*
X185362550Y-66141200D01*
X185338658Y-66140026D01*
X185314997Y-66136516D01*
X185291793Y-66130704D01*
X185269271Y-66122646D01*
X185247647Y-66112418D01*
X185227130Y-66100121D01*
X185207917Y-66085871D01*
X185190193Y-66069807D01*
X185174129Y-66052083D01*
X185159879Y-66032870D01*
X185147582Y-66012353D01*
X185137354Y-65990729D01*
X185129296Y-65968207D01*
X185123484Y-65945003D01*
X185119974Y-65921342D01*
X185118800Y-65897450D01*
X185118800Y-65409950D01*
X185119974Y-65386058D01*
X185123484Y-65362397D01*
X185129296Y-65339193D01*
X185137354Y-65316671D01*
X185147582Y-65295047D01*
X185159879Y-65274530D01*
X185174129Y-65255317D01*
X185190193Y-65237593D01*
X185207917Y-65221529D01*
X185227130Y-65207279D01*
X185247647Y-65194982D01*
X185269271Y-65184754D01*
X185291793Y-65176696D01*
X185314997Y-65170884D01*
X185338658Y-65167374D01*
X185362550Y-65166200D01*
X186275050Y-65166200D01*
X186298942Y-65167374D01*
G37*
G36*
X138705142Y-116701174D02*
G01*
X138728803Y-116704684D01*
X138752007Y-116710496D01*
X138774529Y-116718554D01*
X138796153Y-116728782D01*
X138816670Y-116741079D01*
X138835883Y-116755329D01*
X138853607Y-116771393D01*
X138869671Y-116789117D01*
X138883921Y-116808330D01*
X138896218Y-116828847D01*
X138906446Y-116850471D01*
X138914504Y-116872993D01*
X138920316Y-116896197D01*
X138923826Y-116919858D01*
X138925000Y-116943750D01*
X138925000Y-117856250D01*
X138923826Y-117880142D01*
X138920316Y-117903803D01*
X138914504Y-117927007D01*
X138906446Y-117949529D01*
X138896218Y-117971153D01*
X138883921Y-117991670D01*
X138869671Y-118010883D01*
X138853607Y-118028607D01*
X138835883Y-118044671D01*
X138816670Y-118058921D01*
X138796153Y-118071218D01*
X138774529Y-118081446D01*
X138752007Y-118089504D01*
X138728803Y-118095316D01*
X138705142Y-118098826D01*
X138681250Y-118100000D01*
X138193750Y-118100000D01*
X138169858Y-118098826D01*
X138146197Y-118095316D01*
X138122993Y-118089504D01*
X138100471Y-118081446D01*
X138078847Y-118071218D01*
X138058330Y-118058921D01*
X138039117Y-118044671D01*
X138021393Y-118028607D01*
X138005329Y-118010883D01*
X137991079Y-117991670D01*
X137978782Y-117971153D01*
X137968554Y-117949529D01*
X137960496Y-117927007D01*
X137954684Y-117903803D01*
X137951174Y-117880142D01*
X137950000Y-117856250D01*
X137950000Y-116943750D01*
X137951174Y-116919858D01*
X137954684Y-116896197D01*
X137960496Y-116872993D01*
X137968554Y-116850471D01*
X137978782Y-116828847D01*
X137991079Y-116808330D01*
X138005329Y-116789117D01*
X138021393Y-116771393D01*
X138039117Y-116755329D01*
X138058330Y-116741079D01*
X138078847Y-116728782D01*
X138100471Y-116718554D01*
X138122993Y-116710496D01*
X138146197Y-116704684D01*
X138169858Y-116701174D01*
X138193750Y-116700000D01*
X138681250Y-116700000D01*
X138705142Y-116701174D01*
G37*
G36*
X136830142Y-116701174D02*
G01*
X136853803Y-116704684D01*
X136877007Y-116710496D01*
X136899529Y-116718554D01*
X136921153Y-116728782D01*
X136941670Y-116741079D01*
X136960883Y-116755329D01*
X136978607Y-116771393D01*
X136994671Y-116789117D01*
X137008921Y-116808330D01*
X137021218Y-116828847D01*
X137031446Y-116850471D01*
X137039504Y-116872993D01*
X137045316Y-116896197D01*
X137048826Y-116919858D01*
X137050000Y-116943750D01*
X137050000Y-117856250D01*
X137048826Y-117880142D01*
X137045316Y-117903803D01*
X137039504Y-117927007D01*
X137031446Y-117949529D01*
X137021218Y-117971153D01*
X137008921Y-117991670D01*
X136994671Y-118010883D01*
X136978607Y-118028607D01*
X136960883Y-118044671D01*
X136941670Y-118058921D01*
X136921153Y-118071218D01*
X136899529Y-118081446D01*
X136877007Y-118089504D01*
X136853803Y-118095316D01*
X136830142Y-118098826D01*
X136806250Y-118100000D01*
X136318750Y-118100000D01*
X136294858Y-118098826D01*
X136271197Y-118095316D01*
X136247993Y-118089504D01*
X136225471Y-118081446D01*
X136203847Y-118071218D01*
X136183330Y-118058921D01*
X136164117Y-118044671D01*
X136146393Y-118028607D01*
X136130329Y-118010883D01*
X136116079Y-117991670D01*
X136103782Y-117971153D01*
X136093554Y-117949529D01*
X136085496Y-117927007D01*
X136079684Y-117903803D01*
X136076174Y-117880142D01*
X136075000Y-117856250D01*
X136075000Y-116943750D01*
X136076174Y-116919858D01*
X136079684Y-116896197D01*
X136085496Y-116872993D01*
X136093554Y-116850471D01*
X136103782Y-116828847D01*
X136116079Y-116808330D01*
X136130329Y-116789117D01*
X136146393Y-116771393D01*
X136164117Y-116755329D01*
X136183330Y-116741079D01*
X136203847Y-116728782D01*
X136225471Y-116718554D01*
X136247993Y-116710496D01*
X136271197Y-116704684D01*
X136294858Y-116701174D01*
X136318750Y-116700000D01*
X136806250Y-116700000D01*
X136830142Y-116701174D01*
G37*
G36*
X149385742Y-118851374D02*
G01*
X149409403Y-118854884D01*
X149432607Y-118860696D01*
X149455129Y-118868754D01*
X149476753Y-118878982D01*
X149497270Y-118891279D01*
X149516483Y-118905529D01*
X149534207Y-118921593D01*
X149550271Y-118939317D01*
X149564521Y-118958530D01*
X149576818Y-118979047D01*
X149587046Y-119000671D01*
X149595104Y-119023193D01*
X149600916Y-119046397D01*
X149604426Y-119070058D01*
X149605600Y-119093950D01*
X149605600Y-120006450D01*
X149604426Y-120030342D01*
X149600916Y-120054003D01*
X149595104Y-120077207D01*
X149587046Y-120099729D01*
X149576818Y-120121353D01*
X149564521Y-120141870D01*
X149550271Y-120161083D01*
X149534207Y-120178807D01*
X149516483Y-120194871D01*
X149497270Y-120209121D01*
X149476753Y-120221418D01*
X149455129Y-120231646D01*
X149432607Y-120239704D01*
X149409403Y-120245516D01*
X149385742Y-120249026D01*
X149361850Y-120250200D01*
X148874350Y-120250200D01*
X148850458Y-120249026D01*
X148826797Y-120245516D01*
X148803593Y-120239704D01*
X148781071Y-120231646D01*
X148759447Y-120221418D01*
X148738930Y-120209121D01*
X148719717Y-120194871D01*
X148701993Y-120178807D01*
X148685929Y-120161083D01*
X148671679Y-120141870D01*
X148659382Y-120121353D01*
X148649154Y-120099729D01*
X148641096Y-120077207D01*
X148635284Y-120054003D01*
X148631774Y-120030342D01*
X148630600Y-120006450D01*
X148630600Y-119093950D01*
X148631774Y-119070058D01*
X148635284Y-119046397D01*
X148641096Y-119023193D01*
X148649154Y-119000671D01*
X148659382Y-118979047D01*
X148671679Y-118958530D01*
X148685929Y-118939317D01*
X148701993Y-118921593D01*
X148719717Y-118905529D01*
X148738930Y-118891279D01*
X148759447Y-118878982D01*
X148781071Y-118868754D01*
X148803593Y-118860696D01*
X148826797Y-118854884D01*
X148850458Y-118851374D01*
X148874350Y-118850200D01*
X149361850Y-118850200D01*
X149385742Y-118851374D01*
G37*
G36*
X151260742Y-118851374D02*
G01*
X151284403Y-118854884D01*
X151307607Y-118860696D01*
X151330129Y-118868754D01*
X151351753Y-118878982D01*
X151372270Y-118891279D01*
X151391483Y-118905529D01*
X151409207Y-118921593D01*
X151425271Y-118939317D01*
X151439521Y-118958530D01*
X151451818Y-118979047D01*
X151462046Y-119000671D01*
X151470104Y-119023193D01*
X151475916Y-119046397D01*
X151479426Y-119070058D01*
X151480600Y-119093950D01*
X151480600Y-120006450D01*
X151479426Y-120030342D01*
X151475916Y-120054003D01*
X151470104Y-120077207D01*
X151462046Y-120099729D01*
X151451818Y-120121353D01*
X151439521Y-120141870D01*
X151425271Y-120161083D01*
X151409207Y-120178807D01*
X151391483Y-120194871D01*
X151372270Y-120209121D01*
X151351753Y-120221418D01*
X151330129Y-120231646D01*
X151307607Y-120239704D01*
X151284403Y-120245516D01*
X151260742Y-120249026D01*
X151236850Y-120250200D01*
X150749350Y-120250200D01*
X150725458Y-120249026D01*
X150701797Y-120245516D01*
X150678593Y-120239704D01*
X150656071Y-120231646D01*
X150634447Y-120221418D01*
X150613930Y-120209121D01*
X150594717Y-120194871D01*
X150576993Y-120178807D01*
X150560929Y-120161083D01*
X150546679Y-120141870D01*
X150534382Y-120121353D01*
X150524154Y-120099729D01*
X150516096Y-120077207D01*
X150510284Y-120054003D01*
X150506774Y-120030342D01*
X150505600Y-120006450D01*
X150505600Y-119093950D01*
X150506774Y-119070058D01*
X150510284Y-119046397D01*
X150516096Y-119023193D01*
X150524154Y-119000671D01*
X150534382Y-118979047D01*
X150546679Y-118958530D01*
X150560929Y-118939317D01*
X150576993Y-118921593D01*
X150594717Y-118905529D01*
X150613930Y-118891279D01*
X150634447Y-118878982D01*
X150656071Y-118868754D01*
X150678593Y-118860696D01*
X150701797Y-118854884D01*
X150725458Y-118851374D01*
X150749350Y-118850200D01*
X151236850Y-118850200D01*
X151260742Y-118851374D01*
G37*
G36*
X133405142Y-99852174D02*
G01*
X133428803Y-99855684D01*
X133452007Y-99861496D01*
X133474529Y-99869554D01*
X133496153Y-99879782D01*
X133516670Y-99892079D01*
X133535883Y-99906329D01*
X133553607Y-99922393D01*
X133569671Y-99940117D01*
X133583921Y-99959330D01*
X133596218Y-99979847D01*
X133606446Y-100001471D01*
X133614504Y-100023993D01*
X133620316Y-100047197D01*
X133623826Y-100070858D01*
X133625000Y-100094750D01*
X133625000Y-101007250D01*
X133623826Y-101031142D01*
X133620316Y-101054803D01*
X133614504Y-101078007D01*
X133606446Y-101100529D01*
X133596218Y-101122153D01*
X133583921Y-101142670D01*
X133569671Y-101161883D01*
X133553607Y-101179607D01*
X133535883Y-101195671D01*
X133516670Y-101209921D01*
X133496153Y-101222218D01*
X133474529Y-101232446D01*
X133452007Y-101240504D01*
X133428803Y-101246316D01*
X133405142Y-101249826D01*
X133381250Y-101251000D01*
X132893750Y-101251000D01*
X132869858Y-101249826D01*
X132846197Y-101246316D01*
X132822993Y-101240504D01*
X132800471Y-101232446D01*
X132778847Y-101222218D01*
X132758330Y-101209921D01*
X132739117Y-101195671D01*
X132721393Y-101179607D01*
X132705329Y-101161883D01*
X132691079Y-101142670D01*
X132678782Y-101122153D01*
X132668554Y-101100529D01*
X132660496Y-101078007D01*
X132654684Y-101054803D01*
X132651174Y-101031142D01*
X132650000Y-101007250D01*
X132650000Y-100094750D01*
X132651174Y-100070858D01*
X132654684Y-100047197D01*
X132660496Y-100023993D01*
X132668554Y-100001471D01*
X132678782Y-99979847D01*
X132691079Y-99959330D01*
X132705329Y-99940117D01*
X132721393Y-99922393D01*
X132739117Y-99906329D01*
X132758330Y-99892079D01*
X132778847Y-99879782D01*
X132800471Y-99869554D01*
X132822993Y-99861496D01*
X132846197Y-99855684D01*
X132869858Y-99852174D01*
X132893750Y-99851000D01*
X133381250Y-99851000D01*
X133405142Y-99852174D01*
G37*
G36*
X131530142Y-99852174D02*
G01*
X131553803Y-99855684D01*
X131577007Y-99861496D01*
X131599529Y-99869554D01*
X131621153Y-99879782D01*
X131641670Y-99892079D01*
X131660883Y-99906329D01*
X131678607Y-99922393D01*
X131694671Y-99940117D01*
X131708921Y-99959330D01*
X131721218Y-99979847D01*
X131731446Y-100001471D01*
X131739504Y-100023993D01*
X131745316Y-100047197D01*
X131748826Y-100070858D01*
X131750000Y-100094750D01*
X131750000Y-101007250D01*
X131748826Y-101031142D01*
X131745316Y-101054803D01*
X131739504Y-101078007D01*
X131731446Y-101100529D01*
X131721218Y-101122153D01*
X131708921Y-101142670D01*
X131694671Y-101161883D01*
X131678607Y-101179607D01*
X131660883Y-101195671D01*
X131641670Y-101209921D01*
X131621153Y-101222218D01*
X131599529Y-101232446D01*
X131577007Y-101240504D01*
X131553803Y-101246316D01*
X131530142Y-101249826D01*
X131506250Y-101251000D01*
X131018750Y-101251000D01*
X130994858Y-101249826D01*
X130971197Y-101246316D01*
X130947993Y-101240504D01*
X130925471Y-101232446D01*
X130903847Y-101222218D01*
X130883330Y-101209921D01*
X130864117Y-101195671D01*
X130846393Y-101179607D01*
X130830329Y-101161883D01*
X130816079Y-101142670D01*
X130803782Y-101122153D01*
X130793554Y-101100529D01*
X130785496Y-101078007D01*
X130779684Y-101054803D01*
X130776174Y-101031142D01*
X130775000Y-101007250D01*
X130775000Y-100094750D01*
X130776174Y-100070858D01*
X130779684Y-100047197D01*
X130785496Y-100023993D01*
X130793554Y-100001471D01*
X130803782Y-99979847D01*
X130816079Y-99959330D01*
X130830329Y-99940117D01*
X130846393Y-99922393D01*
X130864117Y-99906329D01*
X130883330Y-99892079D01*
X130903847Y-99879782D01*
X130925471Y-99869554D01*
X130947993Y-99861496D01*
X130971197Y-99855684D01*
X130994858Y-99852174D01*
X131018750Y-99851000D01*
X131506250Y-99851000D01*
X131530142Y-99852174D01*
G37*
G36*
X126805142Y-99852174D02*
G01*
X126828803Y-99855684D01*
X126852007Y-99861496D01*
X126874529Y-99869554D01*
X126896153Y-99879782D01*
X126916670Y-99892079D01*
X126935883Y-99906329D01*
X126953607Y-99922393D01*
X126969671Y-99940117D01*
X126983921Y-99959330D01*
X126996218Y-99979847D01*
X127006446Y-100001471D01*
X127014504Y-100023993D01*
X127020316Y-100047197D01*
X127023826Y-100070858D01*
X127025000Y-100094750D01*
X127025000Y-101007250D01*
X127023826Y-101031142D01*
X127020316Y-101054803D01*
X127014504Y-101078007D01*
X127006446Y-101100529D01*
X126996218Y-101122153D01*
X126983921Y-101142670D01*
X126969671Y-101161883D01*
X126953607Y-101179607D01*
X126935883Y-101195671D01*
X126916670Y-101209921D01*
X126896153Y-101222218D01*
X126874529Y-101232446D01*
X126852007Y-101240504D01*
X126828803Y-101246316D01*
X126805142Y-101249826D01*
X126781250Y-101251000D01*
X126293750Y-101251000D01*
X126269858Y-101249826D01*
X126246197Y-101246316D01*
X126222993Y-101240504D01*
X126200471Y-101232446D01*
X126178847Y-101222218D01*
X126158330Y-101209921D01*
X126139117Y-101195671D01*
X126121393Y-101179607D01*
X126105329Y-101161883D01*
X126091079Y-101142670D01*
X126078782Y-101122153D01*
X126068554Y-101100529D01*
X126060496Y-101078007D01*
X126054684Y-101054803D01*
X126051174Y-101031142D01*
X126050000Y-101007250D01*
X126050000Y-100094750D01*
X126051174Y-100070858D01*
X126054684Y-100047197D01*
X126060496Y-100023993D01*
X126068554Y-100001471D01*
X126078782Y-99979847D01*
X126091079Y-99959330D01*
X126105329Y-99940117D01*
X126121393Y-99922393D01*
X126139117Y-99906329D01*
X126158330Y-99892079D01*
X126178847Y-99879782D01*
X126200471Y-99869554D01*
X126222993Y-99861496D01*
X126246197Y-99855684D01*
X126269858Y-99852174D01*
X126293750Y-99851000D01*
X126781250Y-99851000D01*
X126805142Y-99852174D01*
G37*
G36*
X128680142Y-99852174D02*
G01*
X128703803Y-99855684D01*
X128727007Y-99861496D01*
X128749529Y-99869554D01*
X128771153Y-99879782D01*
X128791670Y-99892079D01*
X128810883Y-99906329D01*
X128828607Y-99922393D01*
X128844671Y-99940117D01*
X128858921Y-99959330D01*
X128871218Y-99979847D01*
X128881446Y-100001471D01*
X128889504Y-100023993D01*
X128895316Y-100047197D01*
X128898826Y-100070858D01*
X128900000Y-100094750D01*
X128900000Y-101007250D01*
X128898826Y-101031142D01*
X128895316Y-101054803D01*
X128889504Y-101078007D01*
X128881446Y-101100529D01*
X128871218Y-101122153D01*
X128858921Y-101142670D01*
X128844671Y-101161883D01*
X128828607Y-101179607D01*
X128810883Y-101195671D01*
X128791670Y-101209921D01*
X128771153Y-101222218D01*
X128749529Y-101232446D01*
X128727007Y-101240504D01*
X128703803Y-101246316D01*
X128680142Y-101249826D01*
X128656250Y-101251000D01*
X128168750Y-101251000D01*
X128144858Y-101249826D01*
X128121197Y-101246316D01*
X128097993Y-101240504D01*
X128075471Y-101232446D01*
X128053847Y-101222218D01*
X128033330Y-101209921D01*
X128014117Y-101195671D01*
X127996393Y-101179607D01*
X127980329Y-101161883D01*
X127966079Y-101142670D01*
X127953782Y-101122153D01*
X127943554Y-101100529D01*
X127935496Y-101078007D01*
X127929684Y-101054803D01*
X127926174Y-101031142D01*
X127925000Y-101007250D01*
X127925000Y-100094750D01*
X127926174Y-100070858D01*
X127929684Y-100047197D01*
X127935496Y-100023993D01*
X127943554Y-100001471D01*
X127953782Y-99979847D01*
X127966079Y-99959330D01*
X127980329Y-99940117D01*
X127996393Y-99922393D01*
X128014117Y-99906329D01*
X128033330Y-99892079D01*
X128053847Y-99879782D01*
X128075471Y-99869554D01*
X128097993Y-99861496D01*
X128121197Y-99855684D01*
X128144858Y-99852174D01*
X128168750Y-99851000D01*
X128656250Y-99851000D01*
X128680142Y-99852174D01*
G37*
G36*
X143467642Y-149701174D02*
G01*
X143491303Y-149704684D01*
X143514507Y-149710496D01*
X143537029Y-149718554D01*
X143558653Y-149728782D01*
X143579170Y-149741079D01*
X143598383Y-149755329D01*
X143616107Y-149771393D01*
X143632171Y-149789117D01*
X143646421Y-149808330D01*
X143658718Y-149828847D01*
X143668946Y-149850471D01*
X143677004Y-149872993D01*
X143682816Y-149896197D01*
X143686326Y-149919858D01*
X143687500Y-149943750D01*
X143687500Y-150856250D01*
X143686326Y-150880142D01*
X143682816Y-150903803D01*
X143677004Y-150927007D01*
X143668946Y-150949529D01*
X143658718Y-150971153D01*
X143646421Y-150991670D01*
X143632171Y-151010883D01*
X143616107Y-151028607D01*
X143598383Y-151044671D01*
X143579170Y-151058921D01*
X143558653Y-151071218D01*
X143537029Y-151081446D01*
X143514507Y-151089504D01*
X143491303Y-151095316D01*
X143467642Y-151098826D01*
X143443750Y-151100000D01*
X142956250Y-151100000D01*
X142932358Y-151098826D01*
X142908697Y-151095316D01*
X142885493Y-151089504D01*
X142862971Y-151081446D01*
X142841347Y-151071218D01*
X142820830Y-151058921D01*
X142801617Y-151044671D01*
X142783893Y-151028607D01*
X142767829Y-151010883D01*
X142753579Y-150991670D01*
X142741282Y-150971153D01*
X142731054Y-150949529D01*
X142722996Y-150927007D01*
X142717184Y-150903803D01*
X142713674Y-150880142D01*
X142712500Y-150856250D01*
X142712500Y-149943750D01*
X142713674Y-149919858D01*
X142717184Y-149896197D01*
X142722996Y-149872993D01*
X142731054Y-149850471D01*
X142741282Y-149828847D01*
X142753579Y-149808330D01*
X142767829Y-149789117D01*
X142783893Y-149771393D01*
X142801617Y-149755329D01*
X142820830Y-149741079D01*
X142841347Y-149728782D01*
X142862971Y-149718554D01*
X142885493Y-149710496D01*
X142908697Y-149704684D01*
X142932358Y-149701174D01*
X142956250Y-149700000D01*
X143443750Y-149700000D01*
X143467642Y-149701174D01*
G37*
G36*
X145342642Y-149701174D02*
G01*
X145366303Y-149704684D01*
X145389507Y-149710496D01*
X145412029Y-149718554D01*
X145433653Y-149728782D01*
X145454170Y-149741079D01*
X145473383Y-149755329D01*
X145491107Y-149771393D01*
X145507171Y-149789117D01*
X145521421Y-149808330D01*
X145533718Y-149828847D01*
X145543946Y-149850471D01*
X145552004Y-149872993D01*
X145557816Y-149896197D01*
X145561326Y-149919858D01*
X145562500Y-149943750D01*
X145562500Y-150856250D01*
X145561326Y-150880142D01*
X145557816Y-150903803D01*
X145552004Y-150927007D01*
X145543946Y-150949529D01*
X145533718Y-150971153D01*
X145521421Y-150991670D01*
X145507171Y-151010883D01*
X145491107Y-151028607D01*
X145473383Y-151044671D01*
X145454170Y-151058921D01*
X145433653Y-151071218D01*
X145412029Y-151081446D01*
X145389507Y-151089504D01*
X145366303Y-151095316D01*
X145342642Y-151098826D01*
X145318750Y-151100000D01*
X144831250Y-151100000D01*
X144807358Y-151098826D01*
X144783697Y-151095316D01*
X144760493Y-151089504D01*
X144737971Y-151081446D01*
X144716347Y-151071218D01*
X144695830Y-151058921D01*
X144676617Y-151044671D01*
X144658893Y-151028607D01*
X144642829Y-151010883D01*
X144628579Y-150991670D01*
X144616282Y-150971153D01*
X144606054Y-150949529D01*
X144597996Y-150927007D01*
X144592184Y-150903803D01*
X144588674Y-150880142D01*
X144587500Y-150856250D01*
X144587500Y-149943750D01*
X144588674Y-149919858D01*
X144592184Y-149896197D01*
X144597996Y-149872993D01*
X144606054Y-149850471D01*
X144616282Y-149828847D01*
X144628579Y-149808330D01*
X144642829Y-149789117D01*
X144658893Y-149771393D01*
X144676617Y-149755329D01*
X144695830Y-149741079D01*
X144716347Y-149728782D01*
X144737971Y-149718554D01*
X144760493Y-149710496D01*
X144783697Y-149704684D01*
X144807358Y-149701174D01*
X144831250Y-149700000D01*
X145318750Y-149700000D01*
X145342642Y-149701174D01*
G37*
D11*
X147287000Y-140962000D03*
D12*
X147287000Y-147262000D03*
X149587000Y-147262000D03*
X144987000Y-147262000D03*
D10*
G36*
X142890342Y-139993474D02*
G01*
X142914003Y-139996984D01*
X142937207Y-140002796D01*
X142959729Y-140010854D01*
X142981353Y-140021082D01*
X143001870Y-140033379D01*
X143021083Y-140047629D01*
X143038807Y-140063693D01*
X143054871Y-140081417D01*
X143069121Y-140100630D01*
X143081418Y-140121147D01*
X143091646Y-140142771D01*
X143099704Y-140165293D01*
X143105516Y-140188497D01*
X143109026Y-140212158D01*
X143110200Y-140236050D01*
X143110200Y-140723550D01*
X143109026Y-140747442D01*
X143105516Y-140771103D01*
X143099704Y-140794307D01*
X143091646Y-140816829D01*
X143081418Y-140838453D01*
X143069121Y-140858970D01*
X143054871Y-140878183D01*
X143038807Y-140895907D01*
X143021083Y-140911971D01*
X143001870Y-140926221D01*
X142981353Y-140938518D01*
X142959729Y-140948746D01*
X142937207Y-140956804D01*
X142914003Y-140962616D01*
X142890342Y-140966126D01*
X142866450Y-140967300D01*
X141953950Y-140967300D01*
X141930058Y-140966126D01*
X141906397Y-140962616D01*
X141883193Y-140956804D01*
X141860671Y-140948746D01*
X141839047Y-140938518D01*
X141818530Y-140926221D01*
X141799317Y-140911971D01*
X141781593Y-140895907D01*
X141765529Y-140878183D01*
X141751279Y-140858970D01*
X141738982Y-140838453D01*
X141728754Y-140816829D01*
X141720696Y-140794307D01*
X141714884Y-140771103D01*
X141711374Y-140747442D01*
X141710200Y-140723550D01*
X141710200Y-140236050D01*
X141711374Y-140212158D01*
X141714884Y-140188497D01*
X141720696Y-140165293D01*
X141728754Y-140142771D01*
X141738982Y-140121147D01*
X141751279Y-140100630D01*
X141765529Y-140081417D01*
X141781593Y-140063693D01*
X141799317Y-140047629D01*
X141818530Y-140033379D01*
X141839047Y-140021082D01*
X141860671Y-140010854D01*
X141883193Y-140002796D01*
X141906397Y-139996984D01*
X141930058Y-139993474D01*
X141953950Y-139992300D01*
X142866450Y-139992300D01*
X142890342Y-139993474D01*
G37*
G36*
X142890342Y-141868474D02*
G01*
X142914003Y-141871984D01*
X142937207Y-141877796D01*
X142959729Y-141885854D01*
X142981353Y-141896082D01*
X143001870Y-141908379D01*
X143021083Y-141922629D01*
X143038807Y-141938693D01*
X143054871Y-141956417D01*
X143069121Y-141975630D01*
X143081418Y-141996147D01*
X143091646Y-142017771D01*
X143099704Y-142040293D01*
X143105516Y-142063497D01*
X143109026Y-142087158D01*
X143110200Y-142111050D01*
X143110200Y-142598550D01*
X143109026Y-142622442D01*
X143105516Y-142646103D01*
X143099704Y-142669307D01*
X143091646Y-142691829D01*
X143081418Y-142713453D01*
X143069121Y-142733970D01*
X143054871Y-142753183D01*
X143038807Y-142770907D01*
X143021083Y-142786971D01*
X143001870Y-142801221D01*
X142981353Y-142813518D01*
X142959729Y-142823746D01*
X142937207Y-142831804D01*
X142914003Y-142837616D01*
X142890342Y-142841126D01*
X142866450Y-142842300D01*
X141953950Y-142842300D01*
X141930058Y-142841126D01*
X141906397Y-142837616D01*
X141883193Y-142831804D01*
X141860671Y-142823746D01*
X141839047Y-142813518D01*
X141818530Y-142801221D01*
X141799317Y-142786971D01*
X141781593Y-142770907D01*
X141765529Y-142753183D01*
X141751279Y-142733970D01*
X141738982Y-142713453D01*
X141728754Y-142691829D01*
X141720696Y-142669307D01*
X141714884Y-142646103D01*
X141711374Y-142622442D01*
X141710200Y-142598550D01*
X141710200Y-142111050D01*
X141711374Y-142087158D01*
X141714884Y-142063497D01*
X141720696Y-142040293D01*
X141728754Y-142017771D01*
X141738982Y-141996147D01*
X141751279Y-141975630D01*
X141765529Y-141956417D01*
X141781593Y-141938693D01*
X141799317Y-141922629D01*
X141818530Y-141908379D01*
X141839047Y-141896082D01*
X141860671Y-141885854D01*
X141883193Y-141877796D01*
X141906397Y-141871984D01*
X141930058Y-141868474D01*
X141953950Y-141867300D01*
X142866450Y-141867300D01*
X142890342Y-141868474D01*
G37*
D13*
X163560500Y-135005000D03*
X163560500Y-136275000D03*
X155305500Y-143895000D03*
X163560500Y-142625000D03*
X155305500Y-142625000D03*
X155305500Y-140085000D03*
X163560500Y-143895000D03*
X155305500Y-141355000D03*
X163560500Y-141355000D03*
X163560500Y-140085000D03*
X163560500Y-137545000D03*
X155305500Y-138815000D03*
X155305500Y-137545000D03*
X155305500Y-135005000D03*
X163560500Y-138815000D03*
X155305500Y-136275000D03*
D10*
G36*
X154875811Y-124022061D02*
G01*
X154883092Y-124023141D01*
X154890231Y-124024929D01*
X154897161Y-124027409D01*
X154903815Y-124030556D01*
X154910128Y-124034340D01*
X154916039Y-124038724D01*
X154921493Y-124043667D01*
X154926436Y-124049121D01*
X154930820Y-124055032D01*
X154934604Y-124061345D01*
X154937751Y-124067999D01*
X154940231Y-124074929D01*
X154942019Y-124082068D01*
X154943099Y-124089349D01*
X154943460Y-124096700D01*
X154943460Y-125396700D01*
X154943099Y-125404051D01*
X154942019Y-125411332D01*
X154940231Y-125418471D01*
X154937751Y-125425401D01*
X154934604Y-125432055D01*
X154930820Y-125438368D01*
X154926436Y-125444279D01*
X154921493Y-125449733D01*
X154916039Y-125454676D01*
X154910128Y-125459060D01*
X154903815Y-125462844D01*
X154897161Y-125465991D01*
X154890231Y-125468471D01*
X154883092Y-125470259D01*
X154875811Y-125471339D01*
X154868460Y-125471700D01*
X154718460Y-125471700D01*
X154711109Y-125471339D01*
X154703828Y-125470259D01*
X154696689Y-125468471D01*
X154689759Y-125465991D01*
X154683105Y-125462844D01*
X154676792Y-125459060D01*
X154670881Y-125454676D01*
X154665427Y-125449733D01*
X154660484Y-125444279D01*
X154656100Y-125438368D01*
X154652316Y-125432055D01*
X154649169Y-125425401D01*
X154646689Y-125418471D01*
X154644901Y-125411332D01*
X154643821Y-125404051D01*
X154643460Y-125396700D01*
X154643460Y-124096700D01*
X154643821Y-124089349D01*
X154644901Y-124082068D01*
X154646689Y-124074929D01*
X154649169Y-124067999D01*
X154652316Y-124061345D01*
X154656100Y-124055032D01*
X154660484Y-124049121D01*
X154665427Y-124043667D01*
X154670881Y-124038724D01*
X154676792Y-124034340D01*
X154683105Y-124030556D01*
X154689759Y-124027409D01*
X154696689Y-124024929D01*
X154703828Y-124023141D01*
X154711109Y-124022061D01*
X154718460Y-124021700D01*
X154868460Y-124021700D01*
X154875811Y-124022061D01*
G37*
G36*
X154375811Y-124022061D02*
G01*
X154383092Y-124023141D01*
X154390231Y-124024929D01*
X154397161Y-124027409D01*
X154403815Y-124030556D01*
X154410128Y-124034340D01*
X154416039Y-124038724D01*
X154421493Y-124043667D01*
X154426436Y-124049121D01*
X154430820Y-124055032D01*
X154434604Y-124061345D01*
X154437751Y-124067999D01*
X154440231Y-124074929D01*
X154442019Y-124082068D01*
X154443099Y-124089349D01*
X154443460Y-124096700D01*
X154443460Y-125396700D01*
X154443099Y-125404051D01*
X154442019Y-125411332D01*
X154440231Y-125418471D01*
X154437751Y-125425401D01*
X154434604Y-125432055D01*
X154430820Y-125438368D01*
X154426436Y-125444279D01*
X154421493Y-125449733D01*
X154416039Y-125454676D01*
X154410128Y-125459060D01*
X154403815Y-125462844D01*
X154397161Y-125465991D01*
X154390231Y-125468471D01*
X154383092Y-125470259D01*
X154375811Y-125471339D01*
X154368460Y-125471700D01*
X154218460Y-125471700D01*
X154211109Y-125471339D01*
X154203828Y-125470259D01*
X154196689Y-125468471D01*
X154189759Y-125465991D01*
X154183105Y-125462844D01*
X154176792Y-125459060D01*
X154170881Y-125454676D01*
X154165427Y-125449733D01*
X154160484Y-125444279D01*
X154156100Y-125438368D01*
X154152316Y-125432055D01*
X154149169Y-125425401D01*
X154146689Y-125418471D01*
X154144901Y-125411332D01*
X154143821Y-125404051D01*
X154143460Y-125396700D01*
X154143460Y-124096700D01*
X154143821Y-124089349D01*
X154144901Y-124082068D01*
X154146689Y-124074929D01*
X154149169Y-124067999D01*
X154152316Y-124061345D01*
X154156100Y-124055032D01*
X154160484Y-124049121D01*
X154165427Y-124043667D01*
X154170881Y-124038724D01*
X154176792Y-124034340D01*
X154183105Y-124030556D01*
X154189759Y-124027409D01*
X154196689Y-124024929D01*
X154203828Y-124023141D01*
X154211109Y-124022061D01*
X154218460Y-124021700D01*
X154368460Y-124021700D01*
X154375811Y-124022061D01*
G37*
G36*
X153875811Y-124022061D02*
G01*
X153883092Y-124023141D01*
X153890231Y-124024929D01*
X153897161Y-124027409D01*
X153903815Y-124030556D01*
X153910128Y-124034340D01*
X153916039Y-124038724D01*
X153921493Y-124043667D01*
X153926436Y-124049121D01*
X153930820Y-124055032D01*
X153934604Y-124061345D01*
X153937751Y-124067999D01*
X153940231Y-124074929D01*
X153942019Y-124082068D01*
X153943099Y-124089349D01*
X153943460Y-124096700D01*
X153943460Y-125396700D01*
X153943099Y-125404051D01*
X153942019Y-125411332D01*
X153940231Y-125418471D01*
X153937751Y-125425401D01*
X153934604Y-125432055D01*
X153930820Y-125438368D01*
X153926436Y-125444279D01*
X153921493Y-125449733D01*
X153916039Y-125454676D01*
X153910128Y-125459060D01*
X153903815Y-125462844D01*
X153897161Y-125465991D01*
X153890231Y-125468471D01*
X153883092Y-125470259D01*
X153875811Y-125471339D01*
X153868460Y-125471700D01*
X153718460Y-125471700D01*
X153711109Y-125471339D01*
X153703828Y-125470259D01*
X153696689Y-125468471D01*
X153689759Y-125465991D01*
X153683105Y-125462844D01*
X153676792Y-125459060D01*
X153670881Y-125454676D01*
X153665427Y-125449733D01*
X153660484Y-125444279D01*
X153656100Y-125438368D01*
X153652316Y-125432055D01*
X153649169Y-125425401D01*
X153646689Y-125418471D01*
X153644901Y-125411332D01*
X153643821Y-125404051D01*
X153643460Y-125396700D01*
X153643460Y-124096700D01*
X153643821Y-124089349D01*
X153644901Y-124082068D01*
X153646689Y-124074929D01*
X153649169Y-124067999D01*
X153652316Y-124061345D01*
X153656100Y-124055032D01*
X153660484Y-124049121D01*
X153665427Y-124043667D01*
X153670881Y-124038724D01*
X153676792Y-124034340D01*
X153683105Y-124030556D01*
X153689759Y-124027409D01*
X153696689Y-124024929D01*
X153703828Y-124023141D01*
X153711109Y-124022061D01*
X153718460Y-124021700D01*
X153868460Y-124021700D01*
X153875811Y-124022061D01*
G37*
G36*
X153375811Y-124022061D02*
G01*
X153383092Y-124023141D01*
X153390231Y-124024929D01*
X153397161Y-124027409D01*
X153403815Y-124030556D01*
X153410128Y-124034340D01*
X153416039Y-124038724D01*
X153421493Y-124043667D01*
X153426436Y-124049121D01*
X153430820Y-124055032D01*
X153434604Y-124061345D01*
X153437751Y-124067999D01*
X153440231Y-124074929D01*
X153442019Y-124082068D01*
X153443099Y-124089349D01*
X153443460Y-124096700D01*
X153443460Y-125396700D01*
X153443099Y-125404051D01*
X153442019Y-125411332D01*
X153440231Y-125418471D01*
X153437751Y-125425401D01*
X153434604Y-125432055D01*
X153430820Y-125438368D01*
X153426436Y-125444279D01*
X153421493Y-125449733D01*
X153416039Y-125454676D01*
X153410128Y-125459060D01*
X153403815Y-125462844D01*
X153397161Y-125465991D01*
X153390231Y-125468471D01*
X153383092Y-125470259D01*
X153375811Y-125471339D01*
X153368460Y-125471700D01*
X153218460Y-125471700D01*
X153211109Y-125471339D01*
X153203828Y-125470259D01*
X153196689Y-125468471D01*
X153189759Y-125465991D01*
X153183105Y-125462844D01*
X153176792Y-125459060D01*
X153170881Y-125454676D01*
X153165427Y-125449733D01*
X153160484Y-125444279D01*
X153156100Y-125438368D01*
X153152316Y-125432055D01*
X153149169Y-125425401D01*
X153146689Y-125418471D01*
X153144901Y-125411332D01*
X153143821Y-125404051D01*
X153143460Y-125396700D01*
X153143460Y-124096700D01*
X153143821Y-124089349D01*
X153144901Y-124082068D01*
X153146689Y-124074929D01*
X153149169Y-124067999D01*
X153152316Y-124061345D01*
X153156100Y-124055032D01*
X153160484Y-124049121D01*
X153165427Y-124043667D01*
X153170881Y-124038724D01*
X153176792Y-124034340D01*
X153183105Y-124030556D01*
X153189759Y-124027409D01*
X153196689Y-124024929D01*
X153203828Y-124023141D01*
X153211109Y-124022061D01*
X153218460Y-124021700D01*
X153368460Y-124021700D01*
X153375811Y-124022061D01*
G37*
G36*
X152875811Y-124022061D02*
G01*
X152883092Y-124023141D01*
X152890231Y-124024929D01*
X152897161Y-124027409D01*
X152903815Y-124030556D01*
X152910128Y-124034340D01*
X152916039Y-124038724D01*
X152921493Y-124043667D01*
X152926436Y-124049121D01*
X152930820Y-124055032D01*
X152934604Y-124061345D01*
X152937751Y-124067999D01*
X152940231Y-124074929D01*
X152942019Y-124082068D01*
X152943099Y-124089349D01*
X152943460Y-124096700D01*
X152943460Y-125396700D01*
X152943099Y-125404051D01*
X152942019Y-125411332D01*
X152940231Y-125418471D01*
X152937751Y-125425401D01*
X152934604Y-125432055D01*
X152930820Y-125438368D01*
X152926436Y-125444279D01*
X152921493Y-125449733D01*
X152916039Y-125454676D01*
X152910128Y-125459060D01*
X152903815Y-125462844D01*
X152897161Y-125465991D01*
X152890231Y-125468471D01*
X152883092Y-125470259D01*
X152875811Y-125471339D01*
X152868460Y-125471700D01*
X152718460Y-125471700D01*
X152711109Y-125471339D01*
X152703828Y-125470259D01*
X152696689Y-125468471D01*
X152689759Y-125465991D01*
X152683105Y-125462844D01*
X152676792Y-125459060D01*
X152670881Y-125454676D01*
X152665427Y-125449733D01*
X152660484Y-125444279D01*
X152656100Y-125438368D01*
X152652316Y-125432055D01*
X152649169Y-125425401D01*
X152646689Y-125418471D01*
X152644901Y-125411332D01*
X152643821Y-125404051D01*
X152643460Y-125396700D01*
X152643460Y-124096700D01*
X152643821Y-124089349D01*
X152644901Y-124082068D01*
X152646689Y-124074929D01*
X152649169Y-124067999D01*
X152652316Y-124061345D01*
X152656100Y-124055032D01*
X152660484Y-124049121D01*
X152665427Y-124043667D01*
X152670881Y-124038724D01*
X152676792Y-124034340D01*
X152683105Y-124030556D01*
X152689759Y-124027409D01*
X152696689Y-124024929D01*
X152703828Y-124023141D01*
X152711109Y-124022061D01*
X152718460Y-124021700D01*
X152868460Y-124021700D01*
X152875811Y-124022061D01*
G37*
G36*
X152375811Y-124022061D02*
G01*
X152383092Y-124023141D01*
X152390231Y-124024929D01*
X152397161Y-124027409D01*
X152403815Y-124030556D01*
X152410128Y-124034340D01*
X152416039Y-124038724D01*
X152421493Y-124043667D01*
X152426436Y-124049121D01*
X152430820Y-124055032D01*
X152434604Y-124061345D01*
X152437751Y-124067999D01*
X152440231Y-124074929D01*
X152442019Y-124082068D01*
X152443099Y-124089349D01*
X152443460Y-124096700D01*
X152443460Y-125396700D01*
X152443099Y-125404051D01*
X152442019Y-125411332D01*
X152440231Y-125418471D01*
X152437751Y-125425401D01*
X152434604Y-125432055D01*
X152430820Y-125438368D01*
X152426436Y-125444279D01*
X152421493Y-125449733D01*
X152416039Y-125454676D01*
X152410128Y-125459060D01*
X152403815Y-125462844D01*
X152397161Y-125465991D01*
X152390231Y-125468471D01*
X152383092Y-125470259D01*
X152375811Y-125471339D01*
X152368460Y-125471700D01*
X152218460Y-125471700D01*
X152211109Y-125471339D01*
X152203828Y-125470259D01*
X152196689Y-125468471D01*
X152189759Y-125465991D01*
X152183105Y-125462844D01*
X152176792Y-125459060D01*
X152170881Y-125454676D01*
X152165427Y-125449733D01*
X152160484Y-125444279D01*
X152156100Y-125438368D01*
X152152316Y-125432055D01*
X152149169Y-125425401D01*
X152146689Y-125418471D01*
X152144901Y-125411332D01*
X152143821Y-125404051D01*
X152143460Y-125396700D01*
X152143460Y-124096700D01*
X152143821Y-124089349D01*
X152144901Y-124082068D01*
X152146689Y-124074929D01*
X152149169Y-124067999D01*
X152152316Y-124061345D01*
X152156100Y-124055032D01*
X152160484Y-124049121D01*
X152165427Y-124043667D01*
X152170881Y-124038724D01*
X152176792Y-124034340D01*
X152183105Y-124030556D01*
X152189759Y-124027409D01*
X152196689Y-124024929D01*
X152203828Y-124023141D01*
X152211109Y-124022061D01*
X152218460Y-124021700D01*
X152368460Y-124021700D01*
X152375811Y-124022061D01*
G37*
G36*
X151875811Y-124022061D02*
G01*
X151883092Y-124023141D01*
X151890231Y-124024929D01*
X151897161Y-124027409D01*
X151903815Y-124030556D01*
X151910128Y-124034340D01*
X151916039Y-124038724D01*
X151921493Y-124043667D01*
X151926436Y-124049121D01*
X151930820Y-124055032D01*
X151934604Y-124061345D01*
X151937751Y-124067999D01*
X151940231Y-124074929D01*
X151942019Y-124082068D01*
X151943099Y-124089349D01*
X151943460Y-124096700D01*
X151943460Y-125396700D01*
X151943099Y-125404051D01*
X151942019Y-125411332D01*
X151940231Y-125418471D01*
X151937751Y-125425401D01*
X151934604Y-125432055D01*
X151930820Y-125438368D01*
X151926436Y-125444279D01*
X151921493Y-125449733D01*
X151916039Y-125454676D01*
X151910128Y-125459060D01*
X151903815Y-125462844D01*
X151897161Y-125465991D01*
X151890231Y-125468471D01*
X151883092Y-125470259D01*
X151875811Y-125471339D01*
X151868460Y-125471700D01*
X151718460Y-125471700D01*
X151711109Y-125471339D01*
X151703828Y-125470259D01*
X151696689Y-125468471D01*
X151689759Y-125465991D01*
X151683105Y-125462844D01*
X151676792Y-125459060D01*
X151670881Y-125454676D01*
X151665427Y-125449733D01*
X151660484Y-125444279D01*
X151656100Y-125438368D01*
X151652316Y-125432055D01*
X151649169Y-125425401D01*
X151646689Y-125418471D01*
X151644901Y-125411332D01*
X151643821Y-125404051D01*
X151643460Y-125396700D01*
X151643460Y-124096700D01*
X151643821Y-124089349D01*
X151644901Y-124082068D01*
X151646689Y-124074929D01*
X151649169Y-124067999D01*
X151652316Y-124061345D01*
X151656100Y-124055032D01*
X151660484Y-124049121D01*
X151665427Y-124043667D01*
X151670881Y-124038724D01*
X151676792Y-124034340D01*
X151683105Y-124030556D01*
X151689759Y-124027409D01*
X151696689Y-124024929D01*
X151703828Y-124023141D01*
X151711109Y-124022061D01*
X151718460Y-124021700D01*
X151868460Y-124021700D01*
X151875811Y-124022061D01*
G37*
G36*
X151375811Y-124022061D02*
G01*
X151383092Y-124023141D01*
X151390231Y-124024929D01*
X151397161Y-124027409D01*
X151403815Y-124030556D01*
X151410128Y-124034340D01*
X151416039Y-124038724D01*
X151421493Y-124043667D01*
X151426436Y-124049121D01*
X151430820Y-124055032D01*
X151434604Y-124061345D01*
X151437751Y-124067999D01*
X151440231Y-124074929D01*
X151442019Y-124082068D01*
X151443099Y-124089349D01*
X151443460Y-124096700D01*
X151443460Y-125396700D01*
X151443099Y-125404051D01*
X151442019Y-125411332D01*
X151440231Y-125418471D01*
X151437751Y-125425401D01*
X151434604Y-125432055D01*
X151430820Y-125438368D01*
X151426436Y-125444279D01*
X151421493Y-125449733D01*
X151416039Y-125454676D01*
X151410128Y-125459060D01*
X151403815Y-125462844D01*
X151397161Y-125465991D01*
X151390231Y-125468471D01*
X151383092Y-125470259D01*
X151375811Y-125471339D01*
X151368460Y-125471700D01*
X151218460Y-125471700D01*
X151211109Y-125471339D01*
X151203828Y-125470259D01*
X151196689Y-125468471D01*
X151189759Y-125465991D01*
X151183105Y-125462844D01*
X151176792Y-125459060D01*
X151170881Y-125454676D01*
X151165427Y-125449733D01*
X151160484Y-125444279D01*
X151156100Y-125438368D01*
X151152316Y-125432055D01*
X151149169Y-125425401D01*
X151146689Y-125418471D01*
X151144901Y-125411332D01*
X151143821Y-125404051D01*
X151143460Y-125396700D01*
X151143460Y-124096700D01*
X151143821Y-124089349D01*
X151144901Y-124082068D01*
X151146689Y-124074929D01*
X151149169Y-124067999D01*
X151152316Y-124061345D01*
X151156100Y-124055032D01*
X151160484Y-124049121D01*
X151165427Y-124043667D01*
X151170881Y-124038724D01*
X151176792Y-124034340D01*
X151183105Y-124030556D01*
X151189759Y-124027409D01*
X151196689Y-124024929D01*
X151203828Y-124023141D01*
X151211109Y-124022061D01*
X151218460Y-124021700D01*
X151368460Y-124021700D01*
X151375811Y-124022061D01*
G37*
G36*
X151375811Y-128322061D02*
G01*
X151383092Y-128323141D01*
X151390231Y-128324929D01*
X151397161Y-128327409D01*
X151403815Y-128330556D01*
X151410128Y-128334340D01*
X151416039Y-128338724D01*
X151421493Y-128343667D01*
X151426436Y-128349121D01*
X151430820Y-128355032D01*
X151434604Y-128361345D01*
X151437751Y-128367999D01*
X151440231Y-128374929D01*
X151442019Y-128382068D01*
X151443099Y-128389349D01*
X151443460Y-128396700D01*
X151443460Y-129696700D01*
X151443099Y-129704051D01*
X151442019Y-129711332D01*
X151440231Y-129718471D01*
X151437751Y-129725401D01*
X151434604Y-129732055D01*
X151430820Y-129738368D01*
X151426436Y-129744279D01*
X151421493Y-129749733D01*
X151416039Y-129754676D01*
X151410128Y-129759060D01*
X151403815Y-129762844D01*
X151397161Y-129765991D01*
X151390231Y-129768471D01*
X151383092Y-129770259D01*
X151375811Y-129771339D01*
X151368460Y-129771700D01*
X151218460Y-129771700D01*
X151211109Y-129771339D01*
X151203828Y-129770259D01*
X151196689Y-129768471D01*
X151189759Y-129765991D01*
X151183105Y-129762844D01*
X151176792Y-129759060D01*
X151170881Y-129754676D01*
X151165427Y-129749733D01*
X151160484Y-129744279D01*
X151156100Y-129738368D01*
X151152316Y-129732055D01*
X151149169Y-129725401D01*
X151146689Y-129718471D01*
X151144901Y-129711332D01*
X151143821Y-129704051D01*
X151143460Y-129696700D01*
X151143460Y-128396700D01*
X151143821Y-128389349D01*
X151144901Y-128382068D01*
X151146689Y-128374929D01*
X151149169Y-128367999D01*
X151152316Y-128361345D01*
X151156100Y-128355032D01*
X151160484Y-128349121D01*
X151165427Y-128343667D01*
X151170881Y-128338724D01*
X151176792Y-128334340D01*
X151183105Y-128330556D01*
X151189759Y-128327409D01*
X151196689Y-128324929D01*
X151203828Y-128323141D01*
X151211109Y-128322061D01*
X151218460Y-128321700D01*
X151368460Y-128321700D01*
X151375811Y-128322061D01*
G37*
G36*
X151875811Y-128322061D02*
G01*
X151883092Y-128323141D01*
X151890231Y-128324929D01*
X151897161Y-128327409D01*
X151903815Y-128330556D01*
X151910128Y-128334340D01*
X151916039Y-128338724D01*
X151921493Y-128343667D01*
X151926436Y-128349121D01*
X151930820Y-128355032D01*
X151934604Y-128361345D01*
X151937751Y-128367999D01*
X151940231Y-128374929D01*
X151942019Y-128382068D01*
X151943099Y-128389349D01*
X151943460Y-128396700D01*
X151943460Y-129696700D01*
X151943099Y-129704051D01*
X151942019Y-129711332D01*
X151940231Y-129718471D01*
X151937751Y-129725401D01*
X151934604Y-129732055D01*
X151930820Y-129738368D01*
X151926436Y-129744279D01*
X151921493Y-129749733D01*
X151916039Y-129754676D01*
X151910128Y-129759060D01*
X151903815Y-129762844D01*
X151897161Y-129765991D01*
X151890231Y-129768471D01*
X151883092Y-129770259D01*
X151875811Y-129771339D01*
X151868460Y-129771700D01*
X151718460Y-129771700D01*
X151711109Y-129771339D01*
X151703828Y-129770259D01*
X151696689Y-129768471D01*
X151689759Y-129765991D01*
X151683105Y-129762844D01*
X151676792Y-129759060D01*
X151670881Y-129754676D01*
X151665427Y-129749733D01*
X151660484Y-129744279D01*
X151656100Y-129738368D01*
X151652316Y-129732055D01*
X151649169Y-129725401D01*
X151646689Y-129718471D01*
X151644901Y-129711332D01*
X151643821Y-129704051D01*
X151643460Y-129696700D01*
X151643460Y-128396700D01*
X151643821Y-128389349D01*
X151644901Y-128382068D01*
X151646689Y-128374929D01*
X151649169Y-128367999D01*
X151652316Y-128361345D01*
X151656100Y-128355032D01*
X151660484Y-128349121D01*
X151665427Y-128343667D01*
X151670881Y-128338724D01*
X151676792Y-128334340D01*
X151683105Y-128330556D01*
X151689759Y-128327409D01*
X151696689Y-128324929D01*
X151703828Y-128323141D01*
X151711109Y-128322061D01*
X151718460Y-128321700D01*
X151868460Y-128321700D01*
X151875811Y-128322061D01*
G37*
G36*
X152375811Y-128322061D02*
G01*
X152383092Y-128323141D01*
X152390231Y-128324929D01*
X152397161Y-128327409D01*
X152403815Y-128330556D01*
X152410128Y-128334340D01*
X152416039Y-128338724D01*
X152421493Y-128343667D01*
X152426436Y-128349121D01*
X152430820Y-128355032D01*
X152434604Y-128361345D01*
X152437751Y-128367999D01*
X152440231Y-128374929D01*
X152442019Y-128382068D01*
X152443099Y-128389349D01*
X152443460Y-128396700D01*
X152443460Y-129696700D01*
X152443099Y-129704051D01*
X152442019Y-129711332D01*
X152440231Y-129718471D01*
X152437751Y-129725401D01*
X152434604Y-129732055D01*
X152430820Y-129738368D01*
X152426436Y-129744279D01*
X152421493Y-129749733D01*
X152416039Y-129754676D01*
X152410128Y-129759060D01*
X152403815Y-129762844D01*
X152397161Y-129765991D01*
X152390231Y-129768471D01*
X152383092Y-129770259D01*
X152375811Y-129771339D01*
X152368460Y-129771700D01*
X152218460Y-129771700D01*
X152211109Y-129771339D01*
X152203828Y-129770259D01*
X152196689Y-129768471D01*
X152189759Y-129765991D01*
X152183105Y-129762844D01*
X152176792Y-129759060D01*
X152170881Y-129754676D01*
X152165427Y-129749733D01*
X152160484Y-129744279D01*
X152156100Y-129738368D01*
X152152316Y-129732055D01*
X152149169Y-129725401D01*
X152146689Y-129718471D01*
X152144901Y-129711332D01*
X152143821Y-129704051D01*
X152143460Y-129696700D01*
X152143460Y-128396700D01*
X152143821Y-128389349D01*
X152144901Y-128382068D01*
X152146689Y-128374929D01*
X152149169Y-128367999D01*
X152152316Y-128361345D01*
X152156100Y-128355032D01*
X152160484Y-128349121D01*
X152165427Y-128343667D01*
X152170881Y-128338724D01*
X152176792Y-128334340D01*
X152183105Y-128330556D01*
X152189759Y-128327409D01*
X152196689Y-128324929D01*
X152203828Y-128323141D01*
X152211109Y-128322061D01*
X152218460Y-128321700D01*
X152368460Y-128321700D01*
X152375811Y-128322061D01*
G37*
G36*
X152875811Y-128322061D02*
G01*
X152883092Y-128323141D01*
X152890231Y-128324929D01*
X152897161Y-128327409D01*
X152903815Y-128330556D01*
X152910128Y-128334340D01*
X152916039Y-128338724D01*
X152921493Y-128343667D01*
X152926436Y-128349121D01*
X152930820Y-128355032D01*
X152934604Y-128361345D01*
X152937751Y-128367999D01*
X152940231Y-128374929D01*
X152942019Y-128382068D01*
X152943099Y-128389349D01*
X152943460Y-128396700D01*
X152943460Y-129696700D01*
X152943099Y-129704051D01*
X152942019Y-129711332D01*
X152940231Y-129718471D01*
X152937751Y-129725401D01*
X152934604Y-129732055D01*
X152930820Y-129738368D01*
X152926436Y-129744279D01*
X152921493Y-129749733D01*
X152916039Y-129754676D01*
X152910128Y-129759060D01*
X152903815Y-129762844D01*
X152897161Y-129765991D01*
X152890231Y-129768471D01*
X152883092Y-129770259D01*
X152875811Y-129771339D01*
X152868460Y-129771700D01*
X152718460Y-129771700D01*
X152711109Y-129771339D01*
X152703828Y-129770259D01*
X152696689Y-129768471D01*
X152689759Y-129765991D01*
X152683105Y-129762844D01*
X152676792Y-129759060D01*
X152670881Y-129754676D01*
X152665427Y-129749733D01*
X152660484Y-129744279D01*
X152656100Y-129738368D01*
X152652316Y-129732055D01*
X152649169Y-129725401D01*
X152646689Y-129718471D01*
X152644901Y-129711332D01*
X152643821Y-129704051D01*
X152643460Y-129696700D01*
X152643460Y-128396700D01*
X152643821Y-128389349D01*
X152644901Y-128382068D01*
X152646689Y-128374929D01*
X152649169Y-128367999D01*
X152652316Y-128361345D01*
X152656100Y-128355032D01*
X152660484Y-128349121D01*
X152665427Y-128343667D01*
X152670881Y-128338724D01*
X152676792Y-128334340D01*
X152683105Y-128330556D01*
X152689759Y-128327409D01*
X152696689Y-128324929D01*
X152703828Y-128323141D01*
X152711109Y-128322061D01*
X152718460Y-128321700D01*
X152868460Y-128321700D01*
X152875811Y-128322061D01*
G37*
G36*
X153375811Y-128322061D02*
G01*
X153383092Y-128323141D01*
X153390231Y-128324929D01*
X153397161Y-128327409D01*
X153403815Y-128330556D01*
X153410128Y-128334340D01*
X153416039Y-128338724D01*
X153421493Y-128343667D01*
X153426436Y-128349121D01*
X153430820Y-128355032D01*
X153434604Y-128361345D01*
X153437751Y-128367999D01*
X153440231Y-128374929D01*
X153442019Y-128382068D01*
X153443099Y-128389349D01*
X153443460Y-128396700D01*
X153443460Y-129696700D01*
X153443099Y-129704051D01*
X153442019Y-129711332D01*
X153440231Y-129718471D01*
X153437751Y-129725401D01*
X153434604Y-129732055D01*
X153430820Y-129738368D01*
X153426436Y-129744279D01*
X153421493Y-129749733D01*
X153416039Y-129754676D01*
X153410128Y-129759060D01*
X153403815Y-129762844D01*
X153397161Y-129765991D01*
X153390231Y-129768471D01*
X153383092Y-129770259D01*
X153375811Y-129771339D01*
X153368460Y-129771700D01*
X153218460Y-129771700D01*
X153211109Y-129771339D01*
X153203828Y-129770259D01*
X153196689Y-129768471D01*
X153189759Y-129765991D01*
X153183105Y-129762844D01*
X153176792Y-129759060D01*
X153170881Y-129754676D01*
X153165427Y-129749733D01*
X153160484Y-129744279D01*
X153156100Y-129738368D01*
X153152316Y-129732055D01*
X153149169Y-129725401D01*
X153146689Y-129718471D01*
X153144901Y-129711332D01*
X153143821Y-129704051D01*
X153143460Y-129696700D01*
X153143460Y-128396700D01*
X153143821Y-128389349D01*
X153144901Y-128382068D01*
X153146689Y-128374929D01*
X153149169Y-128367999D01*
X153152316Y-128361345D01*
X153156100Y-128355032D01*
X153160484Y-128349121D01*
X153165427Y-128343667D01*
X153170881Y-128338724D01*
X153176792Y-128334340D01*
X153183105Y-128330556D01*
X153189759Y-128327409D01*
X153196689Y-128324929D01*
X153203828Y-128323141D01*
X153211109Y-128322061D01*
X153218460Y-128321700D01*
X153368460Y-128321700D01*
X153375811Y-128322061D01*
G37*
G36*
X153875811Y-128322061D02*
G01*
X153883092Y-128323141D01*
X153890231Y-128324929D01*
X153897161Y-128327409D01*
X153903815Y-128330556D01*
X153910128Y-128334340D01*
X153916039Y-128338724D01*
X153921493Y-128343667D01*
X153926436Y-128349121D01*
X153930820Y-128355032D01*
X153934604Y-128361345D01*
X153937751Y-128367999D01*
X153940231Y-128374929D01*
X153942019Y-128382068D01*
X153943099Y-128389349D01*
X153943460Y-128396700D01*
X153943460Y-129696700D01*
X153943099Y-129704051D01*
X153942019Y-129711332D01*
X153940231Y-129718471D01*
X153937751Y-129725401D01*
X153934604Y-129732055D01*
X153930820Y-129738368D01*
X153926436Y-129744279D01*
X153921493Y-129749733D01*
X153916039Y-129754676D01*
X153910128Y-129759060D01*
X153903815Y-129762844D01*
X153897161Y-129765991D01*
X153890231Y-129768471D01*
X153883092Y-129770259D01*
X153875811Y-129771339D01*
X153868460Y-129771700D01*
X153718460Y-129771700D01*
X153711109Y-129771339D01*
X153703828Y-129770259D01*
X153696689Y-129768471D01*
X153689759Y-129765991D01*
X153683105Y-129762844D01*
X153676792Y-129759060D01*
X153670881Y-129754676D01*
X153665427Y-129749733D01*
X153660484Y-129744279D01*
X153656100Y-129738368D01*
X153652316Y-129732055D01*
X153649169Y-129725401D01*
X153646689Y-129718471D01*
X153644901Y-129711332D01*
X153643821Y-129704051D01*
X153643460Y-129696700D01*
X153643460Y-128396700D01*
X153643821Y-128389349D01*
X153644901Y-128382068D01*
X153646689Y-128374929D01*
X153649169Y-128367999D01*
X153652316Y-128361345D01*
X153656100Y-128355032D01*
X153660484Y-128349121D01*
X153665427Y-128343667D01*
X153670881Y-128338724D01*
X153676792Y-128334340D01*
X153683105Y-128330556D01*
X153689759Y-128327409D01*
X153696689Y-128324929D01*
X153703828Y-128323141D01*
X153711109Y-128322061D01*
X153718460Y-128321700D01*
X153868460Y-128321700D01*
X153875811Y-128322061D01*
G37*
G36*
X154375811Y-128322061D02*
G01*
X154383092Y-128323141D01*
X154390231Y-128324929D01*
X154397161Y-128327409D01*
X154403815Y-128330556D01*
X154410128Y-128334340D01*
X154416039Y-128338724D01*
X154421493Y-128343667D01*
X154426436Y-128349121D01*
X154430820Y-128355032D01*
X154434604Y-128361345D01*
X154437751Y-128367999D01*
X154440231Y-128374929D01*
X154442019Y-128382068D01*
X154443099Y-128389349D01*
X154443460Y-128396700D01*
X154443460Y-129696700D01*
X154443099Y-129704051D01*
X154442019Y-129711332D01*
X154440231Y-129718471D01*
X154437751Y-129725401D01*
X154434604Y-129732055D01*
X154430820Y-129738368D01*
X154426436Y-129744279D01*
X154421493Y-129749733D01*
X154416039Y-129754676D01*
X154410128Y-129759060D01*
X154403815Y-129762844D01*
X154397161Y-129765991D01*
X154390231Y-129768471D01*
X154383092Y-129770259D01*
X154375811Y-129771339D01*
X154368460Y-129771700D01*
X154218460Y-129771700D01*
X154211109Y-129771339D01*
X154203828Y-129770259D01*
X154196689Y-129768471D01*
X154189759Y-129765991D01*
X154183105Y-129762844D01*
X154176792Y-129759060D01*
X154170881Y-129754676D01*
X154165427Y-129749733D01*
X154160484Y-129744279D01*
X154156100Y-129738368D01*
X154152316Y-129732055D01*
X154149169Y-129725401D01*
X154146689Y-129718471D01*
X154144901Y-129711332D01*
X154143821Y-129704051D01*
X154143460Y-129696700D01*
X154143460Y-128396700D01*
X154143821Y-128389349D01*
X154144901Y-128382068D01*
X154146689Y-128374929D01*
X154149169Y-128367999D01*
X154152316Y-128361345D01*
X154156100Y-128355032D01*
X154160484Y-128349121D01*
X154165427Y-128343667D01*
X154170881Y-128338724D01*
X154176792Y-128334340D01*
X154183105Y-128330556D01*
X154189759Y-128327409D01*
X154196689Y-128324929D01*
X154203828Y-128323141D01*
X154211109Y-128322061D01*
X154218460Y-128321700D01*
X154368460Y-128321700D01*
X154375811Y-128322061D01*
G37*
G36*
X154875811Y-128322061D02*
G01*
X154883092Y-128323141D01*
X154890231Y-128324929D01*
X154897161Y-128327409D01*
X154903815Y-128330556D01*
X154910128Y-128334340D01*
X154916039Y-128338724D01*
X154921493Y-128343667D01*
X154926436Y-128349121D01*
X154930820Y-128355032D01*
X154934604Y-128361345D01*
X154937751Y-128367999D01*
X154940231Y-128374929D01*
X154942019Y-128382068D01*
X154943099Y-128389349D01*
X154943460Y-128396700D01*
X154943460Y-129696700D01*
X154943099Y-129704051D01*
X154942019Y-129711332D01*
X154940231Y-129718471D01*
X154937751Y-129725401D01*
X154934604Y-129732055D01*
X154930820Y-129738368D01*
X154926436Y-129744279D01*
X154921493Y-129749733D01*
X154916039Y-129754676D01*
X154910128Y-129759060D01*
X154903815Y-129762844D01*
X154897161Y-129765991D01*
X154890231Y-129768471D01*
X154883092Y-129770259D01*
X154875811Y-129771339D01*
X154868460Y-129771700D01*
X154718460Y-129771700D01*
X154711109Y-129771339D01*
X154703828Y-129770259D01*
X154696689Y-129768471D01*
X154689759Y-129765991D01*
X154683105Y-129762844D01*
X154676792Y-129759060D01*
X154670881Y-129754676D01*
X154665427Y-129749733D01*
X154660484Y-129744279D01*
X154656100Y-129738368D01*
X154652316Y-129732055D01*
X154649169Y-129725401D01*
X154646689Y-129718471D01*
X154644901Y-129711332D01*
X154643821Y-129704051D01*
X154643460Y-129696700D01*
X154643460Y-128396700D01*
X154643821Y-128389349D01*
X154644901Y-128382068D01*
X154646689Y-128374929D01*
X154649169Y-128367999D01*
X154652316Y-128361345D01*
X154656100Y-128355032D01*
X154660484Y-128349121D01*
X154665427Y-128343667D01*
X154670881Y-128338724D01*
X154676792Y-128334340D01*
X154683105Y-128330556D01*
X154689759Y-128327409D01*
X154696689Y-128324929D01*
X154703828Y-128323141D01*
X154711109Y-128322061D01*
X154718460Y-128321700D01*
X154868460Y-128321700D01*
X154875811Y-128322061D01*
G37*
G36*
X179644142Y-67042374D02*
G01*
X179667803Y-67045884D01*
X179691007Y-67051696D01*
X179713529Y-67059754D01*
X179735153Y-67069982D01*
X179755670Y-67082279D01*
X179774883Y-67096529D01*
X179792607Y-67112593D01*
X179808671Y-67130317D01*
X179822921Y-67149530D01*
X179835218Y-67170047D01*
X179845446Y-67191671D01*
X179853504Y-67214193D01*
X179859316Y-67237397D01*
X179862826Y-67261058D01*
X179864000Y-67284950D01*
X179864000Y-67772450D01*
X179862826Y-67796342D01*
X179859316Y-67820003D01*
X179853504Y-67843207D01*
X179845446Y-67865729D01*
X179835218Y-67887353D01*
X179822921Y-67907870D01*
X179808671Y-67927083D01*
X179792607Y-67944807D01*
X179774883Y-67960871D01*
X179755670Y-67975121D01*
X179735153Y-67987418D01*
X179713529Y-67997646D01*
X179691007Y-68005704D01*
X179667803Y-68011516D01*
X179644142Y-68015026D01*
X179620250Y-68016200D01*
X178707750Y-68016200D01*
X178683858Y-68015026D01*
X178660197Y-68011516D01*
X178636993Y-68005704D01*
X178614471Y-67997646D01*
X178592847Y-67987418D01*
X178572330Y-67975121D01*
X178553117Y-67960871D01*
X178535393Y-67944807D01*
X178519329Y-67927083D01*
X178505079Y-67907870D01*
X178492782Y-67887353D01*
X178482554Y-67865729D01*
X178474496Y-67843207D01*
X178468684Y-67820003D01*
X178465174Y-67796342D01*
X178464000Y-67772450D01*
X178464000Y-67284950D01*
X178465174Y-67261058D01*
X178468684Y-67237397D01*
X178474496Y-67214193D01*
X178482554Y-67191671D01*
X178492782Y-67170047D01*
X178505079Y-67149530D01*
X178519329Y-67130317D01*
X178535393Y-67112593D01*
X178553117Y-67096529D01*
X178572330Y-67082279D01*
X178592847Y-67069982D01*
X178614471Y-67059754D01*
X178636993Y-67051696D01*
X178660197Y-67045884D01*
X178683858Y-67042374D01*
X178707750Y-67041200D01*
X179620250Y-67041200D01*
X179644142Y-67042374D01*
G37*
G36*
X179644142Y-65167374D02*
G01*
X179667803Y-65170884D01*
X179691007Y-65176696D01*
X179713529Y-65184754D01*
X179735153Y-65194982D01*
X179755670Y-65207279D01*
X179774883Y-65221529D01*
X179792607Y-65237593D01*
X179808671Y-65255317D01*
X179822921Y-65274530D01*
X179835218Y-65295047D01*
X179845446Y-65316671D01*
X179853504Y-65339193D01*
X179859316Y-65362397D01*
X179862826Y-65386058D01*
X179864000Y-65409950D01*
X179864000Y-65897450D01*
X179862826Y-65921342D01*
X179859316Y-65945003D01*
X179853504Y-65968207D01*
X179845446Y-65990729D01*
X179835218Y-66012353D01*
X179822921Y-66032870D01*
X179808671Y-66052083D01*
X179792607Y-66069807D01*
X179774883Y-66085871D01*
X179755670Y-66100121D01*
X179735153Y-66112418D01*
X179713529Y-66122646D01*
X179691007Y-66130704D01*
X179667803Y-66136516D01*
X179644142Y-66140026D01*
X179620250Y-66141200D01*
X178707750Y-66141200D01*
X178683858Y-66140026D01*
X178660197Y-66136516D01*
X178636993Y-66130704D01*
X178614471Y-66122646D01*
X178592847Y-66112418D01*
X178572330Y-66100121D01*
X178553117Y-66085871D01*
X178535393Y-66069807D01*
X178519329Y-66052083D01*
X178505079Y-66032870D01*
X178492782Y-66012353D01*
X178482554Y-65990729D01*
X178474496Y-65968207D01*
X178468684Y-65945003D01*
X178465174Y-65921342D01*
X178464000Y-65897450D01*
X178464000Y-65409950D01*
X178465174Y-65386058D01*
X178468684Y-65362397D01*
X178474496Y-65339193D01*
X178482554Y-65316671D01*
X178492782Y-65295047D01*
X178505079Y-65274530D01*
X178519329Y-65255317D01*
X178535393Y-65237593D01*
X178553117Y-65221529D01*
X178572330Y-65207279D01*
X178592847Y-65194982D01*
X178614471Y-65184754D01*
X178636993Y-65176696D01*
X178660197Y-65170884D01*
X178683858Y-65167374D01*
X178707750Y-65166200D01*
X179620250Y-65166200D01*
X179644142Y-65167374D01*
G37*
G36*
X182971542Y-67042374D02*
G01*
X182995203Y-67045884D01*
X183018407Y-67051696D01*
X183040929Y-67059754D01*
X183062553Y-67069982D01*
X183083070Y-67082279D01*
X183102283Y-67096529D01*
X183120007Y-67112593D01*
X183136071Y-67130317D01*
X183150321Y-67149530D01*
X183162618Y-67170047D01*
X183172846Y-67191671D01*
X183180904Y-67214193D01*
X183186716Y-67237397D01*
X183190226Y-67261058D01*
X183191400Y-67284950D01*
X183191400Y-67772450D01*
X183190226Y-67796342D01*
X183186716Y-67820003D01*
X183180904Y-67843207D01*
X183172846Y-67865729D01*
X183162618Y-67887353D01*
X183150321Y-67907870D01*
X183136071Y-67927083D01*
X183120007Y-67944807D01*
X183102283Y-67960871D01*
X183083070Y-67975121D01*
X183062553Y-67987418D01*
X183040929Y-67997646D01*
X183018407Y-68005704D01*
X182995203Y-68011516D01*
X182971542Y-68015026D01*
X182947650Y-68016200D01*
X182035150Y-68016200D01*
X182011258Y-68015026D01*
X181987597Y-68011516D01*
X181964393Y-68005704D01*
X181941871Y-67997646D01*
X181920247Y-67987418D01*
X181899730Y-67975121D01*
X181880517Y-67960871D01*
X181862793Y-67944807D01*
X181846729Y-67927083D01*
X181832479Y-67907870D01*
X181820182Y-67887353D01*
X181809954Y-67865729D01*
X181801896Y-67843207D01*
X181796084Y-67820003D01*
X181792574Y-67796342D01*
X181791400Y-67772450D01*
X181791400Y-67284950D01*
X181792574Y-67261058D01*
X181796084Y-67237397D01*
X181801896Y-67214193D01*
X181809954Y-67191671D01*
X181820182Y-67170047D01*
X181832479Y-67149530D01*
X181846729Y-67130317D01*
X181862793Y-67112593D01*
X181880517Y-67096529D01*
X181899730Y-67082279D01*
X181920247Y-67069982D01*
X181941871Y-67059754D01*
X181964393Y-67051696D01*
X181987597Y-67045884D01*
X182011258Y-67042374D01*
X182035150Y-67041200D01*
X182947650Y-67041200D01*
X182971542Y-67042374D01*
G37*
G36*
X182971542Y-65167374D02*
G01*
X182995203Y-65170884D01*
X183018407Y-65176696D01*
X183040929Y-65184754D01*
X183062553Y-65194982D01*
X183083070Y-65207279D01*
X183102283Y-65221529D01*
X183120007Y-65237593D01*
X183136071Y-65255317D01*
X183150321Y-65274530D01*
X183162618Y-65295047D01*
X183172846Y-65316671D01*
X183180904Y-65339193D01*
X183186716Y-65362397D01*
X183190226Y-65386058D01*
X183191400Y-65409950D01*
X183191400Y-65897450D01*
X183190226Y-65921342D01*
X183186716Y-65945003D01*
X183180904Y-65968207D01*
X183172846Y-65990729D01*
X183162618Y-66012353D01*
X183150321Y-66032870D01*
X183136071Y-66052083D01*
X183120007Y-66069807D01*
X183102283Y-66085871D01*
X183083070Y-66100121D01*
X183062553Y-66112418D01*
X183040929Y-66122646D01*
X183018407Y-66130704D01*
X182995203Y-66136516D01*
X182971542Y-66140026D01*
X182947650Y-66141200D01*
X182035150Y-66141200D01*
X182011258Y-66140026D01*
X181987597Y-66136516D01*
X181964393Y-66130704D01*
X181941871Y-66122646D01*
X181920247Y-66112418D01*
X181899730Y-66100121D01*
X181880517Y-66085871D01*
X181862793Y-66069807D01*
X181846729Y-66052083D01*
X181832479Y-66032870D01*
X181820182Y-66012353D01*
X181809954Y-65990729D01*
X181801896Y-65968207D01*
X181796084Y-65945003D01*
X181792574Y-65921342D01*
X181791400Y-65897450D01*
X181791400Y-65409950D01*
X181792574Y-65386058D01*
X181796084Y-65362397D01*
X181801896Y-65339193D01*
X181809954Y-65316671D01*
X181820182Y-65295047D01*
X181832479Y-65274530D01*
X181846729Y-65255317D01*
X181862793Y-65237593D01*
X181880517Y-65221529D01*
X181899730Y-65207279D01*
X181920247Y-65194982D01*
X181941871Y-65184754D01*
X181964393Y-65176696D01*
X181987597Y-65170884D01*
X182011258Y-65167374D01*
X182035150Y-65166200D01*
X182947650Y-65166200D01*
X182971542Y-65167374D01*
G37*
G36*
X182944167Y-141464374D02*
G01*
X182967828Y-141467884D01*
X182991032Y-141473696D01*
X183013554Y-141481754D01*
X183035178Y-141491982D01*
X183055695Y-141504279D01*
X183074908Y-141518529D01*
X183092632Y-141534593D01*
X183108696Y-141552317D01*
X183122946Y-141571530D01*
X183135243Y-141592047D01*
X183145471Y-141613671D01*
X183153529Y-141636193D01*
X183159341Y-141659397D01*
X183162851Y-141683058D01*
X183164025Y-141706950D01*
X183164025Y-142194450D01*
X183162851Y-142218342D01*
X183159341Y-142242003D01*
X183153529Y-142265207D01*
X183145471Y-142287729D01*
X183135243Y-142309353D01*
X183122946Y-142329870D01*
X183108696Y-142349083D01*
X183092632Y-142366807D01*
X183074908Y-142382871D01*
X183055695Y-142397121D01*
X183035178Y-142409418D01*
X183013554Y-142419646D01*
X182991032Y-142427704D01*
X182967828Y-142433516D01*
X182944167Y-142437026D01*
X182920275Y-142438200D01*
X182007775Y-142438200D01*
X181983883Y-142437026D01*
X181960222Y-142433516D01*
X181937018Y-142427704D01*
X181914496Y-142419646D01*
X181892872Y-142409418D01*
X181872355Y-142397121D01*
X181853142Y-142382871D01*
X181835418Y-142366807D01*
X181819354Y-142349083D01*
X181805104Y-142329870D01*
X181792807Y-142309353D01*
X181782579Y-142287729D01*
X181774521Y-142265207D01*
X181768709Y-142242003D01*
X181765199Y-142218342D01*
X181764025Y-142194450D01*
X181764025Y-141706950D01*
X181765199Y-141683058D01*
X181768709Y-141659397D01*
X181774521Y-141636193D01*
X181782579Y-141613671D01*
X181792807Y-141592047D01*
X181805104Y-141571530D01*
X181819354Y-141552317D01*
X181835418Y-141534593D01*
X181853142Y-141518529D01*
X181872355Y-141504279D01*
X181892872Y-141491982D01*
X181914496Y-141481754D01*
X181937018Y-141473696D01*
X181960222Y-141467884D01*
X181983883Y-141464374D01*
X182007775Y-141463200D01*
X182920275Y-141463200D01*
X182944167Y-141464374D01*
G37*
G36*
X182944167Y-139589374D02*
G01*
X182967828Y-139592884D01*
X182991032Y-139598696D01*
X183013554Y-139606754D01*
X183035178Y-139616982D01*
X183055695Y-139629279D01*
X183074908Y-139643529D01*
X183092632Y-139659593D01*
X183108696Y-139677317D01*
X183122946Y-139696530D01*
X183135243Y-139717047D01*
X183145471Y-139738671D01*
X183153529Y-139761193D01*
X183159341Y-139784397D01*
X183162851Y-139808058D01*
X183164025Y-139831950D01*
X183164025Y-140319450D01*
X183162851Y-140343342D01*
X183159341Y-140367003D01*
X183153529Y-140390207D01*
X183145471Y-140412729D01*
X183135243Y-140434353D01*
X183122946Y-140454870D01*
X183108696Y-140474083D01*
X183092632Y-140491807D01*
X183074908Y-140507871D01*
X183055695Y-140522121D01*
X183035178Y-140534418D01*
X183013554Y-140544646D01*
X182991032Y-140552704D01*
X182967828Y-140558516D01*
X182944167Y-140562026D01*
X182920275Y-140563200D01*
X182007775Y-140563200D01*
X181983883Y-140562026D01*
X181960222Y-140558516D01*
X181937018Y-140552704D01*
X181914496Y-140544646D01*
X181892872Y-140534418D01*
X181872355Y-140522121D01*
X181853142Y-140507871D01*
X181835418Y-140491807D01*
X181819354Y-140474083D01*
X181805104Y-140454870D01*
X181792807Y-140434353D01*
X181782579Y-140412729D01*
X181774521Y-140390207D01*
X181768709Y-140367003D01*
X181765199Y-140343342D01*
X181764025Y-140319450D01*
X181764025Y-139831950D01*
X181765199Y-139808058D01*
X181768709Y-139784397D01*
X181774521Y-139761193D01*
X181782579Y-139738671D01*
X181792807Y-139717047D01*
X181805104Y-139696530D01*
X181819354Y-139677317D01*
X181835418Y-139659593D01*
X181853142Y-139643529D01*
X181872355Y-139629279D01*
X181892872Y-139616982D01*
X181914496Y-139606754D01*
X181937018Y-139598696D01*
X181960222Y-139592884D01*
X181983883Y-139589374D01*
X182007775Y-139588200D01*
X182920275Y-139588200D01*
X182944167Y-139589374D01*
G37*
G36*
X179644142Y-139589374D02*
G01*
X179667803Y-139592884D01*
X179691007Y-139598696D01*
X179713529Y-139606754D01*
X179735153Y-139616982D01*
X179755670Y-139629279D01*
X179774883Y-139643529D01*
X179792607Y-139659593D01*
X179808671Y-139677317D01*
X179822921Y-139696530D01*
X179835218Y-139717047D01*
X179845446Y-139738671D01*
X179853504Y-139761193D01*
X179859316Y-139784397D01*
X179862826Y-139808058D01*
X179864000Y-139831950D01*
X179864000Y-140319450D01*
X179862826Y-140343342D01*
X179859316Y-140367003D01*
X179853504Y-140390207D01*
X179845446Y-140412729D01*
X179835218Y-140434353D01*
X179822921Y-140454870D01*
X179808671Y-140474083D01*
X179792607Y-140491807D01*
X179774883Y-140507871D01*
X179755670Y-140522121D01*
X179735153Y-140534418D01*
X179713529Y-140544646D01*
X179691007Y-140552704D01*
X179667803Y-140558516D01*
X179644142Y-140562026D01*
X179620250Y-140563200D01*
X178707750Y-140563200D01*
X178683858Y-140562026D01*
X178660197Y-140558516D01*
X178636993Y-140552704D01*
X178614471Y-140544646D01*
X178592847Y-140534418D01*
X178572330Y-140522121D01*
X178553117Y-140507871D01*
X178535393Y-140491807D01*
X178519329Y-140474083D01*
X178505079Y-140454870D01*
X178492782Y-140434353D01*
X178482554Y-140412729D01*
X178474496Y-140390207D01*
X178468684Y-140367003D01*
X178465174Y-140343342D01*
X178464000Y-140319450D01*
X178464000Y-139831950D01*
X178465174Y-139808058D01*
X178468684Y-139784397D01*
X178474496Y-139761193D01*
X178482554Y-139738671D01*
X178492782Y-139717047D01*
X178505079Y-139696530D01*
X178519329Y-139677317D01*
X178535393Y-139659593D01*
X178553117Y-139643529D01*
X178572330Y-139629279D01*
X178592847Y-139616982D01*
X178614471Y-139606754D01*
X178636993Y-139598696D01*
X178660197Y-139592884D01*
X178683858Y-139589374D01*
X178707750Y-139588200D01*
X179620250Y-139588200D01*
X179644142Y-139589374D01*
G37*
G36*
X179644142Y-141464374D02*
G01*
X179667803Y-141467884D01*
X179691007Y-141473696D01*
X179713529Y-141481754D01*
X179735153Y-141491982D01*
X179755670Y-141504279D01*
X179774883Y-141518529D01*
X179792607Y-141534593D01*
X179808671Y-141552317D01*
X179822921Y-141571530D01*
X179835218Y-141592047D01*
X179845446Y-141613671D01*
X179853504Y-141636193D01*
X179859316Y-141659397D01*
X179862826Y-141683058D01*
X179864000Y-141706950D01*
X179864000Y-142194450D01*
X179862826Y-142218342D01*
X179859316Y-142242003D01*
X179853504Y-142265207D01*
X179845446Y-142287729D01*
X179835218Y-142309353D01*
X179822921Y-142329870D01*
X179808671Y-142349083D01*
X179792607Y-142366807D01*
X179774883Y-142382871D01*
X179755670Y-142397121D01*
X179735153Y-142409418D01*
X179713529Y-142419646D01*
X179691007Y-142427704D01*
X179667803Y-142433516D01*
X179644142Y-142437026D01*
X179620250Y-142438200D01*
X178707750Y-142438200D01*
X178683858Y-142437026D01*
X178660197Y-142433516D01*
X178636993Y-142427704D01*
X178614471Y-142419646D01*
X178592847Y-142409418D01*
X178572330Y-142397121D01*
X178553117Y-142382871D01*
X178535393Y-142366807D01*
X178519329Y-142349083D01*
X178505079Y-142329870D01*
X178492782Y-142309353D01*
X178482554Y-142287729D01*
X178474496Y-142265207D01*
X178468684Y-142242003D01*
X178465174Y-142218342D01*
X178464000Y-142194450D01*
X178464000Y-141706950D01*
X178465174Y-141683058D01*
X178468684Y-141659397D01*
X178474496Y-141636193D01*
X178482554Y-141613671D01*
X178492782Y-141592047D01*
X178505079Y-141571530D01*
X178519329Y-141552317D01*
X178535393Y-141534593D01*
X178553117Y-141518529D01*
X178572330Y-141504279D01*
X178592847Y-141491982D01*
X178614471Y-141481754D01*
X178636993Y-141473696D01*
X178660197Y-141467884D01*
X178683858Y-141464374D01*
X178707750Y-141463200D01*
X179620250Y-141463200D01*
X179644142Y-141464374D01*
G37*
G36*
X186244192Y-141464374D02*
G01*
X186267853Y-141467884D01*
X186291057Y-141473696D01*
X186313579Y-141481754D01*
X186335203Y-141491982D01*
X186355720Y-141504279D01*
X186374933Y-141518529D01*
X186392657Y-141534593D01*
X186408721Y-141552317D01*
X186422971Y-141571530D01*
X186435268Y-141592047D01*
X186445496Y-141613671D01*
X186453554Y-141636193D01*
X186459366Y-141659397D01*
X186462876Y-141683058D01*
X186464050Y-141706950D01*
X186464050Y-142194450D01*
X186462876Y-142218342D01*
X186459366Y-142242003D01*
X186453554Y-142265207D01*
X186445496Y-142287729D01*
X186435268Y-142309353D01*
X186422971Y-142329870D01*
X186408721Y-142349083D01*
X186392657Y-142366807D01*
X186374933Y-142382871D01*
X186355720Y-142397121D01*
X186335203Y-142409418D01*
X186313579Y-142419646D01*
X186291057Y-142427704D01*
X186267853Y-142433516D01*
X186244192Y-142437026D01*
X186220300Y-142438200D01*
X185307800Y-142438200D01*
X185283908Y-142437026D01*
X185260247Y-142433516D01*
X185237043Y-142427704D01*
X185214521Y-142419646D01*
X185192897Y-142409418D01*
X185172380Y-142397121D01*
X185153167Y-142382871D01*
X185135443Y-142366807D01*
X185119379Y-142349083D01*
X185105129Y-142329870D01*
X185092832Y-142309353D01*
X185082604Y-142287729D01*
X185074546Y-142265207D01*
X185068734Y-142242003D01*
X185065224Y-142218342D01*
X185064050Y-142194450D01*
X185064050Y-141706950D01*
X185065224Y-141683058D01*
X185068734Y-141659397D01*
X185074546Y-141636193D01*
X185082604Y-141613671D01*
X185092832Y-141592047D01*
X185105129Y-141571530D01*
X185119379Y-141552317D01*
X185135443Y-141534593D01*
X185153167Y-141518529D01*
X185172380Y-141504279D01*
X185192897Y-141491982D01*
X185214521Y-141481754D01*
X185237043Y-141473696D01*
X185260247Y-141467884D01*
X185283908Y-141464374D01*
X185307800Y-141463200D01*
X186220300Y-141463200D01*
X186244192Y-141464374D01*
G37*
G36*
X186244192Y-139589374D02*
G01*
X186267853Y-139592884D01*
X186291057Y-139598696D01*
X186313579Y-139606754D01*
X186335203Y-139616982D01*
X186355720Y-139629279D01*
X186374933Y-139643529D01*
X186392657Y-139659593D01*
X186408721Y-139677317D01*
X186422971Y-139696530D01*
X186435268Y-139717047D01*
X186445496Y-139738671D01*
X186453554Y-139761193D01*
X186459366Y-139784397D01*
X186462876Y-139808058D01*
X186464050Y-139831950D01*
X186464050Y-140319450D01*
X186462876Y-140343342D01*
X186459366Y-140367003D01*
X186453554Y-140390207D01*
X186445496Y-140412729D01*
X186435268Y-140434353D01*
X186422971Y-140454870D01*
X186408721Y-140474083D01*
X186392657Y-140491807D01*
X186374933Y-140507871D01*
X186355720Y-140522121D01*
X186335203Y-140534418D01*
X186313579Y-140544646D01*
X186291057Y-140552704D01*
X186267853Y-140558516D01*
X186244192Y-140562026D01*
X186220300Y-140563200D01*
X185307800Y-140563200D01*
X185283908Y-140562026D01*
X185260247Y-140558516D01*
X185237043Y-140552704D01*
X185214521Y-140544646D01*
X185192897Y-140534418D01*
X185172380Y-140522121D01*
X185153167Y-140507871D01*
X185135443Y-140491807D01*
X185119379Y-140474083D01*
X185105129Y-140454870D01*
X185092832Y-140434353D01*
X185082604Y-140412729D01*
X185074546Y-140390207D01*
X185068734Y-140367003D01*
X185065224Y-140343342D01*
X185064050Y-140319450D01*
X185064050Y-139831950D01*
X185065224Y-139808058D01*
X185068734Y-139784397D01*
X185074546Y-139761193D01*
X185082604Y-139738671D01*
X185092832Y-139717047D01*
X185105129Y-139696530D01*
X185119379Y-139677317D01*
X185135443Y-139659593D01*
X185153167Y-139643529D01*
X185172380Y-139629279D01*
X185192897Y-139616982D01*
X185214521Y-139606754D01*
X185237043Y-139598696D01*
X185260247Y-139592884D01*
X185283908Y-139589374D01*
X185307800Y-139588200D01*
X186220300Y-139588200D01*
X186244192Y-139589374D01*
G37*
G36*
X161023602Y-127922874D02*
G01*
X161047263Y-127926384D01*
X161070467Y-127932196D01*
X161092989Y-127940254D01*
X161114613Y-127950482D01*
X161135130Y-127962779D01*
X161154343Y-127977029D01*
X161172067Y-127993093D01*
X161188131Y-128010817D01*
X161202381Y-128030030D01*
X161214678Y-128050547D01*
X161224906Y-128072171D01*
X161232964Y-128094693D01*
X161238776Y-128117897D01*
X161242286Y-128141558D01*
X161243460Y-128165450D01*
X161243460Y-128652950D01*
X161242286Y-128676842D01*
X161238776Y-128700503D01*
X161232964Y-128723707D01*
X161224906Y-128746229D01*
X161214678Y-128767853D01*
X161202381Y-128788370D01*
X161188131Y-128807583D01*
X161172067Y-128825307D01*
X161154343Y-128841371D01*
X161135130Y-128855621D01*
X161114613Y-128867918D01*
X161092989Y-128878146D01*
X161070467Y-128886204D01*
X161047263Y-128892016D01*
X161023602Y-128895526D01*
X160999710Y-128896700D01*
X160087210Y-128896700D01*
X160063318Y-128895526D01*
X160039657Y-128892016D01*
X160016453Y-128886204D01*
X159993931Y-128878146D01*
X159972307Y-128867918D01*
X159951790Y-128855621D01*
X159932577Y-128841371D01*
X159914853Y-128825307D01*
X159898789Y-128807583D01*
X159884539Y-128788370D01*
X159872242Y-128767853D01*
X159862014Y-128746229D01*
X159853956Y-128723707D01*
X159848144Y-128700503D01*
X159844634Y-128676842D01*
X159843460Y-128652950D01*
X159843460Y-128165450D01*
X159844634Y-128141558D01*
X159848144Y-128117897D01*
X159853956Y-128094693D01*
X159862014Y-128072171D01*
X159872242Y-128050547D01*
X159884539Y-128030030D01*
X159898789Y-128010817D01*
X159914853Y-127993093D01*
X159932577Y-127977029D01*
X159951790Y-127962779D01*
X159972307Y-127950482D01*
X159993931Y-127940254D01*
X160016453Y-127932196D01*
X160039657Y-127926384D01*
X160063318Y-127922874D01*
X160087210Y-127921700D01*
X160999710Y-127921700D01*
X161023602Y-127922874D01*
G37*
G36*
X161023602Y-129797874D02*
G01*
X161047263Y-129801384D01*
X161070467Y-129807196D01*
X161092989Y-129815254D01*
X161114613Y-129825482D01*
X161135130Y-129837779D01*
X161154343Y-129852029D01*
X161172067Y-129868093D01*
X161188131Y-129885817D01*
X161202381Y-129905030D01*
X161214678Y-129925547D01*
X161224906Y-129947171D01*
X161232964Y-129969693D01*
X161238776Y-129992897D01*
X161242286Y-130016558D01*
X161243460Y-130040450D01*
X161243460Y-130527950D01*
X161242286Y-130551842D01*
X161238776Y-130575503D01*
X161232964Y-130598707D01*
X161224906Y-130621229D01*
X161214678Y-130642853D01*
X161202381Y-130663370D01*
X161188131Y-130682583D01*
X161172067Y-130700307D01*
X161154343Y-130716371D01*
X161135130Y-130730621D01*
X161114613Y-130742918D01*
X161092989Y-130753146D01*
X161070467Y-130761204D01*
X161047263Y-130767016D01*
X161023602Y-130770526D01*
X160999710Y-130771700D01*
X160087210Y-130771700D01*
X160063318Y-130770526D01*
X160039657Y-130767016D01*
X160016453Y-130761204D01*
X159993931Y-130753146D01*
X159972307Y-130742918D01*
X159951790Y-130730621D01*
X159932577Y-130716371D01*
X159914853Y-130700307D01*
X159898789Y-130682583D01*
X159884539Y-130663370D01*
X159872242Y-130642853D01*
X159862014Y-130621229D01*
X159853956Y-130598707D01*
X159848144Y-130575503D01*
X159844634Y-130551842D01*
X159843460Y-130527950D01*
X159843460Y-130040450D01*
X159844634Y-130016558D01*
X159848144Y-129992897D01*
X159853956Y-129969693D01*
X159862014Y-129947171D01*
X159872242Y-129925547D01*
X159884539Y-129905030D01*
X159898789Y-129885817D01*
X159914853Y-129868093D01*
X159932577Y-129852029D01*
X159951790Y-129837779D01*
X159972307Y-129825482D01*
X159993931Y-129815254D01*
X160016453Y-129807196D01*
X160039657Y-129801384D01*
X160063318Y-129797874D01*
X160087210Y-129796700D01*
X160999710Y-129796700D01*
X161023602Y-129797874D01*
G37*
G36*
X158273602Y-129797874D02*
G01*
X158297263Y-129801384D01*
X158320467Y-129807196D01*
X158342989Y-129815254D01*
X158364613Y-129825482D01*
X158385130Y-129837779D01*
X158404343Y-129852029D01*
X158422067Y-129868093D01*
X158438131Y-129885817D01*
X158452381Y-129905030D01*
X158464678Y-129925547D01*
X158474906Y-129947171D01*
X158482964Y-129969693D01*
X158488776Y-129992897D01*
X158492286Y-130016558D01*
X158493460Y-130040450D01*
X158493460Y-130527950D01*
X158492286Y-130551842D01*
X158488776Y-130575503D01*
X158482964Y-130598707D01*
X158474906Y-130621229D01*
X158464678Y-130642853D01*
X158452381Y-130663370D01*
X158438131Y-130682583D01*
X158422067Y-130700307D01*
X158404343Y-130716371D01*
X158385130Y-130730621D01*
X158364613Y-130742918D01*
X158342989Y-130753146D01*
X158320467Y-130761204D01*
X158297263Y-130767016D01*
X158273602Y-130770526D01*
X158249710Y-130771700D01*
X157337210Y-130771700D01*
X157313318Y-130770526D01*
X157289657Y-130767016D01*
X157266453Y-130761204D01*
X157243931Y-130753146D01*
X157222307Y-130742918D01*
X157201790Y-130730621D01*
X157182577Y-130716371D01*
X157164853Y-130700307D01*
X157148789Y-130682583D01*
X157134539Y-130663370D01*
X157122242Y-130642853D01*
X157112014Y-130621229D01*
X157103956Y-130598707D01*
X157098144Y-130575503D01*
X157094634Y-130551842D01*
X157093460Y-130527950D01*
X157093460Y-130040450D01*
X157094634Y-130016558D01*
X157098144Y-129992897D01*
X157103956Y-129969693D01*
X157112014Y-129947171D01*
X157122242Y-129925547D01*
X157134539Y-129905030D01*
X157148789Y-129885817D01*
X157164853Y-129868093D01*
X157182577Y-129852029D01*
X157201790Y-129837779D01*
X157222307Y-129825482D01*
X157243931Y-129815254D01*
X157266453Y-129807196D01*
X157289657Y-129801384D01*
X157313318Y-129797874D01*
X157337210Y-129796700D01*
X158249710Y-129796700D01*
X158273602Y-129797874D01*
G37*
G36*
X158273602Y-127922874D02*
G01*
X158297263Y-127926384D01*
X158320467Y-127932196D01*
X158342989Y-127940254D01*
X158364613Y-127950482D01*
X158385130Y-127962779D01*
X158404343Y-127977029D01*
X158422067Y-127993093D01*
X158438131Y-128010817D01*
X158452381Y-128030030D01*
X158464678Y-128050547D01*
X158474906Y-128072171D01*
X158482964Y-128094693D01*
X158488776Y-128117897D01*
X158492286Y-128141558D01*
X158493460Y-128165450D01*
X158493460Y-128652950D01*
X158492286Y-128676842D01*
X158488776Y-128700503D01*
X158482964Y-128723707D01*
X158474906Y-128746229D01*
X158464678Y-128767853D01*
X158452381Y-128788370D01*
X158438131Y-128807583D01*
X158422067Y-128825307D01*
X158404343Y-128841371D01*
X158385130Y-128855621D01*
X158364613Y-128867918D01*
X158342989Y-128878146D01*
X158320467Y-128886204D01*
X158297263Y-128892016D01*
X158273602Y-128895526D01*
X158249710Y-128896700D01*
X157337210Y-128896700D01*
X157313318Y-128895526D01*
X157289657Y-128892016D01*
X157266453Y-128886204D01*
X157243931Y-128878146D01*
X157222307Y-128867918D01*
X157201790Y-128855621D01*
X157182577Y-128841371D01*
X157164853Y-128825307D01*
X157148789Y-128807583D01*
X157134539Y-128788370D01*
X157122242Y-128767853D01*
X157112014Y-128746229D01*
X157103956Y-128723707D01*
X157098144Y-128700503D01*
X157094634Y-128676842D01*
X157093460Y-128652950D01*
X157093460Y-128165450D01*
X157094634Y-128141558D01*
X157098144Y-128117897D01*
X157103956Y-128094693D01*
X157112014Y-128072171D01*
X157122242Y-128050547D01*
X157134539Y-128030030D01*
X157148789Y-128010817D01*
X157164853Y-127993093D01*
X157182577Y-127977029D01*
X157201790Y-127962779D01*
X157222307Y-127950482D01*
X157243931Y-127940254D01*
X157266453Y-127932196D01*
X157289657Y-127926384D01*
X157313318Y-127922874D01*
X157337210Y-127921700D01*
X158249710Y-127921700D01*
X158273602Y-127922874D01*
G37*
G36*
X149385742Y-107694814D02*
G01*
X149409403Y-107698324D01*
X149432607Y-107704136D01*
X149455129Y-107712194D01*
X149476753Y-107722422D01*
X149497270Y-107734719D01*
X149516483Y-107748969D01*
X149534207Y-107765033D01*
X149550271Y-107782757D01*
X149564521Y-107801970D01*
X149576818Y-107822487D01*
X149587046Y-107844111D01*
X149595104Y-107866633D01*
X149600916Y-107889837D01*
X149604426Y-107913498D01*
X149605600Y-107937390D01*
X149605600Y-108849890D01*
X149604426Y-108873782D01*
X149600916Y-108897443D01*
X149595104Y-108920647D01*
X149587046Y-108943169D01*
X149576818Y-108964793D01*
X149564521Y-108985310D01*
X149550271Y-109004523D01*
X149534207Y-109022247D01*
X149516483Y-109038311D01*
X149497270Y-109052561D01*
X149476753Y-109064858D01*
X149455129Y-109075086D01*
X149432607Y-109083144D01*
X149409403Y-109088956D01*
X149385742Y-109092466D01*
X149361850Y-109093640D01*
X148874350Y-109093640D01*
X148850458Y-109092466D01*
X148826797Y-109088956D01*
X148803593Y-109083144D01*
X148781071Y-109075086D01*
X148759447Y-109064858D01*
X148738930Y-109052561D01*
X148719717Y-109038311D01*
X148701993Y-109022247D01*
X148685929Y-109004523D01*
X148671679Y-108985310D01*
X148659382Y-108964793D01*
X148649154Y-108943169D01*
X148641096Y-108920647D01*
X148635284Y-108897443D01*
X148631774Y-108873782D01*
X148630600Y-108849890D01*
X148630600Y-107937390D01*
X148631774Y-107913498D01*
X148635284Y-107889837D01*
X148641096Y-107866633D01*
X148649154Y-107844111D01*
X148659382Y-107822487D01*
X148671679Y-107801970D01*
X148685929Y-107782757D01*
X148701993Y-107765033D01*
X148719717Y-107748969D01*
X148738930Y-107734719D01*
X148759447Y-107722422D01*
X148781071Y-107712194D01*
X148803593Y-107704136D01*
X148826797Y-107698324D01*
X148850458Y-107694814D01*
X148874350Y-107693640D01*
X149361850Y-107693640D01*
X149385742Y-107694814D01*
G37*
G36*
X151260742Y-107694814D02*
G01*
X151284403Y-107698324D01*
X151307607Y-107704136D01*
X151330129Y-107712194D01*
X151351753Y-107722422D01*
X151372270Y-107734719D01*
X151391483Y-107748969D01*
X151409207Y-107765033D01*
X151425271Y-107782757D01*
X151439521Y-107801970D01*
X151451818Y-107822487D01*
X151462046Y-107844111D01*
X151470104Y-107866633D01*
X151475916Y-107889837D01*
X151479426Y-107913498D01*
X151480600Y-107937390D01*
X151480600Y-108849890D01*
X151479426Y-108873782D01*
X151475916Y-108897443D01*
X151470104Y-108920647D01*
X151462046Y-108943169D01*
X151451818Y-108964793D01*
X151439521Y-108985310D01*
X151425271Y-109004523D01*
X151409207Y-109022247D01*
X151391483Y-109038311D01*
X151372270Y-109052561D01*
X151351753Y-109064858D01*
X151330129Y-109075086D01*
X151307607Y-109083144D01*
X151284403Y-109088956D01*
X151260742Y-109092466D01*
X151236850Y-109093640D01*
X150749350Y-109093640D01*
X150725458Y-109092466D01*
X150701797Y-109088956D01*
X150678593Y-109083144D01*
X150656071Y-109075086D01*
X150634447Y-109064858D01*
X150613930Y-109052561D01*
X150594717Y-109038311D01*
X150576993Y-109022247D01*
X150560929Y-109004523D01*
X150546679Y-108985310D01*
X150534382Y-108964793D01*
X150524154Y-108943169D01*
X150516096Y-108920647D01*
X150510284Y-108897443D01*
X150506774Y-108873782D01*
X150505600Y-108849890D01*
X150505600Y-107937390D01*
X150506774Y-107913498D01*
X150510284Y-107889837D01*
X150516096Y-107866633D01*
X150524154Y-107844111D01*
X150534382Y-107822487D01*
X150546679Y-107801970D01*
X150560929Y-107782757D01*
X150576993Y-107765033D01*
X150594717Y-107748969D01*
X150613930Y-107734719D01*
X150634447Y-107722422D01*
X150656071Y-107712194D01*
X150678593Y-107704136D01*
X150701797Y-107698324D01*
X150725458Y-107694814D01*
X150749350Y-107693640D01*
X151236850Y-107693640D01*
X151260742Y-107694814D01*
G37*
G36*
X151260742Y-110483954D02*
G01*
X151284403Y-110487464D01*
X151307607Y-110493276D01*
X151330129Y-110501334D01*
X151351753Y-110511562D01*
X151372270Y-110523859D01*
X151391483Y-110538109D01*
X151409207Y-110554173D01*
X151425271Y-110571897D01*
X151439521Y-110591110D01*
X151451818Y-110611627D01*
X151462046Y-110633251D01*
X151470104Y-110655773D01*
X151475916Y-110678977D01*
X151479426Y-110702638D01*
X151480600Y-110726530D01*
X151480600Y-111639030D01*
X151479426Y-111662922D01*
X151475916Y-111686583D01*
X151470104Y-111709787D01*
X151462046Y-111732309D01*
X151451818Y-111753933D01*
X151439521Y-111774450D01*
X151425271Y-111793663D01*
X151409207Y-111811387D01*
X151391483Y-111827451D01*
X151372270Y-111841701D01*
X151351753Y-111853998D01*
X151330129Y-111864226D01*
X151307607Y-111872284D01*
X151284403Y-111878096D01*
X151260742Y-111881606D01*
X151236850Y-111882780D01*
X150749350Y-111882780D01*
X150725458Y-111881606D01*
X150701797Y-111878096D01*
X150678593Y-111872284D01*
X150656071Y-111864226D01*
X150634447Y-111853998D01*
X150613930Y-111841701D01*
X150594717Y-111827451D01*
X150576993Y-111811387D01*
X150560929Y-111793663D01*
X150546679Y-111774450D01*
X150534382Y-111753933D01*
X150524154Y-111732309D01*
X150516096Y-111709787D01*
X150510284Y-111686583D01*
X150506774Y-111662922D01*
X150505600Y-111639030D01*
X150505600Y-110726530D01*
X150506774Y-110702638D01*
X150510284Y-110678977D01*
X150516096Y-110655773D01*
X150524154Y-110633251D01*
X150534382Y-110611627D01*
X150546679Y-110591110D01*
X150560929Y-110571897D01*
X150576993Y-110554173D01*
X150594717Y-110538109D01*
X150613930Y-110523859D01*
X150634447Y-110511562D01*
X150656071Y-110501334D01*
X150678593Y-110493276D01*
X150701797Y-110487464D01*
X150725458Y-110483954D01*
X150749350Y-110482780D01*
X151236850Y-110482780D01*
X151260742Y-110483954D01*
G37*
G36*
X149385742Y-110483954D02*
G01*
X149409403Y-110487464D01*
X149432607Y-110493276D01*
X149455129Y-110501334D01*
X149476753Y-110511562D01*
X149497270Y-110523859D01*
X149516483Y-110538109D01*
X149534207Y-110554173D01*
X149550271Y-110571897D01*
X149564521Y-110591110D01*
X149576818Y-110611627D01*
X149587046Y-110633251D01*
X149595104Y-110655773D01*
X149600916Y-110678977D01*
X149604426Y-110702638D01*
X149605600Y-110726530D01*
X149605600Y-111639030D01*
X149604426Y-111662922D01*
X149600916Y-111686583D01*
X149595104Y-111709787D01*
X149587046Y-111732309D01*
X149576818Y-111753933D01*
X149564521Y-111774450D01*
X149550271Y-111793663D01*
X149534207Y-111811387D01*
X149516483Y-111827451D01*
X149497270Y-111841701D01*
X149476753Y-111853998D01*
X149455129Y-111864226D01*
X149432607Y-111872284D01*
X149409403Y-111878096D01*
X149385742Y-111881606D01*
X149361850Y-111882780D01*
X148874350Y-111882780D01*
X148850458Y-111881606D01*
X148826797Y-111878096D01*
X148803593Y-111872284D01*
X148781071Y-111864226D01*
X148759447Y-111853998D01*
X148738930Y-111841701D01*
X148719717Y-111827451D01*
X148701993Y-111811387D01*
X148685929Y-111793663D01*
X148671679Y-111774450D01*
X148659382Y-111753933D01*
X148649154Y-111732309D01*
X148641096Y-111709787D01*
X148635284Y-111686583D01*
X148631774Y-111662922D01*
X148630600Y-111639030D01*
X148630600Y-110726530D01*
X148631774Y-110702638D01*
X148635284Y-110678977D01*
X148641096Y-110655773D01*
X148649154Y-110633251D01*
X148659382Y-110611627D01*
X148671679Y-110591110D01*
X148685929Y-110571897D01*
X148701993Y-110554173D01*
X148719717Y-110538109D01*
X148738930Y-110523859D01*
X148759447Y-110511562D01*
X148781071Y-110501334D01*
X148803593Y-110493276D01*
X148826797Y-110487464D01*
X148850458Y-110483954D01*
X148874350Y-110482780D01*
X149361850Y-110482780D01*
X149385742Y-110483954D01*
G37*
G36*
X142930142Y-66869174D02*
G01*
X142953803Y-66872684D01*
X142977007Y-66878496D01*
X142999529Y-66886554D01*
X143021153Y-66896782D01*
X143041670Y-66909079D01*
X143060883Y-66923329D01*
X143078607Y-66939393D01*
X143094671Y-66957117D01*
X143108921Y-66976330D01*
X143121218Y-66996847D01*
X143131446Y-67018471D01*
X143139504Y-67040993D01*
X143145316Y-67064197D01*
X143148826Y-67087858D01*
X143150000Y-67111750D01*
X143150000Y-68024250D01*
X143148826Y-68048142D01*
X143145316Y-68071803D01*
X143139504Y-68095007D01*
X143131446Y-68117529D01*
X143121218Y-68139153D01*
X143108921Y-68159670D01*
X143094671Y-68178883D01*
X143078607Y-68196607D01*
X143060883Y-68212671D01*
X143041670Y-68226921D01*
X143021153Y-68239218D01*
X142999529Y-68249446D01*
X142977007Y-68257504D01*
X142953803Y-68263316D01*
X142930142Y-68266826D01*
X142906250Y-68268000D01*
X142418750Y-68268000D01*
X142394858Y-68266826D01*
X142371197Y-68263316D01*
X142347993Y-68257504D01*
X142325471Y-68249446D01*
X142303847Y-68239218D01*
X142283330Y-68226921D01*
X142264117Y-68212671D01*
X142246393Y-68196607D01*
X142230329Y-68178883D01*
X142216079Y-68159670D01*
X142203782Y-68139153D01*
X142193554Y-68117529D01*
X142185496Y-68095007D01*
X142179684Y-68071803D01*
X142176174Y-68048142D01*
X142175000Y-68024250D01*
X142175000Y-67111750D01*
X142176174Y-67087858D01*
X142179684Y-67064197D01*
X142185496Y-67040993D01*
X142193554Y-67018471D01*
X142203782Y-66996847D01*
X142216079Y-66976330D01*
X142230329Y-66957117D01*
X142246393Y-66939393D01*
X142264117Y-66923329D01*
X142283330Y-66909079D01*
X142303847Y-66896782D01*
X142325471Y-66886554D01*
X142347993Y-66878496D01*
X142371197Y-66872684D01*
X142394858Y-66869174D01*
X142418750Y-66868000D01*
X142906250Y-66868000D01*
X142930142Y-66869174D01*
G37*
G36*
X144805142Y-66869174D02*
G01*
X144828803Y-66872684D01*
X144852007Y-66878496D01*
X144874529Y-66886554D01*
X144896153Y-66896782D01*
X144916670Y-66909079D01*
X144935883Y-66923329D01*
X144953607Y-66939393D01*
X144969671Y-66957117D01*
X144983921Y-66976330D01*
X144996218Y-66996847D01*
X145006446Y-67018471D01*
X145014504Y-67040993D01*
X145020316Y-67064197D01*
X145023826Y-67087858D01*
X145025000Y-67111750D01*
X145025000Y-68024250D01*
X145023826Y-68048142D01*
X145020316Y-68071803D01*
X145014504Y-68095007D01*
X145006446Y-68117529D01*
X144996218Y-68139153D01*
X144983921Y-68159670D01*
X144969671Y-68178883D01*
X144953607Y-68196607D01*
X144935883Y-68212671D01*
X144916670Y-68226921D01*
X144896153Y-68239218D01*
X144874529Y-68249446D01*
X144852007Y-68257504D01*
X144828803Y-68263316D01*
X144805142Y-68266826D01*
X144781250Y-68268000D01*
X144293750Y-68268000D01*
X144269858Y-68266826D01*
X144246197Y-68263316D01*
X144222993Y-68257504D01*
X144200471Y-68249446D01*
X144178847Y-68239218D01*
X144158330Y-68226921D01*
X144139117Y-68212671D01*
X144121393Y-68196607D01*
X144105329Y-68178883D01*
X144091079Y-68159670D01*
X144078782Y-68139153D01*
X144068554Y-68117529D01*
X144060496Y-68095007D01*
X144054684Y-68071803D01*
X144051174Y-68048142D01*
X144050000Y-68024250D01*
X144050000Y-67111750D01*
X144051174Y-67087858D01*
X144054684Y-67064197D01*
X144060496Y-67040993D01*
X144068554Y-67018471D01*
X144078782Y-66996847D01*
X144091079Y-66976330D01*
X144105329Y-66957117D01*
X144121393Y-66939393D01*
X144139117Y-66923329D01*
X144158330Y-66909079D01*
X144178847Y-66896782D01*
X144200471Y-66886554D01*
X144222993Y-66878496D01*
X144246197Y-66872684D01*
X144269858Y-66869174D01*
X144293750Y-66868000D01*
X144781250Y-66868000D01*
X144805142Y-66869174D01*
G37*
G36*
X149385742Y-113273094D02*
G01*
X149409403Y-113276604D01*
X149432607Y-113282416D01*
X149455129Y-113290474D01*
X149476753Y-113300702D01*
X149497270Y-113312999D01*
X149516483Y-113327249D01*
X149534207Y-113343313D01*
X149550271Y-113361037D01*
X149564521Y-113380250D01*
X149576818Y-113400767D01*
X149587046Y-113422391D01*
X149595104Y-113444913D01*
X149600916Y-113468117D01*
X149604426Y-113491778D01*
X149605600Y-113515670D01*
X149605600Y-114428170D01*
X149604426Y-114452062D01*
X149600916Y-114475723D01*
X149595104Y-114498927D01*
X149587046Y-114521449D01*
X149576818Y-114543073D01*
X149564521Y-114563590D01*
X149550271Y-114582803D01*
X149534207Y-114600527D01*
X149516483Y-114616591D01*
X149497270Y-114630841D01*
X149476753Y-114643138D01*
X149455129Y-114653366D01*
X149432607Y-114661424D01*
X149409403Y-114667236D01*
X149385742Y-114670746D01*
X149361850Y-114671920D01*
X148874350Y-114671920D01*
X148850458Y-114670746D01*
X148826797Y-114667236D01*
X148803593Y-114661424D01*
X148781071Y-114653366D01*
X148759447Y-114643138D01*
X148738930Y-114630841D01*
X148719717Y-114616591D01*
X148701993Y-114600527D01*
X148685929Y-114582803D01*
X148671679Y-114563590D01*
X148659382Y-114543073D01*
X148649154Y-114521449D01*
X148641096Y-114498927D01*
X148635284Y-114475723D01*
X148631774Y-114452062D01*
X148630600Y-114428170D01*
X148630600Y-113515670D01*
X148631774Y-113491778D01*
X148635284Y-113468117D01*
X148641096Y-113444913D01*
X148649154Y-113422391D01*
X148659382Y-113400767D01*
X148671679Y-113380250D01*
X148685929Y-113361037D01*
X148701993Y-113343313D01*
X148719717Y-113327249D01*
X148738930Y-113312999D01*
X148759447Y-113300702D01*
X148781071Y-113290474D01*
X148803593Y-113282416D01*
X148826797Y-113276604D01*
X148850458Y-113273094D01*
X148874350Y-113271920D01*
X149361850Y-113271920D01*
X149385742Y-113273094D01*
G37*
G36*
X151260742Y-113273094D02*
G01*
X151284403Y-113276604D01*
X151307607Y-113282416D01*
X151330129Y-113290474D01*
X151351753Y-113300702D01*
X151372270Y-113312999D01*
X151391483Y-113327249D01*
X151409207Y-113343313D01*
X151425271Y-113361037D01*
X151439521Y-113380250D01*
X151451818Y-113400767D01*
X151462046Y-113422391D01*
X151470104Y-113444913D01*
X151475916Y-113468117D01*
X151479426Y-113491778D01*
X151480600Y-113515670D01*
X151480600Y-114428170D01*
X151479426Y-114452062D01*
X151475916Y-114475723D01*
X151470104Y-114498927D01*
X151462046Y-114521449D01*
X151451818Y-114543073D01*
X151439521Y-114563590D01*
X151425271Y-114582803D01*
X151409207Y-114600527D01*
X151391483Y-114616591D01*
X151372270Y-114630841D01*
X151351753Y-114643138D01*
X151330129Y-114653366D01*
X151307607Y-114661424D01*
X151284403Y-114667236D01*
X151260742Y-114670746D01*
X151236850Y-114671920D01*
X150749350Y-114671920D01*
X150725458Y-114670746D01*
X150701797Y-114667236D01*
X150678593Y-114661424D01*
X150656071Y-114653366D01*
X150634447Y-114643138D01*
X150613930Y-114630841D01*
X150594717Y-114616591D01*
X150576993Y-114600527D01*
X150560929Y-114582803D01*
X150546679Y-114563590D01*
X150534382Y-114543073D01*
X150524154Y-114521449D01*
X150516096Y-114498927D01*
X150510284Y-114475723D01*
X150506774Y-114452062D01*
X150505600Y-114428170D01*
X150505600Y-113515670D01*
X150506774Y-113491778D01*
X150510284Y-113468117D01*
X150516096Y-113444913D01*
X150524154Y-113422391D01*
X150534382Y-113400767D01*
X150546679Y-113380250D01*
X150560929Y-113361037D01*
X150576993Y-113343313D01*
X150594717Y-113327249D01*
X150613930Y-113312999D01*
X150634447Y-113300702D01*
X150656071Y-113290474D01*
X150678593Y-113282416D01*
X150701797Y-113276604D01*
X150725458Y-113273094D01*
X150749350Y-113271920D01*
X151236850Y-113271920D01*
X151260742Y-113273094D01*
G37*
G36*
X149385742Y-104905674D02*
G01*
X149409403Y-104909184D01*
X149432607Y-104914996D01*
X149455129Y-104923054D01*
X149476753Y-104933282D01*
X149497270Y-104945579D01*
X149516483Y-104959829D01*
X149534207Y-104975893D01*
X149550271Y-104993617D01*
X149564521Y-105012830D01*
X149576818Y-105033347D01*
X149587046Y-105054971D01*
X149595104Y-105077493D01*
X149600916Y-105100697D01*
X149604426Y-105124358D01*
X149605600Y-105148250D01*
X149605600Y-106060750D01*
X149604426Y-106084642D01*
X149600916Y-106108303D01*
X149595104Y-106131507D01*
X149587046Y-106154029D01*
X149576818Y-106175653D01*
X149564521Y-106196170D01*
X149550271Y-106215383D01*
X149534207Y-106233107D01*
X149516483Y-106249171D01*
X149497270Y-106263421D01*
X149476753Y-106275718D01*
X149455129Y-106285946D01*
X149432607Y-106294004D01*
X149409403Y-106299816D01*
X149385742Y-106303326D01*
X149361850Y-106304500D01*
X148874350Y-106304500D01*
X148850458Y-106303326D01*
X148826797Y-106299816D01*
X148803593Y-106294004D01*
X148781071Y-106285946D01*
X148759447Y-106275718D01*
X148738930Y-106263421D01*
X148719717Y-106249171D01*
X148701993Y-106233107D01*
X148685929Y-106215383D01*
X148671679Y-106196170D01*
X148659382Y-106175653D01*
X148649154Y-106154029D01*
X148641096Y-106131507D01*
X148635284Y-106108303D01*
X148631774Y-106084642D01*
X148630600Y-106060750D01*
X148630600Y-105148250D01*
X148631774Y-105124358D01*
X148635284Y-105100697D01*
X148641096Y-105077493D01*
X148649154Y-105054971D01*
X148659382Y-105033347D01*
X148671679Y-105012830D01*
X148685929Y-104993617D01*
X148701993Y-104975893D01*
X148719717Y-104959829D01*
X148738930Y-104945579D01*
X148759447Y-104933282D01*
X148781071Y-104923054D01*
X148803593Y-104914996D01*
X148826797Y-104909184D01*
X148850458Y-104905674D01*
X148874350Y-104904500D01*
X149361850Y-104904500D01*
X149385742Y-104905674D01*
G37*
G36*
X151260742Y-104905674D02*
G01*
X151284403Y-104909184D01*
X151307607Y-104914996D01*
X151330129Y-104923054D01*
X151351753Y-104933282D01*
X151372270Y-104945579D01*
X151391483Y-104959829D01*
X151409207Y-104975893D01*
X151425271Y-104993617D01*
X151439521Y-105012830D01*
X151451818Y-105033347D01*
X151462046Y-105054971D01*
X151470104Y-105077493D01*
X151475916Y-105100697D01*
X151479426Y-105124358D01*
X151480600Y-105148250D01*
X151480600Y-106060750D01*
X151479426Y-106084642D01*
X151475916Y-106108303D01*
X151470104Y-106131507D01*
X151462046Y-106154029D01*
X151451818Y-106175653D01*
X151439521Y-106196170D01*
X151425271Y-106215383D01*
X151409207Y-106233107D01*
X151391483Y-106249171D01*
X151372270Y-106263421D01*
X151351753Y-106275718D01*
X151330129Y-106285946D01*
X151307607Y-106294004D01*
X151284403Y-106299816D01*
X151260742Y-106303326D01*
X151236850Y-106304500D01*
X150749350Y-106304500D01*
X150725458Y-106303326D01*
X150701797Y-106299816D01*
X150678593Y-106294004D01*
X150656071Y-106285946D01*
X150634447Y-106275718D01*
X150613930Y-106263421D01*
X150594717Y-106249171D01*
X150576993Y-106233107D01*
X150560929Y-106215383D01*
X150546679Y-106196170D01*
X150534382Y-106175653D01*
X150524154Y-106154029D01*
X150516096Y-106131507D01*
X150510284Y-106108303D01*
X150506774Y-106084642D01*
X150505600Y-106060750D01*
X150505600Y-105148250D01*
X150506774Y-105124358D01*
X150510284Y-105100697D01*
X150516096Y-105077493D01*
X150524154Y-105054971D01*
X150534382Y-105033347D01*
X150546679Y-105012830D01*
X150560929Y-104993617D01*
X150576993Y-104975893D01*
X150594717Y-104959829D01*
X150613930Y-104945579D01*
X150634447Y-104933282D01*
X150656071Y-104923054D01*
X150678593Y-104914996D01*
X150701797Y-104909184D01*
X150725458Y-104905674D01*
X150749350Y-104904500D01*
X151236850Y-104904500D01*
X151260742Y-104905674D01*
G37*
G36*
X169105142Y-66901174D02*
G01*
X169128803Y-66904684D01*
X169152007Y-66910496D01*
X169174529Y-66918554D01*
X169196153Y-66928782D01*
X169216670Y-66941079D01*
X169235883Y-66955329D01*
X169253607Y-66971393D01*
X169269671Y-66989117D01*
X169283921Y-67008330D01*
X169296218Y-67028847D01*
X169306446Y-67050471D01*
X169314504Y-67072993D01*
X169320316Y-67096197D01*
X169323826Y-67119858D01*
X169325000Y-67143750D01*
X169325000Y-68056250D01*
X169323826Y-68080142D01*
X169320316Y-68103803D01*
X169314504Y-68127007D01*
X169306446Y-68149529D01*
X169296218Y-68171153D01*
X169283921Y-68191670D01*
X169269671Y-68210883D01*
X169253607Y-68228607D01*
X169235883Y-68244671D01*
X169216670Y-68258921D01*
X169196153Y-68271218D01*
X169174529Y-68281446D01*
X169152007Y-68289504D01*
X169128803Y-68295316D01*
X169105142Y-68298826D01*
X169081250Y-68300000D01*
X168593750Y-68300000D01*
X168569858Y-68298826D01*
X168546197Y-68295316D01*
X168522993Y-68289504D01*
X168500471Y-68281446D01*
X168478847Y-68271218D01*
X168458330Y-68258921D01*
X168439117Y-68244671D01*
X168421393Y-68228607D01*
X168405329Y-68210883D01*
X168391079Y-68191670D01*
X168378782Y-68171153D01*
X168368554Y-68149529D01*
X168360496Y-68127007D01*
X168354684Y-68103803D01*
X168351174Y-68080142D01*
X168350000Y-68056250D01*
X168350000Y-67143750D01*
X168351174Y-67119858D01*
X168354684Y-67096197D01*
X168360496Y-67072993D01*
X168368554Y-67050471D01*
X168378782Y-67028847D01*
X168391079Y-67008330D01*
X168405329Y-66989117D01*
X168421393Y-66971393D01*
X168439117Y-66955329D01*
X168458330Y-66941079D01*
X168478847Y-66928782D01*
X168500471Y-66918554D01*
X168522993Y-66910496D01*
X168546197Y-66904684D01*
X168569858Y-66901174D01*
X168593750Y-66900000D01*
X169081250Y-66900000D01*
X169105142Y-66901174D01*
G37*
G36*
X167230142Y-66901174D02*
G01*
X167253803Y-66904684D01*
X167277007Y-66910496D01*
X167299529Y-66918554D01*
X167321153Y-66928782D01*
X167341670Y-66941079D01*
X167360883Y-66955329D01*
X167378607Y-66971393D01*
X167394671Y-66989117D01*
X167408921Y-67008330D01*
X167421218Y-67028847D01*
X167431446Y-67050471D01*
X167439504Y-67072993D01*
X167445316Y-67096197D01*
X167448826Y-67119858D01*
X167450000Y-67143750D01*
X167450000Y-68056250D01*
X167448826Y-68080142D01*
X167445316Y-68103803D01*
X167439504Y-68127007D01*
X167431446Y-68149529D01*
X167421218Y-68171153D01*
X167408921Y-68191670D01*
X167394671Y-68210883D01*
X167378607Y-68228607D01*
X167360883Y-68244671D01*
X167341670Y-68258921D01*
X167321153Y-68271218D01*
X167299529Y-68281446D01*
X167277007Y-68289504D01*
X167253803Y-68295316D01*
X167230142Y-68298826D01*
X167206250Y-68300000D01*
X166718750Y-68300000D01*
X166694858Y-68298826D01*
X166671197Y-68295316D01*
X166647993Y-68289504D01*
X166625471Y-68281446D01*
X166603847Y-68271218D01*
X166583330Y-68258921D01*
X166564117Y-68244671D01*
X166546393Y-68228607D01*
X166530329Y-68210883D01*
X166516079Y-68191670D01*
X166503782Y-68171153D01*
X166493554Y-68149529D01*
X166485496Y-68127007D01*
X166479684Y-68103803D01*
X166476174Y-68080142D01*
X166475000Y-68056250D01*
X166475000Y-67143750D01*
X166476174Y-67119858D01*
X166479684Y-67096197D01*
X166485496Y-67072993D01*
X166493554Y-67050471D01*
X166503782Y-67028847D01*
X166516079Y-67008330D01*
X166530329Y-66989117D01*
X166546393Y-66971393D01*
X166564117Y-66955329D01*
X166583330Y-66941079D01*
X166603847Y-66928782D01*
X166625471Y-66918554D01*
X166647993Y-66910496D01*
X166671197Y-66904684D01*
X166694858Y-66901174D01*
X166718750Y-66900000D01*
X167206250Y-66900000D01*
X167230142Y-66901174D01*
G37*
G36*
X153055142Y-136599174D02*
G01*
X153078803Y-136602684D01*
X153102007Y-136608496D01*
X153124529Y-136616554D01*
X153146153Y-136626782D01*
X153166670Y-136639079D01*
X153185883Y-136653329D01*
X153203607Y-136669393D01*
X153219671Y-136687117D01*
X153233921Y-136706330D01*
X153246218Y-136726847D01*
X153256446Y-136748471D01*
X153264504Y-136770993D01*
X153270316Y-136794197D01*
X153273826Y-136817858D01*
X153275000Y-136841750D01*
X153275000Y-137329250D01*
X153273826Y-137353142D01*
X153270316Y-137376803D01*
X153264504Y-137400007D01*
X153256446Y-137422529D01*
X153246218Y-137444153D01*
X153233921Y-137464670D01*
X153219671Y-137483883D01*
X153203607Y-137501607D01*
X153185883Y-137517671D01*
X153166670Y-137531921D01*
X153146153Y-137544218D01*
X153124529Y-137554446D01*
X153102007Y-137562504D01*
X153078803Y-137568316D01*
X153055142Y-137571826D01*
X153031250Y-137573000D01*
X152118750Y-137573000D01*
X152094858Y-137571826D01*
X152071197Y-137568316D01*
X152047993Y-137562504D01*
X152025471Y-137554446D01*
X152003847Y-137544218D01*
X151983330Y-137531921D01*
X151964117Y-137517671D01*
X151946393Y-137501607D01*
X151930329Y-137483883D01*
X151916079Y-137464670D01*
X151903782Y-137444153D01*
X151893554Y-137422529D01*
X151885496Y-137400007D01*
X151879684Y-137376803D01*
X151876174Y-137353142D01*
X151875000Y-137329250D01*
X151875000Y-136841750D01*
X151876174Y-136817858D01*
X151879684Y-136794197D01*
X151885496Y-136770993D01*
X151893554Y-136748471D01*
X151903782Y-136726847D01*
X151916079Y-136706330D01*
X151930329Y-136687117D01*
X151946393Y-136669393D01*
X151964117Y-136653329D01*
X151983330Y-136639079D01*
X152003847Y-136626782D01*
X152025471Y-136616554D01*
X152047993Y-136608496D01*
X152071197Y-136602684D01*
X152094858Y-136599174D01*
X152118750Y-136598000D01*
X153031250Y-136598000D01*
X153055142Y-136599174D01*
G37*
G36*
X153055142Y-134724174D02*
G01*
X153078803Y-134727684D01*
X153102007Y-134733496D01*
X153124529Y-134741554D01*
X153146153Y-134751782D01*
X153166670Y-134764079D01*
X153185883Y-134778329D01*
X153203607Y-134794393D01*
X153219671Y-134812117D01*
X153233921Y-134831330D01*
X153246218Y-134851847D01*
X153256446Y-134873471D01*
X153264504Y-134895993D01*
X153270316Y-134919197D01*
X153273826Y-134942858D01*
X153275000Y-134966750D01*
X153275000Y-135454250D01*
X153273826Y-135478142D01*
X153270316Y-135501803D01*
X153264504Y-135525007D01*
X153256446Y-135547529D01*
X153246218Y-135569153D01*
X153233921Y-135589670D01*
X153219671Y-135608883D01*
X153203607Y-135626607D01*
X153185883Y-135642671D01*
X153166670Y-135656921D01*
X153146153Y-135669218D01*
X153124529Y-135679446D01*
X153102007Y-135687504D01*
X153078803Y-135693316D01*
X153055142Y-135696826D01*
X153031250Y-135698000D01*
X152118750Y-135698000D01*
X152094858Y-135696826D01*
X152071197Y-135693316D01*
X152047993Y-135687504D01*
X152025471Y-135679446D01*
X152003847Y-135669218D01*
X151983330Y-135656921D01*
X151964117Y-135642671D01*
X151946393Y-135626607D01*
X151930329Y-135608883D01*
X151916079Y-135589670D01*
X151903782Y-135569153D01*
X151893554Y-135547529D01*
X151885496Y-135525007D01*
X151879684Y-135501803D01*
X151876174Y-135478142D01*
X151875000Y-135454250D01*
X151875000Y-134966750D01*
X151876174Y-134942858D01*
X151879684Y-134919197D01*
X151885496Y-134895993D01*
X151893554Y-134873471D01*
X151903782Y-134851847D01*
X151916079Y-134831330D01*
X151930329Y-134812117D01*
X151946393Y-134794393D01*
X151964117Y-134778329D01*
X151983330Y-134764079D01*
X152003847Y-134751782D01*
X152025471Y-134741554D01*
X152047993Y-134733496D01*
X152071197Y-134727684D01*
X152094858Y-134724174D01*
X152118750Y-134723000D01*
X153031250Y-134723000D01*
X153055142Y-134724174D01*
G37*
G36*
X149686102Y-124197874D02*
G01*
X149709763Y-124201384D01*
X149732967Y-124207196D01*
X149755489Y-124215254D01*
X149777113Y-124225482D01*
X149797630Y-124237779D01*
X149816843Y-124252029D01*
X149834567Y-124268093D01*
X149850631Y-124285817D01*
X149864881Y-124305030D01*
X149877178Y-124325547D01*
X149887406Y-124347171D01*
X149895464Y-124369693D01*
X149901276Y-124392897D01*
X149904786Y-124416558D01*
X149905960Y-124440450D01*
X149905960Y-125352950D01*
X149904786Y-125376842D01*
X149901276Y-125400503D01*
X149895464Y-125423707D01*
X149887406Y-125446229D01*
X149877178Y-125467853D01*
X149864881Y-125488370D01*
X149850631Y-125507583D01*
X149834567Y-125525307D01*
X149816843Y-125541371D01*
X149797630Y-125555621D01*
X149777113Y-125567918D01*
X149755489Y-125578146D01*
X149732967Y-125586204D01*
X149709763Y-125592016D01*
X149686102Y-125595526D01*
X149662210Y-125596700D01*
X149174710Y-125596700D01*
X149150818Y-125595526D01*
X149127157Y-125592016D01*
X149103953Y-125586204D01*
X149081431Y-125578146D01*
X149059807Y-125567918D01*
X149039290Y-125555621D01*
X149020077Y-125541371D01*
X149002353Y-125525307D01*
X148986289Y-125507583D01*
X148972039Y-125488370D01*
X148959742Y-125467853D01*
X148949514Y-125446229D01*
X148941456Y-125423707D01*
X148935644Y-125400503D01*
X148932134Y-125376842D01*
X148930960Y-125352950D01*
X148930960Y-124440450D01*
X148932134Y-124416558D01*
X148935644Y-124392897D01*
X148941456Y-124369693D01*
X148949514Y-124347171D01*
X148959742Y-124325547D01*
X148972039Y-124305030D01*
X148986289Y-124285817D01*
X149002353Y-124268093D01*
X149020077Y-124252029D01*
X149039290Y-124237779D01*
X149059807Y-124225482D01*
X149081431Y-124215254D01*
X149103953Y-124207196D01*
X149127157Y-124201384D01*
X149150818Y-124197874D01*
X149174710Y-124196700D01*
X149662210Y-124196700D01*
X149686102Y-124197874D01*
G37*
G36*
X147811102Y-124197874D02*
G01*
X147834763Y-124201384D01*
X147857967Y-124207196D01*
X147880489Y-124215254D01*
X147902113Y-124225482D01*
X147922630Y-124237779D01*
X147941843Y-124252029D01*
X147959567Y-124268093D01*
X147975631Y-124285817D01*
X147989881Y-124305030D01*
X148002178Y-124325547D01*
X148012406Y-124347171D01*
X148020464Y-124369693D01*
X148026276Y-124392897D01*
X148029786Y-124416558D01*
X148030960Y-124440450D01*
X148030960Y-125352950D01*
X148029786Y-125376842D01*
X148026276Y-125400503D01*
X148020464Y-125423707D01*
X148012406Y-125446229D01*
X148002178Y-125467853D01*
X147989881Y-125488370D01*
X147975631Y-125507583D01*
X147959567Y-125525307D01*
X147941843Y-125541371D01*
X147922630Y-125555621D01*
X147902113Y-125567918D01*
X147880489Y-125578146D01*
X147857967Y-125586204D01*
X147834763Y-125592016D01*
X147811102Y-125595526D01*
X147787210Y-125596700D01*
X147299710Y-125596700D01*
X147275818Y-125595526D01*
X147252157Y-125592016D01*
X147228953Y-125586204D01*
X147206431Y-125578146D01*
X147184807Y-125567918D01*
X147164290Y-125555621D01*
X147145077Y-125541371D01*
X147127353Y-125525307D01*
X147111289Y-125507583D01*
X147097039Y-125488370D01*
X147084742Y-125467853D01*
X147074514Y-125446229D01*
X147066456Y-125423707D01*
X147060644Y-125400503D01*
X147057134Y-125376842D01*
X147055960Y-125352950D01*
X147055960Y-124440450D01*
X147057134Y-124416558D01*
X147060644Y-124392897D01*
X147066456Y-124369693D01*
X147074514Y-124347171D01*
X147084742Y-124325547D01*
X147097039Y-124305030D01*
X147111289Y-124285817D01*
X147127353Y-124268093D01*
X147145077Y-124252029D01*
X147164290Y-124237779D01*
X147184807Y-124225482D01*
X147206431Y-124215254D01*
X147228953Y-124207196D01*
X147252157Y-124201384D01*
X147275818Y-124197874D01*
X147299710Y-124196700D01*
X147787210Y-124196700D01*
X147811102Y-124197874D01*
G37*
G36*
X149686102Y-128197874D02*
G01*
X149709763Y-128201384D01*
X149732967Y-128207196D01*
X149755489Y-128215254D01*
X149777113Y-128225482D01*
X149797630Y-128237779D01*
X149816843Y-128252029D01*
X149834567Y-128268093D01*
X149850631Y-128285817D01*
X149864881Y-128305030D01*
X149877178Y-128325547D01*
X149887406Y-128347171D01*
X149895464Y-128369693D01*
X149901276Y-128392897D01*
X149904786Y-128416558D01*
X149905960Y-128440450D01*
X149905960Y-129352950D01*
X149904786Y-129376842D01*
X149901276Y-129400503D01*
X149895464Y-129423707D01*
X149887406Y-129446229D01*
X149877178Y-129467853D01*
X149864881Y-129488370D01*
X149850631Y-129507583D01*
X149834567Y-129525307D01*
X149816843Y-129541371D01*
X149797630Y-129555621D01*
X149777113Y-129567918D01*
X149755489Y-129578146D01*
X149732967Y-129586204D01*
X149709763Y-129592016D01*
X149686102Y-129595526D01*
X149662210Y-129596700D01*
X149174710Y-129596700D01*
X149150818Y-129595526D01*
X149127157Y-129592016D01*
X149103953Y-129586204D01*
X149081431Y-129578146D01*
X149059807Y-129567918D01*
X149039290Y-129555621D01*
X149020077Y-129541371D01*
X149002353Y-129525307D01*
X148986289Y-129507583D01*
X148972039Y-129488370D01*
X148959742Y-129467853D01*
X148949514Y-129446229D01*
X148941456Y-129423707D01*
X148935644Y-129400503D01*
X148932134Y-129376842D01*
X148930960Y-129352950D01*
X148930960Y-128440450D01*
X148932134Y-128416558D01*
X148935644Y-128392897D01*
X148941456Y-128369693D01*
X148949514Y-128347171D01*
X148959742Y-128325547D01*
X148972039Y-128305030D01*
X148986289Y-128285817D01*
X149002353Y-128268093D01*
X149020077Y-128252029D01*
X149039290Y-128237779D01*
X149059807Y-128225482D01*
X149081431Y-128215254D01*
X149103953Y-128207196D01*
X149127157Y-128201384D01*
X149150818Y-128197874D01*
X149174710Y-128196700D01*
X149662210Y-128196700D01*
X149686102Y-128197874D01*
G37*
G36*
X147811102Y-128197874D02*
G01*
X147834763Y-128201384D01*
X147857967Y-128207196D01*
X147880489Y-128215254D01*
X147902113Y-128225482D01*
X147922630Y-128237779D01*
X147941843Y-128252029D01*
X147959567Y-128268093D01*
X147975631Y-128285817D01*
X147989881Y-128305030D01*
X148002178Y-128325547D01*
X148012406Y-128347171D01*
X148020464Y-128369693D01*
X148026276Y-128392897D01*
X148029786Y-128416558D01*
X148030960Y-128440450D01*
X148030960Y-129352950D01*
X148029786Y-129376842D01*
X148026276Y-129400503D01*
X148020464Y-129423707D01*
X148012406Y-129446229D01*
X148002178Y-129467853D01*
X147989881Y-129488370D01*
X147975631Y-129507583D01*
X147959567Y-129525307D01*
X147941843Y-129541371D01*
X147922630Y-129555621D01*
X147902113Y-129567918D01*
X147880489Y-129578146D01*
X147857967Y-129586204D01*
X147834763Y-129592016D01*
X147811102Y-129595526D01*
X147787210Y-129596700D01*
X147299710Y-129596700D01*
X147275818Y-129595526D01*
X147252157Y-129592016D01*
X147228953Y-129586204D01*
X147206431Y-129578146D01*
X147184807Y-129567918D01*
X147164290Y-129555621D01*
X147145077Y-129541371D01*
X147127353Y-129525307D01*
X147111289Y-129507583D01*
X147097039Y-129488370D01*
X147084742Y-129467853D01*
X147074514Y-129446229D01*
X147066456Y-129423707D01*
X147060644Y-129400503D01*
X147057134Y-129376842D01*
X147055960Y-129352950D01*
X147055960Y-128440450D01*
X147057134Y-128416558D01*
X147060644Y-128392897D01*
X147066456Y-128369693D01*
X147074514Y-128347171D01*
X147084742Y-128325547D01*
X147097039Y-128305030D01*
X147111289Y-128285817D01*
X147127353Y-128268093D01*
X147145077Y-128252029D01*
X147164290Y-128237779D01*
X147184807Y-128225482D01*
X147206431Y-128215254D01*
X147228953Y-128207196D01*
X147252157Y-128201384D01*
X147275818Y-128197874D01*
X147299710Y-128196700D01*
X147787210Y-128196700D01*
X147811102Y-128197874D01*
G37*
M02*
