G04 #@! TF.GenerationSoftware,KiCad,Pcbnew,(6.0.8)*
G04 #@! TF.CreationDate,2023-01-06T14:50:39-06:00*
G04 #@! TF.ProjectId,Controls-LightingPCB,436f6e74-726f-46c7-932d-4c6967687469,rev?*
G04 #@! TF.SameCoordinates,Original*
G04 #@! TF.FileFunction,Soldermask,Top*
G04 #@! TF.FilePolarity,Negative*
%FSLAX46Y46*%
G04 Gerber Fmt 4.6, Leading zero omitted, Abs format (unit mm)*
G04 Created by KiCad (PCBNEW (6.0.8)) date 2023-01-06 14:50:39*
%MOMM*%
%LPD*%
G01*
G04 APERTURE LIST*
G04 Aperture macros list*
%AMRoundRect*
0 Rectangle with rounded corners*
0 $1 Rounding radius*
0 $2 $3 $4 $5 $6 $7 $8 $9 X,Y pos of 4 corners*
0 Add a 4 corners polygon primitive as box body*
4,1,4,$2,$3,$4,$5,$6,$7,$8,$9,$2,$3,0*
0 Add four circle primitives for the rounded corners*
1,1,$1+$1,$2,$3*
1,1,$1+$1,$4,$5*
1,1,$1+$1,$6,$7*
1,1,$1+$1,$8,$9*
0 Add four rect primitives between the rounded corners*
20,1,$1+$1,$2,$3,$4,$5,0*
20,1,$1+$1,$4,$5,$6,$7,0*
20,1,$1+$1,$6,$7,$8,$9,0*
20,1,$1+$1,$8,$9,$2,$3,0*%
G04 Aperture macros list end*
%ADD10C,1.372000*%
%ADD11RoundRect,0.301001X0.759999X-0.499999X0.759999X0.499999X-0.759999X0.499999X-0.759999X-0.499999X0*%
%ADD12O,2.122000X1.602000*%
%ADD13RoundRect,0.301000X-0.450000X0.262500X-0.450000X-0.262500X0.450000X-0.262500X0.450000X0.262500X0*%
%ADD14C,3.102000*%
%ADD15RoundRect,0.301000X0.450000X-0.262500X0.450000X0.262500X-0.450000X0.262500X-0.450000X-0.262500X0*%
%ADD16RoundRect,0.301000X0.262500X0.450000X-0.262500X0.450000X-0.262500X-0.450000X0.262500X-0.450000X0*%
%ADD17RoundRect,0.051000X-0.600000X0.450000X-0.600000X-0.450000X0.600000X-0.450000X0.600000X0.450000X0*%
%ADD18RoundRect,0.269750X0.381250X-0.218750X0.381250X0.218750X-0.381250X0.218750X-0.381250X-0.218750X0*%
%ADD19RoundRect,0.301000X-0.475000X0.250000X-0.475000X-0.250000X0.475000X-0.250000X0.475000X0.250000X0*%
%ADD20RoundRect,0.051000X-0.750000X-0.750000X0.750000X-0.750000X0.750000X0.750000X-0.750000X0.750000X0*%
%ADD21RoundRect,0.301000X0.475000X-0.250000X0.475000X0.250000X-0.475000X0.250000X-0.475000X-0.250000X0*%
%ADD22RoundRect,0.201000X-0.150000X0.587500X-0.150000X-0.587500X0.150000X-0.587500X0.150000X0.587500X0*%
%ADD23RoundRect,0.294750X-0.456250X0.243750X-0.456250X-0.243750X0.456250X-0.243750X0.456250X0.243750X0*%
%ADD24RoundRect,0.051000X0.750000X-0.750000X0.750000X0.750000X-0.750000X0.750000X-0.750000X-0.750000X0*%
%ADD25RoundRect,0.051000X-0.750000X0.750000X-0.750000X-0.750000X0.750000X-0.750000X0.750000X0.750000X0*%
%ADD26RoundRect,0.301001X-0.759999X0.499999X-0.759999X-0.499999X0.759999X-0.499999X0.759999X0.499999X0*%
%ADD27RoundRect,0.051000X1.600000X1.600000X-1.600000X1.600000X-1.600000X-1.600000X1.600000X-1.600000X0*%
%ADD28O,3.302000X3.302000*%
%ADD29RoundRect,0.051000X-0.300000X-0.225000X0.300000X-0.225000X0.300000X0.225000X-0.300000X0.225000X0*%
%ADD30RoundRect,0.301001X0.499999X0.759999X-0.499999X0.759999X-0.499999X-0.759999X0.499999X-0.759999X0*%
%ADD31O,1.602000X2.122000*%
%ADD32RoundRect,0.201000X-0.825000X-0.150000X0.825000X-0.150000X0.825000X0.150000X-0.825000X0.150000X0*%
%ADD33RoundRect,0.301001X-0.499999X-0.759999X0.499999X-0.759999X0.499999X0.759999X-0.499999X0.759999X0*%
%ADD34RoundRect,0.051000X0.750000X-1.000000X0.750000X1.000000X-0.750000X1.000000X-0.750000X-1.000000X0*%
%ADD35RoundRect,0.051000X1.900000X-1.000000X1.900000X1.000000X-1.900000X1.000000X-1.900000X-1.000000X0*%
%ADD36RoundRect,0.301000X-0.250000X-0.475000X0.250000X-0.475000X0.250000X0.475000X-0.250000X0.475000X0*%
%ADD37RoundRect,0.294750X0.243750X0.456250X-0.243750X0.456250X-0.243750X-0.456250X0.243750X-0.456250X0*%
%ADD38RoundRect,0.269750X-0.218750X-0.381250X0.218750X-0.381250X0.218750X0.381250X-0.218750X0.381250X0*%
%ADD39RoundRect,0.051000X0.225000X-0.300000X0.225000X0.300000X-0.225000X0.300000X-0.225000X-0.300000X0*%
%ADD40RoundRect,0.269750X0.218750X0.381250X-0.218750X0.381250X-0.218750X-0.381250X0.218750X-0.381250X0*%
G04 APERTURE END LIST*
D10*
X110585000Y-116734000D03*
X110585000Y-101734000D03*
D11*
X112545000Y-113734000D03*
D12*
X112545000Y-110734000D03*
X112545000Y-107734000D03*
X112545000Y-104734000D03*
D13*
X120710000Y-82571500D03*
X120710000Y-84396500D03*
D14*
X112014000Y-48006000D03*
D15*
X171460000Y-130396500D03*
X171460000Y-128571500D03*
D16*
X171872500Y-71234000D03*
X170047500Y-71234000D03*
D17*
X118210000Y-67834000D03*
X118210000Y-71134000D03*
D18*
X127960000Y-76796500D03*
X127960000Y-74671500D03*
D19*
X137960000Y-97784000D03*
X137960000Y-99684000D03*
D20*
X154680000Y-102994000D03*
D18*
X123950000Y-128886500D03*
X123950000Y-126761500D03*
D16*
X171872500Y-82734000D03*
X170047500Y-82734000D03*
D13*
X137460000Y-55071500D03*
X137460000Y-56896500D03*
D15*
X165960000Y-59646500D03*
X165960000Y-57821500D03*
D21*
X151210000Y-103014000D03*
X151210000Y-101114000D03*
D22*
X128660000Y-58546500D03*
X126760000Y-58546500D03*
X127710000Y-60421500D03*
D23*
X138490000Y-86565500D03*
X138490000Y-88440500D03*
D24*
X123210000Y-78484000D03*
D25*
X124960000Y-55984000D03*
D10*
X179160000Y-134454000D03*
X179160000Y-125454000D03*
D26*
X177200000Y-128454000D03*
D12*
X177200000Y-131454000D03*
D27*
X150580000Y-118984000D03*
D28*
X135340000Y-118984000D03*
D21*
X138470000Y-84793000D03*
X138470000Y-82893000D03*
D17*
X118210000Y-58334000D03*
X118210000Y-61634000D03*
D22*
X122660000Y-58546500D03*
X120760000Y-58546500D03*
X121710000Y-60421500D03*
D29*
X139960000Y-60284000D03*
X142060000Y-60284000D03*
D14*
X145720000Y-135994000D03*
X126020000Y-135994000D03*
D30*
X147870000Y-131674000D03*
D31*
X144870000Y-131674000D03*
X141870000Y-131674000D03*
X138870000Y-131674000D03*
X135870000Y-131674000D03*
X132870000Y-131674000D03*
X129870000Y-131674000D03*
X126870000Y-131674000D03*
X123870000Y-131674000D03*
D16*
X171872500Y-59484000D03*
X170047500Y-59484000D03*
D19*
X164441250Y-120371500D03*
X164441250Y-122271500D03*
D15*
X161210000Y-132646500D03*
X161210000Y-130821500D03*
D22*
X158910000Y-55796500D03*
X157010000Y-55796500D03*
X157960000Y-57671500D03*
D19*
X141460000Y-89293000D03*
X141460000Y-91193000D03*
D13*
X123710000Y-108821500D03*
X123710000Y-110646500D03*
X153610000Y-83580500D03*
X153610000Y-85405500D03*
D25*
X162210000Y-59234000D03*
D14*
X177800000Y-48006000D03*
D10*
X179085000Y-56544000D03*
X179085000Y-65544000D03*
D26*
X177125000Y-59544000D03*
D12*
X177125000Y-62544000D03*
D19*
X118440000Y-93724000D03*
X118440000Y-95624000D03*
D10*
X179085000Y-100064666D03*
X179085000Y-91064666D03*
D26*
X177125000Y-94064666D03*
D12*
X177125000Y-97064666D03*
D32*
X141543000Y-83587000D03*
X141543000Y-84857000D03*
X141543000Y-86127000D03*
X141543000Y-87397000D03*
X146493000Y-87397000D03*
X146493000Y-86127000D03*
X146493000Y-84857000D03*
X146493000Y-83587000D03*
D10*
X161000000Y-46869000D03*
X152000000Y-46869000D03*
D33*
X155000000Y-48829000D03*
D31*
X158000000Y-48829000D03*
D10*
X129510000Y-46884000D03*
X138510000Y-46884000D03*
D33*
X132510000Y-48844000D03*
D31*
X135510000Y-48844000D03*
D10*
X110585000Y-77154000D03*
X110585000Y-68154000D03*
D11*
X112545000Y-74154000D03*
D12*
X112545000Y-71154000D03*
D10*
X110600000Y-53744000D03*
X110600000Y-65744000D03*
D11*
X112560000Y-62744000D03*
D12*
X112560000Y-59744000D03*
X112560000Y-56744000D03*
D14*
X112014000Y-138684000D03*
D13*
X118040000Y-122981500D03*
X118040000Y-124806500D03*
D10*
X163710000Y-46859000D03*
X172710000Y-46859000D03*
D33*
X166710000Y-48819000D03*
D31*
X169710000Y-48819000D03*
D10*
X110585000Y-127734000D03*
X110585000Y-118734000D03*
D11*
X112545000Y-124734000D03*
D12*
X112545000Y-121734000D03*
D25*
X125710000Y-65484000D03*
D34*
X142680000Y-102904000D03*
X144980000Y-102904000D03*
D35*
X144980000Y-96604000D03*
D34*
X147280000Y-102904000D03*
D10*
X110585000Y-99694000D03*
X110585000Y-90694000D03*
D11*
X112545000Y-96694000D03*
D12*
X112545000Y-93694000D03*
D10*
X179085000Y-113994000D03*
X179085000Y-122994000D03*
D26*
X177125000Y-116994000D03*
D12*
X177125000Y-119994000D03*
D15*
X149500000Y-86675500D03*
X149500000Y-84850500D03*
D18*
X158050000Y-105106500D03*
X158050000Y-102981500D03*
D10*
X140880000Y-46904000D03*
X149880000Y-46904000D03*
D33*
X143880000Y-48864000D03*
D31*
X146880000Y-48864000D03*
D16*
X171872500Y-93984000D03*
X170047500Y-93984000D03*
D10*
X179085000Y-88724000D03*
X179085000Y-79724000D03*
D26*
X177125000Y-82724000D03*
D12*
X177125000Y-85724000D03*
D22*
X128660000Y-68046500D03*
X126760000Y-68046500D03*
X127710000Y-69921500D03*
D16*
X120122500Y-65234000D03*
X118297500Y-65234000D03*
D10*
X179085000Y-102584000D03*
X179085000Y-111584000D03*
D26*
X177125000Y-105584000D03*
D12*
X177125000Y-108584000D03*
D10*
X126810000Y-46814000D03*
X117810000Y-46814000D03*
D33*
X120810000Y-48774000D03*
D31*
X123810000Y-48774000D03*
D16*
X119872500Y-55984000D03*
X118047500Y-55984000D03*
D21*
X120960000Y-124884000D03*
X120960000Y-122984000D03*
X144870000Y-128714000D03*
X144870000Y-126814000D03*
D19*
X117906000Y-82537500D03*
X117906000Y-84437500D03*
D13*
X117910000Y-108859000D03*
X117910000Y-110684000D03*
D16*
X144962500Y-79834000D03*
X143137500Y-79834000D03*
D36*
X149270000Y-88573000D03*
X151170000Y-88573000D03*
D27*
X149700000Y-66924000D03*
D28*
X134460000Y-66924000D03*
D15*
X162710000Y-66896500D03*
X162710000Y-65071500D03*
D20*
X133960000Y-97734000D03*
D37*
X144987500Y-76913000D03*
X143112500Y-76913000D03*
D15*
X168724000Y-130418167D03*
X168724000Y-128593167D03*
D20*
X158460000Y-66984000D03*
D38*
X153147500Y-66984000D03*
X155272500Y-66984000D03*
D22*
X122910000Y-68046500D03*
X121010000Y-68046500D03*
X121960000Y-69921500D03*
D19*
X120900000Y-108871500D03*
X120900000Y-110771500D03*
D21*
X165910000Y-130524000D03*
X165910000Y-128624000D03*
D39*
X129370000Y-128844000D03*
X129370000Y-126744000D03*
D20*
X123210000Y-74234000D03*
D10*
X179085000Y-68234000D03*
X179085000Y-77234000D03*
D26*
X177125000Y-71234000D03*
D12*
X177125000Y-74234000D03*
D13*
X167441250Y-120409000D03*
X167441250Y-122234000D03*
D15*
X121460000Y-95646500D03*
X121460000Y-93821500D03*
D14*
X177800000Y-138684000D03*
D13*
X170460000Y-120321500D03*
X170460000Y-122146500D03*
X145210000Y-55071500D03*
X145210000Y-56896500D03*
D10*
X158220000Y-139954000D03*
X167220000Y-139954000D03*
D30*
X164220000Y-137994000D03*
D31*
X161220000Y-137994000D03*
D40*
X134682500Y-60394000D03*
X132557500Y-60394000D03*
D10*
X110540000Y-79531713D03*
X110540000Y-88531713D03*
D11*
X112500000Y-85531713D03*
D12*
X112500000Y-82531713D03*
D20*
X154740000Y-98644000D03*
M02*
