M48
; DRILL file {KiCad (6.0.8)} date Fri Jan  6 14:53:23 2023
; FORMAT={-:-/ absolute / inch / decimal}
; #@! TF.CreationDate,2023-01-06T14:53:23-06:00
; #@! TF.GenerationSoftware,Kicad,Pcbnew,(6.0.8)
; #@! TF.FileFunction,NonPlated,1,2,NPTH
FMAT,2
INCH
; #@! TA.AperFunction,NonPlated,NPTH,ComponentDrill
T1C0.0500
; #@! TA.AperFunction,NonPlated,NPTH,ComponentDrill
T2C0.1181
%
G90
G05
T1
X4.352Y-3.1312
X4.352Y-3.4855
X4.3537Y-2.6832
X4.3537Y-3.0376
X4.3537Y-3.5706
X4.3537Y-3.925
X4.3537Y-4.0053
X4.3537Y-4.5958
X4.3537Y-4.6746
X4.3537Y-5.0289
X4.3543Y-2.1159
X4.3543Y-2.5883
X4.6382Y-1.8431
X4.9925Y-1.8431
X5.0988Y-1.8458
X5.4531Y-1.8458
X5.5465Y-1.8466
X5.9008Y-1.8466
X5.9843Y-1.8452
X6.2291Y-5.51
X6.3386Y-1.8452
X6.4453Y-1.8448
X6.5835Y-5.51
X6.7996Y-1.8448
X7.0506Y-2.2261
X7.0506Y-2.5805
X7.0506Y-2.6864
X7.0506Y-3.0407
X7.0506Y-3.1387
X7.0506Y-3.4931
X7.0506Y-3.5852
X7.0506Y-3.9396
X7.0506Y-4.0387
X7.0506Y-4.3931
X7.0506Y-4.488
X7.0506Y-4.8423
X7.0535Y-4.9391
X7.0535Y-5.2935
T2
X4.41Y-1.89
X4.41Y-5.46
X4.9614Y-5.3541
X5.737Y-5.3541
X7.0Y-1.89
X7.0Y-5.46
T0
M30
