M48
; DRILL file {KiCad 7.0.2} date Wed Aug 23 15:51:20 2023
; FORMAT={-:-/ absolute / inch / decimal}
; #@! TF.CreationDate,2023-08-23T15:51:20-05:00
; #@! TF.GenerationSoftware,Kicad,Pcbnew,7.0.2
; #@! TF.FileFunction,Plated,1,2,PTH
FMAT,2
INCH
; #@! TA.AperFunction,Plated,PTH,ViaDrill
T1C0.0118
; #@! TA.AperFunction,Plated,PTH,ViaDrill
T2C0.0157
; #@! TA.AperFunction,Plated,PTH,ViaDrill
T3C0.0197
; #@! TA.AperFunction,Plated,PTH,ViaDrill
T4C0.0315
; #@! TA.AperFunction,Plated,PTH,ComponentDrill
T5C0.0402
%
G90
G05
T1
X4.6457Y-2.126
X4.6457Y-2.4409
X4.6457Y-2.7559
X4.6457Y-3.0709
X4.6457Y-3.3858
X4.6457Y-3.7795
X4.6457Y-4.0157
X4.6457Y-4.6457
X4.6457Y-4.9606
X4.6457Y-5.2756
X4.8819Y-2.3425
X4.8819Y-2.5787
X4.905Y-3.248
X4.905Y-3.6811
X4.905Y-4.7835
X4.9114Y-3.189
X4.9606Y-2.126
X4.9606Y-4.6555
X4.9606Y-5.0197
X4.9606Y-5.3543
X4.9705Y-3.5531
X5.0689Y-3.9173
X5.0787Y-2.126
X5.0984Y-2.7559
X5.1083Y-3.5728
X5.1083Y-4.5866
X5.1181Y-3.7795
X5.1378Y-2.185
X5.1476Y-4.1929
X5.1575Y-2.2244
X5.1969Y-3.622
X5.1969Y-4.3701
X5.2362Y-2.5984
X5.2756Y-2.126
X5.2756Y-2.7559
X5.2756Y-3.0709
X5.2756Y-4.0157
X5.2756Y-5.3543
X5.3543Y-3.622
X5.3543Y-3.7795
X5.3543Y-4.0945
X5.3543Y-4.3307
X5.5273Y-3.9879
X5.5512Y-2.3228
X5.5738Y-3.8848
X5.5906Y-2.126
X5.5906Y-4.0945
X5.5906Y-4.3307
X5.5906Y-4.6457
X5.5906Y-4.9606
X5.5906Y-5.2756
X5.6102Y-2.7756
X5.6102Y-3.1496
X5.6417Y-4.126
X6.2205Y-2.126
X6.5354Y-2.126
X6.6535Y-4.0551
X6.8504Y-2.126
T2
X5.1772Y-5.2559
X5.2165Y-2.4606
X5.2362Y-2.4016
X5.3839Y-4.9606
X5.4724Y-3.376
X5.4724Y-3.7992
T3
X6.6142Y-3.4646
T4
X6.1811Y-2.9921
X6.2008Y-2.3622
X6.2008Y-3.3465
X6.2008Y-3.6417
X6.2008Y-4.0354
X6.2008Y-4.4291
X6.2008Y-4.8228
X6.2008Y-5.1181
X6.4173Y-2.6772
X6.4173Y-2.7559
X6.4173Y-2.8346
X6.5354Y-2.6772
X6.5354Y-2.7559
X6.5354Y-2.8346
X6.5945Y-2.3622
X6.5945Y-4.8228
X6.5945Y-5.1181
X6.6142Y-2.9921
X6.6142Y-3.1496
X6.7677Y-4.2362
X6.7756Y-3.3819
X7.0866Y-2.6575
X7.0866Y-3.1496
X7.0866Y-3.5433
X7.0866Y-4.0354
X7.0866Y-4.4291
X7.0866Y-4.8228
T5
X4.4488Y-2.2638
X4.4488Y-2.3819
X4.4488Y-2.5
X4.4488Y-2.815
X4.4488Y-2.9331
X4.4488Y-3.248
X4.4488Y-3.3661
X4.4488Y-3.6811
X4.4488Y-3.7992
X4.4488Y-4.1142
X4.4488Y-4.2323
X4.4488Y-4.3504
X4.4488Y-4.4685
X4.4488Y-4.7835
X4.4488Y-4.9016
X4.7638Y-5.1969
X4.7835Y-1.9291
X4.8819Y-5.1969
X4.9016Y-1.9291
X5.0Y-5.1969
X5.1181Y-5.1969
X5.2165Y-1.9291
X5.2362Y-5.1969
X5.3346Y-1.9291
X5.3543Y-5.1969
X5.4724Y-5.1969
X5.5906Y-5.1969
X5.6496Y-1.9291
X5.7087Y-5.1969
X5.7677Y-1.9291
X6.0827Y-1.9276
X6.0827Y-5.4331
X6.2008Y-1.9276
X6.2008Y-5.4331
X6.5157Y-1.9291
X6.5157Y-5.4331
X6.6339Y-1.9291
X6.6339Y-5.4331
X6.9685Y-2.2638
X6.9685Y-2.3819
X6.9685Y-2.6969
X6.9685Y-2.815
X6.9685Y-3.1299
X6.9685Y-3.248
X6.9685Y-3.563
X6.9685Y-3.6811
X6.9685Y-3.9961
X6.9685Y-4.1142
X6.9685Y-4.4291
X6.9685Y-4.5472
X6.9685Y-4.8622
X6.9685Y-4.9803
T0
M30
