G04 #@! TF.GenerationSoftware,KiCad,Pcbnew,(6.0.8)*
G04 #@! TF.CreationDate,2023-01-06T14:50:38-06:00*
G04 #@! TF.ProjectId,Controls-LightingPCB,436f6e74-726f-46c7-932d-4c6967687469,rev?*
G04 #@! TF.SameCoordinates,Original*
G04 #@! TF.FileFunction,Paste,Top*
G04 #@! TF.FilePolarity,Positive*
%FSLAX46Y46*%
G04 Gerber Fmt 4.6, Leading zero omitted, Abs format (unit mm)*
G04 Created by KiCad (PCBNEW (6.0.8)) date 2023-01-06 14:50:38*
%MOMM*%
%LPD*%
G01*
G04 APERTURE LIST*
G04 Aperture macros list*
%AMRoundRect*
0 Rectangle with rounded corners*
0 $1 Rounding radius*
0 $2 $3 $4 $5 $6 $7 $8 $9 X,Y pos of 4 corners*
0 Add a 4 corners polygon primitive as box body*
4,1,4,$2,$3,$4,$5,$6,$7,$8,$9,$2,$3,0*
0 Add four circle primitives for the rounded corners*
1,1,$1+$1,$2,$3*
1,1,$1+$1,$4,$5*
1,1,$1+$1,$6,$7*
1,1,$1+$1,$8,$9*
0 Add four rect primitives between the rounded corners*
20,1,$1+$1,$2,$3,$4,$5,0*
20,1,$1+$1,$4,$5,$6,$7,0*
20,1,$1+$1,$6,$7,$8,$9,0*
20,1,$1+$1,$8,$9,$2,$3,0*%
G04 Aperture macros list end*
%ADD10RoundRect,0.250000X-0.450000X0.262500X-0.450000X-0.262500X0.450000X-0.262500X0.450000X0.262500X0*%
%ADD11RoundRect,0.250000X0.450000X-0.262500X0.450000X0.262500X-0.450000X0.262500X-0.450000X-0.262500X0*%
%ADD12RoundRect,0.250000X0.262500X0.450000X-0.262500X0.450000X-0.262500X-0.450000X0.262500X-0.450000X0*%
%ADD13R,1.200000X0.900000*%
%ADD14RoundRect,0.218750X0.381250X-0.218750X0.381250X0.218750X-0.381250X0.218750X-0.381250X-0.218750X0*%
%ADD15RoundRect,0.250000X-0.475000X0.250000X-0.475000X-0.250000X0.475000X-0.250000X0.475000X0.250000X0*%
%ADD16RoundRect,0.250000X0.475000X-0.250000X0.475000X0.250000X-0.475000X0.250000X-0.475000X-0.250000X0*%
%ADD17RoundRect,0.150000X-0.150000X0.587500X-0.150000X-0.587500X0.150000X-0.587500X0.150000X0.587500X0*%
%ADD18RoundRect,0.243750X-0.456250X0.243750X-0.456250X-0.243750X0.456250X-0.243750X0.456250X0.243750X0*%
%ADD19R,0.600000X0.450000*%
%ADD20RoundRect,0.150000X-0.825000X-0.150000X0.825000X-0.150000X0.825000X0.150000X-0.825000X0.150000X0*%
%ADD21R,1.500000X2.000000*%
%ADD22R,3.800000X2.000000*%
%ADD23RoundRect,0.250000X-0.250000X-0.475000X0.250000X-0.475000X0.250000X0.475000X-0.250000X0.475000X0*%
%ADD24RoundRect,0.243750X0.243750X0.456250X-0.243750X0.456250X-0.243750X-0.456250X0.243750X-0.456250X0*%
%ADD25RoundRect,0.218750X-0.218750X-0.381250X0.218750X-0.381250X0.218750X0.381250X-0.218750X0.381250X0*%
%ADD26R,0.450000X0.600000*%
%ADD27RoundRect,0.218750X0.218750X0.381250X-0.218750X0.381250X-0.218750X-0.381250X0.218750X-0.381250X0*%
G04 APERTURE END LIST*
D10*
X120710000Y-82571500D03*
X120710000Y-84396500D03*
D11*
X171460000Y-130396500D03*
X171460000Y-128571500D03*
D12*
X171872500Y-71234000D03*
X170047500Y-71234000D03*
D13*
X118210000Y-67834000D03*
X118210000Y-71134000D03*
D14*
X127960000Y-76796500D03*
X127960000Y-74671500D03*
D15*
X137960000Y-97784000D03*
X137960000Y-99684000D03*
D14*
X123950000Y-128886500D03*
X123950000Y-126761500D03*
D12*
X171872500Y-82734000D03*
X170047500Y-82734000D03*
D10*
X137460000Y-55071500D03*
X137460000Y-56896500D03*
D11*
X165960000Y-59646500D03*
X165960000Y-57821500D03*
D16*
X151210000Y-103014000D03*
X151210000Y-101114000D03*
D17*
X128660000Y-58546500D03*
X126760000Y-58546500D03*
X127710000Y-60421500D03*
D18*
X138490000Y-86565500D03*
X138490000Y-88440500D03*
D16*
X138470000Y-84793000D03*
X138470000Y-82893000D03*
D13*
X118210000Y-58334000D03*
X118210000Y-61634000D03*
D17*
X122660000Y-58546500D03*
X120760000Y-58546500D03*
X121710000Y-60421500D03*
D19*
X139960000Y-60284000D03*
X142060000Y-60284000D03*
D12*
X171872500Y-59484000D03*
X170047500Y-59484000D03*
D15*
X164441250Y-120371500D03*
X164441250Y-122271500D03*
D11*
X161210000Y-132646500D03*
X161210000Y-130821500D03*
D17*
X158910000Y-55796500D03*
X157010000Y-55796500D03*
X157960000Y-57671500D03*
D15*
X141460000Y-89293000D03*
X141460000Y-91193000D03*
D10*
X123710000Y-108821500D03*
X123710000Y-110646500D03*
X153610000Y-83580500D03*
X153610000Y-85405500D03*
D15*
X118440000Y-93724000D03*
X118440000Y-95624000D03*
D20*
X141543000Y-83587000D03*
X141543000Y-84857000D03*
X141543000Y-86127000D03*
X141543000Y-87397000D03*
X146493000Y-87397000D03*
X146493000Y-86127000D03*
X146493000Y-84857000D03*
X146493000Y-83587000D03*
D10*
X118040000Y-122981500D03*
X118040000Y-124806500D03*
D21*
X142680000Y-102904000D03*
X144980000Y-102904000D03*
D22*
X144980000Y-96604000D03*
D21*
X147280000Y-102904000D03*
D11*
X149500000Y-86675500D03*
X149500000Y-84850500D03*
D14*
X158050000Y-105106500D03*
X158050000Y-102981500D03*
D12*
X171872500Y-93984000D03*
X170047500Y-93984000D03*
D17*
X128660000Y-68046500D03*
X126760000Y-68046500D03*
X127710000Y-69921500D03*
D12*
X120122500Y-65234000D03*
X118297500Y-65234000D03*
X119872500Y-55984000D03*
X118047500Y-55984000D03*
D16*
X120960000Y-124884000D03*
X120960000Y-122984000D03*
X144870000Y-128714000D03*
X144870000Y-126814000D03*
D15*
X117906000Y-82537500D03*
X117906000Y-84437500D03*
D10*
X117910000Y-108859000D03*
X117910000Y-110684000D03*
D12*
X144962500Y-79834000D03*
X143137500Y-79834000D03*
D23*
X149270000Y-88573000D03*
X151170000Y-88573000D03*
D11*
X162710000Y-66896500D03*
X162710000Y-65071500D03*
D24*
X144987500Y-76913000D03*
X143112500Y-76913000D03*
D11*
X168724000Y-130418167D03*
X168724000Y-128593167D03*
D25*
X153147500Y-66984000D03*
X155272500Y-66984000D03*
D17*
X122910000Y-68046500D03*
X121010000Y-68046500D03*
X121960000Y-69921500D03*
D15*
X120900000Y-108871500D03*
X120900000Y-110771500D03*
D16*
X165910000Y-130524000D03*
X165910000Y-128624000D03*
D26*
X129370000Y-128844000D03*
X129370000Y-126744000D03*
D10*
X167441250Y-120409000D03*
X167441250Y-122234000D03*
D11*
X121460000Y-95646500D03*
X121460000Y-93821500D03*
D10*
X170460000Y-120321500D03*
X170460000Y-122146500D03*
X145210000Y-55071500D03*
X145210000Y-56896500D03*
D27*
X134682500Y-60394000D03*
X132557500Y-60394000D03*
M02*
