G04 #@! TF.GenerationSoftware,KiCad,Pcbnew,(6.0.7)*
G04 #@! TF.CreationDate,2023-02-02T11:52:21-06:00*
G04 #@! TF.ProjectId,Controls-LightingPCB,436f6e74-726f-46c7-932d-4c6967687469,rev?*
G04 #@! TF.SameCoordinates,Original*
G04 #@! TF.FileFunction,Soldermask,Top*
G04 #@! TF.FilePolarity,Negative*
%FSLAX46Y46*%
G04 Gerber Fmt 4.6, Leading zero omitted, Abs format (unit mm)*
G04 Created by KiCad (PCBNEW (6.0.7)) date 2023-02-02 11:52:21*
%MOMM*%
%LPD*%
G01*
G04 APERTURE LIST*
G04 Aperture macros list*
%AMRoundRect*
0 Rectangle with rounded corners*
0 $1 Rounding radius*
0 $2 $3 $4 $5 $6 $7 $8 $9 X,Y pos of 4 corners*
0 Add a 4 corners polygon primitive as box body*
4,1,4,$2,$3,$4,$5,$6,$7,$8,$9,$2,$3,0*
0 Add four circle primitives for the rounded corners*
1,1,$1+$1,$2,$3*
1,1,$1+$1,$4,$5*
1,1,$1+$1,$6,$7*
1,1,$1+$1,$8,$9*
0 Add four rect primitives between the rounded corners*
20,1,$1+$1,$2,$3,$4,$5,0*
20,1,$1+$1,$4,$5,$6,$7,0*
20,1,$1+$1,$6,$7,$8,$9,0*
20,1,$1+$1,$8,$9,$2,$3,0*%
G04 Aperture macros list end*
%ADD10C,1.372000*%
%ADD11RoundRect,0.301001X0.759999X-0.499999X0.759999X0.499999X-0.759999X0.499999X-0.759999X-0.499999X0*%
%ADD12O,2.122000X1.602000*%
%ADD13C,3.102000*%
%ADD14RoundRect,0.301000X0.262500X0.450000X-0.262500X0.450000X-0.262500X-0.450000X0.262500X-0.450000X0*%
%ADD15RoundRect,0.301000X-0.450000X0.262500X-0.450000X-0.262500X0.450000X-0.262500X0.450000X0.262500X0*%
%ADD16RoundRect,0.269750X0.218750X0.381250X-0.218750X0.381250X-0.218750X-0.381250X0.218750X-0.381250X0*%
%ADD17RoundRect,0.301000X0.250000X0.475000X-0.250000X0.475000X-0.250000X-0.475000X0.250000X-0.475000X0*%
%ADD18RoundRect,0.201000X-0.825000X-0.150000X0.825000X-0.150000X0.825000X0.150000X-0.825000X0.150000X0*%
%ADD19RoundRect,0.301000X0.450000X-0.262500X0.450000X0.262500X-0.450000X0.262500X-0.450000X-0.262500X0*%
%ADD20RoundRect,0.301000X-0.262500X-0.450000X0.262500X-0.450000X0.262500X0.450000X-0.262500X0.450000X0*%
%ADD21RoundRect,0.301000X-0.250000X-0.475000X0.250000X-0.475000X0.250000X0.475000X-0.250000X0.475000X0*%
%ADD22RoundRect,0.269750X-0.218750X-0.381250X0.218750X-0.381250X0.218750X0.381250X-0.218750X0.381250X0*%
%ADD23RoundRect,0.051000X-0.500000X-0.500000X0.500000X-0.500000X0.500000X0.500000X-0.500000X0.500000X0*%
%ADD24RoundRect,0.201000X0.587500X0.150000X-0.587500X0.150000X-0.587500X-0.150000X0.587500X-0.150000X0*%
%ADD25RoundRect,0.301001X-0.499999X-0.759999X0.499999X-0.759999X0.499999X0.759999X-0.499999X0.759999X0*%
%ADD26O,1.602000X2.122000*%
%ADD27RoundRect,0.051000X-0.600000X0.450000X-0.600000X-0.450000X0.600000X-0.450000X0.600000X0.450000X0*%
%ADD28RoundRect,0.051000X1.000000X0.750000X-1.000000X0.750000X-1.000000X-0.750000X1.000000X-0.750000X0*%
%ADD29RoundRect,0.051000X1.000000X1.900000X-1.000000X1.900000X-1.000000X-1.900000X1.000000X-1.900000X0*%
%ADD30RoundRect,0.301001X0.499999X0.759999X-0.499999X0.759999X-0.499999X-0.759999X0.499999X-0.759999X0*%
%ADD31RoundRect,0.269750X0.381250X-0.218750X0.381250X0.218750X-0.381250X0.218750X-0.381250X-0.218750X0*%
%ADD32RoundRect,0.051000X0.225000X-0.300000X0.225000X0.300000X-0.225000X0.300000X-0.225000X-0.300000X0*%
%ADD33RoundRect,0.294750X0.243750X0.456250X-0.243750X0.456250X-0.243750X-0.456250X0.243750X-0.456250X0*%
%ADD34RoundRect,0.301001X-0.759999X0.499999X-0.759999X-0.499999X0.759999X-0.499999X0.759999X0.499999X0*%
%ADD35RoundRect,0.051000X0.600000X-0.450000X0.600000X0.450000X-0.600000X0.450000X-0.600000X-0.450000X0*%
%ADD36RoundRect,0.294750X-0.243750X-0.456250X0.243750X-0.456250X0.243750X0.456250X-0.243750X0.456250X0*%
%ADD37RoundRect,0.301000X-0.475000X0.250000X-0.475000X-0.250000X0.475000X-0.250000X0.475000X0.250000X0*%
%ADD38RoundRect,0.051000X-1.600000X-1.600000X1.600000X-1.600000X1.600000X1.600000X-1.600000X1.600000X0*%
%ADD39O,3.302000X3.302000*%
%ADD40RoundRect,0.269750X-0.381250X0.218750X-0.381250X-0.218750X0.381250X-0.218750X0.381250X0.218750X0*%
%ADD41RoundRect,0.051000X-0.750000X-0.750000X0.750000X-0.750000X0.750000X0.750000X-0.750000X0.750000X0*%
%ADD42RoundRect,0.051000X-0.300000X-0.225000X0.300000X-0.225000X0.300000X0.225000X-0.300000X0.225000X0*%
G04 APERTURE END LIST*
D10*
X111040000Y-116500000D03*
X111040000Y-101500000D03*
D11*
X113000000Y-113500000D03*
D12*
X113000000Y-110500000D03*
X113000000Y-107500000D03*
X113000000Y-104500000D03*
D13*
X112014000Y-48006000D03*
D14*
X127912500Y-123000000D03*
X126087500Y-123000000D03*
D15*
X130000000Y-103087500D03*
X130000000Y-104912500D03*
D16*
X135062500Y-120000000D03*
X132937500Y-120000000D03*
D17*
X140950000Y-94000000D03*
X139050000Y-94000000D03*
D14*
X127912500Y-95000000D03*
X126087500Y-95000000D03*
D18*
X130525000Y-62095000D03*
X130525000Y-63365000D03*
X130525000Y-64635000D03*
X130525000Y-65905000D03*
X135475000Y-65905000D03*
X135475000Y-64635000D03*
X135475000Y-63365000D03*
X135475000Y-62095000D03*
D19*
X155000000Y-82912500D03*
X155000000Y-81087500D03*
D15*
X133000000Y-108087500D03*
X133000000Y-109912500D03*
D20*
X140087500Y-61000000D03*
X141912500Y-61000000D03*
D15*
X152000000Y-86087500D03*
X152000000Y-87912500D03*
D20*
X126087500Y-92000000D03*
X127912500Y-92000000D03*
D19*
X155000000Y-92912500D03*
X155000000Y-91087500D03*
D20*
X126087500Y-84000000D03*
X127912500Y-84000000D03*
D21*
X134050000Y-94000000D03*
X135950000Y-94000000D03*
D22*
X132937500Y-126000000D03*
X135062500Y-126000000D03*
D23*
X141000000Y-82000000D03*
D24*
X159937500Y-102950000D03*
X159937500Y-101050000D03*
X158062500Y-102000000D03*
D22*
X143687500Y-104000000D03*
X145812500Y-104000000D03*
D10*
X171500000Y-47040000D03*
X162500000Y-47040000D03*
D25*
X165500000Y-49000000D03*
D26*
X168500000Y-49000000D03*
D15*
X130000000Y-108087500D03*
X130000000Y-109912500D03*
D27*
X148000000Y-80350000D03*
X148000000Y-83650000D03*
D20*
X140087500Y-120000000D03*
X141912500Y-120000000D03*
D28*
X141150000Y-90300000D03*
D29*
X134850000Y-88000000D03*
D28*
X141150000Y-88000000D03*
X141150000Y-85700000D03*
D13*
X142850000Y-136320000D03*
X123150000Y-136320000D03*
D30*
X145000000Y-132000000D03*
D26*
X142000000Y-132000000D03*
X139000000Y-132000000D03*
X136000000Y-132000000D03*
X133000000Y-132000000D03*
X130000000Y-132000000D03*
X127000000Y-132000000D03*
X124000000Y-132000000D03*
X121000000Y-132000000D03*
D20*
X140087500Y-64000000D03*
X141912500Y-64000000D03*
D31*
X152000000Y-72062500D03*
X152000000Y-69937500D03*
D32*
X155000000Y-72050000D03*
X155000000Y-69950000D03*
D21*
X126050000Y-126000000D03*
X127950000Y-126000000D03*
D15*
X152000000Y-106087500D03*
X152000000Y-107912500D03*
D23*
X138000000Y-82000000D03*
D10*
X111040000Y-127500000D03*
X111040000Y-118500000D03*
D11*
X113000000Y-124500000D03*
D12*
X113000000Y-121500000D03*
D24*
X159937500Y-92950000D03*
X159937500Y-91050000D03*
X158062500Y-92000000D03*
X159937500Y-97950000D03*
X159937500Y-96050000D03*
X158062500Y-97000000D03*
D15*
X133000000Y-113087500D03*
X133000000Y-114912500D03*
D33*
X125937500Y-64000000D03*
X124062500Y-64000000D03*
D20*
X126087500Y-120000000D03*
X127912500Y-120000000D03*
D13*
X177800000Y-48006000D03*
D10*
X178960000Y-76500000D03*
X178960000Y-85500000D03*
D34*
X177000000Y-79500000D03*
D12*
X177000000Y-82500000D03*
D23*
X164000000Y-69000000D03*
D10*
X178960000Y-118500000D03*
X178960000Y-109500000D03*
D34*
X177000000Y-112500000D03*
D12*
X177000000Y-115500000D03*
D10*
X178960000Y-129500000D03*
X178960000Y-120500000D03*
D34*
X177000000Y-123500000D03*
D12*
X177000000Y-126500000D03*
D10*
X118500000Y-47040000D03*
X127500000Y-47040000D03*
D25*
X121500000Y-49000000D03*
D26*
X124500000Y-49000000D03*
D10*
X111040000Y-77500000D03*
X111040000Y-68500000D03*
D11*
X113000000Y-74500000D03*
D12*
X113000000Y-71500000D03*
D10*
X111040000Y-54500000D03*
X111040000Y-66500000D03*
D11*
X113000000Y-63500000D03*
D12*
X113000000Y-60500000D03*
X113000000Y-57500000D03*
D35*
X148000000Y-89650000D03*
X148000000Y-86350000D03*
D36*
X140062500Y-123000000D03*
X141937500Y-123000000D03*
D37*
X127000000Y-103050000D03*
X127000000Y-104950000D03*
D13*
X112014000Y-138684000D03*
D10*
X160500000Y-139960000D03*
X151500000Y-139960000D03*
D30*
X157500000Y-138000000D03*
D26*
X154500000Y-138000000D03*
D23*
X135000000Y-82000000D03*
D10*
X171500000Y-139960000D03*
X162500000Y-139960000D03*
D30*
X168500000Y-138000000D03*
D26*
X165500000Y-138000000D03*
D21*
X126050000Y-87000000D03*
X127950000Y-87000000D03*
D37*
X127000000Y-113050000D03*
X127000000Y-114950000D03*
D17*
X125950000Y-67000000D03*
X124050000Y-67000000D03*
D24*
X159937500Y-82950000D03*
X159937500Y-81050000D03*
X158062500Y-82000000D03*
D10*
X111040000Y-99500000D03*
X111040000Y-90500000D03*
D11*
X113000000Y-96500000D03*
D12*
X113000000Y-93500000D03*
D10*
X151500000Y-47040000D03*
X160500000Y-47040000D03*
D25*
X154500000Y-49000000D03*
D26*
X157500000Y-49000000D03*
D10*
X129500000Y-47040000D03*
X138500000Y-47040000D03*
D25*
X132500000Y-49000000D03*
D26*
X135500000Y-49000000D03*
D10*
X178960000Y-96500000D03*
X178960000Y-87500000D03*
D34*
X177000000Y-90500000D03*
D12*
X177000000Y-93500000D03*
D38*
X149000000Y-63000000D03*
D39*
X164240000Y-63000000D03*
D10*
X140500000Y-47040000D03*
X149500000Y-47040000D03*
D25*
X143500000Y-49000000D03*
D26*
X146500000Y-49000000D03*
D10*
X178960000Y-74500000D03*
X178960000Y-65500000D03*
D34*
X177000000Y-68500000D03*
D12*
X177000000Y-71500000D03*
D19*
X152000000Y-102912500D03*
X152000000Y-101087500D03*
D15*
X152000000Y-91087500D03*
X152000000Y-92912500D03*
D40*
X158000000Y-69937500D03*
X158000000Y-72062500D03*
D21*
X140050000Y-67000000D03*
X141950000Y-67000000D03*
D20*
X126087500Y-81000000D03*
X127912500Y-81000000D03*
D41*
X121000000Y-61000000D03*
D15*
X152000000Y-81087500D03*
X152000000Y-82912500D03*
X130000000Y-113087500D03*
X130000000Y-114912500D03*
X133000000Y-103087500D03*
X133000000Y-104912500D03*
D10*
X178960000Y-98500000D03*
X178960000Y-107500000D03*
D34*
X177000000Y-101500000D03*
D12*
X177000000Y-104500000D03*
D42*
X132950000Y-123000000D03*
X135050000Y-123000000D03*
D41*
X161000000Y-118000000D03*
D37*
X127000000Y-108050000D03*
X127000000Y-109950000D03*
D21*
X126050000Y-98000000D03*
X127950000Y-98000000D03*
D13*
X177800000Y-138684000D03*
D24*
X159937500Y-87950000D03*
X159937500Y-86050000D03*
X158062500Y-87000000D03*
D10*
X178960000Y-63500000D03*
X178960000Y-54500000D03*
D34*
X177000000Y-57500000D03*
D12*
X177000000Y-60500000D03*
D15*
X152000000Y-96087500D03*
X152000000Y-97912500D03*
D41*
X121000000Y-58000000D03*
D17*
X125950000Y-61000000D03*
X124050000Y-61000000D03*
D41*
X121000000Y-64000000D03*
D23*
X161000000Y-69000000D03*
D10*
X111040000Y-79500000D03*
X111040000Y-88500000D03*
D11*
X113000000Y-85500000D03*
D12*
X113000000Y-82500000D03*
M02*
