M48
; DRILL file {KiCad (6.0.8)} date Fri Jan  6 14:53:23 2023
; FORMAT={-:-/ absolute / inch / decimal}
; #@! TF.CreationDate,2023-01-06T14:53:23-06:00
; #@! TF.GenerationSoftware,Kicad,Pcbnew,(6.0.8)
; #@! TF.FileFunction,Plated,1,2,PTH
FMAT,2
INCH
; #@! TA.AperFunction,Plated,PTH,ViaDrill
T1C0.0157
; #@! TA.AperFunction,Plated,PTH,ViaDrill
T2C0.0200
; #@! TA.AperFunction,Plated,PTH,ViaDrill
T3C0.0300
; #@! TA.AperFunction,Plated,PTH,ComponentDrill
T4C0.0402
; #@! TA.AperFunction,Plated,PTH,ComponentDrill
T5C0.0630
%
G90
G05
T1
X4.2701Y-2.0466
X4.3Y-3.52
X4.3Y-3.96
X4.3Y-4.64
X4.3Y-5.34
X4.3882Y-2.018
X4.5555Y-2.4305
X4.5587Y-2.8013
X5.0969Y-2.7553
X5.1067Y-3.2474
X5.1165Y-2.3813
X5.1854Y-2.46
X5.2248Y-3.7002
X5.2543Y-4.4876
X5.3331Y-2.1647
X5.4709Y-4.1332
X5.4709Y-4.8124
X5.5299Y-4.6844
X5.5299Y-4.9895
X5.5791Y-4.9206
X5.5791Y-5.5702
X5.6972Y-2.4108
X5.6972Y-2.46
X5.776Y-2.1647
X5.8691Y-3.2908
X5.8811Y-3.5588
X5.8811Y-4.0513
X6.0122Y-2.7553
X6.0614Y-2.1844
X6.1106Y-2.5584
X6.1106Y-2.7553
X6.1402Y-2.46
X6.15Y-2.4108
X6.3173Y-4.1332
X6.3173Y-4.6844
X6.5535Y-2.7553
X6.5824Y-2.4108
X6.5824Y-2.46
X7.085Y-2.4108
X7.1Y-3.54
X7.12Y-3.98
X7.12Y-4.44
X7.12Y-4.88
X7.12Y-5.38
X7.1343Y-2.7553
T2
X4.65Y-3.46
X4.65Y-3.96
X4.65Y-4.71
X4.65Y-5.46
X4.9886Y-4.6844
X5.15Y-3.46
X5.15Y-3.96
X5.15Y-5.46
X5.4Y-2.96
X5.65Y-3.46
X5.65Y-3.96
X5.65Y-4.46
X5.65Y-5.46
X5.9Y-2.21
X5.9Y-2.96
X6.15Y-3.96
X6.15Y-4.46
X6.15Y-5.46
X6.2189Y-2.3419
X6.4Y-2.21
X6.4Y-2.96
X6.4Y-3.46
X6.4Y-4.96
X6.616Y-2.3483
X6.616Y-2.6337
X6.6224Y-2.8045
X6.6224Y-3.2572
X6.6224Y-3.7002
X6.65Y-3.96
X6.65Y-4.46
X6.65Y-5.46
X6.9Y-2.21
X6.9Y-4.96
T3
X5.2937Y-2.2927
X5.7465Y-2.3616
X5.7465Y-2.6372
T4
X4.4291Y-3.2493
X4.4291Y-3.3674
X4.4309Y-2.8013
X4.4309Y-2.9194
X4.4309Y-3.6887
X4.4309Y-3.8069
X4.4309Y-4.1234
X4.4309Y-4.2415
X4.4309Y-4.3596
X4.4309Y-4.4777
X4.4309Y-4.7927
X4.4309Y-4.9108
X4.4315Y-2.234
X4.4315Y-2.3521
X4.4315Y-2.4702
X4.7563Y-1.9202
X4.8744Y-1.9202
X4.8768Y-5.184
X4.9949Y-5.184
X5.113Y-5.184
X5.2169Y-1.923
X5.2311Y-5.184
X5.335Y-1.923
X5.3492Y-5.184
X5.4673Y-5.184
X5.5854Y-5.184
X5.6646Y-1.9238
X5.7035Y-5.184
X5.7827Y-1.9238
X5.8217Y-5.184
X6.1024Y-1.9224
X6.2205Y-1.9224
X6.3472Y-5.4328
X6.4654Y-5.4328
X6.5634Y-1.922
X6.6815Y-1.922
X6.9734Y-2.3443
X6.9734Y-2.4624
X6.9734Y-2.8045
X6.9734Y-2.9226
X6.9734Y-3.2569
X6.9734Y-3.375
X6.9734Y-3.7033
X6.9734Y-3.8214
X6.9734Y-4.1569
X6.9734Y-4.275
X6.9734Y-4.6061
X6.9734Y-4.7242
X6.9764Y-5.0572
X6.9764Y-5.1754
T5
X5.2937Y-2.6348
X5.3283Y-4.6844
X5.8937Y-2.6348
X5.9283Y-4.6844
T0
M30
