G04 #@! TF.GenerationSoftware,KiCad,Pcbnew,(6.0.7)*
G04 #@! TF.CreationDate,2023-02-02T11:52:21-06:00*
G04 #@! TF.ProjectId,Controls-LightingPCB,436f6e74-726f-46c7-932d-4c6967687469,rev?*
G04 #@! TF.SameCoordinates,Original*
G04 #@! TF.FileFunction,Soldermask,Bot*
G04 #@! TF.FilePolarity,Negative*
%FSLAX46Y46*%
G04 Gerber Fmt 4.6, Leading zero omitted, Abs format (unit mm)*
G04 Created by KiCad (PCBNEW (6.0.7)) date 2023-02-02 11:52:21*
%MOMM*%
%LPD*%
G01*
G04 APERTURE LIST*
G04 Aperture macros list*
%AMRoundRect*
0 Rectangle with rounded corners*
0 $1 Rounding radius*
0 $2 $3 $4 $5 $6 $7 $8 $9 X,Y pos of 4 corners*
0 Add a 4 corners polygon primitive as box body*
4,1,4,$2,$3,$4,$5,$6,$7,$8,$9,$2,$3,0*
0 Add four circle primitives for the rounded corners*
1,1,$1+$1,$2,$3*
1,1,$1+$1,$4,$5*
1,1,$1+$1,$6,$7*
1,1,$1+$1,$8,$9*
0 Add four rect primitives between the rounded corners*
20,1,$1+$1,$2,$3,$4,$5,0*
20,1,$1+$1,$4,$5,$6,$7,0*
20,1,$1+$1,$6,$7,$8,$9,0*
20,1,$1+$1,$8,$9,$2,$3,0*%
G04 Aperture macros list end*
%ADD10C,1.372000*%
%ADD11RoundRect,0.301001X0.759999X-0.499999X0.759999X0.499999X-0.759999X0.499999X-0.759999X-0.499999X0*%
%ADD12O,2.122000X1.602000*%
%ADD13C,3.102000*%
%ADD14RoundRect,0.301001X-0.499999X-0.759999X0.499999X-0.759999X0.499999X0.759999X-0.499999X0.759999X0*%
%ADD15O,1.602000X2.122000*%
%ADD16RoundRect,0.301001X0.499999X0.759999X-0.499999X0.759999X-0.499999X-0.759999X0.499999X-0.759999X0*%
%ADD17RoundRect,0.301001X-0.759999X0.499999X-0.759999X-0.499999X0.759999X-0.499999X0.759999X0.499999X0*%
%ADD18RoundRect,0.051000X-1.600000X-1.600000X1.600000X-1.600000X1.600000X1.600000X-1.600000X1.600000X0*%
%ADD19O,3.302000X3.302000*%
G04 APERTURE END LIST*
D10*
X111040000Y-116500000D03*
X111040000Y-101500000D03*
D11*
X113000000Y-113500000D03*
D12*
X113000000Y-110500000D03*
X113000000Y-107500000D03*
X113000000Y-104500000D03*
D13*
X112014000Y-48006000D03*
D10*
X171500000Y-47040000D03*
X162500000Y-47040000D03*
D14*
X165500000Y-49000000D03*
D15*
X168500000Y-49000000D03*
D13*
X142850000Y-136320000D03*
X123150000Y-136320000D03*
D16*
X145000000Y-132000000D03*
D15*
X142000000Y-132000000D03*
X139000000Y-132000000D03*
X136000000Y-132000000D03*
X133000000Y-132000000D03*
X130000000Y-132000000D03*
X127000000Y-132000000D03*
X124000000Y-132000000D03*
X121000000Y-132000000D03*
D10*
X111040000Y-127500000D03*
X111040000Y-118500000D03*
D11*
X113000000Y-124500000D03*
D12*
X113000000Y-121500000D03*
D13*
X177800000Y-48006000D03*
D10*
X178960000Y-76500000D03*
X178960000Y-85500000D03*
D17*
X177000000Y-79500000D03*
D12*
X177000000Y-82500000D03*
D10*
X178960000Y-118500000D03*
X178960000Y-109500000D03*
D17*
X177000000Y-112500000D03*
D12*
X177000000Y-115500000D03*
D10*
X178960000Y-129500000D03*
X178960000Y-120500000D03*
D17*
X177000000Y-123500000D03*
D12*
X177000000Y-126500000D03*
D10*
X118500000Y-47040000D03*
X127500000Y-47040000D03*
D14*
X121500000Y-49000000D03*
D15*
X124500000Y-49000000D03*
D10*
X111040000Y-77500000D03*
X111040000Y-68500000D03*
D11*
X113000000Y-74500000D03*
D12*
X113000000Y-71500000D03*
D10*
X111040000Y-54500000D03*
X111040000Y-66500000D03*
D11*
X113000000Y-63500000D03*
D12*
X113000000Y-60500000D03*
X113000000Y-57500000D03*
D13*
X112014000Y-138684000D03*
D10*
X160500000Y-139960000D03*
X151500000Y-139960000D03*
D16*
X157500000Y-138000000D03*
D15*
X154500000Y-138000000D03*
D10*
X171500000Y-139960000D03*
X162500000Y-139960000D03*
D16*
X168500000Y-138000000D03*
D15*
X165500000Y-138000000D03*
D10*
X111040000Y-99500000D03*
X111040000Y-90500000D03*
D11*
X113000000Y-96500000D03*
D12*
X113000000Y-93500000D03*
D10*
X151500000Y-47040000D03*
X160500000Y-47040000D03*
D14*
X154500000Y-49000000D03*
D15*
X157500000Y-49000000D03*
D10*
X129500000Y-47040000D03*
X138500000Y-47040000D03*
D14*
X132500000Y-49000000D03*
D15*
X135500000Y-49000000D03*
D10*
X178960000Y-96500000D03*
X178960000Y-87500000D03*
D17*
X177000000Y-90500000D03*
D12*
X177000000Y-93500000D03*
D18*
X149000000Y-63000000D03*
D19*
X164240000Y-63000000D03*
D10*
X140500000Y-47040000D03*
X149500000Y-47040000D03*
D14*
X143500000Y-49000000D03*
D15*
X146500000Y-49000000D03*
D10*
X178960000Y-74500000D03*
X178960000Y-65500000D03*
D17*
X177000000Y-68500000D03*
D12*
X177000000Y-71500000D03*
D10*
X178960000Y-98500000D03*
X178960000Y-107500000D03*
D17*
X177000000Y-101500000D03*
D12*
X177000000Y-104500000D03*
D13*
X177800000Y-138684000D03*
D10*
X178960000Y-63500000D03*
X178960000Y-54500000D03*
D17*
X177000000Y-57500000D03*
D12*
X177000000Y-60500000D03*
D10*
X111040000Y-79500000D03*
X111040000Y-88500000D03*
D11*
X113000000Y-85500000D03*
D12*
X113000000Y-82500000D03*
M02*
