M48
; DRILL file {KiCad 7.0.2} date Wed Aug 23 15:51:20 2023
; FORMAT={-:-/ absolute / inch / decimal}
; #@! TF.CreationDate,2023-08-23T15:51:20-05:00
; #@! TF.GenerationSoftware,Kicad,Pcbnew,7.0.2
; #@! TF.FileFunction,NonPlated,1,2,NPTH
FMAT,2
INCH
; #@! TA.AperFunction,NonPlated,NPTH,ComponentDrill
T1C0.0500
; #@! TA.AperFunction,NonPlated,NPTH,ComponentDrill
T2C0.1181
%
G90
G05
T1
X4.3717Y-2.1457
X4.3717Y-2.6181
X4.3717Y-2.6969
X4.3717Y-3.0512
X4.3717Y-3.1299
X4.3717Y-3.4843
X4.3717Y-3.563
X4.3717Y-3.9173
X4.3717Y-3.9961
X4.3717Y-4.5866
X4.3717Y-4.6654
X4.3717Y-5.0197
X4.6654Y-1.852
X5.0197Y-1.852
X5.0984Y-1.852
X5.4528Y-1.852
X5.5315Y-1.852
X5.8858Y-1.852
X5.9646Y-1.8504
X5.9646Y-5.5102
X6.3189Y-1.8504
X6.3189Y-5.5102
X6.3976Y-1.852
X6.3976Y-5.5102
X6.752Y-1.852
X6.752Y-5.5102
X7.0457Y-2.1457
X7.0457Y-2.5
X7.0457Y-2.5787
X7.0457Y-2.9331
X7.0457Y-3.0118
X7.0457Y-3.3661
X7.0457Y-3.4449
X7.0457Y-3.7992
X7.0457Y-3.878
X7.0457Y-4.2323
X7.0457Y-4.311
X7.0457Y-4.6654
X7.0457Y-4.7441
X7.0457Y-5.0984
T2
X4.41Y-1.89
X4.41Y-5.46
X4.8484Y-5.3669
X5.624Y-5.3669
X7.0Y-1.89
X7.0Y-5.46
T0
M30
