%TF.GenerationSoftware,KiCad,Pcbnew,9.0.0*%
%TF.CreationDate,2026-01-13T18:20:20-06:00*%
%TF.ProjectId,Controls-LightingRev2PCB,436f6e74-726f-46c7-932d-4c6967687469,rev?*%
%TF.SameCoordinates,Original*%
%TF.FileFunction,Paste,Top*%
%TF.FilePolarity,Positive*%
%FSLAX46Y46*%
G04 Gerber Fmt 4.6, Leading zero omitted, Abs format (unit mm)*
G04 Created by KiCad (PCBNEW 9.0.0) date 2026-01-13 18:20:20*
%MOMM*%
%LPD*%
G01*
G04 APERTURE LIST*
G04 Aperture macros list*
%AMRoundRect*
0 Rectangle with rounded corners*
0 $1 Rounding radius*
0 $2 $3 $4 $5 $6 $7 $8 $9 X,Y pos of 4 corners*
0 Add a 4 corners polygon primitive as box body*
4,1,4,$2,$3,$4,$5,$6,$7,$8,$9,$2,$3,0*
0 Add four circle primitives for the rounded corners*
1,1,$1+$1,$2,$3*
1,1,$1+$1,$4,$5*
1,1,$1+$1,$6,$7*
1,1,$1+$1,$8,$9*
0 Add four rect primitives between the rounded corners*
20,1,$1+$1,$2,$3,$4,$5,0*
20,1,$1+$1,$4,$5,$6,$7,0*
20,1,$1+$1,$6,$7,$8,$9,0*
20,1,$1+$1,$8,$9,$2,$3,0*%
G04 Aperture macros list end*
%ADD10RoundRect,0.225000X0.250000X-0.225000X0.250000X0.225000X-0.250000X0.225000X-0.250000X-0.225000X0*%
%ADD11RoundRect,0.225000X-0.250000X0.225000X-0.250000X-0.225000X0.250000X-0.225000X0.250000X0.225000X0*%
%ADD12RoundRect,0.225000X-0.225000X-0.250000X0.225000X-0.250000X0.225000X0.250000X-0.225000X0.250000X0*%
%ADD13R,1.000000X0.750000*%
%ADD14R,0.480000X0.750000*%
%ADD15R,2.720000X4.560000*%
%ADD16R,0.910000X5.560000*%
%ADD17R,0.420000X4.560000*%
%ADD18R,0.800000X0.550000*%
%ADD19RoundRect,0.200000X0.275000X-0.200000X0.275000X0.200000X-0.275000X0.200000X-0.275000X-0.200000X0*%
%ADD20RoundRect,0.150000X-0.512500X-0.150000X0.512500X-0.150000X0.512500X0.150000X-0.512500X0.150000X0*%
%ADD21RoundRect,0.200000X-0.275000X0.200000X-0.275000X-0.200000X0.275000X-0.200000X0.275000X0.200000X0*%
%ADD22RoundRect,0.200000X-0.200000X-0.275000X0.200000X-0.275000X0.200000X0.275000X-0.200000X0.275000X0*%
%ADD23R,1.525000X0.650000*%
%ADD24RoundRect,0.237500X0.237500X-0.287500X0.237500X0.287500X-0.237500X0.287500X-0.237500X-0.287500X0*%
%ADD25RoundRect,0.200000X0.200000X0.275000X-0.200000X0.275000X-0.200000X-0.275000X0.200000X-0.275000X0*%
%ADD26R,1.200000X0.450000*%
%ADD27R,1.670000X1.970000*%
%ADD28RoundRect,0.150000X0.587500X0.150000X-0.587500X0.150000X-0.587500X-0.150000X0.587500X-0.150000X0*%
%ADD29R,0.550000X1.800000*%
G04 APERTURE END LIST*
D10*
%TO.C,C4*%
X193065400Y-101905400D03*
X193065400Y-100355400D03*
%TD*%
D11*
%TO.C,C2*%
X208660000Y-122835000D03*
X208660000Y-124385000D03*
%TD*%
D12*
%TO.C,C27*%
X219435000Y-126880000D03*
X220985000Y-126880000D03*
%TD*%
D13*
%TO.C,Q1*%
X197871800Y-108712000D03*
X197871800Y-107442000D03*
X197871800Y-106172000D03*
X197871800Y-104902000D03*
D14*
X192111800Y-104902000D03*
X192111800Y-108712000D03*
D15*
X193711800Y-106807000D03*
D16*
X195526800Y-106807000D03*
D17*
X196191800Y-106807000D03*
%TD*%
D18*
%TO.C,IC2*%
X223380000Y-124490000D03*
X223380000Y-123540000D03*
X223380000Y-122590000D03*
X220980000Y-122590000D03*
X220980000Y-124490000D03*
%TD*%
D11*
%TO.C,C5*%
X196469000Y-100380800D03*
X196469000Y-101930800D03*
%TD*%
D19*
%TO.C,R1*%
X194792600Y-101967800D03*
X194792600Y-100317800D03*
%TD*%
D20*
%TO.C,U5*%
X214470000Y-124526800D03*
X214470000Y-125476800D03*
X214470000Y-126426800D03*
X216745000Y-126426800D03*
X216745000Y-124526800D03*
%TD*%
D21*
%TO.C,R13*%
X225650000Y-122585000D03*
X225650000Y-124235000D03*
%TD*%
D12*
%TO.C,C26*%
X224085000Y-120110000D03*
X225635000Y-120110000D03*
%TD*%
D21*
%TO.C,R16*%
X218600000Y-122865000D03*
X218600000Y-124515000D03*
%TD*%
D22*
%TO.C,R7*%
X210711000Y-103850000D03*
X212361000Y-103850000D03*
%TD*%
D23*
%TO.C,IC3*%
X201378000Y-120600000D03*
X201378000Y-121870000D03*
X201378000Y-123140000D03*
X201378000Y-124410000D03*
X206802000Y-124410000D03*
X206802000Y-123140000D03*
X206802000Y-121870000D03*
X206802000Y-120600000D03*
%TD*%
D24*
%TO.C,LVPWR1*%
X213898200Y-105494400D03*
X213898200Y-103744400D03*
%TD*%
D25*
%TO.C,R14*%
X222615000Y-120100000D03*
X220965000Y-120100000D03*
%TD*%
D22*
%TO.C,R15*%
X215135000Y-128016800D03*
X216785000Y-128016800D03*
%TD*%
D12*
%TO.C,C20*%
X198025000Y-127870000D03*
X199575000Y-127870000D03*
%TD*%
%TO.C,C6*%
X210743800Y-105410000D03*
X212293800Y-105410000D03*
%TD*%
%TO.C,C10*%
X199517000Y-118926000D03*
X201067000Y-118926000D03*
%TD*%
D11*
%TO.C,C15*%
X208630000Y-115495000D03*
X208630000Y-117045000D03*
%TD*%
D12*
%TO.C,C25*%
X219435000Y-128420000D03*
X220985000Y-128420000D03*
%TD*%
%TO.C,C7*%
X210748000Y-107083200D03*
X212298000Y-107083200D03*
%TD*%
%TO.C,C24*%
X208635000Y-127845000D03*
X210185000Y-127845000D03*
%TD*%
D21*
%TO.C,R11*%
X195560000Y-118955000D03*
X195560000Y-120605000D03*
%TD*%
D12*
%TO.C,C17*%
X208545000Y-113120000D03*
X210095000Y-113120000D03*
%TD*%
%TO.C,C3*%
X208590000Y-120490000D03*
X210140000Y-120490000D03*
%TD*%
%TO.C,C12*%
X199500000Y-111520000D03*
X201050000Y-111520000D03*
%TD*%
D21*
%TO.C,R12*%
X195580000Y-111525000D03*
X195580000Y-113175000D03*
%TD*%
D26*
%TO.C,IC1*%
X198170800Y-100177600D03*
X198170800Y-100827600D03*
X198170800Y-101477600D03*
X198170800Y-102127600D03*
X200670800Y-102127600D03*
X200670800Y-101477600D03*
X200670800Y-100827600D03*
X200670800Y-100177600D03*
%TD*%
D23*
%TO.C,IC4*%
X201326000Y-113240000D03*
X201326000Y-114510000D03*
X201326000Y-115780000D03*
X201326000Y-117050000D03*
X206750000Y-117050000D03*
X206750000Y-115780000D03*
X206750000Y-114510000D03*
X206750000Y-113240000D03*
%TD*%
D27*
%TO.C,D1*%
X203276200Y-101738400D03*
X203276200Y-97688400D03*
%TD*%
D28*
%TO.C,Q3*%
X193720000Y-120860000D03*
X193720000Y-118960000D03*
X191845000Y-119910000D03*
%TD*%
D13*
%TO.C,Q4*%
X201021400Y-104902000D03*
X201021400Y-106172000D03*
X201021400Y-107442000D03*
X201021400Y-108712000D03*
D14*
X206781400Y-108712000D03*
X206781400Y-104902000D03*
D15*
X205181400Y-106807000D03*
D16*
X203366400Y-106807000D03*
D17*
X202701400Y-106807000D03*
%TD*%
D29*
%TO.C,J1*%
X214340000Y-86350000D03*
X214340000Y-90650000D03*
X213540000Y-86350000D03*
X213540000Y-90650000D03*
X212740000Y-86350000D03*
X212740000Y-90650000D03*
X211940000Y-86350000D03*
X211940000Y-90650000D03*
X211140000Y-86350000D03*
X211140000Y-90650000D03*
X210340003Y-86350000D03*
X210340003Y-90650000D03*
X209540000Y-86350000D03*
X209540000Y-90650000D03*
X208740000Y-86350000D03*
X208740000Y-90650000D03*
X207940000Y-86350000D03*
X207940000Y-90650000D03*
X207140000Y-86350000D03*
X207140000Y-90650000D03*
X206340000Y-86350000D03*
X206340000Y-90650000D03*
X205540000Y-86350000D03*
X205540000Y-90650000D03*
%TD*%
D22*
%TO.C,R6*%
X199200000Y-96774000D03*
X200850000Y-96774000D03*
%TD*%
D12*
%TO.C,C8*%
X210722600Y-108734200D03*
X212272600Y-108734200D03*
%TD*%
D11*
%TO.C,C21*%
X208680000Y-130370000D03*
X208680000Y-131920000D03*
%TD*%
D25*
%TO.C,R2*%
X200850000Y-98602800D03*
X199200000Y-98602800D03*
%TD*%
D11*
%TO.C,C1*%
X205714600Y-100164600D03*
X205714600Y-101714600D03*
%TD*%
D12*
%TO.C,C19*%
X214794800Y-122774200D03*
X216344800Y-122774200D03*
%TD*%
D28*
%TO.C,Q5*%
X193727500Y-113440000D03*
X193727500Y-111540000D03*
X191852500Y-112490000D03*
%TD*%
D23*
%TO.C,IC6*%
X201366000Y-127955000D03*
X201366000Y-129225000D03*
X201366000Y-130495000D03*
X201366000Y-131765000D03*
X206790000Y-131765000D03*
X206790000Y-130495000D03*
X206790000Y-129225000D03*
X206790000Y-127955000D03*
%TD*%
D10*
%TO.C,C9*%
X191516000Y-100025800D03*
X191516000Y-98475800D03*
%TD*%
M02*
