%TF.GenerationSoftware,KiCad,Pcbnew,9.0.0*%
%TF.CreationDate,2026-01-13T18:20:20-06:00*%
%TF.ProjectId,Controls-LightingRev2PCB,436f6e74-726f-46c7-932d-4c6967687469,rev?*%
%TF.SameCoordinates,Original*%
%TF.FileFunction,Soldermask,Bot*%
%TF.FilePolarity,Negative*%
%FSLAX46Y46*%
G04 Gerber Fmt 4.6, Leading zero omitted, Abs format (unit mm)*
G04 Created by KiCad (PCBNEW 9.0.0) date 2026-01-13 18:20:20*
%MOMM*%
%LPD*%
G01*
G04 APERTURE LIST*
G04 Aperture macros list*
%AMRoundRect*
0 Rectangle with rounded corners*
0 $1 Rounding radius*
0 $2 $3 $4 $5 $6 $7 $8 $9 X,Y pos of 4 corners*
0 Add a 4 corners polygon primitive as box body*
4,1,4,$2,$3,$4,$5,$6,$7,$8,$9,$2,$3,0*
0 Add four circle primitives for the rounded corners*
1,1,$1+$1,$2,$3*
1,1,$1+$1,$4,$5*
1,1,$1+$1,$6,$7*
1,1,$1+$1,$8,$9*
0 Add four rect primitives between the rounded corners*
20,1,$1+$1,$2,$3,$4,$5,0*
20,1,$1+$1,$4,$5,$6,$7,0*
20,1,$1+$1,$6,$7,$8,$9,0*
20,1,$1+$1,$8,$9,$2,$3,0*%
G04 Aperture macros list end*
%ADD10C,1.700000*%
%ADD11RoundRect,0.250000X0.850000X0.600000X-0.850000X0.600000X-0.850000X-0.600000X0.850000X-0.600000X0*%
%ADD12O,2.200000X1.700000*%
%ADD13RoundRect,0.250000X0.600000X0.600000X-0.600000X0.600000X-0.600000X-0.600000X0.600000X-0.600000X0*%
%ADD14C,3.600000*%
%ADD15C,6.400000*%
%ADD16C,2.400000*%
%ADD17C,2.800000*%
G04 APERTURE END LIST*
D10*
%TO.C,J5*%
X177865977Y-123375417D03*
X177865977Y-120875417D03*
D11*
X185045977Y-123375417D03*
D12*
X185045977Y-120875417D03*
%TD*%
D10*
%TO.C,J4*%
X177879154Y-115875434D03*
X177879154Y-113375434D03*
D11*
X185059154Y-115875434D03*
D12*
X185059154Y-113375434D03*
%TD*%
D10*
%TO.C,J3*%
X177840000Y-100500000D03*
X177840000Y-90500000D03*
D13*
X187520000Y-100500000D03*
D10*
X187520000Y-98000000D03*
X187520000Y-95500000D03*
X187520000Y-93000000D03*
X187520000Y-90500000D03*
X185020000Y-100500000D03*
X185020000Y-98000000D03*
X185020000Y-95500000D03*
X185020000Y-93000000D03*
X185020000Y-90500000D03*
%TD*%
%TO.C,J6*%
X177780000Y-132890000D03*
X177780000Y-127890000D03*
D11*
X184960000Y-132890000D03*
D12*
X184960000Y-130390000D03*
X184960000Y-127890000D03*
%TD*%
D14*
%TO.C,J1*%
X194170000Y-88500000D03*
D15*
X194170000Y-88500000D03*
D14*
X224920000Y-88500000D03*
D15*
X224920000Y-88500000D03*
D14*
X224920000Y-134970000D03*
D15*
X224920000Y-134970000D03*
D14*
X194180000Y-134970000D03*
D15*
X194180000Y-134970000D03*
%TD*%
D16*
%TO.C,F1*%
X177445000Y-105200000D03*
X177445000Y-108600000D03*
X187365000Y-105200000D03*
X187365000Y-108600000D03*
%TD*%
D17*
%TO.C,TP6*%
X221660000Y-99540000D03*
%TD*%
%TO.C,TP9*%
X209470000Y-135500000D03*
%TD*%
%TO.C,TP8*%
X221630000Y-105640000D03*
%TD*%
%TO.C,TP4*%
X223680000Y-127190000D03*
%TD*%
%TO.C,TP3*%
X216350000Y-135500000D03*
%TD*%
%TO.C,TP5*%
X202625000Y-135400000D03*
%TD*%
%TO.C,TP2*%
X200960000Y-89350000D03*
%TD*%
%TO.C,TP7*%
X221710000Y-94370000D03*
%TD*%
M02*
