%TF.GenerationSoftware,KiCad,Pcbnew,9.0.0*%
%TF.CreationDate,2026-01-13T18:20:20-06:00*%
%TF.ProjectId,Controls-LightingRev2PCB,436f6e74-726f-46c7-932d-4c6967687469,rev?*%
%TF.SameCoordinates,Original*%
%TF.FileFunction,Soldermask,Top*%
%TF.FilePolarity,Negative*%
%FSLAX46Y46*%
G04 Gerber Fmt 4.6, Leading zero omitted, Abs format (unit mm)*
G04 Created by KiCad (PCBNEW 9.0.0) date 2026-01-13 18:20:20*
%MOMM*%
%LPD*%
G01*
G04 APERTURE LIST*
G04 Aperture macros list*
%AMRoundRect*
0 Rectangle with rounded corners*
0 $1 Rounding radius*
0 $2 $3 $4 $5 $6 $7 $8 $9 X,Y pos of 4 corners*
0 Add a 4 corners polygon primitive as box body*
4,1,4,$2,$3,$4,$5,$6,$7,$8,$9,$2,$3,0*
0 Add four circle primitives for the rounded corners*
1,1,$1+$1,$2,$3*
1,1,$1+$1,$4,$5*
1,1,$1+$1,$6,$7*
1,1,$1+$1,$8,$9*
0 Add four rect primitives between the rounded corners*
20,1,$1+$1,$2,$3,$4,$5,0*
20,1,$1+$1,$4,$5,$6,$7,0*
20,1,$1+$1,$6,$7,$8,$9,0*
20,1,$1+$1,$8,$9,$2,$3,0*%
G04 Aperture macros list end*
%ADD10C,0.000000*%
%ADD11RoundRect,0.225000X0.250000X-0.225000X0.250000X0.225000X-0.250000X0.225000X-0.250000X-0.225000X0*%
%ADD12RoundRect,0.225000X-0.250000X0.225000X-0.250000X-0.225000X0.250000X-0.225000X0.250000X0.225000X0*%
%ADD13RoundRect,0.225000X-0.225000X-0.250000X0.225000X-0.250000X0.225000X0.250000X-0.225000X0.250000X0*%
%ADD14R,1.000000X0.750000*%
%ADD15R,0.480000X0.750000*%
%ADD16R,2.720000X4.560000*%
%ADD17R,0.910000X5.560000*%
%ADD18R,0.420000X4.560000*%
%ADD19R,0.800000X0.550000*%
%ADD20RoundRect,0.200000X0.275000X-0.200000X0.275000X0.200000X-0.275000X0.200000X-0.275000X-0.200000X0*%
%ADD21RoundRect,0.150000X-0.512500X-0.150000X0.512500X-0.150000X0.512500X0.150000X-0.512500X0.150000X0*%
%ADD22RoundRect,0.200000X-0.275000X0.200000X-0.275000X-0.200000X0.275000X-0.200000X0.275000X0.200000X0*%
%ADD23RoundRect,0.200000X-0.200000X-0.275000X0.200000X-0.275000X0.200000X0.275000X-0.200000X0.275000X0*%
%ADD24R,1.525000X0.650000*%
%ADD25RoundRect,0.237500X0.237500X-0.287500X0.237500X0.287500X-0.237500X0.287500X-0.237500X-0.287500X0*%
%ADD26RoundRect,0.200000X0.200000X0.275000X-0.200000X0.275000X-0.200000X-0.275000X0.200000X-0.275000X0*%
%ADD27C,1.700000*%
%ADD28RoundRect,0.250000X0.850000X0.600000X-0.850000X0.600000X-0.850000X-0.600000X0.850000X-0.600000X0*%
%ADD29O,2.200000X1.700000*%
%ADD30R,1.200000X0.450000*%
%ADD31RoundRect,0.250000X0.600000X0.600000X-0.600000X0.600000X-0.600000X-0.600000X0.600000X-0.600000X0*%
%ADD32R,1.670000X1.970000*%
%ADD33RoundRect,0.150000X0.587500X0.150000X-0.587500X0.150000X-0.587500X-0.150000X0.587500X-0.150000X0*%
%ADD34RoundRect,0.102000X-0.275000X-0.900000X0.275000X-0.900000X0.275000X0.900000X-0.275000X0.900000X0*%
%ADD35C,3.600000*%
%ADD36C,6.400000*%
%ADD37C,2.604000*%
%ADD38C,2.800000*%
G04 APERTURE END LIST*
D10*
%TO.C,G\u002A\u002A\u002A*%
G36*
X177490794Y-136036905D02*
G01*
X177515993Y-137170833D01*
X178536528Y-137184476D01*
X179557064Y-137198119D01*
X179557064Y-137449059D01*
X179557064Y-137700000D01*
X178220751Y-137700000D01*
X176884438Y-137700000D01*
X176897834Y-136301488D01*
X176911231Y-134902976D01*
X177188413Y-134902976D01*
X177465596Y-134902976D01*
X177490794Y-136036905D01*
G37*
G36*
X190355873Y-135550198D02*
G01*
X190355873Y-135776984D01*
X189574722Y-135776984D01*
X188793571Y-135776984D01*
X188793571Y-136028968D01*
X188793571Y-136280952D01*
X189574722Y-136280952D01*
X190355873Y-136280952D01*
X190355873Y-136986508D01*
X190355873Y-137692063D01*
X189347936Y-137692063D01*
X188340000Y-137692063D01*
X188340000Y-137465278D01*
X188340000Y-137238492D01*
X189121151Y-137238492D01*
X189902301Y-137238492D01*
X189902301Y-136986508D01*
X189902301Y-136734524D01*
X189121151Y-136734524D01*
X188340000Y-136734524D01*
X188340000Y-136028968D01*
X188340000Y-135323413D01*
X189347936Y-135323413D01*
X190355873Y-135323413D01*
X190355873Y-135550198D01*
G37*
G36*
X183366828Y-134886870D02*
G01*
X183563612Y-134902976D01*
X183577008Y-136301488D01*
X183590404Y-137700000D01*
X183263678Y-137700000D01*
X182936952Y-137700000D01*
X182922703Y-137133036D01*
X182908453Y-136566071D01*
X181813982Y-136552494D01*
X180719510Y-136538916D01*
X180705251Y-137106859D01*
X180690993Y-137674801D01*
X180375211Y-137689826D01*
X180059429Y-137704851D01*
X180072830Y-136303914D01*
X180086231Y-134902976D01*
X180342691Y-134888025D01*
X180541790Y-134892861D01*
X180650363Y-134935420D01*
X180655728Y-134941244D01*
X180681275Y-135018573D01*
X180704051Y-135171243D01*
X180720876Y-135373801D01*
X180726847Y-135510561D01*
X180741389Y-136011706D01*
X181824921Y-136011706D01*
X182908453Y-136011706D01*
X182922752Y-135470474D01*
X182932061Y-135212555D01*
X182951771Y-135039779D01*
X182993781Y-134936509D01*
X183069990Y-134887105D01*
X183192298Y-134875930D01*
X183366828Y-134886870D01*
G37*
G36*
X185596389Y-134882880D02*
G01*
X185919517Y-134886724D01*
X186387725Y-134895193D01*
X186765655Y-134907869D01*
X187063823Y-134928856D01*
X187292744Y-134962257D01*
X187462934Y-135012178D01*
X187584908Y-135082721D01*
X187669182Y-135177992D01*
X187726272Y-135302094D01*
X187766693Y-135459132D01*
X187795352Y-135618856D01*
X187805781Y-135821314D01*
X187782188Y-136043805D01*
X187731695Y-136252348D01*
X187661422Y-136412966D01*
X187617371Y-136468160D01*
X187553130Y-136534076D01*
X187553297Y-136586382D01*
X187620288Y-136666572D01*
X187629499Y-136676385D01*
X187685563Y-136751351D01*
X187722230Y-136848775D01*
X187745316Y-136993634D01*
X187760634Y-137210905D01*
X187762438Y-137247429D01*
X187784076Y-137700000D01*
X187450332Y-137700000D01*
X187116588Y-137700000D01*
X187116588Y-137404415D01*
X187104342Y-137197713D01*
X187061898Y-137054351D01*
X187012136Y-136976042D01*
X186907685Y-136843254D01*
X185953803Y-136843254D01*
X184999921Y-136843254D01*
X184999921Y-137271627D01*
X184999921Y-137700000D01*
X184672342Y-137700000D01*
X184344762Y-137700000D01*
X184344762Y-136315047D01*
X184344762Y-135852116D01*
X184344762Y-135432143D01*
X184999921Y-135432143D01*
X184999921Y-135852116D01*
X185004188Y-136049653D01*
X185015542Y-136207374D01*
X185031816Y-136299012D01*
X185037719Y-136310099D01*
X185097819Y-136321199D01*
X185242244Y-136329204D01*
X185454564Y-136333761D01*
X185718345Y-136334519D01*
X186017158Y-136331126D01*
X186018719Y-136331098D01*
X186355482Y-136324007D01*
X186605965Y-136315610D01*
X186784681Y-136304404D01*
X186906141Y-136288885D01*
X186984859Y-136267551D01*
X187035349Y-136238897D01*
X187051853Y-136224093D01*
X187117195Y-136105962D01*
X187141407Y-135914497D01*
X187141786Y-135879462D01*
X187131791Y-135710129D01*
X187093410Y-135603196D01*
X187022810Y-135528484D01*
X186972720Y-135494546D01*
X186908423Y-135469601D01*
X186814814Y-135452287D01*
X186676788Y-135441247D01*
X186479240Y-135435123D01*
X186207064Y-135432554D01*
X185951878Y-135432143D01*
X184999921Y-135432143D01*
X184344762Y-135432143D01*
X184344762Y-134930095D01*
X184470608Y-134898509D01*
X184553764Y-134890726D01*
X184722805Y-134885150D01*
X184962847Y-134881903D01*
X185259004Y-134881106D01*
X185596389Y-134882880D01*
G37*
%TD*%
D11*
%TO.C,C4*%
X193065400Y-101905400D03*
X193065400Y-100355400D03*
%TD*%
D12*
%TO.C,C2*%
X208660000Y-122835000D03*
X208660000Y-124385000D03*
%TD*%
D13*
%TO.C,C27*%
X219435000Y-126880000D03*
X220985000Y-126880000D03*
%TD*%
D14*
%TO.C,Q1*%
X197871800Y-108712000D03*
X197871800Y-107442000D03*
X197871800Y-106172000D03*
X197871800Y-104902000D03*
D15*
X192111800Y-104902000D03*
X192111800Y-108712000D03*
D16*
X193711800Y-106807000D03*
D17*
X195526800Y-106807000D03*
D18*
X196191800Y-106807000D03*
%TD*%
D19*
%TO.C,IC2*%
X223380000Y-124490000D03*
X223380000Y-123540000D03*
X223380000Y-122590000D03*
X220980000Y-122590000D03*
X220980000Y-124490000D03*
%TD*%
D12*
%TO.C,C5*%
X196469000Y-100380800D03*
X196469000Y-101930800D03*
%TD*%
D20*
%TO.C,R1*%
X194792600Y-101967800D03*
X194792600Y-100317800D03*
%TD*%
D21*
%TO.C,U5*%
X214470000Y-124526800D03*
X214470000Y-125476800D03*
X214470000Y-126426800D03*
X216745000Y-126426800D03*
X216745000Y-124526800D03*
%TD*%
D22*
%TO.C,R13*%
X225650000Y-122585000D03*
X225650000Y-124235000D03*
%TD*%
D13*
%TO.C,C26*%
X224085000Y-120110000D03*
X225635000Y-120110000D03*
%TD*%
D22*
%TO.C,R16*%
X218600000Y-122865000D03*
X218600000Y-124515000D03*
%TD*%
D23*
%TO.C,R7*%
X210711000Y-103850000D03*
X212361000Y-103850000D03*
%TD*%
D24*
%TO.C,IC3*%
X201378000Y-120600000D03*
X201378000Y-121870000D03*
X201378000Y-123140000D03*
X201378000Y-124410000D03*
X206802000Y-124410000D03*
X206802000Y-123140000D03*
X206802000Y-121870000D03*
X206802000Y-120600000D03*
%TD*%
D25*
%TO.C,LVPWR1*%
X213898200Y-105494400D03*
X213898200Y-103744400D03*
%TD*%
D26*
%TO.C,R14*%
X222615000Y-120100000D03*
X220965000Y-120100000D03*
%TD*%
D27*
%TO.C,J5*%
X177865977Y-123375417D03*
X177865977Y-120875417D03*
D28*
X185045977Y-123375417D03*
D29*
X185045977Y-120875417D03*
%TD*%
D23*
%TO.C,R15*%
X215135000Y-128016800D03*
X216785000Y-128016800D03*
%TD*%
D27*
%TO.C,J4*%
X177879154Y-115875434D03*
X177879154Y-113375434D03*
D28*
X185059154Y-115875434D03*
D29*
X185059154Y-113375434D03*
%TD*%
D13*
%TO.C,C20*%
X198025000Y-127870000D03*
X199575000Y-127870000D03*
%TD*%
%TO.C,C6*%
X210743800Y-105410000D03*
X212293800Y-105410000D03*
%TD*%
%TO.C,C10*%
X199517000Y-118926000D03*
X201067000Y-118926000D03*
%TD*%
D12*
%TO.C,C15*%
X208630000Y-115495000D03*
X208630000Y-117045000D03*
%TD*%
D13*
%TO.C,C25*%
X219435000Y-128420000D03*
X220985000Y-128420000D03*
%TD*%
%TO.C,C7*%
X210748000Y-107083200D03*
X212298000Y-107083200D03*
%TD*%
%TO.C,C24*%
X208635000Y-127845000D03*
X210185000Y-127845000D03*
%TD*%
D22*
%TO.C,R11*%
X195560000Y-118955000D03*
X195560000Y-120605000D03*
%TD*%
D13*
%TO.C,C17*%
X208545000Y-113120000D03*
X210095000Y-113120000D03*
%TD*%
%TO.C,C3*%
X208590000Y-120490000D03*
X210140000Y-120490000D03*
%TD*%
%TO.C,C12*%
X199500000Y-111520000D03*
X201050000Y-111520000D03*
%TD*%
D22*
%TO.C,R12*%
X195580000Y-111525000D03*
X195580000Y-113175000D03*
%TD*%
D30*
%TO.C,IC1*%
X198170800Y-100177600D03*
X198170800Y-100827600D03*
X198170800Y-101477600D03*
X198170800Y-102127600D03*
X200670800Y-102127600D03*
X200670800Y-101477600D03*
X200670800Y-100827600D03*
X200670800Y-100177600D03*
%TD*%
D27*
%TO.C,J3*%
X177840000Y-100500000D03*
X177840000Y-90500000D03*
D31*
X187520000Y-100500000D03*
D27*
X187520000Y-98000000D03*
X187520000Y-95500000D03*
X187520000Y-93000000D03*
X187520000Y-90500000D03*
X185020000Y-100500000D03*
X185020000Y-98000000D03*
X185020000Y-95500000D03*
X185020000Y-93000000D03*
X185020000Y-90500000D03*
%TD*%
D24*
%TO.C,IC4*%
X201326000Y-113240000D03*
X201326000Y-114510000D03*
X201326000Y-115780000D03*
X201326000Y-117050000D03*
X206750000Y-117050000D03*
X206750000Y-115780000D03*
X206750000Y-114510000D03*
X206750000Y-113240000D03*
%TD*%
D32*
%TO.C,D1*%
X203276200Y-101738400D03*
X203276200Y-97688400D03*
%TD*%
D27*
%TO.C,J6*%
X177780000Y-132890000D03*
X177780000Y-127890000D03*
D28*
X184960000Y-132890000D03*
D29*
X184960000Y-130390000D03*
X184960000Y-127890000D03*
%TD*%
D33*
%TO.C,Q3*%
X193720000Y-120860000D03*
X193720000Y-118960000D03*
X191845000Y-119910000D03*
%TD*%
D14*
%TO.C,Q4*%
X201021400Y-104902000D03*
X201021400Y-106172000D03*
X201021400Y-107442000D03*
X201021400Y-108712000D03*
D15*
X206781400Y-108712000D03*
X206781400Y-104902000D03*
D16*
X205181400Y-106807000D03*
D17*
X203366400Y-106807000D03*
D18*
X202701400Y-106807000D03*
%TD*%
D34*
%TO.C,J1*%
X214340000Y-86350000D03*
X214340000Y-90650000D03*
X213540000Y-86350000D03*
X213540000Y-90650000D03*
X212740000Y-86350000D03*
X212740000Y-90650000D03*
X211940000Y-86350000D03*
X211940000Y-90650000D03*
X211140000Y-86350000D03*
X211140000Y-90650000D03*
X210340003Y-86350000D03*
X210340003Y-90650000D03*
X209540000Y-86350000D03*
X209540000Y-90650000D03*
X208740000Y-86350000D03*
X208740000Y-90650000D03*
X207940000Y-86350000D03*
X207940000Y-90650000D03*
X207140000Y-86350000D03*
X207140000Y-90650000D03*
X206340000Y-86350000D03*
X206340000Y-90650000D03*
X205540000Y-86350000D03*
X205540000Y-90650000D03*
D35*
X194170000Y-88500000D03*
D36*
X194170000Y-88500000D03*
D35*
X224920000Y-88500000D03*
D36*
X224920000Y-88500000D03*
D35*
X224920000Y-134970000D03*
D36*
X224920000Y-134970000D03*
D35*
X194180000Y-134970000D03*
D36*
X194180000Y-134970000D03*
%TD*%
D23*
%TO.C,R6*%
X199200000Y-96774000D03*
X200850000Y-96774000D03*
%TD*%
D37*
%TO.C,F1*%
X177445000Y-105200000D03*
X177445000Y-108600000D03*
X187365000Y-105200000D03*
X187365000Y-108600000D03*
%TD*%
D13*
%TO.C,C8*%
X210722600Y-108734200D03*
X212272600Y-108734200D03*
%TD*%
D12*
%TO.C,C21*%
X208680000Y-130370000D03*
X208680000Y-131920000D03*
%TD*%
D26*
%TO.C,R2*%
X200850000Y-98602800D03*
X199200000Y-98602800D03*
%TD*%
D12*
%TO.C,C1*%
X205714600Y-100164600D03*
X205714600Y-101714600D03*
%TD*%
D13*
%TO.C,C19*%
X214794800Y-122774200D03*
X216344800Y-122774200D03*
%TD*%
D33*
%TO.C,Q5*%
X193727500Y-113440000D03*
X193727500Y-111540000D03*
X191852500Y-112490000D03*
%TD*%
D24*
%TO.C,IC6*%
X201366000Y-127955000D03*
X201366000Y-129225000D03*
X201366000Y-130495000D03*
X201366000Y-131765000D03*
X206790000Y-131765000D03*
X206790000Y-130495000D03*
X206790000Y-129225000D03*
X206790000Y-127955000D03*
%TD*%
D11*
%TO.C,C9*%
X191516000Y-100025800D03*
X191516000Y-98475800D03*
%TD*%
D38*
%TO.C,TP6*%
X221660000Y-99540000D03*
%TD*%
%TO.C,TP9*%
X209470000Y-135500000D03*
%TD*%
%TO.C,TP8*%
X221630000Y-105640000D03*
%TD*%
%TO.C,TP4*%
X223680000Y-127190000D03*
%TD*%
%TO.C,TP3*%
X216350000Y-135500000D03*
%TD*%
%TO.C,TP5*%
X202625000Y-135400000D03*
%TD*%
%TO.C,TP2*%
X200960000Y-89350000D03*
%TD*%
%TO.C,TP7*%
X221710000Y-94370000D03*
%TD*%
M02*
