%TF.GenerationSoftware,KiCad,Pcbnew,9.0.6*%
%TF.CreationDate,2026-03-14T23:32:23-05:00*%
%TF.ProjectId,Controls-LightingRev2PCB,436f6e74-726f-46c7-932d-4c6967687469,rev?*%
%TF.SameCoordinates,Original*%
%TF.FileFunction,Copper,L2,Bot*%
%TF.FilePolarity,Positive*%
%FSLAX46Y46*%
G04 Gerber Fmt 4.6, Leading zero omitted, Abs format (unit mm)*
G04 Created by KiCad (PCBNEW 9.0.6) date 2026-03-14 23:32:23*
%MOMM*%
%LPD*%
G01*
G04 APERTURE LIST*
G04 Aperture macros list*
%AMRoundRect*
0 Rectangle with rounded corners*
0 $1 Rounding radius*
0 $2 $3 $4 $5 $6 $7 $8 $9 X,Y pos of 4 corners*
0 Add a 4 corners polygon primitive as box body*
4,1,4,$2,$3,$4,$5,$6,$7,$8,$9,$2,$3,0*
0 Add four circle primitives for the rounded corners*
1,1,$1+$1,$2,$3*
1,1,$1+$1,$4,$5*
1,1,$1+$1,$6,$7*
1,1,$1+$1,$8,$9*
0 Add four rect primitives between the rounded corners*
20,1,$1+$1,$2,$3,$4,$5,0*
20,1,$1+$1,$4,$5,$6,$7,0*
20,1,$1+$1,$6,$7,$8,$9,0*
20,1,$1+$1,$8,$9,$2,$3,0*%
G04 Aperture macros list end*
%TA.AperFunction,ComponentPad*%
%ADD10RoundRect,0.250000X0.850000X0.600000X-0.850000X0.600000X-0.850000X-0.600000X0.850000X-0.600000X0*%
%TD*%
%TA.AperFunction,ComponentPad*%
%ADD11O,2.200000X1.700000*%
%TD*%
%TA.AperFunction,ComponentPad*%
%ADD12RoundRect,0.250000X0.600000X0.600000X-0.600000X0.600000X-0.600000X-0.600000X0.600000X-0.600000X0*%
%TD*%
%TA.AperFunction,ComponentPad*%
%ADD13C,1.700000*%
%TD*%
%TA.AperFunction,ComponentPad*%
%ADD14C,3.600000*%
%TD*%
%TA.AperFunction,ConnectorPad*%
%ADD15C,6.400000*%
%TD*%
%TA.AperFunction,ComponentPad*%
%ADD16C,2.400000*%
%TD*%
%TA.AperFunction,ComponentPad*%
%ADD17C,2.800000*%
%TD*%
%TA.AperFunction,ViaPad*%
%ADD18C,0.600000*%
%TD*%
%TA.AperFunction,Conductor*%
%ADD19C,0.200000*%
%TD*%
%TA.AperFunction,Conductor*%
%ADD20C,0.300000*%
%TD*%
G04 APERTURE END LIST*
D10*
%TO.P,J5,1,Pin_1*%
%TO.N,Net-(IC3-IP-_1)*%
X185045977Y-123375417D03*
D11*
%TO.P,J5,2,Pin_2*%
%TO.N,Net-(J5-Pin_2)*%
X185045977Y-120875417D03*
%TD*%
D10*
%TO.P,J4,1,Pin_1*%
%TO.N,Net-(IC4-IP-_1)*%
X185059154Y-115875434D03*
D11*
%TO.P,J4,2,Pin_2*%
%TO.N,Net-(J4-Pin_2)*%
X185059154Y-113375434D03*
%TD*%
D12*
%TO.P,J3,1,Pin_1*%
%TO.N,24V_EXT*%
X187520000Y-100500000D03*
D13*
%TO.P,J3,2,Pin_2*%
%TO.N,CAN_H*%
X187520000Y-98000000D03*
%TO.P,J3,3,Pin_3*%
%TO.N,CAN_L*%
X187520000Y-95500000D03*
%TO.P,J3,4,Pin_4*%
%TO.N,GND*%
X187520000Y-93000000D03*
%TO.P,J3,5,Pin_5*%
X187520000Y-90500000D03*
%TO.P,J3,6,Pin_6*%
%TO.N,24V_EXT*%
X185020000Y-100500000D03*
%TO.P,J3,7,Pin_7*%
%TO.N,CAN_H*%
X185020000Y-98000000D03*
%TO.P,J3,8,Pin_8*%
%TO.N,CAN_L*%
X185020000Y-95500000D03*
%TO.P,J3,9,Pin_9*%
%TO.N,GND*%
X185020000Y-93000000D03*
%TO.P,J3,10,Pin_10*%
X185020000Y-90500000D03*
%TD*%
D10*
%TO.P,J6,1,Pin_1*%
%TO.N,Net-(IC6-IP-_1)*%
X184960000Y-132890000D03*
D11*
%TO.P,J6,2,Pin_2*%
%TO.N,GND*%
X184960000Y-130390000D03*
%TO.P,J6,3,Pin_3*%
%TO.N,Addressable_Logic*%
X184960000Y-127890000D03*
%TD*%
D14*
%TO.P,J1,25,MNT*%
%TO.N,unconnected-(J1-MNT-Pad25)_2*%
X194170000Y-88500000D03*
D15*
%TO.N,unconnected-(J1-MNT-Pad25)*%
X194170000Y-88500000D03*
D14*
%TO.P,J1,26,MNT*%
%TO.N,unconnected-(J1-MNT-Pad26)_1*%
X224920000Y-88500000D03*
D15*
%TO.N,unconnected-(J1-MNT-Pad26)_2*%
X224920000Y-88500000D03*
D14*
%TO.P,J1,27,MNT*%
%TO.N,unconnected-(J1-MNT-Pad27)*%
X224920000Y-134970000D03*
D15*
%TO.N,unconnected-(J1-MNT-Pad27)_2*%
X224920000Y-134970000D03*
D14*
%TO.P,J1,28,MNT*%
%TO.N,unconnected-(J1-MNT-Pad28)*%
X194180000Y-134970000D03*
D15*
%TO.N,unconnected-(J1-MNT-Pad28)_1*%
X194180000Y-134970000D03*
%TD*%
D16*
%TO.P,F1,1*%
%TO.N,24V_EXT*%
X177445000Y-105200000D03*
X177445000Y-108600000D03*
%TO.P,F1,2*%
%TO.N,Net-(C4-Pad1)*%
X187365000Y-105200000D03*
X187365000Y-108600000D03*
%TD*%
D17*
%TO.P,TP6,1,1*%
%TO.N,NORMAL_Sense*%
X221660000Y-99540000D03*
%TD*%
%TO.P,TP9,1,1*%
%TO.N,GPIO_Normal*%
X209470000Y-135500000D03*
%TD*%
%TO.P,TP8,1,1*%
%TO.N,BPS_Sense*%
X221630000Y-105640000D03*
%TD*%
%TO.P,TP4,1,1*%
%TO.N,+24V*%
X223680000Y-127190000D03*
%TD*%
%TO.P,TP3,1,1*%
%TO.N,GPIO_Addr5V*%
X216350000Y-135500000D03*
%TD*%
%TO.P,TP5,1,1*%
%TO.N,GND*%
X202625000Y-135400000D03*
%TD*%
%TO.P,TP2,1,1*%
%TO.N,GPIO_BPS_Strobe*%
X200960000Y-89350000D03*
%TD*%
%TO.P,TP7,1,1*%
%TO.N,ADDR_Sense*%
X221710000Y-94370000D03*
%TD*%
D18*
%TO.N,/Reverse Polarity Protection/RPP_EN*%
X199327730Y-100910058D03*
X199711765Y-102136765D03*
%TO.N,Net-(IC1-GATE)*%
X200000000Y-108750000D03*
X198765040Y-105488189D03*
%TO.N,+24V*%
X223475000Y-129700000D03*
%TO.N,+3.3V*%
X209930000Y-121850000D03*
X209830000Y-115820000D03*
X214340000Y-92280000D03*
X209336024Y-112373426D03*
X209214593Y-120045413D03*
X209235000Y-127869779D03*
%TO.N,GND*%
X215425000Y-87045400D03*
X215475000Y-85720400D03*
X198300000Y-119253000D03*
X198300000Y-118533000D03*
X198330000Y-111900000D03*
X217600000Y-87020400D03*
X210718400Y-124358400D03*
X194850000Y-118000000D03*
X206900000Y-100150000D03*
X217625000Y-85695400D03*
X224350000Y-118650000D03*
X211505800Y-113080800D03*
X205520000Y-97330000D03*
X219450000Y-129725000D03*
X193600000Y-118000000D03*
X196970000Y-111200000D03*
X216000000Y-105380000D03*
X213664800Y-127711200D03*
X197268000Y-118553000D03*
X211328000Y-127889000D03*
X211124800Y-117043200D03*
X193802000Y-98806000D03*
X198330000Y-111180000D03*
X196830000Y-128080000D03*
X196970000Y-111910000D03*
X197268000Y-119263000D03*
X192350000Y-118000000D03*
X211582000Y-120523000D03*
X210000000Y-132000000D03*
%TO.N,CAN_L*%
X204457613Y-92853857D03*
X199590000Y-93675000D03*
X194350000Y-93675000D03*
X189047500Y-93972500D03*
%TO.N,Addressable_Logic*%
X208234579Y-128799311D03*
X199590000Y-129140000D03*
%TO.N,CAN_H*%
X189282222Y-94737294D03*
X195370000Y-94275000D03*
X205870000Y-92290000D03*
X200480000Y-94275000D03*
%TO.N,24V_EXT*%
X191516000Y-100025800D03*
X200080000Y-99450000D03*
%TO.N,GPIO_BPS_Strobe*%
X203830000Y-87776500D03*
X192024000Y-111506000D03*
X189675000Y-95481721D03*
X189230000Y-97790000D03*
%TO.N,Net-(IC1-SRC)*%
X201750000Y-100925000D03*
X201775000Y-102700000D03*
%TO.N,ADDR_Sense*%
X218280100Y-130319900D03*
X219929000Y-92202000D03*
X223723200Y-96012000D03*
X226000000Y-118030000D03*
%TO.N,BPS_Sense*%
X208330800Y-114325400D03*
X219430000Y-103500000D03*
X223780000Y-109380000D03*
X221650000Y-114503200D03*
%TO.N,GPIO_Normal*%
X199644000Y-91948000D03*
X199410000Y-132580000D03*
X206560000Y-136930000D03*
X189886001Y-97332107D03*
X190275000Y-96266000D03*
X197800000Y-120269000D03*
X197200000Y-121600000D03*
%TO.N,NORMAL_Sense*%
X223900000Y-100900000D03*
X219770000Y-97720000D03*
X211300000Y-122453400D03*
X225259900Y-118650000D03*
%TO.N,GPIO_Addr5V*%
X216785000Y-128975000D03*
%TO.N,GPIO_3v3Addr*%
X218414600Y-115493800D03*
X216464700Y-120364700D03*
%TD*%
D19*
%TO.N,/Reverse Polarity Protection/RPP_EN*%
X199327730Y-101752730D02*
X199711765Y-102136765D01*
X199327730Y-100910058D02*
X199327730Y-101752730D01*
%TO.N,Net-(IC1-GATE)*%
X198765040Y-107515040D02*
X200000000Y-108750000D01*
X198765040Y-105488189D02*
X198765040Y-107515040D01*
%TO.N,+24V*%
X223750000Y-129425000D02*
X223750000Y-127750000D01*
X223475000Y-129700000D02*
X223750000Y-129425000D01*
D20*
%TO.N,+3.3V*%
X210580000Y-96040000D02*
X214340000Y-92280000D01*
X209830000Y-119294473D02*
X209830000Y-115820000D01*
X209235000Y-127869779D02*
X209930000Y-127174779D01*
X210580000Y-111320000D02*
X210580000Y-96040000D01*
X209214593Y-119909880D02*
X209830000Y-119294473D01*
X209930000Y-127174779D02*
X209930000Y-121850000D01*
X209336024Y-112373426D02*
X209526574Y-112373426D01*
X209214593Y-120045413D02*
X209214593Y-119909880D01*
X209526574Y-112373426D02*
X210580000Y-111320000D01*
D19*
%TO.N,CAN_L*%
X194350000Y-93675000D02*
X189400000Y-93675000D01*
X203636470Y-93675000D02*
X204457613Y-92853857D01*
X189102500Y-93972500D02*
X189047500Y-93972500D01*
X199590000Y-93675000D02*
X203636470Y-93675000D01*
X189400000Y-93675000D02*
X189102500Y-93972500D01*
%TO.N,Addressable_Logic*%
X207935268Y-128500000D02*
X208234579Y-128799311D01*
X200230000Y-128500000D02*
X207935268Y-128500000D01*
X199590000Y-129140000D02*
X200230000Y-128500000D01*
%TO.N,CAN_H*%
X195370000Y-94275000D02*
X189800000Y-94275000D01*
X200480000Y-94275000D02*
X203885000Y-94275000D01*
X189337706Y-94737294D02*
X189282222Y-94737294D01*
X205870000Y-92290000D02*
X204770000Y-93390000D01*
X189800000Y-94275000D02*
X189337706Y-94737294D01*
X203885000Y-94275000D02*
X204740000Y-93420000D01*
X204770000Y-93390000D02*
X204770000Y-93420000D01*
%TO.N,24V_EXT*%
X200070000Y-99460000D02*
X192081800Y-99460000D01*
X192081800Y-99460000D02*
X191516000Y-100025800D01*
X200080000Y-99450000D02*
X200070000Y-99460000D01*
%TO.N,GPIO_BPS_Strobe*%
X189230000Y-97790000D02*
X189230000Y-108712000D01*
X189675000Y-95481721D02*
X190160721Y-94996000D01*
X195746057Y-94996000D02*
X200156028Y-90586028D01*
X189230000Y-108712000D02*
X192024000Y-111506000D01*
X190160721Y-94996000D02*
X195746057Y-94996000D01*
X203830000Y-87776500D02*
X202266500Y-89340000D01*
%TO.N,Net-(IC1-SRC)*%
X201750000Y-100925000D02*
X201750000Y-102675000D01*
X201750000Y-102675000D02*
X201775000Y-102700000D01*
%TO.N,ADDR_Sense*%
X223266000Y-96012000D02*
X221488000Y-94234000D01*
X218719400Y-130759200D02*
X224561400Y-130759200D01*
X223723200Y-96012000D02*
X223266000Y-96012000D01*
X218280100Y-130319900D02*
X218719400Y-130759200D01*
X220080000Y-92826000D02*
X221488000Y-94234000D01*
X219929000Y-92202000D02*
X219929000Y-92675000D01*
X220080000Y-92710000D02*
X220080000Y-92830000D01*
X226000000Y-129320600D02*
X226000000Y-118030000D01*
X224561400Y-130759200D02*
X226000000Y-129320600D01*
X219929000Y-92675000D02*
X220080000Y-92826000D01*
%TO.N,BPS_Sense*%
X221770000Y-105260000D02*
X223780000Y-107270000D01*
X219430000Y-103500000D02*
X221190000Y-105260000D01*
X221190000Y-105260000D02*
X221770000Y-105260000D01*
X223780000Y-107270000D02*
X223780000Y-109380000D01*
X221650000Y-114503200D02*
X208508600Y-114503200D01*
X208508600Y-114503200D02*
X208330800Y-114325400D01*
%TO.N,GPIO_Normal*%
X199410000Y-131860000D02*
X199410000Y-132580000D01*
X199731000Y-120269000D02*
X200500000Y-119500000D01*
X190754000Y-95504000D02*
X196088000Y-95504000D01*
X197200000Y-121600000D02*
X197200000Y-123050000D01*
X200500000Y-119500000D02*
X200500000Y-110750000D01*
X197800000Y-120269000D02*
X199731000Y-120269000D01*
X196088000Y-95504000D02*
X199644000Y-91948000D01*
X196000000Y-128450000D02*
X199410000Y-131860000D01*
X207650000Y-136930000D02*
X206560000Y-136930000D01*
X208920000Y-135660000D02*
X207650000Y-136930000D01*
X200000000Y-110250000D02*
X191750000Y-110250000D01*
X200500000Y-110750000D02*
X200000000Y-110250000D01*
X191750000Y-110250000D02*
X189886001Y-108386001D01*
X190275000Y-96266000D02*
X190275000Y-95983000D01*
X190275000Y-95983000D02*
X190754000Y-95504000D01*
X196000000Y-124250000D02*
X196000000Y-128450000D01*
X189886001Y-108386001D02*
X189886001Y-97332107D01*
X197200000Y-123050000D02*
X196000000Y-124250000D01*
%TO.N,NORMAL_Sense*%
X211300000Y-122453400D02*
X212496400Y-122453400D01*
X212496400Y-122453400D02*
X213131400Y-121818400D01*
X225259900Y-120967500D02*
X225259900Y-118650000D01*
X219770000Y-97720000D02*
X221520000Y-99470000D01*
X223900000Y-100900000D02*
X222470000Y-99470000D01*
X213131400Y-121818400D02*
X224409000Y-121818400D01*
X224409000Y-121818400D02*
X225259900Y-120967500D01*
X222470000Y-99470000D02*
X221520000Y-99470000D01*
%TO.N,GPIO_Addr5V*%
X217260000Y-134900000D02*
X216510000Y-135650000D01*
X217260000Y-129450000D02*
X217260000Y-134900000D01*
X216785000Y-128975000D02*
X217260000Y-129450000D01*
%TO.N,GPIO_3v3Addr*%
X216464700Y-120364700D02*
X218414600Y-118414800D01*
X218414600Y-118414800D02*
X218414600Y-115493800D01*
%TD*%
%TA.AperFunction,Conductor*%
%TO.N,GND*%
G36*
X186960889Y-93231591D02*
G01*
X187039881Y-93368408D01*
X187151592Y-93480119D01*
X187288409Y-93559111D01*
X187308940Y-93564612D01*
X186758282Y-94115269D01*
X186758282Y-94115270D01*
X186812449Y-94154624D01*
X187002511Y-94251466D01*
X187053307Y-94299441D01*
X187070102Y-94367262D01*
X187047565Y-94433397D01*
X187002512Y-94472435D01*
X186917004Y-94516004D01*
X186770505Y-94622441D01*
X186770500Y-94622445D01*
X186642445Y-94750500D01*
X186642441Y-94750505D01*
X186536006Y-94897002D01*
X186453788Y-95058360D01*
X186453787Y-95058363D01*
X186397829Y-95230589D01*
X186392473Y-95264406D01*
X186362543Y-95327540D01*
X186303232Y-95364471D01*
X186233369Y-95363473D01*
X186175137Y-95324863D01*
X186147527Y-95264406D01*
X186144700Y-95246560D01*
X186142171Y-95230591D01*
X186086211Y-95058361D01*
X186086211Y-95058360D01*
X186057740Y-95002484D01*
X186003996Y-94897006D01*
X185973354Y-94854831D01*
X185897558Y-94750505D01*
X185897554Y-94750500D01*
X185769499Y-94622445D01*
X185769494Y-94622441D01*
X185622993Y-94516003D01*
X185622992Y-94516002D01*
X185537488Y-94472435D01*
X185486692Y-94424461D01*
X185469897Y-94356640D01*
X185492435Y-94290505D01*
X185537488Y-94251466D01*
X185727554Y-94154622D01*
X185781716Y-94115270D01*
X185781717Y-94115270D01*
X185231058Y-93564612D01*
X185251591Y-93559111D01*
X185388408Y-93480119D01*
X185500119Y-93368408D01*
X185579111Y-93231591D01*
X185584612Y-93211058D01*
X186135270Y-93761717D01*
X186135270Y-93761716D01*
X186169682Y-93714354D01*
X186225012Y-93671689D01*
X186294626Y-93665710D01*
X186356420Y-93698316D01*
X186370319Y-93714355D01*
X186404728Y-93761716D01*
X186955387Y-93211058D01*
X186960889Y-93231591D01*
G37*
%TD.AperFunction*%
%TA.AperFunction,Conductor*%
G36*
X186960889Y-90731591D02*
G01*
X187039881Y-90868408D01*
X187151592Y-90980119D01*
X187288409Y-91059111D01*
X187308940Y-91064612D01*
X186758282Y-91615269D01*
X186758282Y-91615270D01*
X186805644Y-91649680D01*
X186848310Y-91705010D01*
X186854289Y-91774623D01*
X186821684Y-91836419D01*
X186805644Y-91850318D01*
X186758282Y-91884727D01*
X186758282Y-91884728D01*
X187308941Y-92435387D01*
X187288409Y-92440889D01*
X187151592Y-92519881D01*
X187039881Y-92631592D01*
X186960889Y-92768409D01*
X186955387Y-92788941D01*
X186404728Y-92238282D01*
X186404727Y-92238282D01*
X186370318Y-92285644D01*
X186314988Y-92328310D01*
X186245375Y-92334289D01*
X186183579Y-92301684D01*
X186169680Y-92285644D01*
X186135270Y-92238282D01*
X186135269Y-92238282D01*
X185584612Y-92788940D01*
X185579111Y-92768409D01*
X185500119Y-92631592D01*
X185388408Y-92519881D01*
X185251591Y-92440889D01*
X185231058Y-92435387D01*
X185781716Y-91884728D01*
X185734355Y-91850319D01*
X185691689Y-91794989D01*
X185685710Y-91725376D01*
X185699218Y-91689112D01*
X185755574Y-91589128D01*
X185231058Y-91064612D01*
X185251591Y-91059111D01*
X185388408Y-90980119D01*
X185500119Y-90868408D01*
X185579111Y-90731591D01*
X185584612Y-90711058D01*
X186135270Y-91261717D01*
X186135270Y-91261716D01*
X186169682Y-91214354D01*
X186225012Y-91171689D01*
X186294626Y-91165710D01*
X186356420Y-91198316D01*
X186370319Y-91214355D01*
X186404728Y-91261716D01*
X186955387Y-90711058D01*
X186960889Y-90731591D01*
G37*
%TD.AperFunction*%
%TA.AperFunction,Conductor*%
G36*
X222976813Y-85379723D02*
G01*
X223022569Y-85432526D01*
X223032513Y-85501685D01*
X223003489Y-85565241D01*
X222978666Y-85587141D01*
X222832248Y-85684974D01*
X222832234Y-85684985D01*
X222566367Y-85903176D01*
X222323176Y-86146367D01*
X222104985Y-86412234D01*
X222104975Y-86412248D01*
X221913904Y-86698206D01*
X221913893Y-86698224D01*
X221751772Y-87001530D01*
X221751770Y-87001535D01*
X221620150Y-87319293D01*
X221520308Y-87648427D01*
X221453210Y-87985750D01*
X221429512Y-88226376D01*
X221420937Y-88313446D01*
X221419500Y-88328034D01*
X221419500Y-88671965D01*
X221453210Y-89014249D01*
X221520308Y-89351572D01*
X221620150Y-89680706D01*
X221666436Y-89792449D01*
X221720599Y-89923212D01*
X221751770Y-89998464D01*
X221751772Y-89998469D01*
X221913893Y-90301775D01*
X221913897Y-90301782D01*
X221913900Y-90301787D01*
X222104978Y-90587756D01*
X222104985Y-90587765D01*
X222323176Y-90853632D01*
X222566367Y-91096823D01*
X222566372Y-91096827D01*
X222566373Y-91096828D01*
X222832240Y-91315019D01*
X223118213Y-91506100D01*
X223118222Y-91506105D01*
X223118224Y-91506106D01*
X223421530Y-91668227D01*
X223421532Y-91668227D01*
X223421538Y-91668231D01*
X223739295Y-91799850D01*
X224068422Y-91899690D01*
X224405750Y-91966789D01*
X224748031Y-92000500D01*
X224748034Y-92000500D01*
X225091966Y-92000500D01*
X225091969Y-92000500D01*
X225434250Y-91966789D01*
X225771578Y-91899690D01*
X226100705Y-91799850D01*
X226418462Y-91668231D01*
X226721787Y-91506100D01*
X227007760Y-91315019D01*
X227273627Y-91096828D01*
X227516828Y-90853627D01*
X227735019Y-90587760D01*
X227802856Y-90486233D01*
X227856468Y-90441429D01*
X227925792Y-90432722D01*
X227988820Y-90462876D01*
X228025540Y-90522319D01*
X228029958Y-90555126D01*
X228029519Y-132914219D01*
X228009834Y-132981259D01*
X227957029Y-133027013D01*
X227887871Y-133036956D01*
X227824315Y-133007930D01*
X227802419Y-132983111D01*
X227735019Y-132882240D01*
X227516828Y-132616373D01*
X227516827Y-132616372D01*
X227516823Y-132616367D01*
X227273632Y-132373176D01*
X227007765Y-132154985D01*
X227007764Y-132154984D01*
X227007760Y-132154981D01*
X226721787Y-131963900D01*
X226721782Y-131963897D01*
X226721775Y-131963893D01*
X226418469Y-131801772D01*
X226418464Y-131801770D01*
X226100706Y-131670150D01*
X225771572Y-131570308D01*
X225434248Y-131503210D01*
X225434249Y-131503210D01*
X225176456Y-131477821D01*
X225091969Y-131469500D01*
X224748031Y-131469500D01*
X224669966Y-131477188D01*
X224405750Y-131503210D01*
X224068427Y-131570308D01*
X223739293Y-131670150D01*
X223421535Y-131801770D01*
X223421530Y-131801772D01*
X223118224Y-131963893D01*
X223118206Y-131963904D01*
X222832248Y-132154975D01*
X222832234Y-132154985D01*
X222566367Y-132373176D01*
X222323176Y-132616367D01*
X222104985Y-132882234D01*
X222104975Y-132882248D01*
X221913904Y-133168206D01*
X221913893Y-133168224D01*
X221751772Y-133471530D01*
X221751770Y-133471535D01*
X221620150Y-133789293D01*
X221520308Y-134118427D01*
X221453210Y-134455750D01*
X221419500Y-134798034D01*
X221419500Y-135141965D01*
X221453210Y-135484249D01*
X221520308Y-135821572D01*
X221620150Y-136150706D01*
X221694209Y-136329500D01*
X221747375Y-136457855D01*
X221751770Y-136468464D01*
X221751772Y-136468469D01*
X221913893Y-136771775D01*
X221913897Y-136771782D01*
X221913900Y-136771787D01*
X221913903Y-136771792D01*
X221913904Y-136771793D01*
X222104975Y-137057751D01*
X222104985Y-137057765D01*
X222323176Y-137323632D01*
X222566366Y-137566822D01*
X222566371Y-137566826D01*
X222566373Y-137566828D01*
X222655132Y-137639671D01*
X222694467Y-137697416D01*
X222696338Y-137767261D01*
X222660151Y-137827029D01*
X222597395Y-137857745D01*
X222576469Y-137859524D01*
X196523211Y-137859788D01*
X196456172Y-137840104D01*
X196410416Y-137787301D01*
X196400472Y-137718142D01*
X196429496Y-137654586D01*
X196444541Y-137639938D01*
X196533627Y-137566828D01*
X196776828Y-137323627D01*
X196995019Y-137057760D01*
X197186100Y-136771787D01*
X197348231Y-136468462D01*
X197479850Y-136150705D01*
X197579690Y-135821578D01*
X197646789Y-135484250D01*
X197667352Y-135275466D01*
X200725000Y-135275466D01*
X200725000Y-135524533D01*
X200757508Y-135771463D01*
X200821973Y-136012049D01*
X200917283Y-136242148D01*
X200917288Y-136242159D01*
X201041813Y-136457841D01*
X201041819Y-136457849D01*
X201116400Y-136555045D01*
X201909152Y-135762292D01*
X201916049Y-135778942D01*
X202003599Y-135909970D01*
X202115030Y-136021401D01*
X202246058Y-136108951D01*
X202262705Y-136115846D01*
X201469953Y-136908598D01*
X201567150Y-136983180D01*
X201567158Y-136983186D01*
X201782840Y-137107711D01*
X201782851Y-137107716D01*
X202012950Y-137203026D01*
X202253536Y-137267491D01*
X202500466Y-137300000D01*
X202749534Y-137300000D01*
X202996463Y-137267491D01*
X203237049Y-137203026D01*
X203467148Y-137107716D01*
X203467159Y-137107711D01*
X203682855Y-136983178D01*
X203780045Y-136908600D01*
X203780045Y-136908597D01*
X203722391Y-136850943D01*
X205959500Y-136850943D01*
X205959500Y-137009057D01*
X205987542Y-137113709D01*
X206000423Y-137161783D01*
X206000426Y-137161790D01*
X206079475Y-137298709D01*
X206079479Y-137298714D01*
X206079480Y-137298716D01*
X206191284Y-137410520D01*
X206191286Y-137410521D01*
X206191290Y-137410524D01*
X206237057Y-137436947D01*
X206328216Y-137489577D01*
X206480943Y-137530500D01*
X206480945Y-137530500D01*
X206639055Y-137530500D01*
X206639057Y-137530500D01*
X206791784Y-137489577D01*
X206928716Y-137410520D01*
X206972417Y-137366819D01*
X207033740Y-137333334D01*
X207060098Y-137330500D01*
X207702725Y-137330500D01*
X207702727Y-137330500D01*
X207804588Y-137303207D01*
X207895913Y-137250480D01*
X208280103Y-136866288D01*
X208341424Y-136832805D01*
X208411115Y-136837789D01*
X208443268Y-136855595D01*
X208523216Y-136916941D01*
X208523220Y-136916943D01*
X208523226Y-136916948D01*
X208716274Y-137028405D01*
X208922219Y-137113710D01*
X209137537Y-137171404D01*
X209358543Y-137200500D01*
X209358550Y-137200500D01*
X209581450Y-137200500D01*
X209581457Y-137200500D01*
X209802463Y-137171404D01*
X210017781Y-137113710D01*
X210223726Y-137028405D01*
X210416774Y-136916948D01*
X210593624Y-136781247D01*
X210751247Y-136623624D01*
X210886948Y-136446774D01*
X210998405Y-136253726D01*
X211083710Y-136047781D01*
X211141404Y-135832463D01*
X211170500Y-135611457D01*
X211170500Y-135388543D01*
X211141404Y-135167537D01*
X211083710Y-134952219D01*
X210998405Y-134746274D01*
X210886948Y-134553226D01*
X210847867Y-134502294D01*
X210751248Y-134376377D01*
X210751242Y-134376370D01*
X210593629Y-134218757D01*
X210593622Y-134218751D01*
X210416782Y-134083058D01*
X210416780Y-134083057D01*
X210416774Y-134083052D01*
X210223726Y-133971595D01*
X210223722Y-133971593D01*
X210017790Y-133886293D01*
X210017783Y-133886291D01*
X210017781Y-133886290D01*
X209802463Y-133828596D01*
X209802457Y-133828595D01*
X209802452Y-133828594D01*
X209581466Y-133799501D01*
X209581463Y-133799500D01*
X209581457Y-133799500D01*
X209358543Y-133799500D01*
X209358537Y-133799500D01*
X209358533Y-133799501D01*
X209137547Y-133828594D01*
X209137540Y-133828595D01*
X209137537Y-133828596D01*
X208960503Y-133876032D01*
X208922219Y-133886290D01*
X208922209Y-133886293D01*
X208716277Y-133971593D01*
X208716273Y-133971595D01*
X208523226Y-134083052D01*
X208523217Y-134083058D01*
X208346377Y-134218751D01*
X208346370Y-134218757D01*
X208188757Y-134376370D01*
X208188751Y-134376377D01*
X208053058Y-134553217D01*
X208053052Y-134553226D01*
X207941595Y-134746273D01*
X207941593Y-134746277D01*
X207856293Y-134952209D01*
X207856290Y-134952219D01*
X207798597Y-135167534D01*
X207798594Y-135167547D01*
X207769501Y-135388533D01*
X207769500Y-135388549D01*
X207769500Y-135611450D01*
X207769501Y-135611466D01*
X207798594Y-135832452D01*
X207798595Y-135832457D01*
X207798596Y-135832463D01*
X207798597Y-135832465D01*
X207856290Y-136047780D01*
X207856293Y-136047790D01*
X207856665Y-136048687D01*
X207856696Y-136048976D01*
X207857598Y-136051634D01*
X207857003Y-136051835D01*
X207864134Y-136118156D01*
X207832859Y-136180636D01*
X207829785Y-136183821D01*
X207520426Y-136493181D01*
X207459103Y-136526666D01*
X207432745Y-136529500D01*
X207060098Y-136529500D01*
X206993059Y-136509815D01*
X206972417Y-136493181D01*
X206928717Y-136449481D01*
X206928709Y-136449475D01*
X206791790Y-136370426D01*
X206791786Y-136370424D01*
X206791784Y-136370423D01*
X206639057Y-136329500D01*
X206480943Y-136329500D01*
X206328216Y-136370423D01*
X206328209Y-136370426D01*
X206191290Y-136449475D01*
X206191282Y-136449481D01*
X206079481Y-136561282D01*
X206079475Y-136561290D01*
X206000426Y-136698209D01*
X206000423Y-136698216D01*
X205959500Y-136850943D01*
X203722391Y-136850943D01*
X202987294Y-136115846D01*
X203003942Y-136108951D01*
X203134970Y-136021401D01*
X203246401Y-135909970D01*
X203333951Y-135778942D01*
X203340846Y-135762294D01*
X204133597Y-136555045D01*
X204133600Y-136555045D01*
X204208178Y-136457855D01*
X204332711Y-136242159D01*
X204332716Y-136242148D01*
X204428026Y-136012049D01*
X204492491Y-135771463D01*
X204525000Y-135524533D01*
X204525000Y-135275466D01*
X204492491Y-135028536D01*
X204428026Y-134787950D01*
X204332716Y-134557851D01*
X204332711Y-134557840D01*
X204208186Y-134342158D01*
X204208180Y-134342150D01*
X204133598Y-134244953D01*
X203340846Y-135037705D01*
X203333951Y-135021058D01*
X203246401Y-134890030D01*
X203134970Y-134778599D01*
X203003942Y-134691049D01*
X202987292Y-134684152D01*
X203780045Y-133891400D01*
X203682849Y-133816819D01*
X203682841Y-133816813D01*
X203467159Y-133692288D01*
X203467148Y-133692283D01*
X203237049Y-133596973D01*
X202996463Y-133532508D01*
X202749534Y-133500000D01*
X202500466Y-133500000D01*
X202253536Y-133532508D01*
X202012950Y-133596973D01*
X201782851Y-133692283D01*
X201782847Y-133692285D01*
X201567143Y-133816823D01*
X201469953Y-133891399D01*
X201469953Y-133891400D01*
X202262706Y-134684153D01*
X202246058Y-134691049D01*
X202115030Y-134778599D01*
X202003599Y-134890030D01*
X201916049Y-135021058D01*
X201909153Y-135037706D01*
X201116400Y-134244953D01*
X201116399Y-134244953D01*
X201041823Y-134342143D01*
X200917285Y-134557847D01*
X200917283Y-134557851D01*
X200821973Y-134787950D01*
X200757508Y-135028536D01*
X200725000Y-135275466D01*
X197667352Y-135275466D01*
X197670098Y-135247590D01*
X197680500Y-135141966D01*
X197680500Y-134798034D01*
X197646789Y-134455750D01*
X197624191Y-134342143D01*
X197579690Y-134118422D01*
X197479850Y-133789295D01*
X197348231Y-133471538D01*
X197289515Y-133361689D01*
X197186106Y-133168224D01*
X197186105Y-133168222D01*
X197186100Y-133168213D01*
X196995019Y-132882240D01*
X196776828Y-132616373D01*
X196776827Y-132616372D01*
X196776823Y-132616367D01*
X196533632Y-132373176D01*
X196267765Y-132154985D01*
X196267764Y-132154984D01*
X196267760Y-132154981D01*
X195981787Y-131963900D01*
X195981782Y-131963897D01*
X195981775Y-131963893D01*
X195678469Y-131801772D01*
X195678464Y-131801770D01*
X195360706Y-131670150D01*
X195031572Y-131570308D01*
X194694248Y-131503210D01*
X194694249Y-131503210D01*
X194436456Y-131477821D01*
X194351969Y-131469500D01*
X194008031Y-131469500D01*
X193929966Y-131477188D01*
X193665750Y-131503210D01*
X193328427Y-131570308D01*
X192999293Y-131670150D01*
X192681535Y-131801770D01*
X192681530Y-131801772D01*
X192378224Y-131963893D01*
X192378206Y-131963904D01*
X192092248Y-132154975D01*
X192092234Y-132154985D01*
X191826367Y-132373176D01*
X191583176Y-132616367D01*
X191364985Y-132882234D01*
X191364975Y-132882248D01*
X191173904Y-133168206D01*
X191173893Y-133168224D01*
X191011772Y-133471530D01*
X191011770Y-133471535D01*
X190880150Y-133789293D01*
X190780308Y-134118427D01*
X190713210Y-134455750D01*
X190679500Y-134798034D01*
X190679500Y-135141965D01*
X190713210Y-135484249D01*
X190780308Y-135821572D01*
X190880150Y-136150706D01*
X190954209Y-136329500D01*
X191007375Y-136457855D01*
X191011770Y-136468464D01*
X191011772Y-136468469D01*
X191173893Y-136771775D01*
X191173897Y-136771782D01*
X191173900Y-136771787D01*
X191173903Y-136771792D01*
X191173904Y-136771793D01*
X191364975Y-137057751D01*
X191364985Y-137057765D01*
X191583176Y-137323632D01*
X191826366Y-137566822D01*
X191826371Y-137566826D01*
X191826373Y-137566828D01*
X191915511Y-137639982D01*
X191954846Y-137697727D01*
X191956717Y-137767572D01*
X191920530Y-137827340D01*
X191857774Y-137858056D01*
X191836848Y-137859835D01*
X177482982Y-137859980D01*
X177476029Y-137859785D01*
X177156227Y-137841828D01*
X177142409Y-137840271D01*
X176830056Y-137787201D01*
X176816499Y-137784107D01*
X176512047Y-137696397D01*
X176498921Y-137691804D01*
X176206208Y-137570559D01*
X176193680Y-137564526D01*
X175916380Y-137411268D01*
X175904606Y-137403870D01*
X175756394Y-137298709D01*
X175646202Y-137220524D01*
X175635344Y-137211865D01*
X175399091Y-137000737D01*
X175389260Y-136990906D01*
X175382354Y-136983178D01*
X175178133Y-136754653D01*
X175169477Y-136743799D01*
X175017424Y-136529500D01*
X174986129Y-136485393D01*
X174978731Y-136473619D01*
X174921697Y-136370423D01*
X174825469Y-136196312D01*
X174819443Y-136183799D01*
X174698194Y-135891077D01*
X174693602Y-135877952D01*
X174662923Y-135771463D01*
X174605891Y-135573499D01*
X174602798Y-135559943D01*
X174596782Y-135524533D01*
X174549726Y-135247580D01*
X174548172Y-135233783D01*
X174530212Y-134913947D01*
X174530018Y-134907010D01*
X174530491Y-132803389D01*
X176679500Y-132803389D01*
X176679500Y-132976611D01*
X176687483Y-133027013D01*
X176705310Y-133139573D01*
X176706598Y-133147701D01*
X176760127Y-133312445D01*
X176838768Y-133466788D01*
X176940586Y-133606928D01*
X177063072Y-133729414D01*
X177203212Y-133831232D01*
X177357555Y-133909873D01*
X177522299Y-133963402D01*
X177693389Y-133990500D01*
X177693390Y-133990500D01*
X177866610Y-133990500D01*
X177866611Y-133990500D01*
X178037701Y-133963402D01*
X178202445Y-133909873D01*
X178356788Y-133831232D01*
X178496928Y-133729414D01*
X178619414Y-133606928D01*
X178721232Y-133466788D01*
X178799873Y-133312445D01*
X178853402Y-133147701D01*
X178880500Y-132976611D01*
X178880500Y-132803389D01*
X178853402Y-132632299D01*
X178799873Y-132467555D01*
X178721232Y-132313212D01*
X178619414Y-132173072D01*
X178496928Y-132050586D01*
X178356788Y-131948768D01*
X178202445Y-131870127D01*
X178037701Y-131816598D01*
X178037699Y-131816597D01*
X178037698Y-131816597D01*
X177906271Y-131795781D01*
X177866611Y-131789500D01*
X177693389Y-131789500D01*
X177653728Y-131795781D01*
X177522302Y-131816597D01*
X177357552Y-131870128D01*
X177203211Y-131948768D01*
X177123256Y-132006859D01*
X177063072Y-132050586D01*
X177063070Y-132050588D01*
X177063069Y-132050588D01*
X176940588Y-132173069D01*
X176940588Y-132173070D01*
X176940586Y-132173072D01*
X176912825Y-132211282D01*
X176838768Y-132313211D01*
X176760128Y-132467552D01*
X176760127Y-132467554D01*
X176760127Y-132467555D01*
X176749278Y-132500945D01*
X176706597Y-132632302D01*
X176702360Y-132659055D01*
X176679500Y-132803389D01*
X174530491Y-132803389D01*
X174531090Y-130140000D01*
X183382769Y-130140000D01*
X184411518Y-130140000D01*
X184400889Y-130158409D01*
X184360000Y-130311009D01*
X184360000Y-130468991D01*
X184400889Y-130621591D01*
X184411518Y-130640000D01*
X183382769Y-130640000D01*
X183393242Y-130706126D01*
X183393242Y-130706129D01*
X183458904Y-130908217D01*
X183555379Y-131097557D01*
X183680272Y-131269459D01*
X183680276Y-131269464D01*
X183830535Y-131419723D01*
X183830540Y-131419727D01*
X183994560Y-131538894D01*
X184037226Y-131594223D01*
X184043205Y-131663837D01*
X184010600Y-131725632D01*
X183967166Y-131754566D01*
X183837658Y-131805638D01*
X183717077Y-131897077D01*
X183625639Y-132017656D01*
X183570122Y-132158438D01*
X183568365Y-132173072D01*
X183559500Y-132246898D01*
X183559500Y-133533102D01*
X183565126Y-133579954D01*
X183570122Y-133621561D01*
X183625639Y-133762343D01*
X183717077Y-133882922D01*
X183837656Y-133974360D01*
X183837657Y-133974360D01*
X183837658Y-133974361D01*
X183978436Y-134029877D01*
X184066898Y-134040500D01*
X184066903Y-134040500D01*
X185853097Y-134040500D01*
X185853102Y-134040500D01*
X185941564Y-134029877D01*
X186082342Y-133974361D01*
X186202922Y-133882922D01*
X186294361Y-133762342D01*
X186349877Y-133621564D01*
X186360500Y-133533102D01*
X186360500Y-132246898D01*
X186349877Y-132158436D01*
X186294361Y-132017658D01*
X186294360Y-132017657D01*
X186294360Y-132017656D01*
X186202922Y-131897077D01*
X186082341Y-131805638D01*
X185952833Y-131754566D01*
X185897690Y-131711660D01*
X185874497Y-131645752D01*
X185890618Y-131577768D01*
X185925439Y-131538893D01*
X186089466Y-131419721D01*
X186239723Y-131269464D01*
X186239727Y-131269459D01*
X186364620Y-131097557D01*
X186461095Y-130908217D01*
X186526757Y-130706129D01*
X186526757Y-130706126D01*
X186537231Y-130640000D01*
X185508482Y-130640000D01*
X185519111Y-130621591D01*
X185560000Y-130468991D01*
X185560000Y-130311009D01*
X185519111Y-130158409D01*
X185508482Y-130140000D01*
X186537231Y-130140000D01*
X186526757Y-130073873D01*
X186526757Y-130073870D01*
X186461095Y-129871782D01*
X186364620Y-129682442D01*
X186239727Y-129510540D01*
X186239723Y-129510535D01*
X186089464Y-129360276D01*
X186089459Y-129360272D01*
X185917557Y-129235379D01*
X185727488Y-129138533D01*
X185676692Y-129090558D01*
X185659897Y-129022737D01*
X185682435Y-128956602D01*
X185727489Y-128917563D01*
X185812994Y-128873996D01*
X185959501Y-128767553D01*
X186087553Y-128639501D01*
X186193996Y-128492994D01*
X186276211Y-128331639D01*
X186332171Y-128159409D01*
X186346765Y-128067259D01*
X186360500Y-127980551D01*
X186360500Y-127799448D01*
X186344019Y-127695397D01*
X186332171Y-127620591D01*
X186302691Y-127529859D01*
X186276212Y-127448363D01*
X186276211Y-127448360D01*
X186239745Y-127376793D01*
X186193996Y-127287006D01*
X186111219Y-127173072D01*
X186087558Y-127140505D01*
X186087554Y-127140500D01*
X185959499Y-127012445D01*
X185959494Y-127012441D01*
X185812997Y-126906006D01*
X185812996Y-126906005D01*
X185812994Y-126906004D01*
X185735124Y-126866327D01*
X185651639Y-126823788D01*
X185651636Y-126823787D01*
X185479410Y-126767829D01*
X185300551Y-126739500D01*
X185300546Y-126739500D01*
X184619454Y-126739500D01*
X184619449Y-126739500D01*
X184440589Y-126767829D01*
X184268363Y-126823787D01*
X184268360Y-126823788D01*
X184107002Y-126906006D01*
X183960505Y-127012441D01*
X183960500Y-127012445D01*
X183832445Y-127140500D01*
X183832441Y-127140505D01*
X183726006Y-127287002D01*
X183643788Y-127448360D01*
X183643787Y-127448363D01*
X183587829Y-127620589D01*
X183559500Y-127799448D01*
X183559500Y-127980551D01*
X183587829Y-128159410D01*
X183643787Y-128331636D01*
X183643788Y-128331639D01*
X183693578Y-128429355D01*
X183714923Y-128471247D01*
X183726006Y-128492997D01*
X183832441Y-128639494D01*
X183832445Y-128639499D01*
X183960500Y-128767554D01*
X183960505Y-128767558D01*
X184048146Y-128831232D01*
X184107006Y-128873996D01*
X184192511Y-128917563D01*
X184243307Y-128965538D01*
X184260102Y-129033359D01*
X184237565Y-129099494D01*
X184192511Y-129138533D01*
X184002442Y-129235379D01*
X183830540Y-129360272D01*
X183830535Y-129360276D01*
X183680276Y-129510535D01*
X183680272Y-129510540D01*
X183555379Y-129682442D01*
X183458904Y-129871782D01*
X183393242Y-130073870D01*
X183393242Y-130073873D01*
X183382769Y-130140000D01*
X174531090Y-130140000D01*
X174531616Y-127803389D01*
X176679500Y-127803389D01*
X176679500Y-127976610D01*
X176704868Y-128136782D01*
X176706598Y-128147701D01*
X176760127Y-128312445D01*
X176838768Y-128466788D01*
X176940586Y-128606928D01*
X177063072Y-128729414D01*
X177203212Y-128831232D01*
X177357555Y-128909873D01*
X177522299Y-128963402D01*
X177693389Y-128990500D01*
X177693390Y-128990500D01*
X177866610Y-128990500D01*
X177866611Y-128990500D01*
X178037701Y-128963402D01*
X178202445Y-128909873D01*
X178356788Y-128831232D01*
X178496928Y-128729414D01*
X178619414Y-128606928D01*
X178721232Y-128466788D01*
X178799873Y-128312445D01*
X178853402Y-128147701D01*
X178880500Y-127976611D01*
X178880500Y-127803389D01*
X178853402Y-127632299D01*
X178799873Y-127467555D01*
X178721232Y-127313212D01*
X178619414Y-127173072D01*
X178496928Y-127050586D01*
X178356788Y-126948768D01*
X178202445Y-126870127D01*
X178037701Y-126816598D01*
X178037699Y-126816597D01*
X178037698Y-126816597D01*
X177906271Y-126795781D01*
X177866611Y-126789500D01*
X177693389Y-126789500D01*
X177653728Y-126795781D01*
X177522302Y-126816597D01*
X177357552Y-126870128D01*
X177203211Y-126948768D01*
X177127394Y-127003853D01*
X177063072Y-127050586D01*
X177063070Y-127050588D01*
X177063069Y-127050588D01*
X176940588Y-127173069D01*
X176940588Y-127173070D01*
X176940586Y-127173072D01*
X176896989Y-127233078D01*
X176838768Y-127313211D01*
X176760128Y-127467552D01*
X176706597Y-127632302D01*
X176679500Y-127803389D01*
X174531616Y-127803389D01*
X174532632Y-123288806D01*
X176765477Y-123288806D01*
X176765477Y-123462028D01*
X176792575Y-123633118D01*
X176846104Y-123797862D01*
X176924745Y-123952205D01*
X177026563Y-124092345D01*
X177149049Y-124214831D01*
X177289189Y-124316649D01*
X177443532Y-124395290D01*
X177608276Y-124448819D01*
X177779366Y-124475917D01*
X177779367Y-124475917D01*
X177952587Y-124475917D01*
X177952588Y-124475917D01*
X178123678Y-124448819D01*
X178288422Y-124395290D01*
X178442765Y-124316649D01*
X178582905Y-124214831D01*
X178705391Y-124092345D01*
X178807209Y-123952205D01*
X178885850Y-123797862D01*
X178939379Y-123633118D01*
X178966477Y-123462028D01*
X178966477Y-123288806D01*
X178939379Y-123117716D01*
X178885850Y-122952972D01*
X178807209Y-122798629D01*
X178705391Y-122658489D01*
X178582905Y-122536003D01*
X178442765Y-122434185D01*
X178288422Y-122355544D01*
X178123678Y-122302015D01*
X178123676Y-122302014D01*
X178123675Y-122302014D01*
X177992248Y-122281198D01*
X177952588Y-122274917D01*
X177779366Y-122274917D01*
X177739705Y-122281198D01*
X177608279Y-122302014D01*
X177443529Y-122355545D01*
X177289188Y-122434185D01*
X177209233Y-122492276D01*
X177149049Y-122536003D01*
X177149047Y-122536005D01*
X177149046Y-122536005D01*
X177026565Y-122658486D01*
X177026565Y-122658487D01*
X177026563Y-122658489D01*
X177007169Y-122685183D01*
X176924745Y-122798628D01*
X176846105Y-122952969D01*
X176792574Y-123117719D01*
X176766253Y-123283906D01*
X176765477Y-123288806D01*
X174532632Y-123288806D01*
X174533194Y-120788806D01*
X176765477Y-120788806D01*
X176765477Y-120962028D01*
X176766100Y-120965963D01*
X176777893Y-121040423D01*
X176792575Y-121133118D01*
X176846104Y-121297862D01*
X176924745Y-121452205D01*
X177026563Y-121592345D01*
X177149049Y-121714831D01*
X177289189Y-121816649D01*
X177443532Y-121895290D01*
X177608276Y-121948819D01*
X177779366Y-121975917D01*
X177779367Y-121975917D01*
X177952587Y-121975917D01*
X177952588Y-121975917D01*
X178123678Y-121948819D01*
X178288422Y-121895290D01*
X178442765Y-121816649D01*
X178582905Y-121714831D01*
X178705391Y-121592345D01*
X178807209Y-121452205D01*
X178885850Y-121297862D01*
X178939379Y-121133118D01*
X178966477Y-120962028D01*
X178966477Y-120788806D01*
X178965853Y-120784865D01*
X183645477Y-120784865D01*
X183645477Y-120965968D01*
X183673806Y-121144827D01*
X183729764Y-121317053D01*
X183729765Y-121317056D01*
X183760550Y-121377473D01*
X183798628Y-121452205D01*
X183811983Y-121478414D01*
X183918418Y-121624911D01*
X183918422Y-121624916D01*
X184046477Y-121752971D01*
X184046482Y-121752975D01*
X184134123Y-121816649D01*
X184192983Y-121859413D01*
X184298461Y-121913157D01*
X184354337Y-121941628D01*
X184354340Y-121941629D01*
X184481626Y-121982986D01*
X184539301Y-122022423D01*
X184566500Y-122086781D01*
X184554586Y-122155628D01*
X184507342Y-122207104D01*
X184443308Y-122224917D01*
X184152875Y-122224917D01*
X184113830Y-122229605D01*
X184064415Y-122235539D01*
X183923633Y-122291056D01*
X183803054Y-122382494D01*
X183711616Y-122503073D01*
X183656099Y-122643855D01*
X183654342Y-122658489D01*
X183645477Y-122732315D01*
X183645477Y-124018519D01*
X183651103Y-124065371D01*
X183656099Y-124106978D01*
X183711616Y-124247760D01*
X183803054Y-124368339D01*
X183923633Y-124459777D01*
X183923634Y-124459777D01*
X183923635Y-124459778D01*
X184064413Y-124515294D01*
X184152875Y-124525917D01*
X184152880Y-124525917D01*
X185939074Y-124525917D01*
X185939079Y-124525917D01*
X186027541Y-124515294D01*
X186168319Y-124459778D01*
X186288899Y-124368339D01*
X186380338Y-124247759D01*
X186400247Y-124197273D01*
X195599500Y-124197273D01*
X195599500Y-128502726D01*
X195626793Y-128604589D01*
X195646946Y-128639494D01*
X195679520Y-128695913D01*
X195679522Y-128695915D01*
X198973181Y-131989574D01*
X198987884Y-132016501D01*
X199004477Y-132042320D01*
X199005368Y-132048520D01*
X199006666Y-132050897D01*
X199009500Y-132077255D01*
X199009500Y-132079902D01*
X198989815Y-132146941D01*
X198973181Y-132167583D01*
X198929481Y-132211282D01*
X198929475Y-132211290D01*
X198850426Y-132348209D01*
X198850423Y-132348216D01*
X198809500Y-132500943D01*
X198809500Y-132659056D01*
X198850423Y-132811783D01*
X198850426Y-132811790D01*
X198929475Y-132948709D01*
X198929479Y-132948714D01*
X198929480Y-132948716D01*
X199041284Y-133060520D01*
X199041286Y-133060521D01*
X199041290Y-133060524D01*
X199178209Y-133139573D01*
X199178216Y-133139577D01*
X199330943Y-133180500D01*
X199330945Y-133180500D01*
X199489055Y-133180500D01*
X199489057Y-133180500D01*
X199641784Y-133139577D01*
X199778716Y-133060520D01*
X199890520Y-132948716D01*
X199969577Y-132811784D01*
X200010500Y-132659057D01*
X200010500Y-132500943D01*
X199969577Y-132348216D01*
X199949367Y-132313211D01*
X199890524Y-132211290D01*
X199890518Y-132211282D01*
X199846819Y-132167583D01*
X199813334Y-132106260D01*
X199810500Y-132079902D01*
X199810500Y-131807275D01*
X199810499Y-131807271D01*
X199810061Y-131805638D01*
X199795187Y-131750123D01*
X199783207Y-131705412D01*
X199730480Y-131614087D01*
X197177336Y-129060943D01*
X198989500Y-129060943D01*
X198989500Y-129219057D01*
X199027340Y-129360276D01*
X199030423Y-129371783D01*
X199030426Y-129371790D01*
X199109475Y-129508709D01*
X199109479Y-129508714D01*
X199109480Y-129508716D01*
X199221284Y-129620520D01*
X199221286Y-129620521D01*
X199221290Y-129620524D01*
X199351056Y-129695443D01*
X199358216Y-129699577D01*
X199510943Y-129740500D01*
X199510945Y-129740500D01*
X199669055Y-129740500D01*
X199669057Y-129740500D01*
X199821784Y-129699577D01*
X199958716Y-129620520D01*
X200070520Y-129508716D01*
X200149577Y-129371784D01*
X200190500Y-129219057D01*
X200190500Y-129157254D01*
X200199144Y-129127813D01*
X200205668Y-129097827D01*
X200209422Y-129092811D01*
X200210185Y-129090215D01*
X200226819Y-129069573D01*
X200359573Y-128936819D01*
X200420896Y-128903334D01*
X200447254Y-128900500D01*
X207544861Y-128900500D01*
X207611900Y-128920185D01*
X207657655Y-128972989D01*
X207664634Y-128992401D01*
X207675002Y-129031094D01*
X207675005Y-129031101D01*
X207754054Y-129168020D01*
X207754058Y-129168025D01*
X207754059Y-129168027D01*
X207865863Y-129279831D01*
X207865865Y-129279832D01*
X207865869Y-129279835D01*
X207954983Y-129331284D01*
X208002795Y-129358888D01*
X208155522Y-129399811D01*
X208155524Y-129399811D01*
X208313634Y-129399811D01*
X208313636Y-129399811D01*
X208466363Y-129358888D01*
X208603295Y-129279831D01*
X208715099Y-129168027D01*
X208794156Y-129031095D01*
X208835079Y-128878368D01*
X208835079Y-128720254D01*
X208794156Y-128567527D01*
X208794151Y-128567519D01*
X208793016Y-128564777D01*
X208792745Y-128562266D01*
X208792052Y-128559676D01*
X208792455Y-128559567D01*
X208785546Y-128495308D01*
X208816819Y-128432828D01*
X208876907Y-128397174D01*
X208946732Y-128399665D01*
X208969575Y-128409933D01*
X209003216Y-128429356D01*
X209155943Y-128470279D01*
X209155945Y-128470279D01*
X209314055Y-128470279D01*
X209314057Y-128470279D01*
X209466784Y-128429356D01*
X209603716Y-128350299D01*
X209715520Y-128238495D01*
X209794577Y-128101563D01*
X209835500Y-127948836D01*
X209835500Y-127948823D01*
X209836441Y-127941680D01*
X209864707Y-127877782D01*
X209871688Y-127870193D01*
X210290489Y-127451393D01*
X210333559Y-127376793D01*
X210349799Y-127348665D01*
X210380500Y-127234088D01*
X210380500Y-122374343D01*
X210699500Y-122374343D01*
X210699500Y-122532457D01*
X210733270Y-122658486D01*
X210740423Y-122685183D01*
X210740426Y-122685190D01*
X210819475Y-122822109D01*
X210819479Y-122822114D01*
X210819480Y-122822116D01*
X210931284Y-122933920D01*
X210931286Y-122933921D01*
X210931290Y-122933924D01*
X211068209Y-123012973D01*
X211068216Y-123012977D01*
X211220943Y-123053900D01*
X211220945Y-123053900D01*
X211379055Y-123053900D01*
X211379057Y-123053900D01*
X211531784Y-123012977D01*
X211668716Y-122933920D01*
X211712417Y-122890219D01*
X211773740Y-122856734D01*
X211800098Y-122853900D01*
X212549125Y-122853900D01*
X212549127Y-122853900D01*
X212650988Y-122826607D01*
X212742313Y-122773880D01*
X213260973Y-122255218D01*
X213322296Y-122221734D01*
X213348654Y-122218900D01*
X224461725Y-122218900D01*
X224461727Y-122218900D01*
X224563588Y-122191607D01*
X224654913Y-122138880D01*
X225387819Y-121405974D01*
X225449142Y-121372489D01*
X225518834Y-121377473D01*
X225574767Y-121419345D01*
X225599184Y-121484809D01*
X225599500Y-121493655D01*
X225599500Y-126850140D01*
X225579815Y-126917179D01*
X225527011Y-126962934D01*
X225457853Y-126972878D01*
X225394297Y-126943853D01*
X225356523Y-126885075D01*
X225352561Y-126866327D01*
X225351404Y-126857537D01*
X225293710Y-126642219D01*
X225208405Y-126436274D01*
X225096948Y-126243226D01*
X224961247Y-126066376D01*
X224961242Y-126066370D01*
X224803629Y-125908757D01*
X224803622Y-125908751D01*
X224626782Y-125773058D01*
X224626780Y-125773057D01*
X224626774Y-125773052D01*
X224433726Y-125661595D01*
X224433722Y-125661593D01*
X224227790Y-125576293D01*
X224227783Y-125576291D01*
X224227781Y-125576290D01*
X224012463Y-125518596D01*
X224012457Y-125518595D01*
X224012452Y-125518594D01*
X223791466Y-125489501D01*
X223791463Y-125489500D01*
X223791457Y-125489500D01*
X223568543Y-125489500D01*
X223568537Y-125489500D01*
X223568533Y-125489501D01*
X223347547Y-125518594D01*
X223347540Y-125518595D01*
X223347537Y-125518596D01*
X223132219Y-125576290D01*
X223132209Y-125576293D01*
X222926277Y-125661593D01*
X222926273Y-125661595D01*
X222733226Y-125773052D01*
X222733217Y-125773058D01*
X222556377Y-125908751D01*
X222556370Y-125908757D01*
X222398757Y-126066370D01*
X222398751Y-126066377D01*
X222263058Y-126243217D01*
X222263052Y-126243226D01*
X222151595Y-126436273D01*
X222151593Y-126436277D01*
X222066293Y-126642209D01*
X222066290Y-126642219D01*
X222026827Y-126789500D01*
X222008597Y-126857534D01*
X222008594Y-126857547D01*
X221979501Y-127078533D01*
X221979500Y-127078549D01*
X221979500Y-127301450D01*
X221979501Y-127301466D01*
X222008594Y-127522452D01*
X222008595Y-127522457D01*
X222008596Y-127522463D01*
X222038027Y-127632302D01*
X222066290Y-127737780D01*
X222066293Y-127737790D01*
X222151593Y-127943722D01*
X222151595Y-127943726D01*
X222263052Y-128136774D01*
X222263057Y-128136780D01*
X222263058Y-128136782D01*
X222398751Y-128313622D01*
X222398757Y-128313629D01*
X222556370Y-128471242D01*
X222556377Y-128471248D01*
X222671620Y-128559676D01*
X222733226Y-128606948D01*
X222926274Y-128718405D01*
X223132219Y-128803710D01*
X223257595Y-128837304D01*
X223281370Y-128851796D01*
X223306703Y-128863365D01*
X223310793Y-128869730D01*
X223317254Y-128873668D01*
X223329421Y-128898715D01*
X223344477Y-128922143D01*
X223346022Y-128932890D01*
X223347783Y-128936515D01*
X223349500Y-128957078D01*
X223349500Y-129016795D01*
X223329815Y-129083834D01*
X223277011Y-129129589D01*
X223257599Y-129136568D01*
X223243221Y-129140421D01*
X223243209Y-129140426D01*
X223106290Y-129219475D01*
X223106282Y-129219481D01*
X222994481Y-129331282D01*
X222994475Y-129331290D01*
X222915426Y-129468209D01*
X222915423Y-129468216D01*
X222874500Y-129620943D01*
X222874500Y-129779057D01*
X222890664Y-129839380D01*
X222915423Y-129931783D01*
X222915426Y-129931790D01*
X222994475Y-130068709D01*
X222994481Y-130068717D01*
X223072783Y-130147019D01*
X223106268Y-130208342D01*
X223101284Y-130278034D01*
X223059412Y-130333967D01*
X222993948Y-130358384D01*
X222985102Y-130358700D01*
X219004600Y-130358700D01*
X218937561Y-130339015D01*
X218891806Y-130286211D01*
X218883633Y-130248643D01*
X218881661Y-130248903D01*
X218880600Y-130240850D01*
X218880600Y-130240843D01*
X218839677Y-130088116D01*
X218828477Y-130068716D01*
X218760624Y-129951190D01*
X218760618Y-129951182D01*
X218648817Y-129839381D01*
X218648809Y-129839375D01*
X218511890Y-129760326D01*
X218511886Y-129760324D01*
X218511884Y-129760323D01*
X218359157Y-129719400D01*
X218201043Y-129719400D01*
X218048316Y-129760323D01*
X218048309Y-129760326D01*
X217911390Y-129839375D01*
X217911382Y-129839381D01*
X217872181Y-129878583D01*
X217810858Y-129912068D01*
X217741166Y-129907084D01*
X217685233Y-129865212D01*
X217660816Y-129799748D01*
X217660500Y-129790902D01*
X217660500Y-129397275D01*
X217660500Y-129397273D01*
X217633207Y-129295413D01*
X217580480Y-129204087D01*
X217505913Y-129129520D01*
X217421819Y-129045426D01*
X217388334Y-128984103D01*
X217385500Y-128957745D01*
X217385500Y-128895945D01*
X217385500Y-128895943D01*
X217344577Y-128743216D01*
X217344573Y-128743209D01*
X217265524Y-128606290D01*
X217265518Y-128606282D01*
X217153717Y-128494481D01*
X217153709Y-128494475D01*
X217016790Y-128415426D01*
X217016786Y-128415424D01*
X217016784Y-128415423D01*
X216864057Y-128374500D01*
X216705943Y-128374500D01*
X216553216Y-128415423D01*
X216553209Y-128415426D01*
X216416290Y-128494475D01*
X216416282Y-128494481D01*
X216304481Y-128606282D01*
X216304475Y-128606290D01*
X216225426Y-128743209D01*
X216225423Y-128743216D01*
X216184500Y-128895943D01*
X216184500Y-129054057D01*
X216224701Y-129204087D01*
X216225423Y-129206783D01*
X216225426Y-129206790D01*
X216304475Y-129343709D01*
X216304479Y-129343714D01*
X216304480Y-129343716D01*
X216416284Y-129455520D01*
X216416286Y-129455521D01*
X216416290Y-129455524D01*
X216511582Y-129510540D01*
X216553216Y-129534577D01*
X216705943Y-129575500D01*
X216735500Y-129575500D01*
X216802539Y-129595185D01*
X216848294Y-129647989D01*
X216859500Y-129699500D01*
X216859500Y-133714432D01*
X216839815Y-133781471D01*
X216787011Y-133827226D01*
X216717853Y-133837170D01*
X216703409Y-133834207D01*
X216682481Y-133828600D01*
X216682459Y-133828595D01*
X216461466Y-133799501D01*
X216461463Y-133799500D01*
X216461457Y-133799500D01*
X216238543Y-133799500D01*
X216238537Y-133799500D01*
X216238533Y-133799501D01*
X216017547Y-133828594D01*
X216017540Y-133828595D01*
X216017537Y-133828596D01*
X215840503Y-133876032D01*
X215802219Y-133886290D01*
X215802209Y-133886293D01*
X215596277Y-133971593D01*
X215596273Y-133971595D01*
X215403226Y-134083052D01*
X215403217Y-134083058D01*
X215226377Y-134218751D01*
X215226370Y-134218757D01*
X215068757Y-134376370D01*
X215068751Y-134376377D01*
X214933058Y-134553217D01*
X214933052Y-134553226D01*
X214821595Y-134746273D01*
X214821593Y-134746277D01*
X214736293Y-134952209D01*
X214736290Y-134952219D01*
X214678597Y-135167534D01*
X214678594Y-135167547D01*
X214649501Y-135388533D01*
X214649500Y-135388549D01*
X214649500Y-135611450D01*
X214649501Y-135611466D01*
X214678594Y-135832452D01*
X214678595Y-135832457D01*
X214678596Y-135832463D01*
X214678597Y-135832465D01*
X214736290Y-136047780D01*
X214736293Y-136047790D01*
X214821593Y-136253722D01*
X214821595Y-136253726D01*
X214933052Y-136446774D01*
X214933057Y-136446780D01*
X214933058Y-136446782D01*
X215068751Y-136623622D01*
X215068757Y-136623629D01*
X215226370Y-136781242D01*
X215226376Y-136781247D01*
X215403226Y-136916948D01*
X215596274Y-137028405D01*
X215802219Y-137113710D01*
X216017537Y-137171404D01*
X216238543Y-137200500D01*
X216238550Y-137200500D01*
X216461450Y-137200500D01*
X216461457Y-137200500D01*
X216682463Y-137171404D01*
X216897781Y-137113710D01*
X217103726Y-137028405D01*
X217296774Y-136916948D01*
X217473624Y-136781247D01*
X217631247Y-136623624D01*
X217766948Y-136446774D01*
X217878405Y-136253726D01*
X217963710Y-136047781D01*
X218021404Y-135832463D01*
X218050500Y-135611457D01*
X218050500Y-135388543D01*
X218021404Y-135167537D01*
X217963710Y-134952219D01*
X217878405Y-134746274D01*
X217766948Y-134553226D01*
X217686124Y-134447893D01*
X217660930Y-134382724D01*
X217660500Y-134372407D01*
X217660500Y-130848898D01*
X217680185Y-130781859D01*
X217732989Y-130736104D01*
X217802147Y-130726160D01*
X217865703Y-130755185D01*
X217872181Y-130761217D01*
X217911384Y-130800420D01*
X217911386Y-130800421D01*
X217911390Y-130800424D01*
X217995351Y-130848898D01*
X218048316Y-130879477D01*
X218201043Y-130920400D01*
X218262845Y-130920400D01*
X218329884Y-130940085D01*
X218350526Y-130956719D01*
X218473487Y-131079680D01*
X218564812Y-131132407D01*
X218666673Y-131159700D01*
X218666675Y-131159700D01*
X224614125Y-131159700D01*
X224614127Y-131159700D01*
X224715988Y-131132407D01*
X224807313Y-131079680D01*
X226235703Y-129651287D01*
X226235708Y-129651284D01*
X226245911Y-129641080D01*
X226245913Y-129641080D01*
X226320480Y-129566513D01*
X226373207Y-129475187D01*
X226378861Y-129454087D01*
X226400501Y-129373327D01*
X226400501Y-129267873D01*
X226400501Y-129260278D01*
X226400500Y-129260260D01*
X226400500Y-118530098D01*
X226420185Y-118463059D01*
X226436819Y-118442417D01*
X226480520Y-118398716D01*
X226559577Y-118261784D01*
X226600500Y-118109057D01*
X226600500Y-117950943D01*
X226559577Y-117798216D01*
X226559573Y-117798209D01*
X226480524Y-117661290D01*
X226480518Y-117661282D01*
X226368717Y-117549481D01*
X226368709Y-117549475D01*
X226231790Y-117470426D01*
X226231786Y-117470424D01*
X226231784Y-117470423D01*
X226079057Y-117429500D01*
X225920943Y-117429500D01*
X225768216Y-117470423D01*
X225768209Y-117470426D01*
X225631290Y-117549475D01*
X225631282Y-117549481D01*
X225519481Y-117661282D01*
X225519475Y-117661290D01*
X225440426Y-117798209D01*
X225440423Y-117798216D01*
X225399500Y-117950943D01*
X225399500Y-117950945D01*
X225397719Y-117957593D01*
X225361354Y-118017254D01*
X225298507Y-118047783D01*
X225277944Y-118049500D01*
X225180843Y-118049500D01*
X225028116Y-118090423D01*
X225028109Y-118090426D01*
X224891190Y-118169475D01*
X224891182Y-118169481D01*
X224779381Y-118281282D01*
X224779375Y-118281290D01*
X224700326Y-118418209D01*
X224700323Y-118418216D01*
X224659400Y-118570943D01*
X224659400Y-118729056D01*
X224700323Y-118881783D01*
X224700326Y-118881790D01*
X224779375Y-119018709D01*
X224779381Y-119018717D01*
X224823081Y-119062417D01*
X224856566Y-119123740D01*
X224859400Y-119150098D01*
X224859400Y-120750245D01*
X224839715Y-120817284D01*
X224823081Y-120837926D01*
X224279426Y-121381581D01*
X224218103Y-121415066D01*
X224191745Y-121417900D01*
X213191739Y-121417900D01*
X213191723Y-121417899D01*
X213184127Y-121417899D01*
X213078673Y-121417899D01*
X213010766Y-121436095D01*
X212976812Y-121445193D01*
X212919278Y-121478411D01*
X212892875Y-121493655D01*
X212885484Y-121497922D01*
X212366826Y-122016581D01*
X212305503Y-122050066D01*
X212279145Y-122052900D01*
X211800098Y-122052900D01*
X211733059Y-122033215D01*
X211712417Y-122016581D01*
X211668717Y-121972881D01*
X211668709Y-121972875D01*
X211531790Y-121893826D01*
X211531786Y-121893824D01*
X211531784Y-121893823D01*
X211379057Y-121852900D01*
X211220943Y-121852900D01*
X211068216Y-121893823D01*
X211068209Y-121893826D01*
X210931290Y-121972875D01*
X210931282Y-121972881D01*
X210819481Y-122084682D01*
X210819475Y-122084690D01*
X210740426Y-122221609D01*
X210740423Y-122221616D01*
X210699500Y-122374343D01*
X210380500Y-122374343D01*
X210380500Y-122299930D01*
X210400185Y-122232891D01*
X210406128Y-122224438D01*
X210410512Y-122218723D01*
X210410520Y-122218716D01*
X210489577Y-122081784D01*
X210530500Y-121929057D01*
X210530500Y-121770943D01*
X210489577Y-121618216D01*
X210420125Y-121497920D01*
X210410524Y-121481290D01*
X210410518Y-121481282D01*
X210298717Y-121369481D01*
X210298709Y-121369475D01*
X210161790Y-121290426D01*
X210161786Y-121290424D01*
X210161784Y-121290423D01*
X210009057Y-121249500D01*
X209850943Y-121249500D01*
X209698216Y-121290423D01*
X209698209Y-121290426D01*
X209561290Y-121369475D01*
X209561282Y-121369481D01*
X209449481Y-121481282D01*
X209449475Y-121481290D01*
X209370426Y-121618209D01*
X209370423Y-121618216D01*
X209329500Y-121770943D01*
X209329500Y-121929057D01*
X209354518Y-122022423D01*
X209370423Y-122081783D01*
X209370426Y-122081790D01*
X209449473Y-122218706D01*
X209449477Y-122218712D01*
X209449480Y-122218716D01*
X209449482Y-122218718D01*
X209453872Y-122224438D01*
X209479069Y-122289606D01*
X209479500Y-122299930D01*
X209479500Y-126936814D01*
X209459815Y-127003853D01*
X209443181Y-127024495D01*
X209234597Y-127233078D01*
X209173274Y-127266563D01*
X209163107Y-127268335D01*
X209155949Y-127269277D01*
X209003216Y-127310202D01*
X209003209Y-127310205D01*
X208866290Y-127389254D01*
X208866282Y-127389260D01*
X208754481Y-127501061D01*
X208754475Y-127501069D01*
X208675426Y-127637988D01*
X208675423Y-127637995D01*
X208634500Y-127790722D01*
X208634500Y-127948836D01*
X208674870Y-128099500D01*
X208675424Y-128101565D01*
X208676564Y-128104318D01*
X208676833Y-128106826D01*
X208677527Y-128109414D01*
X208677123Y-128109522D01*
X208684031Y-128173787D01*
X208652755Y-128236266D01*
X208592666Y-128271917D01*
X208522840Y-128269422D01*
X208500003Y-128259156D01*
X208466363Y-128239734D01*
X208453420Y-128236266D01*
X208313636Y-128198811D01*
X208313635Y-128198811D01*
X208247819Y-128198811D01*
X208185818Y-128182198D01*
X208181182Y-128179521D01*
X208181181Y-128179520D01*
X208126069Y-128147701D01*
X208089857Y-128126793D01*
X208024995Y-128109414D01*
X207987995Y-128099500D01*
X207987994Y-128099500D01*
X200290339Y-128099500D01*
X200290323Y-128099499D01*
X200282727Y-128099499D01*
X200177273Y-128099499D01*
X200109366Y-128117695D01*
X200075412Y-128126793D01*
X199984084Y-128179522D01*
X199660426Y-128503181D01*
X199599103Y-128536666D01*
X199572745Y-128539500D01*
X199510943Y-128539500D01*
X199358216Y-128580423D01*
X199358209Y-128580426D01*
X199221290Y-128659475D01*
X199221282Y-128659481D01*
X199109481Y-128771282D01*
X199109475Y-128771290D01*
X199030426Y-128908209D01*
X199030423Y-128908216D01*
X198989500Y-129060943D01*
X197177336Y-129060943D01*
X196436819Y-128320426D01*
X196403334Y-128259103D01*
X196400500Y-128232745D01*
X196400500Y-124467255D01*
X196420185Y-124400216D01*
X196436819Y-124379574D01*
X196864188Y-123952205D01*
X197520480Y-123295913D01*
X197573207Y-123204588D01*
X197600500Y-123102727D01*
X197600500Y-122997273D01*
X197600500Y-122100098D01*
X197620185Y-122033059D01*
X197636819Y-122012417D01*
X197651648Y-121997588D01*
X197680520Y-121968716D01*
X197759577Y-121831784D01*
X197800500Y-121679057D01*
X197800500Y-121520943D01*
X197759577Y-121368216D01*
X197730040Y-121317056D01*
X197680524Y-121231290D01*
X197680518Y-121231282D01*
X197568717Y-121119481D01*
X197568709Y-121119475D01*
X197431790Y-121040426D01*
X197431786Y-121040424D01*
X197431784Y-121040423D01*
X197279057Y-120999500D01*
X197120943Y-120999500D01*
X196968216Y-121040423D01*
X196968209Y-121040426D01*
X196831290Y-121119475D01*
X196831282Y-121119481D01*
X196719481Y-121231282D01*
X196719475Y-121231290D01*
X196640426Y-121368209D01*
X196640423Y-121368216D01*
X196599500Y-121520943D01*
X196599500Y-121679057D01*
X196636368Y-121816648D01*
X196640423Y-121831783D01*
X196640426Y-121831790D01*
X196719475Y-121968709D01*
X196719481Y-121968717D01*
X196763181Y-122012417D01*
X196796666Y-122073740D01*
X196799500Y-122100098D01*
X196799500Y-122832745D01*
X196779815Y-122899784D01*
X196763181Y-122920426D01*
X195679522Y-124004084D01*
X195679518Y-124004090D01*
X195626792Y-124095412D01*
X195626793Y-124095413D01*
X195599500Y-124197273D01*
X186400247Y-124197273D01*
X186435854Y-124106981D01*
X186446477Y-124018519D01*
X186446477Y-122732315D01*
X186435854Y-122643853D01*
X186380338Y-122503075D01*
X186380337Y-122503074D01*
X186380337Y-122503073D01*
X186288899Y-122382494D01*
X186168320Y-122291056D01*
X186072169Y-122253139D01*
X186027541Y-122235540D01*
X186027540Y-122235539D01*
X186027538Y-122235539D01*
X185981903Y-122230059D01*
X185939079Y-122224917D01*
X185648646Y-122224917D01*
X185581607Y-122205232D01*
X185535852Y-122152428D01*
X185525908Y-122083270D01*
X185554933Y-122019714D01*
X185610328Y-121982986D01*
X185737613Y-121941629D01*
X185737616Y-121941628D01*
X185898971Y-121859413D01*
X186045478Y-121752970D01*
X186173530Y-121624918D01*
X186279973Y-121478411D01*
X186362188Y-121317056D01*
X186418148Y-121144826D01*
X186434684Y-121040423D01*
X186446477Y-120965968D01*
X186446477Y-120784865D01*
X186423169Y-120637709D01*
X186418148Y-120606008D01*
X186383959Y-120500783D01*
X186362189Y-120433780D01*
X186362188Y-120433777D01*
X186333717Y-120377901D01*
X186279973Y-120272423D01*
X186197196Y-120158489D01*
X186173535Y-120125922D01*
X186173531Y-120125917D01*
X186045476Y-119997862D01*
X186045471Y-119997858D01*
X185898974Y-119891423D01*
X185898973Y-119891422D01*
X185898971Y-119891421D01*
X185815353Y-119848815D01*
X185737616Y-119809205D01*
X185737613Y-119809204D01*
X185565387Y-119753246D01*
X185386528Y-119724917D01*
X185386523Y-119724917D01*
X184705431Y-119724917D01*
X184705426Y-119724917D01*
X184526566Y-119753246D01*
X184354340Y-119809204D01*
X184354337Y-119809205D01*
X184192979Y-119891423D01*
X184046482Y-119997858D01*
X184046477Y-119997862D01*
X183918422Y-120125917D01*
X183918418Y-120125922D01*
X183811983Y-120272419D01*
X183729765Y-120433777D01*
X183729764Y-120433780D01*
X183673806Y-120606006D01*
X183645477Y-120784865D01*
X178965853Y-120784865D01*
X178939379Y-120617716D01*
X178885850Y-120452972D01*
X178807209Y-120298629D01*
X178705391Y-120158489D01*
X178582905Y-120036003D01*
X178442765Y-119934185D01*
X178288422Y-119855544D01*
X178123678Y-119802015D01*
X178123676Y-119802014D01*
X178123675Y-119802014D01*
X177992248Y-119781198D01*
X177952588Y-119774917D01*
X177779366Y-119774917D01*
X177747169Y-119780016D01*
X177608278Y-119802014D01*
X177608279Y-119802014D01*
X177443529Y-119855545D01*
X177289188Y-119934185D01*
X177209233Y-119992276D01*
X177149049Y-120036003D01*
X177149047Y-120036005D01*
X177149046Y-120036005D01*
X177026565Y-120158486D01*
X177026565Y-120158487D01*
X177026563Y-120158489D01*
X176982836Y-120218673D01*
X176924745Y-120298628D01*
X176846105Y-120452969D01*
X176792574Y-120617719D01*
X176771699Y-120749520D01*
X176765477Y-120788806D01*
X174533194Y-120788806D01*
X174534319Y-115788823D01*
X176778654Y-115788823D01*
X176778654Y-115962045D01*
X176805752Y-116133135D01*
X176859281Y-116297879D01*
X176937922Y-116452222D01*
X177039740Y-116592362D01*
X177162226Y-116714848D01*
X177302366Y-116816666D01*
X177456709Y-116895307D01*
X177621453Y-116948836D01*
X177792543Y-116975934D01*
X177792544Y-116975934D01*
X177965764Y-116975934D01*
X177965765Y-116975934D01*
X178136855Y-116948836D01*
X178301599Y-116895307D01*
X178455942Y-116816666D01*
X178596082Y-116714848D01*
X178718568Y-116592362D01*
X178820386Y-116452222D01*
X178899027Y-116297879D01*
X178952556Y-116133135D01*
X178979654Y-115962045D01*
X178979654Y-115788823D01*
X178952556Y-115617733D01*
X178899027Y-115452989D01*
X178820386Y-115298646D01*
X178718568Y-115158506D01*
X178596082Y-115036020D01*
X178455942Y-114934202D01*
X178301599Y-114855561D01*
X178136855Y-114802032D01*
X178136853Y-114802031D01*
X178136852Y-114802031D01*
X178005425Y-114781215D01*
X177965765Y-114774934D01*
X177792543Y-114774934D01*
X177752882Y-114781215D01*
X177621456Y-114802031D01*
X177456706Y-114855562D01*
X177302365Y-114934202D01*
X177234205Y-114983724D01*
X177162226Y-115036020D01*
X177162224Y-115036022D01*
X177162223Y-115036022D01*
X177039742Y-115158503D01*
X177039742Y-115158504D01*
X177039740Y-115158506D01*
X176996013Y-115218690D01*
X176937922Y-115298645D01*
X176859282Y-115452986D01*
X176805751Y-115617736D01*
X176788670Y-115725583D01*
X176778654Y-115788823D01*
X174534319Y-115788823D01*
X174534881Y-113288823D01*
X176778654Y-113288823D01*
X176778654Y-113462045D01*
X176805752Y-113633135D01*
X176848866Y-113765826D01*
X176859282Y-113797881D01*
X176933541Y-113943623D01*
X176937922Y-113952222D01*
X177039740Y-114092362D01*
X177162226Y-114214848D01*
X177302366Y-114316666D01*
X177456709Y-114395307D01*
X177621453Y-114448836D01*
X177792543Y-114475934D01*
X177792544Y-114475934D01*
X177965764Y-114475934D01*
X177965765Y-114475934D01*
X178136855Y-114448836D01*
X178301599Y-114395307D01*
X178455942Y-114316666D01*
X178596082Y-114214848D01*
X178718568Y-114092362D01*
X178820386Y-113952222D01*
X178899027Y-113797879D01*
X178952556Y-113633135D01*
X178979654Y-113462045D01*
X178979654Y-113288823D01*
X178979030Y-113284882D01*
X183658654Y-113284882D01*
X183658654Y-113465985D01*
X183686983Y-113644844D01*
X183742941Y-113817070D01*
X183742942Y-113817073D01*
X183786572Y-113902700D01*
X183811805Y-113952222D01*
X183825160Y-113978431D01*
X183931595Y-114124928D01*
X183931599Y-114124933D01*
X184059654Y-114252988D01*
X184059659Y-114252992D01*
X184147300Y-114316666D01*
X184206160Y-114359430D01*
X184294528Y-114404456D01*
X184367514Y-114441645D01*
X184367517Y-114441646D01*
X184494803Y-114483003D01*
X184552478Y-114522440D01*
X184579677Y-114586798D01*
X184567763Y-114655645D01*
X184520519Y-114707121D01*
X184456485Y-114724934D01*
X184166052Y-114724934D01*
X184127007Y-114729622D01*
X184077592Y-114735556D01*
X183936810Y-114791073D01*
X183816231Y-114882511D01*
X183724793Y-115003090D01*
X183669276Y-115143872D01*
X183667519Y-115158506D01*
X183658654Y-115232332D01*
X183658654Y-116518536D01*
X183664280Y-116565388D01*
X183669276Y-116606995D01*
X183724793Y-116747777D01*
X183816231Y-116868356D01*
X183936810Y-116959794D01*
X183936811Y-116959794D01*
X183936812Y-116959795D01*
X184077590Y-117015311D01*
X184166052Y-117025934D01*
X184166057Y-117025934D01*
X185952251Y-117025934D01*
X185952256Y-117025934D01*
X186040718Y-117015311D01*
X186181496Y-116959795D01*
X186302076Y-116868356D01*
X186393515Y-116747776D01*
X186449031Y-116606998D01*
X186459654Y-116518536D01*
X186459654Y-115232332D01*
X186449031Y-115143870D01*
X186393515Y-115003092D01*
X186393514Y-115003091D01*
X186393514Y-115003090D01*
X186302076Y-114882511D01*
X186181497Y-114791073D01*
X186040715Y-114735556D01*
X185995080Y-114730076D01*
X185952256Y-114724934D01*
X185661823Y-114724934D01*
X185594784Y-114705249D01*
X185549029Y-114652445D01*
X185539085Y-114583287D01*
X185568110Y-114519731D01*
X185623505Y-114483003D01*
X185750790Y-114441646D01*
X185750793Y-114441645D01*
X185785142Y-114424143D01*
X185912148Y-114359430D01*
X186058655Y-114252987D01*
X186186707Y-114124935D01*
X186293150Y-113978428D01*
X186375365Y-113817073D01*
X186431325Y-113644843D01*
X186445919Y-113552693D01*
X186459654Y-113465985D01*
X186459654Y-113284882D01*
X186443173Y-113180831D01*
X186431325Y-113106025D01*
X186388404Y-112973925D01*
X186375366Y-112933797D01*
X186375365Y-112933794D01*
X186346894Y-112877918D01*
X186293150Y-112772440D01*
X186210373Y-112658506D01*
X186186712Y-112625939D01*
X186186708Y-112625934D01*
X186058653Y-112497879D01*
X186058648Y-112497875D01*
X185912151Y-112391440D01*
X185912150Y-112391439D01*
X185912148Y-112391438D01*
X185841736Y-112355561D01*
X185750793Y-112309222D01*
X185750790Y-112309221D01*
X185578564Y-112253263D01*
X185399705Y-112224934D01*
X185399700Y-112224934D01*
X184718608Y-112224934D01*
X184718603Y-112224934D01*
X184539743Y-112253263D01*
X184367517Y-112309221D01*
X184367514Y-112309222D01*
X184206156Y-112391440D01*
X184059659Y-112497875D01*
X184059654Y-112497879D01*
X183931599Y-112625934D01*
X183931595Y-112625939D01*
X183825160Y-112772436D01*
X183742942Y-112933794D01*
X183742941Y-112933797D01*
X183686983Y-113106023D01*
X183658654Y-113284882D01*
X178979030Y-113284882D01*
X178952556Y-113117733D01*
X178899027Y-112952989D01*
X178820386Y-112798646D01*
X178718568Y-112658506D01*
X178596082Y-112536020D01*
X178455942Y-112434202D01*
X178301599Y-112355561D01*
X178136855Y-112302032D01*
X178136853Y-112302031D01*
X178136852Y-112302031D01*
X178005425Y-112281215D01*
X177965765Y-112274934D01*
X177792543Y-112274934D01*
X177752882Y-112281215D01*
X177621456Y-112302031D01*
X177456706Y-112355562D01*
X177302365Y-112434202D01*
X177277204Y-112452483D01*
X177162226Y-112536020D01*
X177162224Y-112536022D01*
X177162223Y-112536022D01*
X177039742Y-112658503D01*
X177039742Y-112658504D01*
X177039740Y-112658506D01*
X177005805Y-112705214D01*
X176937922Y-112798645D01*
X176859282Y-112952986D01*
X176805751Y-113117736D01*
X176779430Y-113283923D01*
X176778654Y-113288823D01*
X174534881Y-113288823D01*
X174535962Y-108481902D01*
X175944500Y-108481902D01*
X175944500Y-108718097D01*
X175981446Y-108951368D01*
X176054433Y-109175996D01*
X176122495Y-109309573D01*
X176161657Y-109386433D01*
X176300483Y-109577510D01*
X176467490Y-109744517D01*
X176658567Y-109883343D01*
X176757991Y-109934002D01*
X176869003Y-109990566D01*
X176869005Y-109990566D01*
X176869008Y-109990568D01*
X176989412Y-110029689D01*
X177093631Y-110063553D01*
X177326903Y-110100500D01*
X177326908Y-110100500D01*
X177563097Y-110100500D01*
X177796368Y-110063553D01*
X178020992Y-109990568D01*
X178231433Y-109883343D01*
X178422510Y-109744517D01*
X178589517Y-109577510D01*
X178728343Y-109386433D01*
X178835568Y-109175992D01*
X178908553Y-108951368D01*
X178911737Y-108931264D01*
X178945500Y-108718097D01*
X178945500Y-108481902D01*
X178908553Y-108248631D01*
X178835566Y-108024003D01*
X178728342Y-107813566D01*
X178589517Y-107622490D01*
X178422510Y-107455483D01*
X178231433Y-107316657D01*
X178221125Y-107311405D01*
X178020996Y-107209433D01*
X177796368Y-107136446D01*
X177563097Y-107099500D01*
X177563092Y-107099500D01*
X177326908Y-107099500D01*
X177326903Y-107099500D01*
X177093631Y-107136446D01*
X176869003Y-107209433D01*
X176658566Y-107316657D01*
X176613848Y-107349147D01*
X176467490Y-107455483D01*
X176467488Y-107455485D01*
X176467487Y-107455485D01*
X176300485Y-107622487D01*
X176300485Y-107622488D01*
X176300483Y-107622490D01*
X176257773Y-107681275D01*
X176161657Y-107813566D01*
X176054433Y-108024003D01*
X175981446Y-108248631D01*
X175944500Y-108481902D01*
X174535962Y-108481902D01*
X174536727Y-105081902D01*
X175944500Y-105081902D01*
X175944500Y-105318097D01*
X175981446Y-105551368D01*
X176054433Y-105775996D01*
X176154533Y-105972452D01*
X176161657Y-105986433D01*
X176300483Y-106177510D01*
X176467490Y-106344517D01*
X176658567Y-106483343D01*
X176757991Y-106534002D01*
X176869003Y-106590566D01*
X176869005Y-106590566D01*
X176869008Y-106590568D01*
X176989412Y-106629689D01*
X177093631Y-106663553D01*
X177326903Y-106700500D01*
X177326908Y-106700500D01*
X177563097Y-106700500D01*
X177796368Y-106663553D01*
X178020992Y-106590568D01*
X178231433Y-106483343D01*
X178422510Y-106344517D01*
X178589517Y-106177510D01*
X178728343Y-105986433D01*
X178835568Y-105775992D01*
X178908553Y-105551368D01*
X178912170Y-105528533D01*
X178945500Y-105318097D01*
X178945500Y-105081902D01*
X178908553Y-104848631D01*
X178835566Y-104624003D01*
X178728342Y-104413566D01*
X178589517Y-104222490D01*
X178422510Y-104055483D01*
X178231433Y-103916657D01*
X178020996Y-103809433D01*
X177796368Y-103736446D01*
X177563097Y-103699500D01*
X177563092Y-103699500D01*
X177326908Y-103699500D01*
X177326903Y-103699500D01*
X177093631Y-103736446D01*
X176869003Y-103809433D01*
X176658566Y-103916657D01*
X176587082Y-103968594D01*
X176467490Y-104055483D01*
X176467488Y-104055485D01*
X176467487Y-104055485D01*
X176300485Y-104222487D01*
X176300485Y-104222488D01*
X176300483Y-104222490D01*
X176257773Y-104281275D01*
X176161657Y-104413566D01*
X176054433Y-104624003D01*
X175981446Y-104848631D01*
X175944500Y-105081902D01*
X174536727Y-105081902D01*
X174537777Y-100413389D01*
X176739500Y-100413389D01*
X176739500Y-100586610D01*
X176766435Y-100756676D01*
X176766598Y-100757701D01*
X176820127Y-100922445D01*
X176898768Y-101076788D01*
X177000586Y-101216928D01*
X177123072Y-101339414D01*
X177263212Y-101441232D01*
X177417555Y-101519873D01*
X177582299Y-101573402D01*
X177753389Y-101600500D01*
X177753390Y-101600500D01*
X177926610Y-101600500D01*
X177926611Y-101600500D01*
X178097701Y-101573402D01*
X178262445Y-101519873D01*
X178416788Y-101441232D01*
X178556928Y-101339414D01*
X178679414Y-101216928D01*
X178781232Y-101076788D01*
X178859873Y-100922445D01*
X178913402Y-100757701D01*
X178940500Y-100586611D01*
X178940500Y-100413389D01*
X178913402Y-100242299D01*
X178859873Y-100077555D01*
X178781232Y-99923212D01*
X178679414Y-99783072D01*
X178556928Y-99660586D01*
X178416788Y-99558768D01*
X178262445Y-99480127D01*
X178097701Y-99426598D01*
X178097699Y-99426597D01*
X178097698Y-99426597D01*
X177966271Y-99405781D01*
X177926611Y-99399500D01*
X177753389Y-99399500D01*
X177713728Y-99405781D01*
X177582302Y-99426597D01*
X177417552Y-99480128D01*
X177263211Y-99558768D01*
X177183256Y-99616859D01*
X177123072Y-99660586D01*
X177123070Y-99660588D01*
X177123069Y-99660588D01*
X177000588Y-99783069D01*
X177000588Y-99783070D01*
X177000586Y-99783072D01*
X176973211Y-99820751D01*
X176898768Y-99923211D01*
X176820128Y-100077552D01*
X176766597Y-100242302D01*
X176739500Y-100413389D01*
X174537777Y-100413389D01*
X174539118Y-94453012D01*
X174539470Y-92888853D01*
X174540027Y-90413389D01*
X176739500Y-90413389D01*
X176739500Y-90586611D01*
X176739682Y-90587760D01*
X176762462Y-90731591D01*
X176766598Y-90757701D01*
X176820127Y-90922445D01*
X176898768Y-91076788D01*
X177000586Y-91216928D01*
X177123072Y-91339414D01*
X177263212Y-91441232D01*
X177417555Y-91519873D01*
X177582299Y-91573402D01*
X177753389Y-91600500D01*
X177753390Y-91600500D01*
X177926610Y-91600500D01*
X177926611Y-91600500D01*
X178097701Y-91573402D01*
X178262445Y-91519873D01*
X178416788Y-91441232D01*
X178556928Y-91339414D01*
X178679414Y-91216928D01*
X178781232Y-91076788D01*
X178859873Y-90922445D01*
X178913402Y-90757701D01*
X178940500Y-90586611D01*
X178940500Y-90413389D01*
X178937390Y-90393753D01*
X183670000Y-90393753D01*
X183670000Y-90606246D01*
X183703242Y-90816127D01*
X183703242Y-90816130D01*
X183768904Y-91018217D01*
X183865375Y-91207550D01*
X183904728Y-91261716D01*
X184455386Y-90711057D01*
X184460889Y-90731591D01*
X184539881Y-90868408D01*
X184651592Y-90980119D01*
X184788409Y-91059111D01*
X184808940Y-91064612D01*
X184284424Y-91589127D01*
X184340781Y-91689111D01*
X184342812Y-91697881D01*
X184348310Y-91705010D01*
X184350575Y-91731385D01*
X184356551Y-91757178D01*
X184353518Y-91765654D01*
X184354289Y-91774623D01*
X184341934Y-91798037D01*
X184333018Y-91822965D01*
X184325885Y-91828455D01*
X184321684Y-91836419D01*
X184305644Y-91850318D01*
X184258282Y-91884727D01*
X184258282Y-91884728D01*
X184808941Y-92435387D01*
X184788409Y-92440889D01*
X184651592Y-92519881D01*
X184539881Y-92631592D01*
X184460889Y-92768409D01*
X184455387Y-92788941D01*
X183904728Y-92238282D01*
X183904727Y-92238282D01*
X183865380Y-92292439D01*
X183768904Y-92481782D01*
X183703242Y-92683869D01*
X183703242Y-92683872D01*
X183670000Y-92893753D01*
X183670000Y-93106246D01*
X183703242Y-93316127D01*
X183703242Y-93316130D01*
X183768904Y-93518217D01*
X183865375Y-93707550D01*
X183904728Y-93761716D01*
X184455386Y-93211057D01*
X184460889Y-93231591D01*
X184539881Y-93368408D01*
X184651592Y-93480119D01*
X184788409Y-93559111D01*
X184808940Y-93564612D01*
X184258282Y-94115269D01*
X184258282Y-94115270D01*
X184312449Y-94154624D01*
X184502511Y-94251466D01*
X184553307Y-94299441D01*
X184570102Y-94367262D01*
X184547565Y-94433397D01*
X184502512Y-94472435D01*
X184417004Y-94516004D01*
X184270505Y-94622441D01*
X184270500Y-94622445D01*
X184142445Y-94750500D01*
X184142441Y-94750505D01*
X184036006Y-94897002D01*
X183953788Y-95058360D01*
X183953787Y-95058363D01*
X183897829Y-95230589D01*
X183869500Y-95409448D01*
X183869500Y-95590551D01*
X183897829Y-95769410D01*
X183953787Y-95941636D01*
X183953788Y-95941639D01*
X184004566Y-96041294D01*
X184029921Y-96091056D01*
X184036006Y-96102997D01*
X184142441Y-96249494D01*
X184142445Y-96249499D01*
X184270500Y-96377554D01*
X184270505Y-96377558D01*
X184318601Y-96412501D01*
X184417006Y-96483996D01*
X184522484Y-96537740D01*
X184578360Y-96566211D01*
X184578363Y-96566212D01*
X184664476Y-96594191D01*
X184750591Y-96622171D01*
X184775291Y-96626083D01*
X184784406Y-96627527D01*
X184847540Y-96657457D01*
X184884471Y-96716768D01*
X184883473Y-96786631D01*
X184844863Y-96844863D01*
X184784406Y-96872473D01*
X184750589Y-96877829D01*
X184578363Y-96933787D01*
X184578360Y-96933788D01*
X184417002Y-97016006D01*
X184270505Y-97122441D01*
X184270500Y-97122445D01*
X184142445Y-97250500D01*
X184142441Y-97250505D01*
X184036006Y-97397002D01*
X183953788Y-97558360D01*
X183953787Y-97558363D01*
X183897829Y-97730589D01*
X183869500Y-97909448D01*
X183869500Y-98090551D01*
X183897829Y-98269410D01*
X183953787Y-98441636D01*
X183953788Y-98441639D01*
X184009664Y-98551300D01*
X184031022Y-98593217D01*
X184036006Y-98602997D01*
X184142441Y-98749494D01*
X184142445Y-98749499D01*
X184270500Y-98877554D01*
X184270505Y-98877558D01*
X184397019Y-98969475D01*
X184417006Y-98983996D01*
X184522484Y-99037740D01*
X184578360Y-99066211D01*
X184578363Y-99066212D01*
X184624770Y-99081290D01*
X184750591Y-99122171D01*
X184775291Y-99126083D01*
X184784406Y-99127527D01*
X184847540Y-99157457D01*
X184884471Y-99216768D01*
X184883473Y-99286631D01*
X184844863Y-99344863D01*
X184784406Y-99372473D01*
X184750589Y-99377829D01*
X184578363Y-99433787D01*
X184578360Y-99433788D01*
X184417002Y-99516006D01*
X184270505Y-99622441D01*
X184270500Y-99622445D01*
X184142445Y-99750500D01*
X184142441Y-99750505D01*
X184036006Y-99897002D01*
X183953788Y-100058360D01*
X183953787Y-100058363D01*
X183897829Y-100230589D01*
X183869500Y-100409448D01*
X183869500Y-100590551D01*
X183897829Y-100769410D01*
X183953787Y-100941636D01*
X183953788Y-100941639D01*
X184009664Y-101051300D01*
X184022651Y-101076788D01*
X184036006Y-101102997D01*
X184142441Y-101249494D01*
X184142445Y-101249499D01*
X184270500Y-101377554D01*
X184270505Y-101377558D01*
X184383396Y-101459577D01*
X184417006Y-101483996D01*
X184519589Y-101536265D01*
X184578360Y-101566211D01*
X184578363Y-101566212D01*
X184664476Y-101594191D01*
X184750591Y-101622171D01*
X184833429Y-101635291D01*
X184929449Y-101650500D01*
X184929454Y-101650500D01*
X185110551Y-101650500D01*
X185197259Y-101636765D01*
X185289409Y-101622171D01*
X185461639Y-101566211D01*
X185622994Y-101483996D01*
X185769501Y-101377553D01*
X185897553Y-101249501D01*
X186003996Y-101102994D01*
X186086211Y-100941639D01*
X186115119Y-100852669D01*
X186127569Y-100814351D01*
X186167006Y-100756676D01*
X186231364Y-100729477D01*
X186300211Y-100741391D01*
X186351687Y-100788635D01*
X186369500Y-100852669D01*
X186369500Y-101143102D01*
X186371144Y-101156790D01*
X186380122Y-101231561D01*
X186380122Y-101231563D01*
X186380123Y-101231564D01*
X186394771Y-101268709D01*
X186435639Y-101372343D01*
X186527077Y-101492922D01*
X186647656Y-101584360D01*
X186647657Y-101584360D01*
X186647658Y-101584361D01*
X186788436Y-101639877D01*
X186876898Y-101650500D01*
X186876903Y-101650500D01*
X188163097Y-101650500D01*
X188163102Y-101650500D01*
X188251564Y-101639877D01*
X188392342Y-101584361D01*
X188512922Y-101492922D01*
X188598156Y-101380524D01*
X188606696Y-101369263D01*
X188662889Y-101327739D01*
X188732610Y-101323188D01*
X188793724Y-101357053D01*
X188826828Y-101418583D01*
X188829500Y-101444188D01*
X188829500Y-104281275D01*
X188809815Y-104348314D01*
X188757011Y-104394069D01*
X188687853Y-104404013D01*
X188624297Y-104374988D01*
X188605182Y-104354161D01*
X188598286Y-104344670D01*
X188509517Y-104222490D01*
X188342510Y-104055483D01*
X188151433Y-103916657D01*
X187940996Y-103809433D01*
X187716368Y-103736446D01*
X187483097Y-103699500D01*
X187483092Y-103699500D01*
X187246908Y-103699500D01*
X187246903Y-103699500D01*
X187013631Y-103736446D01*
X186789003Y-103809433D01*
X186578566Y-103916657D01*
X186507082Y-103968594D01*
X186387490Y-104055483D01*
X186387488Y-104055485D01*
X186387487Y-104055485D01*
X186220485Y-104222487D01*
X186220485Y-104222488D01*
X186220483Y-104222490D01*
X186177773Y-104281275D01*
X186081657Y-104413566D01*
X185974433Y-104624003D01*
X185901446Y-104848631D01*
X185864500Y-105081902D01*
X185864500Y-105318097D01*
X185901446Y-105551368D01*
X185974433Y-105775996D01*
X186074533Y-105972452D01*
X186081657Y-105986433D01*
X186220483Y-106177510D01*
X186387490Y-106344517D01*
X186578567Y-106483343D01*
X186677991Y-106534002D01*
X186789003Y-106590566D01*
X186789005Y-106590566D01*
X186789008Y-106590568D01*
X186909412Y-106629689D01*
X187013631Y-106663553D01*
X187246903Y-106700500D01*
X187246908Y-106700500D01*
X187483097Y-106700500D01*
X187716368Y-106663553D01*
X187940992Y-106590568D01*
X188151433Y-106483343D01*
X188342510Y-106344517D01*
X188509517Y-106177510D01*
X188605183Y-106045836D01*
X188660512Y-106003173D01*
X188730125Y-105997194D01*
X188791920Y-106029800D01*
X188826278Y-106090639D01*
X188829500Y-106118724D01*
X188829500Y-107681275D01*
X188809815Y-107748314D01*
X188757011Y-107794069D01*
X188687853Y-107804013D01*
X188624297Y-107774988D01*
X188605182Y-107754161D01*
X188598286Y-107744670D01*
X188509517Y-107622490D01*
X188342510Y-107455483D01*
X188151433Y-107316657D01*
X188141125Y-107311405D01*
X187940996Y-107209433D01*
X187716368Y-107136446D01*
X187483097Y-107099500D01*
X187483092Y-107099500D01*
X187246908Y-107099500D01*
X187246903Y-107099500D01*
X187013631Y-107136446D01*
X186789003Y-107209433D01*
X186578566Y-107316657D01*
X186533848Y-107349147D01*
X186387490Y-107455483D01*
X186387488Y-107455485D01*
X186387487Y-107455485D01*
X186220485Y-107622487D01*
X186220485Y-107622488D01*
X186220483Y-107622490D01*
X186177773Y-107681275D01*
X186081657Y-107813566D01*
X185974433Y-108024003D01*
X185901446Y-108248631D01*
X185864500Y-108481902D01*
X185864500Y-108718097D01*
X185901446Y-108951368D01*
X185974433Y-109175996D01*
X186042495Y-109309573D01*
X186081657Y-109386433D01*
X186220483Y-109577510D01*
X186387490Y-109744517D01*
X186578567Y-109883343D01*
X186677991Y-109934002D01*
X186789003Y-109990566D01*
X186789005Y-109990566D01*
X186789008Y-109990568D01*
X186909412Y-110029689D01*
X187013631Y-110063553D01*
X187246903Y-110100500D01*
X187246908Y-110100500D01*
X187483097Y-110100500D01*
X187716368Y-110063553D01*
X187940992Y-109990568D01*
X188151433Y-109883343D01*
X188342510Y-109744517D01*
X188509517Y-109577510D01*
X188648343Y-109386433D01*
X188755568Y-109175992D01*
X188784275Y-109087639D01*
X188823711Y-109029967D01*
X188888070Y-109002768D01*
X188956916Y-109014682D01*
X188989886Y-109038279D01*
X191387181Y-111435573D01*
X191420666Y-111496896D01*
X191423500Y-111523254D01*
X191423500Y-111585057D01*
X191426597Y-111596613D01*
X191464423Y-111737783D01*
X191464426Y-111737790D01*
X191543475Y-111874709D01*
X191543479Y-111874714D01*
X191543480Y-111874716D01*
X191655284Y-111986520D01*
X191655286Y-111986521D01*
X191655290Y-111986524D01*
X191792209Y-112065573D01*
X191792216Y-112065577D01*
X191944943Y-112106500D01*
X191944945Y-112106500D01*
X192103055Y-112106500D01*
X192103057Y-112106500D01*
X192255784Y-112065577D01*
X192392716Y-111986520D01*
X192504520Y-111874716D01*
X192583577Y-111737784D01*
X192624500Y-111585057D01*
X192624500Y-111426943D01*
X192583577Y-111274216D01*
X192523244Y-111169715D01*
X192504524Y-111137290D01*
X192504518Y-111137282D01*
X192392717Y-111025481D01*
X192392709Y-111025475D01*
X192255790Y-110946426D01*
X192255786Y-110946424D01*
X192255784Y-110946423D01*
X192103057Y-110905500D01*
X192103056Y-110905500D01*
X192041254Y-110905500D01*
X192011813Y-110896855D01*
X191981827Y-110890332D01*
X191976811Y-110886577D01*
X191974215Y-110885815D01*
X191953573Y-110869181D01*
X191946573Y-110862181D01*
X191913088Y-110800858D01*
X191918072Y-110731166D01*
X191959944Y-110675233D01*
X192025408Y-110650816D01*
X192034254Y-110650500D01*
X199782745Y-110650500D01*
X199849784Y-110670185D01*
X199870426Y-110686819D01*
X200063181Y-110879573D01*
X200096666Y-110940896D01*
X200099500Y-110967254D01*
X200099500Y-119282745D01*
X200079815Y-119349784D01*
X200063181Y-119370426D01*
X199601426Y-119832181D01*
X199540103Y-119865666D01*
X199513745Y-119868500D01*
X198300098Y-119868500D01*
X198233059Y-119848815D01*
X198212417Y-119832181D01*
X198168717Y-119788481D01*
X198168709Y-119788475D01*
X198031790Y-119709426D01*
X198031786Y-119709424D01*
X198031784Y-119709423D01*
X197879057Y-119668500D01*
X197720943Y-119668500D01*
X197568216Y-119709423D01*
X197568209Y-119709426D01*
X197431290Y-119788475D01*
X197431282Y-119788481D01*
X197319481Y-119900282D01*
X197319475Y-119900290D01*
X197240426Y-120037209D01*
X197240423Y-120037216D01*
X197199500Y-120189943D01*
X197199500Y-120348057D01*
X197225143Y-120443756D01*
X197240423Y-120500783D01*
X197240426Y-120500790D01*
X197319475Y-120637709D01*
X197319479Y-120637714D01*
X197319480Y-120637716D01*
X197431284Y-120749520D01*
X197431286Y-120749521D01*
X197431290Y-120749524D01*
X197521502Y-120801607D01*
X197568216Y-120828577D01*
X197720943Y-120869500D01*
X197720945Y-120869500D01*
X197879055Y-120869500D01*
X197879057Y-120869500D01*
X198031784Y-120828577D01*
X198168716Y-120749520D01*
X198212417Y-120705819D01*
X198273740Y-120672334D01*
X198300098Y-120669500D01*
X199783725Y-120669500D01*
X199783727Y-120669500D01*
X199885588Y-120642207D01*
X199976913Y-120589480D01*
X200600037Y-119966356D01*
X208614093Y-119966356D01*
X208614093Y-120124470D01*
X208631637Y-120189943D01*
X208655016Y-120277196D01*
X208655019Y-120277203D01*
X208734068Y-120414122D01*
X208734072Y-120414127D01*
X208734073Y-120414129D01*
X208845877Y-120525933D01*
X208845879Y-120525934D01*
X208845883Y-120525937D01*
X208968074Y-120596483D01*
X208982809Y-120604990D01*
X209135536Y-120645913D01*
X209135538Y-120645913D01*
X209293648Y-120645913D01*
X209293650Y-120645913D01*
X209446377Y-120604990D01*
X209583309Y-120525933D01*
X209695113Y-120414129D01*
X209774170Y-120277197D01*
X209815093Y-120124470D01*
X209815093Y-119997844D01*
X209834778Y-119930805D01*
X209851412Y-119910163D01*
X210000209Y-119761366D01*
X210190489Y-119571087D01*
X210249799Y-119468360D01*
X210256285Y-119444148D01*
X210256286Y-119444148D01*
X210256286Y-119444144D01*
X210280500Y-119353782D01*
X210280500Y-116269930D01*
X210300185Y-116202891D01*
X210306128Y-116194438D01*
X210310512Y-116188723D01*
X210310520Y-116188716D01*
X210389577Y-116051784D01*
X210430500Y-115899057D01*
X210430500Y-115740943D01*
X210389577Y-115588216D01*
X210380709Y-115572856D01*
X210310524Y-115451290D01*
X210310518Y-115451282D01*
X210198717Y-115339481D01*
X210198709Y-115339475D01*
X210061790Y-115260426D01*
X210061786Y-115260424D01*
X210061784Y-115260423D01*
X209909057Y-115219500D01*
X209750943Y-115219500D01*
X209598216Y-115260423D01*
X209598209Y-115260426D01*
X209461290Y-115339475D01*
X209461282Y-115339481D01*
X209349481Y-115451282D01*
X209349475Y-115451290D01*
X209270426Y-115588209D01*
X209270423Y-115588216D01*
X209229500Y-115740943D01*
X209229500Y-115899057D01*
X209246378Y-115962044D01*
X209270423Y-116051783D01*
X209270426Y-116051790D01*
X209349473Y-116188706D01*
X209349477Y-116188712D01*
X209349480Y-116188716D01*
X209349482Y-116188718D01*
X209353872Y-116194438D01*
X209379069Y-116259606D01*
X209379500Y-116269930D01*
X209379500Y-119056507D01*
X209359815Y-119123546D01*
X209343181Y-119144188D01*
X209031881Y-119455488D01*
X208989231Y-119480111D01*
X208990315Y-119482727D01*
X208982805Y-119485837D01*
X208845880Y-119564890D01*
X208845875Y-119564894D01*
X208734074Y-119676695D01*
X208734068Y-119676703D01*
X208655019Y-119813622D01*
X208655016Y-119813629D01*
X208614093Y-119966356D01*
X200600037Y-119966356D01*
X200820480Y-119745913D01*
X200873207Y-119654588D01*
X200900500Y-119552727D01*
X200900500Y-119447273D01*
X200900500Y-114246343D01*
X207730300Y-114246343D01*
X207730300Y-114404457D01*
X207761914Y-114522440D01*
X207771223Y-114557183D01*
X207771226Y-114557190D01*
X207850275Y-114694109D01*
X207850279Y-114694114D01*
X207850280Y-114694116D01*
X207962084Y-114805920D01*
X207962086Y-114805921D01*
X207962090Y-114805924D01*
X208048067Y-114855562D01*
X208099016Y-114884977D01*
X208251743Y-114925900D01*
X208251745Y-114925900D01*
X208409855Y-114925900D01*
X208409857Y-114925900D01*
X208476941Y-114907925D01*
X208509034Y-114903700D01*
X208561327Y-114903700D01*
X217856102Y-114903700D01*
X217923141Y-114923385D01*
X217968896Y-114976189D01*
X217978840Y-115045347D01*
X217949815Y-115108903D01*
X217943783Y-115115381D01*
X217934081Y-115125082D01*
X217934075Y-115125090D01*
X217855026Y-115262009D01*
X217855023Y-115262016D01*
X217814100Y-115414743D01*
X217814100Y-115572857D01*
X217826126Y-115617736D01*
X217855023Y-115725583D01*
X217855026Y-115725590D01*
X217934075Y-115862509D01*
X217934081Y-115862517D01*
X217977781Y-115906217D01*
X218011266Y-115967540D01*
X218014100Y-115993898D01*
X218014100Y-118197545D01*
X217994415Y-118264584D01*
X217977781Y-118285226D01*
X216535126Y-119727881D01*
X216473803Y-119761366D01*
X216447445Y-119764200D01*
X216385643Y-119764200D01*
X216232916Y-119805123D01*
X216232909Y-119805126D01*
X216095990Y-119884175D01*
X216095982Y-119884181D01*
X215984181Y-119995982D01*
X215984175Y-119995990D01*
X215905126Y-120132909D01*
X215905123Y-120132916D01*
X215864200Y-120285643D01*
X215864200Y-120443757D01*
X215903247Y-120589480D01*
X215905123Y-120596483D01*
X215905126Y-120596490D01*
X215984175Y-120733409D01*
X215984179Y-120733414D01*
X215984180Y-120733416D01*
X216095984Y-120845220D01*
X216095986Y-120845221D01*
X216095990Y-120845224D01*
X216232909Y-120924273D01*
X216232916Y-120924277D01*
X216385643Y-120965200D01*
X216385645Y-120965200D01*
X216543755Y-120965200D01*
X216543757Y-120965200D01*
X216696484Y-120924277D01*
X216833416Y-120845220D01*
X216945220Y-120733416D01*
X217024277Y-120596484D01*
X217065200Y-120443757D01*
X217065200Y-120381955D01*
X217084885Y-120314916D01*
X217101519Y-120294274D01*
X217916811Y-119478982D01*
X218735080Y-118660713D01*
X218787807Y-118569388D01*
X218815100Y-118467527D01*
X218815100Y-118362073D01*
X218815100Y-115993898D01*
X218834785Y-115926859D01*
X218851419Y-115906217D01*
X218858581Y-115899055D01*
X218895120Y-115862516D01*
X218974177Y-115725584D01*
X219015100Y-115572857D01*
X219015100Y-115414743D01*
X218974177Y-115262016D01*
X218914415Y-115158504D01*
X218895124Y-115125090D01*
X218895118Y-115125082D01*
X218885417Y-115115381D01*
X218851932Y-115054058D01*
X218856916Y-114984366D01*
X218898788Y-114928433D01*
X218964252Y-114904016D01*
X218973098Y-114903700D01*
X221149902Y-114903700D01*
X221216941Y-114923385D01*
X221237583Y-114940019D01*
X221281284Y-114983720D01*
X221281286Y-114983721D01*
X221281290Y-114983724D01*
X221388026Y-115045347D01*
X221418216Y-115062777D01*
X221570943Y-115103700D01*
X221570945Y-115103700D01*
X221729055Y-115103700D01*
X221729057Y-115103700D01*
X221881784Y-115062777D01*
X222018716Y-114983720D01*
X222130520Y-114871916D01*
X222209577Y-114734984D01*
X222250500Y-114582257D01*
X222250500Y-114424143D01*
X222209577Y-114271416D01*
X222176916Y-114214845D01*
X222130524Y-114134490D01*
X222130518Y-114134482D01*
X222018717Y-114022681D01*
X222018709Y-114022675D01*
X221881790Y-113943626D01*
X221881786Y-113943624D01*
X221881784Y-113943623D01*
X221729057Y-113902700D01*
X221570943Y-113902700D01*
X221418216Y-113943623D01*
X221418209Y-113943626D01*
X221281290Y-114022675D01*
X221281282Y-114022681D01*
X221237583Y-114066381D01*
X221176260Y-114099866D01*
X221149902Y-114102700D01*
X208967213Y-114102700D01*
X208900174Y-114083015D01*
X208859826Y-114040700D01*
X208811320Y-113956684D01*
X208699516Y-113844880D01*
X208699514Y-113844879D01*
X208699509Y-113844875D01*
X208562590Y-113765826D01*
X208562586Y-113765824D01*
X208562584Y-113765823D01*
X208409857Y-113724900D01*
X208251743Y-113724900D01*
X208099016Y-113765823D01*
X208099009Y-113765826D01*
X207962090Y-113844875D01*
X207962082Y-113844881D01*
X207850281Y-113956682D01*
X207850275Y-113956690D01*
X207771226Y-114093609D01*
X207771223Y-114093616D01*
X207730300Y-114246343D01*
X200900500Y-114246343D01*
X200900500Y-112294369D01*
X208735524Y-112294369D01*
X208735524Y-112452483D01*
X208747689Y-112497881D01*
X208776447Y-112605209D01*
X208776450Y-112605216D01*
X208855499Y-112742135D01*
X208855503Y-112742140D01*
X208855504Y-112742142D01*
X208967308Y-112853946D01*
X208967310Y-112853947D01*
X208967314Y-112853950D01*
X209104233Y-112932999D01*
X209104240Y-112933003D01*
X209256967Y-112973926D01*
X209256969Y-112973926D01*
X209415079Y-112973926D01*
X209415081Y-112973926D01*
X209567808Y-112933003D01*
X209704740Y-112853946D01*
X209816544Y-112742142D01*
X209837868Y-112705205D01*
X209857566Y-112679535D01*
X210940489Y-111596614D01*
X210999798Y-111493887D01*
X210999799Y-111493886D01*
X211030500Y-111379309D01*
X211030500Y-103420943D01*
X218829500Y-103420943D01*
X218829500Y-103579056D01*
X218870423Y-103731783D01*
X218870426Y-103731790D01*
X218949475Y-103868709D01*
X218949479Y-103868714D01*
X218949480Y-103868716D01*
X219061284Y-103980520D01*
X219061286Y-103980521D01*
X219061290Y-103980524D01*
X219191125Y-104055483D01*
X219198216Y-104059577D01*
X219350943Y-104100500D01*
X219412745Y-104100500D01*
X219479784Y-104120185D01*
X219500426Y-104136819D01*
X220088591Y-104724984D01*
X220122076Y-104786307D01*
X220117092Y-104855999D01*
X220108298Y-104874663D01*
X220101598Y-104886268D01*
X220101592Y-104886280D01*
X220016293Y-105092209D01*
X220016290Y-105092219D01*
X219958597Y-105307534D01*
X219958594Y-105307547D01*
X219929501Y-105528533D01*
X219929500Y-105528549D01*
X219929500Y-105751450D01*
X219929501Y-105751466D01*
X219958594Y-105972452D01*
X219958595Y-105972457D01*
X219958596Y-105972463D01*
X220016290Y-106187780D01*
X220016293Y-106187790D01*
X220081212Y-106344517D01*
X220101595Y-106393726D01*
X220213052Y-106586774D01*
X220213057Y-106586780D01*
X220213058Y-106586782D01*
X220348751Y-106763622D01*
X220348757Y-106763629D01*
X220506370Y-106921242D01*
X220506377Y-106921248D01*
X220543650Y-106949848D01*
X220683226Y-107056948D01*
X220876274Y-107168405D01*
X221082219Y-107253710D01*
X221297537Y-107311404D01*
X221518543Y-107340500D01*
X221518550Y-107340500D01*
X221741450Y-107340500D01*
X221741457Y-107340500D01*
X221962463Y-107311404D01*
X222177781Y-107253710D01*
X222383726Y-107168405D01*
X222576774Y-107056948D01*
X222730288Y-106939152D01*
X222795457Y-106913959D01*
X222863902Y-106927997D01*
X222893455Y-106949848D01*
X223343181Y-107399574D01*
X223376666Y-107460897D01*
X223379500Y-107487255D01*
X223379500Y-108879902D01*
X223359815Y-108946941D01*
X223343181Y-108967583D01*
X223299481Y-109011282D01*
X223299475Y-109011290D01*
X223220426Y-109148209D01*
X223220423Y-109148216D01*
X223179500Y-109300943D01*
X223179500Y-109459057D01*
X223211240Y-109577510D01*
X223220423Y-109611783D01*
X223220426Y-109611790D01*
X223299475Y-109748709D01*
X223299479Y-109748714D01*
X223299480Y-109748716D01*
X223411284Y-109860520D01*
X223411286Y-109860521D01*
X223411290Y-109860524D01*
X223530800Y-109929522D01*
X223548216Y-109939577D01*
X223700943Y-109980500D01*
X223700945Y-109980500D01*
X223859055Y-109980500D01*
X223859057Y-109980500D01*
X224011784Y-109939577D01*
X224148716Y-109860520D01*
X224260520Y-109748716D01*
X224339577Y-109611784D01*
X224380500Y-109459057D01*
X224380500Y-109300943D01*
X224339577Y-109148216D01*
X224304605Y-109087642D01*
X224260524Y-109011290D01*
X224260518Y-109011282D01*
X224216819Y-108967583D01*
X224183334Y-108906260D01*
X224180500Y-108879902D01*
X224180500Y-107217275D01*
X224180500Y-107217273D01*
X224153207Y-107115413D01*
X224153207Y-107115412D01*
X224100480Y-107024087D01*
X223298657Y-106222264D01*
X223265172Y-106160941D01*
X223266563Y-106102489D01*
X223301404Y-105972463D01*
X223330500Y-105751457D01*
X223330500Y-105528543D01*
X223301404Y-105307537D01*
X223243710Y-105092219D01*
X223237409Y-105077008D01*
X223158406Y-104886277D01*
X223158405Y-104886274D01*
X223046948Y-104693226D01*
X222911247Y-104516376D01*
X222911242Y-104516370D01*
X222753629Y-104358757D01*
X222753622Y-104358751D01*
X222576782Y-104223058D01*
X222576780Y-104223057D01*
X222576774Y-104223052D01*
X222383726Y-104111595D01*
X222383722Y-104111593D01*
X222177790Y-104026293D01*
X222177783Y-104026291D01*
X222177781Y-104026290D01*
X221962463Y-103968596D01*
X221962457Y-103968595D01*
X221962452Y-103968594D01*
X221741466Y-103939501D01*
X221741463Y-103939500D01*
X221741457Y-103939500D01*
X221518543Y-103939500D01*
X221518537Y-103939500D01*
X221518533Y-103939501D01*
X221297547Y-103968594D01*
X221297540Y-103968595D01*
X221297537Y-103968596D01*
X221253036Y-103980520D01*
X221082219Y-104026290D01*
X221082209Y-104026293D01*
X220876280Y-104111592D01*
X220876270Y-104111596D01*
X220788588Y-104162220D01*
X220720687Y-104178693D01*
X220654661Y-104155840D01*
X220638907Y-104142514D01*
X220066819Y-103570426D01*
X220033334Y-103509103D01*
X220030500Y-103482745D01*
X220030500Y-103420945D01*
X220030500Y-103420943D01*
X219989577Y-103268216D01*
X219984587Y-103259573D01*
X219910524Y-103131290D01*
X219910518Y-103131282D01*
X219798717Y-103019481D01*
X219798709Y-103019475D01*
X219661790Y-102940426D01*
X219661786Y-102940424D01*
X219661784Y-102940423D01*
X219509057Y-102899500D01*
X219350943Y-102899500D01*
X219198216Y-102940423D01*
X219198209Y-102940426D01*
X219061290Y-103019475D01*
X219061282Y-103019481D01*
X218949481Y-103131282D01*
X218949475Y-103131290D01*
X218870426Y-103268209D01*
X218870423Y-103268216D01*
X218829500Y-103420943D01*
X211030500Y-103420943D01*
X211030500Y-97640943D01*
X219169500Y-97640943D01*
X219169500Y-97799057D01*
X219188133Y-97868594D01*
X219210423Y-97951783D01*
X219210426Y-97951790D01*
X219289475Y-98088709D01*
X219289479Y-98088714D01*
X219289480Y-98088716D01*
X219401284Y-98200520D01*
X219401286Y-98200521D01*
X219401290Y-98200524D01*
X219502144Y-98258751D01*
X219538216Y-98279577D01*
X219690943Y-98320500D01*
X219752745Y-98320500D01*
X219819784Y-98340185D01*
X219840426Y-98356819D01*
X220114930Y-98631323D01*
X220148415Y-98692646D01*
X220143431Y-98762338D01*
X220134645Y-98780989D01*
X220131598Y-98786267D01*
X220131592Y-98786280D01*
X220046293Y-98992209D01*
X220046290Y-98992219D01*
X220002637Y-99155137D01*
X219988597Y-99207534D01*
X219988594Y-99207547D01*
X219959501Y-99428533D01*
X219959500Y-99428549D01*
X219959500Y-99651450D01*
X219959501Y-99651466D01*
X219988594Y-99872452D01*
X219988595Y-99872457D01*
X219988596Y-99872463D01*
X220036301Y-100050500D01*
X220046290Y-100087780D01*
X220046293Y-100087790D01*
X220125833Y-100279815D01*
X220131595Y-100293726D01*
X220243052Y-100486774D01*
X220243057Y-100486780D01*
X220243058Y-100486782D01*
X220378751Y-100663622D01*
X220378757Y-100663629D01*
X220536370Y-100821242D01*
X220536377Y-100821248D01*
X220568563Y-100845945D01*
X220713226Y-100956948D01*
X220906274Y-101068405D01*
X220989787Y-101102997D01*
X221083581Y-101141848D01*
X221112219Y-101153710D01*
X221327537Y-101211404D01*
X221548543Y-101240500D01*
X221548550Y-101240500D01*
X221771450Y-101240500D01*
X221771457Y-101240500D01*
X221992463Y-101211404D01*
X222207781Y-101153710D01*
X222413726Y-101068405D01*
X222606774Y-100956948D01*
X222783624Y-100821247D01*
X222931559Y-100673311D01*
X222939504Y-100668973D01*
X222944929Y-100661727D01*
X222969687Y-100652492D01*
X222992881Y-100639828D01*
X223001910Y-100640473D01*
X223010393Y-100637310D01*
X223036213Y-100642926D01*
X223062572Y-100644812D01*
X223071625Y-100650630D01*
X223078666Y-100652162D01*
X223106920Y-100673313D01*
X223263181Y-100829574D01*
X223296666Y-100890897D01*
X223299500Y-100917255D01*
X223299500Y-100979057D01*
X223323441Y-101068404D01*
X223340423Y-101131783D01*
X223340426Y-101131790D01*
X223419475Y-101268709D01*
X223419479Y-101268714D01*
X223419480Y-101268716D01*
X223531284Y-101380520D01*
X223531286Y-101380521D01*
X223531290Y-101380524D01*
X223636441Y-101441232D01*
X223668216Y-101459577D01*
X223820943Y-101500500D01*
X223820945Y-101500500D01*
X223979055Y-101500500D01*
X223979057Y-101500500D01*
X224131784Y-101459577D01*
X224268716Y-101380520D01*
X224380520Y-101268716D01*
X224459577Y-101131784D01*
X224500500Y-100979057D01*
X224500500Y-100820943D01*
X224459577Y-100668216D01*
X224435377Y-100626300D01*
X224380524Y-100531290D01*
X224380518Y-100531282D01*
X224268717Y-100419481D01*
X224268709Y-100419475D01*
X224131790Y-100340426D01*
X224131786Y-100340424D01*
X224131784Y-100340423D01*
X223979057Y-100299500D01*
X223979056Y-100299500D01*
X223917255Y-100299500D01*
X223850216Y-100279815D01*
X223829574Y-100263181D01*
X223387144Y-99820751D01*
X223353659Y-99759428D01*
X223351886Y-99716884D01*
X223360500Y-99651457D01*
X223360500Y-99428549D01*
X223360500Y-99428543D01*
X223331404Y-99207537D01*
X223273710Y-98992219D01*
X223188405Y-98786274D01*
X223076948Y-98593226D01*
X223037867Y-98542294D01*
X222941248Y-98416377D01*
X222941242Y-98416370D01*
X222783629Y-98258757D01*
X222783622Y-98258751D01*
X222606782Y-98123058D01*
X222606780Y-98123057D01*
X222606774Y-98123052D01*
X222413726Y-98011595D01*
X222413724Y-98011594D01*
X222413722Y-98011593D01*
X222207790Y-97926293D01*
X222207783Y-97926291D01*
X222207781Y-97926290D01*
X221992463Y-97868596D01*
X221992457Y-97868595D01*
X221992452Y-97868594D01*
X221771466Y-97839501D01*
X221771463Y-97839500D01*
X221771457Y-97839500D01*
X221548543Y-97839500D01*
X221548537Y-97839500D01*
X221548533Y-97839501D01*
X221327547Y-97868594D01*
X221327540Y-97868595D01*
X221327537Y-97868596D01*
X221175075Y-97909448D01*
X221112219Y-97926290D01*
X221112209Y-97926293D01*
X220906280Y-98011592D01*
X220906275Y-98011594D01*
X220812247Y-98065881D01*
X220744347Y-98082353D01*
X220678320Y-98059500D01*
X220662567Y-98046174D01*
X220406819Y-97790426D01*
X220373334Y-97729103D01*
X220370500Y-97702745D01*
X220370500Y-97640945D01*
X220370500Y-97640943D01*
X220329577Y-97488216D01*
X220300575Y-97437983D01*
X220250524Y-97351290D01*
X220250518Y-97351282D01*
X220138717Y-97239481D01*
X220138709Y-97239475D01*
X220001790Y-97160426D01*
X220001786Y-97160424D01*
X220001784Y-97160423D01*
X219849057Y-97119500D01*
X219690943Y-97119500D01*
X219538216Y-97160423D01*
X219538209Y-97160426D01*
X219401290Y-97239475D01*
X219401282Y-97239481D01*
X219289481Y-97351282D01*
X219289475Y-97351290D01*
X219210426Y-97488209D01*
X219210423Y-97488216D01*
X219169500Y-97640943D01*
X211030500Y-97640943D01*
X211030500Y-96277965D01*
X211050185Y-96210926D01*
X211066819Y-96190284D01*
X212661626Y-94595477D01*
X214340404Y-92916698D01*
X214401725Y-92883215D01*
X214411901Y-92881441D01*
X214419045Y-92880500D01*
X214419057Y-92880500D01*
X214571784Y-92839577D01*
X214708716Y-92760520D01*
X214820520Y-92648716D01*
X214899577Y-92511784D01*
X214940500Y-92359057D01*
X214940500Y-92200943D01*
X214919600Y-92122943D01*
X219328500Y-92122943D01*
X219328500Y-92281057D01*
X219353227Y-92373337D01*
X219369423Y-92433783D01*
X219369426Y-92433790D01*
X219448475Y-92570709D01*
X219448481Y-92570717D01*
X219492181Y-92614417D01*
X219525666Y-92675740D01*
X219528500Y-92702098D01*
X219528500Y-92727727D01*
X219539966Y-92770518D01*
X219555793Y-92829589D01*
X219582156Y-92875250D01*
X219608520Y-92920913D01*
X219754055Y-93066448D01*
X219759520Y-93075913D01*
X219834087Y-93150480D01*
X219843551Y-93155944D01*
X220027418Y-93339811D01*
X220159151Y-93471543D01*
X220192636Y-93532866D01*
X220187652Y-93602557D01*
X220182685Y-93614061D01*
X220181599Y-93616262D01*
X220096293Y-93822209D01*
X220096290Y-93822219D01*
X220073766Y-93906282D01*
X220038597Y-94037534D01*
X220038594Y-94037547D01*
X220009501Y-94258533D01*
X220009500Y-94258549D01*
X220009500Y-94481450D01*
X220009501Y-94481466D01*
X220038594Y-94702452D01*
X220038595Y-94702457D01*
X220038596Y-94702463D01*
X220096290Y-94917780D01*
X220096293Y-94917790D01*
X220181593Y-95123722D01*
X220181595Y-95123726D01*
X220293052Y-95316774D01*
X220293057Y-95316780D01*
X220293058Y-95316782D01*
X220428751Y-95493622D01*
X220428757Y-95493629D01*
X220586370Y-95651242D01*
X220586376Y-95651247D01*
X220763226Y-95786948D01*
X220956274Y-95898405D01*
X221162219Y-95983710D01*
X221377537Y-96041404D01*
X221598543Y-96070500D01*
X221598550Y-96070500D01*
X221821450Y-96070500D01*
X221821457Y-96070500D01*
X222042463Y-96041404D01*
X222257781Y-95983710D01*
X222463726Y-95898405D01*
X222463737Y-95898398D01*
X222465915Y-95897325D01*
X222466638Y-95897198D01*
X222467476Y-95896852D01*
X222467553Y-95897039D01*
X222534745Y-95885318D01*
X222599140Y-95912431D01*
X222608456Y-95920848D01*
X222945518Y-96257910D01*
X222945520Y-96257913D01*
X223020087Y-96332480D01*
X223077962Y-96365894D01*
X223086503Y-96370825D01*
X223086508Y-96370829D01*
X223111407Y-96385204D01*
X223111410Y-96385206D01*
X223111412Y-96385206D01*
X223111413Y-96385207D01*
X223213273Y-96412501D01*
X223223103Y-96412501D01*
X223290142Y-96432186D01*
X223310784Y-96448820D01*
X223354484Y-96492520D01*
X223354486Y-96492521D01*
X223354490Y-96492524D01*
X223482122Y-96566211D01*
X223491416Y-96571577D01*
X223644143Y-96612500D01*
X223644145Y-96612500D01*
X223802255Y-96612500D01*
X223802257Y-96612500D01*
X223954984Y-96571577D01*
X224091916Y-96492520D01*
X224203720Y-96380716D01*
X224282777Y-96243784D01*
X224323700Y-96091057D01*
X224323700Y-95932943D01*
X224282777Y-95780216D01*
X224208318Y-95651248D01*
X224203724Y-95643290D01*
X224203718Y-95643282D01*
X224091917Y-95531481D01*
X224091909Y-95531475D01*
X223954990Y-95452426D01*
X223954986Y-95452424D01*
X223954984Y-95452423D01*
X223802257Y-95411500D01*
X223644143Y-95411500D01*
X223491416Y-95452423D01*
X223491411Y-95452425D01*
X223435227Y-95484862D01*
X223408166Y-95491426D01*
X223382075Y-95501158D01*
X223374680Y-95499549D01*
X223367327Y-95501333D01*
X223341014Y-95492225D01*
X223313802Y-95486306D01*
X223305108Y-95479798D01*
X223301300Y-95478480D01*
X223285548Y-95465155D01*
X223197968Y-95377575D01*
X223164483Y-95316252D01*
X223169467Y-95246560D01*
X223178258Y-95227901D01*
X223238405Y-95123726D01*
X223323710Y-94917781D01*
X223381404Y-94702463D01*
X223410500Y-94481457D01*
X223410500Y-94258543D01*
X223381404Y-94037537D01*
X223323710Y-93822219D01*
X223238405Y-93616274D01*
X223126948Y-93423226D01*
X223037214Y-93306282D01*
X222991248Y-93246377D01*
X222991242Y-93246370D01*
X222833629Y-93088757D01*
X222833622Y-93088751D01*
X222656782Y-92953058D01*
X222656780Y-92953057D01*
X222656774Y-92953052D01*
X222463726Y-92841595D01*
X222463724Y-92841594D01*
X222463722Y-92841593D01*
X222257790Y-92756293D01*
X222257783Y-92756291D01*
X222257781Y-92756290D01*
X222042463Y-92698596D01*
X222042457Y-92698595D01*
X222042452Y-92698594D01*
X221821466Y-92669501D01*
X221821463Y-92669500D01*
X221821457Y-92669500D01*
X221598543Y-92669500D01*
X221598537Y-92669500D01*
X221598533Y-92669501D01*
X221377547Y-92698594D01*
X221377540Y-92698595D01*
X221377537Y-92698596D01*
X221268822Y-92727726D01*
X221162219Y-92756290D01*
X221162209Y-92756293D01*
X220956280Y-92841592D01*
X220956275Y-92841594D01*
X220852103Y-92901737D01*
X220784203Y-92918208D01*
X220718176Y-92895356D01*
X220702423Y-92882030D01*
X220505031Y-92684638D01*
X220497014Y-92670753D01*
X220486830Y-92661495D01*
X220472939Y-92629054D01*
X220455452Y-92563791D01*
X220457115Y-92493944D01*
X220467841Y-92469699D01*
X220488576Y-92433786D01*
X220504773Y-92373338D01*
X220529500Y-92281057D01*
X220529500Y-92122943D01*
X220488577Y-91970216D01*
X220460330Y-91921290D01*
X220409524Y-91833290D01*
X220409518Y-91833282D01*
X220297717Y-91721481D01*
X220297709Y-91721475D01*
X220160790Y-91642426D01*
X220160786Y-91642424D01*
X220160784Y-91642423D01*
X220008057Y-91601500D01*
X219849943Y-91601500D01*
X219697216Y-91642423D01*
X219697209Y-91642426D01*
X219560290Y-91721475D01*
X219560282Y-91721481D01*
X219448481Y-91833282D01*
X219448475Y-91833290D01*
X219369426Y-91970209D01*
X219369423Y-91970216D01*
X219328500Y-92122943D01*
X214919600Y-92122943D01*
X214899577Y-92048216D01*
X214887360Y-92027055D01*
X214820524Y-91911290D01*
X214820518Y-91911282D01*
X214708717Y-91799481D01*
X214708709Y-91799475D01*
X214571790Y-91720426D01*
X214571786Y-91720424D01*
X214571784Y-91720423D01*
X214419057Y-91679500D01*
X214260943Y-91679500D01*
X214108216Y-91720423D01*
X214108209Y-91720426D01*
X213971290Y-91799475D01*
X213971282Y-91799481D01*
X213859481Y-91911282D01*
X213859475Y-91911290D01*
X213780426Y-92048209D01*
X213780423Y-92048216D01*
X213739498Y-92200949D01*
X213738556Y-92208107D01*
X213710287Y-92272003D01*
X213703299Y-92279597D01*
X210219513Y-95763383D01*
X210219511Y-95763386D01*
X210160201Y-95866111D01*
X210160201Y-95866112D01*
X210155884Y-95882224D01*
X210129500Y-95980691D01*
X210129500Y-111082034D01*
X210109815Y-111149073D01*
X210093181Y-111169715D01*
X209524497Y-111738398D01*
X209463174Y-111771883D01*
X209420635Y-111773657D01*
X209415081Y-111772926D01*
X209256967Y-111772926D01*
X209104240Y-111813849D01*
X209104233Y-111813852D01*
X208967314Y-111892901D01*
X208967306Y-111892907D01*
X208855505Y-112004708D01*
X208855499Y-112004716D01*
X208776450Y-112141635D01*
X208776447Y-112141642D01*
X208735524Y-112294369D01*
X200900500Y-112294369D01*
X200900500Y-110697273D01*
X200873207Y-110595413D01*
X200873207Y-110595412D01*
X200846843Y-110549750D01*
X200820480Y-110504087D01*
X200745913Y-110429520D01*
X200745910Y-110429518D01*
X200245913Y-109929520D01*
X200200250Y-109903156D01*
X200154589Y-109876793D01*
X200093855Y-109860520D01*
X200052727Y-109849500D01*
X200052726Y-109849500D01*
X191967254Y-109849500D01*
X191900215Y-109829815D01*
X191879573Y-109813181D01*
X190322820Y-108256427D01*
X190289335Y-108195104D01*
X190286501Y-108168746D01*
X190286501Y-105409132D01*
X198164540Y-105409132D01*
X198164540Y-105567245D01*
X198205463Y-105719972D01*
X198205466Y-105719979D01*
X198284515Y-105856898D01*
X198284521Y-105856906D01*
X198328221Y-105900606D01*
X198361706Y-105961929D01*
X198364540Y-105988287D01*
X198364540Y-107567766D01*
X198391833Y-107669629D01*
X198398557Y-107681275D01*
X198444560Y-107760953D01*
X198444562Y-107760955D01*
X199363181Y-108679574D01*
X199396666Y-108740897D01*
X199399500Y-108767255D01*
X199399500Y-108829057D01*
X199420187Y-108906260D01*
X199440423Y-108981783D01*
X199440426Y-108981790D01*
X199519475Y-109118709D01*
X199519479Y-109118714D01*
X199519480Y-109118716D01*
X199631284Y-109230520D01*
X199631286Y-109230521D01*
X199631290Y-109230524D01*
X199753261Y-109300943D01*
X199768216Y-109309577D01*
X199920943Y-109350500D01*
X199920945Y-109350500D01*
X200079055Y-109350500D01*
X200079057Y-109350500D01*
X200231784Y-109309577D01*
X200368716Y-109230520D01*
X200480520Y-109118716D01*
X200559577Y-108981784D01*
X200600500Y-108829057D01*
X200600500Y-108670943D01*
X200559577Y-108518216D01*
X200535786Y-108477008D01*
X200480524Y-108381290D01*
X200480518Y-108381282D01*
X200368717Y-108269481D01*
X200368709Y-108269475D01*
X200231790Y-108190426D01*
X200231786Y-108190424D01*
X200231784Y-108190423D01*
X200079057Y-108149500D01*
X200079056Y-108149500D01*
X200017255Y-108149500D01*
X199950216Y-108129815D01*
X199929574Y-108113181D01*
X199201859Y-107385466D01*
X199168374Y-107324143D01*
X199165540Y-107297785D01*
X199165540Y-105988287D01*
X199185225Y-105921248D01*
X199201859Y-105900606D01*
X199245560Y-105856905D01*
X199324617Y-105719973D01*
X199365540Y-105567246D01*
X199365540Y-105409132D01*
X199324617Y-105256405D01*
X199324613Y-105256398D01*
X199245564Y-105119479D01*
X199245558Y-105119471D01*
X199133757Y-105007670D01*
X199133749Y-105007664D01*
X198996830Y-104928615D01*
X198996826Y-104928613D01*
X198996824Y-104928612D01*
X198844097Y-104887689D01*
X198685983Y-104887689D01*
X198533256Y-104928612D01*
X198533249Y-104928615D01*
X198396330Y-105007664D01*
X198396322Y-105007670D01*
X198284521Y-105119471D01*
X198284515Y-105119479D01*
X198205466Y-105256398D01*
X198205463Y-105256405D01*
X198164540Y-105409132D01*
X190286501Y-105409132D01*
X190286501Y-100831001D01*
X198727230Y-100831001D01*
X198727230Y-100989115D01*
X198748476Y-101068404D01*
X198768153Y-101141841D01*
X198768156Y-101141848D01*
X198847205Y-101278767D01*
X198847211Y-101278775D01*
X198890911Y-101322475D01*
X198924396Y-101383798D01*
X198927230Y-101410156D01*
X198927230Y-101805456D01*
X198954523Y-101907319D01*
X199007251Y-101998644D01*
X199074946Y-102066338D01*
X199108431Y-102127661D01*
X199111265Y-102154020D01*
X199111265Y-102215822D01*
X199142205Y-102331290D01*
X199152188Y-102368548D01*
X199152191Y-102368555D01*
X199231240Y-102505474D01*
X199231244Y-102505479D01*
X199231245Y-102505481D01*
X199343049Y-102617285D01*
X199343051Y-102617286D01*
X199343055Y-102617289D01*
X199479974Y-102696338D01*
X199479981Y-102696342D01*
X199632708Y-102737265D01*
X199632710Y-102737265D01*
X199790820Y-102737265D01*
X199790822Y-102737265D01*
X199943549Y-102696342D01*
X200080481Y-102617285D01*
X200192285Y-102505481D01*
X200271342Y-102368549D01*
X200312265Y-102215822D01*
X200312265Y-102057708D01*
X200271342Y-101904981D01*
X200271338Y-101904974D01*
X200192289Y-101768055D01*
X200192283Y-101768047D01*
X200080482Y-101656246D01*
X200080474Y-101656240D01*
X199943555Y-101577191D01*
X199943550Y-101577188D01*
X199890210Y-101562896D01*
X199820134Y-101544119D01*
X199796356Y-101529625D01*
X199771027Y-101518058D01*
X199766936Y-101511692D01*
X199760476Y-101507755D01*
X199748308Y-101482707D01*
X199733253Y-101459280D01*
X199731707Y-101448532D01*
X199729947Y-101444908D01*
X199728230Y-101424345D01*
X199728230Y-101410156D01*
X199747915Y-101343117D01*
X199764549Y-101322475D01*
X199808250Y-101278774D01*
X199887307Y-101141842D01*
X199928230Y-100989115D01*
X199928230Y-100845943D01*
X201149500Y-100845943D01*
X201149500Y-101004057D01*
X201189600Y-101153710D01*
X201190423Y-101156783D01*
X201190426Y-101156790D01*
X201269475Y-101293709D01*
X201269481Y-101293717D01*
X201313181Y-101337417D01*
X201346666Y-101398740D01*
X201349500Y-101425098D01*
X201349500Y-102224902D01*
X201329815Y-102291941D01*
X201313181Y-102312583D01*
X201294481Y-102331282D01*
X201294475Y-102331290D01*
X201215426Y-102468209D01*
X201215423Y-102468216D01*
X201174500Y-102620943D01*
X201174500Y-102779056D01*
X201215423Y-102931783D01*
X201215426Y-102931790D01*
X201294475Y-103068709D01*
X201294479Y-103068714D01*
X201294480Y-103068716D01*
X201406284Y-103180520D01*
X201406286Y-103180521D01*
X201406290Y-103180524D01*
X201543209Y-103259573D01*
X201543216Y-103259577D01*
X201695943Y-103300500D01*
X201695945Y-103300500D01*
X201854055Y-103300500D01*
X201854057Y-103300500D01*
X202006784Y-103259577D01*
X202143716Y-103180520D01*
X202255520Y-103068716D01*
X202334577Y-102931784D01*
X202375500Y-102779057D01*
X202375500Y-102620943D01*
X202334577Y-102468216D01*
X202334573Y-102468209D01*
X202255524Y-102331290D01*
X202255518Y-102331282D01*
X202186819Y-102262583D01*
X202153334Y-102201260D01*
X202150500Y-102174902D01*
X202150500Y-101425098D01*
X202170185Y-101358059D01*
X202186819Y-101337417D01*
X202201761Y-101322475D01*
X202230520Y-101293716D01*
X202309577Y-101156784D01*
X202350500Y-101004057D01*
X202350500Y-100845943D01*
X202309577Y-100693216D01*
X202298086Y-100673313D01*
X202230524Y-100556290D01*
X202230518Y-100556282D01*
X202118717Y-100444481D01*
X202118709Y-100444475D01*
X201981790Y-100365426D01*
X201981786Y-100365424D01*
X201981784Y-100365423D01*
X201829057Y-100324500D01*
X201670943Y-100324500D01*
X201518216Y-100365423D01*
X201518209Y-100365426D01*
X201381290Y-100444475D01*
X201381282Y-100444481D01*
X201269481Y-100556282D01*
X201269475Y-100556290D01*
X201190426Y-100693209D01*
X201190423Y-100693216D01*
X201149500Y-100845943D01*
X199928230Y-100845943D01*
X199928230Y-100831001D01*
X199887307Y-100678274D01*
X199872422Y-100652492D01*
X199808254Y-100541348D01*
X199808248Y-100541340D01*
X199696447Y-100429539D01*
X199696439Y-100429533D01*
X199559520Y-100350484D01*
X199559516Y-100350482D01*
X199559514Y-100350481D01*
X199406787Y-100309558D01*
X199248673Y-100309558D01*
X199095946Y-100350481D01*
X199095939Y-100350484D01*
X198959020Y-100429533D01*
X198959012Y-100429539D01*
X198847211Y-100541340D01*
X198847205Y-100541348D01*
X198768156Y-100678267D01*
X198768153Y-100678274D01*
X198727230Y-100831001D01*
X190286501Y-100831001D01*
X190286501Y-99946743D01*
X190915500Y-99946743D01*
X190915500Y-100104857D01*
X190952328Y-100242299D01*
X190956423Y-100257583D01*
X190956426Y-100257590D01*
X191035475Y-100394509D01*
X191035479Y-100394514D01*
X191035480Y-100394516D01*
X191147284Y-100506320D01*
X191147286Y-100506321D01*
X191147290Y-100506324D01*
X191233825Y-100556284D01*
X191284216Y-100585377D01*
X191436943Y-100626300D01*
X191436945Y-100626300D01*
X191595055Y-100626300D01*
X191595057Y-100626300D01*
X191747784Y-100585377D01*
X191884716Y-100506320D01*
X191996520Y-100394516D01*
X192075577Y-100257584D01*
X192116500Y-100104857D01*
X192116500Y-100043055D01*
X192125144Y-100013614D01*
X192131668Y-99983628D01*
X192135422Y-99978612D01*
X192136185Y-99976016D01*
X192152819Y-99955374D01*
X192211374Y-99896819D01*
X192272697Y-99863334D01*
X192299055Y-99860500D01*
X199589902Y-99860500D01*
X199656941Y-99880185D01*
X199677583Y-99896819D01*
X199711284Y-99930520D01*
X199711286Y-99930521D01*
X199711290Y-99930524D01*
X199848209Y-100009573D01*
X199848216Y-100009577D01*
X200000943Y-100050500D01*
X200000945Y-100050500D01*
X200159055Y-100050500D01*
X200159057Y-100050500D01*
X200311784Y-100009577D01*
X200448716Y-99930520D01*
X200560520Y-99818716D01*
X200639577Y-99681784D01*
X200680500Y-99529057D01*
X200680500Y-99370943D01*
X200639577Y-99218216D01*
X200600482Y-99150500D01*
X200560524Y-99081290D01*
X200560518Y-99081282D01*
X200448717Y-98969481D01*
X200448709Y-98969475D01*
X200311790Y-98890426D01*
X200311786Y-98890424D01*
X200311784Y-98890423D01*
X200159057Y-98849500D01*
X200000943Y-98849500D01*
X199848216Y-98890423D01*
X199848209Y-98890426D01*
X199711290Y-98969475D01*
X199711282Y-98969481D01*
X199657583Y-99023181D01*
X199596260Y-99056666D01*
X199569902Y-99059500D01*
X192029073Y-99059500D01*
X191927210Y-99086793D01*
X191835887Y-99139520D01*
X191835884Y-99139522D01*
X191586426Y-99388981D01*
X191525103Y-99422466D01*
X191498745Y-99425300D01*
X191436943Y-99425300D01*
X191284216Y-99466223D01*
X191284209Y-99466226D01*
X191147290Y-99545275D01*
X191147282Y-99545281D01*
X191035481Y-99657082D01*
X191035475Y-99657090D01*
X190956426Y-99794009D01*
X190956423Y-99794016D01*
X190915500Y-99946743D01*
X190286501Y-99946743D01*
X190286501Y-97832205D01*
X190306186Y-97765166D01*
X190322820Y-97744524D01*
X190338241Y-97729103D01*
X190366521Y-97700823D01*
X190445578Y-97563891D01*
X190486501Y-97411164D01*
X190486501Y-97253050D01*
X190445578Y-97100323D01*
X190397204Y-97016537D01*
X190380732Y-96948638D01*
X190403585Y-96882611D01*
X190458506Y-96839420D01*
X190472489Y-96834766D01*
X190506784Y-96825577D01*
X190643716Y-96746520D01*
X190755520Y-96634716D01*
X190834577Y-96497784D01*
X190875500Y-96345057D01*
X190875500Y-96186943D01*
X190843722Y-96068346D01*
X190844007Y-96056341D01*
X190839812Y-96045087D01*
X190844824Y-96022059D01*
X190845385Y-95998501D01*
X190852488Y-95986848D01*
X190854672Y-95976816D01*
X190875822Y-95948570D01*
X190883586Y-95940807D01*
X190944914Y-95907330D01*
X190971256Y-95904500D01*
X196140725Y-95904500D01*
X196140727Y-95904500D01*
X196242588Y-95877207D01*
X196333913Y-95824480D01*
X198818583Y-93339809D01*
X198879904Y-93306326D01*
X198949596Y-93311310D01*
X199005529Y-93353182D01*
X199029946Y-93418646D01*
X199026037Y-93459584D01*
X198989500Y-93595943D01*
X198989500Y-93754057D01*
X199030289Y-93906282D01*
X199030423Y-93906783D01*
X199030426Y-93906790D01*
X199109475Y-94043709D01*
X199109479Y-94043714D01*
X199109480Y-94043716D01*
X199221284Y-94155520D01*
X199221286Y-94155521D01*
X199221290Y-94155524D01*
X199358209Y-94234573D01*
X199358216Y-94234577D01*
X199510943Y-94275500D01*
X199510945Y-94275500D01*
X199669055Y-94275500D01*
X199669057Y-94275500D01*
X199725989Y-94260245D01*
X199795837Y-94261907D01*
X199853700Y-94301068D01*
X199877857Y-94347925D01*
X199920423Y-94506785D01*
X199920426Y-94506790D01*
X199999475Y-94643709D01*
X199999479Y-94643714D01*
X199999480Y-94643716D01*
X200111284Y-94755520D01*
X200111286Y-94755521D01*
X200111290Y-94755524D01*
X200216647Y-94816351D01*
X200248216Y-94834577D01*
X200400943Y-94875500D01*
X200400945Y-94875500D01*
X200559055Y-94875500D01*
X200559057Y-94875500D01*
X200711784Y-94834577D01*
X200848716Y-94755520D01*
X200892417Y-94711819D01*
X200953740Y-94678334D01*
X200980098Y-94675500D01*
X203937725Y-94675500D01*
X203937727Y-94675500D01*
X204039588Y-94648207D01*
X204130913Y-94595480D01*
X204933388Y-93793002D01*
X204959067Y-93773299D01*
X205015504Y-93740716D01*
X205015913Y-93740480D01*
X205090480Y-93665913D01*
X205123298Y-93609068D01*
X205143001Y-93583390D01*
X205799574Y-92926819D01*
X205860897Y-92893334D01*
X205887255Y-92890500D01*
X205949055Y-92890500D01*
X205949057Y-92890500D01*
X206101784Y-92849577D01*
X206238716Y-92770520D01*
X206350520Y-92658716D01*
X206429577Y-92521784D01*
X206470500Y-92369057D01*
X206470500Y-92210943D01*
X206429577Y-92058216D01*
X206411587Y-92027056D01*
X206350524Y-91921290D01*
X206350518Y-91921282D01*
X206238717Y-91809481D01*
X206238709Y-91809475D01*
X206101790Y-91730426D01*
X206101786Y-91730424D01*
X206101784Y-91730423D01*
X205949057Y-91689500D01*
X205790943Y-91689500D01*
X205638216Y-91730423D01*
X205638209Y-91730426D01*
X205501290Y-91809475D01*
X205501282Y-91809481D01*
X205389481Y-91921282D01*
X205389475Y-91921290D01*
X205310426Y-92058209D01*
X205310423Y-92058216D01*
X205269500Y-92210943D01*
X205269500Y-92272744D01*
X205260855Y-92302184D01*
X205254332Y-92332171D01*
X205250577Y-92337186D01*
X205249815Y-92339783D01*
X205233181Y-92360425D01*
X205110980Y-92482626D01*
X205049657Y-92516111D01*
X204979965Y-92511127D01*
X204935618Y-92482626D01*
X204826330Y-92373338D01*
X204826322Y-92373332D01*
X204689403Y-92294283D01*
X204689399Y-92294281D01*
X204689397Y-92294280D01*
X204536670Y-92253357D01*
X204378556Y-92253357D01*
X204225829Y-92294280D01*
X204225822Y-92294283D01*
X204088903Y-92373332D01*
X204088895Y-92373338D01*
X203977094Y-92485139D01*
X203977088Y-92485147D01*
X203898039Y-92622066D01*
X203898036Y-92622073D01*
X203857113Y-92774800D01*
X203857113Y-92836602D01*
X203837428Y-92903641D01*
X203820794Y-92924283D01*
X203506896Y-93238181D01*
X203445573Y-93271666D01*
X203419215Y-93274500D01*
X200090098Y-93274500D01*
X200023059Y-93254815D01*
X200002417Y-93238181D01*
X199958717Y-93194481D01*
X199958709Y-93194475D01*
X199821790Y-93115426D01*
X199821786Y-93115424D01*
X199821784Y-93115423D01*
X199669057Y-93074500D01*
X199510943Y-93074500D01*
X199457758Y-93088751D01*
X199374585Y-93111037D01*
X199304735Y-93109374D01*
X199246873Y-93070211D01*
X199219369Y-93005983D01*
X199230956Y-92937081D01*
X199254808Y-92903584D01*
X199573574Y-92584819D01*
X199634897Y-92551334D01*
X199661255Y-92548500D01*
X199723055Y-92548500D01*
X199723057Y-92548500D01*
X199875784Y-92507577D01*
X200012716Y-92428520D01*
X200124520Y-92316716D01*
X200203577Y-92179784D01*
X200244500Y-92027057D01*
X200244500Y-91868943D01*
X200203577Y-91716216D01*
X200160973Y-91642423D01*
X200124524Y-91579290D01*
X200124518Y-91579282D01*
X200014522Y-91469286D01*
X199981037Y-91407963D01*
X199986021Y-91338271D01*
X200014520Y-91293926D01*
X200308376Y-91000070D01*
X200369697Y-90966587D01*
X200428147Y-90967977D01*
X200627537Y-91021404D01*
X200848543Y-91050500D01*
X200848550Y-91050500D01*
X201071450Y-91050500D01*
X201071457Y-91050500D01*
X201292463Y-91021404D01*
X201507781Y-90963710D01*
X201713726Y-90878405D01*
X201906774Y-90766948D01*
X202083624Y-90631247D01*
X202241247Y-90473624D01*
X202376948Y-90296774D01*
X202488405Y-90103726D01*
X202573710Y-89897781D01*
X202631404Y-89682463D01*
X202647283Y-89561845D01*
X202675548Y-89497951D01*
X202682528Y-89490363D01*
X203759574Y-88413319D01*
X203820897Y-88379834D01*
X203847255Y-88377000D01*
X203909055Y-88377000D01*
X203909057Y-88377000D01*
X204061784Y-88336077D01*
X204198716Y-88257020D01*
X204310520Y-88145216D01*
X204389577Y-88008284D01*
X204430500Y-87855557D01*
X204430500Y-87697443D01*
X204389577Y-87544716D01*
X204389573Y-87544709D01*
X204310524Y-87407790D01*
X204310518Y-87407782D01*
X204198717Y-87295981D01*
X204198709Y-87295975D01*
X204061790Y-87216926D01*
X204061786Y-87216924D01*
X204061784Y-87216923D01*
X203909057Y-87176000D01*
X203750943Y-87176000D01*
X203598216Y-87216923D01*
X203598209Y-87216926D01*
X203461290Y-87295975D01*
X203461282Y-87295981D01*
X203349481Y-87407782D01*
X203349475Y-87407790D01*
X203270426Y-87544709D01*
X203270423Y-87544716D01*
X203229500Y-87697443D01*
X203229500Y-87759244D01*
X203209815Y-87826283D01*
X203193181Y-87846925D01*
X202586358Y-88453748D01*
X202525035Y-88487233D01*
X202455343Y-88482249D01*
X202399410Y-88440377D01*
X202391290Y-88428067D01*
X202376952Y-88403233D01*
X202376948Y-88403226D01*
X202325420Y-88336073D01*
X202241248Y-88226377D01*
X202241242Y-88226370D01*
X202083629Y-88068757D01*
X202083622Y-88068751D01*
X201906782Y-87933058D01*
X201906780Y-87933057D01*
X201906774Y-87933052D01*
X201713726Y-87821595D01*
X201713722Y-87821593D01*
X201507790Y-87736293D01*
X201507783Y-87736291D01*
X201507781Y-87736290D01*
X201292463Y-87678596D01*
X201292457Y-87678595D01*
X201292452Y-87678594D01*
X201071466Y-87649501D01*
X201071463Y-87649500D01*
X201071457Y-87649500D01*
X200848543Y-87649500D01*
X200848537Y-87649500D01*
X200848533Y-87649501D01*
X200627547Y-87678594D01*
X200627540Y-87678595D01*
X200627537Y-87678596D01*
X200412219Y-87736290D01*
X200412209Y-87736293D01*
X200206277Y-87821593D01*
X200206273Y-87821595D01*
X200013226Y-87933052D01*
X200013217Y-87933058D01*
X199836377Y-88068751D01*
X199836370Y-88068757D01*
X199678757Y-88226370D01*
X199678751Y-88226377D01*
X199543058Y-88403217D01*
X199543052Y-88403226D01*
X199431595Y-88596273D01*
X199431593Y-88596277D01*
X199346293Y-88802209D01*
X199346290Y-88802219D01*
X199288597Y-89017534D01*
X199288594Y-89017547D01*
X199259501Y-89238533D01*
X199259500Y-89238549D01*
X199259500Y-89461450D01*
X199259501Y-89461466D01*
X199288594Y-89682452D01*
X199288595Y-89682457D01*
X199288596Y-89682463D01*
X199346290Y-89897780D01*
X199346293Y-89897790D01*
X199431593Y-90103722D01*
X199431595Y-90103726D01*
X199543052Y-90296774D01*
X199543054Y-90296777D01*
X199543058Y-90296783D01*
X199622663Y-90400527D01*
X199647857Y-90465697D01*
X199633818Y-90534141D01*
X199611968Y-90563694D01*
X196118101Y-94057562D01*
X196056778Y-94091047D01*
X195987086Y-94086063D01*
X195931153Y-94044191D01*
X195923033Y-94031880D01*
X195850524Y-93906290D01*
X195850518Y-93906282D01*
X195738717Y-93794481D01*
X195738709Y-93794475D01*
X195601790Y-93715426D01*
X195601786Y-93715424D01*
X195601784Y-93715423D01*
X195449057Y-93674500D01*
X195290943Y-93674500D01*
X195138216Y-93715423D01*
X195138213Y-93715424D01*
X195136494Y-93716417D01*
X195134860Y-93716813D01*
X195130706Y-93718534D01*
X195130437Y-93717885D01*
X195068592Y-93732885D01*
X195002567Y-93710029D01*
X194959380Y-93655105D01*
X194950500Y-93609026D01*
X194950500Y-93595945D01*
X194950500Y-93595943D01*
X194909577Y-93443216D01*
X194895392Y-93418646D01*
X194830524Y-93306290D01*
X194830518Y-93306282D01*
X194718717Y-93194481D01*
X194718709Y-93194475D01*
X194581790Y-93115426D01*
X194581786Y-93115424D01*
X194581784Y-93115423D01*
X194429057Y-93074500D01*
X194270943Y-93074500D01*
X194118216Y-93115423D01*
X194118209Y-93115426D01*
X193981290Y-93194475D01*
X193981282Y-93194481D01*
X193937583Y-93238181D01*
X193876260Y-93271666D01*
X193849902Y-93274500D01*
X189460339Y-93274500D01*
X189460323Y-93274499D01*
X189452727Y-93274499D01*
X189347273Y-93274499D01*
X189292291Y-93289231D01*
X189264800Y-93296598D01*
X189264799Y-93296597D01*
X189245414Y-93301792D01*
X189245410Y-93301794D01*
X189152585Y-93355387D01*
X189137096Y-93359537D01*
X189125520Y-93366977D01*
X189090585Y-93372000D01*
X188973094Y-93372000D01*
X188906055Y-93352315D01*
X188860300Y-93299511D01*
X188850356Y-93230353D01*
X188850621Y-93228602D01*
X188870000Y-93106246D01*
X188870000Y-92893753D01*
X188836757Y-92683872D01*
X188836757Y-92683869D01*
X188771095Y-92481782D01*
X188674624Y-92292449D01*
X188635270Y-92238282D01*
X188635269Y-92238282D01*
X188084612Y-92788940D01*
X188079111Y-92768409D01*
X188000119Y-92631592D01*
X187888408Y-92519881D01*
X187751591Y-92440889D01*
X187731058Y-92435387D01*
X188281716Y-91884728D01*
X188234355Y-91850319D01*
X188191689Y-91794989D01*
X188185710Y-91725376D01*
X188218315Y-91663580D01*
X188234354Y-91649682D01*
X188281716Y-91615270D01*
X188281717Y-91615270D01*
X187731058Y-91064612D01*
X187751591Y-91059111D01*
X187888408Y-90980119D01*
X188000119Y-90868408D01*
X188079111Y-90731591D01*
X188084612Y-90711059D01*
X188635270Y-91261717D01*
X188635270Y-91261716D01*
X188674622Y-91207554D01*
X188771095Y-91018217D01*
X188836757Y-90816130D01*
X188836757Y-90816127D01*
X188870000Y-90606246D01*
X188870000Y-90393753D01*
X188836757Y-90183872D01*
X188836757Y-90183869D01*
X188771095Y-89981782D01*
X188674624Y-89792449D01*
X188635270Y-89738282D01*
X188635269Y-89738282D01*
X188084612Y-90288940D01*
X188079111Y-90268409D01*
X188000119Y-90131592D01*
X187888408Y-90019881D01*
X187751591Y-89940889D01*
X187731058Y-89935387D01*
X188281716Y-89384728D01*
X188227550Y-89345375D01*
X188038217Y-89248904D01*
X187836129Y-89183242D01*
X187626246Y-89150000D01*
X187413754Y-89150000D01*
X187203872Y-89183242D01*
X187203869Y-89183242D01*
X187001782Y-89248904D01*
X186812439Y-89345380D01*
X186758282Y-89384727D01*
X186758282Y-89384728D01*
X187308941Y-89935387D01*
X187288409Y-89940889D01*
X187151592Y-90019881D01*
X187039881Y-90131592D01*
X186960889Y-90268409D01*
X186955387Y-90288941D01*
X186404728Y-89738282D01*
X186404727Y-89738282D01*
X186370318Y-89785644D01*
X186314988Y-89828310D01*
X186245375Y-89834289D01*
X186183579Y-89801684D01*
X186169680Y-89785644D01*
X186135270Y-89738282D01*
X186135269Y-89738282D01*
X185584612Y-90288940D01*
X185579111Y-90268409D01*
X185500119Y-90131592D01*
X185388408Y-90019881D01*
X185251591Y-89940889D01*
X185231058Y-89935387D01*
X185781716Y-89384728D01*
X185727550Y-89345375D01*
X185538217Y-89248904D01*
X185336129Y-89183242D01*
X185126246Y-89150000D01*
X184913754Y-89150000D01*
X184703872Y-89183242D01*
X184703869Y-89183242D01*
X184501782Y-89248904D01*
X184312439Y-89345380D01*
X184258282Y-89384727D01*
X184258282Y-89384728D01*
X184808941Y-89935387D01*
X184788409Y-89940889D01*
X184651592Y-90019881D01*
X184539881Y-90131592D01*
X184460889Y-90268409D01*
X184455387Y-90288941D01*
X183904728Y-89738282D01*
X183904727Y-89738282D01*
X183865380Y-89792439D01*
X183768904Y-89981782D01*
X183703242Y-90183869D01*
X183703242Y-90183872D01*
X183670000Y-90393753D01*
X178937390Y-90393753D01*
X178913402Y-90242299D01*
X178859873Y-90077555D01*
X178781232Y-89923212D01*
X178679414Y-89783072D01*
X178556928Y-89660586D01*
X178416788Y-89558768D01*
X178262445Y-89480127D01*
X178097701Y-89426598D01*
X178097699Y-89426597D01*
X178097698Y-89426597D01*
X177966271Y-89405781D01*
X177926611Y-89399500D01*
X177753389Y-89399500D01*
X177713728Y-89405781D01*
X177582302Y-89426597D01*
X177417552Y-89480128D01*
X177263211Y-89558768D01*
X177183256Y-89616859D01*
X177123072Y-89660586D01*
X177123070Y-89660588D01*
X177123069Y-89660588D01*
X177000588Y-89783069D01*
X177000588Y-89783070D01*
X177000586Y-89783072D01*
X176987064Y-89801684D01*
X176898768Y-89923211D01*
X176820128Y-90077552D01*
X176766597Y-90242302D01*
X176757178Y-90301775D01*
X176739500Y-90413389D01*
X174540027Y-90413389D01*
X174540028Y-90408489D01*
X174540467Y-88453748D01*
X174540485Y-88375946D01*
X174540500Y-88375892D01*
X174540500Y-88313446D01*
X174540695Y-88306527D01*
X174545196Y-88226376D01*
X174558656Y-87986700D01*
X174560210Y-87972907D01*
X174613283Y-87660537D01*
X174616377Y-87646985D01*
X174645841Y-87544716D01*
X174704090Y-87342526D01*
X174708682Y-87329406D01*
X174731602Y-87274070D01*
X174829929Y-87036686D01*
X174835951Y-87024180D01*
X174989227Y-86746850D01*
X174996605Y-86735107D01*
X175179972Y-86476676D01*
X175188619Y-86465834D01*
X175399750Y-86229579D01*
X175409581Y-86219749D01*
X175645834Y-86008619D01*
X175656676Y-85999972D01*
X175915107Y-85816605D01*
X175926850Y-85809227D01*
X176204180Y-85655951D01*
X176216686Y-85649929D01*
X176509406Y-85528682D01*
X176522526Y-85524090D01*
X176826990Y-85436375D01*
X176840537Y-85433283D01*
X177152905Y-85380210D01*
X177166702Y-85378656D01*
X177486522Y-85360695D01*
X177493472Y-85360500D01*
X177522713Y-85360500D01*
X177555892Y-85360500D01*
X177555893Y-85360499D01*
X192159311Y-85360350D01*
X192226348Y-85380034D01*
X192272104Y-85432837D01*
X192282048Y-85501996D01*
X192253024Y-85565552D01*
X192228201Y-85587452D01*
X192082248Y-85684975D01*
X192082234Y-85684985D01*
X191816367Y-85903176D01*
X191573176Y-86146367D01*
X191354985Y-86412234D01*
X191354975Y-86412248D01*
X191163904Y-86698206D01*
X191163893Y-86698224D01*
X191001772Y-87001530D01*
X191001770Y-87001535D01*
X190870150Y-87319293D01*
X190770308Y-87648427D01*
X190703210Y-87985750D01*
X190679512Y-88226376D01*
X190670937Y-88313446D01*
X190669500Y-88328034D01*
X190669500Y-88671965D01*
X190703210Y-89014249D01*
X190770308Y-89351572D01*
X190870150Y-89680706D01*
X190916436Y-89792449D01*
X190970599Y-89923212D01*
X191001770Y-89998464D01*
X191001772Y-89998469D01*
X191163893Y-90301775D01*
X191163897Y-90301782D01*
X191163900Y-90301787D01*
X191354978Y-90587756D01*
X191354985Y-90587765D01*
X191573176Y-90853632D01*
X191816367Y-91096823D01*
X191816372Y-91096827D01*
X191816373Y-91096828D01*
X192082240Y-91315019D01*
X192368213Y-91506100D01*
X192368222Y-91506105D01*
X192368224Y-91506106D01*
X192671530Y-91668227D01*
X192671532Y-91668227D01*
X192671538Y-91668231D01*
X192989295Y-91799850D01*
X193318422Y-91899690D01*
X193655750Y-91966789D01*
X193998031Y-92000500D01*
X193998034Y-92000500D01*
X194341966Y-92000500D01*
X194341969Y-92000500D01*
X194684250Y-91966789D01*
X195021578Y-91899690D01*
X195350705Y-91799850D01*
X195668462Y-91668231D01*
X195971787Y-91506100D01*
X196257760Y-91315019D01*
X196523627Y-91096828D01*
X196766828Y-90853627D01*
X196985019Y-90587760D01*
X197176100Y-90301787D01*
X197338231Y-89998462D01*
X197469850Y-89680705D01*
X197569690Y-89351578D01*
X197636789Y-89014250D01*
X197670500Y-88671969D01*
X197670500Y-88328031D01*
X197636789Y-87985750D01*
X197569690Y-87648422D01*
X197469850Y-87319295D01*
X197338231Y-87001538D01*
X197202102Y-86746860D01*
X197176106Y-86698224D01*
X197176105Y-86698222D01*
X197176100Y-86698213D01*
X196985019Y-86412240D01*
X196766828Y-86146373D01*
X196766827Y-86146372D01*
X196766823Y-86146367D01*
X196523632Y-85903176D01*
X196257765Y-85684985D01*
X196257764Y-85684984D01*
X196257760Y-85684981D01*
X196250047Y-85679827D01*
X196111738Y-85587412D01*
X196066933Y-85533800D01*
X196058226Y-85464475D01*
X196088380Y-85401447D01*
X196147823Y-85364728D01*
X196180625Y-85360310D01*
X222909776Y-85360039D01*
X222976813Y-85379723D01*
G37*
%TD.AperFunction*%
%TD*%
M02*
