%TF.GenerationSoftware,KiCad,Pcbnew,9.0.6*%
%TF.CreationDate,2026-03-15T18:24:02-05:00*%
%TF.ProjectId,Controls-LightingRev2PCB,436f6e74-726f-46c7-932d-4c6967687469,rev?*%
%TF.SameCoordinates,Original*%
%TF.FileFunction,Soldermask,Top*%
%TF.FilePolarity,Negative*%
%FSLAX46Y46*%
G04 Gerber Fmt 4.6, Leading zero omitted, Abs format (unit mm)*
G04 Created by KiCad (PCBNEW 9.0.6) date 2026-03-15 18:24:02*
%MOMM*%
%LPD*%
G01*
G04 APERTURE LIST*
G04 Aperture macros list*
%AMRoundRect*
0 Rectangle with rounded corners*
0 $1 Rounding radius*
0 $2 $3 $4 $5 $6 $7 $8 $9 X,Y pos of 4 corners*
0 Add a 4 corners polygon primitive as box body*
4,1,4,$2,$3,$4,$5,$6,$7,$8,$9,$2,$3,0*
0 Add four circle primitives for the rounded corners*
1,1,$1+$1,$2,$3*
1,1,$1+$1,$4,$5*
1,1,$1+$1,$6,$7*
1,1,$1+$1,$8,$9*
0 Add four rect primitives between the rounded corners*
20,1,$1+$1,$2,$3,$4,$5,0*
20,1,$1+$1,$4,$5,$6,$7,0*
20,1,$1+$1,$6,$7,$8,$9,0*
20,1,$1+$1,$8,$9,$2,$3,0*%
G04 Aperture macros list end*
%ADD10C,0.000000*%
%ADD11RoundRect,0.225000X0.250000X-0.225000X0.250000X0.225000X-0.250000X0.225000X-0.250000X-0.225000X0*%
%ADD12RoundRect,0.225000X-0.250000X0.225000X-0.250000X-0.225000X0.250000X-0.225000X0.250000X0.225000X0*%
%ADD13RoundRect,0.225000X-0.225000X-0.250000X0.225000X-0.250000X0.225000X0.250000X-0.225000X0.250000X0*%
%ADD14R,1.000000X0.750000*%
%ADD15R,0.480000X0.750000*%
%ADD16R,2.720000X4.560000*%
%ADD17R,0.910000X5.560000*%
%ADD18R,0.420000X4.560000*%
%ADD19R,0.800000X0.550000*%
%ADD20RoundRect,0.200000X0.275000X-0.200000X0.275000X0.200000X-0.275000X0.200000X-0.275000X-0.200000X0*%
%ADD21RoundRect,0.150000X-0.512500X-0.150000X0.512500X-0.150000X0.512500X0.150000X-0.512500X0.150000X0*%
%ADD22RoundRect,0.200000X-0.275000X0.200000X-0.275000X-0.200000X0.275000X-0.200000X0.275000X0.200000X0*%
%ADD23RoundRect,0.250000X-0.337500X-0.475000X0.337500X-0.475000X0.337500X0.475000X-0.337500X0.475000X0*%
%ADD24RoundRect,0.200000X-0.200000X-0.275000X0.200000X-0.275000X0.200000X0.275000X-0.200000X0.275000X0*%
%ADD25R,1.525000X0.650000*%
%ADD26RoundRect,0.237500X0.237500X-0.287500X0.237500X0.287500X-0.237500X0.287500X-0.237500X-0.287500X0*%
%ADD27RoundRect,0.200000X0.200000X0.275000X-0.200000X0.275000X-0.200000X-0.275000X0.200000X-0.275000X0*%
%ADD28RoundRect,0.250000X0.850000X0.600000X-0.850000X0.600000X-0.850000X-0.600000X0.850000X-0.600000X0*%
%ADD29O,2.200000X1.700000*%
%ADD30R,1.200000X0.450000*%
%ADD31RoundRect,0.250000X0.600000X0.600000X-0.600000X0.600000X-0.600000X-0.600000X0.600000X-0.600000X0*%
%ADD32C,1.700000*%
%ADD33R,1.670000X1.970000*%
%ADD34RoundRect,0.150000X0.587500X0.150000X-0.587500X0.150000X-0.587500X-0.150000X0.587500X-0.150000X0*%
%ADD35RoundRect,0.102000X-0.275000X-0.900000X0.275000X-0.900000X0.275000X0.900000X-0.275000X0.900000X0*%
%ADD36C,3.600000*%
%ADD37C,6.400000*%
%ADD38C,2.604000*%
%ADD39C,2.800000*%
G04 APERTURE END LIST*
D10*
%TO.C,G\u002A\u002A\u002A*%
G36*
X206250794Y-94546905D02*
G01*
X206275993Y-95680833D01*
X207296528Y-95694476D01*
X208317064Y-95708119D01*
X208317064Y-95959059D01*
X208317064Y-96210000D01*
X206980751Y-96210000D01*
X205644438Y-96210000D01*
X205657834Y-94811488D01*
X205671231Y-93412976D01*
X205948413Y-93412976D01*
X206225596Y-93412976D01*
X206250794Y-94546905D01*
G37*
G36*
X219115873Y-94060198D02*
G01*
X219115873Y-94286984D01*
X218334722Y-94286984D01*
X217553571Y-94286984D01*
X217553571Y-94538968D01*
X217553571Y-94790952D01*
X218334722Y-94790952D01*
X219115873Y-94790952D01*
X219115873Y-95496508D01*
X219115873Y-96202063D01*
X218107936Y-96202063D01*
X217100000Y-96202063D01*
X217100000Y-95975278D01*
X217100000Y-95748492D01*
X217881151Y-95748492D01*
X218662301Y-95748492D01*
X218662301Y-95496508D01*
X218662301Y-95244524D01*
X217881151Y-95244524D01*
X217100000Y-95244524D01*
X217100000Y-94538968D01*
X217100000Y-93833413D01*
X218107936Y-93833413D01*
X219115873Y-93833413D01*
X219115873Y-94060198D01*
G37*
G36*
X212126828Y-93396870D02*
G01*
X212323612Y-93412976D01*
X212337008Y-94811488D01*
X212350404Y-96210000D01*
X212023678Y-96210000D01*
X211696952Y-96210000D01*
X211682703Y-95643036D01*
X211668453Y-95076071D01*
X210573982Y-95062494D01*
X209479510Y-95048916D01*
X209465251Y-95616859D01*
X209450993Y-96184801D01*
X209135211Y-96199826D01*
X208819429Y-96214851D01*
X208832830Y-94813914D01*
X208846231Y-93412976D01*
X209102691Y-93398025D01*
X209301790Y-93402861D01*
X209410363Y-93445420D01*
X209415728Y-93451244D01*
X209441275Y-93528573D01*
X209464051Y-93681243D01*
X209480876Y-93883801D01*
X209486847Y-94020561D01*
X209501389Y-94521706D01*
X210584921Y-94521706D01*
X211668453Y-94521706D01*
X211682752Y-93980474D01*
X211692061Y-93722555D01*
X211711771Y-93549779D01*
X211753781Y-93446509D01*
X211829990Y-93397105D01*
X211952298Y-93385930D01*
X212126828Y-93396870D01*
G37*
G36*
X214356389Y-93392880D02*
G01*
X214679517Y-93396724D01*
X215147725Y-93405193D01*
X215525655Y-93417869D01*
X215823823Y-93438856D01*
X216052744Y-93472257D01*
X216222934Y-93522178D01*
X216344908Y-93592721D01*
X216429182Y-93687992D01*
X216486272Y-93812094D01*
X216526693Y-93969132D01*
X216555352Y-94128856D01*
X216565781Y-94331314D01*
X216542188Y-94553805D01*
X216491695Y-94762348D01*
X216421422Y-94922966D01*
X216377371Y-94978160D01*
X216313130Y-95044076D01*
X216313297Y-95096382D01*
X216380288Y-95176572D01*
X216389499Y-95186385D01*
X216445563Y-95261351D01*
X216482230Y-95358775D01*
X216505316Y-95503634D01*
X216520634Y-95720905D01*
X216522438Y-95757429D01*
X216544076Y-96210000D01*
X216210332Y-96210000D01*
X215876588Y-96210000D01*
X215876588Y-95914415D01*
X215864342Y-95707713D01*
X215821898Y-95564351D01*
X215772136Y-95486042D01*
X215667685Y-95353254D01*
X214713803Y-95353254D01*
X213759921Y-95353254D01*
X213759921Y-95781627D01*
X213759921Y-96210000D01*
X213432342Y-96210000D01*
X213104762Y-96210000D01*
X213104762Y-94825047D01*
X213104762Y-94362116D01*
X213104762Y-93942143D01*
X213759921Y-93942143D01*
X213759921Y-94362116D01*
X213764188Y-94559653D01*
X213775542Y-94717374D01*
X213791816Y-94809012D01*
X213797719Y-94820099D01*
X213857819Y-94831199D01*
X214002244Y-94839204D01*
X214214564Y-94843761D01*
X214478345Y-94844519D01*
X214777158Y-94841126D01*
X214778719Y-94841098D01*
X215115482Y-94834007D01*
X215365965Y-94825610D01*
X215544681Y-94814404D01*
X215666141Y-94798885D01*
X215744859Y-94777551D01*
X215795349Y-94748897D01*
X215811853Y-94734093D01*
X215877195Y-94615962D01*
X215901407Y-94424497D01*
X215901786Y-94389462D01*
X215891791Y-94220129D01*
X215853410Y-94113196D01*
X215782810Y-94038484D01*
X215732720Y-94004546D01*
X215668423Y-93979601D01*
X215574814Y-93962287D01*
X215436788Y-93951247D01*
X215239240Y-93945123D01*
X214967064Y-93942554D01*
X214711878Y-93942143D01*
X213759921Y-93942143D01*
X213104762Y-93942143D01*
X213104762Y-93440095D01*
X213230608Y-93408509D01*
X213313764Y-93400726D01*
X213482805Y-93395150D01*
X213722847Y-93391903D01*
X214019004Y-93391106D01*
X214356389Y-93392880D01*
G37*
%TD*%
D11*
%TO.C,C4*%
X193065400Y-101905400D03*
X193065400Y-100355400D03*
%TD*%
D12*
%TO.C,C2*%
X208660000Y-122835000D03*
X208660000Y-124385000D03*
%TD*%
D13*
%TO.C,C27*%
X219435000Y-126880000D03*
X220985000Y-126880000D03*
%TD*%
D14*
%TO.C,Q1*%
X197871800Y-108712000D03*
X197871800Y-107442000D03*
X197871800Y-106172000D03*
X197871800Y-104902000D03*
D15*
X192111800Y-104902000D03*
X192111800Y-108712000D03*
D16*
X193711800Y-106807000D03*
D17*
X195526800Y-106807000D03*
D18*
X196191800Y-106807000D03*
%TD*%
D19*
%TO.C,IC2*%
X223380000Y-124490000D03*
X223380000Y-123540000D03*
X223380000Y-122590000D03*
X220980000Y-122590000D03*
X220980000Y-124490000D03*
%TD*%
D12*
%TO.C,C5*%
X196469000Y-100380800D03*
X196469000Y-101930800D03*
%TD*%
D20*
%TO.C,R1*%
X194792600Y-101967800D03*
X194792600Y-100317800D03*
%TD*%
D21*
%TO.C,U5*%
X214470000Y-124526800D03*
X214470000Y-125476800D03*
X214470000Y-126426800D03*
X216745000Y-126426800D03*
X216745000Y-124526800D03*
%TD*%
D22*
%TO.C,R13*%
X225650000Y-122585000D03*
X225650000Y-124235000D03*
%TD*%
D23*
%TO.C,C26*%
X224212500Y-120000000D03*
X226287500Y-120000000D03*
%TD*%
D22*
%TO.C,R16*%
X218600000Y-122865000D03*
X218600000Y-124515000D03*
%TD*%
D24*
%TO.C,R7*%
X210711000Y-103500000D03*
X212361000Y-103500000D03*
%TD*%
D25*
%TO.C,IC3*%
X201378000Y-120600000D03*
X201378000Y-121870000D03*
X201378000Y-123140000D03*
X201378000Y-124410000D03*
X206802000Y-124410000D03*
X206802000Y-123140000D03*
X206802000Y-121870000D03*
X206802000Y-120600000D03*
%TD*%
D26*
%TO.C,LVPWR1*%
X214250000Y-105375000D03*
X214250000Y-103625000D03*
%TD*%
D27*
%TO.C,R14*%
X222325000Y-119750000D03*
X220675000Y-119750000D03*
%TD*%
D28*
%TO.C,J5*%
X185045977Y-123750000D03*
D29*
X185045977Y-121250000D03*
%TD*%
D24*
%TO.C,R15*%
X215135000Y-128016800D03*
X216785000Y-128016800D03*
%TD*%
D28*
%TO.C,J4*%
X185000000Y-115750000D03*
D29*
X185000000Y-113250000D03*
%TD*%
D13*
%TO.C,C20*%
X198025000Y-127870000D03*
X199575000Y-127870000D03*
%TD*%
D23*
%TO.C,C6*%
X210481300Y-105410000D03*
X212556300Y-105410000D03*
%TD*%
D13*
%TO.C,C10*%
X199517000Y-118926000D03*
X201067000Y-118926000D03*
%TD*%
D12*
%TO.C,C15*%
X208630000Y-115495000D03*
X208630000Y-117045000D03*
%TD*%
D13*
%TO.C,C25*%
X219435000Y-128420000D03*
X220985000Y-128420000D03*
%TD*%
D23*
%TO.C,C7*%
X210485500Y-107500000D03*
X212560500Y-107500000D03*
%TD*%
D13*
%TO.C,C24*%
X208635000Y-127845000D03*
X210185000Y-127845000D03*
%TD*%
D22*
%TO.C,R11*%
X195560000Y-118955000D03*
X195560000Y-120605000D03*
%TD*%
D13*
%TO.C,C17*%
X208545000Y-113120000D03*
X210095000Y-113120000D03*
%TD*%
%TO.C,C3*%
X208590000Y-120490000D03*
X210140000Y-120490000D03*
%TD*%
%TO.C,C12*%
X199500000Y-111520000D03*
X201050000Y-111520000D03*
%TD*%
D22*
%TO.C,R12*%
X195580000Y-111525000D03*
X195580000Y-113175000D03*
%TD*%
D30*
%TO.C,IC1*%
X198170800Y-100177600D03*
X198170800Y-100827600D03*
X198170800Y-101477600D03*
X198170800Y-102127600D03*
X200670800Y-102127600D03*
X200670800Y-101477600D03*
X200670800Y-100827600D03*
X200670800Y-100177600D03*
%TD*%
D31*
%TO.C,J3*%
X187500000Y-100250000D03*
D32*
X187500000Y-97750000D03*
X187500000Y-95250000D03*
X187500000Y-92750000D03*
X187500000Y-90250000D03*
X185000000Y-100250000D03*
X185000000Y-97750000D03*
X185000000Y-95250000D03*
X185000000Y-92750000D03*
X185000000Y-90250000D03*
%TD*%
D25*
%TO.C,IC4*%
X201326000Y-113240000D03*
X201326000Y-114510000D03*
X201326000Y-115780000D03*
X201326000Y-117050000D03*
X206750000Y-117050000D03*
X206750000Y-115780000D03*
X206750000Y-114510000D03*
X206750000Y-113240000D03*
%TD*%
D33*
%TO.C,D1*%
X203276200Y-101738400D03*
X203276200Y-97688400D03*
%TD*%
D28*
%TO.C,J6*%
X185000000Y-134250000D03*
D29*
X185000000Y-131750000D03*
X185000000Y-129250000D03*
%TD*%
D34*
%TO.C,Q3*%
X193720000Y-120860000D03*
X193720000Y-118960000D03*
X191845000Y-119910000D03*
%TD*%
D14*
%TO.C,Q4*%
X201021400Y-104902000D03*
X201021400Y-106172000D03*
X201021400Y-107442000D03*
X201021400Y-108712000D03*
D15*
X206781400Y-108712000D03*
X206781400Y-104902000D03*
D16*
X205181400Y-106807000D03*
D17*
X203366400Y-106807000D03*
D18*
X202701400Y-106807000D03*
%TD*%
D35*
%TO.C,J1*%
X214340000Y-86350000D03*
X214340000Y-90650000D03*
X213540000Y-86350000D03*
X213540000Y-90650000D03*
X212740000Y-86350000D03*
X212740000Y-90650000D03*
X211940000Y-86350000D03*
X211940000Y-90650000D03*
X211140000Y-86350000D03*
X211140000Y-90650000D03*
X210340003Y-86350000D03*
X210340003Y-90650000D03*
X209540000Y-86350000D03*
X209540000Y-90650000D03*
X208740000Y-86350000D03*
X208740000Y-90650000D03*
X207940000Y-86350000D03*
X207940000Y-90650000D03*
X207140000Y-86350000D03*
X207140000Y-90650000D03*
X206340000Y-86350000D03*
X206340000Y-90650000D03*
X205540000Y-86350000D03*
X205540000Y-90650000D03*
D36*
X194170000Y-88500000D03*
D37*
X194170000Y-88500000D03*
D36*
X224920000Y-88500000D03*
D37*
X224920000Y-88500000D03*
D36*
X224920000Y-134970000D03*
D37*
X224920000Y-134970000D03*
D36*
X194180000Y-134970000D03*
D37*
X194180000Y-134970000D03*
%TD*%
D24*
%TO.C,R6*%
X199200000Y-96774000D03*
X200850000Y-96774000D03*
%TD*%
D38*
%TO.C,F1*%
X177445000Y-105200000D03*
X177445000Y-108600000D03*
X187365000Y-105200000D03*
X187365000Y-108600000D03*
%TD*%
D13*
%TO.C,C8*%
X210722600Y-109250000D03*
X212272600Y-109250000D03*
%TD*%
D12*
%TO.C,C21*%
X208680000Y-130370000D03*
X208680000Y-131920000D03*
%TD*%
D27*
%TO.C,R2*%
X200850000Y-98602800D03*
X199200000Y-98602800D03*
%TD*%
D12*
%TO.C,C1*%
X205714600Y-100164600D03*
X205714600Y-101714600D03*
%TD*%
D13*
%TO.C,C19*%
X214794800Y-122774200D03*
X216344800Y-122774200D03*
%TD*%
D34*
%TO.C,Q5*%
X193727500Y-113440000D03*
X193727500Y-111540000D03*
X191852500Y-112490000D03*
%TD*%
D25*
%TO.C,IC6*%
X201366000Y-127955000D03*
X201366000Y-129225000D03*
X201366000Y-130495000D03*
X201366000Y-131765000D03*
X206790000Y-131765000D03*
X206790000Y-130495000D03*
X206790000Y-129225000D03*
X206790000Y-127955000D03*
%TD*%
D11*
%TO.C,C9*%
X191516000Y-100025800D03*
X191516000Y-98475800D03*
%TD*%
D39*
%TO.C,TP6*%
X221660000Y-99540000D03*
%TD*%
%TO.C,TP9*%
X209470000Y-135500000D03*
%TD*%
%TO.C,TP8*%
X221630000Y-105640000D03*
%TD*%
%TO.C,TP4*%
X223680000Y-127190000D03*
%TD*%
%TO.C,TP3*%
X216350000Y-135500000D03*
%TD*%
%TO.C,TP5*%
X202625000Y-135400000D03*
%TD*%
%TO.C,TP2*%
X200960000Y-89350000D03*
%TD*%
%TO.C,TP7*%
X221710000Y-94370000D03*
%TD*%
M02*
