M48
; DRILL file {KiCad 9.0.6} date 2026-03-15T18:24:02-0500
; FORMAT={-:-/ absolute / inch / decimal}
; #@! TF.CreationDate,2026-03-15T18:24:02-05:00
; #@! TF.GenerationSoftware,Kicad,Pcbnew,9.0.6
; #@! TF.FileFunction,Plated,1,2,PTH
FMAT,2
INCH
; #@! TA.AperFunction,Plated,PTH,ViaDrill
T1C0.0118
; #@! TA.AperFunction,Plated,PTH,ComponentDrill
T2C0.0472
; #@! TA.AperFunction,Plated,PTH,ComponentDrill
T3C0.0630
; #@! TA.AperFunction,Plated,PTH,ComponentDrill
T4C0.1260
%
G90
G05
T1
X7.4428Y-3.6997
X7.45Y-3.85
X7.4521Y-3.7298
X7.4675Y-3.7591
X7.4758Y-3.832
X7.4911Y-3.79
X7.54Y-3.938
X7.56Y-4.39
X7.5728Y-4.6457
X7.622Y-4.6457
X7.63Y-3.89
X7.6516Y-3.688
X7.6713Y-4.6457
X7.6917Y-3.7116
X7.7492Y-5.0425
X7.7547Y-4.378
X7.7547Y-4.4059
X7.7638Y-4.7874
X7.7665Y-4.6674
X7.7665Y-4.6954
X7.7874Y-4.735
X7.8071Y-4.6667
X7.8071Y-4.695
X7.8083Y-4.3772
X7.8083Y-4.4055
X7.8254Y-4.1531
X7.8475Y-3.9728
X7.8508Y-5.2197
X7.8579Y-3.688
X7.8579Y-5.0843
X7.86Y-3.62
X7.8627Y-4.0211
X7.874Y-4.2815
X7.8772Y-3.9154
X7.8929Y-3.7116
X7.9429Y-3.9734
X7.9439Y-4.0433
X8.0248Y-3.4558
X8.0495Y-3.6557
X8.0913Y-3.8319
X8.1051Y-3.6335
X8.1323Y-5.3909
X8.1457Y-3.9429
X8.1982Y-5.0708
X8.202Y-4.501
X8.2368Y-4.7262
X8.2376Y-5.0342
X8.2416Y-4.4242
X8.261Y-4.5598
X8.265Y-4.7972
X8.2677Y-5.1969
X8.296Y-4.896
X8.312Y-4.608
X8.3189Y-4.821
X8.32Y-5.035
X8.327Y-4.452
X8.33Y-4.745
X8.412Y-5.028
X8.4386Y-3.6331
X8.4813Y-3.427
X8.4833Y-3.3748
X8.5039Y-4.1488
X8.5222Y-4.7388
X8.5348Y-5.0778
X8.5669Y-3.426
X8.5679Y-3.3738
X8.5937Y-5.1307
X8.599Y-4.547
X8.639Y-4.0748
X8.6398Y-5.1073
X8.6524Y-3.8472
X8.6586Y-3.63
X8.7264Y-4.508
X8.7982Y-5.1063
X8.808Y-3.78
X8.8102Y-4.3063
X8.815Y-3.9724
X8.8327Y-4.6713
X8.8685Y-4.6713
X8.8976Y-4.6469
T2
X7.2835Y-3.5531
X7.2835Y-3.6516
X7.2835Y-3.75
X7.2835Y-3.8484
X7.2835Y-3.9469
X7.2835Y-4.4587
X7.2835Y-4.5571
X7.2835Y-5.0886
X7.2835Y-5.187
X7.2835Y-5.2854
X7.2853Y-4.7736
X7.2853Y-4.872
X7.3819Y-3.5531
X7.3819Y-3.6516
X7.3819Y-3.75
X7.3819Y-3.8484
X7.3819Y-3.9469
T3
X6.986Y-4.1417
X6.986Y-4.2756
X7.3766Y-4.1417
X7.3766Y-4.2756
X7.9118Y-3.5177
X7.9774Y-5.3307
X8.2469Y-5.3346
X8.5177Y-5.3346
X8.7256Y-4.1591
X8.7268Y-3.9189
X8.7287Y-3.7154
X8.8063Y-5.0075
T4
X7.6445Y-3.4843
X7.6449Y-5.3138
X8.8551Y-3.4843
X8.8551Y-5.3138
M30
