%TF.GenerationSoftware,KiCad,Pcbnew,9.0.6*%
%TF.CreationDate,2026-03-14T23:32:23-05:00*%
%TF.ProjectId,Controls-LightingRev2PCB,436f6e74-726f-46c7-932d-4c6967687469,rev?*%
%TF.SameCoordinates,Original*%
%TF.FileFunction,Legend,Top*%
%TF.FilePolarity,Positive*%
%FSLAX46Y46*%
G04 Gerber Fmt 4.6, Leading zero omitted, Abs format (unit mm)*
G04 Created by KiCad (PCBNEW 9.0.6) date 2026-03-14 23:32:23*
%MOMM*%
%LPD*%
G01*
G04 APERTURE LIST*
G04 Aperture macros list*
%AMRoundRect*
0 Rectangle with rounded corners*
0 $1 Rounding radius*
0 $2 $3 $4 $5 $6 $7 $8 $9 X,Y pos of 4 corners*
0 Add a 4 corners polygon primitive as box body*
4,1,4,$2,$3,$4,$5,$6,$7,$8,$9,$2,$3,0*
0 Add four circle primitives for the rounded corners*
1,1,$1+$1,$2,$3*
1,1,$1+$1,$4,$5*
1,1,$1+$1,$6,$7*
1,1,$1+$1,$8,$9*
0 Add four rect primitives between the rounded corners*
20,1,$1+$1,$2,$3,$4,$5,0*
20,1,$1+$1,$4,$5,$6,$7,0*
20,1,$1+$1,$6,$7,$8,$9,0*
20,1,$1+$1,$8,$9,$2,$3,0*%
G04 Aperture macros list end*
%ADD10C,0.100000*%
%ADD11C,0.150000*%
%ADD12C,0.254000*%
%ADD13C,0.120000*%
%ADD14C,0.200000*%
%ADD15C,0.152400*%
%ADD16C,0.127000*%
%ADD17C,0.000000*%
%ADD18RoundRect,0.225000X0.250000X-0.225000X0.250000X0.225000X-0.250000X0.225000X-0.250000X-0.225000X0*%
%ADD19RoundRect,0.225000X-0.250000X0.225000X-0.250000X-0.225000X0.250000X-0.225000X0.250000X0.225000X0*%
%ADD20RoundRect,0.225000X-0.225000X-0.250000X0.225000X-0.250000X0.225000X0.250000X-0.225000X0.250000X0*%
%ADD21R,1.000000X0.750000*%
%ADD22R,0.480000X0.750000*%
%ADD23R,2.720000X4.560000*%
%ADD24R,0.910000X5.560000*%
%ADD25R,0.420000X4.560000*%
%ADD26R,0.800000X0.550000*%
%ADD27RoundRect,0.200000X0.275000X-0.200000X0.275000X0.200000X-0.275000X0.200000X-0.275000X-0.200000X0*%
%ADD28RoundRect,0.150000X-0.512500X-0.150000X0.512500X-0.150000X0.512500X0.150000X-0.512500X0.150000X0*%
%ADD29RoundRect,0.200000X-0.275000X0.200000X-0.275000X-0.200000X0.275000X-0.200000X0.275000X0.200000X0*%
%ADD30RoundRect,0.250000X-0.337500X-0.475000X0.337500X-0.475000X0.337500X0.475000X-0.337500X0.475000X0*%
%ADD31RoundRect,0.200000X-0.200000X-0.275000X0.200000X-0.275000X0.200000X0.275000X-0.200000X0.275000X0*%
%ADD32R,1.525000X0.650000*%
%ADD33RoundRect,0.237500X0.237500X-0.287500X0.237500X0.287500X-0.237500X0.287500X-0.237500X-0.287500X0*%
%ADD34RoundRect,0.200000X0.200000X0.275000X-0.200000X0.275000X-0.200000X-0.275000X0.200000X-0.275000X0*%
%ADD35C,1.700000*%
%ADD36RoundRect,0.250000X0.850000X0.600000X-0.850000X0.600000X-0.850000X-0.600000X0.850000X-0.600000X0*%
%ADD37O,2.200000X1.700000*%
%ADD38R,1.200000X0.450000*%
%ADD39RoundRect,0.250000X0.600000X0.600000X-0.600000X0.600000X-0.600000X-0.600000X0.600000X-0.600000X0*%
%ADD40R,1.670000X1.970000*%
%ADD41RoundRect,0.150000X0.587500X0.150000X-0.587500X0.150000X-0.587500X-0.150000X0.587500X-0.150000X0*%
%ADD42RoundRect,0.102000X-0.275000X-0.900000X0.275000X-0.900000X0.275000X0.900000X-0.275000X0.900000X0*%
%ADD43C,3.600000*%
%ADD44C,6.400000*%
%ADD45C,2.604000*%
%ADD46C,2.800000*%
G04 APERTURE END LIST*
D10*
X175996265Y-86407847D02*
X176262931Y-86407847D01*
X176377217Y-86826895D02*
X175996265Y-86826895D01*
X175996265Y-86826895D02*
X175996265Y-86026895D01*
X175996265Y-86026895D02*
X176377217Y-86026895D01*
X176834360Y-86826895D02*
X176758170Y-86788800D01*
X176758170Y-86788800D02*
X176720075Y-86712609D01*
X176720075Y-86712609D02*
X176720075Y-86026895D01*
X177139123Y-86826895D02*
X177139123Y-86293561D01*
X177139123Y-86026895D02*
X177101027Y-86064990D01*
X177101027Y-86064990D02*
X177139123Y-86103085D01*
X177139123Y-86103085D02*
X177177218Y-86064990D01*
X177177218Y-86064990D02*
X177139123Y-86026895D01*
X177139123Y-86026895D02*
X177139123Y-86103085D01*
X177862932Y-86826895D02*
X177862932Y-86407847D01*
X177862932Y-86407847D02*
X177824837Y-86331657D01*
X177824837Y-86331657D02*
X177748646Y-86293561D01*
X177748646Y-86293561D02*
X177596265Y-86293561D01*
X177596265Y-86293561D02*
X177520075Y-86331657D01*
X177862932Y-86788800D02*
X177786741Y-86826895D01*
X177786741Y-86826895D02*
X177596265Y-86826895D01*
X177596265Y-86826895D02*
X177520075Y-86788800D01*
X177520075Y-86788800D02*
X177481979Y-86712609D01*
X177481979Y-86712609D02*
X177481979Y-86636419D01*
X177481979Y-86636419D02*
X177520075Y-86560228D01*
X177520075Y-86560228D02*
X177596265Y-86522133D01*
X177596265Y-86522133D02*
X177786741Y-86522133D01*
X177786741Y-86522133D02*
X177862932Y-86484038D01*
X178243885Y-86293561D02*
X178243885Y-86826895D01*
X178243885Y-86369752D02*
X178281980Y-86331657D01*
X178281980Y-86331657D02*
X178358170Y-86293561D01*
X178358170Y-86293561D02*
X178472456Y-86293561D01*
X178472456Y-86293561D02*
X178548647Y-86331657D01*
X178548647Y-86331657D02*
X178586742Y-86407847D01*
X178586742Y-86407847D02*
X178586742Y-86826895D01*
X179310552Y-86826895D02*
X179310552Y-86407847D01*
X179310552Y-86407847D02*
X179272457Y-86331657D01*
X179272457Y-86331657D02*
X179196266Y-86293561D01*
X179196266Y-86293561D02*
X179043885Y-86293561D01*
X179043885Y-86293561D02*
X178967695Y-86331657D01*
X179310552Y-86788800D02*
X179234361Y-86826895D01*
X179234361Y-86826895D02*
X179043885Y-86826895D01*
X179043885Y-86826895D02*
X178967695Y-86788800D01*
X178967695Y-86788800D02*
X178929599Y-86712609D01*
X178929599Y-86712609D02*
X178929599Y-86636419D01*
X178929599Y-86636419D02*
X178967695Y-86560228D01*
X178967695Y-86560228D02*
X179043885Y-86522133D01*
X179043885Y-86522133D02*
X179234361Y-86522133D01*
X179234361Y-86522133D02*
X179310552Y-86484038D01*
X180186743Y-86026895D02*
X180643886Y-86026895D01*
X180415314Y-86826895D02*
X180415314Y-86026895D01*
X181215315Y-86788800D02*
X181139124Y-86826895D01*
X181139124Y-86826895D02*
X180986743Y-86826895D01*
X180986743Y-86826895D02*
X180910553Y-86788800D01*
X180910553Y-86788800D02*
X180872457Y-86712609D01*
X180872457Y-86712609D02*
X180872457Y-86407847D01*
X180872457Y-86407847D02*
X180910553Y-86331657D01*
X180910553Y-86331657D02*
X180986743Y-86293561D01*
X180986743Y-86293561D02*
X181139124Y-86293561D01*
X181139124Y-86293561D02*
X181215315Y-86331657D01*
X181215315Y-86331657D02*
X181253410Y-86407847D01*
X181253410Y-86407847D02*
X181253410Y-86484038D01*
X181253410Y-86484038D02*
X180872457Y-86560228D01*
X181596267Y-86293561D02*
X181596267Y-86979276D01*
X181596267Y-86979276D02*
X181558171Y-87055466D01*
X181558171Y-87055466D02*
X181481981Y-87093561D01*
X181481981Y-87093561D02*
X181443886Y-87093561D01*
X181596267Y-86026895D02*
X181558171Y-86064990D01*
X181558171Y-86064990D02*
X181596267Y-86103085D01*
X181596267Y-86103085D02*
X181634362Y-86064990D01*
X181634362Y-86064990D02*
X181596267Y-86026895D01*
X181596267Y-86026895D02*
X181596267Y-86103085D01*
X182281981Y-86788800D02*
X182205790Y-86826895D01*
X182205790Y-86826895D02*
X182053409Y-86826895D01*
X182053409Y-86826895D02*
X181977219Y-86788800D01*
X181977219Y-86788800D02*
X181939123Y-86712609D01*
X181939123Y-86712609D02*
X181939123Y-86407847D01*
X181939123Y-86407847D02*
X181977219Y-86331657D01*
X181977219Y-86331657D02*
X182053409Y-86293561D01*
X182053409Y-86293561D02*
X182205790Y-86293561D01*
X182205790Y-86293561D02*
X182281981Y-86331657D01*
X182281981Y-86331657D02*
X182320076Y-86407847D01*
X182320076Y-86407847D02*
X182320076Y-86484038D01*
X182320076Y-86484038D02*
X181939123Y-86560228D01*
X183005790Y-86826895D02*
X183005790Y-86026895D01*
X183005790Y-86788800D02*
X182929599Y-86826895D01*
X182929599Y-86826895D02*
X182777218Y-86826895D01*
X182777218Y-86826895D02*
X182701028Y-86788800D01*
X182701028Y-86788800D02*
X182662933Y-86750704D01*
X182662933Y-86750704D02*
X182624837Y-86674514D01*
X182624837Y-86674514D02*
X182624837Y-86445942D01*
X182624837Y-86445942D02*
X182662933Y-86369752D01*
X182662933Y-86369752D02*
X182701028Y-86331657D01*
X182701028Y-86331657D02*
X182777218Y-86293561D01*
X182777218Y-86293561D02*
X182929599Y-86293561D01*
X182929599Y-86293561D02*
X183005790Y-86331657D01*
X183729600Y-86826895D02*
X183729600Y-86407847D01*
X183729600Y-86407847D02*
X183691505Y-86331657D01*
X183691505Y-86331657D02*
X183615314Y-86293561D01*
X183615314Y-86293561D02*
X183462933Y-86293561D01*
X183462933Y-86293561D02*
X183386743Y-86331657D01*
X183729600Y-86788800D02*
X183653409Y-86826895D01*
X183653409Y-86826895D02*
X183462933Y-86826895D01*
X183462933Y-86826895D02*
X183386743Y-86788800D01*
X183386743Y-86788800D02*
X183348647Y-86712609D01*
X183348647Y-86712609D02*
X183348647Y-86636419D01*
X183348647Y-86636419D02*
X183386743Y-86560228D01*
X183386743Y-86560228D02*
X183462933Y-86522133D01*
X183462933Y-86522133D02*
X183653409Y-86522133D01*
X183653409Y-86522133D02*
X183729600Y-86484038D01*
X176356589Y-88198495D02*
X176023255Y-88198495D01*
X176023255Y-88198495D02*
X176023255Y-87398495D01*
X176589922Y-88198495D02*
X176589922Y-87665161D01*
X176589922Y-87398495D02*
X176556589Y-87436590D01*
X176556589Y-87436590D02*
X176589922Y-87474685D01*
X176589922Y-87474685D02*
X176623256Y-87436590D01*
X176623256Y-87436590D02*
X176589922Y-87398495D01*
X176589922Y-87398495D02*
X176589922Y-87474685D01*
X177223255Y-87665161D02*
X177223255Y-88312780D01*
X177223255Y-88312780D02*
X177189922Y-88388971D01*
X177189922Y-88388971D02*
X177156589Y-88427066D01*
X177156589Y-88427066D02*
X177089922Y-88465161D01*
X177089922Y-88465161D02*
X176989922Y-88465161D01*
X176989922Y-88465161D02*
X176923255Y-88427066D01*
X177223255Y-88160400D02*
X177156589Y-88198495D01*
X177156589Y-88198495D02*
X177023255Y-88198495D01*
X177023255Y-88198495D02*
X176956589Y-88160400D01*
X176956589Y-88160400D02*
X176923255Y-88122304D01*
X176923255Y-88122304D02*
X176889922Y-88046114D01*
X176889922Y-88046114D02*
X176889922Y-87817542D01*
X176889922Y-87817542D02*
X176923255Y-87741352D01*
X176923255Y-87741352D02*
X176956589Y-87703257D01*
X176956589Y-87703257D02*
X177023255Y-87665161D01*
X177023255Y-87665161D02*
X177156589Y-87665161D01*
X177156589Y-87665161D02*
X177223255Y-87703257D01*
X177556588Y-88198495D02*
X177556588Y-87398495D01*
X177856588Y-88198495D02*
X177856588Y-87779447D01*
X177856588Y-87779447D02*
X177823255Y-87703257D01*
X177823255Y-87703257D02*
X177756588Y-87665161D01*
X177756588Y-87665161D02*
X177656588Y-87665161D01*
X177656588Y-87665161D02*
X177589922Y-87703257D01*
X177589922Y-87703257D02*
X177556588Y-87741352D01*
X178089921Y-87665161D02*
X178356588Y-87665161D01*
X178189921Y-87398495D02*
X178189921Y-88084209D01*
X178189921Y-88084209D02*
X178223255Y-88160400D01*
X178223255Y-88160400D02*
X178289921Y-88198495D01*
X178289921Y-88198495D02*
X178356588Y-88198495D01*
X178589921Y-88198495D02*
X178589921Y-87665161D01*
X178589921Y-87398495D02*
X178556588Y-87436590D01*
X178556588Y-87436590D02*
X178589921Y-87474685D01*
X178589921Y-87474685D02*
X178623255Y-87436590D01*
X178623255Y-87436590D02*
X178589921Y-87398495D01*
X178589921Y-87398495D02*
X178589921Y-87474685D01*
X178923254Y-87665161D02*
X178923254Y-88198495D01*
X178923254Y-87741352D02*
X178956588Y-87703257D01*
X178956588Y-87703257D02*
X179023254Y-87665161D01*
X179023254Y-87665161D02*
X179123254Y-87665161D01*
X179123254Y-87665161D02*
X179189921Y-87703257D01*
X179189921Y-87703257D02*
X179223254Y-87779447D01*
X179223254Y-87779447D02*
X179223254Y-88198495D01*
X179856587Y-87665161D02*
X179856587Y-88312780D01*
X179856587Y-88312780D02*
X179823254Y-88388971D01*
X179823254Y-88388971D02*
X179789921Y-88427066D01*
X179789921Y-88427066D02*
X179723254Y-88465161D01*
X179723254Y-88465161D02*
X179623254Y-88465161D01*
X179623254Y-88465161D02*
X179556587Y-88427066D01*
X179856587Y-88160400D02*
X179789921Y-88198495D01*
X179789921Y-88198495D02*
X179656587Y-88198495D01*
X179656587Y-88198495D02*
X179589921Y-88160400D01*
X179589921Y-88160400D02*
X179556587Y-88122304D01*
X179556587Y-88122304D02*
X179523254Y-88046114D01*
X179523254Y-88046114D02*
X179523254Y-87817542D01*
X179523254Y-87817542D02*
X179556587Y-87741352D01*
X179556587Y-87741352D02*
X179589921Y-87703257D01*
X179589921Y-87703257D02*
X179656587Y-87665161D01*
X179656587Y-87665161D02*
X179789921Y-87665161D01*
X179789921Y-87665161D02*
X179856587Y-87703257D01*
X180956587Y-87779447D02*
X181056587Y-87817542D01*
X181056587Y-87817542D02*
X181089920Y-87855638D01*
X181089920Y-87855638D02*
X181123253Y-87931828D01*
X181123253Y-87931828D02*
X181123253Y-88046114D01*
X181123253Y-88046114D02*
X181089920Y-88122304D01*
X181089920Y-88122304D02*
X181056587Y-88160400D01*
X181056587Y-88160400D02*
X180989920Y-88198495D01*
X180989920Y-88198495D02*
X180723253Y-88198495D01*
X180723253Y-88198495D02*
X180723253Y-87398495D01*
X180723253Y-87398495D02*
X180956587Y-87398495D01*
X180956587Y-87398495D02*
X181023253Y-87436590D01*
X181023253Y-87436590D02*
X181056587Y-87474685D01*
X181056587Y-87474685D02*
X181089920Y-87550876D01*
X181089920Y-87550876D02*
X181089920Y-87627066D01*
X181089920Y-87627066D02*
X181056587Y-87703257D01*
X181056587Y-87703257D02*
X181023253Y-87741352D01*
X181023253Y-87741352D02*
X180956587Y-87779447D01*
X180956587Y-87779447D02*
X180723253Y-87779447D01*
X181523253Y-88198495D02*
X181456587Y-88160400D01*
X181456587Y-88160400D02*
X181423253Y-88122304D01*
X181423253Y-88122304D02*
X181389920Y-88046114D01*
X181389920Y-88046114D02*
X181389920Y-87817542D01*
X181389920Y-87817542D02*
X181423253Y-87741352D01*
X181423253Y-87741352D02*
X181456587Y-87703257D01*
X181456587Y-87703257D02*
X181523253Y-87665161D01*
X181523253Y-87665161D02*
X181623253Y-87665161D01*
X181623253Y-87665161D02*
X181689920Y-87703257D01*
X181689920Y-87703257D02*
X181723253Y-87741352D01*
X181723253Y-87741352D02*
X181756587Y-87817542D01*
X181756587Y-87817542D02*
X181756587Y-88046114D01*
X181756587Y-88046114D02*
X181723253Y-88122304D01*
X181723253Y-88122304D02*
X181689920Y-88160400D01*
X181689920Y-88160400D02*
X181623253Y-88198495D01*
X181623253Y-88198495D02*
X181523253Y-88198495D01*
X182356586Y-88198495D02*
X182356586Y-87779447D01*
X182356586Y-87779447D02*
X182323253Y-87703257D01*
X182323253Y-87703257D02*
X182256586Y-87665161D01*
X182256586Y-87665161D02*
X182123253Y-87665161D01*
X182123253Y-87665161D02*
X182056586Y-87703257D01*
X182356586Y-88160400D02*
X182289920Y-88198495D01*
X182289920Y-88198495D02*
X182123253Y-88198495D01*
X182123253Y-88198495D02*
X182056586Y-88160400D01*
X182056586Y-88160400D02*
X182023253Y-88084209D01*
X182023253Y-88084209D02*
X182023253Y-88008019D01*
X182023253Y-88008019D02*
X182056586Y-87931828D01*
X182056586Y-87931828D02*
X182123253Y-87893733D01*
X182123253Y-87893733D02*
X182289920Y-87893733D01*
X182289920Y-87893733D02*
X182356586Y-87855638D01*
X182689919Y-88198495D02*
X182689919Y-87665161D01*
X182689919Y-87817542D02*
X182723253Y-87741352D01*
X182723253Y-87741352D02*
X182756586Y-87703257D01*
X182756586Y-87703257D02*
X182823253Y-87665161D01*
X182823253Y-87665161D02*
X182889919Y-87665161D01*
X183423252Y-88198495D02*
X183423252Y-87398495D01*
X183423252Y-88160400D02*
X183356586Y-88198495D01*
X183356586Y-88198495D02*
X183223252Y-88198495D01*
X183223252Y-88198495D02*
X183156586Y-88160400D01*
X183156586Y-88160400D02*
X183123252Y-88122304D01*
X183123252Y-88122304D02*
X183089919Y-88046114D01*
X183089919Y-88046114D02*
X183089919Y-87817542D01*
X183089919Y-87817542D02*
X183123252Y-87741352D01*
X183123252Y-87741352D02*
X183156586Y-87703257D01*
X183156586Y-87703257D02*
X183223252Y-87665161D01*
X183223252Y-87665161D02*
X183356586Y-87665161D01*
X183356586Y-87665161D02*
X183423252Y-87703257D01*
X184489918Y-87398495D02*
X184489918Y-87969923D01*
X184489918Y-87969923D02*
X184456585Y-88084209D01*
X184456585Y-88084209D02*
X184389918Y-88160400D01*
X184389918Y-88160400D02*
X184289918Y-88198495D01*
X184289918Y-88198495D02*
X184223252Y-88198495D01*
X185123251Y-88198495D02*
X185123251Y-87779447D01*
X185123251Y-87779447D02*
X185089918Y-87703257D01*
X185089918Y-87703257D02*
X185023251Y-87665161D01*
X185023251Y-87665161D02*
X184889918Y-87665161D01*
X184889918Y-87665161D02*
X184823251Y-87703257D01*
X185123251Y-88160400D02*
X185056585Y-88198495D01*
X185056585Y-88198495D02*
X184889918Y-88198495D01*
X184889918Y-88198495D02*
X184823251Y-88160400D01*
X184823251Y-88160400D02*
X184789918Y-88084209D01*
X184789918Y-88084209D02*
X184789918Y-88008019D01*
X184789918Y-88008019D02*
X184823251Y-87931828D01*
X184823251Y-87931828D02*
X184889918Y-87893733D01*
X184889918Y-87893733D02*
X185056585Y-87893733D01*
X185056585Y-87893733D02*
X185123251Y-87855638D01*
X185456584Y-87665161D02*
X185456584Y-88198495D01*
X185456584Y-87741352D02*
X185489918Y-87703257D01*
X185489918Y-87703257D02*
X185556584Y-87665161D01*
X185556584Y-87665161D02*
X185656584Y-87665161D01*
X185656584Y-87665161D02*
X185723251Y-87703257D01*
X185723251Y-87703257D02*
X185756584Y-87779447D01*
X185756584Y-87779447D02*
X185756584Y-88198495D01*
X186089917Y-88122304D02*
X186123251Y-88160400D01*
X186123251Y-88160400D02*
X186089917Y-88198495D01*
X186089917Y-88198495D02*
X186056584Y-88160400D01*
X186056584Y-88160400D02*
X186089917Y-88122304D01*
X186089917Y-88122304D02*
X186089917Y-88198495D01*
X186923250Y-87474685D02*
X186956583Y-87436590D01*
X186956583Y-87436590D02*
X187023250Y-87398495D01*
X187023250Y-87398495D02*
X187189917Y-87398495D01*
X187189917Y-87398495D02*
X187256583Y-87436590D01*
X187256583Y-87436590D02*
X187289917Y-87474685D01*
X187289917Y-87474685D02*
X187323250Y-87550876D01*
X187323250Y-87550876D02*
X187323250Y-87627066D01*
X187323250Y-87627066D02*
X187289917Y-87741352D01*
X187289917Y-87741352D02*
X186889917Y-88198495D01*
X186889917Y-88198495D02*
X187323250Y-88198495D01*
X187756584Y-87398495D02*
X187823250Y-87398495D01*
X187823250Y-87398495D02*
X187889917Y-87436590D01*
X187889917Y-87436590D02*
X187923250Y-87474685D01*
X187923250Y-87474685D02*
X187956584Y-87550876D01*
X187956584Y-87550876D02*
X187989917Y-87703257D01*
X187989917Y-87703257D02*
X187989917Y-87893733D01*
X187989917Y-87893733D02*
X187956584Y-88046114D01*
X187956584Y-88046114D02*
X187923250Y-88122304D01*
X187923250Y-88122304D02*
X187889917Y-88160400D01*
X187889917Y-88160400D02*
X187823250Y-88198495D01*
X187823250Y-88198495D02*
X187756584Y-88198495D01*
X187756584Y-88198495D02*
X187689917Y-88160400D01*
X187689917Y-88160400D02*
X187656584Y-88122304D01*
X187656584Y-88122304D02*
X187623250Y-88046114D01*
X187623250Y-88046114D02*
X187589917Y-87893733D01*
X187589917Y-87893733D02*
X187589917Y-87703257D01*
X187589917Y-87703257D02*
X187623250Y-87550876D01*
X187623250Y-87550876D02*
X187656584Y-87474685D01*
X187656584Y-87474685D02*
X187689917Y-87436590D01*
X187689917Y-87436590D02*
X187756584Y-87398495D01*
X188256584Y-87474685D02*
X188289917Y-87436590D01*
X188289917Y-87436590D02*
X188356584Y-87398495D01*
X188356584Y-87398495D02*
X188523251Y-87398495D01*
X188523251Y-87398495D02*
X188589917Y-87436590D01*
X188589917Y-87436590D02*
X188623251Y-87474685D01*
X188623251Y-87474685D02*
X188656584Y-87550876D01*
X188656584Y-87550876D02*
X188656584Y-87627066D01*
X188656584Y-87627066D02*
X188623251Y-87741352D01*
X188623251Y-87741352D02*
X188223251Y-88198495D01*
X188223251Y-88198495D02*
X188656584Y-88198495D01*
X189256584Y-87398495D02*
X189123251Y-87398495D01*
X189123251Y-87398495D02*
X189056584Y-87436590D01*
X189056584Y-87436590D02*
X189023251Y-87474685D01*
X189023251Y-87474685D02*
X188956584Y-87588971D01*
X188956584Y-87588971D02*
X188923251Y-87741352D01*
X188923251Y-87741352D02*
X188923251Y-88046114D01*
X188923251Y-88046114D02*
X188956584Y-88122304D01*
X188956584Y-88122304D02*
X188989918Y-88160400D01*
X188989918Y-88160400D02*
X189056584Y-88198495D01*
X189056584Y-88198495D02*
X189189918Y-88198495D01*
X189189918Y-88198495D02*
X189256584Y-88160400D01*
X189256584Y-88160400D02*
X189289918Y-88122304D01*
X189289918Y-88122304D02*
X189323251Y-88046114D01*
X189323251Y-88046114D02*
X189323251Y-87855638D01*
X189323251Y-87855638D02*
X189289918Y-87779447D01*
X189289918Y-87779447D02*
X189256584Y-87741352D01*
X189256584Y-87741352D02*
X189189918Y-87703257D01*
X189189918Y-87703257D02*
X189056584Y-87703257D01*
X189056584Y-87703257D02*
X188989918Y-87741352D01*
X188989918Y-87741352D02*
X188956584Y-87779447D01*
X188956584Y-87779447D02*
X188923251Y-87855638D01*
D11*
X193424980Y-98889266D02*
X193472600Y-98936885D01*
X193472600Y-98936885D02*
X193520219Y-99079742D01*
X193520219Y-99079742D02*
X193520219Y-99174980D01*
X193520219Y-99174980D02*
X193472600Y-99317837D01*
X193472600Y-99317837D02*
X193377361Y-99413075D01*
X193377361Y-99413075D02*
X193282123Y-99460694D01*
X193282123Y-99460694D02*
X193091647Y-99508313D01*
X193091647Y-99508313D02*
X192948790Y-99508313D01*
X192948790Y-99508313D02*
X192758314Y-99460694D01*
X192758314Y-99460694D02*
X192663076Y-99413075D01*
X192663076Y-99413075D02*
X192567838Y-99317837D01*
X192567838Y-99317837D02*
X192520219Y-99174980D01*
X192520219Y-99174980D02*
X192520219Y-99079742D01*
X192520219Y-99079742D02*
X192567838Y-98936885D01*
X192567838Y-98936885D02*
X192615457Y-98889266D01*
X192853552Y-98032123D02*
X193520219Y-98032123D01*
X192472600Y-98270218D02*
X193186885Y-98508313D01*
X193186885Y-98508313D02*
X193186885Y-97889266D01*
X210492780Y-123789666D02*
X210540400Y-123837285D01*
X210540400Y-123837285D02*
X210588019Y-123980142D01*
X210588019Y-123980142D02*
X210588019Y-124075380D01*
X210588019Y-124075380D02*
X210540400Y-124218237D01*
X210540400Y-124218237D02*
X210445161Y-124313475D01*
X210445161Y-124313475D02*
X210349923Y-124361094D01*
X210349923Y-124361094D02*
X210159447Y-124408713D01*
X210159447Y-124408713D02*
X210016590Y-124408713D01*
X210016590Y-124408713D02*
X209826114Y-124361094D01*
X209826114Y-124361094D02*
X209730876Y-124313475D01*
X209730876Y-124313475D02*
X209635638Y-124218237D01*
X209635638Y-124218237D02*
X209588019Y-124075380D01*
X209588019Y-124075380D02*
X209588019Y-123980142D01*
X209588019Y-123980142D02*
X209635638Y-123837285D01*
X209635638Y-123837285D02*
X209683257Y-123789666D01*
X209683257Y-123408713D02*
X209635638Y-123361094D01*
X209635638Y-123361094D02*
X209588019Y-123265856D01*
X209588019Y-123265856D02*
X209588019Y-123027761D01*
X209588019Y-123027761D02*
X209635638Y-122932523D01*
X209635638Y-122932523D02*
X209683257Y-122884904D01*
X209683257Y-122884904D02*
X209778495Y-122837285D01*
X209778495Y-122837285D02*
X209873733Y-122837285D01*
X209873733Y-122837285D02*
X210016590Y-122884904D01*
X210016590Y-122884904D02*
X210588019Y-123456332D01*
X210588019Y-123456332D02*
X210588019Y-122837285D01*
X219197142Y-125959580D02*
X219149523Y-126007200D01*
X219149523Y-126007200D02*
X219006666Y-126054819D01*
X219006666Y-126054819D02*
X218911428Y-126054819D01*
X218911428Y-126054819D02*
X218768571Y-126007200D01*
X218768571Y-126007200D02*
X218673333Y-125911961D01*
X218673333Y-125911961D02*
X218625714Y-125816723D01*
X218625714Y-125816723D02*
X218578095Y-125626247D01*
X218578095Y-125626247D02*
X218578095Y-125483390D01*
X218578095Y-125483390D02*
X218625714Y-125292914D01*
X218625714Y-125292914D02*
X218673333Y-125197676D01*
X218673333Y-125197676D02*
X218768571Y-125102438D01*
X218768571Y-125102438D02*
X218911428Y-125054819D01*
X218911428Y-125054819D02*
X219006666Y-125054819D01*
X219006666Y-125054819D02*
X219149523Y-125102438D01*
X219149523Y-125102438D02*
X219197142Y-125150057D01*
X219578095Y-125150057D02*
X219625714Y-125102438D01*
X219625714Y-125102438D02*
X219720952Y-125054819D01*
X219720952Y-125054819D02*
X219959047Y-125054819D01*
X219959047Y-125054819D02*
X220054285Y-125102438D01*
X220054285Y-125102438D02*
X220101904Y-125150057D01*
X220101904Y-125150057D02*
X220149523Y-125245295D01*
X220149523Y-125245295D02*
X220149523Y-125340533D01*
X220149523Y-125340533D02*
X220101904Y-125483390D01*
X220101904Y-125483390D02*
X219530476Y-126054819D01*
X219530476Y-126054819D02*
X220149523Y-126054819D01*
X220482857Y-125054819D02*
X221149523Y-125054819D01*
X221149523Y-125054819D02*
X220720952Y-126054819D01*
D12*
X191649047Y-103946270D02*
X191528095Y-103885794D01*
X191528095Y-103885794D02*
X191407142Y-103764842D01*
X191407142Y-103764842D02*
X191225714Y-103583413D01*
X191225714Y-103583413D02*
X191104761Y-103522937D01*
X191104761Y-103522937D02*
X190983809Y-103522937D01*
X191044285Y-103825318D02*
X190923333Y-103764842D01*
X190923333Y-103764842D02*
X190802380Y-103643889D01*
X190802380Y-103643889D02*
X190741904Y-103401984D01*
X190741904Y-103401984D02*
X190741904Y-102978651D01*
X190741904Y-102978651D02*
X190802380Y-102736746D01*
X190802380Y-102736746D02*
X190923333Y-102615794D01*
X190923333Y-102615794D02*
X191044285Y-102555318D01*
X191044285Y-102555318D02*
X191286190Y-102555318D01*
X191286190Y-102555318D02*
X191407142Y-102615794D01*
X191407142Y-102615794D02*
X191528095Y-102736746D01*
X191528095Y-102736746D02*
X191588571Y-102978651D01*
X191588571Y-102978651D02*
X191588571Y-103401984D01*
X191588571Y-103401984D02*
X191528095Y-103643889D01*
X191528095Y-103643889D02*
X191407142Y-103764842D01*
X191407142Y-103764842D02*
X191286190Y-103825318D01*
X191286190Y-103825318D02*
X191044285Y-103825318D01*
X192798095Y-103825318D02*
X192072380Y-103825318D01*
X192435237Y-103825318D02*
X192435237Y-102555318D01*
X192435237Y-102555318D02*
X192314285Y-102736746D01*
X192314285Y-102736746D02*
X192193333Y-102857699D01*
X192193333Y-102857699D02*
X192072380Y-102918175D01*
X223300237Y-122004318D02*
X223300237Y-120734318D01*
X224630714Y-121883365D02*
X224570238Y-121943842D01*
X224570238Y-121943842D02*
X224388809Y-122004318D01*
X224388809Y-122004318D02*
X224267857Y-122004318D01*
X224267857Y-122004318D02*
X224086428Y-121943842D01*
X224086428Y-121943842D02*
X223965476Y-121822889D01*
X223965476Y-121822889D02*
X223904999Y-121701937D01*
X223904999Y-121701937D02*
X223844523Y-121460032D01*
X223844523Y-121460032D02*
X223844523Y-121278603D01*
X223844523Y-121278603D02*
X223904999Y-121036699D01*
X223904999Y-121036699D02*
X223965476Y-120915746D01*
X223965476Y-120915746D02*
X224086428Y-120794794D01*
X224086428Y-120794794D02*
X224267857Y-120734318D01*
X224267857Y-120734318D02*
X224388809Y-120734318D01*
X224388809Y-120734318D02*
X224570238Y-120794794D01*
X224570238Y-120794794D02*
X224630714Y-120855270D01*
X225114523Y-120855270D02*
X225174999Y-120794794D01*
X225174999Y-120794794D02*
X225295952Y-120734318D01*
X225295952Y-120734318D02*
X225598333Y-120734318D01*
X225598333Y-120734318D02*
X225719285Y-120794794D01*
X225719285Y-120794794D02*
X225779761Y-120855270D01*
X225779761Y-120855270D02*
X225840238Y-120976222D01*
X225840238Y-120976222D02*
X225840238Y-121097175D01*
X225840238Y-121097175D02*
X225779761Y-121278603D01*
X225779761Y-121278603D02*
X225054047Y-122004318D01*
X225054047Y-122004318D02*
X225840238Y-122004318D01*
D11*
X196803180Y-98871066D02*
X196850800Y-98918685D01*
X196850800Y-98918685D02*
X196898419Y-99061542D01*
X196898419Y-99061542D02*
X196898419Y-99156780D01*
X196898419Y-99156780D02*
X196850800Y-99299637D01*
X196850800Y-99299637D02*
X196755561Y-99394875D01*
X196755561Y-99394875D02*
X196660323Y-99442494D01*
X196660323Y-99442494D02*
X196469847Y-99490113D01*
X196469847Y-99490113D02*
X196326990Y-99490113D01*
X196326990Y-99490113D02*
X196136514Y-99442494D01*
X196136514Y-99442494D02*
X196041276Y-99394875D01*
X196041276Y-99394875D02*
X195946038Y-99299637D01*
X195946038Y-99299637D02*
X195898419Y-99156780D01*
X195898419Y-99156780D02*
X195898419Y-99061542D01*
X195898419Y-99061542D02*
X195946038Y-98918685D01*
X195946038Y-98918685D02*
X195993657Y-98871066D01*
X195898419Y-97966304D02*
X195898419Y-98442494D01*
X195898419Y-98442494D02*
X196374609Y-98490113D01*
X196374609Y-98490113D02*
X196326990Y-98442494D01*
X196326990Y-98442494D02*
X196279371Y-98347256D01*
X196279371Y-98347256D02*
X196279371Y-98109161D01*
X196279371Y-98109161D02*
X196326990Y-98013923D01*
X196326990Y-98013923D02*
X196374609Y-97966304D01*
X196374609Y-97966304D02*
X196469847Y-97918685D01*
X196469847Y-97918685D02*
X196707942Y-97918685D01*
X196707942Y-97918685D02*
X196803180Y-97966304D01*
X196803180Y-97966304D02*
X196850800Y-98013923D01*
X196850800Y-98013923D02*
X196898419Y-98109161D01*
X196898419Y-98109161D02*
X196898419Y-98347256D01*
X196898419Y-98347256D02*
X196850800Y-98442494D01*
X196850800Y-98442494D02*
X196803180Y-98490113D01*
X195247419Y-98896466D02*
X194771228Y-99229799D01*
X195247419Y-99467894D02*
X194247419Y-99467894D01*
X194247419Y-99467894D02*
X194247419Y-99086942D01*
X194247419Y-99086942D02*
X194295038Y-98991704D01*
X194295038Y-98991704D02*
X194342657Y-98944085D01*
X194342657Y-98944085D02*
X194437895Y-98896466D01*
X194437895Y-98896466D02*
X194580752Y-98896466D01*
X194580752Y-98896466D02*
X194675990Y-98944085D01*
X194675990Y-98944085D02*
X194723609Y-98991704D01*
X194723609Y-98991704D02*
X194771228Y-99086942D01*
X194771228Y-99086942D02*
X194771228Y-99467894D01*
X195247419Y-97944085D02*
X195247419Y-98515513D01*
X195247419Y-98229799D02*
X194247419Y-98229799D01*
X194247419Y-98229799D02*
X194390276Y-98325037D01*
X194390276Y-98325037D02*
X194485514Y-98420275D01*
X194485514Y-98420275D02*
X194533133Y-98515513D01*
X212361019Y-126253104D02*
X213170542Y-126253104D01*
X213170542Y-126253104D02*
X213265780Y-126205485D01*
X213265780Y-126205485D02*
X213313400Y-126157866D01*
X213313400Y-126157866D02*
X213361019Y-126062628D01*
X213361019Y-126062628D02*
X213361019Y-125872152D01*
X213361019Y-125872152D02*
X213313400Y-125776914D01*
X213313400Y-125776914D02*
X213265780Y-125729295D01*
X213265780Y-125729295D02*
X213170542Y-125681676D01*
X213170542Y-125681676D02*
X212361019Y-125681676D01*
X212361019Y-124729295D02*
X212361019Y-125205485D01*
X212361019Y-125205485D02*
X212837209Y-125253104D01*
X212837209Y-125253104D02*
X212789590Y-125205485D01*
X212789590Y-125205485D02*
X212741971Y-125110247D01*
X212741971Y-125110247D02*
X212741971Y-124872152D01*
X212741971Y-124872152D02*
X212789590Y-124776914D01*
X212789590Y-124776914D02*
X212837209Y-124729295D01*
X212837209Y-124729295D02*
X212932447Y-124681676D01*
X212932447Y-124681676D02*
X213170542Y-124681676D01*
X213170542Y-124681676D02*
X213265780Y-124729295D01*
X213265780Y-124729295D02*
X213313400Y-124776914D01*
X213313400Y-124776914D02*
X213361019Y-124872152D01*
X213361019Y-124872152D02*
X213361019Y-125110247D01*
X213361019Y-125110247D02*
X213313400Y-125205485D01*
X213313400Y-125205485D02*
X213265780Y-125253104D01*
X227534819Y-124052857D02*
X227058628Y-124386190D01*
X227534819Y-124624285D02*
X226534819Y-124624285D01*
X226534819Y-124624285D02*
X226534819Y-124243333D01*
X226534819Y-124243333D02*
X226582438Y-124148095D01*
X226582438Y-124148095D02*
X226630057Y-124100476D01*
X226630057Y-124100476D02*
X226725295Y-124052857D01*
X226725295Y-124052857D02*
X226868152Y-124052857D01*
X226868152Y-124052857D02*
X226963390Y-124100476D01*
X226963390Y-124100476D02*
X227011009Y-124148095D01*
X227011009Y-124148095D02*
X227058628Y-124243333D01*
X227058628Y-124243333D02*
X227058628Y-124624285D01*
X227534819Y-123100476D02*
X227534819Y-123671904D01*
X227534819Y-123386190D02*
X226534819Y-123386190D01*
X226534819Y-123386190D02*
X226677676Y-123481428D01*
X226677676Y-123481428D02*
X226772914Y-123576666D01*
X226772914Y-123576666D02*
X226820533Y-123671904D01*
X226534819Y-122767142D02*
X226534819Y-122148095D01*
X226534819Y-122148095D02*
X226915771Y-122481428D01*
X226915771Y-122481428D02*
X226915771Y-122338571D01*
X226915771Y-122338571D02*
X226963390Y-122243333D01*
X226963390Y-122243333D02*
X227011009Y-122195714D01*
X227011009Y-122195714D02*
X227106247Y-122148095D01*
X227106247Y-122148095D02*
X227344342Y-122148095D01*
X227344342Y-122148095D02*
X227439580Y-122195714D01*
X227439580Y-122195714D02*
X227487200Y-122243333D01*
X227487200Y-122243333D02*
X227534819Y-122338571D01*
X227534819Y-122338571D02*
X227534819Y-122624285D01*
X227534819Y-122624285D02*
X227487200Y-122719523D01*
X227487200Y-122719523D02*
X227439580Y-122767142D01*
X224607142Y-118679580D02*
X224559523Y-118727200D01*
X224559523Y-118727200D02*
X224416666Y-118774819D01*
X224416666Y-118774819D02*
X224321428Y-118774819D01*
X224321428Y-118774819D02*
X224178571Y-118727200D01*
X224178571Y-118727200D02*
X224083333Y-118631961D01*
X224083333Y-118631961D02*
X224035714Y-118536723D01*
X224035714Y-118536723D02*
X223988095Y-118346247D01*
X223988095Y-118346247D02*
X223988095Y-118203390D01*
X223988095Y-118203390D02*
X224035714Y-118012914D01*
X224035714Y-118012914D02*
X224083333Y-117917676D01*
X224083333Y-117917676D02*
X224178571Y-117822438D01*
X224178571Y-117822438D02*
X224321428Y-117774819D01*
X224321428Y-117774819D02*
X224416666Y-117774819D01*
X224416666Y-117774819D02*
X224559523Y-117822438D01*
X224559523Y-117822438D02*
X224607142Y-117870057D01*
X224988095Y-117870057D02*
X225035714Y-117822438D01*
X225035714Y-117822438D02*
X225130952Y-117774819D01*
X225130952Y-117774819D02*
X225369047Y-117774819D01*
X225369047Y-117774819D02*
X225464285Y-117822438D01*
X225464285Y-117822438D02*
X225511904Y-117870057D01*
X225511904Y-117870057D02*
X225559523Y-117965295D01*
X225559523Y-117965295D02*
X225559523Y-118060533D01*
X225559523Y-118060533D02*
X225511904Y-118203390D01*
X225511904Y-118203390D02*
X224940476Y-118774819D01*
X224940476Y-118774819D02*
X225559523Y-118774819D01*
X226416666Y-117774819D02*
X226226190Y-117774819D01*
X226226190Y-117774819D02*
X226130952Y-117822438D01*
X226130952Y-117822438D02*
X226083333Y-117870057D01*
X226083333Y-117870057D02*
X225988095Y-118012914D01*
X225988095Y-118012914D02*
X225940476Y-118203390D01*
X225940476Y-118203390D02*
X225940476Y-118584342D01*
X225940476Y-118584342D02*
X225988095Y-118679580D01*
X225988095Y-118679580D02*
X226035714Y-118727200D01*
X226035714Y-118727200D02*
X226130952Y-118774819D01*
X226130952Y-118774819D02*
X226321428Y-118774819D01*
X226321428Y-118774819D02*
X226416666Y-118727200D01*
X226416666Y-118727200D02*
X226464285Y-118679580D01*
X226464285Y-118679580D02*
X226511904Y-118584342D01*
X226511904Y-118584342D02*
X226511904Y-118346247D01*
X226511904Y-118346247D02*
X226464285Y-118251009D01*
X226464285Y-118251009D02*
X226416666Y-118203390D01*
X226416666Y-118203390D02*
X226321428Y-118155771D01*
X226321428Y-118155771D02*
X226130952Y-118155771D01*
X226130952Y-118155771D02*
X226035714Y-118203390D01*
X226035714Y-118203390D02*
X225988095Y-118251009D01*
X225988095Y-118251009D02*
X225940476Y-118346247D01*
X219054819Y-121467857D02*
X218578628Y-121801190D01*
X219054819Y-122039285D02*
X218054819Y-122039285D01*
X218054819Y-122039285D02*
X218054819Y-121658333D01*
X218054819Y-121658333D02*
X218102438Y-121563095D01*
X218102438Y-121563095D02*
X218150057Y-121515476D01*
X218150057Y-121515476D02*
X218245295Y-121467857D01*
X218245295Y-121467857D02*
X218388152Y-121467857D01*
X218388152Y-121467857D02*
X218483390Y-121515476D01*
X218483390Y-121515476D02*
X218531009Y-121563095D01*
X218531009Y-121563095D02*
X218578628Y-121658333D01*
X218578628Y-121658333D02*
X218578628Y-122039285D01*
X219054819Y-120515476D02*
X219054819Y-121086904D01*
X219054819Y-120801190D02*
X218054819Y-120801190D01*
X218054819Y-120801190D02*
X218197676Y-120896428D01*
X218197676Y-120896428D02*
X218292914Y-120991666D01*
X218292914Y-120991666D02*
X218340533Y-121086904D01*
X218054819Y-119658333D02*
X218054819Y-119848809D01*
X218054819Y-119848809D02*
X218102438Y-119944047D01*
X218102438Y-119944047D02*
X218150057Y-119991666D01*
X218150057Y-119991666D02*
X218292914Y-120086904D01*
X218292914Y-120086904D02*
X218483390Y-120134523D01*
X218483390Y-120134523D02*
X218864342Y-120134523D01*
X218864342Y-120134523D02*
X218959580Y-120086904D01*
X218959580Y-120086904D02*
X219007200Y-120039285D01*
X219007200Y-120039285D02*
X219054819Y-119944047D01*
X219054819Y-119944047D02*
X219054819Y-119753571D01*
X219054819Y-119753571D02*
X219007200Y-119658333D01*
X219007200Y-119658333D02*
X218959580Y-119610714D01*
X218959580Y-119610714D02*
X218864342Y-119563095D01*
X218864342Y-119563095D02*
X218626247Y-119563095D01*
X218626247Y-119563095D02*
X218531009Y-119610714D01*
X218531009Y-119610714D02*
X218483390Y-119658333D01*
X218483390Y-119658333D02*
X218435771Y-119753571D01*
X218435771Y-119753571D02*
X218435771Y-119944047D01*
X218435771Y-119944047D02*
X218483390Y-120039285D01*
X218483390Y-120039285D02*
X218531009Y-120086904D01*
X218531009Y-120086904D02*
X218626247Y-120134523D01*
X208583333Y-103954819D02*
X208250000Y-103478628D01*
X208011905Y-103954819D02*
X208011905Y-102954819D01*
X208011905Y-102954819D02*
X208392857Y-102954819D01*
X208392857Y-102954819D02*
X208488095Y-103002438D01*
X208488095Y-103002438D02*
X208535714Y-103050057D01*
X208535714Y-103050057D02*
X208583333Y-103145295D01*
X208583333Y-103145295D02*
X208583333Y-103288152D01*
X208583333Y-103288152D02*
X208535714Y-103383390D01*
X208535714Y-103383390D02*
X208488095Y-103431009D01*
X208488095Y-103431009D02*
X208392857Y-103478628D01*
X208392857Y-103478628D02*
X208011905Y-103478628D01*
X208916667Y-102954819D02*
X209583333Y-102954819D01*
X209583333Y-102954819D02*
X209154762Y-103954819D01*
D12*
X202850237Y-123079318D02*
X202850237Y-121809318D01*
X204180714Y-122958365D02*
X204120238Y-123018842D01*
X204120238Y-123018842D02*
X203938809Y-123079318D01*
X203938809Y-123079318D02*
X203817857Y-123079318D01*
X203817857Y-123079318D02*
X203636428Y-123018842D01*
X203636428Y-123018842D02*
X203515476Y-122897889D01*
X203515476Y-122897889D02*
X203454999Y-122776937D01*
X203454999Y-122776937D02*
X203394523Y-122535032D01*
X203394523Y-122535032D02*
X203394523Y-122353603D01*
X203394523Y-122353603D02*
X203454999Y-122111699D01*
X203454999Y-122111699D02*
X203515476Y-121990746D01*
X203515476Y-121990746D02*
X203636428Y-121869794D01*
X203636428Y-121869794D02*
X203817857Y-121809318D01*
X203817857Y-121809318D02*
X203938809Y-121809318D01*
X203938809Y-121809318D02*
X204120238Y-121869794D01*
X204120238Y-121869794D02*
X204180714Y-121930270D01*
X204604047Y-121809318D02*
X205390238Y-121809318D01*
X205390238Y-121809318D02*
X204966904Y-122293127D01*
X204966904Y-122293127D02*
X205148333Y-122293127D01*
X205148333Y-122293127D02*
X205269285Y-122353603D01*
X205269285Y-122353603D02*
X205329761Y-122414080D01*
X205329761Y-122414080D02*
X205390238Y-122535032D01*
X205390238Y-122535032D02*
X205390238Y-122837413D01*
X205390238Y-122837413D02*
X205329761Y-122958365D01*
X205329761Y-122958365D02*
X205269285Y-123018842D01*
X205269285Y-123018842D02*
X205148333Y-123079318D01*
X205148333Y-123079318D02*
X204785476Y-123079318D01*
X204785476Y-123079318D02*
X204664523Y-123018842D01*
X204664523Y-123018842D02*
X204604047Y-122958365D01*
D11*
X212032533Y-102694219D02*
X211556343Y-102694219D01*
X211556343Y-102694219D02*
X211556343Y-101694219D01*
X212223010Y-101694219D02*
X212556343Y-102694219D01*
X212556343Y-102694219D02*
X212889676Y-101694219D01*
X213223010Y-102694219D02*
X213223010Y-101694219D01*
X213223010Y-101694219D02*
X213603962Y-101694219D01*
X213603962Y-101694219D02*
X213699200Y-101741838D01*
X213699200Y-101741838D02*
X213746819Y-101789457D01*
X213746819Y-101789457D02*
X213794438Y-101884695D01*
X213794438Y-101884695D02*
X213794438Y-102027552D01*
X213794438Y-102027552D02*
X213746819Y-102122790D01*
X213746819Y-102122790D02*
X213699200Y-102170409D01*
X213699200Y-102170409D02*
X213603962Y-102218028D01*
X213603962Y-102218028D02*
X213223010Y-102218028D01*
X214127772Y-101694219D02*
X214365867Y-102694219D01*
X214365867Y-102694219D02*
X214556343Y-101979933D01*
X214556343Y-101979933D02*
X214746819Y-102694219D01*
X214746819Y-102694219D02*
X214984915Y-101694219D01*
X215937295Y-102694219D02*
X215603962Y-102218028D01*
X215365867Y-102694219D02*
X215365867Y-101694219D01*
X215365867Y-101694219D02*
X215746819Y-101694219D01*
X215746819Y-101694219D02*
X215842057Y-101741838D01*
X215842057Y-101741838D02*
X215889676Y-101789457D01*
X215889676Y-101789457D02*
X215937295Y-101884695D01*
X215937295Y-101884695D02*
X215937295Y-102027552D01*
X215937295Y-102027552D02*
X215889676Y-102122790D01*
X215889676Y-102122790D02*
X215842057Y-102170409D01*
X215842057Y-102170409D02*
X215746819Y-102218028D01*
X215746819Y-102218028D02*
X215365867Y-102218028D01*
X216889676Y-102694219D02*
X216318248Y-102694219D01*
X216603962Y-102694219D02*
X216603962Y-101694219D01*
X216603962Y-101694219D02*
X216508724Y-101837076D01*
X216508724Y-101837076D02*
X216413486Y-101932314D01*
X216413486Y-101932314D02*
X216318248Y-101979933D01*
X220857142Y-118779819D02*
X220523809Y-118303628D01*
X220285714Y-118779819D02*
X220285714Y-117779819D01*
X220285714Y-117779819D02*
X220666666Y-117779819D01*
X220666666Y-117779819D02*
X220761904Y-117827438D01*
X220761904Y-117827438D02*
X220809523Y-117875057D01*
X220809523Y-117875057D02*
X220857142Y-117970295D01*
X220857142Y-117970295D02*
X220857142Y-118113152D01*
X220857142Y-118113152D02*
X220809523Y-118208390D01*
X220809523Y-118208390D02*
X220761904Y-118256009D01*
X220761904Y-118256009D02*
X220666666Y-118303628D01*
X220666666Y-118303628D02*
X220285714Y-118303628D01*
X221809523Y-118779819D02*
X221238095Y-118779819D01*
X221523809Y-118779819D02*
X221523809Y-117779819D01*
X221523809Y-117779819D02*
X221428571Y-117922676D01*
X221428571Y-117922676D02*
X221333333Y-118017914D01*
X221333333Y-118017914D02*
X221238095Y-118065533D01*
X222666666Y-118113152D02*
X222666666Y-118779819D01*
X222428571Y-117732200D02*
X222190476Y-118446485D01*
X222190476Y-118446485D02*
X222809523Y-118446485D01*
X187525066Y-122898819D02*
X187525066Y-123613104D01*
X187525066Y-123613104D02*
X187477447Y-123755961D01*
X187477447Y-123755961D02*
X187382209Y-123851200D01*
X187382209Y-123851200D02*
X187239352Y-123898819D01*
X187239352Y-123898819D02*
X187144114Y-123898819D01*
X188477447Y-122898819D02*
X188001257Y-122898819D01*
X188001257Y-122898819D02*
X187953638Y-123375009D01*
X187953638Y-123375009D02*
X188001257Y-123327390D01*
X188001257Y-123327390D02*
X188096495Y-123279771D01*
X188096495Y-123279771D02*
X188334590Y-123279771D01*
X188334590Y-123279771D02*
X188429828Y-123327390D01*
X188429828Y-123327390D02*
X188477447Y-123375009D01*
X188477447Y-123375009D02*
X188525066Y-123470247D01*
X188525066Y-123470247D02*
X188525066Y-123708342D01*
X188525066Y-123708342D02*
X188477447Y-123803580D01*
X188477447Y-123803580D02*
X188429828Y-123851200D01*
X188429828Y-123851200D02*
X188334590Y-123898819D01*
X188334590Y-123898819D02*
X188096495Y-123898819D01*
X188096495Y-123898819D02*
X188001257Y-123851200D01*
X188001257Y-123851200D02*
X187953638Y-123803580D01*
X212390542Y-128460619D02*
X212057209Y-127984428D01*
X211819114Y-128460619D02*
X211819114Y-127460619D01*
X211819114Y-127460619D02*
X212200066Y-127460619D01*
X212200066Y-127460619D02*
X212295304Y-127508238D01*
X212295304Y-127508238D02*
X212342923Y-127555857D01*
X212342923Y-127555857D02*
X212390542Y-127651095D01*
X212390542Y-127651095D02*
X212390542Y-127793952D01*
X212390542Y-127793952D02*
X212342923Y-127889190D01*
X212342923Y-127889190D02*
X212295304Y-127936809D01*
X212295304Y-127936809D02*
X212200066Y-127984428D01*
X212200066Y-127984428D02*
X211819114Y-127984428D01*
X213342923Y-128460619D02*
X212771495Y-128460619D01*
X213057209Y-128460619D02*
X213057209Y-127460619D01*
X213057209Y-127460619D02*
X212961971Y-127603476D01*
X212961971Y-127603476D02*
X212866733Y-127698714D01*
X212866733Y-127698714D02*
X212771495Y-127746333D01*
X214247685Y-127460619D02*
X213771495Y-127460619D01*
X213771495Y-127460619D02*
X213723876Y-127936809D01*
X213723876Y-127936809D02*
X213771495Y-127889190D01*
X213771495Y-127889190D02*
X213866733Y-127841571D01*
X213866733Y-127841571D02*
X214104828Y-127841571D01*
X214104828Y-127841571D02*
X214200066Y-127889190D01*
X214200066Y-127889190D02*
X214247685Y-127936809D01*
X214247685Y-127936809D02*
X214295304Y-128032047D01*
X214295304Y-128032047D02*
X214295304Y-128270142D01*
X214295304Y-128270142D02*
X214247685Y-128365380D01*
X214247685Y-128365380D02*
X214200066Y-128413000D01*
X214200066Y-128413000D02*
X214104828Y-128460619D01*
X214104828Y-128460619D02*
X213866733Y-128460619D01*
X213866733Y-128460619D02*
X213771495Y-128413000D01*
X213771495Y-128413000D02*
X213723876Y-128365380D01*
X187220266Y-115304219D02*
X187220266Y-116018504D01*
X187220266Y-116018504D02*
X187172647Y-116161361D01*
X187172647Y-116161361D02*
X187077409Y-116256600D01*
X187077409Y-116256600D02*
X186934552Y-116304219D01*
X186934552Y-116304219D02*
X186839314Y-116304219D01*
X188125028Y-115637552D02*
X188125028Y-116304219D01*
X187886933Y-115256600D02*
X187648838Y-115970885D01*
X187648838Y-115970885D02*
X188267885Y-115970885D01*
X198147142Y-126819580D02*
X198099523Y-126867200D01*
X198099523Y-126867200D02*
X197956666Y-126914819D01*
X197956666Y-126914819D02*
X197861428Y-126914819D01*
X197861428Y-126914819D02*
X197718571Y-126867200D01*
X197718571Y-126867200D02*
X197623333Y-126771961D01*
X197623333Y-126771961D02*
X197575714Y-126676723D01*
X197575714Y-126676723D02*
X197528095Y-126486247D01*
X197528095Y-126486247D02*
X197528095Y-126343390D01*
X197528095Y-126343390D02*
X197575714Y-126152914D01*
X197575714Y-126152914D02*
X197623333Y-126057676D01*
X197623333Y-126057676D02*
X197718571Y-125962438D01*
X197718571Y-125962438D02*
X197861428Y-125914819D01*
X197861428Y-125914819D02*
X197956666Y-125914819D01*
X197956666Y-125914819D02*
X198099523Y-125962438D01*
X198099523Y-125962438D02*
X198147142Y-126010057D01*
X198528095Y-126010057D02*
X198575714Y-125962438D01*
X198575714Y-125962438D02*
X198670952Y-125914819D01*
X198670952Y-125914819D02*
X198909047Y-125914819D01*
X198909047Y-125914819D02*
X199004285Y-125962438D01*
X199004285Y-125962438D02*
X199051904Y-126010057D01*
X199051904Y-126010057D02*
X199099523Y-126105295D01*
X199099523Y-126105295D02*
X199099523Y-126200533D01*
X199099523Y-126200533D02*
X199051904Y-126343390D01*
X199051904Y-126343390D02*
X198480476Y-126914819D01*
X198480476Y-126914819D02*
X199099523Y-126914819D01*
X199718571Y-125914819D02*
X199813809Y-125914819D01*
X199813809Y-125914819D02*
X199909047Y-125962438D01*
X199909047Y-125962438D02*
X199956666Y-126010057D01*
X199956666Y-126010057D02*
X200004285Y-126105295D01*
X200004285Y-126105295D02*
X200051904Y-126295771D01*
X200051904Y-126295771D02*
X200051904Y-126533866D01*
X200051904Y-126533866D02*
X200004285Y-126724342D01*
X200004285Y-126724342D02*
X199956666Y-126819580D01*
X199956666Y-126819580D02*
X199909047Y-126867200D01*
X199909047Y-126867200D02*
X199813809Y-126914819D01*
X199813809Y-126914819D02*
X199718571Y-126914819D01*
X199718571Y-126914819D02*
X199623333Y-126867200D01*
X199623333Y-126867200D02*
X199575714Y-126819580D01*
X199575714Y-126819580D02*
X199528095Y-126724342D01*
X199528095Y-126724342D02*
X199480476Y-126533866D01*
X199480476Y-126533866D02*
X199480476Y-126295771D01*
X199480476Y-126295771D02*
X199528095Y-126105295D01*
X199528095Y-126105295D02*
X199575714Y-126010057D01*
X199575714Y-126010057D02*
X199623333Y-125962438D01*
X199623333Y-125962438D02*
X199718571Y-125914819D01*
X208583333Y-105859580D02*
X208535714Y-105907200D01*
X208535714Y-105907200D02*
X208392857Y-105954819D01*
X208392857Y-105954819D02*
X208297619Y-105954819D01*
X208297619Y-105954819D02*
X208154762Y-105907200D01*
X208154762Y-105907200D02*
X208059524Y-105811961D01*
X208059524Y-105811961D02*
X208011905Y-105716723D01*
X208011905Y-105716723D02*
X207964286Y-105526247D01*
X207964286Y-105526247D02*
X207964286Y-105383390D01*
X207964286Y-105383390D02*
X208011905Y-105192914D01*
X208011905Y-105192914D02*
X208059524Y-105097676D01*
X208059524Y-105097676D02*
X208154762Y-105002438D01*
X208154762Y-105002438D02*
X208297619Y-104954819D01*
X208297619Y-104954819D02*
X208392857Y-104954819D01*
X208392857Y-104954819D02*
X208535714Y-105002438D01*
X208535714Y-105002438D02*
X208583333Y-105050057D01*
X209440476Y-104954819D02*
X209250000Y-104954819D01*
X209250000Y-104954819D02*
X209154762Y-105002438D01*
X209154762Y-105002438D02*
X209107143Y-105050057D01*
X209107143Y-105050057D02*
X209011905Y-105192914D01*
X209011905Y-105192914D02*
X208964286Y-105383390D01*
X208964286Y-105383390D02*
X208964286Y-105764342D01*
X208964286Y-105764342D02*
X209011905Y-105859580D01*
X209011905Y-105859580D02*
X209059524Y-105907200D01*
X209059524Y-105907200D02*
X209154762Y-105954819D01*
X209154762Y-105954819D02*
X209345238Y-105954819D01*
X209345238Y-105954819D02*
X209440476Y-105907200D01*
X209440476Y-105907200D02*
X209488095Y-105859580D01*
X209488095Y-105859580D02*
X209535714Y-105764342D01*
X209535714Y-105764342D02*
X209535714Y-105526247D01*
X209535714Y-105526247D02*
X209488095Y-105431009D01*
X209488095Y-105431009D02*
X209440476Y-105383390D01*
X209440476Y-105383390D02*
X209345238Y-105335771D01*
X209345238Y-105335771D02*
X209154762Y-105335771D01*
X209154762Y-105335771D02*
X209059524Y-105383390D01*
X209059524Y-105383390D02*
X209011905Y-105431009D01*
X209011905Y-105431009D02*
X208964286Y-105526247D01*
X202599142Y-119279580D02*
X202551523Y-119327200D01*
X202551523Y-119327200D02*
X202408666Y-119374819D01*
X202408666Y-119374819D02*
X202313428Y-119374819D01*
X202313428Y-119374819D02*
X202170571Y-119327200D01*
X202170571Y-119327200D02*
X202075333Y-119231961D01*
X202075333Y-119231961D02*
X202027714Y-119136723D01*
X202027714Y-119136723D02*
X201980095Y-118946247D01*
X201980095Y-118946247D02*
X201980095Y-118803390D01*
X201980095Y-118803390D02*
X202027714Y-118612914D01*
X202027714Y-118612914D02*
X202075333Y-118517676D01*
X202075333Y-118517676D02*
X202170571Y-118422438D01*
X202170571Y-118422438D02*
X202313428Y-118374819D01*
X202313428Y-118374819D02*
X202408666Y-118374819D01*
X202408666Y-118374819D02*
X202551523Y-118422438D01*
X202551523Y-118422438D02*
X202599142Y-118470057D01*
X203551523Y-119374819D02*
X202980095Y-119374819D01*
X203265809Y-119374819D02*
X203265809Y-118374819D01*
X203265809Y-118374819D02*
X203170571Y-118517676D01*
X203170571Y-118517676D02*
X203075333Y-118612914D01*
X203075333Y-118612914D02*
X202980095Y-118660533D01*
X204170571Y-118374819D02*
X204265809Y-118374819D01*
X204265809Y-118374819D02*
X204361047Y-118422438D01*
X204361047Y-118422438D02*
X204408666Y-118470057D01*
X204408666Y-118470057D02*
X204456285Y-118565295D01*
X204456285Y-118565295D02*
X204503904Y-118755771D01*
X204503904Y-118755771D02*
X204503904Y-118993866D01*
X204503904Y-118993866D02*
X204456285Y-119184342D01*
X204456285Y-119184342D02*
X204408666Y-119279580D01*
X204408666Y-119279580D02*
X204361047Y-119327200D01*
X204361047Y-119327200D02*
X204265809Y-119374819D01*
X204265809Y-119374819D02*
X204170571Y-119374819D01*
X204170571Y-119374819D02*
X204075333Y-119327200D01*
X204075333Y-119327200D02*
X204027714Y-119279580D01*
X204027714Y-119279580D02*
X203980095Y-119184342D01*
X203980095Y-119184342D02*
X203932476Y-118993866D01*
X203932476Y-118993866D02*
X203932476Y-118755771D01*
X203932476Y-118755771D02*
X203980095Y-118565295D01*
X203980095Y-118565295D02*
X204027714Y-118470057D01*
X204027714Y-118470057D02*
X204075333Y-118422438D01*
X204075333Y-118422438D02*
X204170571Y-118374819D01*
X210419580Y-116912857D02*
X210467200Y-116960476D01*
X210467200Y-116960476D02*
X210514819Y-117103333D01*
X210514819Y-117103333D02*
X210514819Y-117198571D01*
X210514819Y-117198571D02*
X210467200Y-117341428D01*
X210467200Y-117341428D02*
X210371961Y-117436666D01*
X210371961Y-117436666D02*
X210276723Y-117484285D01*
X210276723Y-117484285D02*
X210086247Y-117531904D01*
X210086247Y-117531904D02*
X209943390Y-117531904D01*
X209943390Y-117531904D02*
X209752914Y-117484285D01*
X209752914Y-117484285D02*
X209657676Y-117436666D01*
X209657676Y-117436666D02*
X209562438Y-117341428D01*
X209562438Y-117341428D02*
X209514819Y-117198571D01*
X209514819Y-117198571D02*
X209514819Y-117103333D01*
X209514819Y-117103333D02*
X209562438Y-116960476D01*
X209562438Y-116960476D02*
X209610057Y-116912857D01*
X210514819Y-115960476D02*
X210514819Y-116531904D01*
X210514819Y-116246190D02*
X209514819Y-116246190D01*
X209514819Y-116246190D02*
X209657676Y-116341428D01*
X209657676Y-116341428D02*
X209752914Y-116436666D01*
X209752914Y-116436666D02*
X209800533Y-116531904D01*
X209514819Y-115055714D02*
X209514819Y-115531904D01*
X209514819Y-115531904D02*
X209991009Y-115579523D01*
X209991009Y-115579523D02*
X209943390Y-115531904D01*
X209943390Y-115531904D02*
X209895771Y-115436666D01*
X209895771Y-115436666D02*
X209895771Y-115198571D01*
X209895771Y-115198571D02*
X209943390Y-115103333D01*
X209943390Y-115103333D02*
X209991009Y-115055714D01*
X209991009Y-115055714D02*
X210086247Y-115008095D01*
X210086247Y-115008095D02*
X210324342Y-115008095D01*
X210324342Y-115008095D02*
X210419580Y-115055714D01*
X210419580Y-115055714D02*
X210467200Y-115103333D01*
X210467200Y-115103333D02*
X210514819Y-115198571D01*
X210514819Y-115198571D02*
X210514819Y-115436666D01*
X210514819Y-115436666D02*
X210467200Y-115531904D01*
X210467200Y-115531904D02*
X210419580Y-115579523D01*
X218459580Y-129067857D02*
X218507200Y-129115476D01*
X218507200Y-129115476D02*
X218554819Y-129258333D01*
X218554819Y-129258333D02*
X218554819Y-129353571D01*
X218554819Y-129353571D02*
X218507200Y-129496428D01*
X218507200Y-129496428D02*
X218411961Y-129591666D01*
X218411961Y-129591666D02*
X218316723Y-129639285D01*
X218316723Y-129639285D02*
X218126247Y-129686904D01*
X218126247Y-129686904D02*
X217983390Y-129686904D01*
X217983390Y-129686904D02*
X217792914Y-129639285D01*
X217792914Y-129639285D02*
X217697676Y-129591666D01*
X217697676Y-129591666D02*
X217602438Y-129496428D01*
X217602438Y-129496428D02*
X217554819Y-129353571D01*
X217554819Y-129353571D02*
X217554819Y-129258333D01*
X217554819Y-129258333D02*
X217602438Y-129115476D01*
X217602438Y-129115476D02*
X217650057Y-129067857D01*
X217650057Y-128686904D02*
X217602438Y-128639285D01*
X217602438Y-128639285D02*
X217554819Y-128544047D01*
X217554819Y-128544047D02*
X217554819Y-128305952D01*
X217554819Y-128305952D02*
X217602438Y-128210714D01*
X217602438Y-128210714D02*
X217650057Y-128163095D01*
X217650057Y-128163095D02*
X217745295Y-128115476D01*
X217745295Y-128115476D02*
X217840533Y-128115476D01*
X217840533Y-128115476D02*
X217983390Y-128163095D01*
X217983390Y-128163095D02*
X218554819Y-128734523D01*
X218554819Y-128734523D02*
X218554819Y-128115476D01*
X217554819Y-127210714D02*
X217554819Y-127686904D01*
X217554819Y-127686904D02*
X218031009Y-127734523D01*
X218031009Y-127734523D02*
X217983390Y-127686904D01*
X217983390Y-127686904D02*
X217935771Y-127591666D01*
X217935771Y-127591666D02*
X217935771Y-127353571D01*
X217935771Y-127353571D02*
X217983390Y-127258333D01*
X217983390Y-127258333D02*
X218031009Y-127210714D01*
X218031009Y-127210714D02*
X218126247Y-127163095D01*
X218126247Y-127163095D02*
X218364342Y-127163095D01*
X218364342Y-127163095D02*
X218459580Y-127210714D01*
X218459580Y-127210714D02*
X218507200Y-127258333D01*
X218507200Y-127258333D02*
X218554819Y-127353571D01*
X218554819Y-127353571D02*
X218554819Y-127591666D01*
X218554819Y-127591666D02*
X218507200Y-127686904D01*
X218507200Y-127686904D02*
X218459580Y-127734523D01*
X208583333Y-107859580D02*
X208535714Y-107907200D01*
X208535714Y-107907200D02*
X208392857Y-107954819D01*
X208392857Y-107954819D02*
X208297619Y-107954819D01*
X208297619Y-107954819D02*
X208154762Y-107907200D01*
X208154762Y-107907200D02*
X208059524Y-107811961D01*
X208059524Y-107811961D02*
X208011905Y-107716723D01*
X208011905Y-107716723D02*
X207964286Y-107526247D01*
X207964286Y-107526247D02*
X207964286Y-107383390D01*
X207964286Y-107383390D02*
X208011905Y-107192914D01*
X208011905Y-107192914D02*
X208059524Y-107097676D01*
X208059524Y-107097676D02*
X208154762Y-107002438D01*
X208154762Y-107002438D02*
X208297619Y-106954819D01*
X208297619Y-106954819D02*
X208392857Y-106954819D01*
X208392857Y-106954819D02*
X208535714Y-107002438D01*
X208535714Y-107002438D02*
X208583333Y-107050057D01*
X208916667Y-106954819D02*
X209583333Y-106954819D01*
X209583333Y-106954819D02*
X209154762Y-107954819D01*
X208779542Y-126832980D02*
X208731923Y-126880600D01*
X208731923Y-126880600D02*
X208589066Y-126928219D01*
X208589066Y-126928219D02*
X208493828Y-126928219D01*
X208493828Y-126928219D02*
X208350971Y-126880600D01*
X208350971Y-126880600D02*
X208255733Y-126785361D01*
X208255733Y-126785361D02*
X208208114Y-126690123D01*
X208208114Y-126690123D02*
X208160495Y-126499647D01*
X208160495Y-126499647D02*
X208160495Y-126356790D01*
X208160495Y-126356790D02*
X208208114Y-126166314D01*
X208208114Y-126166314D02*
X208255733Y-126071076D01*
X208255733Y-126071076D02*
X208350971Y-125975838D01*
X208350971Y-125975838D02*
X208493828Y-125928219D01*
X208493828Y-125928219D02*
X208589066Y-125928219D01*
X208589066Y-125928219D02*
X208731923Y-125975838D01*
X208731923Y-125975838D02*
X208779542Y-126023457D01*
X209160495Y-126023457D02*
X209208114Y-125975838D01*
X209208114Y-125975838D02*
X209303352Y-125928219D01*
X209303352Y-125928219D02*
X209541447Y-125928219D01*
X209541447Y-125928219D02*
X209636685Y-125975838D01*
X209636685Y-125975838D02*
X209684304Y-126023457D01*
X209684304Y-126023457D02*
X209731923Y-126118695D01*
X209731923Y-126118695D02*
X209731923Y-126213933D01*
X209731923Y-126213933D02*
X209684304Y-126356790D01*
X209684304Y-126356790D02*
X209112876Y-126928219D01*
X209112876Y-126928219D02*
X209731923Y-126928219D01*
X210589066Y-126261552D02*
X210589066Y-126928219D01*
X210350971Y-125880600D02*
X210112876Y-126594885D01*
X210112876Y-126594885D02*
X210731923Y-126594885D01*
X197434819Y-120422857D02*
X196958628Y-120756190D01*
X197434819Y-120994285D02*
X196434819Y-120994285D01*
X196434819Y-120994285D02*
X196434819Y-120613333D01*
X196434819Y-120613333D02*
X196482438Y-120518095D01*
X196482438Y-120518095D02*
X196530057Y-120470476D01*
X196530057Y-120470476D02*
X196625295Y-120422857D01*
X196625295Y-120422857D02*
X196768152Y-120422857D01*
X196768152Y-120422857D02*
X196863390Y-120470476D01*
X196863390Y-120470476D02*
X196911009Y-120518095D01*
X196911009Y-120518095D02*
X196958628Y-120613333D01*
X196958628Y-120613333D02*
X196958628Y-120994285D01*
X197434819Y-119470476D02*
X197434819Y-120041904D01*
X197434819Y-119756190D02*
X196434819Y-119756190D01*
X196434819Y-119756190D02*
X196577676Y-119851428D01*
X196577676Y-119851428D02*
X196672914Y-119946666D01*
X196672914Y-119946666D02*
X196720533Y-120041904D01*
X197434819Y-118518095D02*
X197434819Y-119089523D01*
X197434819Y-118803809D02*
X196434819Y-118803809D01*
X196434819Y-118803809D02*
X196577676Y-118899047D01*
X196577676Y-118899047D02*
X196672914Y-118994285D01*
X196672914Y-118994285D02*
X196720533Y-119089523D01*
X211603342Y-113452580D02*
X211555723Y-113500200D01*
X211555723Y-113500200D02*
X211412866Y-113547819D01*
X211412866Y-113547819D02*
X211317628Y-113547819D01*
X211317628Y-113547819D02*
X211174771Y-113500200D01*
X211174771Y-113500200D02*
X211079533Y-113404961D01*
X211079533Y-113404961D02*
X211031914Y-113309723D01*
X211031914Y-113309723D02*
X210984295Y-113119247D01*
X210984295Y-113119247D02*
X210984295Y-112976390D01*
X210984295Y-112976390D02*
X211031914Y-112785914D01*
X211031914Y-112785914D02*
X211079533Y-112690676D01*
X211079533Y-112690676D02*
X211174771Y-112595438D01*
X211174771Y-112595438D02*
X211317628Y-112547819D01*
X211317628Y-112547819D02*
X211412866Y-112547819D01*
X211412866Y-112547819D02*
X211555723Y-112595438D01*
X211555723Y-112595438D02*
X211603342Y-112643057D01*
X212555723Y-113547819D02*
X211984295Y-113547819D01*
X212270009Y-113547819D02*
X212270009Y-112547819D01*
X212270009Y-112547819D02*
X212174771Y-112690676D01*
X212174771Y-112690676D02*
X212079533Y-112785914D01*
X212079533Y-112785914D02*
X211984295Y-112833533D01*
X212889057Y-112547819D02*
X213555723Y-112547819D01*
X213555723Y-112547819D02*
X213127152Y-113547819D01*
X209198333Y-119419580D02*
X209150714Y-119467200D01*
X209150714Y-119467200D02*
X209007857Y-119514819D01*
X209007857Y-119514819D02*
X208912619Y-119514819D01*
X208912619Y-119514819D02*
X208769762Y-119467200D01*
X208769762Y-119467200D02*
X208674524Y-119371961D01*
X208674524Y-119371961D02*
X208626905Y-119276723D01*
X208626905Y-119276723D02*
X208579286Y-119086247D01*
X208579286Y-119086247D02*
X208579286Y-118943390D01*
X208579286Y-118943390D02*
X208626905Y-118752914D01*
X208626905Y-118752914D02*
X208674524Y-118657676D01*
X208674524Y-118657676D02*
X208769762Y-118562438D01*
X208769762Y-118562438D02*
X208912619Y-118514819D01*
X208912619Y-118514819D02*
X209007857Y-118514819D01*
X209007857Y-118514819D02*
X209150714Y-118562438D01*
X209150714Y-118562438D02*
X209198333Y-118610057D01*
X209531667Y-118514819D02*
X210150714Y-118514819D01*
X210150714Y-118514819D02*
X209817381Y-118895771D01*
X209817381Y-118895771D02*
X209960238Y-118895771D01*
X209960238Y-118895771D02*
X210055476Y-118943390D01*
X210055476Y-118943390D02*
X210103095Y-118991009D01*
X210103095Y-118991009D02*
X210150714Y-119086247D01*
X210150714Y-119086247D02*
X210150714Y-119324342D01*
X210150714Y-119324342D02*
X210103095Y-119419580D01*
X210103095Y-119419580D02*
X210055476Y-119467200D01*
X210055476Y-119467200D02*
X209960238Y-119514819D01*
X209960238Y-119514819D02*
X209674524Y-119514819D01*
X209674524Y-119514819D02*
X209579286Y-119467200D01*
X209579286Y-119467200D02*
X209531667Y-119419580D01*
X202532142Y-111879580D02*
X202484523Y-111927200D01*
X202484523Y-111927200D02*
X202341666Y-111974819D01*
X202341666Y-111974819D02*
X202246428Y-111974819D01*
X202246428Y-111974819D02*
X202103571Y-111927200D01*
X202103571Y-111927200D02*
X202008333Y-111831961D01*
X202008333Y-111831961D02*
X201960714Y-111736723D01*
X201960714Y-111736723D02*
X201913095Y-111546247D01*
X201913095Y-111546247D02*
X201913095Y-111403390D01*
X201913095Y-111403390D02*
X201960714Y-111212914D01*
X201960714Y-111212914D02*
X202008333Y-111117676D01*
X202008333Y-111117676D02*
X202103571Y-111022438D01*
X202103571Y-111022438D02*
X202246428Y-110974819D01*
X202246428Y-110974819D02*
X202341666Y-110974819D01*
X202341666Y-110974819D02*
X202484523Y-111022438D01*
X202484523Y-111022438D02*
X202532142Y-111070057D01*
X203484523Y-111974819D02*
X202913095Y-111974819D01*
X203198809Y-111974819D02*
X203198809Y-110974819D01*
X203198809Y-110974819D02*
X203103571Y-111117676D01*
X203103571Y-111117676D02*
X203008333Y-111212914D01*
X203008333Y-111212914D02*
X202913095Y-111260533D01*
X203865476Y-111070057D02*
X203913095Y-111022438D01*
X203913095Y-111022438D02*
X204008333Y-110974819D01*
X204008333Y-110974819D02*
X204246428Y-110974819D01*
X204246428Y-110974819D02*
X204341666Y-111022438D01*
X204341666Y-111022438D02*
X204389285Y-111070057D01*
X204389285Y-111070057D02*
X204436904Y-111165295D01*
X204436904Y-111165295D02*
X204436904Y-111260533D01*
X204436904Y-111260533D02*
X204389285Y-111403390D01*
X204389285Y-111403390D02*
X203817857Y-111974819D01*
X203817857Y-111974819D02*
X204436904Y-111974819D01*
X197474819Y-112992857D02*
X196998628Y-113326190D01*
X197474819Y-113564285D02*
X196474819Y-113564285D01*
X196474819Y-113564285D02*
X196474819Y-113183333D01*
X196474819Y-113183333D02*
X196522438Y-113088095D01*
X196522438Y-113088095D02*
X196570057Y-113040476D01*
X196570057Y-113040476D02*
X196665295Y-112992857D01*
X196665295Y-112992857D02*
X196808152Y-112992857D01*
X196808152Y-112992857D02*
X196903390Y-113040476D01*
X196903390Y-113040476D02*
X196951009Y-113088095D01*
X196951009Y-113088095D02*
X196998628Y-113183333D01*
X196998628Y-113183333D02*
X196998628Y-113564285D01*
X197474819Y-112040476D02*
X197474819Y-112611904D01*
X197474819Y-112326190D02*
X196474819Y-112326190D01*
X196474819Y-112326190D02*
X196617676Y-112421428D01*
X196617676Y-112421428D02*
X196712914Y-112516666D01*
X196712914Y-112516666D02*
X196760533Y-112611904D01*
X196570057Y-111659523D02*
X196522438Y-111611904D01*
X196522438Y-111611904D02*
X196474819Y-111516666D01*
X196474819Y-111516666D02*
X196474819Y-111278571D01*
X196474819Y-111278571D02*
X196522438Y-111183333D01*
X196522438Y-111183333D02*
X196570057Y-111135714D01*
X196570057Y-111135714D02*
X196665295Y-111088095D01*
X196665295Y-111088095D02*
X196760533Y-111088095D01*
X196760533Y-111088095D02*
X196903390Y-111135714D01*
X196903390Y-111135714D02*
X197474819Y-111707142D01*
X197474819Y-111707142D02*
X197474819Y-111088095D01*
D12*
X198181037Y-104376918D02*
X198181037Y-103106918D01*
X199511514Y-104255965D02*
X199451038Y-104316442D01*
X199451038Y-104316442D02*
X199269609Y-104376918D01*
X199269609Y-104376918D02*
X199148657Y-104376918D01*
X199148657Y-104376918D02*
X198967228Y-104316442D01*
X198967228Y-104316442D02*
X198846276Y-104195489D01*
X198846276Y-104195489D02*
X198785799Y-104074537D01*
X198785799Y-104074537D02*
X198725323Y-103832632D01*
X198725323Y-103832632D02*
X198725323Y-103651203D01*
X198725323Y-103651203D02*
X198785799Y-103409299D01*
X198785799Y-103409299D02*
X198846276Y-103288346D01*
X198846276Y-103288346D02*
X198967228Y-103167394D01*
X198967228Y-103167394D02*
X199148657Y-103106918D01*
X199148657Y-103106918D02*
X199269609Y-103106918D01*
X199269609Y-103106918D02*
X199451038Y-103167394D01*
X199451038Y-103167394D02*
X199511514Y-103227870D01*
X200721038Y-104376918D02*
X199995323Y-104376918D01*
X200358180Y-104376918D02*
X200358180Y-103106918D01*
X200358180Y-103106918D02*
X200237228Y-103288346D01*
X200237228Y-103288346D02*
X200116276Y-103409299D01*
X200116276Y-103409299D02*
X199995323Y-103469775D01*
D11*
X189430066Y-91910819D02*
X189430066Y-92625104D01*
X189430066Y-92625104D02*
X189382447Y-92767961D01*
X189382447Y-92767961D02*
X189287209Y-92863200D01*
X189287209Y-92863200D02*
X189144352Y-92910819D01*
X189144352Y-92910819D02*
X189049114Y-92910819D01*
X189811019Y-91910819D02*
X190430066Y-91910819D01*
X190430066Y-91910819D02*
X190096733Y-92291771D01*
X190096733Y-92291771D02*
X190239590Y-92291771D01*
X190239590Y-92291771D02*
X190334828Y-92339390D01*
X190334828Y-92339390D02*
X190382447Y-92387009D01*
X190382447Y-92387009D02*
X190430066Y-92482247D01*
X190430066Y-92482247D02*
X190430066Y-92720342D01*
X190430066Y-92720342D02*
X190382447Y-92815580D01*
X190382447Y-92815580D02*
X190334828Y-92863200D01*
X190334828Y-92863200D02*
X190239590Y-92910819D01*
X190239590Y-92910819D02*
X189953876Y-92910819D01*
X189953876Y-92910819D02*
X189858638Y-92863200D01*
X189858638Y-92863200D02*
X189811019Y-92815580D01*
D12*
X202798237Y-115719318D02*
X202798237Y-114449318D01*
X204128714Y-115598365D02*
X204068238Y-115658842D01*
X204068238Y-115658842D02*
X203886809Y-115719318D01*
X203886809Y-115719318D02*
X203765857Y-115719318D01*
X203765857Y-115719318D02*
X203584428Y-115658842D01*
X203584428Y-115658842D02*
X203463476Y-115537889D01*
X203463476Y-115537889D02*
X203402999Y-115416937D01*
X203402999Y-115416937D02*
X203342523Y-115175032D01*
X203342523Y-115175032D02*
X203342523Y-114993603D01*
X203342523Y-114993603D02*
X203402999Y-114751699D01*
X203402999Y-114751699D02*
X203463476Y-114630746D01*
X203463476Y-114630746D02*
X203584428Y-114509794D01*
X203584428Y-114509794D02*
X203765857Y-114449318D01*
X203765857Y-114449318D02*
X203886809Y-114449318D01*
X203886809Y-114449318D02*
X204068238Y-114509794D01*
X204068238Y-114509794D02*
X204128714Y-114570270D01*
X205217285Y-114872651D02*
X205217285Y-115719318D01*
X204914904Y-114388842D02*
X204612523Y-115295984D01*
X204612523Y-115295984D02*
X205398714Y-115295984D01*
X202341418Y-96102518D02*
X202341418Y-94832518D01*
X202341418Y-94832518D02*
X202643799Y-94832518D01*
X202643799Y-94832518D02*
X202825228Y-94892994D01*
X202825228Y-94892994D02*
X202946180Y-95013946D01*
X202946180Y-95013946D02*
X203006657Y-95134899D01*
X203006657Y-95134899D02*
X203067133Y-95376803D01*
X203067133Y-95376803D02*
X203067133Y-95558232D01*
X203067133Y-95558232D02*
X203006657Y-95800137D01*
X203006657Y-95800137D02*
X202946180Y-95921089D01*
X202946180Y-95921089D02*
X202825228Y-96042042D01*
X202825228Y-96042042D02*
X202643799Y-96102518D01*
X202643799Y-96102518D02*
X202341418Y-96102518D01*
X204276657Y-96102518D02*
X203550942Y-96102518D01*
X203913799Y-96102518D02*
X203913799Y-94832518D01*
X203913799Y-94832518D02*
X203792847Y-95013946D01*
X203792847Y-95013946D02*
X203671895Y-95134899D01*
X203671895Y-95134899D02*
X203550942Y-95195375D01*
D11*
X187205666Y-126678219D02*
X187205666Y-127392504D01*
X187205666Y-127392504D02*
X187158047Y-127535361D01*
X187158047Y-127535361D02*
X187062809Y-127630600D01*
X187062809Y-127630600D02*
X186919952Y-127678219D01*
X186919952Y-127678219D02*
X186824714Y-127678219D01*
X188110428Y-126678219D02*
X187919952Y-126678219D01*
X187919952Y-126678219D02*
X187824714Y-126725838D01*
X187824714Y-126725838D02*
X187777095Y-126773457D01*
X187777095Y-126773457D02*
X187681857Y-126916314D01*
X187681857Y-126916314D02*
X187634238Y-127106790D01*
X187634238Y-127106790D02*
X187634238Y-127487742D01*
X187634238Y-127487742D02*
X187681857Y-127582980D01*
X187681857Y-127582980D02*
X187729476Y-127630600D01*
X187729476Y-127630600D02*
X187824714Y-127678219D01*
X187824714Y-127678219D02*
X188015190Y-127678219D01*
X188015190Y-127678219D02*
X188110428Y-127630600D01*
X188110428Y-127630600D02*
X188158047Y-127582980D01*
X188158047Y-127582980D02*
X188205666Y-127487742D01*
X188205666Y-127487742D02*
X188205666Y-127249647D01*
X188205666Y-127249647D02*
X188158047Y-127154409D01*
X188158047Y-127154409D02*
X188110428Y-127106790D01*
X188110428Y-127106790D02*
X188015190Y-127059171D01*
X188015190Y-127059171D02*
X187824714Y-127059171D01*
X187824714Y-127059171D02*
X187729476Y-127106790D01*
X187729476Y-127106790D02*
X187681857Y-127154409D01*
X187681857Y-127154409D02*
X187634238Y-127249647D01*
X192014057Y-122697638D02*
X191966438Y-122792876D01*
X191966438Y-122792876D02*
X191871200Y-122888114D01*
X191871200Y-122888114D02*
X191728342Y-123030971D01*
X191728342Y-123030971D02*
X191680723Y-123126209D01*
X191680723Y-123126209D02*
X191680723Y-123221447D01*
X191918819Y-123173828D02*
X191871200Y-123269066D01*
X191871200Y-123269066D02*
X191775961Y-123364304D01*
X191775961Y-123364304D02*
X191585485Y-123411923D01*
X191585485Y-123411923D02*
X191252152Y-123411923D01*
X191252152Y-123411923D02*
X191061676Y-123364304D01*
X191061676Y-123364304D02*
X190966438Y-123269066D01*
X190966438Y-123269066D02*
X190918819Y-123173828D01*
X190918819Y-123173828D02*
X190918819Y-122983352D01*
X190918819Y-122983352D02*
X190966438Y-122888114D01*
X190966438Y-122888114D02*
X191061676Y-122792876D01*
X191061676Y-122792876D02*
X191252152Y-122745257D01*
X191252152Y-122745257D02*
X191585485Y-122745257D01*
X191585485Y-122745257D02*
X191775961Y-122792876D01*
X191775961Y-122792876D02*
X191871200Y-122888114D01*
X191871200Y-122888114D02*
X191918819Y-122983352D01*
X191918819Y-122983352D02*
X191918819Y-123173828D01*
X190918819Y-122411923D02*
X190918819Y-121792876D01*
X190918819Y-121792876D02*
X191299771Y-122126209D01*
X191299771Y-122126209D02*
X191299771Y-121983352D01*
X191299771Y-121983352D02*
X191347390Y-121888114D01*
X191347390Y-121888114D02*
X191395009Y-121840495D01*
X191395009Y-121840495D02*
X191490247Y-121792876D01*
X191490247Y-121792876D02*
X191728342Y-121792876D01*
X191728342Y-121792876D02*
X191823580Y-121840495D01*
X191823580Y-121840495D02*
X191871200Y-121888114D01*
X191871200Y-121888114D02*
X191918819Y-121983352D01*
X191918819Y-121983352D02*
X191918819Y-122269066D01*
X191918819Y-122269066D02*
X191871200Y-122364304D01*
X191871200Y-122364304D02*
X191823580Y-122411923D01*
D12*
X206909047Y-112235270D02*
X206788095Y-112174794D01*
X206788095Y-112174794D02*
X206667142Y-112053842D01*
X206667142Y-112053842D02*
X206485714Y-111872413D01*
X206485714Y-111872413D02*
X206364761Y-111811937D01*
X206364761Y-111811937D02*
X206243809Y-111811937D01*
X206304285Y-112114318D02*
X206183333Y-112053842D01*
X206183333Y-112053842D02*
X206062380Y-111932889D01*
X206062380Y-111932889D02*
X206001904Y-111690984D01*
X206001904Y-111690984D02*
X206001904Y-111267651D01*
X206001904Y-111267651D02*
X206062380Y-111025746D01*
X206062380Y-111025746D02*
X206183333Y-110904794D01*
X206183333Y-110904794D02*
X206304285Y-110844318D01*
X206304285Y-110844318D02*
X206546190Y-110844318D01*
X206546190Y-110844318D02*
X206667142Y-110904794D01*
X206667142Y-110904794D02*
X206788095Y-111025746D01*
X206788095Y-111025746D02*
X206848571Y-111267651D01*
X206848571Y-111267651D02*
X206848571Y-111690984D01*
X206848571Y-111690984D02*
X206788095Y-111932889D01*
X206788095Y-111932889D02*
X206667142Y-112053842D01*
X206667142Y-112053842D02*
X206546190Y-112114318D01*
X206546190Y-112114318D02*
X206304285Y-112114318D01*
X207937142Y-111267651D02*
X207937142Y-112114318D01*
X207634761Y-110783842D02*
X207332380Y-111690984D01*
X207332380Y-111690984D02*
X208118571Y-111690984D01*
D11*
X216194819Y-89503333D02*
X216909104Y-89503333D01*
X216909104Y-89503333D02*
X217051961Y-89550952D01*
X217051961Y-89550952D02*
X217147200Y-89646190D01*
X217147200Y-89646190D02*
X217194819Y-89789047D01*
X217194819Y-89789047D02*
X217194819Y-89884285D01*
X217194819Y-88503333D02*
X217194819Y-89074761D01*
X217194819Y-88789047D02*
X216194819Y-88789047D01*
X216194819Y-88789047D02*
X216337676Y-88884285D01*
X216337676Y-88884285D02*
X216432914Y-88979523D01*
X216432914Y-88979523D02*
X216480533Y-89074761D01*
G36*
X216640923Y-91039077D02*
G01*
X216712865Y-91111019D01*
X216753207Y-91272386D01*
X216753207Y-91587251D01*
X216712865Y-91748617D01*
X216640922Y-91820561D01*
X216572407Y-91854819D01*
X216417341Y-91854819D01*
X216348825Y-91820561D01*
X216276882Y-91748617D01*
X216236541Y-91587251D01*
X216236541Y-91272386D01*
X216276882Y-91111019D01*
X216348825Y-91039077D01*
X216417341Y-91004819D01*
X216572407Y-91004819D01*
X216640923Y-91039077D01*
G37*
G36*
X218109556Y-92115930D02*
G01*
X215023049Y-92115930D01*
X215023049Y-91120295D01*
X215134160Y-91120295D01*
X215134160Y-91215533D01*
X215135601Y-91230165D01*
X215136632Y-91232654D01*
X215136823Y-91235342D01*
X215142078Y-91249074D01*
X215189697Y-91344312D01*
X215193661Y-91350611D01*
X215194419Y-91352439D01*
X215196107Y-91354495D01*
X215197529Y-91356755D01*
X215199027Y-91358054D01*
X215203746Y-91363804D01*
X215251365Y-91411423D01*
X215257114Y-91416141D01*
X215258414Y-91417640D01*
X215260673Y-91419061D01*
X215262730Y-91420750D01*
X215264557Y-91421507D01*
X215270857Y-91425472D01*
X215366095Y-91473091D01*
X215367164Y-91473500D01*
X215367600Y-91473823D01*
X215373736Y-91476015D01*
X215379826Y-91478346D01*
X215380366Y-91478384D01*
X215381446Y-91478770D01*
X215563936Y-91524392D01*
X215640923Y-91562886D01*
X215671330Y-91593293D01*
X215705588Y-91661809D01*
X215705588Y-91721637D01*
X215671329Y-91790153D01*
X215640922Y-91820561D01*
X215572407Y-91854819D01*
X215364187Y-91854819D01*
X215232877Y-91811049D01*
X215218540Y-91807789D01*
X215189350Y-91809864D01*
X215163177Y-91822950D01*
X215144003Y-91845057D01*
X215134749Y-91872820D01*
X215136824Y-91902010D01*
X215149910Y-91928183D01*
X215172017Y-91947357D01*
X215185443Y-91953351D01*
X215328299Y-92000970D01*
X215335554Y-92002619D01*
X215337385Y-92003378D01*
X215340038Y-92003639D01*
X215342636Y-92004230D01*
X215344610Y-92004089D01*
X215352017Y-92004819D01*
X215590112Y-92004819D01*
X215604744Y-92003378D01*
X215607233Y-92002346D01*
X215609921Y-92002156D01*
X215623653Y-91996901D01*
X215718891Y-91949282D01*
X215725190Y-91945317D01*
X215727018Y-91944560D01*
X215729074Y-91942872D01*
X215731334Y-91941450D01*
X215732634Y-91939950D01*
X215738384Y-91935232D01*
X215786002Y-91887613D01*
X215790720Y-91881863D01*
X215792219Y-91880564D01*
X215793640Y-91878305D01*
X215795330Y-91876247D01*
X215796087Y-91874417D01*
X215800051Y-91868121D01*
X215847670Y-91772883D01*
X215852925Y-91759152D01*
X215853116Y-91756462D01*
X215854147Y-91753974D01*
X215855588Y-91739342D01*
X215855588Y-91644104D01*
X215854147Y-91629472D01*
X215853116Y-91626983D01*
X215852925Y-91624294D01*
X215847670Y-91610563D01*
X215800051Y-91515325D01*
X215796086Y-91509025D01*
X215795329Y-91507198D01*
X215793640Y-91505141D01*
X215792219Y-91502882D01*
X215790720Y-91501582D01*
X215786002Y-91495833D01*
X215738383Y-91448214D01*
X215732633Y-91443495D01*
X215731334Y-91441997D01*
X215729074Y-91440575D01*
X215727018Y-91438887D01*
X215725190Y-91438129D01*
X215718891Y-91434165D01*
X215623653Y-91386546D01*
X215622583Y-91386136D01*
X215622148Y-91385814D01*
X215616002Y-91383618D01*
X215609921Y-91381291D01*
X215609381Y-91381252D01*
X215608302Y-91380867D01*
X215425812Y-91335244D01*
X215348825Y-91296751D01*
X215318418Y-91266344D01*
X215316822Y-91263152D01*
X216086541Y-91263152D01*
X216086541Y-91596485D01*
X216086792Y-91599038D01*
X216086630Y-91600131D01*
X216087439Y-91605604D01*
X216087982Y-91611117D01*
X216088404Y-91612138D01*
X216088780Y-91614675D01*
X216136399Y-91805151D01*
X216141346Y-91818997D01*
X216144665Y-91823476D01*
X216146799Y-91828628D01*
X216156127Y-91839994D01*
X216251365Y-91935233D01*
X216257115Y-91939953D01*
X216258414Y-91941450D01*
X216260668Y-91942869D01*
X216262730Y-91944561D01*
X216264562Y-91945319D01*
X216270857Y-91949282D01*
X216366095Y-91996901D01*
X216379826Y-92002156D01*
X216382515Y-92002347D01*
X216385004Y-92003378D01*
X216399636Y-92004819D01*
X216590112Y-92004819D01*
X216604744Y-92003378D01*
X216607233Y-92002346D01*
X216609921Y-92002156D01*
X216623653Y-91996901D01*
X216718891Y-91949282D01*
X216725190Y-91945317D01*
X216727018Y-91944560D01*
X216729074Y-91942871D01*
X216731334Y-91941450D01*
X216732633Y-91939951D01*
X216738383Y-91935233D01*
X216833622Y-91839993D01*
X216842949Y-91828628D01*
X216845082Y-91823476D01*
X216848402Y-91818997D01*
X216853349Y-91805151D01*
X216900968Y-91614675D01*
X216901343Y-91612138D01*
X216901766Y-91611117D01*
X216902308Y-91605604D01*
X216903118Y-91600131D01*
X216902955Y-91599038D01*
X216903207Y-91596485D01*
X216903207Y-91263152D01*
X216902955Y-91260598D01*
X216903118Y-91259506D01*
X216902308Y-91254032D01*
X216901766Y-91248520D01*
X216901343Y-91247498D01*
X216900968Y-91244962D01*
X216853349Y-91054486D01*
X216848402Y-91040640D01*
X216845083Y-91036161D01*
X216842949Y-91031008D01*
X216833621Y-91019643D01*
X216743797Y-90929819D01*
X217181779Y-90929819D01*
X217181779Y-91929819D01*
X217183220Y-91944451D01*
X217194419Y-91971487D01*
X217215111Y-91992179D01*
X217242147Y-92003378D01*
X217271411Y-92003378D01*
X217298447Y-91992179D01*
X217319139Y-91971487D01*
X217330338Y-91944451D01*
X217331779Y-91929819D01*
X217331779Y-91267886D01*
X217522148Y-91675821D01*
X217525322Y-91681180D01*
X217525982Y-91682993D01*
X217527156Y-91684275D01*
X217529642Y-91688471D01*
X217538051Y-91696171D01*
X217545746Y-91704574D01*
X217548764Y-91705982D01*
X217551223Y-91708234D01*
X217561935Y-91712129D01*
X217572264Y-91716950D01*
X217575592Y-91717096D01*
X217578724Y-91718235D01*
X217590118Y-91717734D01*
X217601500Y-91718234D01*
X217604628Y-91717096D01*
X217607960Y-91716950D01*
X217618295Y-91712126D01*
X217629001Y-91708234D01*
X217631456Y-91705984D01*
X217634478Y-91704575D01*
X217642179Y-91696164D01*
X217650582Y-91688470D01*
X217653065Y-91684277D01*
X217654242Y-91682993D01*
X217654902Y-91681177D01*
X217658076Y-91675820D01*
X217848445Y-91267886D01*
X217848445Y-91929819D01*
X217849886Y-91944451D01*
X217861085Y-91971487D01*
X217881777Y-91992179D01*
X217908813Y-92003378D01*
X217938077Y-92003378D01*
X217965113Y-91992179D01*
X217985805Y-91971487D01*
X217997004Y-91944451D01*
X217998445Y-91929819D01*
X217998445Y-90929819D01*
X217997497Y-90920197D01*
X217997575Y-90918431D01*
X217997230Y-90917482D01*
X217997004Y-90915187D01*
X217992022Y-90903160D01*
X217987575Y-90890930D01*
X217986445Y-90889696D01*
X217985805Y-90888151D01*
X217976605Y-90878951D01*
X217967811Y-90869348D01*
X217966294Y-90868640D01*
X217965113Y-90867459D01*
X217953100Y-90862482D01*
X217941293Y-90856973D01*
X217939620Y-90856899D01*
X217938077Y-90856260D01*
X217925071Y-90856260D01*
X217912057Y-90855688D01*
X217910484Y-90856260D01*
X217908813Y-90856260D01*
X217896794Y-90861238D01*
X217884556Y-90865689D01*
X217883322Y-90866819D01*
X217881777Y-90867459D01*
X217872578Y-90876657D01*
X217862975Y-90885452D01*
X217861799Y-90887436D01*
X217861085Y-90888151D01*
X217860408Y-90889784D01*
X217855481Y-90898102D01*
X217590111Y-91466750D01*
X217324743Y-90898103D01*
X217319817Y-90889787D01*
X217319139Y-90888151D01*
X217318423Y-90887435D01*
X217317249Y-90885453D01*
X217307652Y-90876664D01*
X217298447Y-90867459D01*
X217296901Y-90866818D01*
X217295668Y-90865689D01*
X217283437Y-90861241D01*
X217271411Y-90856260D01*
X217269737Y-90856260D01*
X217268167Y-90855689D01*
X217255166Y-90856260D01*
X217242147Y-90856260D01*
X217240602Y-90856899D01*
X217238931Y-90856973D01*
X217227132Y-90862479D01*
X217215111Y-90867459D01*
X217213928Y-90868641D01*
X217212413Y-90869349D01*
X217203624Y-90878945D01*
X217194419Y-90888151D01*
X217193778Y-90889696D01*
X217192649Y-90890930D01*
X217188201Y-90903160D01*
X217183220Y-90915187D01*
X217182993Y-90917482D01*
X217182649Y-90918431D01*
X217182726Y-90920197D01*
X217181779Y-90929819D01*
X216743797Y-90929819D01*
X216738383Y-90924405D01*
X216732633Y-90919686D01*
X216731334Y-90918188D01*
X216729074Y-90916766D01*
X216727018Y-90915078D01*
X216725190Y-90914320D01*
X216718891Y-90910356D01*
X216623653Y-90862737D01*
X216609921Y-90857482D01*
X216607233Y-90857291D01*
X216604744Y-90856260D01*
X216590112Y-90854819D01*
X216399636Y-90854819D01*
X216385004Y-90856260D01*
X216382515Y-90857290D01*
X216379826Y-90857482D01*
X216366095Y-90862737D01*
X216270857Y-90910356D01*
X216264562Y-90914318D01*
X216262730Y-90915077D01*
X216260668Y-90916768D01*
X216258414Y-90918188D01*
X216257115Y-90919684D01*
X216251365Y-90924405D01*
X216156127Y-91019643D01*
X216146800Y-91031008D01*
X216144666Y-91036158D01*
X216141346Y-91040640D01*
X216136399Y-91054486D01*
X216088780Y-91244962D01*
X216088404Y-91247498D01*
X216087982Y-91248520D01*
X216087439Y-91254032D01*
X216086630Y-91259506D01*
X216086792Y-91260598D01*
X216086541Y-91263152D01*
X215316822Y-91263152D01*
X215284160Y-91197828D01*
X215284160Y-91138000D01*
X215318418Y-91069484D01*
X215348825Y-91039077D01*
X215417341Y-91004819D01*
X215625561Y-91004819D01*
X215756870Y-91048589D01*
X215771207Y-91051849D01*
X215800397Y-91049774D01*
X215826571Y-91036688D01*
X215845745Y-91014580D01*
X215854999Y-90986818D01*
X215852924Y-90957628D01*
X215839837Y-90931455D01*
X215817730Y-90912281D01*
X215804305Y-90906287D01*
X215661448Y-90858668D01*
X215654194Y-90857018D01*
X215652363Y-90856260D01*
X215649708Y-90855998D01*
X215647111Y-90855408D01*
X215645136Y-90855548D01*
X215637731Y-90854819D01*
X215399636Y-90854819D01*
X215385004Y-90856260D01*
X215382515Y-90857290D01*
X215379826Y-90857482D01*
X215366095Y-90862737D01*
X215270857Y-90910356D01*
X215264557Y-90914320D01*
X215262730Y-90915078D01*
X215260673Y-90916766D01*
X215258414Y-90918188D01*
X215257114Y-90919686D01*
X215251365Y-90924405D01*
X215203746Y-90972024D01*
X215199027Y-90977773D01*
X215197529Y-90979073D01*
X215196107Y-90981332D01*
X215194419Y-90983389D01*
X215193661Y-90985216D01*
X215189697Y-90991516D01*
X215142078Y-91086754D01*
X215136823Y-91100486D01*
X215136632Y-91103173D01*
X215135601Y-91105663D01*
X215134160Y-91120295D01*
X215023049Y-91120295D01*
X215023049Y-90743708D01*
X218109556Y-90743708D01*
X218109556Y-92115930D01*
G37*
X198371619Y-96915266D02*
X197895428Y-97248599D01*
X198371619Y-97486694D02*
X197371619Y-97486694D01*
X197371619Y-97486694D02*
X197371619Y-97105742D01*
X197371619Y-97105742D02*
X197419238Y-97010504D01*
X197419238Y-97010504D02*
X197466857Y-96962885D01*
X197466857Y-96962885D02*
X197562095Y-96915266D01*
X197562095Y-96915266D02*
X197704952Y-96915266D01*
X197704952Y-96915266D02*
X197800190Y-96962885D01*
X197800190Y-96962885D02*
X197847809Y-97010504D01*
X197847809Y-97010504D02*
X197895428Y-97105742D01*
X197895428Y-97105742D02*
X197895428Y-97486694D01*
X197371619Y-96058123D02*
X197371619Y-96248599D01*
X197371619Y-96248599D02*
X197419238Y-96343837D01*
X197419238Y-96343837D02*
X197466857Y-96391456D01*
X197466857Y-96391456D02*
X197609714Y-96486694D01*
X197609714Y-96486694D02*
X197800190Y-96534313D01*
X197800190Y-96534313D02*
X198181142Y-96534313D01*
X198181142Y-96534313D02*
X198276380Y-96486694D01*
X198276380Y-96486694D02*
X198324000Y-96439075D01*
X198324000Y-96439075D02*
X198371619Y-96343837D01*
X198371619Y-96343837D02*
X198371619Y-96153361D01*
X198371619Y-96153361D02*
X198324000Y-96058123D01*
X198324000Y-96058123D02*
X198276380Y-96010504D01*
X198276380Y-96010504D02*
X198181142Y-95962885D01*
X198181142Y-95962885D02*
X197943047Y-95962885D01*
X197943047Y-95962885D02*
X197847809Y-96010504D01*
X197847809Y-96010504D02*
X197800190Y-96058123D01*
X197800190Y-96058123D02*
X197752571Y-96153361D01*
X197752571Y-96153361D02*
X197752571Y-96343837D01*
X197752571Y-96343837D02*
X197800190Y-96439075D01*
X197800190Y-96439075D02*
X197847809Y-96486694D01*
X197847809Y-96486694D02*
X197943047Y-96534313D01*
X182061666Y-106821009D02*
X181728333Y-106821009D01*
X181728333Y-107344819D02*
X181728333Y-106344819D01*
X181728333Y-106344819D02*
X182204523Y-106344819D01*
X183109285Y-107344819D02*
X182537857Y-107344819D01*
X182823571Y-107344819D02*
X182823571Y-106344819D01*
X182823571Y-106344819D02*
X182728333Y-106487676D01*
X182728333Y-106487676D02*
X182633095Y-106582914D01*
X182633095Y-106582914D02*
X182537857Y-106630533D01*
X208583333Y-109584180D02*
X208535714Y-109631800D01*
X208535714Y-109631800D02*
X208392857Y-109679419D01*
X208392857Y-109679419D02*
X208297619Y-109679419D01*
X208297619Y-109679419D02*
X208154762Y-109631800D01*
X208154762Y-109631800D02*
X208059524Y-109536561D01*
X208059524Y-109536561D02*
X208011905Y-109441323D01*
X208011905Y-109441323D02*
X207964286Y-109250847D01*
X207964286Y-109250847D02*
X207964286Y-109107990D01*
X207964286Y-109107990D02*
X208011905Y-108917514D01*
X208011905Y-108917514D02*
X208059524Y-108822276D01*
X208059524Y-108822276D02*
X208154762Y-108727038D01*
X208154762Y-108727038D02*
X208297619Y-108679419D01*
X208297619Y-108679419D02*
X208392857Y-108679419D01*
X208392857Y-108679419D02*
X208535714Y-108727038D01*
X208535714Y-108727038D02*
X208583333Y-108774657D01*
X209154762Y-109107990D02*
X209059524Y-109060371D01*
X209059524Y-109060371D02*
X209011905Y-109012752D01*
X209011905Y-109012752D02*
X208964286Y-108917514D01*
X208964286Y-108917514D02*
X208964286Y-108869895D01*
X208964286Y-108869895D02*
X209011905Y-108774657D01*
X209011905Y-108774657D02*
X209059524Y-108727038D01*
X209059524Y-108727038D02*
X209154762Y-108679419D01*
X209154762Y-108679419D02*
X209345238Y-108679419D01*
X209345238Y-108679419D02*
X209440476Y-108727038D01*
X209440476Y-108727038D02*
X209488095Y-108774657D01*
X209488095Y-108774657D02*
X209535714Y-108869895D01*
X209535714Y-108869895D02*
X209535714Y-108917514D01*
X209535714Y-108917514D02*
X209488095Y-109012752D01*
X209488095Y-109012752D02*
X209440476Y-109060371D01*
X209440476Y-109060371D02*
X209345238Y-109107990D01*
X209345238Y-109107990D02*
X209154762Y-109107990D01*
X209154762Y-109107990D02*
X209059524Y-109155609D01*
X209059524Y-109155609D02*
X209011905Y-109203228D01*
X209011905Y-109203228D02*
X208964286Y-109298466D01*
X208964286Y-109298466D02*
X208964286Y-109488942D01*
X208964286Y-109488942D02*
X209011905Y-109584180D01*
X209011905Y-109584180D02*
X209059524Y-109631800D01*
X209059524Y-109631800D02*
X209154762Y-109679419D01*
X209154762Y-109679419D02*
X209345238Y-109679419D01*
X209345238Y-109679419D02*
X209440476Y-109631800D01*
X209440476Y-109631800D02*
X209488095Y-109584180D01*
X209488095Y-109584180D02*
X209535714Y-109488942D01*
X209535714Y-109488942D02*
X209535714Y-109298466D01*
X209535714Y-109298466D02*
X209488095Y-109203228D01*
X209488095Y-109203228D02*
X209440476Y-109155609D01*
X209440476Y-109155609D02*
X209345238Y-109107990D01*
X210439580Y-131802857D02*
X210487200Y-131850476D01*
X210487200Y-131850476D02*
X210534819Y-131993333D01*
X210534819Y-131993333D02*
X210534819Y-132088571D01*
X210534819Y-132088571D02*
X210487200Y-132231428D01*
X210487200Y-132231428D02*
X210391961Y-132326666D01*
X210391961Y-132326666D02*
X210296723Y-132374285D01*
X210296723Y-132374285D02*
X210106247Y-132421904D01*
X210106247Y-132421904D02*
X209963390Y-132421904D01*
X209963390Y-132421904D02*
X209772914Y-132374285D01*
X209772914Y-132374285D02*
X209677676Y-132326666D01*
X209677676Y-132326666D02*
X209582438Y-132231428D01*
X209582438Y-132231428D02*
X209534819Y-132088571D01*
X209534819Y-132088571D02*
X209534819Y-131993333D01*
X209534819Y-131993333D02*
X209582438Y-131850476D01*
X209582438Y-131850476D02*
X209630057Y-131802857D01*
X209630057Y-131421904D02*
X209582438Y-131374285D01*
X209582438Y-131374285D02*
X209534819Y-131279047D01*
X209534819Y-131279047D02*
X209534819Y-131040952D01*
X209534819Y-131040952D02*
X209582438Y-130945714D01*
X209582438Y-130945714D02*
X209630057Y-130898095D01*
X209630057Y-130898095D02*
X209725295Y-130850476D01*
X209725295Y-130850476D02*
X209820533Y-130850476D01*
X209820533Y-130850476D02*
X209963390Y-130898095D01*
X209963390Y-130898095D02*
X210534819Y-131469523D01*
X210534819Y-131469523D02*
X210534819Y-130850476D01*
X210534819Y-129898095D02*
X210534819Y-130469523D01*
X210534819Y-130183809D02*
X209534819Y-130183809D01*
X209534819Y-130183809D02*
X209677676Y-130279047D01*
X209677676Y-130279047D02*
X209772914Y-130374285D01*
X209772914Y-130374285D02*
X209820533Y-130469523D01*
X198371619Y-98718666D02*
X197895428Y-99051999D01*
X198371619Y-99290094D02*
X197371619Y-99290094D01*
X197371619Y-99290094D02*
X197371619Y-98909142D01*
X197371619Y-98909142D02*
X197419238Y-98813904D01*
X197419238Y-98813904D02*
X197466857Y-98766285D01*
X197466857Y-98766285D02*
X197562095Y-98718666D01*
X197562095Y-98718666D02*
X197704952Y-98718666D01*
X197704952Y-98718666D02*
X197800190Y-98766285D01*
X197800190Y-98766285D02*
X197847809Y-98813904D01*
X197847809Y-98813904D02*
X197895428Y-98909142D01*
X197895428Y-98909142D02*
X197895428Y-99290094D01*
X197466857Y-98337713D02*
X197419238Y-98290094D01*
X197419238Y-98290094D02*
X197371619Y-98194856D01*
X197371619Y-98194856D02*
X197371619Y-97956761D01*
X197371619Y-97956761D02*
X197419238Y-97861523D01*
X197419238Y-97861523D02*
X197466857Y-97813904D01*
X197466857Y-97813904D02*
X197562095Y-97766285D01*
X197562095Y-97766285D02*
X197657333Y-97766285D01*
X197657333Y-97766285D02*
X197800190Y-97813904D01*
X197800190Y-97813904D02*
X198371619Y-98385332D01*
X198371619Y-98385332D02*
X198371619Y-97766285D01*
X206102980Y-98714066D02*
X206150600Y-98761685D01*
X206150600Y-98761685D02*
X206198219Y-98904542D01*
X206198219Y-98904542D02*
X206198219Y-98999780D01*
X206198219Y-98999780D02*
X206150600Y-99142637D01*
X206150600Y-99142637D02*
X206055361Y-99237875D01*
X206055361Y-99237875D02*
X205960123Y-99285494D01*
X205960123Y-99285494D02*
X205769647Y-99333113D01*
X205769647Y-99333113D02*
X205626790Y-99333113D01*
X205626790Y-99333113D02*
X205436314Y-99285494D01*
X205436314Y-99285494D02*
X205341076Y-99237875D01*
X205341076Y-99237875D02*
X205245838Y-99142637D01*
X205245838Y-99142637D02*
X205198219Y-98999780D01*
X205198219Y-98999780D02*
X205198219Y-98904542D01*
X205198219Y-98904542D02*
X205245838Y-98761685D01*
X205245838Y-98761685D02*
X205293457Y-98714066D01*
X206198219Y-97761685D02*
X206198219Y-98333113D01*
X206198219Y-98047399D02*
X205198219Y-98047399D01*
X205198219Y-98047399D02*
X205341076Y-98142637D01*
X205341076Y-98142637D02*
X205436314Y-98237875D01*
X205436314Y-98237875D02*
X205483933Y-98333113D01*
X214932142Y-121759580D02*
X214884523Y-121807200D01*
X214884523Y-121807200D02*
X214741666Y-121854819D01*
X214741666Y-121854819D02*
X214646428Y-121854819D01*
X214646428Y-121854819D02*
X214503571Y-121807200D01*
X214503571Y-121807200D02*
X214408333Y-121711961D01*
X214408333Y-121711961D02*
X214360714Y-121616723D01*
X214360714Y-121616723D02*
X214313095Y-121426247D01*
X214313095Y-121426247D02*
X214313095Y-121283390D01*
X214313095Y-121283390D02*
X214360714Y-121092914D01*
X214360714Y-121092914D02*
X214408333Y-120997676D01*
X214408333Y-120997676D02*
X214503571Y-120902438D01*
X214503571Y-120902438D02*
X214646428Y-120854819D01*
X214646428Y-120854819D02*
X214741666Y-120854819D01*
X214741666Y-120854819D02*
X214884523Y-120902438D01*
X214884523Y-120902438D02*
X214932142Y-120950057D01*
X215884523Y-121854819D02*
X215313095Y-121854819D01*
X215598809Y-121854819D02*
X215598809Y-120854819D01*
X215598809Y-120854819D02*
X215503571Y-120997676D01*
X215503571Y-120997676D02*
X215408333Y-121092914D01*
X215408333Y-121092914D02*
X215313095Y-121140533D01*
X216360714Y-121854819D02*
X216551190Y-121854819D01*
X216551190Y-121854819D02*
X216646428Y-121807200D01*
X216646428Y-121807200D02*
X216694047Y-121759580D01*
X216694047Y-121759580D02*
X216789285Y-121616723D01*
X216789285Y-121616723D02*
X216836904Y-121426247D01*
X216836904Y-121426247D02*
X216836904Y-121045295D01*
X216836904Y-121045295D02*
X216789285Y-120950057D01*
X216789285Y-120950057D02*
X216741666Y-120902438D01*
X216741666Y-120902438D02*
X216646428Y-120854819D01*
X216646428Y-120854819D02*
X216455952Y-120854819D01*
X216455952Y-120854819D02*
X216360714Y-120902438D01*
X216360714Y-120902438D02*
X216313095Y-120950057D01*
X216313095Y-120950057D02*
X216265476Y-121045295D01*
X216265476Y-121045295D02*
X216265476Y-121283390D01*
X216265476Y-121283390D02*
X216313095Y-121378628D01*
X216313095Y-121378628D02*
X216360714Y-121426247D01*
X216360714Y-121426247D02*
X216455952Y-121473866D01*
X216455952Y-121473866D02*
X216646428Y-121473866D01*
X216646428Y-121473866D02*
X216741666Y-121426247D01*
X216741666Y-121426247D02*
X216789285Y-121378628D01*
X216789285Y-121378628D02*
X216836904Y-121283390D01*
X189642761Y-111950057D02*
X189547523Y-111902438D01*
X189547523Y-111902438D02*
X189452285Y-111807200D01*
X189452285Y-111807200D02*
X189309428Y-111664342D01*
X189309428Y-111664342D02*
X189214190Y-111616723D01*
X189214190Y-111616723D02*
X189118952Y-111616723D01*
X189166571Y-111854819D02*
X189071333Y-111807200D01*
X189071333Y-111807200D02*
X188976095Y-111711961D01*
X188976095Y-111711961D02*
X188928476Y-111521485D01*
X188928476Y-111521485D02*
X188928476Y-111188152D01*
X188928476Y-111188152D02*
X188976095Y-110997676D01*
X188976095Y-110997676D02*
X189071333Y-110902438D01*
X189071333Y-110902438D02*
X189166571Y-110854819D01*
X189166571Y-110854819D02*
X189357047Y-110854819D01*
X189357047Y-110854819D02*
X189452285Y-110902438D01*
X189452285Y-110902438D02*
X189547523Y-110997676D01*
X189547523Y-110997676D02*
X189595142Y-111188152D01*
X189595142Y-111188152D02*
X189595142Y-111521485D01*
X189595142Y-111521485D02*
X189547523Y-111711961D01*
X189547523Y-111711961D02*
X189452285Y-111807200D01*
X189452285Y-111807200D02*
X189357047Y-111854819D01*
X189357047Y-111854819D02*
X189166571Y-111854819D01*
X190499904Y-110854819D02*
X190023714Y-110854819D01*
X190023714Y-110854819D02*
X189976095Y-111331009D01*
X189976095Y-111331009D02*
X190023714Y-111283390D01*
X190023714Y-111283390D02*
X190118952Y-111235771D01*
X190118952Y-111235771D02*
X190357047Y-111235771D01*
X190357047Y-111235771D02*
X190452285Y-111283390D01*
X190452285Y-111283390D02*
X190499904Y-111331009D01*
X190499904Y-111331009D02*
X190547523Y-111426247D01*
X190547523Y-111426247D02*
X190547523Y-111664342D01*
X190547523Y-111664342D02*
X190499904Y-111759580D01*
X190499904Y-111759580D02*
X190452285Y-111807200D01*
X190452285Y-111807200D02*
X190357047Y-111854819D01*
X190357047Y-111854819D02*
X190118952Y-111854819D01*
X190118952Y-111854819D02*
X190023714Y-111807200D01*
X190023714Y-111807200D02*
X189976095Y-111759580D01*
D12*
X202838237Y-130434318D02*
X202838237Y-129164318D01*
X204168714Y-130313365D02*
X204108238Y-130373842D01*
X204108238Y-130373842D02*
X203926809Y-130434318D01*
X203926809Y-130434318D02*
X203805857Y-130434318D01*
X203805857Y-130434318D02*
X203624428Y-130373842D01*
X203624428Y-130373842D02*
X203503476Y-130252889D01*
X203503476Y-130252889D02*
X203442999Y-130131937D01*
X203442999Y-130131937D02*
X203382523Y-129890032D01*
X203382523Y-129890032D02*
X203382523Y-129708603D01*
X203382523Y-129708603D02*
X203442999Y-129466699D01*
X203442999Y-129466699D02*
X203503476Y-129345746D01*
X203503476Y-129345746D02*
X203624428Y-129224794D01*
X203624428Y-129224794D02*
X203805857Y-129164318D01*
X203805857Y-129164318D02*
X203926809Y-129164318D01*
X203926809Y-129164318D02*
X204108238Y-129224794D01*
X204108238Y-129224794D02*
X204168714Y-129285270D01*
X205257285Y-129164318D02*
X205015380Y-129164318D01*
X205015380Y-129164318D02*
X204894428Y-129224794D01*
X204894428Y-129224794D02*
X204833952Y-129285270D01*
X204833952Y-129285270D02*
X204712999Y-129466699D01*
X204712999Y-129466699D02*
X204652523Y-129708603D01*
X204652523Y-129708603D02*
X204652523Y-130192413D01*
X204652523Y-130192413D02*
X204712999Y-130313365D01*
X204712999Y-130313365D02*
X204773476Y-130373842D01*
X204773476Y-130373842D02*
X204894428Y-130434318D01*
X204894428Y-130434318D02*
X205136333Y-130434318D01*
X205136333Y-130434318D02*
X205257285Y-130373842D01*
X205257285Y-130373842D02*
X205317761Y-130313365D01*
X205317761Y-130313365D02*
X205378238Y-130192413D01*
X205378238Y-130192413D02*
X205378238Y-129890032D01*
X205378238Y-129890032D02*
X205317761Y-129769080D01*
X205317761Y-129769080D02*
X205257285Y-129708603D01*
X205257285Y-129708603D02*
X205136333Y-129648127D01*
X205136333Y-129648127D02*
X204894428Y-129648127D01*
X204894428Y-129648127D02*
X204773476Y-129708603D01*
X204773476Y-129708603D02*
X204712999Y-129769080D01*
X204712999Y-129769080D02*
X204652523Y-129890032D01*
D11*
X191875580Y-96992066D02*
X191923200Y-97039685D01*
X191923200Y-97039685D02*
X191970819Y-97182542D01*
X191970819Y-97182542D02*
X191970819Y-97277780D01*
X191970819Y-97277780D02*
X191923200Y-97420637D01*
X191923200Y-97420637D02*
X191827961Y-97515875D01*
X191827961Y-97515875D02*
X191732723Y-97563494D01*
X191732723Y-97563494D02*
X191542247Y-97611113D01*
X191542247Y-97611113D02*
X191399390Y-97611113D01*
X191399390Y-97611113D02*
X191208914Y-97563494D01*
X191208914Y-97563494D02*
X191113676Y-97515875D01*
X191113676Y-97515875D02*
X191018438Y-97420637D01*
X191018438Y-97420637D02*
X190970819Y-97277780D01*
X190970819Y-97277780D02*
X190970819Y-97182542D01*
X190970819Y-97182542D02*
X191018438Y-97039685D01*
X191018438Y-97039685D02*
X191066057Y-96992066D01*
X191970819Y-96515875D02*
X191970819Y-96325399D01*
X191970819Y-96325399D02*
X191923200Y-96230161D01*
X191923200Y-96230161D02*
X191875580Y-96182542D01*
X191875580Y-96182542D02*
X191732723Y-96087304D01*
X191732723Y-96087304D02*
X191542247Y-96039685D01*
X191542247Y-96039685D02*
X191161295Y-96039685D01*
X191161295Y-96039685D02*
X191066057Y-96087304D01*
X191066057Y-96087304D02*
X191018438Y-96134923D01*
X191018438Y-96134923D02*
X190970819Y-96230161D01*
X190970819Y-96230161D02*
X190970819Y-96420637D01*
X190970819Y-96420637D02*
X191018438Y-96515875D01*
X191018438Y-96515875D02*
X191066057Y-96563494D01*
X191066057Y-96563494D02*
X191161295Y-96611113D01*
X191161295Y-96611113D02*
X191399390Y-96611113D01*
X191399390Y-96611113D02*
X191494628Y-96563494D01*
X191494628Y-96563494D02*
X191542247Y-96515875D01*
X191542247Y-96515875D02*
X191589866Y-96420637D01*
X191589866Y-96420637D02*
X191589866Y-96230161D01*
X191589866Y-96230161D02*
X191542247Y-96134923D01*
X191542247Y-96134923D02*
X191494628Y-96087304D01*
X191494628Y-96087304D02*
X191399390Y-96039685D01*
D13*
%TO.C,C4*%
X192555400Y-101270980D02*
X192555400Y-100989820D01*
X193575400Y-101270980D02*
X193575400Y-100989820D01*
%TO.C,C2*%
X208150000Y-123469420D02*
X208150000Y-123750580D01*
X209170000Y-123469420D02*
X209170000Y-123750580D01*
%TO.C,C27*%
X220069420Y-126370000D02*
X220350580Y-126370000D01*
X220069420Y-127390000D02*
X220350580Y-127390000D01*
D10*
%TO.C,Q1*%
X198691800Y-108707000D02*
X198691800Y-108707000D01*
X198791800Y-108707000D02*
X198791800Y-108707000D01*
X198691800Y-108707000D02*
G75*
G02*
X198791800Y-108707000I50000J0D01*
G01*
X198791800Y-108707000D02*
G75*
G02*
X198691800Y-108707000I-50000J0D01*
G01*
D14*
%TO.C,IC2*%
X221380000Y-123140000D02*
X221380000Y-123940000D01*
X222680000Y-122040000D02*
X221680000Y-122040000D01*
X222680000Y-125040000D02*
X221680000Y-125040000D01*
D10*
X224180000Y-124490000D02*
X224180000Y-124490000D01*
X224280000Y-124490000D02*
X224280000Y-124490000D01*
X224180000Y-124490000D02*
G75*
G02*
X224280000Y-124490000I50000J0D01*
G01*
X224280000Y-124490000D02*
G75*
G02*
X224180000Y-124490000I-50000J0D01*
G01*
D13*
%TO.C,C5*%
X195959000Y-101015220D02*
X195959000Y-101296380D01*
X196979000Y-101015220D02*
X196979000Y-101296380D01*
%TO.C,R1*%
X194270100Y-101380058D02*
X194270100Y-100905542D01*
X195315100Y-101380058D02*
X195315100Y-100905542D01*
%TO.C,U5*%
X215607500Y-123916800D02*
X214807500Y-123916800D01*
X215607500Y-123916800D02*
X216407500Y-123916800D01*
X215607500Y-127036800D02*
X214807500Y-127036800D01*
X215607500Y-127036800D02*
X216407500Y-127036800D01*
X214307500Y-123966800D02*
X214067500Y-123636800D01*
X214547500Y-123636800D01*
X214307500Y-123966800D01*
G36*
X214307500Y-123966800D02*
G01*
X214067500Y-123636800D01*
X214547500Y-123636800D01*
X214307500Y-123966800D01*
G37*
%TO.C,R13*%
X225127500Y-123172742D02*
X225127500Y-123647258D01*
X226172500Y-123172742D02*
X226172500Y-123647258D01*
%TO.C,C26*%
X224988748Y-119265000D02*
X225511252Y-119265000D01*
X224988748Y-120735000D02*
X225511252Y-120735000D01*
%TO.C,R16*%
X218077500Y-123452742D02*
X218077500Y-123927258D01*
X219122500Y-123452742D02*
X219122500Y-123927258D01*
%TO.C,R7*%
X211298742Y-102977500D02*
X211773258Y-102977500D01*
X211298742Y-104022500D02*
X211773258Y-104022500D01*
D14*
%TO.C,IC3*%
X200615000Y-119925000D02*
X202140000Y-119925000D01*
X202490000Y-120055000D02*
X205690000Y-120055000D01*
X202490000Y-124955000D02*
X202490000Y-120055000D01*
X205690000Y-120055000D02*
X205690000Y-124955000D01*
X205690000Y-124955000D02*
X202490000Y-124955000D01*
D13*
%TO.C,LVPWR1*%
X213515000Y-103700000D02*
X213515000Y-106160000D01*
X213515000Y-106160000D02*
X214985000Y-106160000D01*
X214985000Y-106160000D02*
X214985000Y-103700000D01*
%TO.C,R14*%
X221737258Y-119227500D02*
X221262742Y-119227500D01*
X221737258Y-120272500D02*
X221262742Y-120272500D01*
%TO.C,J5*%
X174555977Y-119045417D02*
X174555977Y-125205417D01*
X174555977Y-125205417D02*
X183235977Y-125205417D01*
X183235977Y-119045417D02*
X174555977Y-119045417D01*
X183235977Y-120725417D02*
X183235977Y-121025417D01*
X183235977Y-121025417D02*
X183685977Y-121025417D01*
X183235977Y-123225417D02*
X183235977Y-123525417D01*
X183235977Y-123525417D02*
X183685977Y-123525417D01*
X183235977Y-125205417D02*
X183235977Y-119045417D01*
X183685977Y-120725417D02*
X183235977Y-120725417D01*
X183685977Y-121025417D02*
X183685977Y-120725417D01*
X183685977Y-123225417D02*
X183235977Y-123225417D01*
X183685977Y-123525417D02*
X183685977Y-123225417D01*
X184745977Y-124909681D02*
X185345977Y-124909681D01*
X185045977Y-124485417D02*
X184745977Y-124909681D01*
X185345977Y-124909681D02*
X185045977Y-124485417D01*
%TO.C,R15*%
X215722742Y-127494300D02*
X216197258Y-127494300D01*
X215722742Y-128539300D02*
X216197258Y-128539300D01*
%TO.C,J4*%
X174569154Y-111545434D02*
X174569154Y-117705434D01*
X174569154Y-117705434D02*
X183249154Y-117705434D01*
X183249154Y-111545434D02*
X174569154Y-111545434D01*
X183249154Y-113225434D02*
X183249154Y-113525434D01*
X183249154Y-113525434D02*
X183699154Y-113525434D01*
X183249154Y-115725434D02*
X183249154Y-116025434D01*
X183249154Y-116025434D02*
X183699154Y-116025434D01*
X183249154Y-117705434D02*
X183249154Y-111545434D01*
X183699154Y-113225434D02*
X183249154Y-113225434D01*
X183699154Y-113525434D02*
X183699154Y-113225434D01*
X183699154Y-115725434D02*
X183249154Y-115725434D01*
X183699154Y-116025434D02*
X183699154Y-115725434D01*
X184759154Y-117409698D02*
X185359154Y-117409698D01*
X185059154Y-116985434D02*
X184759154Y-117409698D01*
X185359154Y-117409698D02*
X185059154Y-116985434D01*
%TO.C,C20*%
X198659420Y-127360000D02*
X198940580Y-127360000D01*
X198659420Y-128380000D02*
X198940580Y-128380000D01*
%TO.C,C6*%
X211257548Y-104675000D02*
X211780052Y-104675000D01*
X211257548Y-106145000D02*
X211780052Y-106145000D01*
%TO.C,C10*%
X200151420Y-118416000D02*
X200432580Y-118416000D01*
X200151420Y-119436000D02*
X200432580Y-119436000D01*
%TO.C,C15*%
X208120000Y-116129420D02*
X208120000Y-116410580D01*
X209140000Y-116129420D02*
X209140000Y-116410580D01*
%TO.C,C25*%
X220069420Y-127910000D02*
X220350580Y-127910000D01*
X220069420Y-128930000D02*
X220350580Y-128930000D01*
%TO.C,C7*%
X211261748Y-106765000D02*
X211784252Y-106765000D01*
X211261748Y-108235000D02*
X211784252Y-108235000D01*
%TO.C,C24*%
X209269420Y-127335000D02*
X209550580Y-127335000D01*
X209269420Y-128355000D02*
X209550580Y-128355000D01*
%TO.C,R11*%
X195037500Y-119542742D02*
X195037500Y-120017258D01*
X196082500Y-119542742D02*
X196082500Y-120017258D01*
%TO.C,C17*%
X209179420Y-112610000D02*
X209460580Y-112610000D01*
X209179420Y-113630000D02*
X209460580Y-113630000D01*
%TO.C,C3*%
X209224420Y-119980000D02*
X209505580Y-119980000D01*
X209224420Y-121000000D02*
X209505580Y-121000000D01*
%TO.C,C12*%
X200134420Y-111010000D02*
X200415580Y-111010000D01*
X200134420Y-112030000D02*
X200415580Y-112030000D01*
%TO.C,R12*%
X195057500Y-112112742D02*
X195057500Y-112587258D01*
X196102500Y-112112742D02*
X196102500Y-112587258D01*
D14*
%TO.C,IC1*%
X197570800Y-99602600D02*
X198770800Y-99602600D01*
X199120800Y-99702600D02*
X199720800Y-99702600D01*
X199120800Y-102602600D02*
X199120800Y-99702600D01*
X199720800Y-99702600D02*
X199720800Y-102602600D01*
X199720800Y-102602600D02*
X199120800Y-102602600D01*
D13*
%TO.C,J3*%
X174530000Y-88670000D02*
X174530000Y-102330000D01*
X174530000Y-102330000D02*
X183210000Y-102330000D01*
X183210000Y-88670000D02*
X174530000Y-88670000D01*
X183210000Y-90350000D02*
X183210000Y-90650000D01*
X183210000Y-90650000D02*
X183910000Y-90650000D01*
X183210000Y-92850000D02*
X183210000Y-93150000D01*
X183210000Y-93150000D02*
X183910000Y-93150000D01*
X183210000Y-95350000D02*
X183210000Y-95650000D01*
X183210000Y-95650000D02*
X183910000Y-95650000D01*
X183210000Y-97850000D02*
X183210000Y-98150000D01*
X183210000Y-98150000D02*
X183910000Y-98150000D01*
X183210000Y-100350000D02*
X183210000Y-100650000D01*
X183210000Y-100650000D02*
X183910000Y-100650000D01*
X183210000Y-102330000D02*
X183210000Y-88670000D01*
X183910000Y-90350000D02*
X183210000Y-90350000D01*
X183910000Y-90650000D02*
X183910000Y-90350000D01*
X183910000Y-92850000D02*
X183210000Y-92850000D01*
X183910000Y-93150000D02*
X183910000Y-92850000D01*
X183910000Y-95350000D02*
X183210000Y-95350000D01*
X183910000Y-95650000D02*
X183910000Y-95350000D01*
X183910000Y-97850000D02*
X183210000Y-97850000D01*
X183910000Y-98150000D02*
X183910000Y-97850000D01*
X183910000Y-100350000D02*
X183210000Y-100350000D01*
X183910000Y-100650000D02*
X183910000Y-100350000D01*
X187220000Y-102034264D02*
X187820000Y-102034264D01*
X187520000Y-101610000D02*
X187220000Y-102034264D01*
X187820000Y-102034264D02*
X187520000Y-101610000D01*
D14*
%TO.C,IC4*%
X200563000Y-112565000D02*
X202088000Y-112565000D01*
X202438000Y-112695000D02*
X205638000Y-112695000D01*
X202438000Y-117595000D02*
X202438000Y-112695000D01*
X205638000Y-112695000D02*
X205638000Y-117595000D01*
X205638000Y-117595000D02*
X202438000Y-117595000D01*
%TO.C,D1*%
X201976200Y-102723400D02*
X201976200Y-97763400D01*
X204576200Y-101663400D02*
X204576200Y-97763400D01*
D13*
%TO.C,J6*%
X174470000Y-126060000D02*
X174470000Y-134720000D01*
X174470000Y-134720000D02*
X183150000Y-134720000D01*
X183150000Y-126060000D02*
X174470000Y-126060000D01*
X183150000Y-127740000D02*
X183150000Y-128040000D01*
X183150000Y-128040000D02*
X183600000Y-128040000D01*
X183150000Y-130240000D02*
X183150000Y-130540000D01*
X183150000Y-130540000D02*
X183600000Y-130540000D01*
X183150000Y-132740000D02*
X183150000Y-133040000D01*
X183150000Y-133040000D02*
X183600000Y-133040000D01*
X183150000Y-134720000D02*
X183150000Y-126060000D01*
X183600000Y-127740000D02*
X183150000Y-127740000D01*
X183600000Y-128040000D02*
X183600000Y-127740000D01*
X183600000Y-130240000D02*
X183150000Y-130240000D01*
X183600000Y-130540000D02*
X183600000Y-130240000D01*
X183600000Y-132740000D02*
X183150000Y-132740000D01*
X183600000Y-133040000D02*
X183600000Y-132740000D01*
X184660000Y-134424264D02*
X185260000Y-134424264D01*
X184960000Y-134000000D02*
X184660000Y-134424264D01*
X185260000Y-134424264D02*
X184960000Y-134000000D01*
%TO.C,Q3*%
X192782500Y-118350000D02*
X192132500Y-118350000D01*
X192782500Y-118350000D02*
X193432500Y-118350000D01*
X192782500Y-121470000D02*
X192132500Y-121470000D01*
X192782500Y-121470000D02*
X193432500Y-121470000D01*
X194185000Y-121750000D02*
X193705000Y-121750000D01*
X193945000Y-121420000D01*
X194185000Y-121750000D01*
G36*
X194185000Y-121750000D02*
G01*
X193705000Y-121750000D01*
X193945000Y-121420000D01*
X194185000Y-121750000D01*
G37*
D10*
%TO.C,Q4*%
X200101400Y-104907000D02*
X200101400Y-104907000D01*
X200201400Y-104907000D02*
X200201400Y-104907000D01*
X200101400Y-104907000D02*
G75*
G02*
X200201400Y-104907000I50000J0D01*
G01*
X200201400Y-104907000D02*
G75*
G02*
X200101400Y-104907000I-50000J0D01*
G01*
D15*
%TO.C,J1*%
X204250400Y-86442600D02*
X204936200Y-86442600D01*
X204250400Y-90557400D02*
X204250400Y-86442600D01*
X204936200Y-90557400D02*
X204250400Y-90557400D01*
X215096200Y-86442600D02*
X215629600Y-86950600D01*
X215629600Y-86950600D02*
X215629600Y-90557400D01*
X215629600Y-90557400D02*
X214943800Y-90557400D01*
X215883600Y-86341000D02*
X217153600Y-85706000D01*
X217153600Y-85706000D02*
X217153600Y-86976000D01*
X217153600Y-86976000D02*
X215883600Y-86341000D01*
D13*
%TO.C,R6*%
X199787742Y-96251500D02*
X200262258Y-96251500D01*
X199787742Y-97296500D02*
X200262258Y-97296500D01*
D16*
%TO.C,F1*%
X174405000Y-103535000D02*
X190405000Y-103535000D01*
X174405000Y-110265000D02*
X174405000Y-103535000D01*
X190405000Y-103535000D02*
X190405000Y-110265000D01*
X190405000Y-110265000D02*
X174405000Y-110265000D01*
D13*
%TO.C,C8*%
X211357020Y-108740000D02*
X211638180Y-108740000D01*
X211357020Y-109760000D02*
X211638180Y-109760000D01*
%TO.C,C21*%
X208170000Y-131004420D02*
X208170000Y-131285580D01*
X209190000Y-131004420D02*
X209190000Y-131285580D01*
%TO.C,R2*%
X200262258Y-98080300D02*
X199787742Y-98080300D01*
X200262258Y-99125300D02*
X199787742Y-99125300D01*
%TO.C,C1*%
X205204600Y-100799020D02*
X205204600Y-101080180D01*
X206224600Y-100799020D02*
X206224600Y-101080180D01*
%TO.C,C19*%
X215429220Y-122264200D02*
X215710380Y-122264200D01*
X215429220Y-123284200D02*
X215710380Y-123284200D01*
%TO.C,Q5*%
X192790000Y-110930000D02*
X192140000Y-110930000D01*
X192790000Y-110930000D02*
X193440000Y-110930000D01*
X192790000Y-114050000D02*
X192140000Y-114050000D01*
X192790000Y-114050000D02*
X193440000Y-114050000D01*
X194192500Y-114330000D02*
X193712500Y-114330000D01*
X193952500Y-114000000D01*
X194192500Y-114330000D01*
G36*
X194192500Y-114330000D02*
G01*
X193712500Y-114330000D01*
X193952500Y-114000000D01*
X194192500Y-114330000D01*
G37*
D14*
%TO.C,IC6*%
X200603000Y-127280000D02*
X202128000Y-127280000D01*
X202478000Y-127410000D02*
X205678000Y-127410000D01*
X202478000Y-132310000D02*
X202478000Y-127410000D01*
X205678000Y-127410000D02*
X205678000Y-132310000D01*
X205678000Y-132310000D02*
X202478000Y-132310000D01*
D13*
%TO.C,C9*%
X191006000Y-99391380D02*
X191006000Y-99110220D01*
X192026000Y-99391380D02*
X192026000Y-99110220D01*
%TD*%
%LPC*%
D17*
%TO.C,G\u002A\u002A\u002A*%
G36*
X177490794Y-136036905D02*
G01*
X177515993Y-137170833D01*
X178536528Y-137184476D01*
X179557064Y-137198119D01*
X179557064Y-137449059D01*
X179557064Y-137700000D01*
X178220751Y-137700000D01*
X176884438Y-137700000D01*
X176897834Y-136301488D01*
X176911231Y-134902976D01*
X177188413Y-134902976D01*
X177465596Y-134902976D01*
X177490794Y-136036905D01*
G37*
G36*
X190355873Y-135550198D02*
G01*
X190355873Y-135776984D01*
X189574722Y-135776984D01*
X188793571Y-135776984D01*
X188793571Y-136028968D01*
X188793571Y-136280952D01*
X189574722Y-136280952D01*
X190355873Y-136280952D01*
X190355873Y-136986508D01*
X190355873Y-137692063D01*
X189347936Y-137692063D01*
X188340000Y-137692063D01*
X188340000Y-137465278D01*
X188340000Y-137238492D01*
X189121151Y-137238492D01*
X189902301Y-137238492D01*
X189902301Y-136986508D01*
X189902301Y-136734524D01*
X189121151Y-136734524D01*
X188340000Y-136734524D01*
X188340000Y-136028968D01*
X188340000Y-135323413D01*
X189347936Y-135323413D01*
X190355873Y-135323413D01*
X190355873Y-135550198D01*
G37*
G36*
X183366828Y-134886870D02*
G01*
X183563612Y-134902976D01*
X183577008Y-136301488D01*
X183590404Y-137700000D01*
X183263678Y-137700000D01*
X182936952Y-137700000D01*
X182922703Y-137133036D01*
X182908453Y-136566071D01*
X181813982Y-136552494D01*
X180719510Y-136538916D01*
X180705251Y-137106859D01*
X180690993Y-137674801D01*
X180375211Y-137689826D01*
X180059429Y-137704851D01*
X180072830Y-136303914D01*
X180086231Y-134902976D01*
X180342691Y-134888025D01*
X180541790Y-134892861D01*
X180650363Y-134935420D01*
X180655728Y-134941244D01*
X180681275Y-135018573D01*
X180704051Y-135171243D01*
X180720876Y-135373801D01*
X180726847Y-135510561D01*
X180741389Y-136011706D01*
X181824921Y-136011706D01*
X182908453Y-136011706D01*
X182922752Y-135470474D01*
X182932061Y-135212555D01*
X182951771Y-135039779D01*
X182993781Y-134936509D01*
X183069990Y-134887105D01*
X183192298Y-134875930D01*
X183366828Y-134886870D01*
G37*
G36*
X185596389Y-134882880D02*
G01*
X185919517Y-134886724D01*
X186387725Y-134895193D01*
X186765655Y-134907869D01*
X187063823Y-134928856D01*
X187292744Y-134962257D01*
X187462934Y-135012178D01*
X187584908Y-135082721D01*
X187669182Y-135177992D01*
X187726272Y-135302094D01*
X187766693Y-135459132D01*
X187795352Y-135618856D01*
X187805781Y-135821314D01*
X187782188Y-136043805D01*
X187731695Y-136252348D01*
X187661422Y-136412966D01*
X187617371Y-136468160D01*
X187553130Y-136534076D01*
X187553297Y-136586382D01*
X187620288Y-136666572D01*
X187629499Y-136676385D01*
X187685563Y-136751351D01*
X187722230Y-136848775D01*
X187745316Y-136993634D01*
X187760634Y-137210905D01*
X187762438Y-137247429D01*
X187784076Y-137700000D01*
X187450332Y-137700000D01*
X187116588Y-137700000D01*
X187116588Y-137404415D01*
X187104342Y-137197713D01*
X187061898Y-137054351D01*
X187012136Y-136976042D01*
X186907685Y-136843254D01*
X185953803Y-136843254D01*
X184999921Y-136843254D01*
X184999921Y-137271627D01*
X184999921Y-137700000D01*
X184672342Y-137700000D01*
X184344762Y-137700000D01*
X184344762Y-136315047D01*
X184344762Y-135852116D01*
X184344762Y-135432143D01*
X184999921Y-135432143D01*
X184999921Y-135852116D01*
X185004188Y-136049653D01*
X185015542Y-136207374D01*
X185031816Y-136299012D01*
X185037719Y-136310099D01*
X185097819Y-136321199D01*
X185242244Y-136329204D01*
X185454564Y-136333761D01*
X185718345Y-136334519D01*
X186017158Y-136331126D01*
X186018719Y-136331098D01*
X186355482Y-136324007D01*
X186605965Y-136315610D01*
X186784681Y-136304404D01*
X186906141Y-136288885D01*
X186984859Y-136267551D01*
X187035349Y-136238897D01*
X187051853Y-136224093D01*
X187117195Y-136105962D01*
X187141407Y-135914497D01*
X187141786Y-135879462D01*
X187131791Y-135710129D01*
X187093410Y-135603196D01*
X187022810Y-135528484D01*
X186972720Y-135494546D01*
X186908423Y-135469601D01*
X186814814Y-135452287D01*
X186676788Y-135441247D01*
X186479240Y-135435123D01*
X186207064Y-135432554D01*
X185951878Y-135432143D01*
X184999921Y-135432143D01*
X184344762Y-135432143D01*
X184344762Y-134930095D01*
X184470608Y-134898509D01*
X184553764Y-134890726D01*
X184722805Y-134885150D01*
X184962847Y-134881903D01*
X185259004Y-134881106D01*
X185596389Y-134882880D01*
G37*
%TD*%
D18*
%TO.C,C4*%
X193065400Y-101905400D03*
X193065400Y-100355400D03*
%TD*%
D19*
%TO.C,C2*%
X208660000Y-122835000D03*
X208660000Y-124385000D03*
%TD*%
D20*
%TO.C,C27*%
X219435000Y-126880000D03*
X220985000Y-126880000D03*
%TD*%
D21*
%TO.C,Q1*%
X197871800Y-108712000D03*
X197871800Y-107442000D03*
X197871800Y-106172000D03*
X197871800Y-104902000D03*
D22*
X192111800Y-104902000D03*
X192111800Y-108712000D03*
D23*
X193711800Y-106807000D03*
D24*
X195526800Y-106807000D03*
D25*
X196191800Y-106807000D03*
%TD*%
D26*
%TO.C,IC2*%
X223380000Y-124490000D03*
X223380000Y-123540000D03*
X223380000Y-122590000D03*
X220980000Y-122590000D03*
X220980000Y-124490000D03*
%TD*%
D19*
%TO.C,C5*%
X196469000Y-100380800D03*
X196469000Y-101930800D03*
%TD*%
D27*
%TO.C,R1*%
X194792600Y-101967800D03*
X194792600Y-100317800D03*
%TD*%
D28*
%TO.C,U5*%
X214470000Y-124526800D03*
X214470000Y-125476800D03*
X214470000Y-126426800D03*
X216745000Y-126426800D03*
X216745000Y-124526800D03*
%TD*%
D29*
%TO.C,R13*%
X225650000Y-122585000D03*
X225650000Y-124235000D03*
%TD*%
D30*
%TO.C,C26*%
X224212500Y-120000000D03*
X226287500Y-120000000D03*
%TD*%
D29*
%TO.C,R16*%
X218600000Y-122865000D03*
X218600000Y-124515000D03*
%TD*%
D31*
%TO.C,R7*%
X210711000Y-103500000D03*
X212361000Y-103500000D03*
%TD*%
D32*
%TO.C,IC3*%
X201378000Y-120600000D03*
X201378000Y-121870000D03*
X201378000Y-123140000D03*
X201378000Y-124410000D03*
X206802000Y-124410000D03*
X206802000Y-123140000D03*
X206802000Y-121870000D03*
X206802000Y-120600000D03*
%TD*%
D33*
%TO.C,LVPWR1*%
X214250000Y-105375000D03*
X214250000Y-103625000D03*
%TD*%
D34*
%TO.C,R14*%
X222325000Y-119750000D03*
X220675000Y-119750000D03*
%TD*%
D35*
%TO.C,J5*%
X177865977Y-123375417D03*
X177865977Y-120875417D03*
D36*
X185045977Y-123375417D03*
D37*
X185045977Y-120875417D03*
%TD*%
D31*
%TO.C,R15*%
X215135000Y-128016800D03*
X216785000Y-128016800D03*
%TD*%
D35*
%TO.C,J4*%
X177879154Y-115875434D03*
X177879154Y-113375434D03*
D36*
X185059154Y-115875434D03*
D37*
X185059154Y-113375434D03*
%TD*%
D20*
%TO.C,C20*%
X198025000Y-127870000D03*
X199575000Y-127870000D03*
%TD*%
D30*
%TO.C,C6*%
X210481300Y-105410000D03*
X212556300Y-105410000D03*
%TD*%
D20*
%TO.C,C10*%
X199517000Y-118926000D03*
X201067000Y-118926000D03*
%TD*%
D19*
%TO.C,C15*%
X208630000Y-115495000D03*
X208630000Y-117045000D03*
%TD*%
D20*
%TO.C,C25*%
X219435000Y-128420000D03*
X220985000Y-128420000D03*
%TD*%
D30*
%TO.C,C7*%
X210485500Y-107500000D03*
X212560500Y-107500000D03*
%TD*%
D20*
%TO.C,C24*%
X208635000Y-127845000D03*
X210185000Y-127845000D03*
%TD*%
D29*
%TO.C,R11*%
X195560000Y-118955000D03*
X195560000Y-120605000D03*
%TD*%
D20*
%TO.C,C17*%
X208545000Y-113120000D03*
X210095000Y-113120000D03*
%TD*%
%TO.C,C3*%
X208590000Y-120490000D03*
X210140000Y-120490000D03*
%TD*%
%TO.C,C12*%
X199500000Y-111520000D03*
X201050000Y-111520000D03*
%TD*%
D29*
%TO.C,R12*%
X195580000Y-111525000D03*
X195580000Y-113175000D03*
%TD*%
D38*
%TO.C,IC1*%
X198170800Y-100177600D03*
X198170800Y-100827600D03*
X198170800Y-101477600D03*
X198170800Y-102127600D03*
X200670800Y-102127600D03*
X200670800Y-101477600D03*
X200670800Y-100827600D03*
X200670800Y-100177600D03*
%TD*%
D35*
%TO.C,J3*%
X177840000Y-100500000D03*
X177840000Y-90500000D03*
D39*
X187520000Y-100500000D03*
D35*
X187520000Y-98000000D03*
X187520000Y-95500000D03*
X187520000Y-93000000D03*
X187520000Y-90500000D03*
X185020000Y-100500000D03*
X185020000Y-98000000D03*
X185020000Y-95500000D03*
X185020000Y-93000000D03*
X185020000Y-90500000D03*
%TD*%
D32*
%TO.C,IC4*%
X201326000Y-113240000D03*
X201326000Y-114510000D03*
X201326000Y-115780000D03*
X201326000Y-117050000D03*
X206750000Y-117050000D03*
X206750000Y-115780000D03*
X206750000Y-114510000D03*
X206750000Y-113240000D03*
%TD*%
D40*
%TO.C,D1*%
X203276200Y-101738400D03*
X203276200Y-97688400D03*
%TD*%
D35*
%TO.C,J6*%
X177780000Y-132890000D03*
X177780000Y-127890000D03*
D36*
X184960000Y-132890000D03*
D37*
X184960000Y-130390000D03*
X184960000Y-127890000D03*
%TD*%
D41*
%TO.C,Q3*%
X193720000Y-120860000D03*
X193720000Y-118960000D03*
X191845000Y-119910000D03*
%TD*%
D21*
%TO.C,Q4*%
X201021400Y-104902000D03*
X201021400Y-106172000D03*
X201021400Y-107442000D03*
X201021400Y-108712000D03*
D22*
X206781400Y-108712000D03*
X206781400Y-104902000D03*
D23*
X205181400Y-106807000D03*
D24*
X203366400Y-106807000D03*
D25*
X202701400Y-106807000D03*
%TD*%
D42*
%TO.C,J1*%
X214340000Y-86350000D03*
X214340000Y-90650000D03*
X213540000Y-86350000D03*
X213540000Y-90650000D03*
X212740000Y-86350000D03*
X212740000Y-90650000D03*
X211940000Y-86350000D03*
X211940000Y-90650000D03*
X211140000Y-86350000D03*
X211140000Y-90650000D03*
X210340003Y-86350000D03*
X210340003Y-90650000D03*
X209540000Y-86350000D03*
X209540000Y-90650000D03*
X208740000Y-86350000D03*
X208740000Y-90650000D03*
X207940000Y-86350000D03*
X207940000Y-90650000D03*
X207140000Y-86350000D03*
X207140000Y-90650000D03*
X206340000Y-86350000D03*
X206340000Y-90650000D03*
X205540000Y-86350000D03*
X205540000Y-90650000D03*
D43*
X194170000Y-88500000D03*
D44*
X194170000Y-88500000D03*
D43*
X224920000Y-88500000D03*
D44*
X224920000Y-88500000D03*
D43*
X224920000Y-134970000D03*
D44*
X224920000Y-134970000D03*
D43*
X194180000Y-134970000D03*
D44*
X194180000Y-134970000D03*
%TD*%
D31*
%TO.C,R6*%
X199200000Y-96774000D03*
X200850000Y-96774000D03*
%TD*%
D45*
%TO.C,F1*%
X177445000Y-105200000D03*
X177445000Y-108600000D03*
X187365000Y-105200000D03*
X187365000Y-108600000D03*
%TD*%
D20*
%TO.C,C8*%
X210722600Y-109250000D03*
X212272600Y-109250000D03*
%TD*%
D19*
%TO.C,C21*%
X208680000Y-130370000D03*
X208680000Y-131920000D03*
%TD*%
D34*
%TO.C,R2*%
X200850000Y-98602800D03*
X199200000Y-98602800D03*
%TD*%
D19*
%TO.C,C1*%
X205714600Y-100164600D03*
X205714600Y-101714600D03*
%TD*%
D20*
%TO.C,C19*%
X214794800Y-122774200D03*
X216344800Y-122774200D03*
%TD*%
D41*
%TO.C,Q5*%
X193727500Y-113440000D03*
X193727500Y-111540000D03*
X191852500Y-112490000D03*
%TD*%
D32*
%TO.C,IC6*%
X201366000Y-127955000D03*
X201366000Y-129225000D03*
X201366000Y-130495000D03*
X201366000Y-131765000D03*
X206790000Y-131765000D03*
X206790000Y-130495000D03*
X206790000Y-129225000D03*
X206790000Y-127955000D03*
%TD*%
D18*
%TO.C,C9*%
X191516000Y-100025800D03*
X191516000Y-98475800D03*
%TD*%
D46*
%TO.C,TP6*%
X221660000Y-99540000D03*
%TD*%
%TO.C,TP9*%
X209470000Y-135500000D03*
%TD*%
%TO.C,TP8*%
X221630000Y-105640000D03*
%TD*%
%TO.C,TP4*%
X223680000Y-127190000D03*
%TD*%
%TO.C,TP3*%
X216350000Y-135500000D03*
%TD*%
%TO.C,TP5*%
X202625000Y-135400000D03*
%TD*%
%TO.C,TP2*%
X200960000Y-89350000D03*
%TD*%
%TO.C,TP7*%
X221710000Y-94370000D03*
%TD*%
%LPD*%
M02*
